<?xml version="1.0" standalone="no"?>
<!DOCTYPE svg PUBLIC "-//W3C//DTD SVG 1.1//EN" "http://www.w3.org/Graphics/SVG/1.1/DTD/svg11.dtd" >
<svg>
<metadata>
Created by FontForge 20110222 at Fri Nov 22 19:56:40 2013
 By Orthosie Webhosting
(c)1991,1993 Tilde Ltd. AG Fonts collection.
</metadata>
<defs>
<font id="AGLettericaCondensedLightBold" horiz-adv-x="500" >
  <font-face 
    font-family="AGLettericaCondensedLightBold"
    font-weight="700"
    font-stretch="normal"
    units-per-em="1000"
    panose-1="0 0 0 0 0 0 0 0 0 0"
    ascent="800"
    descent="-200"
    x-height="560"
    cap-height="750"
    bbox="-99 -189 1113 972"
    underline-thickness="58"
    underline-position="-61"
    unicode-range="U+0020-2122"
  />
<missing-glyph horiz-adv-x="800" 
d="M50 0v800h700v-800h-700zM700 50v700h-600v-700h600z" />
    <glyph glyph-name=".notdef" horiz-adv-x="800" 
d="M50 0v800h700v-800h-700zM700 50v700h-600v-700h600z" />
    <glyph glyph-name=".null" horiz-adv-x="0" 
 />
    <glyph glyph-name="nonmarkingreturn" horiz-adv-x="250" 
 />
    <glyph glyph-name="space" unicode=" " horiz-adv-x="250" 
 />
    <glyph glyph-name="exclam" unicode="!" horiz-adv-x="333" 
d="M122 241l-43 320v189h176v-189l-43 -320h-90zM252 0h-169v171h169v-171z" />
    <glyph glyph-name="quotedbl" unicode="&#x22;" horiz-adv-x="333" 
d="M318 468h-119v271h119v-271zM135 468h-119v271h119v-271z" />
    <glyph glyph-name="numbersign" unicode="#" 
d="M465 336v-114h-101l-30 -222h-87l29 222h-85l-30 -222h-90l30 222h-92v114h108l14 94h-94v115h108l28 205h87l-27 -205h86l27 205h90l-28 -205h83v-115h-99l-12 -94h85zM304 430h-86l-12 -94h86z" />
    <glyph glyph-name="dollar" unicode="$" 
d="M271 267v-167q31 6 52 26t21 50q0 8 -1 12q-4 17 -6 25q-6 24 -66 54zM14 215h139l10 -74q14 -30 57 -43v187q-104 49 -143 90q-56 58 -56 155q0 80 55 135t133 55v66h88v-66q86 -8 135 -65t49 -146h-140q0 38 -13 62q-16 31 -50 35v-175q107 -45 147 -84q59 -57 59 -154
q0 -95 -51 -152t-144 -57v-110h-88v111q-102 17 -144.5 70.5t-42.5 159.5zM227 456v152q-34 -10 -46 -21q-19 -17 -19 -49q0 -30 17.5 -51.5t47.5 -30.5z" />
    <glyph glyph-name="percent" unicode="%" horiz-adv-x="833" 
d="M184 363q-89 0 -127 50q-33 44 -33 137q0 88 35 134q39 52 125 52q87 0 123.5 -44.5t36.5 -141.5q0 -93 -27 -133q-36 -54 -133 -54zM184 454q24 0 33 26q6 18 6 51v20v15t1 17q0 29 -6 42q-9 20 -34 20q-23 2 -31.5 -17t-8.5 -49q1 -20 1 -28q0 -9 -0.5 -18t-0.5 -18
q0 -31 7.5 -46t32.5 -15zM628 750l-336 -768h-84l338 768h82zM650 369q90 0 127 -49q33 -43 33 -137q0 -93 -27 -133q-36 -54 -133 -54q-89 0 -127 50q-33 44 -33 137q0 88 35 134q39 52 125 52zM650 278q-24 2 -32 -16.5t-8 -48.5q1 -20 1 -28q0 -9 -0.5 -18t-0.5 -18
q0 -30 7.5 -46t32.5 -16q24 0 33 26q6 18 6 51v21q1 20 1 31q0 29 -6 42q-9 20 -34 20z" />
    <glyph glyph-name="ampersand" unicode="&#x26;" horiz-adv-x="667" 
d="M371 150l-117 181q-27 -29 -39 -55t-12 -62q0 -40 26.5 -68.5t66.5 -28.5q18 0 39 10q13 6 36 23zM308 658q-20 0 -32 -13t-12 -33q0 -24 12 -48.5t30 -41.5q19 10 36 36.5t17 47.5q0 52 -51 52zM466 0l-27 43q-71 -61 -167 -61q-102 0 -163.5 60.5t-61.5 162.5
q0 77 35.5 137t103.5 102q-61 75 -61 167q0 74 63 118q56 39 132 39q78 0 131 -42.5t53 -120.5q0 -61 -34.5 -108t-92.5 -77q20 -32 41 -63q26 -40 40 -64l22 106h129q0 -60 -17.5 -116.5t-49.5 -120.5l103 -162h-179z" />
    <glyph glyph-name="quotesingle" unicode="'" horiz-adv-x="250" 
d="M185 468h-119v271h119v-271z" />
    <glyph glyph-name="parenleft" unicode="(" horiz-adv-x="278" 
d="M137 750h121q-42 -108 -62 -228.5t-20 -246.5q0 -124 20.5 -239t65.5 -223h-125q-43 102 -63 161q-25 74 -37.5 150.5t-12.5 173.5q0 117 30 232q27 102 83 220z" />
    <glyph glyph-name="parenright" unicode=")" horiz-adv-x="278" 
d="M141 -187h-121q42 108 62 228.5t20 246.5q0 124 -20.5 239t-65.5 223h125q43 -102 63 -161q25 -74 37.5 -150.5t12.5 -173.5q0 -117 -28.5 -225.5t-84.5 -226.5z" />
    <glyph glyph-name="asterisk" unicode="*" 
d="M205 634v116h93v-113l109 42l30 -92l-114 -35l78 -101l-74 -58l-77 103l-71 -100l-78 54l77 99l-114 33l30 90z" />
    <glyph glyph-name="plus" unicode="+" 
d="M193 307v185h115v-185h167v-115h-167v-192h-115v192h-167v115h167z" />
    <glyph glyph-name="comma" unicode="," horiz-adv-x="333" 
d="M82 -156v57q40 0 65.5 28t25.5 71h-91v171h169v-172q0 -76 -46 -115.5t-123 -39.5z" />
    <glyph glyph-name="hyphen" unicode="-" horiz-adv-x="333" 
d="M291 237h-248v150h248v-150z" />
    <glyph glyph-name="period" unicode="." horiz-adv-x="333" 
d="M251 0h-169v171h169v-171z" />
    <glyph glyph-name="slash" unicode="/" horiz-adv-x="278" 
d="M79 -94h-107l225 844h110z" />
    <glyph glyph-name="zero" unicode="0" 
d="M305 201v337q0 33 -4 47q-12 40 -50 40q-36 0 -48 -27q-8 -18 -8 -60v-337q0 -45 7 -63q12 -31 49 -31q36 0 48 37q6 19 6 57zM28 189v349q0 109 56.5 160.5t166.5 51.5q129 0 178 -64q43 -56 43 -191v-270q0 -128 -47 -183q-51 -60 -176 -60q-108 0 -164.5 50t-56.5 157
z" />
    <glyph glyph-name="one" unicode="1" 
d="M190 0v506h-153v115q72 0 123 23q64 29 76 90h113v-734h-159z" />
    <glyph glyph-name="two" unicode="2" 
d="M183 479h-159v39q0 112 59 172t171 60q104 0 160.5 -51.5t56.5 -154.5q0 -67 -22 -115t-72 -100l-65 -63q-34 -33 -56 -59q-37 -44 -43 -72h259v-135h-449v25q0 85 48 173q36 66 109 146l76 80q26 29 37 58t11 69q0 33 -14 53q-17 24 -49 21q-35 0 -49 -40q-9 -26 -9 -70
v-36z" />
    <glyph glyph-name="three" unicode="3" 
d="M157 322v120h13q30 0 51 3.5t37.5 15t25 37.5t8.5 48q0 38 -11 55q-14 22 -48 22t-46 -31q-8 -20 -8 -62v-16h-160l1 55q0 79 69 132q64 49 148 49q101 0 155 -45q59 -49 59 -148q0 -61 -23.5 -101.5t-77.5 -65.5q64 -17 94 -73q25 -46 25 -114q0 -111 -60 -166t-172 -55
q-103 0 -160 54t-57 154l-1 51h158v-24q0 -50 9 -73q14 -37 55 -37q36 0 51 32q10 22 10 64q0 44 -10.5 69t-26 34.5t-35.5 12t-46 2.5h-17q-7 1 -10 1z" />
    <glyph glyph-name="four" unicode="4" 
d="M135 268h124v243zM9 143v140l234 451h175v-466h66v-125h-66v-143h-159v143h-250z" />
    <glyph glyph-name="five" unicode="5" 
d="M182 325h-147l19 409h388v-135h-261l-7 -140q52 46 117 46q105 0 149 -82q33 -62 33 -177q0 -130 -49 -193q-55 -71 -181 -71q-95 0 -145 44t-68 138v57h158q3 -35 7 -70q11 -44 51 -44q39 0 52 47q8 28 8 77v24q0 55 -9 81q-15 44 -56 44q-54 0 -59 -55z" />
    <glyph glyph-name="six" unicode="6" 
d="M250 107q32 0 46 32q11 25 11 66v75q0 36 -11 54q-14 24 -48 24q-30 0 -42 -21t-12 -55v-110q0 -29 13.5 -47t42.5 -18zM463 556h-159q0 33 -10 49q-13 20 -45 20q-33 0 -46 -33q-9 -24 -9 -66v-30v-50q30 23 52.5 30t61.5 7q93 0 134 -70q32 -55 32 -155
q0 -138 -45 -201q-54 -75 -185 -75q-118 0 -171 75q-46 65 -46 189v198q0 145 33 211q48 95 175 95q114 0 167 -40q61 -46 61 -154z" />
    <glyph glyph-name="seven" unicode="7" 
d="M24 599v135h432v-125q-44 -78 -79 -173q-29 -79 -56 -183q-17 -64 -26 -120t-18 -133h-173q0 72 41 214q37 128 75 211l78 174h-274z" />
    <glyph glyph-name="eight" unicode="8" 
d="M249 104q41 0 55 40q8 24 8 76t-8 73q-14 38 -57 38q-37 0 -50 -30q-9 -20 -9 -63v-21q0 -48 8 -72q14 -41 53 -41zM192 537q0 -36 10 -57q14 -29 46 -29q35 0 50 29q12 23 12 61q0 35 -11 58q-15 30 -47 30q-36 0 -50 -29q-10 -21 -10 -63zM121 394q-47 27 -67.5 65.5
t-20.5 93.5q0 97 58 147t158 50q102 0 160 -49.5t58 -147.5q0 -52 -20 -90q-23 -42 -71 -67q56 -34 75.5 -73.5t19.5 -109.5q0 -121 -58 -176t-178 -55q-96 0 -151 61t-55 170q0 66 15 100q19 42 77 81z" />
    <glyph glyph-name="nine" unicode="9" 
d="M251 625q-36 0 -49 -41q-8 -25 -8 -75v-17q0 -58 5 -76q12 -42 54 -42q34 0 47 31q8 20 8 62v20v19.5t1 21.5q0 45 -9 66q-13 31 -49 31zM38 176h159q0 -33 11.5 -51t43.5 -18q33 0 46 33q9 24 9 66v30v50q-30 -23 -52.5 -30t-61.5 -7q-93 0 -134 70q-32 55 -32 155
q0 138 45 201q54 75 185 75q118 0 171 -75q46 -65 46 -189v-198q0 -145 -33 -211q-48 -95 -175 -95q-114 0 -167 40q-61 46 -61 154z" />
    <glyph glyph-name="colon" unicode=":" horiz-adv-x="278" 
d="M224 384h-169v171h169v-171zM224 0h-169v171h169v-171z" />
    <glyph glyph-name="semicolon" unicode=";" horiz-adv-x="278" 
d="M55 -156v57q40 0 65.5 28t25.5 71h-91v171h169v-172q0 -76 -46 -115.5t-123 -39.5zM224 384h-169v171h169v-171z" />
    <glyph glyph-name="less" unicode="&#x3c;" 
d="M162 250l297 -162v-111l-417 225v99l417 227v-111z" />
    <glyph glyph-name="equal" unicode="=" 
d="M475 405v-115h-449v115h449zM475 210v-115h-449v115h449z" />
    <glyph glyph-name="greater" unicode="&#x3e;" 
d="M42 88l297 162l-297 167v111l417 -227v-99l-417 -225v111z" />
    <glyph glyph-name="question" unicode="?" 
d="M179 531h-159q0 106 59.5 171.5t162.5 65.5q100 0 161 -44q68 -49 68 -146q0 -44 -16.5 -79.5t-49.5 -76.5q-22 -27 -33 -40q-20 -25 -32 -41q-17 -24 -21.5 -42.5t-8.5 -58.5h-151q0 56 3.5 84t21.5 57q71 88 84 110q27 45 27 76q0 29 -14 47.5t-42 18.5q-39 0 -52 -33
q-8 -21 -8 -69zM318 0h-170v171h169z" />
    <glyph glyph-name="at" unicode="@" horiz-adv-x="830" 
d="M503 370q0 50 -17 79q-21 35 -65 35q-46 0 -79.5 -38.5t-33.5 -88.5q0 -49 19 -76.5t52 -32.5q5 -1 15 -1q45 0 77 42q28 36 32 81zM537 516l11 53h98l-53 -308q-3 -13 3.5 -18.5t16.5 -2.5q13 4 32.5 22.5t35.5 41.5q11 16 23 52.5t12 66.5q0 125 -78.5 198.5
t-206.5 73.5q-138 0 -227.5 -89.5t-89.5 -227.5q0 -143 96 -232t238 -89q56 0 111 26q47 22 94 65h96q-57 -78 -136 -122t-173 -44q-168 0 -285.5 113.5t-117.5 282.5q0 167 114.5 278.5t282.5 111.5q72 0 132 -19.5t113.5 -65t84 -104t30.5 -127.5q0 -65 -18.5 -117
t-61.5 -96q-31 -32 -85 -60t-95 -28q-17 0 -30.5 13.5t-13.5 36.5q0 5 2 15q-67 -61 -125 -61q-78 0 -123.5 52t-45.5 132q0 96 57 165q61 73 155 73q41 0 73 -14.5t54 -46.5z" />
    <glyph glyph-name="A" unicode="A" horiz-adv-x="556" 
d="M186 0h-177l164 750h212l163 -750h-178l-25 146h-138zM328 278l-49 336l-53 -336h102z" />
    <glyph glyph-name="B" unicode="B" horiz-adv-x="556" 
d="M220 320v-185q65 0 78 3q47 11 47 94q0 59 -34 76q-23 12 -91 12zM220 615v-160q66 0 85 11q28 17 28 78q0 49 -33 63q-19 8 -80 8zM292 0h-248v750h228q110 0 168 -40q69 -48 69 -154q0 -53 -20 -93.5t-65 -64.5q58 -35 77.5 -72t19.5 -109q0 -110 -59.5 -163.5
t-169.5 -53.5z" />
    <glyph glyph-name="C" unicode="C" horiz-adv-x="556" 
d="M515 488h-176v48q0 97 -56 97q-39 0 -53.5 -19t-14.5 -59l-1 -371q0 -33 15 -50t48 -17q40 0 55 36q10 24 10 72v68h176v-92q0 -102 -59 -158q-65 -61 -195 -61q-118 0 -171.5 60.5t-53.5 178.5v308q0 122 57.5 180.5t178.5 58.5q116 0 178 -52.5t62 -164.5v-63z" />
    <glyph glyph-name="D" unicode="D" horiz-adv-x="556" 
d="M283 0h-237v750h191q63 0 111 -6.5t87 -28.5q46 -27 65 -80q14 -40 14 -105v-333q0 -115 -75 -162q-32 -21 -69.5 -28t-86.5 -7zM222 615v-480q82 0 102 32q14 22 14 108v245q0 62 -23 78.5t-93 16.5z" />
    <glyph glyph-name="E" unicode="E" 
d="M461 0h-415v750h403v-150h-227v-138h220v-150h-220v-162h239v-150z" />
    <glyph glyph-name="F" unicode="F" 
d="M225 0h-176v750h414v-150h-238v-133h219v-150h-219v-317z" />
    <glyph glyph-name="G" unicode="G" horiz-adv-x="556" 
d="M512 -1h-120l-8 67q-28 -48 -61.5 -66t-92.5 -18q-105 0 -154 68q-43 60 -43 171v308q0 122 57.5 180.5t178.5 58.5q116 0 177.5 -52.5t61.5 -164.5v-56h-176v41q0 53 -9 72q-12 25 -46 25q-39 0 -53.5 -19t-14.5 -59v-371q0 -33 15.5 -50t49.5 -17q40 0 53 30q9 20 9 66
v59h-63v135h239v-408z" />
    <glyph glyph-name="H" unicode="H" horiz-adv-x="556" 
d="M217 0h-176v750h176v-288h122v288h176v-750h-176v312h-122v-312z" />
    <glyph glyph-name="I" unicode="I" horiz-adv-x="278" 
d="M227 0h-176v750h176v-750z" />
    <glyph glyph-name="J" unicode="J" horiz-adv-x="444" 
d="M7 250h141v-95q0 -38 36 -38q20 0 27 5t7 22l1 606h176v-522v-20q0 -54 -2 -71q-5 -39 -21 -70q-26 -48 -75 -68q-41 -17 -104 -17q-67 0 -115 31t-63 93q-5 18 -6.5 40t-1.5 36v25v43z" />
    <glyph glyph-name="K" unicode="K" horiz-adv-x="556" 
d="M220 0h-176v750h176v-300l132 300h180l-160 -331l170 -419h-186l-97 261l-39 -76v-185z" />
    <glyph glyph-name="L" unicode="L" horiz-adv-x="444" 
d="M428 0h-391v750h176v-600h215v-150z" />
    <glyph glyph-name="M" unicode="M" horiz-adv-x="778" 
d="M216 0h-167v750h248l91 -443l96 443h246v-750h-168l18 588l-126 -588h-131l-121 588z" />
    <glyph glyph-name="N" unicode="N" horiz-adv-x="556" 
d="M333 0l-137 420l-2 -2l16 -418h-167v750h181l136 -419l-14 419h167v-750h-180z" />
    <glyph glyph-name="O" unicode="O" horiz-adv-x="556" 
d="M341 224v308q0 46 -9 68q-14 33 -53 33q-37 0 -52 -33q-11 -24 -11 -68v-308q0 -45 10 -69q16 -38 54 -38t52 37q9 24 9 70zM517 544v-305q0 -132 -51 -192q-56 -65 -186 -65t-187 65q-53 60 -53 192v305q0 108 62 166t178 58q115 0 176 -58t61 -166z" />
    <glyph glyph-name="P" unicode="P" horiz-adv-x="556" 
d="M229 615v-188h25q24 0 41.5 3.5t32.5 15.5q13 14 17.5 32.5t4.5 43.5q0 31 -5 49q-8 29 -28 38q-11 4 -24.5 5t-34.5 1h-10h-19zM229 0h-176v750h209q68 0 114 -10q69 -15 101 -52q28 -32 40 -76q9 -34 9 -87q0 -72 -19 -121q-24 -62 -80 -88q-29 -14 -63.5 -19t-79.5 -5
h-55v-292z" />
    <glyph glyph-name="Q" unicode="Q" horiz-adv-x="556" 
d="M517 544v-305q0 -62 -11.5 -108t-37.5 -78l82 -88l-103 -88l-99 111q-30 -6 -68 -6q-130 0 -187 65q-53 60 -53 192v305q0 108 62 166t178 58q115 0 176 -58t61 -166zM216 532v-308q0 -45 10 -69q16 -38 54 -38t52 37q9 24 9 70v308q0 46 -9 68q-14 33 -53 33
q-37 0 -52 -33q-11 -24 -11 -68z" />
    <glyph glyph-name="R" unicode="R" horiz-adv-x="556" 
d="M218 615v-184h60q35 0 49 26.5t14 66.5q0 62 -29 79q-21 12 -94 12zM218 296v-296h-176v750h257q111 0 163.5 -48.5t52.5 -158.5q0 -66 -18 -103q-21 -43 -75 -68q39 -10 63 -36t24 -63q0 -54 4.5 -127.5t11.5 -109.5q7 -17 17 -26v-10h-192q-5 14 -7.5 23t-2.5 20v72v14
v12q0 47 -4 81t-17 54t-43 20h-58z" />
    <glyph glyph-name="S" unicode="S" 
d="M16 251h163v-53q0 -37 15.5 -59t54.5 -22q29 0 44 21.5t15 53.5q0 41 -31 70q-13 12 -67 45q-47 27 -74 46q-36 25 -59.5 53t-37 65t-13.5 84q0 104 58.5 158.5t162.5 54.5q111 0 169 -68q54 -64 54 -175h-162q0 49 -7 70q-13 38 -51 38q-61 0 -61 -48q-1 -10 -1 -14
q0 -25 14 -43.5t40 -36.5q64 -38 91 -54q47 -28 73 -52q33 -31 49 -71.5t16 -107.5q0 -108 -58 -166t-168 -58q-114 0 -175 57q-54 51 -54 132v80z" />
    <glyph glyph-name="T" unicode="T" 
d="M22 600v150h456v-150h-142v-600h-176v600h-138z" />
    <glyph glyph-name="U" unicode="U" horiz-adv-x="556" 
d="M42 207v543h176v-566q0 -32 11 -47q15 -20 50 -20q31 0 47 24q13 20 13 48v561h176v-543q0 -104 -51 -160q-59 -65 -186 -65q-115 0 -174 54q-62 57 -62 171z" />
    <glyph glyph-name="V" unicode="V" horiz-adv-x="556" 
d="M381 0h-207l-163 750h176l90 -526l92 526h176z" />
    <glyph glyph-name="W" unicode="W" horiz-adv-x="778" 
d="M476 750l68 -526l57 526h167l-125 -750h-198l-54 528l-60 -528h-195l-126 750h170l53 -527l2 2l71 525h170z" />
    <glyph glyph-name="X" unicode="X" horiz-adv-x="556" 
d="M197 750l82 -228l82 228h176l-156 -376l163 -374h-176l-85 224l-102 -224h-168l167 374l-158 376h175z" />
    <glyph glyph-name="Y" unicode="Y" horiz-adv-x="556" 
d="M189 750l88 -245l92 245h176l-181 -435v-315h-176v315l-177 435h178z" />
    <glyph glyph-name="Z" unicode="Z" horiz-adv-x="444" 
d="M26 600v150h398v-140l-218 -460h228v-150h-424v134l222 466h-206z" />
    <glyph glyph-name="bracketleft" unicode="[" horiz-adv-x="278" 
d="M42 -187v937h220v-95h-81v-747h81v-95h-220z" />
    <glyph glyph-name="backslash" unicode="\" horiz-adv-x="250" 
d="M-99 750h126l323 -750h-126z" />
    <glyph glyph-name="bracketright" unicode="]" horiz-adv-x="278" 
d="M236 750v-937h-220v95h81v747h-81v95h220z" />
    <glyph glyph-name="asciicircum" unicode="^" 
d="M117 326l-102 47l176 377h118l176 -377l-102 -47l-134 279z" />
    <glyph glyph-name="underscore" unicode="_" 
d="M500 -119h-500v58h500v-58z" />
    <glyph glyph-name="grave" unicode="`" horiz-adv-x="333" 
d="M-38 782h208l100 -148h-137z" />
    <glyph glyph-name="a" unicode="a" 
d="M301 184v88q-39 -18 -52.5 -24t-29 -17.5t-25.5 -28.5t-10 -43q0 -27 15.5 -43.5t43.5 -16.5q31 0 46 29q12 23 12 56zM318 0l-11 50q-31 -35 -62 -51.5t-75 -16.5q-68 0 -107 41t-39 109q0 86 43 134q31 35 96 56q47 15 95 31q43 20 43 59q0 25 -13.5 41.5t-36.5 16.5
q-39 0 -52 -26q-9 -18 -9 -61h-159q0 101 59 149q54 44 156 44q118 0 166 -39t48 -132v-343q0 -13 3.5 -29t9.5 -33h-155z" />
    <glyph glyph-name="b" unicode="b" 
d="M305 209v145q0 42 -5 58q-10 33 -41 33q-30 0 -41 -25.5t-11 -72.5v-132q0 -45 9 -69q13 -34 40 -34q33 0 43 35q6 20 6 62zM207 750v-236q19 34 50.5 48t70.5 14q72 0 107 -63q29 -52 29 -129v-194q0 -88 -26 -140q-34 -68 -113 -68q-40 0 -73.5 21.5t-53.5 60.5l-2 -64
h-148v750h159z" />
    <glyph glyph-name="c" unicode="c" 
d="M456 352h-150l-1 10l-6 64q-11 35 -43 35q-28 0 -38 -18t-10 -50v-231q0 -30 11 -47.5t40 -17.5t41 30q9 23 9 62q0 12 -0.5 21.5t-0.5 16.5h154q0 -29 -3 -70t-10 -63q-15 -50 -57 -78q-38 -25 -93 -31q-10 0 -29 -1.5t-24 -1.5q-91 0 -141 39q-56 44 -56 135v228
q0 104 52 150q47 42 145 42q116 0 163 -52.5t47 -171.5z" />
    <glyph glyph-name="d" unicode="d" 
d="M200 347v-145q0 -41 5 -57q10 -33 41 -33q29 0 39 25.5t10 71.5v132q0 61 -12 83t-34 22q-33 0 -43 -36q-6 -21 -6 -63zM454 0h-148v65q-48 -83 -126 -83q-79 0 -113 68q-26 51 -26 140v194q0 79 28 129q35 63 108 63q33 0 62.5 -16t53.5 -51l2 241h159v-750z" />
    <glyph glyph-name="e" unicode="e" 
d="M197 359h110v55q0 21 -11 36q-15 21 -43 21q-31 0 -43.5 -20.5t-12.5 -54.5v-37zM466 254h-269v-98q0 -26 12 -42.5t37 -16.5q39 0 50 31q6 17 6 66h158q0 -212 -208 -212q-94 0 -150 39q-64 45 -64 135v228q0 102 61 150q53 42 153 42q94 0 149 -35q65 -42 65 -127v-160
z" />
    <glyph glyph-name="f" unicode="f" horiz-adv-x="333" 
d="M310 444h-68v-444h-159v444h-64v115h63l1 49q0 77 38.5 109.5t118.5 32.5h70v-115h-34q-16 0 -25 -4.5t-9 -14.5v-57h68v-115z" />
    <glyph glyph-name="g" unicode="g" 
d="M199 363v-159q0 -28 10 -44t37 -16q29 0 40 23q8 17 8 50v155q0 34 -9 51q-12 23 -43 23q-27 0 -37 -30q-6 -18 -6 -53zM36 -31h159q0 -32 9 -42.5t43 -10.5q27 2 37.5 11t10.5 35v113q-26 -28 -55 -44.5t-60 -16.5q-70 0 -107 55q-33 49 -33 121v194q0 78 29 129
q36 63 108 63q85 0 126 -84l2 68h148v-571q0 -92 -62 -138q-54 -40 -151 -40q-101 0 -147 30q-57 37 -57 128z" />
    <glyph glyph-name="h" unicode="h" 
d="M205 750v-234q27 32 57.5 46t65.5 14q57 0 92 -36t35 -91v-449h-159v398q0 26 -9 37t-36 11q-24 0 -35 -17.5t-11 -41.5v-387h-159v750h159z" />
    <glyph glyph-name="i" unicode="i" horiz-adv-x="278" 
d="M219 0h-159v560h159v-560zM219 615h-159v135h159v-135z" />
    <glyph glyph-name="j" unicode="j" horiz-adv-x="278" 
d="M14 -189v115h20q18 0 24 14.5t6 36.5v583h159v-574q0 -88 -24 -126q-31 -49 -109 -49h-76zM223 615h-159v135h159v-135z" />
    <glyph glyph-name="k" unicode="k" 
d="M199 0h-159v750h159v-377l111 187h174l-158 -225l160 -335h-167l-93 216l-27 -36v-180z" />
    <glyph glyph-name="l" unicode="l" horiz-adv-x="278" 
d="M219 0h-159v750h159v-750z" />
    <glyph glyph-name="m" unicode="m" horiz-adv-x="722" 
d="M38 560h148v-65q21 37 54 59t67 22q39 0 72 -19.5t46 -54.5q46 74 118 74q59 0 100.5 -31t41.5 -86v-459h-159v400q0 22 -9.5 34t-32.5 12q-43 0 -43 -46v-400h-159v400q-6 29 -14.5 37.5t-23.5 8.5q-47 0 -47 -46v-400h-159v560z" />
    <glyph glyph-name="n" unicode="n" 
d="M49 560h148v-70q13 34 45 60t68 26q59 0 100.5 -31t41.5 -86v-459h-159v400q0 22 -9.5 34t-32.5 12q-43 0 -43 -46v-400h-159v560z" />
    <glyph glyph-name="o" unicode="o" 
d="M42 156v228q0 103 58 150q51 42 150 42q208 0 208 -192v-228q0 -90 -58 -134q-53 -40 -150 -40q-93 0 -147 39q-61 44 -61 135zM201 396v-250q5 -49 49 -49q24 0 35.5 11.5t13.5 37.5v250q0 30 -11 47.5t-38 17.5q-26 0 -37.5 -18t-11.5 -47z" />
    <glyph glyph-name="p" unicode="p" 
d="M299 209v145q0 41 -5 58q-10 34 -41 34q-30 0 -41 -26t-11 -73v-132q0 -45 9 -69q13 -34 40 -34q33 0 43 35q6 20 6 62zM42 560h148v-68q50 84 132 84q72 0 107 -63q29 -52 29 -129v-194q0 -88 -26 -140q-34 -68 -113 -68q-27 0 -54 14q-36 19 -62 57l-2 -242h-159v749z
" />
    <glyph glyph-name="q" unicode="q" 
d="M292 209v132q0 45 -9 70q-13 35 -40 35q-33 0 -43 -36q-6 -21 -6 -63v-145q0 -41 5 -57q10 -33 41 -33q30 0 41 25.5t11 71.5zM451 560v-748h-159v241q-26 -37 -63 -56q-29 -15 -55 -15q-79 0 -113 68q-26 51 -26 140v194q0 79 28 129q35 63 108 63q83 0 130 -84l2 68
h148z" />
    <glyph glyph-name="r" unicode="r" horiz-adv-x="333" 
d="M42 560h148v-85q16 48 46.5 74.5t78.5 26.5v-180q-10 2 -23 3t-25 1q-29 0 -40 -4q-26 -10 -26 -51v-345h-159v560z" />
    <glyph glyph-name="s" unicode="s" horiz-adv-x="444" 
d="M423 394h-149q-5 46 -8 53q-10 24 -45 24q-24 0 -38.5 -11.5t-14.5 -35.5t22 -41q10 -7 27 -16q129 -59 146 -71q68 -49 68 -136q0 -89 -62 -136q-56 -42 -150 -42q-99 0 -151 43q-57 48 -57 146h152q0 -37 10 -57q14 -27 47 -27q57 0 57 53q0 27 -21 43q-11 6 -79 36
q-90 40 -124 79q-40 46 -40 105q0 86 62 132q55 41 145 41q92 0 145 -44q58 -48 58 -138z" />
    <glyph glyph-name="t" unicode="t" horiz-adv-x="333" 
d="M75 445h-63v115h63v160h159v-160h76v-115h-76v-295q0 -22 8.5 -30.5t26.5 -8.5q11 2 25 2h16v-112q-22 -3 -51 -6t-51 -3q-133 0 -133 129v324z" />
    <glyph glyph-name="u" unicode="u" 
d="M449 0h-148v69q-14 -35 -45 -61t-68 -26q-142 0 -142 118v460h159v-401q0 -22 9 -34.5t30 -12.5q46 0 46 47v401h159v-560z" />
    <glyph glyph-name="v" unicode="v" horiz-adv-x="444" 
d="M169 560l53 -362l59 362h155l-123 -560h-182l-122 560h160z" />
    <glyph glyph-name="w" unicode="w" horiz-adv-x="667" 
d="M404 560l57 -362l46 362h152l-108 -560h-170l-45 291l-50 -291h-170l-107 560h154l45 -362l60 362h136z" />
    <glyph glyph-name="x" unicode="x" horiz-adv-x="444" 
d="M272 560h159l-125 -280l129 -280h-159l-51 161l-53 -161h-163l131 280l-125 280h158l47 -157z" />
    <glyph glyph-name="y" unicode="y" horiz-adv-x="444" 
d="M166 560l54 -362l57 362h156l-101 -479q-17 -69 -34 -137q-21 -68 -55 -97q-42 -36 -124 -36q-18 0 -34 2t-29 3v118l31 -4q15 -3 31.5 4.5t16.5 23.5q0 19 -6 47q-9 35 -12 48l-111 507h160z" />
    <glyph glyph-name="z" unicode="z" horiz-adv-x="389" 
d="M25 435v125h350v-116l-182 -319h182v-125h-361v111l182 324h-171z" />
    <glyph glyph-name="braceleft" unicode="{" horiz-adv-x="274" 
d="M66 54v162q0 46 -15 69q-18 27 -60 38q40 7 59 40q16 28 16 71v184q0 39 7 64.5t30.5 42t51 21t79.5 4.5h49q-44 -11 -59.5 -39t-15.5 -75v-184q0 -57 -15 -83q-19 -32 -67 -43q48 -8 67 -49q15 -32 15 -88v-172q0 -43 14 -67q18 -31 61 -42q-19 -1 -38.5 -1h-29.5
q-45 0 -73.5 6.5t-47 26t-23.5 46.5t-5 68z" />
    <glyph glyph-name="bar" unicode="|" horiz-adv-x="250" 
d="M54 0v750h142v-750h-142z" />
    <glyph glyph-name="braceright" unicode="}" horiz-adv-x="274" 
d="M208 618v-183q0 -45 15 -71q19 -32 60 -38q-45 -7 -62 -37q-13 -24 -13 -73v-162q0 -39 -5 -67t-24.5 -48t-54 -26.5t-91.5 -6.5h-42q43 11 59 38t16 74v171q0 59 13 85q17 35 69 50q-48 12 -65 42t-17 86v185q0 47 -17 75t-58 36q23 1 44.5 1h31.5q38 0 59.5 -4.5
t41.5 -18.5t30 -36t10 -72z" />
    <glyph glyph-name="asciitilde" unicode="~" 
d="M418 359l57 -73q-35 -61 -51 -79q-34 -38 -78 -38q-33 0 -103 33t-83 33q-27 0 -47 -28q-5 -7 -30 -54l-57 74q27 55 52 83q37 41 81 41q35 0 102 -33t85 -33q19 0 34 15q6 6 38 59z" />
    <glyph glyph-name="c128" horiz-adv-x="666" 
d="M448 268q0 16 -7 25q-11 15 -37 15q-37 0 -68 -20v-288h-176v600h-138v150h456v-150h-142v-162q41 16 63 21q37 9 78 9q75 0 111 -49t36 -141v-106q0 -92 -55.5 -141t-145.5 -49h-31v135h22q34 0 34 47v104z" />
    <glyph glyph-name="c128" unicode="&#x402;" horiz-adv-x="666" 
d="M448 268q0 16 -7 25q-11 15 -37 15q-37 0 -68 -20v-288h-176v600h-138v150h456v-150h-142v-162q41 16 63 21q37 9 78 9q75 0 111 -49t36 -141v-106q0 -92 -55.5 -141t-145.5 -49h-31v135h22q34 0 34 47v104z" />
    <glyph glyph-name="c129" horiz-adv-x="444" 
d="M428 750v-150h-211v-600h-176v750h387zM217 972h208l-171 -148h-137z" />
    <glyph glyph-name="c129" unicode="&#x403;" horiz-adv-x="444" 
d="M428 750v-150h-211v-600h-176v750h387zM217 972h208l-171 -148h-137z" />
    <glyph glyph-name="c141" horiz-adv-x="556" 
d="M220 0h-176v750h176v-300l132 300h180l-160 -331l170 -419h-186l-97 261l-39 -76v-185zM275 972h208l-171 -148h-137z" />
    <glyph glyph-name="c141" unicode="&#x40c;" horiz-adv-x="556" 
d="M220 0h-176v750h176v-300l132 300h180l-160 -331l170 -419h-186l-97 261l-39 -76v-185zM275 972h208l-171 -148h-137z" />
    <glyph glyph-name="c142" horiz-adv-x="666" 
d="M624 0h-176v268q0 16 -7 25q-11 15 -37 15q-37 0 -68 -20v-288h-176v600h-138v150h456v-150h-142v-162q41 16 63 21q37 9 78 9q75 0 111 -49t36 -141v-278z" />
    <glyph glyph-name="c142" unicode="&#x40b;" horiz-adv-x="666" 
d="M624 0h-176v268q0 16 -7 25q-11 15 -37 15q-37 0 -68 -20v-288h-176v600h-138v150h456v-150h-142v-162q41 16 63 21q37 9 78 9q75 0 111 -49t36 -141v-278z" />
    <glyph glyph-name="c143" horiz-adv-x="556" 
d="M198 0h-157v750h176v-600h122v600h176v-750h-156v-108h-161v108z" />
    <glyph glyph-name="c143" unicode="&#x40f;" horiz-adv-x="556" 
d="M198 0h-157v750h176v-600h122v600h176v-750h-156v-108h-161v108z" />
    <glyph glyph-name="c144" horiz-adv-x="518" 
d="M473 -14q0 -88 -24 -126q-31 -49 -109 -49h-76v115h20q18 0 24 14.5t6 36.5v261q0 26 -9 37t-36 11q-24 0 -35 -17.5t-11 -41.5v-227h-159v445h-52v115h52v190h159v-190h174v-115h-174v-89q27 32 57.5 46t65.5 14q57 0 92 -36t35 -91v-303z" />
    <glyph glyph-name="c144" unicode="&#x452;" horiz-adv-x="518" 
d="M473 -14q0 -88 -24 -126q-31 -49 -109 -49h-76v115h20q18 0 24 14.5t6 36.5v261q0 26 -9 37t-36 11q-24 0 -35 -17.5t-11 -41.5v-227h-159v445h-52v115h52v190h159v-190h174v-115h-174v-89q27 32 57.5 46t65.5 14q57 0 92 -36t35 -91v-303z" />
    <glyph glyph-name="c157" 
d="M205 0h-159v560h159v-187l111 187h174l-158 -225l165 -335h-177l-88 216l-27 -36v-180zM251 782h208l-171 -148h-137z" />
    <glyph glyph-name="c157" unicode="&#x45c;" 
d="M205 0h-159v560h159v-187l111 187h174l-158 -225l165 -335h-177l-88 216l-27 -36v-180zM251 782h208l-171 -148h-137z" />
    <glyph glyph-name="c158" horiz-adv-x="518" 
d="M223 445v-89q27 32 57.5 46t65.5 14q57 0 92 -36t35 -91v-289h-159v238q0 26 -9 37t-36 11q-24 0 -35 -17.5t-11 -41.5v-227h-159v445h-52v115h52v190h159v-190h174v-115h-174z" />
    <glyph glyph-name="c158" unicode="&#x45b;" horiz-adv-x="518" 
d="M223 445v-89q27 32 57.5 46t65.5 14q57 0 92 -36t35 -91v-289h-159v238q0 26 -9 37t-36 11q-24 0 -35 -17.5t-11 -41.5v-227h-159v445h-52v115h52v190h159v-190h174v-115h-174z" />
    <glyph glyph-name="nonbreakingspace" unicode="&#xa0;" 
 />
    <glyph glyph-name="exclamdown" unicode="&#xa1;" horiz-adv-x="556" 
d="M391 207q-29 -101 -47 -136q-45 -89 -161 -89q-33 0 -63 5v150q23 -5 48 -5q16 0 29.5 11t19.5 28l14 36l-222 543h178l108 -323l76 323h176zM105 960h79q4 -36 38 -51q26 -11 68 -11t63 11q26 14 37 51h77q0 -74 -55 -115q-51 -38 -127 -38q-84 0 -129 34
q-51 39 -51 119z" />
    <glyph glyph-name="exclamdown" unicode="&#x40e;" horiz-adv-x="556" 
d="M391 207q-29 -101 -47 -136q-45 -89 -161 -89q-33 0 -63 5v150q23 -5 48 -5q16 0 29.5 11t19.5 28l14 36l-222 543h178l108 -323l76 323h176zM105 960h79q4 -36 38 -51q26 -11 68 -11t63 11q26 14 37 51h77q0 -74 -55 -115q-51 -38 -127 -38q-84 0 -129 34
q-51 39 -51 119z" />
    <glyph glyph-name="cent" unicode="&#xa2;" horiz-adv-x="444" 
d="M166 560l59 -362l52 362h156l-101 -479q-24 -114 -31 -137q-21 -68 -56 -97q-44 -36 -126 -36q-15 0 -25.5 1t-37.5 4v118l31 -4q16 -2 32.5 5.5t16.5 22.5q0 21 -3 41t-11 54l-116 507h160zM42 787h79q4 -36 38 -51q26 -11 68 -11t63 11q26 14 37 51h77q0 -74 -55 -115
q-51 -38 -127 -38q-84 0 -129 34q-51 39 -51 119z" />
    <glyph glyph-name="cent" unicode="&#x45e;" horiz-adv-x="444" 
d="M166 560l59 -362l52 362h156l-101 -479q-24 -114 -31 -137q-21 -68 -56 -97q-44 -36 -126 -36q-15 0 -25.5 1t-37.5 4v118l31 -4q16 -2 32.5 5.5t16.5 22.5q0 21 -3 41t-11 54l-116 507h160zM42 787h79q4 -36 38 -51q26 -11 68 -11t63 11q26 14 37 51h77q0 -74 -55 -115
q-51 -38 -127 -38q-84 0 -129 34q-51 39 -51 119z" />
    <glyph glyph-name="sterling" unicode="&#xa3;" horiz-adv-x="444" 
d="M7 250h141v-95q0 -38 36 -38q20 0 27 5t7 22l1 606h176v-522v-20q0 -54 -2 -71q-5 -39 -21 -70q-26 -48 -75 -68q-41 -17 -104 -17q-67 0 -115 31t-63 93q-5 18 -6.5 40t-1.5 36v25v43z" />
    <glyph glyph-name="sterling" unicode="&#x408;" horiz-adv-x="444" 
d="M7 250h141v-95q0 -38 36 -38q20 0 27 5t7 22l1 606h176v-522v-20q0 -54 -2 -71q-5 -39 -21 -70q-26 -48 -75 -68q-41 -17 -104 -17q-67 0 -115 31t-63 93q-5 18 -6.5 40t-1.5 36v25v43z" />
    <glyph glyph-name="currency" unicode="&#xa4;" 
d="M0 137l44 44q-18 32 -27.5 62.5t-9.5 65.5q0 70 37 131l-44 43l79 80l44 -44q30 18 62.5 28t66.5 10q73 0 134 -38l44 44l79 -80l-44 -43q36 -63 36 -130q0 -73 -36 -129l44 -44l-79 -79l-44 44q-29 -18 -63 -28.5t-66 -10.5q-74 0 -134 39l-44 -44zM254 187
q52 0 87.5 36.5t35.5 86.5t-35.5 86.5t-87.5 36.5t-87.5 -36.5t-35.5 -86.5t35.5 -86.5t87.5 -36.5z" />
    <glyph glyph-name="yen" unicode="&#xa5;" horiz-adv-x="444" 
d="M267 750v108h161v-258h-211v-600h-176v750h226z" />
    <glyph glyph-name="yen" unicode="&#x490;" horiz-adv-x="444" 
d="M267 750v108h161v-258h-211v-600h-176v750h226z" />
    <glyph glyph-name="brokenbar" unicode="&#xa6;" horiz-adv-x="250" 
d="M54 0v300h142v-300h-142zM54 750h142v-300h-142v300z" />
    <glyph glyph-name="section" unicode="&#xa7;" 
d="M0 137l44 44q-18 32 -27.5 62.5t-9.5 65.5q0 70 37 131l-44 43l79 80l44 -44q30 18 62.5 28t66.5 10q73 0 134 -38l44 44l79 -80l-44 -43q36 -63 36 -130q0 -73 -36 -129l44 -44l-79 -79l-44 44q-29 -18 -63 -28.5t-66 -10.5q-74 0 -134 39l-44 -44zM254 187
q52 0 87.5 36.5t35.5 86.5t-35.5 86.5t-87.5 36.5t-87.5 -36.5t-35.5 -86.5t35.5 -86.5t87.5 -36.5z" />
    <glyph glyph-name="dieresis" unicode="&#xa8;" 
d="M461 0h-415v750h403v-150h-227v-138h220v-150h-220v-162h239v-150zM280 830v130h158v-130h-158zM64 960h158v-130h-158v130z" />
    <glyph glyph-name="dieresis" unicode="&#x401;" 
d="M461 0h-415v750h403v-150h-227v-138h220v-150h-220v-162h239v-150zM280 830v130h158v-130h-158zM64 960h158v-130h-158v130z" />
    <glyph glyph-name="copyright" unicode="&#xa9;" horiz-adv-x="830" 
d="M526 306h89q-8 -70 -60 -111.5t-124 -41.5q-97 0 -157 64.5t-60 162.5q0 100 58 163t157 63q72 0 122.5 -39.5t63.5 -109.5h-89q-7 36 -33.5 54.5t-65.5 18.5q-60 0 -90 -41.5t-30 -104.5q0 -62 28 -103q32 -47 90 -47q39 0 70 19t31 53zM415 -18q-192 0 -300 126
q-94 110 -94 268q0 155 92 264q108 128 302 128q185 0 294 -119q100 -109 100 -273q0 -168 -107 -279q-111 -115 -287 -115zM413 672q-132 0 -213 -82t-81 -214q0 -134 80 -216t214 -82q132 0 215 84t83 218q0 131 -82.5 211.5t-215.5 80.5z" />
    <glyph glyph-name="ordfeminine" unicode="&#xaa;" horiz-adv-x="556" 
d="M518 201q0 -102 -59 -158q-65 -61 -195 -61q-118 0 -171.5 60.5t-53.5 178.5v308q0 122 57.5 180.5t178.5 58.5q116 0 178 -52.5t62 -164.5v-22h-176v7q0 97 -56 97q-39 0 -53.5 -19t-14.5 -59v-93h149v-150h-150l1 -128q0 -34 14 -50.5t48 -16.5q40 0 55 36q10 24 10 72
v27h176v-51z" />
    <glyph glyph-name="ordfeminine" unicode="&#x404;" horiz-adv-x="556" 
d="M518 201q0 -102 -59 -158q-65 -61 -195 -61q-118 0 -171.5 60.5t-53.5 178.5v308q0 122 57.5 180.5t178.5 58.5q116 0 178 -52.5t62 -164.5v-22h-176v7q0 97 -56 97q-39 0 -53.5 -19t-14.5 -59v-93h149v-150h-150l1 -128q0 -34 14 -50.5t48 -16.5q40 0 55 36q10 24 10 72
v27h176v-51z" />
    <glyph glyph-name="guillemotleft" unicode="&#xab;" 
d="M457 123l-180 116v146l180 120v-131l-102 -63l102 -58v-130zM217 123l-180 116v146l180 120v-131l-101 -63l101 -58v-130z" />
    <glyph glyph-name="logicalnot" unicode="&#xac;" 
d="M360 115v175h-334v115h449v-290h-115z" />
    <glyph glyph-name="minus" unicode="&#xad;" horiz-adv-x="333" 
d="M355 663h-376v90h376v-90z" />
    <glyph glyph-name="registered" unicode="&#xae;" horiz-adv-x="830" 
d="M415 -18q-192 0 -300 126q-94 110 -94 268q0 155 92 264q108 128 302 128q185 0 294 -119q100 -109 100 -273q0 -168 -107 -279q-111 -115 -287 -115zM413 672q-132 0 -213 -82t-81 -214q0 -134 80 -216t214 -82q132 0 215 84t83 218q0 131 -82.5 211.5t-215.5 80.5z
M326 331v-170h-93v425h238q70 0 106 -30.5t36 -100.5q0 -114 -116 -114l103 -180h-107l-94 170h-73zM326 404h124q39 0 53 10q18 13 18 52q0 30 -30 41q-20 7 -62 7h-103v-110z" />
    <glyph glyph-name="macron" unicode="&#xaf;" horiz-adv-x="278" 
d="M227 0h-176v750h176v-750zM169 830v130h158v-130h-158zM-47 960h158v-130h-158v130z" />
    <glyph glyph-name="macron" unicode="&#x407;" horiz-adv-x="278" 
d="M227 0h-176v750h176v-750zM169 830v130h158v-130h-158zM-47 960h158v-130h-158v130z" />
    <glyph glyph-name="degree" unicode="&#xb0;" horiz-adv-x="400" 
d="M350 600q0 -62 -44 -106t-106 -44t-106 44t-44 106t44 106t106 44t106 -44t44 -106zM244 600q0 18 -13 31t-31 13t-31 -13t-13 -31t13 -31t31 -13t31 13t13 31z" />
    <glyph glyph-name="plusminus" unicode="&#xb1;" 
d="M193 392v118h115v-118h167v-115h-167v-125h-115v125h-167v115h167zM26 -12v115h449v-115h-449z" />
    <glyph glyph-name="twosuperior" unicode="&#xb2;" horiz-adv-x="278" 
d="M227 0h-176v750h176v-750z" />
    <glyph glyph-name="twosuperior" unicode="&#x406;" horiz-adv-x="278" 
d="M227 0h-176v750h176v-750z" />
    <glyph glyph-name="threesuperior" unicode="&#xb3;" horiz-adv-x="278" 
d="M219 0h-159v560h159v-560zM219 615h-159v135h159v-135z" />
    <glyph glyph-name="threesuperior" unicode="&#x456;" horiz-adv-x="278" 
d="M219 0h-159v560h159v-560zM219 615h-159v135h159v-135z" />
    <glyph glyph-name="acute" unicode="&#xb4;" horiz-adv-x="407" 
d="M241 560v108h146v-232h-182v-436h-159v560h195z" />
    <glyph glyph-name="acute" unicode="&#x491;" horiz-adv-x="407" 
d="M241 560v108h146v-232h-182v-436h-159v560h195z" />
    <glyph glyph-name="mu" unicode="&#xb5;" 
d="M449 0h-148v69q-13 -32 -39 -54.5t-57 -22.5v-181h-159v749h159v-401q0 -22 9 -34.5t30 -12.5q46 0 46 47v401h159v-560z" />
    <glyph glyph-name="paragraph" unicode="&#xb6;" horiz-adv-x="574" 
d="M566 750v-81h-62v-785h-147v724h-54v-724h-147v534q-75 0 -111 42.5t-36 119.5q0 96 50 135q45 35 146 35h361z" />
    <glyph glyph-name="periodcentered" unicode="&#xb7;" horiz-adv-x="333" 
d="M251 164h-169v171h169v-171z" />
    <glyph glyph-name="periodcentered" unicode="&#x2219;" horiz-adv-x="333" 
d="M251 164h-169v171h169v-171z" />
    <glyph glyph-name="cedilla" unicode="&#xb8;" 
d="M197 359h110v55q0 21 -11 36q-15 21 -43 21q-31 0 -43.5 -20.5t-12.5 -54.5v-37zM466 254h-269v-98q0 -26 12 -42.5t37 -16.5q39 0 50 31q6 17 6 66h158q0 -212 -208 -212q-94 0 -150 39q-64 45 -64 135v228q0 102 61 150q53 42 153 42q94 0 149 -35q65 -42 65 -127v-160
zM280 640v130h158v-130h-158zM64 770h158v-130h-158v130z" />
    <glyph glyph-name="cedilla" unicode="&#x451;" 
d="M197 359h110v55q0 21 -11 36q-15 21 -43 21q-31 0 -43.5 -20.5t-12.5 -54.5v-37zM466 254h-269v-98q0 -26 12 -42.5t37 -16.5q39 0 50 31q6 17 6 66h158q0 -212 -208 -212q-94 0 -150 39q-64 45 -64 135v228q0 102 61 150q53 42 153 42q94 0 149 -35q65 -42 65 -127v-160
zM280 640v130h158v-130h-158zM64 770h158v-130h-158v130z" />
    <glyph glyph-name="onesuperior" unicode="&#xb9;" horiz-adv-x="870" 
d="M333 0l-137 420l-2 -2l16 -418h-167v750h181l136 -419l-14 419h167v-750h-180zM571 516v137q0 62 35 88.5t100 26.5q135 0 135 -115v-137q0 -54 -36.5 -79t-98.5 -25q-60 0 -95 23q-40 27 -40 81zM674 660v-150q3 -29 32 -29t32 29v150q0 18 -7.5 28.5t-24.5 10.5
t-24.5 -10.5t-7.5 -28.5zM571 277v80h270v-80h-270z" />
    <glyph glyph-name="onesuperior" unicode="&#x2116;" horiz-adv-x="870" 
d="M333 0l-137 420l-2 -2l16 -418h-167v750h181l136 -419l-14 419h167v-750h-180zM571 516v137q0 62 35 88.5t100 26.5q135 0 135 -115v-137q0 -54 -36.5 -79t-98.5 -25q-60 0 -95 23q-40 27 -40 81zM674 660v-150q3 -29 32 -29t32 29v150q0 18 -7.5 28.5t-24.5 10.5
t-24.5 -10.5t-7.5 -28.5zM571 277v80h270v-80h-270z" />
    <glyph glyph-name="ordmasculine" unicode="&#xba;" 
d="M463 188q0 -111 -57 -161q-52 -45 -160 -45q-91 0 -141 39q-56 44 -56 135v228q0 104 52 150q47 42 145 42q211 0 211 -181h-155l-3 31q-11 35 -43 35q-28 0 -38 -18t-10 -50v-45h116v-118h-116v-68q0 -30 11 -47.5t40 -17.5t41 29q9 23 9 62h154z" />
    <glyph glyph-name="ordmasculine" unicode="&#x454;" 
d="M463 188q0 -111 -57 -161q-52 -45 -160 -45q-91 0 -141 39q-56 44 -56 135v228q0 104 52 150q47 42 145 42q211 0 211 -181h-155l-3 31q-11 35 -43 35q-28 0 -38 -18t-10 -50v-45h116v-118h-116v-68q0 -30 11 -47.5t40 -17.5t41 29q9 23 9 62h154z" />
    <glyph glyph-name="guillemotright" unicode="&#xbb;" 
d="M463 239l-180 -116v130l101 58l-101 63v131l180 -120v-146zM223 239l-180 -116v130l102 58l-102 63v131l180 -120v-146z" />
    <glyph glyph-name="onequarter" unicode="&#xbc;" horiz-adv-x="278" 
d="M14 -189v115h20q18 0 24 14.5t6 36.5v583h159v-574q0 -88 -24 -126q-31 -49 -109 -49h-76zM223 615h-159v135h159v-135z" />
    <glyph glyph-name="onequarter" unicode="&#x458;" horiz-adv-x="278" 
d="M14 -189v115h20q18 0 24 14.5t6 36.5v583h159v-574q0 -88 -24 -126q-31 -49 -109 -49h-76zM223 615h-159v135h159v-135z" />
    <glyph glyph-name="onehalf" unicode="&#xbd;" 
d="M16 251h163v-53q0 -37 15.5 -59t54.5 -22q29 0 44 21.5t15 53.5q0 41 -31 70q-13 12 -67 45q-47 27 -74 46q-36 25 -59.5 53t-37 65t-13.5 84q0 104 58.5 158.5t162.5 54.5q111 0 169 -68q54 -64 54 -175h-162q0 49 -7 70q-13 38 -51 38q-61 0 -61 -48q-1 -10 -1 -14
q0 -25 14 -43.5t40 -36.5q64 -38 91 -54q47 -28 73 -52q33 -31 49 -71.5t16 -107.5q0 -108 -58 -166t-168 -58q-114 0 -175 57q-54 51 -54 132v80z" />
    <glyph glyph-name="onehalf" unicode="&#x405;" 
d="M16 251h163v-53q0 -37 15.5 -59t54.5 -22q29 0 44 21.5t15 53.5q0 41 -31 70q-13 12 -67 45q-47 27 -74 46q-36 25 -59.5 53t-37 65t-13.5 84q0 104 58.5 158.5t162.5 54.5q111 0 169 -68q54 -64 54 -175h-162q0 49 -7 70q-13 38 -51 38q-61 0 -61 -48q-1 -10 -1 -14
q0 -25 14 -43.5t40 -36.5q64 -38 91 -54q47 -28 73 -52q33 -31 49 -71.5t16 -107.5q0 -108 -58 -166t-168 -58q-114 0 -175 57q-54 51 -54 132v80z" />
    <glyph glyph-name="threequarters" unicode="&#xbe;" horiz-adv-x="444" 
d="M423 394h-149q-5 46 -8 53q-10 24 -45 24q-24 0 -38.5 -11.5t-14.5 -35.5t22 -41q10 -7 27 -16q129 -59 146 -71q68 -49 68 -136q0 -89 -62 -136q-56 -42 -150 -42q-99 0 -151 43q-57 48 -57 146h152q0 -37 10 -57q14 -27 47 -27q57 0 57 53q0 27 -21 43q-11 6 -79 36
q-90 40 -124 79q-40 46 -40 105q0 86 62 132q55 41 145 41q92 0 145 -44q58 -48 58 -138z" />
    <glyph glyph-name="threequarters" unicode="&#x455;" horiz-adv-x="444" 
d="M423 394h-149q-5 46 -8 53q-10 24 -45 24q-24 0 -38.5 -11.5t-14.5 -35.5t22 -41q10 -7 27 -16q129 -59 146 -71q68 -49 68 -136q0 -89 -62 -136q-56 -42 -150 -42q-99 0 -151 43q-57 48 -57 146h152q0 -37 10 -57q14 -27 47 -27q57 0 57 53q0 27 -21 43q-11 6 -79 36
q-90 40 -124 79q-40 46 -40 105q0 86 62 132q55 41 145 41q92 0 145 -44q58 -48 58 -138z" />
    <glyph glyph-name="questiondown" unicode="&#xbf;" horiz-adv-x="278" 
d="M219 0h-159v560h159v-560zM169 640v130h158v-130h-158zM-47 770h158v-130h-158v130z" />
    <glyph glyph-name="questiondown" unicode="&#x457;" horiz-adv-x="278" 
d="M219 0h-159v560h159v-560zM169 640v130h158v-130h-158zM-47 770h158v-130h-158v130z" />
    <glyph glyph-name="Agrave" unicode="&#xc0;" horiz-adv-x="556" 
d="M186 0h-177l164 750h212l163 -750h-178l-25 146h-138zM328 278l-49 336l-53 -336h102z" />
    <glyph glyph-name="Agrave" unicode="&#x410;" horiz-adv-x="556" 
d="M186 0h-177l164 750h212l163 -750h-178l-25 146h-138zM328 278l-49 336l-53 -336h102z" />
    <glyph glyph-name="Aacute" unicode="&#xc1;" horiz-adv-x="556" 
d="M220 135h26q46 0 69 8q20 9 28 38q5 18 5 49q0 23 -4.5 42.5t-17.5 33.5q-13 10 -32.5 13.5t-43.5 3.5h-30v-188zM473 750v-150h-253v-142h57q52 0 84 -4t64 -20q54 -25 79 -88q20 -51 20 -121q0 -52 -10 -91.5t-39 -71.5q-33 -37 -100 -52q-46 -10 -115 -10h-216v750
h429z" />
    <glyph glyph-name="Aacute" unicode="&#x411;" horiz-adv-x="556" 
d="M220 135h26q46 0 69 8q20 9 28 38q5 18 5 49q0 23 -4.5 42.5t-17.5 33.5q-13 10 -32.5 13.5t-43.5 3.5h-30v-188zM473 750v-150h-253v-142h57q52 0 84 -4t64 -20q54 -25 79 -88q20 -51 20 -121q0 -52 -10 -91.5t-39 -71.5q-33 -37 -100 -52q-46 -10 -115 -10h-216v750
h429z" />
    <glyph glyph-name="Acircumflex" unicode="&#xc2;" horiz-adv-x="556" 
d="M220 320v-185q65 0 78 3q47 11 47 94q0 59 -34 76q-23 12 -91 12zM220 615v-160q66 0 85 11q28 17 28 78q0 49 -33 63q-19 8 -80 8zM292 0h-248v750h228q110 0 168 -40q69 -48 69 -154q0 -53 -20 -93.5t-65 -64.5q58 -35 77.5 -72t19.5 -109q0 -110 -59.5 -163.5
t-169.5 -53.5z" />
    <glyph glyph-name="Acircumflex" unicode="&#x412;" horiz-adv-x="556" 
d="M220 320v-185q65 0 78 3q47 11 47 94q0 59 -34 76q-23 12 -91 12zM220 615v-160q66 0 85 11q28 17 28 78q0 49 -33 63q-19 8 -80 8zM292 0h-248v750h228q110 0 168 -40q69 -48 69 -154q0 -53 -20 -93.5t-65 -64.5q58 -35 77.5 -72t19.5 -109q0 -110 -59.5 -163.5
t-169.5 -53.5z" />
    <glyph glyph-name="Atilde" unicode="&#xc3;" horiz-adv-x="444" 
d="M428 750v-150h-211v-600h-176v750h387z" />
    <glyph glyph-name="Atilde" unicode="&#x413;" horiz-adv-x="444" 
d="M428 750v-150h-211v-600h-176v750h387z" />
    <glyph glyph-name="Adieresis" unicode="&#xc4;" horiz-adv-x="556" 
d="M0 150q68 0 79 80q5 36 5 131v389h431v-600h41v-258h-161v108h-234v-108h-161v258zM339 150v450h-94v-239q0 -81 -4 -113q-7 -58 -33 -98h131z" />
    <glyph glyph-name="Adieresis" unicode="&#x414;" horiz-adv-x="556" 
d="M0 150q68 0 79 80q5 36 5 131v389h431v-600h41v-258h-161v108h-234v-108h-161v258zM339 150v450h-94v-239q0 -81 -4 -113q-7 -58 -33 -98h131z" />
    <glyph glyph-name="Aring" unicode="&#xc5;" 
d="M461 0h-415v750h403v-150h-227v-138h220v-150h-220v-162h239v-150z" />
    <glyph glyph-name="Aring" unicode="&#x415;" 
d="M461 0h-415v750h403v-150h-227v-138h220v-150h-220v-162h239v-150z" />
    <glyph glyph-name="AE" unicode="&#xc6;" horiz-adv-x="851" 
d="M512 750v-300l132 300h180l-160 -331l170 -419h-186l-97 261l-39 -76v-185h-176v185l-39 76l-97 -261h-186l170 419l-160 331h180l130 -300l2 300h176z" />
    <glyph glyph-name="AE" unicode="&#x416;" horiz-adv-x="851" 
d="M512 750v-300l132 300h180l-160 -331l170 -419h-186l-97 261l-39 -76v-185h-176v185l-39 76l-97 -261h-186l170 419l-160 331h180l130 -300l2 300h176z" />
    <glyph glyph-name="Ccedilla" unicode="&#xc7;" horiz-adv-x="556" 
d="M196 319v135h14q39 0 59 4.5t33 14.5q17 11 25.5 35.5t8.5 47.5q0 37 -13 57t-48 20q-39 0 -52 -37q-7 -20 -7 -67h-173l1 54q0 84 66 134.5t167 50.5q105 0 164 -47q64 -51 64 -151q0 -63 -24 -101.5t-86 -69.5q67 -17 98 -74q26 -47 26 -117q0 -114 -62 -170t-178 -56
q-108 0 -173 56t-65 157l-1 57h176v-31q0 -62 16.5 -83t48.5 -21q37 0 52 30q11 22 11 64q0 31 -7 52q-10 28 -33 42q-15 9 -33 11.5t-46 2.5h-29z" />
    <glyph glyph-name="Ccedilla" unicode="&#x417;" horiz-adv-x="556" 
d="M196 319v135h14q39 0 59 4.5t33 14.5q17 11 25.5 35.5t8.5 47.5q0 37 -13 57t-48 20q-39 0 -52 -37q-7 -20 -7 -67h-173l1 54q0 84 66 134.5t167 50.5q105 0 164 -47q64 -51 64 -151q0 -63 -24 -101.5t-86 -69.5q67 -17 98 -74q26 -47 26 -117q0 -114 -62 -170t-178 -56
q-108 0 -173 56t-65 157l-1 57h176v-31q0 -62 16.5 -83t48.5 -21q37 0 52 30q11 22 11 64q0 31 -7 52q-10 28 -33 42q-15 9 -33 11.5t-46 2.5h-29z" />
    <glyph glyph-name="Egrave" unicode="&#xc8;" horiz-adv-x="556" 
d="M221 0h-180v750h169l-17 -419l141 419h181v-750h-169l16 418l-2 2z" />
    <glyph glyph-name="Egrave" unicode="&#x418;" horiz-adv-x="556" 
d="M221 0h-180v750h169l-17 -419l141 419h181v-750h-169l16 418l-2 2z" />
    <glyph glyph-name="Eacute" unicode="&#xc9;" horiz-adv-x="556" 
d="M221 0h-180v750h169l-17 -419l141 419h181v-750h-169l16 418l-2 2zM95 960h79q4 -36 38 -51q26 -11 68 -11t63 11q26 14 37 51h77q0 -74 -55 -115q-51 -38 -127 -38q-84 0 -129 34q-51 39 -51 119z" />
    <glyph glyph-name="Eacute" unicode="&#x419;" horiz-adv-x="556" 
d="M221 0h-180v750h169l-17 -419l141 419h181v-750h-169l16 418l-2 2zM95 960h79q4 -36 38 -51q26 -11 68 -11t63 11q26 14 37 51h77q0 -74 -55 -115q-51 -38 -127 -38q-84 0 -129 34q-51 39 -51 119z" />
    <glyph glyph-name="Ecircumflex" unicode="&#xca;" horiz-adv-x="556" 
d="M220 0h-176v750h176v-300l132 300h180l-160 -331l170 -419h-186l-97 261l-39 -76v-185z" />
    <glyph glyph-name="Ecircumflex" unicode="&#x41a;" horiz-adv-x="556" 
d="M220 0h-176v750h176v-300l132 300h180l-160 -331l170 -419h-186l-97 261l-39 -76v-185z" />
    <glyph glyph-name="Edieresis" unicode="&#xcb;" horiz-adv-x="556" 
d="M0 -18v150q68 0 79 80q5 36 5 131v407h431v-750h-176v600h-94v-257q0 -133 -9 -184q-15 -85 -65 -128q-57 -49 -171 -49z" />
    <glyph glyph-name="Edieresis" unicode="&#x41b;" horiz-adv-x="556" 
d="M0 -18v150q68 0 79 80q5 36 5 131v407h431v-750h-176v600h-94v-257q0 -133 -9 -184q-15 -85 -65 -128q-57 -49 -171 -49z" />
    <glyph glyph-name="Igrave" unicode="&#xcc;" horiz-adv-x="778" 
d="M216 0h-167v750h248l91 -443l96 443h246v-750h-168l18 588l-126 -588h-131l-121 588z" />
    <glyph glyph-name="Igrave" unicode="&#x41c;" horiz-adv-x="778" 
d="M216 0h-167v750h248l91 -443l96 443h246v-750h-168l18 588l-126 -588h-131l-121 588z" />
    <glyph glyph-name="Iacute" unicode="&#xcd;" horiz-adv-x="556" 
d="M217 0h-176v750h176v-288h122v288h176v-750h-176v312h-122v-312z" />
    <glyph glyph-name="Iacute" unicode="&#x41d;" horiz-adv-x="556" 
d="M217 0h-176v750h176v-288h122v288h176v-750h-176v312h-122v-312z" />
    <glyph glyph-name="Icircumflex" unicode="&#xce;" horiz-adv-x="556" 
d="M341 224v308q0 46 -9 68q-14 33 -53 33q-37 0 -52 -33q-11 -24 -11 -68v-308q0 -45 10 -69q16 -38 54 -38t52 37q9 24 9 70zM517 544v-305q0 -132 -51 -192q-56 -65 -186 -65t-187 65q-53 60 -53 192v305q0 108 62 166t178 58q115 0 176 -58t61 -166z" />
    <glyph glyph-name="Icircumflex" unicode="&#x41e;" horiz-adv-x="556" 
d="M341 224v308q0 46 -9 68q-14 33 -53 33q-37 0 -52 -33q-11 -24 -11 -68v-308q0 -45 10 -69q16 -38 54 -38t52 37q9 24 9 70zM517 544v-305q0 -132 -51 -192q-56 -65 -186 -65t-187 65q-53 60 -53 192v305q0 108 62 166t178 58q115 0 176 -58t61 -166z" />
    <glyph glyph-name="Idieresis" unicode="&#xcf;" horiz-adv-x="556" 
d="M217 0h-176v750h474v-750h-176v600h-122v-600z" />
    <glyph glyph-name="Idieresis" unicode="&#x41f;" horiz-adv-x="556" 
d="M217 0h-176v750h474v-750h-176v600h-122v-600z" />
    <glyph glyph-name="Eth" unicode="&#xd0;" horiz-adv-x="556" 
d="M229 615v-188h25q24 0 41.5 3.5t32.5 15.5q13 14 17.5 32.5t4.5 43.5q0 31 -5 49q-8 29 -28 38q-11 4 -24.5 5t-34.5 1h-10h-19zM229 0h-176v750h209q68 0 114 -10q69 -15 101 -52q28 -32 40 -76q9 -34 9 -87q0 -72 -19 -121q-24 -62 -80 -88q-29 -14 -63.5 -19t-79.5 -5
h-55v-292z" />
    <glyph glyph-name="Eth" unicode="&#x420;" horiz-adv-x="556" 
d="M229 615v-188h25q24 0 41.5 3.5t32.5 15.5q13 14 17.5 32.5t4.5 43.5q0 31 -5 49q-8 29 -28 38q-11 4 -24.5 5t-34.5 1h-10h-19zM229 0h-176v750h209q68 0 114 -10q69 -15 101 -52q28 -32 40 -76q9 -34 9 -87q0 -72 -19 -121q-24 -62 -80 -88q-29 -14 -63.5 -19t-79.5 -5
h-55v-292z" />
    <glyph glyph-name="Ntilde" unicode="&#xd1;" horiz-adv-x="556" 
d="M515 488h-176v48q0 97 -56 97q-39 0 -53.5 -19t-14.5 -59v-371q0 -34 14 -50.5t48 -16.5q40 0 55 36q10 24 10 72v68h176v-92q0 -102 -59 -158q-65 -61 -195 -61q-118 0 -171.5 60.5t-53.5 178.5v308q0 122 57.5 180.5t178.5 58.5q116 0 178 -52.5t62 -164.5v-63z" />
    <glyph glyph-name="Ntilde" unicode="&#x421;" horiz-adv-x="556" 
d="M515 488h-176v48q0 97 -56 97q-39 0 -53.5 -19t-14.5 -59v-371q0 -34 14 -50.5t48 -16.5q40 0 55 36q10 24 10 72v68h176v-92q0 -102 -59 -158q-65 -61 -195 -61q-118 0 -171.5 60.5t-53.5 178.5v308q0 122 57.5 180.5t178.5 58.5q116 0 178 -52.5t62 -164.5v-63z" />
    <glyph glyph-name="Ograve" unicode="&#xd2;" 
d="M22 600v150h456v-150h-142v-600h-176v600h-138z" />
    <glyph glyph-name="Ograve" unicode="&#x422;" 
d="M22 600v150h456v-150h-142v-600h-176v600h-138z" />
    <glyph glyph-name="Oacute" unicode="&#xd3;" horiz-adv-x="556" 
d="M391 207q-29 -101 -47 -136q-45 -89 -161 -89q-33 0 -63 5v150q23 -5 48 -5q16 0 29.5 11t19.5 28l14 36l-222 543h178l108 -323l76 323h176z" />
    <glyph glyph-name="Oacute" unicode="&#x423;" horiz-adv-x="556" 
d="M391 207q-29 -101 -47 -136q-45 -89 -161 -89q-33 0 -63 5v150q23 -5 48 -5q16 0 29.5 11t19.5 28l14 36l-222 543h178l108 -323l76 323h176z" />
    <glyph glyph-name="Ocircumflex" unicode="&#xd4;" horiz-adv-x="814" 
d="M319 510h-12q-62 0 -83 -34q-17 -28 -17 -101q0 -72 17 -100q21 -35 83 -35h12v270zM495 510v-270h12q62 0 83 34q17 28 17 101q0 72 -17 100q-21 35 -83 35h-12zM495 750v-105h45q136 0 193 -73q50 -64 50 -197q0 -134 -49 -197q-57 -73 -194 -73h-45v-105h-176v105h-45
q-136 0 -193 73q-50 64 -50 197q0 134 49 197q57 73 194 73h45v105h176z" />
    <glyph glyph-name="Ocircumflex" unicode="&#x424;" horiz-adv-x="814" 
d="M319 510h-12q-62 0 -83 -34q-17 -28 -17 -101q0 -72 17 -100q21 -35 83 -35h12v270zM495 510v-270h12q62 0 83 34q17 28 17 101q0 72 -17 100q-21 35 -83 35h-12zM495 750v-105h45q136 0 193 -73q50 -64 50 -197q0 -134 -49 -197q-57 -73 -194 -73h-45v-105h-176v105h-45
q-136 0 -193 73q-50 64 -50 197q0 134 49 197q57 73 194 73h45v105h176z" />
    <glyph glyph-name="Otilde" unicode="&#xd5;" horiz-adv-x="556" 
d="M197 750l82 -228l82 228h176l-156 -376l163 -374h-176l-85 224l-102 -224h-168l167 374l-158 376h175z" />
    <glyph glyph-name="Otilde" unicode="&#x425;" horiz-adv-x="556" 
d="M197 750l82 -228l82 228h176l-156 -376l163 -374h-176l-85 224l-102 -224h-168l167 374l-158 376h175z" />
    <glyph glyph-name="Odieresis" unicode="&#xd6;" horiz-adv-x="556" 
d="M395 0h-354v750h176v-600h122v600h176v-600h41v-258h-161v108z" />
    <glyph glyph-name="Odieresis" unicode="&#x426;" horiz-adv-x="556" 
d="M395 0h-354v750h176v-600h122v600h176v-600h41v-258h-161v108z" />
    <glyph glyph-name="multiply" unicode="&#xd7;" horiz-adv-x="537" 
d="M32 750h176v-268q0 -16 7 -25q11 -15 37 -15q37 0 68 20v288h176v-750h-176v312q-41 -16 -63 -21q-37 -9 -78 -9q-75 0 -111 49t-36 141v278z" />
    <glyph glyph-name="multiply" unicode="&#x427;" horiz-adv-x="537" 
d="M32 750h176v-268q0 -16 7 -25q11 -15 37 -15q37 0 68 20v288h176v-750h-176v312q-41 -16 -63 -21q-37 -9 -78 -9q-75 0 -111 49t-36 141v278z" />
    <glyph glyph-name="Oslash" unicode="&#xd8;" horiz-adv-x="778" 
d="M301 150v600h176v-600h84v600h176v-750h-696v750h176v-600h84z" />
    <glyph glyph-name="Oslash" unicode="&#x428;" horiz-adv-x="778" 
d="M301 150v600h176v-600h84v600h176v-750h-696v750h176v-600h84z" />
    <glyph glyph-name="Ugrave" unicode="&#xd9;" horiz-adv-x="778" 
d="M617 0h-576v750h176v-600h84v600h176v-600h84v600h176v-600h41v-258h-161v108z" />
    <glyph glyph-name="Ugrave" unicode="&#x429;" horiz-adv-x="778" 
d="M617 0h-576v750h176v-600h84v600h176v-600h84v600h176v-600h41v-258h-161v108z" />
    <glyph glyph-name="Uacute" unicode="&#xda;" horiz-adv-x="611" 
d="M284 135h19q46 0 69 8q20 9 28 38q5 18 5 49q0 23 -4.5 42.5t-17.5 33.5q-12 10 -30 13.5t-40 3.5h-29v-188zM108 600h-86v150h262v-292h55q50 0 80.5 -4t62.5 -20q54 -25 79 -88q20 -51 20 -121q0 -52 -10 -91.5t-39 -71.5q-33 -37 -100 -52q-46 -10 -115 -10h-209v600z
" />
    <glyph glyph-name="Uacute" unicode="&#x42a;" horiz-adv-x="611" 
d="M284 135h19q46 0 69 8q20 9 28 38q5 18 5 49q0 23 -4.5 42.5t-17.5 33.5q-12 10 -30 13.5t-40 3.5h-29v-188zM108 600h-86v150h262v-292h55q50 0 80.5 -4t62.5 -20q54 -25 79 -88q20 -51 20 -121q0 -52 -10 -91.5t-39 -71.5q-33 -37 -100 -52q-46 -10 -115 -10h-209v600z
" />
    <glyph glyph-name="Ucircumflex" unicode="&#xdb;" horiz-adv-x="833" 
d="M229 750v-292h55q50 0 80.5 -4t62.5 -20q54 -25 79 -88q20 -51 20 -121q0 -52 -10 -91.5t-39 -71.5q-33 -37 -100 -52q-46 -10 -115 -10h-209v750h176zM229 135h19q43 0 69 9q20 9 28 38q5 18 5 49q0 23 -4.5 42.5t-17.5 33.5q-13 10 -28 13.5t-36 3.5q-9 0 -18 -0.5
t-17 -0.5v-188zM777 0h-176v750h176v-750z" />
    <glyph glyph-name="Ucircumflex" unicode="&#x42b;" horiz-adv-x="833" 
d="M229 750v-292h55q50 0 80.5 -4t62.5 -20q54 -25 79 -88q20 -51 20 -121q0 -52 -10 -91.5t-39 -71.5q-33 -37 -100 -52q-46 -10 -115 -10h-209v750h176zM229 135h19q43 0 69 9q20 9 28 38q5 18 5 49q0 23 -4.5 42.5t-17.5 33.5q-13 10 -28 13.5t-36 3.5q-9 0 -18 -0.5
t-17 -0.5v-188zM777 0h-176v750h176v-750z" />
    <glyph glyph-name="Udieresis" unicode="&#xdc;" horiz-adv-x="556" 
d="M229 750v-292h55q50 0 80.5 -4t62.5 -20q54 -25 79 -88q20 -51 20 -121q0 -52 -10 -91.5t-39 -71.5q-33 -37 -100 -52q-46 -10 -115 -10h-209v750h176zM229 135h19q46 0 69 8q20 9 28 38q5 18 5 49q0 23 -4.5 42.5t-17.5 33.5q-12 10 -30 13.5t-40 3.5h-29v-188z" />
    <glyph glyph-name="Udieresis" unicode="&#x42c;" horiz-adv-x="556" 
d="M229 750v-292h55q50 0 80.5 -4t62.5 -20q54 -25 79 -88q20 -51 20 -121q0 -52 -10 -91.5t-39 -71.5q-33 -37 -100 -52q-46 -10 -115 -10h-209v750h176zM229 135h19q46 0 69 8q20 9 28 38q5 18 5 49q0 23 -4.5 42.5t-17.5 33.5q-12 10 -30 13.5t-40 3.5h-29v-188z" />
    <glyph glyph-name="Yacute" unicode="&#xdd;" horiz-adv-x="556" 
d="M341 462v93q0 39 -13 57q-16 21 -55 21q-56 0 -56 -97v-7h-176v22q0 112 61.5 164.5t178.5 52.5q121 0 178.5 -58.5t57.5 -180.5v-308q0 -119 -51 -177q-55 -62 -174 -62q-129 0 -194 61q-60 57 -60 158v51h176v-27q0 -46 10 -71q15 -37 55 -37q33 0 47.5 16.5t14.5 50.5
l1 128h-150v150h149z" />
    <glyph glyph-name="Yacute" unicode="&#x42d;" horiz-adv-x="556" 
d="M341 462v93q0 39 -13 57q-16 21 -55 21q-56 0 -56 -97v-7h-176v22q0 112 61.5 164.5t178.5 52.5q121 0 178.5 -58.5t57.5 -180.5v-308q0 -119 -51 -177q-55 -62 -174 -62q-129 0 -194 61q-60 57 -60 158v51h176v-27q0 -46 10 -71q15 -37 55 -37q33 0 47.5 16.5t14.5 50.5
l1 128h-150v150h149z" />
    <glyph glyph-name="Thorn" unicode="&#xde;" horiz-adv-x="815" 
d="M599 224v308q0 51 -6 68q-12 33 -51 33q-37 0 -50 -33q-8 -21 -8 -68v-308q0 -46 8 -69q13 -38 51 -38q37 0 49 37q7 22 7 70zM308 312h-91v-312h-176v750h176v-288h91v82q0 109 59.5 166.5t175.5 57.5q115 0 173.5 -57.5t58.5 -166.5v-305q0 -133 -49 -192
q-54 -65 -183 -65t-184 65q-51 60 -51 192v73z" />
    <glyph glyph-name="Thorn" unicode="&#x42e;" horiz-adv-x="815" 
d="M599 224v308q0 51 -6 68q-12 33 -51 33q-37 0 -50 -33q-8 -21 -8 -68v-308q0 -46 8 -69q13 -38 51 -38q37 0 49 37q7 22 7 70zM308 312h-91v-312h-176v750h176v-288h91v82q0 109 59.5 166.5t175.5 57.5q115 0 173.5 -57.5t58.5 -166.5v-305q0 -133 -49 -192
q-54 -65 -183 -65t-184 65q-51 60 -51 192v73z" />
    <glyph glyph-name="germandbls" unicode="&#xdf;" horiz-adv-x="556" 
d="M338 296h-58q-28 0 -42 -20.5t-17 -48.5t-4 -69t-1 -66v-49q0 -10 -2 -18.5t-8 -24.5h-192v10q10 9 17 26q7 34 11.5 106.5t4.5 130.5q0 38 24 63t63 34q-52 25 -72.5 67t-20.5 106q0 109 53 158t163 49h257v-750h-176v296zM338 615q-61 0 -76 -4q-47 -12 -47 -87
q0 -41 13.5 -67t49.5 -26h60v184z" />
    <glyph glyph-name="germandbls" unicode="&#x42f;" horiz-adv-x="556" 
d="M338 296h-58q-28 0 -42 -20.5t-17 -48.5t-4 -69t-1 -66v-49q0 -10 -2 -18.5t-8 -24.5h-192v10q10 9 17 26q7 34 11.5 106.5t4.5 130.5q0 38 24 63t63 34q-52 25 -72.5 67t-20.5 106q0 109 53 158t163 49h257v-750h-176v296zM338 615q-61 0 -76 -4q-47 -12 -47 -87
q0 -41 13.5 -67t49.5 -26h60v184z" />
    <glyph glyph-name="agrave" unicode="&#xe0;" 
d="M301 184v88q-39 -18 -52.5 -24t-29 -17.5t-25.5 -28.5t-10 -43q0 -27 15.5 -43.5t43.5 -16.5q31 0 46 29q12 23 12 56zM318 0l-11 50q-31 -35 -62 -51.5t-75 -16.5q-68 0 -107 41t-39 109q0 86 43 134q31 35 96 56q47 15 95 31q43 20 43 59q0 25 -13.5 41.5t-36.5 16.5
q-39 0 -52 -26q-9 -18 -9 -61h-159q0 101 59 149q54 44 156 44q118 0 166 -39t48 -132v-343q0 -13 3.5 -29t9.5 -33h-155z" />
    <glyph glyph-name="agrave" unicode="&#x430;" 
d="M301 184v88q-39 -18 -52.5 -24t-29 -17.5t-25.5 -28.5t-10 -43q0 -27 15.5 -43.5t43.5 -16.5q31 0 46 29q12 23 12 56zM318 0l-11 50q-31 -35 -62 -51.5t-75 -16.5q-68 0 -107 41t-39 109q0 86 43 134q31 35 96 56q47 15 95 31q43 20 43 59q0 25 -13.5 41.5t-36.5 16.5
q-39 0 -52 -26q-9 -18 -9 -61h-159q0 101 59 149q54 44 156 44q118 0 166 -39t48 -132v-343q0 -13 3.5 -29t9.5 -33h-155z" />
    <glyph glyph-name="aacute" unicode="&#xe1;" 
d="M201 348v-201q0 -50 49 -50q23 0 36 13t13 36v209q0 49 -10.5 70t-38.5 21q-27 0 -38 -25.5t-11 -72.5zM42 494q0 106 31 167q42 83 144 98q71 11 86 15q38 10 38 26h106q0 -83 -43 -122q-39 -36 -124 -47q-58 -7 -88.5 -43.5t-30.5 -96.5q51 85 140 85q157 0 157 -191
v-229q0 -79 -57.5 -126.5t-150.5 -47.5t-147 39q-61 44 -61 135v338z" />
    <glyph glyph-name="aacute" unicode="&#x431;" 
d="M201 348v-201q0 -50 49 -50q23 0 36 13t13 36v209q0 49 -10.5 70t-38.5 21q-27 0 -38 -25.5t-11 -72.5zM42 494q0 106 31 167q42 83 144 98q71 11 86 15q38 10 38 26h106q0 -83 -43 -122q-39 -36 -124 -47q-58 -7 -88.5 -43.5t-30.5 -96.5q51 85 140 85q157 0 157 -191
v-229q0 -79 -57.5 -126.5t-150.5 -47.5t-147 39q-61 44 -61 135v338z" />
    <glyph glyph-name="acircumflex" unicode="&#xe2;" 
d="M223 234h-15v-121h15q51 0 66 8q22 12 22 55q0 39 -20 48.5t-68 9.5zM223 447h-15v-101h15q45 0 58 7q20 11 20 50q0 29 -18 36.5t-60 7.5zM275 0h-226v560h209q93 0 143 -30q59 -36 59 -115q0 -41 -21.5 -71.5t-60.5 -45.5q43 -19 67.5 -53t24.5 -83q0 -83 -50.5 -122.5
t-144.5 -39.5z" />
    <glyph glyph-name="acircumflex" unicode="&#x432;" 
d="M223 234h-15v-121h15q51 0 66 8q22 12 22 55q0 39 -20 48.5t-68 9.5zM223 447h-15v-101h15q45 0 58 7q20 11 20 50q0 29 -18 36.5t-60 7.5zM275 0h-226v560h209q93 0 143 -30q59 -36 59 -115q0 -41 -21.5 -71.5t-60.5 -45.5q43 -19 67.5 -53t24.5 -83q0 -83 -50.5 -122.5
t-144.5 -39.5z" />
    <glyph glyph-name="atilde" unicode="&#xe3;" horiz-adv-x="407" 
d="M387 560v-124h-182v-436h-159v560h341z" />
    <glyph glyph-name="atilde" unicode="&#x433;" horiz-adv-x="407" 
d="M387 560v-124h-182v-436h-159v560h341z" />
    <glyph glyph-name="adieresis" unicode="&#xe4;" 
d="M5 124q49 0 62 44q9 30 9 126v266h378v-436h35v-232h-146v108h-192v-108h-146v232zM295 124v312h-73v-154q0 -64 -3 -85q-6 -43 -28 -73h104z" />
    <glyph glyph-name="adieresis" unicode="&#x434;" 
d="M5 124q49 0 62 44q9 30 9 126v266h378v-436h35v-232h-146v108h-192v-108h-146v232zM295 124v312h-73v-154q0 -64 -3 -85q-6 -43 -28 -73h104z" />
    <glyph glyph-name="aring" unicode="&#xe5;" 
d="M197 359h110v55q0 21 -11 36q-15 21 -43 21q-31 0 -43.5 -20.5t-12.5 -54.5v-37zM466 254h-269v-98q0 -26 12 -42.5t37 -16.5q39 0 50 31q6 17 6 66h158q0 -212 -208 -212q-94 0 -150 39q-64 45 -64 135v228q0 102 61 150q53 42 153 42q94 0 149 -35q65 -42 65 -127v-160
z" />
    <glyph glyph-name="aring" unicode="&#x435;" 
d="M197 359h110v55q0 21 -11 36q-15 21 -43 21q-31 0 -43.5 -20.5t-12.5 -54.5v-37zM466 254h-269v-98q0 -26 12 -42.5t37 -16.5q39 0 50 31q6 17 6 66h158q0 -212 -208 -212q-94 0 -150 39q-64 45 -64 135v228q0 102 61 150q53 42 153 42q94 0 149 -35q65 -42 65 -127v-160
z" />
    <glyph glyph-name="ae" unicode="&#xe6;" horiz-adv-x="740" 
d="M449 560v-187l111 187h174l-158 -225l160 -335h-167l-93 216l-27 -36v-180h-159v180l-27 36l-93 -216h-167l160 335l-158 225h174l109 -187l2 187h159z" />
    <glyph glyph-name="ae" unicode="&#x436;" horiz-adv-x="740" 
d="M449 560v-187l111 187h174l-158 -225l160 -335h-167l-93 216l-27 -36v-180h-159v180l-27 36l-93 -216h-167l160 335l-158 225h174l109 -187l2 187h159z" />
    <glyph glyph-name="ccedilla" unicode="&#xe7;" horiz-adv-x="482" 
d="M171 232v114h24q22 0 40 2.5t31.5 10.5t16.5 19.5t3 33.5q0 23 -11 36t-36 13q-31 0 -41 -22q-6 -13 -6 -44h-153v40q0 62 58.5 101.5t144.5 39.5q90 0 144.5 -37.5t54.5 -112.5q0 -99 -83 -128q44 -17 69.5 -56.5t25.5 -86.5q0 -85 -56 -129t-156 -44q-93 0 -150.5 44
t-57.5 120l-1 42h156q0 -45 6 -61q11 -30 48 -30q29 0 40 17t11 44q0 22 -1 28q-5 25 -25 36q-10 6 -30 8t-41 2h-25z" />
    <glyph glyph-name="ccedilla" unicode="&#x437;" horiz-adv-x="482" 
d="M171 232v114h24q22 0 40 2.5t31.5 10.5t16.5 19.5t3 33.5q0 23 -11 36t-36 13q-31 0 -41 -22q-6 -13 -6 -44h-153v40q0 62 58.5 101.5t144.5 39.5q90 0 144.5 -37.5t54.5 -112.5q0 -99 -83 -128q44 -17 69.5 -56.5t25.5 -86.5q0 -85 -56 -129t-156 -44q-93 0 -150.5 44
t-57.5 120l-1 42h156q0 -45 6 -61q11 -30 48 -30q29 0 40 17t11 44q0 22 -1 28q-5 25 -25 36q-10 6 -30 8t-41 2h-25z" />
    <glyph glyph-name="egrave" unicode="&#xe8;" 
d="M208 0h-162v560h153l-13 -216q0 -23 -5 -61q-1 -13 -6 -36l116 313h163v-560h-153l13 217q0 21 5 59q1 13 6 38z" />
    <glyph glyph-name="egrave" unicode="&#x438;" 
d="M208 0h-162v560h153l-13 -216q0 -23 -5 -61q-1 -13 -6 -36l116 313h163v-560h-153l13 217q0 21 5 59q1 13 6 38z" />
    <glyph glyph-name="eacute" unicode="&#xe9;" 
d="M70 787h79q4 -36 38 -51q26 -11 68 -11t63 11q26 14 37 51h77q0 -74 -55 -115q-51 -38 -127 -38q-84 0 -129 34q-51 39 -51 119zM208 0h-162v560h153l-13 -216q0 -23 -5 -61q-1 -13 -6 -36l116 313h163v-560h-153l13 217q0 21 5 59q1 13 6 38z" />
    <glyph glyph-name="eacute" unicode="&#x439;" 
d="M70 787h79q4 -36 38 -51q26 -11 68 -11t63 11q26 14 37 51h77q0 -74 -55 -115q-51 -38 -127 -38q-84 0 -129 34q-51 39 -51 119zM208 0h-162v560h153l-13 -216q0 -23 -5 -61q-1 -13 -6 -36l116 313h163v-560h-153l13 217q0 21 5 59q1 13 6 38z" />
    <glyph glyph-name="ecircumflex" unicode="&#xea;" 
d="M205 0h-159v560h159v-187l111 187h174l-158 -225l165 -335h-177l-88 216l-27 -36v-180z" />
    <glyph glyph-name="ecircumflex" unicode="&#x43a;" 
d="M205 0h-159v560h159v-187l111 187h174l-158 -225l165 -335h-177l-88 216l-27 -36v-180z" />
    <glyph glyph-name="edieresis" unicode="&#xeb;" 
d="M5 -13v124q49 0 62 38q9 26 9 119v292h378v-560h-159v436h-73v-180q0 -138 -31 -191q-46 -78 -186 -78z" />
    <glyph glyph-name="edieresis" unicode="&#x43b;" 
d="M5 -13v124q49 0 62 38q9 26 9 119v292h378v-560h-159v436h-73v-180q0 -138 -31 -191q-46 -78 -186 -78z" />
    <glyph glyph-name="igrave" unicode="&#xec;" horiz-adv-x="704" 
d="M198 0h-151v560h229l74 -331l79 331h227v-560h-152l8 342l7 97l-104 -439h-129l-100 439l4 -97z" />
    <glyph glyph-name="igrave" unicode="&#x43c;" horiz-adv-x="704" 
d="M198 0h-151v560h229l74 -331l79 331h227v-560h-152l8 342l7 97l-104 -439h-129l-100 439l4 -97z" />
    <glyph glyph-name="iacute" unicode="&#xed;" 
d="M205 0h-159v560h159v-209h90v209h159v-560h-159v227h-90v-227z" />
    <glyph glyph-name="iacute" unicode="&#x43d;" 
d="M205 0h-159v560h159v-209h90v209h159v-560h-159v227h-90v-227z" />
    <glyph glyph-name="icircumflex" unicode="&#xee;" 
d="M42 156v228q0 103 58 150q51 42 150 42q208 0 208 -192v-228q0 -92 -58 -135q-52 -39 -150 -39q-93 0 -147 39q-61 44 -61 135zM201 396v-250q5 -49 49 -49q24 0 35.5 11.5t13.5 37.5v250q0 30 -11 47.5t-38 17.5q-26 0 -37.5 -18t-11.5 -47z" />
    <glyph glyph-name="icircumflex" unicode="&#x43e;" 
d="M42 156v228q0 103 58 150q51 42 150 42q208 0 208 -192v-228q0 -92 -58 -135q-52 -39 -150 -39q-93 0 -147 39q-61 44 -61 135zM201 396v-250q5 -49 49 -49q24 0 35.5 11.5t13.5 37.5v250q0 30 -11 47.5t-38 17.5q-26 0 -37.5 -18t-11.5 -47z" />
    <glyph glyph-name="idieresis" unicode="&#xef;" 
d="M205 0h-159v560h408v-560h-159v436h-90v-436z" />
    <glyph glyph-name="idieresis" unicode="&#x43f;" 
d="M205 0h-159v560h408v-560h-159v436h-90v-436z" />
    <glyph glyph-name="eth" unicode="&#xf0;" 
d="M299 209v145q0 41 -5 58q-10 34 -41 34q-30 0 -41 -26t-11 -73v-132q0 -45 9 -69q13 -34 40 -34q33 0 43 35q6 20 6 62zM42 560h148v-68q50 84 132 84q72 0 107 -63q29 -52 29 -129v-194q0 -88 -26 -140q-34 -68 -113 -68q-27 0 -54 14q-36 19 -62 57l-2 -242h-159v749z
" />
    <glyph glyph-name="eth" unicode="&#x440;" 
d="M299 209v145q0 41 -5 58q-10 34 -41 34q-30 0 -41 -26t-11 -73v-132q0 -45 9 -69q13 -34 40 -34q33 0 43 35q6 20 6 62zM42 560h148v-68q50 84 132 84q72 0 107 -63q29 -52 29 -129v-194q0 -88 -26 -140q-34 -68 -113 -68q-27 0 -54 14q-36 19 -62 57l-2 -242h-159v749z
" />
    <glyph glyph-name="ntilde" unicode="&#xf1;" 
d="M456 352h-150l-1 10l-6 64q-11 35 -43 35q-28 0 -38 -18t-10 -50v-231q0 -30 11 -47.5t40 -17.5t41 30q9 23 9 62q0 12 -0.5 21.5t-0.5 16.5h154q0 -29 -3 -70t-10 -63q-15 -50 -57 -78q-38 -25 -93 -31q-10 0 -29 -1.5t-24 -1.5q-91 0 -141 39q-56 44 -56 135v228
q0 104 52 150q47 42 145 42q116 0 163 -52.5t47 -171.5z" />
    <glyph glyph-name="ntilde" unicode="&#x441;" 
d="M456 352h-150l-1 10l-6 64q-11 35 -43 35q-28 0 -38 -18t-10 -50v-231q0 -30 11 -47.5t40 -17.5t41 30q9 23 9 62q0 12 -0.5 21.5t-0.5 16.5h154q0 -29 -3 -70t-10 -63q-15 -50 -57 -78q-38 -25 -93 -31q-10 0 -29 -1.5t-24 -1.5q-91 0 -141 39q-56 44 -56 135v228
q0 104 52 150q47 42 145 42q116 0 163 -52.5t47 -171.5z" />
    <glyph glyph-name="ograve" unicode="&#xf2;" horiz-adv-x="444" 
d="M22 436v124h400v-124h-122v-436h-159v436h-119z" />
    <glyph glyph-name="ograve" unicode="&#x442;" horiz-adv-x="444" 
d="M22 436v124h400v-124h-122v-436h-159v436h-119z" />
    <glyph glyph-name="oacute" unicode="&#xf3;" horiz-adv-x="444" 
d="M166 560l59 -362l52 362h156l-101 -479q-24 -114 -31 -137q-21 -68 -56 -97q-44 -36 -126 -36q-15 0 -25.5 1t-37.5 4v118l31 -4q16 -2 32.5 5.5t16.5 22.5q0 21 -3 41t-11 54l-116 507h160z" />
    <glyph glyph-name="oacute" unicode="&#x443;" horiz-adv-x="444" 
d="M166 560l59 -362l52 362h156l-101 -479q-24 -114 -31 -137q-21 -68 -56 -97q-44 -36 -126 -36q-15 0 -25.5 1t-37.5 4v118l31 -4q16 -2 32.5 5.5t16.5 22.5q0 21 -3 41t-11 54l-116 507h160z" />
    <glyph glyph-name="ocircumflex" unicode="&#xf4;" horiz-adv-x="740" 
d="M548 209v145q0 41 -5 58q-10 34 -41 34q-30 0 -41 -26t-11 -73v-132q0 -45 9 -69q13 -34 40 -34q33 0 43 35q6 20 6 62zM193 209q0 -45 5 -62q10 -35 44 -35q27 0 38 30t11 73v132q0 48 -9 70q-12 29 -43 29q-30 0 -40 -33q-6 -19 -6 -59v-145zM291 -189v242
q-26 -37 -63 -56q-29 -15 -55 -15q-79 0 -113 68q-26 51 -26 140v194q0 79 28 129q35 63 108 63q75 0 119 -65l2 239h159v-239q47 65 121 65q72 0 107 -63q29 -52 29 -129v-194q0 -88 -26 -140q-34 -68 -113 -68q-27 0 -54 14q-36 19 -62 57l-2 -242h-159z" />
    <glyph glyph-name="ocircumflex" unicode="&#x444;" horiz-adv-x="740" 
d="M548 209v145q0 41 -5 58q-10 34 -41 34q-30 0 -41 -26t-11 -73v-132q0 -45 9 -69q13 -34 40 -34q33 0 43 35q6 20 6 62zM193 209q0 -45 5 -62q10 -35 44 -35q27 0 38 30t11 73v132q0 48 -9 70q-12 29 -43 29q-30 0 -40 -33q-6 -19 -6 -59v-145zM291 -189v242
q-26 -37 -63 -56q-29 -15 -55 -15q-79 0 -113 68q-26 51 -26 140v194q0 79 28 129q35 63 108 63q75 0 119 -65l2 239h159v-239q47 65 121 65q72 0 107 -63q29 -52 29 -129v-194q0 -88 -26 -140q-34 -68 -113 -68q-27 0 -54 14q-36 19 -62 57l-2 -242h-159z" />
    <glyph glyph-name="otilde" unicode="&#xf5;" horiz-adv-x="444" 
d="M272 560h159l-125 -280l129 -280h-159l-51 161l-53 -161h-163l131 280l-125 280h158l47 -157z" />
    <glyph glyph-name="otilde" unicode="&#x445;" horiz-adv-x="444" 
d="M272 560h159l-125 -280l129 -280h-159l-51 161l-53 -161h-163l131 280l-125 280h158l47 -157z" />
    <glyph glyph-name="odieresis" unicode="&#xf6;" 
d="M343 0h-297v560h159v-448h90v448h159v-448h35v-220h-146v108z" />
    <glyph glyph-name="odieresis" unicode="&#x446;" 
d="M343 0h-297v560h159v-448h90v448h159v-448h35v-220h-146v108z" />
    <glyph glyph-name="divide" unicode="&#xf7;" horiz-adv-x="481" 
d="M35 560h159v-189q0 -35 36 -35q25 0 47 15v209h159v-560h-159v228q-28 -11 -51.5 -16.5t-53.5 -5.5q-64 0 -100.5 43.5t-36.5 115.5v195z" />
    <glyph glyph-name="divide" unicode="&#x447;" horiz-adv-x="481" 
d="M35 560h159v-189q0 -35 36 -35q25 0 47 15v209h159v-560h-159v228q-28 -11 -51.5 -16.5t-53.5 -5.5q-64 0 -100.5 43.5t-36.5 115.5v195z" />
    <glyph glyph-name="oslash" unicode="&#xf8;" horiz-adv-x="704" 
d="M46 0v560h159v-448h67v448h159v-448h67v448h159v-560h-611z" />
    <glyph glyph-name="oslash" unicode="&#x448;" horiz-adv-x="704" 
d="M46 0v560h159v-448h67v448h159v-448h67v448h159v-560h-611z" />
    <glyph glyph-name="ugrave" unicode="&#xf9;" horiz-adv-x="704" 
d="M546 0h-500v560h159v-448h67v448h159v-448h67v448h159v-448h35v-220h-146v108z" />
    <glyph glyph-name="ugrave" unicode="&#x449;" horiz-adv-x="704" 
d="M546 0h-500v560h159v-448h67v448h159v-448h67v448h159v-448h35v-220h-146v108z" />
    <glyph glyph-name="uacute" unicode="&#xfa;" horiz-adv-x="538" 
d="M265 113h9q51 0 66 7q25 12 25 53t-28 54q-17 8 -63 8h-9v-122zM106 436h-84v124h243v-212h29q115 0 164 -30q65 -40 65 -150q0 -103 -64 -140q-48 -28 -160 -28h-193v436z" />
    <glyph glyph-name="uacute" unicode="&#x44a;" horiz-adv-x="538" 
d="M265 113h9q51 0 66 7q25 12 25 53t-28 54q-17 8 -63 8h-9v-122zM106 436h-84v124h243v-212h29q115 0 164 -30q65 -40 65 -150q0 -103 -64 -140q-48 -28 -160 -28h-193v436z" />
    <glyph glyph-name="ucircumflex" unicode="&#xfb;" horiz-adv-x="723" 
d="M205 560v-212h29q115 0 164 -30q65 -40 65 -150q0 -103 -64 -140q-48 -28 -160 -28h-193v560h159zM205 113h9q51 0 66 7q25 12 25 53t-28 54q-17 8 -63 8h-9v-122zM677 0h-159v560h159v-560z" />
    <glyph glyph-name="ucircumflex" unicode="&#x44b;" horiz-adv-x="723" 
d="M205 560v-212h29q115 0 164 -30q65 -40 65 -150q0 -103 -64 -140q-48 -28 -160 -28h-193v560h159zM205 113h9q51 0 66 7q25 12 25 53t-28 54q-17 8 -63 8h-9v-122zM677 0h-159v560h159v-560z" />
    <glyph glyph-name="udieresis" unicode="&#xfc;" horiz-adv-x="481" 
d="M205 560v-212h29q115 0 164 -30q65 -40 65 -150q0 -103 -64 -140q-48 -28 -160 -28h-193v560h159zM205 113h9q51 0 66 7q25 12 25 53t-28 54q-17 8 -63 8h-9v-122z" />
    <glyph glyph-name="udieresis" unicode="&#x44c;" horiz-adv-x="481" 
d="M205 560v-212h29q115 0 164 -30q65 -40 65 -150q0 -103 -64 -140q-48 -28 -160 -28h-193v560h159zM205 113h9q51 0 66 7q25 12 25 53t-28 54q-17 8 -63 8h-9v-122z" />
    <glyph glyph-name="yacute" unicode="&#xfd;" 
d="M292 348v45q0 32 -8 47q-11 21 -40 21q-32 0 -43 -35l-3 -31h-155q0 181 211 181q97 0 145 -42q52 -46 52 -150v-228q0 -92 -55 -135q-50 -39 -142 -39q-107 0 -159 45q-58 50 -58 161h154q0 -41 8 -61q12 -30 42 -30q29 0 40 17t11 48v68h-116v118h116z" />
    <glyph glyph-name="yacute" unicode="&#x44d;" 
d="M292 348v45q0 32 -8 47q-11 21 -40 21q-32 0 -43 -35l-3 -31h-155q0 181 211 181q97 0 145 -42q52 -46 52 -150v-228q0 -92 -55 -135q-50 -39 -142 -39q-107 0 -159 45q-58 50 -58 161h154q0 -41 8 -61q12 -30 42 -30q29 0 40 17t11 48v68h-116v118h116z" />
    <glyph glyph-name="thorn" unicode="&#xfe;" horiz-adv-x="723" 
d="M432 396v-250q2 -25 11.5 -37t33.5 -12t33 11t12 38v250q0 31 -9 48t-36 17q-25 0 -35 -17.5t-10 -47.5zM273 227h-65v-227h-159v560h159v-209h65v33q0 103 56 150q50 42 148 42q204 0 204 -192v-228q0 -89 -56 -133q-52 -41 -148 -41q-93 0 -145 39q-59 44 -59 135v71z
" />
    <glyph glyph-name="thorn" unicode="&#x44e;" horiz-adv-x="723" 
d="M432 396v-250q2 -25 11.5 -37t33.5 -12t33 11t12 38v250q0 31 -9 48t-36 17q-25 0 -35 -17.5t-10 -47.5zM273 227h-65v-227h-159v560h159v-209h65v33q0 103 56 150q50 42 148 42q204 0 204 -192v-228q0 -89 -56 -133q-52 -41 -148 -41q-93 0 -145 39q-59 44 -59 135v71z
" />
    <glyph glyph-name="ydieresis" unicode="&#xff;" 
d="M295 216h-33q-25 0 -36.5 -15.5t-13.5 -36t-3 -57t-1 -40.5v-35q-1 -9 -2.5 -14.5t-6.5 -17.5h-172v7q10 8 15 25.5t9 93.5t4 78q0 29 20 47.5t54 24.5q-45 19 -62 50t-17 79q0 82 44.5 118.5t139.5 36.5h220v-560h-159v216zM295 447q-49 0 -68.5 -9.5t-19.5 -49.5
q0 -29 12 -44.5t41 -15.5h35v119z" />
    <glyph glyph-name="ydieresis" unicode="&#x44f;" 
d="M295 216h-33q-25 0 -36.5 -15.5t-13.5 -36t-3 -57t-1 -40.5v-35q-1 -9 -2.5 -14.5t-6.5 -17.5h-172v7q10 8 15 25.5t9 93.5t4 78q0 29 20 47.5t54 24.5q-45 19 -62 50t-17 79q0 82 44.5 118.5t139.5 36.5h220v-560h-159v216zM295 447q-49 0 -68.5 -9.5t-19.5 -49.5
q0 -29 12 -44.5t41 -15.5h35v119z" />
    <glyph glyph-name="OE" unicode="&#x152;" horiz-adv-x="832" 
d="M515 135h19q46 0 69 8q20 9 28 38q5 18 5 49q0 23 -4.5 42.5t-17.5 33.5q-12 10 -30 13.5t-40 3.5h-29v-188zM339 312h-122v-312h-176v750h176v-288h122v288h176v-292h55q50 0 80.5 -4t62.5 -20q54 -25 79 -88q20 -51 20 -121q0 -52 -10 -91.5t-39 -71.5
q-33 -37 -100 -52q-46 -10 -115 -10h-209v312z" />
    <glyph glyph-name="OE" unicode="&#x40a;" horiz-adv-x="832" 
d="M515 135h19q46 0 69 8q20 9 28 38q5 18 5 49q0 23 -4.5 42.5t-17.5 33.5q-12 10 -30 13.5t-40 3.5h-29v-188zM339 312h-122v-312h-176v750h176v-288h122v288h176v-292h55q50 0 80.5 -4t62.5 -20q54 -25 79 -88q20 -51 20 -121q0 -52 -10 -91.5t-39 -71.5
q-33 -37 -100 -52q-46 -10 -115 -10h-209v312z" />
    <glyph glyph-name="oe" unicode="&#x153;" horiz-adv-x="740" 
d="M454 113h9q51 0 66 7q25 12 25 53t-28 54q-17 8 -63 8h-9v-122zM295 227h-90v-227h-159v560h159v-209h90v209h159v-212h29q115 0 164 -30q65 -40 65 -150q0 -103 -64 -140q-48 -28 -160 -28h-193v227z" />
    <glyph glyph-name="oe" unicode="&#x45a;" horiz-adv-x="740" 
d="M454 113h9q51 0 66 7q25 12 25 53t-28 54q-17 8 -63 8h-9v-122zM295 227h-90v-227h-159v560h159v-209h90v209h159v-212h29q115 0 164 -30q65 -40 65 -150q0 -103 -64 -140q-48 -28 -160 -28h-193v227z" />
    <glyph glyph-name="Scaron" unicode="&#x160;" horiz-adv-x="832" 
d="M515 135h19q46 0 69 8q20 9 28 38q5 18 5 49q0 23 -4.5 42.5t-17.5 33.5q-12 10 -30 13.5t-40 3.5h-29v-188zM339 600h-94v-257q0 -133 -9 -184q-15 -85 -65 -128q-57 -49 -171 -49v150q68 0 79 80q5 36 5 131v407h431v-292h55q50 0 80.5 -4t62.5 -20q54 -25 79 -88
q20 -51 20 -121q0 -52 -10 -91.5t-39 -71.5q-33 -37 -100 -52q-46 -10 -115 -10h-209v600z" />
    <glyph glyph-name="Scaron" unicode="&#x409;" horiz-adv-x="832" 
d="M515 135h19q46 0 69 8q20 9 28 38q5 18 5 49q0 23 -4.5 42.5t-17.5 33.5q-12 10 -30 13.5t-40 3.5h-29v-188zM339 600h-94v-257q0 -133 -9 -184q-15 -85 -65 -128q-57 -49 -171 -49v150q68 0 79 80q5 36 5 131v407h431v-292h55q50 0 80.5 -4t62.5 -20q54 -25 79 -88
q20 -51 20 -121q0 -52 -10 -91.5t-39 -71.5q-33 -37 -100 -52q-46 -10 -115 -10h-209v600z" />
    <glyph glyph-name="scaron" unicode="&#x161;" horiz-adv-x="740" 
d="M454 113h9q51 0 66 7q25 12 25 53t-28 54q-17 8 -63 8h-9v-122zM295 436h-73v-180q0 -138 -31 -191q-46 -78 -186 -78v124q49 0 62 38q9 26 9 119v292h378v-212h29q115 0 164 -30q65 -40 65 -150q0 -103 -64 -140q-48 -28 -160 -28h-193v436z" />
    <glyph glyph-name="scaron" unicode="&#x459;" horiz-adv-x="740" 
d="M454 113h9q51 0 66 7q25 12 25 53t-28 54q-17 8 -63 8h-9v-122zM295 436h-73v-180q0 -138 -31 -191q-46 -78 -186 -78v124q49 0 62 38q9 26 9 119v292h378v-212h29q115 0 164 -30q65 -40 65 -150q0 -103 -64 -140q-48 -28 -160 -28h-193v436z" />
    <glyph glyph-name="Ydieresis" unicode="&#x178;" 
d="M177 0h-131v560h159v-448h90v448h159v-560h-131v-108h-146v108z" />
    <glyph glyph-name="Ydieresis" unicode="&#x45f;" 
d="M177 0h-131v560h159v-448h90v448h159v-560h-131v-108h-146v108z" />
    <glyph glyph-name="florin" unicode="&#x192;" horiz-adv-x="407" 
d="M387 560v-124h-182v-436h-159v560h341zM202 782h208l-171 -148h-137z" />
    <glyph glyph-name="florin" unicode="&#x453;" horiz-adv-x="407" 
d="M387 560v-124h-182v-436h-159v560h341zM202 782h208l-171 -148h-137z" />
    <glyph glyph-name="endash" unicode="&#x2013;" 
d="M500 253h-500v115h500v-115z" />
    <glyph glyph-name="emdash" unicode="&#x2014;" horiz-adv-x="1000" 
d="M1000 253h-1000v115h1000v-115z" />
    <glyph glyph-name="quoteleft" unicode="&#x2018;" horiz-adv-x="278" 
d="M220 768v-57q-41 0 -62.5 -26.5t-21.5 -69.5h84v-160h-158v161q0 75 41 113.5t117 38.5z" />
    <glyph glyph-name="quoteright" unicode="&#x2019;" horiz-adv-x="278" 
d="M58 437v57q41 0 62.5 26.5t21.5 69.5h-84v160h158v-161q0 -75 -41 -113.5t-117 -38.5z" />
    <glyph glyph-name="quotesinglbase" unicode="&#x201a;" horiz-adv-x="278" 
d="M60 -152v57q41 0 62.5 26.5t21.5 69.5h-84v160h158v-161q0 -75 -41 -113.5t-117 -38.5z" />
    <glyph glyph-name="quotedblleft" unicode="&#x201c;" 
d="M211 768v-57q-41 0 -62.5 -26.5t-21.5 -69.5h84v-160h-158v161q0 75 41 113.5t117 38.5zM451 768v-57q-41 0 -62.5 -26.5t-21.5 -69.5h84v-160h-158v161q0 75 41 113.5t117 38.5z" />
    <glyph glyph-name="quotedblright" unicode="&#x201d;" 
d="M289 437v57q41 0 62.5 26.5t21.5 69.5h-84v160h158v-161q0 -75 -41 -113.5t-117 -38.5zM49 437v57q41 0 62.5 26.5t21.5 69.5h-84v160h158v-161q0 -75 -41 -113.5t-117 -38.5z" />
    <glyph glyph-name="quotedblbase" unicode="&#x201e;" 
d="M292 -152v57q41 0 62.5 26.5t21.5 69.5h-84v160h158v-161q0 -75 -41 -113.5t-117 -38.5zM51 -152v57q41 0 62.5 26.5t21.5 69.5h-84v160h158v-161q0 -75 -41 -113.5t-117 -38.5z" />
    <glyph glyph-name="dagger" unicode="&#x2020;" 
d="M170 386h-141v135h141v229h159v-229h143v-135h-143v-559h-159v559z" />
    <glyph glyph-name="daggerdbl" unicode="&#x2021;" 
d="M171 -171v209h-144v135h144v222h-144v135h144v220h159v-220h142v-135h-142v-222h144v-135h-144v-209h-159z" />
    <glyph glyph-name="bullet" unicode="&#x2022;" horiz-adv-x="420" 
d="M398 375q0 -78 -55.5 -133.5t-133.5 -55.5t-132.5 55.5t-54.5 133.5q0 77 54 132t133 55q77 0 133 -55t56 -132z" />
    <glyph glyph-name="ellipsis" unicode="&#x2026;" horiz-adv-x="1000" 
d="M251 0h-169v171h169v-171zM584 0h-169v171h169v-171zM918 0h-169v171h169v-171z" />
    <glyph glyph-name="perthousand" unicode="&#x2030;" horiz-adv-x="1111" 
d="M579 750l-339 -768h-82l338 768h83zM158 752q88 0 124.5 -44.5t36.5 -141.5q0 -93 -27 -133q-36 -54 -133 -54q-89 0 -127 50q-33 44 -33 137q0 89 34 134q39 52 125 52zM158 661q-18 2 -28.5 -11.5t-10.5 -53.5q1 -20 1 -28q0 -9 -0.5 -18t-0.5 -18q0 -30 7.5 -46
t32.5 -16q24 0 33 26q6 18 6 51v21q1 20 1 31q0 27 -7 42q-10 20 -34 20zM579 369q88 0 124.5 -44.5t36.5 -141.5q0 -93 -27 -133q-36 -54 -133 -54q-89 0 -127 50q-33 44 -33 137q0 89 34 134q39 52 125 52zM579 278q-18 2 -28.5 -11.5t-10.5 -53.5q1 -20 1 -28
q0 -9 -0.5 -18t-0.5 -18q0 -30 7.5 -46t32.5 -16q24 0 33 26q6 18 6 51v21q1 20 1 31q0 27 -7 42q-10 20 -34 20zM952 369q88 0 124.5 -44.5t36.5 -141.5q0 -93 -27 -133q-36 -54 -133 -54q-89 0 -127 50q-33 44 -33 137q0 89 34 134q39 52 125 52zM952 278
q-18 2 -28.5 -11.5t-10.5 -53.5q1 -20 1 -28q0 -9 -0.5 -18t-0.5 -18q0 -30 7.5 -46t32.5 -16q24 0 33 26q6 18 6 51v21q1 20 1 31q0 27 -7 42q-10 20 -34 20z" />
    <glyph glyph-name="guilsinglleft" unicode="&#x2039;" horiz-adv-x="278" 
d="M234 123l-181 116v146l181 120v-131l-102 -63l102 -58v-130z" />
    <glyph glyph-name="guilsinglright" unicode="&#x203a;" horiz-adv-x="278" 
d="M44 123v130l102 58l-102 63v131l181 -120v-146z" />
    <glyph glyph-name="trademark" unicode="&#x2122;" horiz-adv-x="860" 
d="M858 750v-404h-93v316l-114 -316h-62l-112 316l-2 -316h-93v404h147l90 -249l92 249h147zM338 750v-88h-119v-316h-102v316h-114v88h335z" />
    </font>
</defs>
</svg>
