<?xml version="1.0" standalone="no"?>
<!DOCTYPE svg PUBLIC "-//W3C//DTD SVG 1.1//EN" "http://www.w3.org/Graphics/SVG/1.1/DTD/svg11.dtd" >
<svg>
<metadata>
Created by FontForge 20110222 at Tue Jun 17 19:17:11 2014
 By Orthosie Webhosting
Digitized data (c) 1997, 2003 Agfa Monotype Corporation. All rights reserved. SegoeTM is a trademark of Agfa Monotype Corporation.
</metadata>
<defs>
<font id="SegoeUIBold" horiz-adv-x="1111" >
  <font-face 
    font-family="SegoeUIBold"
    font-weight="700"
    font-stretch="normal"
    units-per-em="2048"
    panose-1="2 11 8 2 4 2 4 2 2 3"
    ascent="1638"
    descent="-410"
    x-height="1024"
    cap-height="1434"
    bbox="-794 -578 2970 2188"
    underline-thickness="119"
    underline-position="-119"
    unicode-range="U+000D-FE23"
  />
<missing-glyph horiz-adv-x="1322" 
d="M166 0v1398h990v-1398h-990zM314 148h694v1102h-694v-1102z" />
    <glyph glyph-name=".notdef" horiz-adv-x="1322" 
d="M166 0v1398h990v-1398h-990zM314 148h694v1102h-694v-1102z" />
    <glyph glyph-name=".null" horiz-adv-x="0" 
 />
    <glyph glyph-name="nonmarkingreturn" horiz-adv-x="100" 
 />
    <glyph glyph-name="null" unicode="&#xd;" horiz-adv-x="0" 
 />
    <glyph glyph-name="space" unicode=" " horiz-adv-x="565" 
 />
    <glyph glyph-name="exclam" unicode="!" horiz-adv-x="670" 
d="M500 1434l-39 -988h-256l-37 988h332zM336 -23q-80 0 -132 48.5t-52 117.5q0 72 52.5 118t131.5 46q80 0 131 -46.5t51 -117.5q0 -72 -50.5 -119t-131.5 -47z" />
    <glyph glyph-name="quotedbl" unicode="&#x22;" horiz-adv-x="1010" 
d="M834 1452l-31 -444h-201l-31 444h263zM438 1452l-30 -442h-203l-29 442h262z" />
    <glyph glyph-name="numbersign" unicode="#" horiz-adv-x="1213" 
d="M1176 1069l-39 -180h-185l-55 -248h207l-45 -180h-199l-78 -346h-200l73 346h-229l-74 -346h-200l71 346h-186l37 180h188l53 248h-202l34 180h205l74 356h205l-74 -356h229l76 356h203l-74 -356h185zM750 889h-232l-55 -248h231z" />
    <glyph glyph-name="dollar" unicode="$" horiz-adv-x="1178" 
d="M674 8v-217h-146v211q-203 1 -378 92v277q58 -47 173 -87t205 -46v364q-234 87 -319.5 188.5t-85.5 247.5q0 157 111 267.5t294 128.5v186h146v-182q211 -10 315 -68v-270q-140 85 -315 104v-379q219 -79 314 -180.5t95 -245.5q0 -166 -106 -267.5t-303 -123.5zM528 883
v317q-139 -25 -139 -145q0 -103 139 -172zM674 545v-303q143 22 143 143q0 98 -143 160z" />
    <glyph glyph-name="percent" unicode="%" horiz-adv-x="1776" 
d="M430 707q-153 0 -246.5 97t-93.5 261q0 179 99.5 284t265.5 105q159 0 248.5 -95t89.5 -267q0 -177 -99 -281t-264 -104zM449 1278q-146 0 -146 -203q0 -192 139 -192q142 0 142 200q0 195 -135 195zM1477 1434l-934 -1434h-244l932 1434h246zM1323 -20q-153 0 -246.5 97
t-93.5 261q0 179 99.5 284t265.5 105q160 0 249 -94t89 -266q0 -177 -99 -282t-264 -105zM1339 551q-145 0 -145 -203q0 -192 141 -192q142 0 142 200q0 93 -38 144t-100 51z" />
    <glyph glyph-name="ampersand" unicode="&#x26;" horiz-adv-x="1485" 
d="M1483 -2h-361l-108 121q-78 -64 -199.5 -104t-241.5 -40q-229 0 -359 107.5t-130 288.5q0 239 328 411q-146 175 -146 326q0 154 116.5 252t303.5 98q180 0 285.5 -89t105.5 -226q0 -123 -68 -210t-231 -167l271 -293q75 122 75 297h256q0 -283 -176 -475zM819 1122
q0 57 -40.5 96t-92.5 39q-69 0 -112.5 -38.5t-43.5 -104.5q0 -75 121 -209q168 93 168 217zM866 281q-68 73 -323 354q-162 -87 -162 -236q0 -95 64.5 -150.5t158.5 -55.5q156 0 262 88z" />
    <glyph glyph-name="quotesingle" unicode="'" horiz-adv-x="600" 
d="M430 1452l-31 -442h-200l-29 442h260z" />
    <glyph glyph-name="parenleft" unicode="(" horiz-adv-x="756" 
d="M739 -326h-258q-323 356 -323 875q0 501 323 885h256q-303 -402 -303 -885t305 -875z" />
    <glyph glyph-name="parenright" unicode=")" horiz-adv-x="756" 
d="M274 -326h-256q306 390 306 875q0 481 -306 885h258q324 -385 324 -885q0 -515 -326 -875z" />
    <glyph glyph-name="asterisk" unicode="*" horiz-adv-x="932" 
d="M864 1053l-274 -37l196 -211l-182 -125l-137 254l-137 -254l-183 125l197 211l-274 37l71 202l252 -108l-43 287h234l-43 -287l250 108z" />
    <glyph glyph-name="plus" unicode="+" horiz-adv-x="1448" 
d="M1212 485h-385v-385h-202v385h-387v203h387v387h202v-387h385v-203z" />
    <glyph glyph-name="comma" unicode="," horiz-adv-x="555" 
d="M432 252l-147 -506h-246l102 506h291z" />
    <glyph glyph-name="hyphen" unicode="-" horiz-adv-x="828" 
d="M690 436h-547v221h547v-221z" />
    <glyph glyph-name="period" unicode="." horiz-adv-x="555" 
d="M274 -25q-78 0 -130 48t-52 118q0 72 53.5 118t133.5 46q81 0 132.5 -46.5t51.5 -117.5q0 -73 -52.5 -119.5t-136.5 -46.5z" />
    <glyph glyph-name="slash" unicode="/" horiz-adv-x="908" 
d="M932 1434l-699 -1672h-282l696 1672h285z" />
    <glyph glyph-name="zero" unicode="0" horiz-adv-x="1178" 
d="M582 -25q-512 0 -512 719q0 373 138.5 568.5t401.5 195.5q500 0 500 -731q0 -364 -136.5 -558t-391.5 -194zM596 1217q-205 0 -205 -515q0 -485 201 -485q196 0 196 500t-192 500z" />
    <glyph glyph-name="one" unicode="1" horiz-adv-x="1178" 
d="M1077 0h-907v250h297v893l-305 -66v256l620 125v-1208h295v-250z" />
    <glyph glyph-name="two" unicode="2" horiz-adv-x="1178" 
d="M471 268v-6h582v-262h-944v246l411 393q124 119 174.5 199.5t50.5 169.5q0 198 -213 198q-185 0 -354 -147v278q187 121 422 121q220 0 343.5 -110.5t123.5 -298.5q0 -251 -301 -519z" />
    <glyph glyph-name="three" unicode="3" horiz-adv-x="1178" 
d="M147 47v275q144 -105 336 -105q121 0 188.5 52t67.5 145q0 96 -83.5 148t-229.5 52h-129v242h119q280 0 280 186q0 175 -215 175q-144 0 -280 -93v258q151 76 352 76q220 0 342.5 -99t122.5 -257q0 -281 -285 -352v-5q152 -19 240 -110.5t88 -224.5q0 -201 -147 -318
t-406 -117q-222 0 -361 72z" />
    <glyph glyph-name="four" unicode="4" horiz-adv-x="1178" 
d="M1124 305h-172v-305h-288v305h-625v201l602 928h311v-904h172v-225zM668 1118h-6q-14 -36 -54 -112l-307 -476h363v451q0 60 4 137z" />
    <glyph glyph-name="five" unicode="5" horiz-adv-x="1178" 
d="M164 37v270q147 -90 313 -90q125 0 195.5 59.5t70.5 161.5q0 213 -301 213q-98 0 -237 -18v801h794v-258h-524v-287q63 6 119 6q221 0 346 -116t125 -312q0 -217 -149 -354.5t-404 -137.5q-207 0 -348 62z" />
    <glyph glyph-name="six" unicode="6" horiz-adv-x="1178" 
d="M1008 1419v-264q-109 62 -238 62q-159 0 -256.5 -121.5t-101.5 -325.5h6q103 152 301 152q180 0 285.5 -122t105.5 -323q0 -216 -140 -359t-356 -143q-242 0 -378 175t-136 491q0 372 175 594.5t475 222.5q166 0 258 -39zM612 688q-87 0 -138.5 -61t-51.5 -156
q0 -105 52.5 -179.5t139.5 -74.5q85 0 136 66.5t51 173.5q0 231 -189 231z" />
    <glyph glyph-name="seven" unicode="7" horiz-adv-x="1178" 
d="M1094 1288l-506 -1288h-334l510 1176h-668v258h998v-146z" />
    <glyph glyph-name="eight" unicode="8" horiz-adv-x="1178" 
d="M371 745v5q-246 101 -246 327q0 166 132 273.5t341 107.5q213 0 340 -100.5t127 -259.5q0 -235 -272 -346v-4q146 -43 226.5 -141.5t80.5 -221.5q0 -190 -140.5 -300t-392.5 -110q-218 0 -351.5 107.5t-133.5 284.5q0 257 289 378zM768 1071q0 73 -46.5 116.5
t-123.5 43.5q-75 0 -124.5 -45.5t-49.5 -116.5q0 -134 172 -203q172 71 172 205zM582 625q-201 -79 -201 -242q0 -78 61.5 -129t149.5 -51q95 0 153 50t58 132q0 164 -221 240z" />
    <glyph glyph-name="nine" unicode="9" horiz-adv-x="1178" 
d="M160 31v260q113 -74 272 -74q166 0 256.5 112.5t91.5 319.5l-6 2q-95 -141 -289 -141q-176 0 -291.5 123t-115.5 319q0 229 141 367.5t365 138.5q230 0 366.5 -174t136.5 -498q0 -384 -164.5 -597.5t-459.5 -213.5q-175 0 -303 56zM575 1217q-82 0 -135 -66.5t-53 -171.5
q0 -109 52.5 -171.5t142.5 -62.5q82 0 134 59.5t52 149.5q0 113 -54.5 188t-138.5 75z" />
    <glyph glyph-name="colon" unicode=":" horiz-adv-x="555" 
d="M274 707q-78 0 -130 47.5t-52 117.5q0 72 53.5 118t133.5 46q81 0 132.5 -46.5t51.5 -117.5q0 -73 -52.5 -119t-136.5 -46zM274 -25q-78 0 -130 48t-52 118q0 72 53.5 118t133.5 46q81 0 132.5 -46.5t51.5 -117.5q0 -73 -52.5 -119.5t-136.5 -46.5z" />
    <glyph glyph-name="semicolon" unicode=";" horiz-adv-x="555" 
d="M281 707q-79 0 -131 48t-52 117q0 73 52.5 118.5t132.5 45.5q81 0 132.5 -46.5t51.5 -117.5q0 -73 -51 -119t-135 -46zM432 252l-147 -506h-246l102 506h291z" />
    <glyph glyph-name="less" unicode="&#x3c;" horiz-adv-x="1448" 
d="M1192 63l-934 426v162l934 447v-238l-666 -285v-6l666 -268v-238z" />
    <glyph glyph-name="equal" unicode="=" horiz-adv-x="1448" 
d="M1212 700h-974v205h974v-205zM1212 266h-974v203h974v-203z" />
    <glyph glyph-name="greater" unicode="&#x3e;" horiz-adv-x="1448" 
d="M1192 502l-934 -426v237l668 267v4l-668 286v238l934 -444v-162z" />
    <glyph glyph-name="question" unicode="?" horiz-adv-x="897" 
d="M524 428h-260v84q0 183 144 303q98 83 126.5 131.5t28.5 106.5q0 62 -46 102.5t-120 40.5q-165 0 -313 -131v301q153 92 346 92q215 0 332 -97t117 -265q0 -207 -209 -379q-81 -67 -113.5 -113.5t-32.5 -120.5v-55zM401 -23q-80 0 -133 48.5t-53 117.5q0 71 53 117.5
t133 46.5t131.5 -46.5t51.5 -117.5q0 -72 -51 -119t-132 -47z" />
    <glyph glyph-name="at" unicode="@" horiz-adv-x="1954" 
d="M1122 371h-6q-70 -191 -254 -191q-138 0 -222.5 100t-84.5 277q0 229 117 372.5t282 143.5q149 0 187 -117h4l10 99h225q-45 -426 -45 -557q0 -140 76 -140q80 0 132 106t52 277q0 234 -149 383.5t-416 149.5q-286 0 -475.5 -199.5t-189.5 -486.5q0 -278 167.5 -438
t462.5 -160q225 0 412 86v-191q-171 -73 -440 -73q-369 0 -600.5 211.5t-231.5 568.5q0 364 247 612t636 248q360 0 582.5 -192.5t222.5 -507.5q0 -259 -136 -415.5t-337 -156.5q-99 0 -161 53t-67 138zM989 899q-90 0 -146.5 -102.5t-56.5 -237.5q0 -96 38.5 -149.5
t99.5 -53.5q94 0 148 101t54 270q0 80 -37.5 126t-99.5 46z" />
    <glyph glyph-name="A" unicode="A" horiz-adv-x="1440" 
d="M1425 0h-352l-102 319h-510l-101 -319h-350l522 1434h383zM897 567l-154 482q-17 54 -24 129h-8q-5 -63 -25 -125l-156 -486h367z" />
    <glyph glyph-name="B" unicode="B" horiz-adv-x="1313" 
d="M164 0v1434h522q240 0 369 -88t129 -248q0 -116 -78.5 -203t-200.5 -121v-4q153 -19 244.5 -113t91.5 -229q0 -197 -141 -312.5t-385 -115.5h-551zM487 1196v-340h142q100 0 157.5 48.5t57.5 133.5q0 158 -236 158h-121zM487 616v-378h175q112 0 175.5 52t63.5 142
q0 86 -62.5 135t-174.5 49h-177z" />
    <glyph glyph-name="C" unicode="C" horiz-adv-x="1278" 
d="M1192 51q-157 -76 -410 -76q-330 0 -519 194t-189 517q0 344 212.5 558t551.5 214q210 0 354 -53v-311q-144 86 -328 86q-202 0 -326 -127t-124 -344q0 -208 117 -331.5t315 -123.5q189 0 346 92v-295z" />
    <glyph glyph-name="D" unicode="D" horiz-adv-x="1510" 
d="M164 0v1434h508q764 0 764 -699q0 -335 -208.5 -535t-555.5 -200h-508zM487 1171v-909h160q210 0 329.5 126t119.5 343q0 205 -118.5 322.5t-332.5 117.5h-158z" />
    <glyph glyph-name="E" unicode="E" horiz-adv-x="1090" 
d="M1024 0h-860v1434h827v-263h-504v-319h469v-262h-469v-328h537v-262z" />
    <glyph glyph-name="F" unicode="F" horiz-adv-x="1065" 
d="M993 1171h-506v-352h465v-262h-465v-557h-323v1434h829v-263z" />
    <glyph glyph-name="G" unicode="G" horiz-adv-x="1456" 
d="M1341 96q-210 -121 -522 -121q-346 0 -545.5 191.5t-199.5 527.5q0 338 218 551t580 213q228 0 402 -63v-303q-166 96 -406 96q-201 0 -327.5 -130.5t-126.5 -348.5q0 -221 113.5 -342t306.5 -121q116 0 184 33v280h-287v258h610v-721z" />
    <glyph glyph-name="H" unicode="H" horiz-adv-x="1569" 
d="M1405 0h-324v584h-594v-584h-323v1434h323v-572h594v572h324v-1434z" />
    <glyph glyph-name="I" unicode="I" horiz-adv-x="649" 
d="M487 0h-323v1434h323v-1434z" />
    <glyph glyph-name="J" unicode="J" horiz-adv-x="912" 
d="M762 569q0 -288 -133.5 -441t-386.5 -153q-113 0 -209 39v303q83 -63 186 -63q221 0 221 328v852h322v-865z" />
    <glyph glyph-name="K" unicode="K" horiz-adv-x="1329" 
d="M1356 0h-408l-418 623q-12 18 -38 79h-5v-702h-323v1434h323v-678h5q12 28 40 80l396 598h385l-500 -684z" />
    <glyph glyph-name="L" unicode="L" horiz-adv-x="1047" 
d="M1018 0h-854v1434h323v-1172h531v-262z" />
    <glyph glyph-name="M" unicode="M" horiz-adv-x="1960" 
d="M1798 0h-319v858q0 139 12 307h-8q-25 -132 -45 -190l-336 -975h-264l-342 965q-14 39 -45 200h-9q13 -212 13 -372v-793h-291v1434h473l293 -850q35 -102 51 -205h6q27 119 57 207l293 848h461v-1434z" />
    <glyph glyph-name="N" unicode="N" horiz-adv-x="1618" 
d="M1454 0h-326l-591 901q-52 79 -72 119h-4q8 -76 8 -232v-788h-305v1434h348l569 -873q39 -59 72 -117h4q-8 50 -8 197v793h305v-1434z" />
    <glyph glyph-name="O" unicode="O" horiz-adv-x="1553" 
d="M770 -25q-308 0 -502 200.5t-194 522.5q0 340 197 550t522 210q307 0 496.5 -201t189.5 -530q0 -338 -196.5 -545t-512.5 -207zM784 1180q-170 0 -270 -127.5t-100 -337.5q0 -213 100 -337t262 -124q167 0 265 120.5t98 334.5q0 223 -95 347t-260 124z" />
    <glyph glyph-name="P" unicode="P" horiz-adv-x="1258" 
d="M487 494v-494h-323v1434h506q542 0 542 -457q0 -216 -155.5 -349.5t-415.5 -133.5h-154zM487 1186v-447h127q258 0 258 226q0 221 -258 221h-127z" />
    <glyph glyph-name="Q" unicode="Q" horiz-adv-x="1553" 
d="M1040 27l416 -385h-420l-297 333q-294 10 -479.5 209t-185.5 514q0 340 196.5 550t524.5 210q305 0 494.5 -201.5t189.5 -529.5q0 -258 -115.5 -441.5t-323.5 -258.5zM784 1180q-170 0 -270 -127.5t-100 -337.5q0 -213 99.5 -337t262.5 -124q167 0 265 120.5t98 334.5
q0 220 -94 345.5t-261 125.5z" />
    <glyph glyph-name="R" unicode="R" horiz-adv-x="1303" 
d="M1266 0h-371l-145 369q-71 180 -193 180h-70v-549h-323v1434h512q522 0 522 -390q0 -149 -85.5 -252t-238.5 -143v-4q126 -40 205 -221zM487 1192v-399h140q104 0 167.5 60.5t63.5 150.5q0 188 -225 188h-146z" />
    <glyph glyph-name="S" unicode="S" horiz-adv-x="1098" 
d="M106 55v320q172 -146 379 -146q99 0 154 40.5t55 105.5q0 56 -46 105.5t-220 131.5q-328 155 -328 420q0 193 142.5 309.5t380.5 116.5q210 0 348 -55v-299q-144 100 -330 100q-93 0 -147 -40t-54 -105q0 -64 42.5 -109t179.5 -110q212 -101 292 -201t80 -236
q0 -198 -142.5 -313t-414.5 -115q-223 0 -371 80z" />
    <glyph glyph-name="T" unicode="T" horiz-adv-x="1200" 
d="M1171 1171h-409v-1171h-324v1171h-407v263h1140v-263z" />
    <glyph glyph-name="U" unicode="U" horiz-adv-x="1481" 
d="M1333 621q0 -646 -602 -646q-584 0 -584 631v828h324v-832q0 -348 272 -348q267 0 267 336v844h323v-813z" />
    <glyph glyph-name="V" unicode="V" horiz-adv-x="1366" 
d="M1358 1434l-494 -1434h-366l-488 1434h348l299 -998q24 -81 29 -143h6q7 67 31 147l297 994h338z" />
    <glyph glyph-name="W" unicode="W" horiz-adv-x="2058" 
d="M2040 1434l-379 -1434h-358l-238 920q-19 72 -23 161h-4q-9 -98 -26 -161l-244 -920h-373l-377 1434h353l202 -955q13 -61 19 -164h6q4 77 29 168l260 951h346l235 -963q13 -53 23 -154h4q4 79 21 160l198 957h326z" />
    <glyph glyph-name="X" unicode="X" horiz-adv-x="1342" 
d="M1335 0h-383l-247 467q-14 26 -29 96h-4q-7 -33 -33 -100l-248 -463h-385l457 717l-418 717h393l205 -430q24 -51 43 -121h4q12 42 45 125l228 426h360l-430 -711z" />
    <glyph glyph-name="Y" unicode="Y" horiz-adv-x="1243" 
d="M1245 1434l-467 -924v-510h-323v504l-455 930h369l231 -535q6 -15 33 -117h4q13 72 31 113l235 539h342z" />
    <glyph glyph-name="Z" unicode="Z" horiz-adv-x="1243" 
d="M1196 0h-1155v186l735 985h-682v263h1100v-181l-719 -991h721v-262z" />
    <glyph glyph-name="bracketleft" unicode="[" horiz-adv-x="756" 
d="M686 -326h-469v1760h469v-201h-209v-1358h209v-201z" />
    <glyph glyph-name="backslash" unicode="\" horiz-adv-x="893" 
d="M961 -238h-279l-682 1672h281z" />
    <glyph glyph-name="bracketright" unicode="]" horiz-adv-x="756" 
d="M541 -326h-471v201h211v1358h-211v201h471v-1760z" />
    <glyph glyph-name="asciicircum" unicode="^" horiz-adv-x="1448" 
d="M1249 610h-243l-287 586h-4l-271 -586h-241l430 848h162z" />
    <glyph glyph-name="underscore" unicode="_" horiz-adv-x="850" 
d="M850 -297h-850v119h850v-119z" />
    <glyph glyph-name="grave" unicode="`" horiz-adv-x="643" 
d="M596 1186h-227l-314 323h281z" />
    <glyph glyph-name="a" unicode="a" horiz-adv-x="1102" 
d="M985 0h-299v147h-4q-103 -172 -305 -172q-149 0 -234.5 84.5t-85.5 225.5q0 298 353 344l278 37q0 168 -182 168q-183 0 -348 -109v238q66 34 180.5 60t208.5 26q438 0 438 -437v-612zM688 416v69l-186 -24q-154 -20 -154 -139q0 -54 37.5 -88.5t101.5 -34.5
q89 0 145 61.5t56 155.5z" />
    <glyph glyph-name="b" unicode="b" horiz-adv-x="1270" 
d="M453 119h-4v-119h-316v1516h316v-646h4q117 179 333 179q198 0 305 -136t107 -372q0 -256 -125 -411t-334 -155q-189 0 -286 144zM444 551v-105q0 -99 57 -164t146 -65q108 0 167.5 83.5t59.5 236.5q0 127 -54.5 198.5t-155.5 71.5q-95 0 -157.5 -71t-62.5 -185z" />
    <glyph glyph-name="c" unicode="c" horiz-adv-x="983" 
d="M909 37q-107 -62 -309 -62q-236 0 -382 143t-146 369q0 261 156.5 411.5t418.5 150.5q181 0 262 -48v-268q-99 74 -221 74q-136 0 -215.5 -79.5t-79.5 -219.5q0 -136 76 -213.5t209 -77.5q118 0 231 74v-254z" />
    <glyph glyph-name="d" unicode="d" horiz-adv-x="1268" 
d="M1135 0h-316v141h-4q-108 -166 -317 -166q-192 0 -309 135.5t-117 378.5q0 254 129 407t338 153q198 0 276 -142h4v609h316v-1516zM825 498v77q0 100 -58 166t-151 66q-105 0 -164 -82.5t-59 -226.5q0 -135 57 -208t158 -73q96 0 156.5 77t60.5 204z" />
    <glyph glyph-name="e" unicode="e" horiz-adv-x="1108" 
d="M1053 422h-668q16 -223 281 -223q169 0 297 80v-228q-142 -76 -369 -76q-248 0 -385 137.5t-137 383.5q0 255 148 404t364 149q224 0 346.5 -133t122.5 -361v-133zM760 616q0 220 -178 220q-76 0 -131.5 -63t-67.5 -157h377z" />
    <glyph glyph-name="f" unicode="f" horiz-adv-x="785" 
d="M801 1274q-61 24 -117 24q-152 0 -152 -165v-109h234v-233h-234v-791h-315v791h-172v233h172v127q0 175 114 282t310 107q96 0 160 -20v-246z" />
    <glyph glyph-name="g" unicode="g" horiz-adv-x="1268" 
d="M1137 117q0 -285 -165 -441.5t-478 -156.5q-207 0 -328 59v266q158 -92 319 -92q160 0 248 84.5t88 229.5v81h-4q-108 -172 -319 -172q-196 0 -311 138t-115 370q0 260 128 413t337 153q187 0 280 -144h4v119h316v-907zM825 492v81q0 97 -57.5 165.5t-149.5 68.5
q-105 0 -165 -82t-60 -231q0 -128 57 -202.5t156 -74.5q98 0 158.5 75.5t60.5 199.5z" />
    <glyph glyph-name="h" unicode="h" horiz-adv-x="1233" 
d="M1116 0h-315v582q0 225 -164 225q-84 0 -136 -63t-52 -160v-584h-316v1516h316v-644h4q116 177 315 177q348 0 348 -420v-629z" />
    <glyph glyph-name="i" unicode="i" horiz-adv-x="582" 
d="M293 1186q-80 0 -131 47.5t-51 116.5q0 71 51 116t131 45q81 0 131.5 -45t50.5 -116q0 -72 -50.5 -118t-131.5 -46zM449 0h-316v1024h316v-1024z" />
    <glyph glyph-name="j" unicode="j" horiz-adv-x="582" 
d="M293 1186q-80 0 -131 47.5t-51 116.5q0 71 51 116t131 45q81 0 131.5 -45t50.5 -116q0 -72 -50.5 -118t-131.5 -46zM449 18q0 -227 -111 -363t-320 -136q-69 0 -151 30v248q66 -37 117 -37q149 0 149 234v1030h316v-1006z" />
    <glyph glyph-name="k" unicode="k" horiz-adv-x="1145" 
d="M1159 0h-379l-327 508h-4v-508h-316v1516h316v-965h4l305 473h375l-367 -481z" />
    <glyph glyph-name="l" unicode="l" horiz-adv-x="582" 
d="M449 0h-316v1516h316v-1516z" />
    <glyph glyph-name="m" unicode="m" horiz-adv-x="1876" 
d="M1759 0h-315v584q0 223 -164 223q-78 0 -127 -67t-49 -167v-573h-316v590q0 217 -161 217q-81 0 -129.5 -64t-48.5 -174v-569h-316v1024h316v-160h4q49 82 137.5 133.5t193.5 51.5q217 0 297 -191q117 191 344 191q334 0 334 -412v-637z" />
    <glyph glyph-name="n" unicode="n" horiz-adv-x="1239" 
d="M1122 0h-315v569q0 238 -170 238q-82 0 -135 -63t-53 -160v-584h-316v1024h316v-162h4q113 187 329 187q340 0 340 -422v-627z" />
    <glyph glyph-name="o" unicode="o" horiz-adv-x="1252" 
d="M621 -25q-256 0 -402.5 143.5t-146.5 389.5q0 254 152 397.5t411 143.5q255 0 400 -143.5t145 -379.5q0 -255 -149.5 -403t-409.5 -148zM629 807q-112 0 -174 -77t-62 -218q0 -295 238 -295q227 0 227 303q0 287 -229 287z" />
    <glyph glyph-name="p" unicode="p" horiz-adv-x="1270" 
d="M453 119h-4v-590h-316v1495h316v-154h4q117 179 329 179q199 0 307.5 -136.5t108.5 -371.5q0 -256 -126.5 -411t-336.5 -155q-185 0 -282 144zM444 539v-82q0 -106 56 -173t147 -67q108 0 167.5 83.5t59.5 236.5q0 270 -210 270q-97 0 -158.5 -73.5t-61.5 -194.5z" />
    <glyph glyph-name="q" unicode="q" horiz-adv-x="1268" 
d="M1135 -471h-316v612h-4q-107 -166 -315 -166q-193 0 -310.5 134.5t-117.5 377.5q0 256 129 409t336 153q188 0 278 -144h4v119h316v-1495zM825 489v82q0 100 -58 168t-149 68q-105 0 -165 -82.5t-60 -228.5q0 -131 58.5 -205t152.5 -74q100 0 160.5 75t60.5 197z" />
    <glyph glyph-name="r" unicode="r" horiz-adv-x="815" 
d="M801 739q-57 31 -133 31q-103 0 -161 -75.5t-58 -205.5v-489h-316v1024h316v-190h4q75 208 270 208q50 0 78 -12v-291z" />
    <glyph glyph-name="s" unicode="s" horiz-adv-x="901" 
d="M94 27v256q156 -93 293 -93q150 0 150 93q0 41 -36 67t-157 72q-140 53 -195 123.5t-55 177.5q0 148 117 237t313 89q127 0 254 -41v-244q-119 70 -250 70q-125 0 -125 -86q0 -43 30 -70t130 -62q153 -54 215 -125.5t62 -177.5q0 -155 -118.5 -246.5t-330.5 -91.5
q-159 0 -297 52z" />
    <glyph glyph-name="t" unicode="t" horiz-adv-x="797" 
d="M752 12q-70 -37 -211 -37q-334 0 -334 347v469h-166v233h166v221l315 90v-311h230v-233h-230v-414q0 -160 127 -160q50 0 103 29v-234z" />
    <glyph glyph-name="u" unicode="u" horiz-adv-x="1239" 
d="M1106 0h-315v156h-5q-117 -181 -313 -181q-356 0 -356 431v618h315v-590q0 -217 172 -217q85 0 136 59.5t51 161.5v586h315v-1024z" />
    <glyph glyph-name="v" unicode="v" horiz-adv-x="1110" 
d="M1108 1024l-381 -1024h-360l-363 1024h338l178 -631q30 -107 35 -182h4q7 71 37 176l182 637h330z" />
    <glyph glyph-name="w" unicode="w" horiz-adv-x="1633" 
d="M1616 1024l-295 -1024h-332l-151 600q-15 60 -17 131h-6q-7 -78 -20 -127l-162 -604h-328l-289 1024h322l141 -668q10 -47 15 -114h6q5 70 18 118l176 664h301l158 -668q6 -25 14 -116h7q5 58 16 116l133 668h293z" />
    <glyph glyph-name="x" unicode="x" horiz-adv-x="1131" 
d="M1122 1024l-338 -496l336 -528h-364l-148 276q-18 33 -43 93h-4q-15 -42 -41 -90l-149 -279h-363l346 510l-325 514h366l146 -287q29 -57 41 -96h4q16 47 43 98l149 285h344z" />
    <glyph glyph-name="y" unicode="y" horiz-adv-x="1102" 
d="M1108 1024l-416 -1106q-150 -399 -452 -399q-115 0 -189 26v252q63 -37 137 -37q122 0 170 115l54 127l-416 1022h350l191 -623q18 -58 28 -137h4q9 58 33 135l193 625h313z" />
    <glyph glyph-name="z" unicode="z" horiz-adv-x="981" 
d="M944 0h-919v131l514 660h-463v233h864v-156l-487 -635h491v-233z" />
    <glyph glyph-name="braceleft" unicode="{" horiz-adv-x="756" 
d="M674 -326q-218 0 -317 80t-99 285v240q0 184 -152 184v184q152 0 152 191v223q0 206 98 289.5t318 83.5v-187q-160 0 -160 -174v-213q0 -240 -154 -303v-4q154 -62 154 -307v-205q0 -98 37.5 -139t122.5 -41v-187z" />
    <glyph glyph-name="bar" unicode="|" horiz-adv-x="668" 
d="M461 -481h-252v2048h252v-2048z" />
    <glyph glyph-name="braceright" unicode="}" horiz-adv-x="756" 
d="M651 463q-153 0 -153 -187v-231q0 -211 -97.5 -291t-316.5 -80v187q84 0 122 40.5t38 137.5v213q0 239 153 299v4q-153 63 -153 313v205q0 174 -160 174v187q218 0 316 -83.5t98 -285.5v-229q0 -189 153 -189v-184z" />
    <glyph glyph-name="asciitilde" unicode="~" horiz-adv-x="1448" 
d="M1255 772q-6 -168 -89.5 -266t-223.5 -98q-106 0 -258 88q-109 63 -156 63q-123 0 -129 -160h-204q6 169 89.5 267t227.5 98q112 0 238 -76q130 -78 180 -78q52 0 85.5 44.5t35.5 117.5h204z" />
    <glyph glyph-name="nonbreakingspace" unicode="&#xa0;" horiz-adv-x="565" 
 />
    <glyph glyph-name="exclamdown" unicode="&#xa1;" horiz-adv-x="670" 
d="M336 721q-81 0 -132.5 46t-51.5 116q0 72 51.5 119t132.5 47q79 0 130.5 -48t51.5 -118q0 -72 -51.5 -117t-130.5 -45zM504 -408h-332l37 990h256z" />
    <glyph glyph-name="cent" unicode="&#xa2;" horiz-adv-x="1178" 
d="M1004 207q-73 -42 -181 -55v-189h-161v184q-216 12 -354 151.5t-138 358.5q0 234 134 381.5t358 171.5v211h161v-207q110 -6 181 -45v-272q-76 58 -181 70v-574q108 17 181 68v-254zM662 399v559q-195 -59 -195 -280q0 -222 195 -279z" />
    <glyph glyph-name="sterling" unicode="&#xa3;" horiz-adv-x="1178" 
d="M1114 0h-971v227q193 52 193 269v116h-172v217h172v187q0 198 122 320t330 122q127 0 234 -49v-258q-98 66 -209 66q-184 0 -184 -230v-158h268v-217h-268v-86q0 -184 -152 -284h637v-242z" />
    <glyph glyph-name="currency" unicode="&#xa4;" horiz-adv-x="1139" 
d="M1087 358l-141 -145l-143 141q-105 -65 -234 -65q-127 0 -233 65l-143 -141l-142 145l142 138q-66 110 -66 229q0 121 66 229l-142 140l142 145l143 -141q106 65 233 65q129 0 234 -65l143 141l141 -145l-141 -140q68 -111 68 -229q0 -115 -68 -229zM569 965
q-100 0 -169.5 -69.5t-69.5 -168.5t69.5 -168.5t169.5 -69.5t171 69.5t71 168.5q0 98 -73 168t-169 70z" />
    <glyph glyph-name="yen" unicode="&#xa5;" horiz-adv-x="1178" 
d="M1157 1434l-354 -641h252v-189h-305v-153h305v-189h-305v-262h-308v262h-315v189h315v153h-315v189h256l-342 641h321l246 -570h4q4 11 37 90l203 480h305z" />
    <glyph glyph-name="brokenbar" unicode="&#xa6;" horiz-adv-x="668" 
d="M461 684h-252v883h252v-883zM461 -481h-252v895h252v-895z" />
    <glyph glyph-name="section" unicode="&#xa7;" horiz-adv-x="994" 
d="M752 434q82 -75 82 -174q0 -149 -108.5 -237.5t-285.5 -88.5q-163 0 -290 68v248q180 -105 311 -105q127 0 127 99q0 61 -96 108q-141 65 -210 112.5t-110 116.5t-41 150q0 143 125 234q-88 88 -88 215q0 140 102.5 225.5t274.5 85.5q139 0 260 -55v-250q-139 96 -260 96
q-123 0 -123 -94q0 -45 40.5 -77.5t184.5 -96.5q254 -112 254 -309q0 -167 -149 -271zM432 864q-65 -38 -65 -110q0 -57 51 -102t178 -99q66 44 66 123q0 62 -53.5 100.5t-176.5 87.5z" />
    <glyph glyph-name="dieresis" unicode="&#xa8;" horiz-adv-x="946" 
d="M698 1186q-67 0 -110 39t-43 98q0 61 43 99t110 38t110.5 -38.5t43.5 -98.5t-43 -98.5t-111 -38.5zM240 1186q-68 0 -111 39.5t-43 97.5q0 60 44 98.5t110 38.5q68 0 110.5 -38.5t42.5 -98.5q0 -61 -42.5 -99t-110.5 -38z" />
    <glyph glyph-name="copyright" unicode="&#xa9;" horiz-adv-x="1790" 
d="M893 -25q-333 0 -547.5 207t-214.5 531q0 317 220.5 531t549.5 214q328 0 544 -208.5t216 -532.5q0 -317 -221.5 -529.5t-546.5 -212.5zM897 1346q-275 0 -454 -180t-179 -449q0 -272 181.5 -450.5t451.5 -178.5q265 0 448 179.5t183 447.5q0 272 -180 451.5t-451 179.5z
M1204 295q-125 -68 -274 -68q-209 0 -346.5 134t-137.5 335q0 231 143.5 370.5t373.5 139.5q125 0 239 -55v-236q-98 76 -244 76q-115 0 -192.5 -76.5t-77.5 -205.5q0 -122 78.5 -197.5t198.5 -75.5q141 0 239 76v-217z" />
    <glyph glyph-name="ordfeminine" unicode="&#xaa;" horiz-adv-x="840" 
d="M739 717h-213v86h-4q-87 -107 -219 -107q-101 0 -166 61t-65 158q0 211 262 244l192 25q0 114 -139 114q-118 0 -246 -77v176q124 57 287 57q311 0 311 -299v-438zM526 985v70l-123 -17q-116 -16 -116 -96q0 -88 104 -88q54 0 94.5 38.5t40.5 92.5z" />
    <glyph glyph-name="guillemotleft" unicode="&#xab;" horiz-adv-x="1190" 
d="M1137 201h-269l-327 336l327 344h269l-334 -344zM651 201h-268l-330 336l330 344h266l-334 -344z" />
    <glyph glyph-name="logicalnot" unicode="&#xac;" horiz-adv-x="1448" 
d="M1212 266h-202v389h-772v203h974v-592z" />
    <glyph glyph-name="sfthyphen" unicode="&#xad;" horiz-adv-x="819" 
d="M690 506h-547v129h547v-129z" />
    <glyph glyph-name="registered" unicode="&#xae;" horiz-adv-x="1790" 
d="M893 -25q-333 0 -547.5 207t-214.5 531q0 317 220.5 531t549.5 214q328 0 544 -208.5t216 -532.5q0 -317 -221.5 -529.5t-546.5 -212.5zM897 1346q-275 0 -454 -180t-179 -449q0 -272 181.5 -450.5t451.5 -178.5q265 0 448 179.5t183 447.5q0 272 -180 451.5t-451 179.5z
M1288 264h-254l-76 232q-40 122 -110 122h-74v-354h-211v922h320q370 0 370 -262q0 -189 -217 -244v-4q90 -20 142 -146zM774 1010v-230h111q139 0 139 119q0 111 -160 111h-90z" />
    <glyph glyph-name="uni00AF" unicode="&#xaf;" horiz-adv-x="425" 
d="M425 698h-425v60h425v-60z" />
    <glyph glyph-name="degree" unicode="&#xb0;" horiz-adv-x="778" 
d="M399 895q-119 0 -201.5 82.5t-82.5 200.5t82.5 199t201.5 81q118 0 201.5 -81t83.5 -199t-83.5 -200.5t-201.5 -82.5zM399 1307q-54 0 -91.5 -37.5t-37.5 -91.5t37.5 -92.5t91.5 -38.5q53 0 91 38.5t38 92.5t-37.5 91.5t-91.5 37.5z" />
    <glyph glyph-name="plusminus" unicode="&#xb1;" horiz-adv-x="1448" 
d="M1212 694h-385v-387h-202v387h-383v203h383v391h202v-391h385v-203zM1210 0h-972v203h972v-203z" />
    <glyph glyph-name="twosuperior" unicode="&#xb2;" horiz-adv-x="828" 
d="M721 584h-604v157l248 234q77 73 95.5 110t18.5 82q0 42 -28.5 69.5t-75.5 27.5q-98 0 -211 -103v215q118 78 250 78q136 0 215.5 -68.5t79.5 -189.5q0 -70 -37.5 -141t-179.5 -197l-105 -92v-4h334v-178z" />
    <glyph glyph-name="threesuperior" unicode="&#xb3;" horiz-adv-x="828" 
d="M131 616v181q107 -68 221 -68q150 0 150 102q0 103 -172 103h-117v166h113q149 0 149 96q0 90 -119 90q-107 0 -198 -65v176q99 57 239 57q134 0 211.5 -60.5t77.5 -160.5q0 -147 -143 -195v-4q172 -41 172 -198q0 -123 -98 -198t-257 -75q-133 0 -229 53z" />
    <glyph glyph-name="acute" unicode="&#xb4;" horiz-adv-x="621" 
d="M596 1509l-313 -323h-228l260 323h281z" />
    <glyph glyph-name="mu1" unicode="&#xb5;" horiz-adv-x="1255" 
d="M1161 0h-324q-25 70 -25 154h-4q-57 -177 -216 -177q-97 0 -140 64h-3v-436h-316v1419h316v-589q0 -207 170 -207q184 0 184 254v542h319v-710q0 -236 39 -314z" />
    <glyph glyph-name="paragraph" unicode="&#xb6;" horiz-adv-x="1043" 
d="M946 1272h-117v-1272h-174v1272h-118v-1272h-177v836q-115 7 -191.5 92t-76.5 211q0 129 85.5 212t211.5 83h557v-162z" />
    <glyph glyph-name="periodcentered" unicode="&#xb7;" horiz-adv-x="555" 
d="M274 487q-78 0 -130 48t-52 118q0 72 53.5 118t133.5 46q81 0 132.5 -46.5t51.5 -117.5q0 -73 -52.5 -119.5t-136.5 -46.5z" />
    <glyph glyph-name="cedilla" unicode="&#xb8;" horiz-adv-x="441" 
d="M51 -451v138q35 -6 72 -6q123 0 123 73q0 66 -111 66q-13 0 -37 -2v182h172v-82q187 -8 187 -166q0 -207 -318 -207q-46 0 -88 4z" />
    <glyph glyph-name="onesuperior" unicode="&#xb9;" horiz-adv-x="807" 
d="M721 584h-563v172h176v477l-191 -41v180l406 82v-698h172v-172z" />
    <glyph glyph-name="ordmasculine" unicode="&#xba;" horiz-adv-x="934" 
d="M459 696q-185 0 -287 99.5t-102 277.5q0 179 108.5 280t292.5 101q181 0 284 -101.5t103 -265.5q0 -184 -106.5 -287.5t-292.5 -103.5zM465 1280q-164 0 -164 -203q0 -207 164 -207q160 0 160 209q0 201 -160 201z" />
    <glyph glyph-name="guillemotright" unicode="&#xbb;" horiz-adv-x="1190" 
d="M1137 537l-328 -336h-268l333 336l-331 344h266zM651 537l-329 -336h-269l336 336l-334 344h267z" />
    <glyph glyph-name="onequarter" unicode="&#xbc;" horiz-adv-x="1950" 
d="M676 584h-563v172h176v477l-191 -41v180l406 82v-698h172v-172zM1505 1434l-891 -1434h-244l891 1434h244zM1845 176h-110v-176h-213v176h-395v141l350 533h258v-519h110v-155zM1526 678h-8q-14 -36 -39 -76l-168 -271h211v263q0 47 4 84z" />
    <glyph glyph-name="onehalf" unicode="&#xbd;" horiz-adv-x="1977" 
d="M676 584h-563v172h176v477l-191 -41v180l406 82v-698h172v-172zM1506 1434l-891 -1434h-244l891 1434h244zM1843 0h-604v157l248 234q77 73 95.5 110t18.5 82q0 42 -28.5 69.5t-75.5 27.5q-98 0 -211 -103v215q118 78 250 78q136 0 215.5 -68.5t79.5 -189.5
q0 -70 -37.5 -141t-179.5 -197l-105 -92v-4h334v-178z" />
    <glyph glyph-name="threequarters" unicode="&#xbe;" horiz-adv-x="2005" 
d="M131 616v181q107 -68 221 -68q150 0 150 102q0 103 -172 103h-117v166h113q149 0 149 96q0 90 -119 90q-107 0 -198 -65v176q99 57 239 57q134 0 211.5 -60.5t77.5 -160.5q0 -147 -143 -195v-4q172 -41 172 -198q0 -123 -98 -198t-257 -75q-133 0 -229 53zM1565 1434
l-891 -1434h-244l891 1434h244zM1892 176h-110v-176h-213v176h-395v141l350 533h258v-519h110v-155zM1573 678h-8q-14 -36 -39 -76l-168 -271h211v263q0 47 4 84z" />
    <glyph glyph-name="questiondown" unicode="&#xbf;" horiz-adv-x="897" 
d="M510 721q-81 0 -132.5 45.5t-51.5 116.5q0 72 51.5 119t132.5 47q80 0 132 -48.5t52 -117.5q0 -72 -52 -117t-132 -45zM825 -340q-153 -92 -346 -92q-215 0 -331.5 97t-116.5 265q0 208 209 379q80 65 112.5 112t32.5 122v55h260v-84q0 -183 -143 -303
q-100 -84 -128 -132t-28 -106q0 -62 46 -102.5t120 -40.5q166 0 313 131v-301z" />
    <glyph glyph-name="Agrave" unicode="&#xc0;" horiz-adv-x="1440" 
d="M1425 0h-352l-102 319h-510l-101 -319h-350l522 1434h383zM897 567l-154 482q-17 54 -24 129h-8q-5 -63 -25 -125l-156 -486h367zM916 1567h-227l-314 323h281z" />
    <glyph glyph-name="Aacute" unicode="&#xc1;" horiz-adv-x="1440" 
d="M1425 0h-352l-102 319h-510l-101 -319h-350l522 1434h383zM897 567l-154 482q-17 54 -24 129h-8q-5 -63 -25 -125l-156 -486h367zM1036 1890l-313 -323h-228l260 323h281z" />
    <glyph glyph-name="Acircumflex" unicode="&#xc2;" horiz-adv-x="1440" 
d="M1425 0h-352l-102 319h-510l-101 -319h-350l522 1434h383zM897 567l-154 482q-17 54 -24 129h-8q-5 -63 -25 -125l-156 -486h367zM1078 1567h-207l-158 188l-147 -188h-207l235 325h248z" />
    <glyph glyph-name="Atilde" unicode="&#xc3;" horiz-adv-x="1440" 
d="M1425 0h-352l-102 319h-510l-101 -319h-350l522 1434h383zM897 567l-154 482q-17 54 -24 129h-8q-5 -63 -25 -125l-156 -486h367zM1077 1878q0 -140 -55.5 -216.5t-151.5 -76.5q-86 0 -168 43q-89 47 -123 47q-80 0 -80 -108h-141q0 139 55 216t154 77q81 0 168 -49
q79 -44 120 -44q78 0 78 111h144z" />
    <glyph glyph-name="Adieresis" unicode="&#xc4;" horiz-adv-x="1440" 
d="M1425 0h-352l-102 319h-510l-101 -319h-350l522 1434h383zM897 567l-154 482q-17 54 -24 129h-8q-5 -63 -25 -125l-156 -486h367zM945 1567q-67 0 -110 39t-43 98q0 61 43 99t110 38t110.5 -38.5t43.5 -98.5t-43 -98.5t-111 -38.5zM487 1567q-68 0 -111 39.5t-43 97.5
q0 60 44 98.5t110 38.5q68 0 110.5 -38.5t42.5 -98.5q0 -61 -42.5 -99t-110.5 -38z" />
    <glyph glyph-name="Aring" unicode="&#xc5;" horiz-adv-x="1440" 
d="M1425 0h-352l-102 319h-510l-101 -319h-350l512 1407q-53 54 -53 137q0 106 73.5 169t180.5 63q114 0 184 -63.5t70 -164.5q0 -80 -53 -137zM719 1645q-47 0 -75 -28.5t-28 -70.5q0 -98 103 -98q48 0 77 28.5t29 69.5q0 43 -29.5 71t-76.5 28zM893 584l-152 465
q-13 40 -22 120h-8q-7 -68 -23 -116l-153 -469h358z" />
    <glyph glyph-name="AE" unicode="&#xc6;" horiz-adv-x="1915" 
d="M1849 0h-858v319h-471l-147 -319h-375l725 1434h1094v-263h-504v-319h469v-262h-469v-328h536v-262zM991 567v604h-78l-282 -604h360z" />
    <glyph glyph-name="Ccedilla" unicode="&#xc7;" horiz-adv-x="1278" 
d="M1192 51q-139 -67 -363 -76v-57q187 -8 187 -166q0 -207 -318 -207q-46 0 -88 4v138q35 -6 72 -6q123 0 123 73q0 66 -111 66q-13 0 -37 -2v166q-275 36 -429 224t-154 478q0 344 212.5 558t551.5 214q210 0 354 -53v-311q-144 86 -328 86q-202 0 -326 -127t-124 -344
q0 -208 117 -331.5t315 -123.5q189 0 346 92v-295z" />
    <glyph glyph-name="Egrave" unicode="&#xc8;" horiz-adv-x="1090" 
d="M1024 0h-860v1434h827v-263h-504v-319h469v-262h-469v-328h537v-262zM766 1567h-227l-314 323h281z" />
    <glyph glyph-name="Eacute" unicode="&#xc9;" horiz-adv-x="1090" 
d="M1024 0h-860v1434h827v-263h-504v-319h469v-262h-469v-328h537v-262zM934 1890l-313 -323h-228l260 323h281z" />
    <glyph glyph-name="Ecircumflex" unicode="&#xca;" horiz-adv-x="1090" 
d="M1024 0h-860v1434h827v-263h-504v-319h469v-262h-469v-328h537v-262zM932 1567h-207l-158 188l-147 -188h-207l235 325h248z" />
    <glyph glyph-name="Edieresis" unicode="&#xcb;" horiz-adv-x="1090" 
d="M1024 0h-860v1434h827v-263h-504v-319h469v-262h-469v-328h537v-262zM812 1567q-67 0 -110 39t-43 98q0 61 43 99t110 38t110.5 -38.5t43.5 -98.5t-43 -98.5t-111 -38.5zM354 1567q-68 0 -111 39.5t-43 97.5q0 60 44 98.5t110 38.5q68 0 110.5 -38.5t42.5 -98.5
q0 -61 -42.5 -99t-110.5 -38z" />
    <glyph glyph-name="Igrave" unicode="&#xcc;" horiz-adv-x="649" 
d="M487 0h-323v1434h323v-1434zM532 1567h-227l-314 323h281z" />
    <glyph glyph-name="Iacute" unicode="&#xcd;" horiz-adv-x="649" 
d="M487 0h-323v1434h323v-1434zM651 1890l-313 -323h-228l260 323h281z" />
    <glyph glyph-name="Icircumflex" unicode="&#xce;" horiz-adv-x="649" 
d="M487 0h-323v1434h323v-1434zM691 1567h-207l-158 188l-147 -188h-207l235 325h248z" />
    <glyph glyph-name="Idieresis" unicode="&#xcf;" horiz-adv-x="649" 
d="M487 0h-323v1434h323v-1434zM559 1567q-67 0 -110 39t-43 98q0 61 43 99t110 38t110.5 -38.5t43.5 -98.5t-43 -98.5t-111 -38.5zM101 1567q-68 0 -111 39.5t-43 97.5q0 60 44 98.5t110 38.5q68 0 110.5 -38.5t42.5 -98.5q0 -61 -42.5 -99t-110.5 -38z" />
    <glyph glyph-name="Eth" unicode="&#xd0;" horiz-adv-x="1510" 
d="M164 0v586h-164v266h164v582h508q764 0 764 -699q0 -335 -208.5 -535t-555.5 -200h-508zM487 1171v-319h271v-266h-271v-324h160q210 0 329.5 126t119.5 343q0 205 -118.5 322.5t-332.5 117.5h-158z" />
    <glyph glyph-name="Ntilde" unicode="&#xd1;" horiz-adv-x="1618" 
d="M1454 0h-326l-591 901q-52 79 -72 119h-4q8 -76 8 -232v-788h-305v1434h348l569 -873q39 -59 72 -117h4q-8 50 -8 197v793h305v-1434zM1206 1878q0 -140 -55.5 -216.5t-151.5 -76.5q-86 0 -168 43q-89 47 -123 47q-80 0 -80 -108h-141q0 139 55 216t154 77q81 0 168 -49
q79 -44 120 -44q78 0 78 111h144z" />
    <glyph glyph-name="Ograve" unicode="&#xd2;" horiz-adv-x="1552" 
d="M770 -25q-308 0 -502 200.5t-194 522.5q0 340 197 550t522 210q307 0 496.5 -201t189.5 -530q0 -338 -196.5 -545t-512.5 -207zM784 1180q-170 0 -270 -127.5t-100 -337.5q0 -213 100 -337t262 -124q167 0 265 120.5t98 334.5q0 223 -95 347t-260 124zM971 1567h-227
l-314 323h281z" />
    <glyph glyph-name="Oacute" unicode="&#xd3;" horiz-adv-x="1552" 
d="M770 -25q-308 0 -502 200.5t-194 522.5q0 340 197 550t522 210q307 0 496.5 -201t189.5 -530q0 -338 -196.5 -545t-512.5 -207zM784 1180q-170 0 -270 -127.5t-100 -337.5q0 -213 100 -337t262 -124q167 0 265 120.5t98 334.5q0 223 -95 347t-260 124zM1110 1890
l-313 -323h-228l260 323h281z" />
    <glyph glyph-name="Ocircumflex" unicode="&#xd4;" horiz-adv-x="1552" 
d="M770 -25q-308 0 -502 200.5t-194 522.5q0 340 197 550t522 210q307 0 496.5 -201t189.5 -530q0 -338 -196.5 -545t-512.5 -207zM784 1180q-170 0 -270 -127.5t-100 -337.5q0 -213 100 -337t262 -124q167 0 265 120.5t98 334.5q0 223 -95 347t-260 124zM1149 1567h-207
l-158 188l-147 -188h-207l235 325h248z" />
    <glyph glyph-name="Otilde" unicode="&#xd5;" horiz-adv-x="1552" 
d="M770 -25q-308 0 -502 200.5t-194 522.5q0 340 197 550t522 210q307 0 496.5 -201t189.5 -530q0 -338 -196.5 -545t-512.5 -207zM784 1180q-170 0 -270 -127.5t-100 -337.5q0 -213 100 -337t262 -124q167 0 265 120.5t98 334.5q0 223 -95 347t-260 124zM1147 1878
q0 -140 -55.5 -216.5t-151.5 -76.5q-86 0 -168 43q-89 47 -123 47q-80 0 -80 -108h-141q0 139 55 216t154 77q81 0 168 -49q79 -44 120 -44q78 0 78 111h144z" />
    <glyph glyph-name="Odieresis" unicode="&#xd6;" horiz-adv-x="1552" 
d="M770 -25q-308 0 -502 200.5t-194 522.5q0 340 197 550t522 210q307 0 496.5 -201t189.5 -530q0 -338 -196.5 -545t-512.5 -207zM784 1180q-170 0 -270 -127.5t-100 -337.5q0 -213 100 -337t262 -124q167 0 265 120.5t98 334.5q0 223 -95 347t-260 124zM1004 1567
q-67 0 -110 39t-43 98q0 61 43 99t110 38t110.5 -38.5t43.5 -98.5t-43 -98.5t-111 -38.5zM546 1567q-68 0 -111 39.5t-43 97.5q0 60 44 98.5t110 38.5q68 0 110.5 -38.5t42.5 -98.5q0 -61 -42.5 -99t-110.5 -38z" />
    <glyph glyph-name="multiply" unicode="&#xd7;" horiz-adv-x="1448" 
d="M1210 248l-145 -144l-338 340l-340 -340l-145 146l340 336l-340 340l141 145l344 -340l342 340l139 -151l-338 -334z" />
    <glyph glyph-name="Oslash" unicode="&#xd8;" horiz-adv-x="1553" 
d="M348 109l-143 -170l-125 104l149 176q-155 192 -155 479q0 340 196.5 550t522.5 210q234 0 401 -119l129 150l125 -103l-135 -157q166 -196 166 -502q0 -338 -196.5 -545t-512.5 -207q-240 0 -422 134zM1016 1130q-97 76 -232 76q-181 0 -287 -136.5t-106 -360.5
q0 -146 47 -252zM1110 995l-578 -676q101 -92 244 -92q175 0 281 128.5t106 351.5q0 164 -53 288z" />
    <glyph glyph-name="Ugrave" unicode="&#xd9;" horiz-adv-x="1481" 
d="M1333 621q0 -646 -602 -646q-584 0 -584 631v828h324v-832q0 -348 272 -348q267 0 267 336v844h323v-813zM920 1567h-227l-314 323h281z" />
    <glyph glyph-name="Uacute" unicode="&#xda;" horiz-adv-x="1481" 
d="M1333 621q0 -646 -602 -646q-584 0 -584 631v828h324v-832q0 -348 272 -348q267 0 267 336v844h323v-813zM1088 1890l-313 -323h-228l260 323h281z" />
    <glyph glyph-name="Ucircumflex" unicode="&#xdb;" horiz-adv-x="1481" 
d="M1333 621q0 -646 -602 -646q-584 0 -584 631v828h324v-832q0 -348 272 -348q267 0 267 336v844h323v-813zM1099 1567h-207l-158 188l-147 -188h-207l235 325h248z" />
    <glyph glyph-name="Udieresis" unicode="&#xdc;" horiz-adv-x="1481" 
d="M1333 621q0 -646 -602 -646q-584 0 -584 631v828h324v-832q0 -348 272 -348q267 0 267 336v844h323v-813zM969 1567q-67 0 -110 39t-43 98q0 61 43 99t110 38t110.5 -38.5t43.5 -98.5t-43 -98.5t-111 -38.5zM511 1567q-68 0 -111 39.5t-43 97.5q0 60 44 98.5t110 38.5
q68 0 110.5 -38.5t42.5 -98.5q0 -61 -42.5 -99t-110.5 -38z" />
    <glyph glyph-name="Yacute" unicode="&#xdd;" horiz-adv-x="1243" 
d="M1245 1434l-467 -924v-510h-323v504l-455 930h369l231 -535q6 -15 33 -117h4q13 72 31 113l235 539h342zM903 1857l-313 -323h-228l260 323h281z" />
    <glyph glyph-name="Thorn" unicode="&#xde;" horiz-adv-x="1258" 
d="M487 281v-281h-323v1434h323v-211h183q542 0 542 -457q0 -216 -155.5 -350.5t-415.5 -134.5h-154zM487 975v-447h127q258 0 258 226q0 221 -258 221h-127z" />
    <glyph glyph-name="germandbls" unicode="&#xdf;" horiz-adv-x="1286" 
d="M545 8v262q83 -53 176 -53q83 0 132.5 52.5t49.5 144.5q0 116 -89 183.5t-251 72.5v221q111 8 172.5 68t61.5 159q0 84 -44.5 132t-119.5 48q-184 0 -184 -245v-1053h-316v1049q0 223 137 357t381 134q217 0 343 -109.5t126 -281.5q0 -122 -71.5 -214t-184.5 -126v-4
q363 -69 363 -399q0 -180 -126.5 -305.5t-342.5 -125.5q-105 0 -213 33z" />
    <glyph glyph-name="agrave" unicode="&#xe0;" horiz-adv-x="1102" 
d="M985 0h-299v147h-4q-103 -172 -305 -172q-149 0 -234.5 84.5t-85.5 225.5q0 298 353 344l278 37q0 168 -182 168q-183 0 -348 -109v238q66 34 180.5 60t208.5 26q438 0 438 -437v-612zM688 416v69l-186 -24q-154 -20 -154 -139q0 -54 37.5 -88.5t101.5 -34.5
q89 0 145 61.5t56 155.5zM775 1186h-227l-314 323h281z" />
    <glyph glyph-name="aacute" unicode="&#xe1;" horiz-adv-x="1102" 
d="M985 0h-299v147h-4q-103 -172 -305 -172q-149 0 -234.5 84.5t-85.5 225.5q0 298 353 344l278 37q0 168 -182 168q-183 0 -348 -109v238q66 34 180.5 60t208.5 26q438 0 438 -437v-612zM688 416v69l-186 -24q-154 -20 -154 -139q0 -54 37.5 -88.5t101.5 -34.5
q89 0 145 61.5t56 155.5zM891 1509l-313 -323h-228l260 323h281z" />
    <glyph glyph-name="acircumflex" unicode="&#xe2;" horiz-adv-x="1102" 
d="M985 0h-299v147h-4q-103 -172 -305 -172q-149 0 -234.5 84.5t-85.5 225.5q0 298 353 344l278 37q0 168 -182 168q-183 0 -348 -109v238q66 34 180.5 60t208.5 26q438 0 438 -437v-612zM688 416v69l-186 -24q-154 -20 -154 -139q0 -54 37.5 -88.5t101.5 -34.5
q89 0 145 61.5t56 155.5zM914 1186h-207l-158 188l-147 -188h-207l235 325h248z" />
    <glyph glyph-name="atilde" unicode="&#xe3;" horiz-adv-x="1102" 
d="M985 0h-299v147h-4q-103 -172 -305 -172q-149 0 -234.5 84.5t-85.5 225.5q0 298 353 344l278 37q0 168 -182 168q-183 0 -348 -109v238q66 34 180.5 60t208.5 26q438 0 438 -437v-612zM688 416v69l-186 -24q-154 -20 -154 -139q0 -54 37.5 -88.5t101.5 -34.5
q89 0 145 61.5t56 155.5zM907 1497q0 -140 -55.5 -216.5t-151.5 -76.5q-86 0 -168 43q-89 47 -123 47q-80 0 -80 -108h-141q0 139 55 216t154 77q81 0 168 -49q79 -44 120 -44q78 0 78 111h144z" />
    <glyph glyph-name="adieresis" unicode="&#xe4;" horiz-adv-x="1102" 
d="M985 0h-299v147h-4q-103 -172 -305 -172q-149 0 -234.5 84.5t-85.5 225.5q0 298 353 344l278 37q0 168 -182 168q-183 0 -348 -109v238q66 34 180.5 60t208.5 26q438 0 438 -437v-612zM688 416v69l-186 -24q-154 -20 -154 -139q0 -54 37.5 -88.5t101.5 -34.5
q89 0 145 61.5t56 155.5zM787 1186q-67 0 -110 39t-43 98q0 61 43 99t110 38t110.5 -38.5t43.5 -98.5t-43 -98.5t-111 -38.5zM329 1186q-68 0 -111 39.5t-43 97.5q0 60 44 98.5t110 38.5q68 0 110.5 -38.5t42.5 -98.5q0 -61 -42.5 -99t-110.5 -38z" />
    <glyph glyph-name="aring" unicode="&#xe5;" horiz-adv-x="1102" 
d="M985 0h-299v147h-4q-103 -172 -305 -172q-149 0 -234.5 84.5t-85.5 225.5q0 298 353 344l278 37q0 168 -182 168q-183 0 -348 -109v238q66 34 180.5 60t208.5 26q438 0 438 -437v-612zM688 416v69l-186 -24q-154 -20 -154 -139q0 -54 37.5 -88.5t101.5 -34.5
q89 0 145 61.5t56 155.5zM573 1186q-102 0 -168.5 59.5t-66.5 155.5q0 101 69.5 161t170.5 60q107 0 173 -59.5t66 -155.5q0 -98 -71.5 -159.5t-172.5 -61.5zM573 1499q-96 0 -96 -94t96 -94q45 0 74 27.5t29 66.5q0 41 -28.5 67.5t-74.5 26.5z" />
    <glyph glyph-name="ae" unicode="&#xe6;" horiz-adv-x="1696" 
d="M1640 422h-667q20 -223 282 -223q160 0 297 80v-226q-156 -78 -378 -78q-269 0 -398 179h-4q-141 -179 -362 -179q-166 0 -259.5 82.5t-93.5 229.5q0 146 96.5 234t276.5 102l256 20q0 191 -184 191q-174 0 -344 -107v236q187 86 370 86q234 0 324 -134h4
q132 134 326 134q214 0 336 -133t122 -365v-129zM1348 616q0 220 -177 220q-75 0 -131.5 -62t-66.5 -158h375zM686 414v45l-156 -13q-184 -15 -184 -131q0 -50 39 -83t102 -33q86 0 142.5 59.5t56.5 155.5z" />
    <glyph glyph-name="ccedilla" unicode="&#xe7;" horiz-adv-x="983" 
d="M909 37q-96 -55 -264 -62v-57q186 -7 186 -166q0 -207 -317 -207q-46 0 -88 4v138q35 -6 72 -6q123 0 123 73q0 66 -111 66q-13 0 -37 -2v170q-184 37 -292.5 172.5t-108.5 326.5q0 261 156.5 411.5t418.5 150.5q181 0 262 -48v-268q-99 74 -221 74q-136 0 -215.5 -79.5
t-79.5 -219.5q0 -136 76 -213.5t209 -77.5q118 0 231 74v-254z" />
    <glyph glyph-name="egrave" unicode="&#xe8;" horiz-adv-x="1108" 
d="M1053 422h-668q16 -223 281 -223q169 0 297 80v-228q-142 -76 -369 -76q-248 0 -385 137.5t-137 383.5q0 255 148 404t364 149q224 0 346.5 -133t122.5 -361v-133zM760 616q0 220 -178 220q-76 0 -131.5 -63t-67.5 -157h377zM795 1186h-227l-314 323h281z" />
    <glyph glyph-name="eacute" unicode="&#xe9;" horiz-adv-x="1108" 
d="M1053 422h-668q16 -223 281 -223q169 0 297 80v-228q-142 -76 -369 -76q-248 0 -385 137.5t-137 383.5q0 255 148 404t364 149q224 0 346.5 -133t122.5 -361v-133zM760 616q0 220 -178 220q-76 0 -131.5 -63t-67.5 -157h377zM921 1509l-313 -323h-228l260 323h281z" />
    <glyph glyph-name="ecircumflex" unicode="&#xea;" horiz-adv-x="1108" 
d="M1053 422h-668q16 -223 281 -223q169 0 297 80v-228q-142 -76 -369 -76q-248 0 -385 137.5t-137 383.5q0 255 148 404t364 149q224 0 346.5 -133t122.5 -361v-133zM760 616q0 220 -178 220q-76 0 -131.5 -63t-67.5 -157h377zM949 1186h-207l-158 188l-147 -188h-207
l235 325h248z" />
    <glyph glyph-name="edieresis" unicode="&#xeb;" horiz-adv-x="1108" 
d="M1053 422h-668q16 -223 281 -223q169 0 297 80v-228q-142 -76 -369 -76q-248 0 -385 137.5t-137 383.5q0 255 148 404t364 149q224 0 346.5 -133t122.5 -361v-133zM760 616q0 220 -178 220q-76 0 -131.5 -63t-67.5 -157h377zM808 1186q-67 0 -110 39t-43 98q0 61 43 99
t110 38t110.5 -38.5t43.5 -98.5t-43 -98.5t-111 -38.5zM350 1186q-68 0 -111 39.5t-43 97.5q0 60 44 98.5t110 38.5q68 0 110.5 -38.5t42.5 -98.5q0 -61 -42.5 -99t-110.5 -38z" />
    <glyph glyph-name="igrave" unicode="&#xec;" horiz-adv-x="582" 
d="M449 0h-316v1024h316v-1024zM514 1186h-227l-314 323h281z" />
    <glyph glyph-name="iacute" unicode="&#xed;" horiz-adv-x="582" 
d="M449 0h-316v1024h316v-1024zM612 1509l-313 -323h-228l260 323h281z" />
    <glyph glyph-name="icircumflex" unicode="&#xee;" horiz-adv-x="582" 
d="M449 0h-316v1024h316v-1024zM657 1186h-207l-158 188l-147 -188h-207l235 325h248z" />
    <glyph glyph-name="idieresis" unicode="&#xef;" horiz-adv-x="582" 
d="M449 0h-316v1024h316v-1024zM526 1186q-67 0 -110 39t-43 98q0 61 43 99t110 38t110.5 -38.5t43.5 -98.5t-43 -98.5t-111 -38.5zM68 1186q-68 0 -111 39.5t-43 97.5q0 60 44 98.5t110 38.5q68 0 110.5 -38.5t42.5 -98.5q0 -61 -42.5 -99t-110.5 -38z" />
    <glyph glyph-name="eth" unicode="&#xf0;" horiz-adv-x="1215" 
d="M756 965l4 2q-84 147 -195 237l-291 -143l-81 141l241 115q-157 125 -270 199h352q11 -6 131 -97l273 133l77 -137l-215 -104q361 -291 361 -748q0 -260 -150 -424t-395 -164q-248 0 -387 144.5t-139 394.5q0 231 132.5 378.5t346.5 147.5q117 0 205 -75zM612 807
q-103 0 -161 -78.5t-58 -214.5q0 -140 57 -218.5t158 -78.5q98 0 155.5 81.5t57.5 221.5q0 287 -209 287z" />
    <glyph glyph-name="ntilde" unicode="&#xf1;" horiz-adv-x="1239" 
d="M1122 0h-315v569q0 238 -170 238q-82 0 -135 -63t-53 -160v-584h-316v1024h316v-162h4q113 187 329 187q340 0 340 -422v-627zM982 1497q0 -140 -55.5 -216.5t-151.5 -76.5q-86 0 -168 43q-89 47 -123 47q-80 0 -80 -108h-141q0 139 55 216t154 77q81 0 168 -49
q79 -44 120 -44q78 0 78 111h144z" />
    <glyph glyph-name="ograve" unicode="&#xf2;" horiz-adv-x="1251" 
d="M621 -25q-256 0 -402.5 143.5t-146.5 389.5q0 254 152 397.5t411 143.5q255 0 400 -143.5t145 -379.5q0 -255 -149.5 -403t-409.5 -148zM629 807q-112 0 -174 -77t-62 -218q0 -295 238 -295q227 0 227 303q0 287 -229 287zM852 1186h-227l-314 323h281z" />
    <glyph glyph-name="oacute" unicode="&#xf3;" horiz-adv-x="1251" 
d="M621 -25q-256 0 -402.5 143.5t-146.5 389.5q0 254 152 397.5t411 143.5q255 0 400 -143.5t145 -379.5q0 -255 -149.5 -403t-409.5 -148zM629 807q-112 0 -174 -77t-62 -218q0 -295 238 -295q227 0 227 303q0 287 -229 287zM968 1509l-313 -323h-228l260 323h281z" />
    <glyph glyph-name="ocircumflex" unicode="&#xf4;" horiz-adv-x="1251" 
d="M621 -25q-256 0 -402.5 143.5t-146.5 389.5q0 254 152 397.5t411 143.5q255 0 400 -143.5t145 -379.5q0 -255 -149.5 -403t-409.5 -148zM629 807q-112 0 -174 -77t-62 -218q0 -295 238 -295q227 0 227 303q0 287 -229 287zM988 1186h-207l-158 188l-147 -188h-207
l235 325h248z" />
    <glyph glyph-name="otilde" unicode="&#xf5;" horiz-adv-x="1251" 
d="M621 -25q-256 0 -402.5 143.5t-146.5 389.5q0 254 152 397.5t411 143.5q255 0 400 -143.5t145 -379.5q0 -255 -149.5 -403t-409.5 -148zM629 807q-112 0 -174 -77t-62 -218q0 -295 238 -295q227 0 227 303q0 287 -229 287zM985 1497q0 -140 -55.5 -216.5t-151.5 -76.5
q-86 0 -168 43q-89 47 -123 47q-80 0 -80 -108h-141q0 139 55 216t154 77q81 0 168 -49q79 -44 120 -44q78 0 78 111h144z" />
    <glyph glyph-name="odieresis" unicode="&#xf6;" horiz-adv-x="1251" 
d="M621 -25q-256 0 -402.5 143.5t-146.5 389.5q0 254 152 397.5t411 143.5q255 0 400 -143.5t145 -379.5q0 -255 -149.5 -403t-409.5 -148zM629 807q-112 0 -174 -77t-62 -218q0 -295 238 -295q227 0 227 303q0 287 -229 287zM859 1186q-67 0 -110 39t-43 98q0 61 43 99
t110 38t110.5 -38.5t43.5 -98.5t-43 -98.5t-111 -38.5zM401 1186q-68 0 -111 39.5t-43 97.5q0 60 44 98.5t110 38.5q68 0 110.5 -38.5t42.5 -98.5q0 -61 -42.5 -99t-110.5 -38z" />
    <glyph glyph-name="divide" unicode="&#xf7;" horiz-adv-x="1448" 
d="M731 846q-59 0 -100 40t-41 97q0 62 39.5 103.5t101.5 41.5t99.5 -40t37.5 -103q0 -61 -40.5 -100t-96.5 -39zM1212 485h-974v203h974v-203zM727 47q-59 0 -100 39t-41 96q0 62 39.5 104t101.5 42t99.5 -40.5t37.5 -103.5q0 -61 -40 -99t-97 -38z" />
    <glyph glyph-name="oslash" unicode="&#xf8;" horiz-adv-x="1252" 
d="M1206 1010l-139 -146q113 -143 113 -338q0 -259 -148 -404t-411 -145q-198 0 -328 86l-135 -141l-119 107l137 143q-104 141 -104 338q0 253 152.5 397t412.5 144q179 0 311 -82l139 147zM772 791q-56 40 -141 40q-258 0 -258 -317q0 -73 18 -121zM862 651l-393 -409
q61 -45 160 -45q252 0 252 323q0 74 -19 131z" />
    <glyph glyph-name="ugrave" unicode="&#xf9;" horiz-adv-x="1239" 
d="M1106 0h-315v156h-5q-117 -181 -313 -181q-356 0 -356 431v618h315v-590q0 -217 172 -217q85 0 136 59.5t51 161.5v586h315v-1024zM784 1186h-227l-314 323h281z" />
    <glyph glyph-name="uacute" unicode="&#xfa;" horiz-adv-x="1239" 
d="M1106 0h-315v156h-5q-117 -181 -313 -181q-356 0 -356 431v618h315v-590q0 -217 172 -217q85 0 136 59.5t51 161.5v586h315v-1024zM977 1509l-313 -323h-228l260 323h281z" />
    <glyph glyph-name="ucircumflex" unicode="&#xfb;" horiz-adv-x="1239" 
d="M1106 0h-315v156h-5q-117 -181 -313 -181q-356 0 -356 431v618h315v-590q0 -217 172 -217q85 0 136 59.5t51 161.5v586h315v-1024zM970 1186h-207l-158 188l-147 -188h-207l235 325h248z" />
    <glyph glyph-name="udieresis" unicode="&#xfc;" horiz-adv-x="1239" 
d="M1106 0h-315v156h-5q-117 -181 -313 -181q-356 0 -356 431v618h315v-590q0 -217 172 -217q85 0 136 59.5t51 161.5v586h315v-1024zM844 1186q-67 0 -110 39t-43 98q0 61 43 99t110 38t110.5 -38.5t43.5 -98.5t-43 -98.5t-111 -38.5zM386 1186q-68 0 -111 39.5t-43 97.5
q0 60 44 98.5t110 38.5q68 0 110.5 -38.5t42.5 -98.5q0 -61 -42.5 -99t-110.5 -38z" />
    <glyph glyph-name="yacute" unicode="&#xfd;" horiz-adv-x="1102" 
d="M1108 1024l-416 -1106q-150 -399 -452 -399q-115 0 -189 26v252q63 -37 137 -37q122 0 170 115l54 127l-416 1022h350l191 -623q18 -58 28 -137h4q9 58 33 135l193 625h313zM834 1509l-313 -323h-228l260 323h281z" />
    <glyph glyph-name="thorn" unicode="&#xfe;" horiz-adv-x="1270" 
d="M453 119h-4v-590h-316v1987h316v-646h4q117 179 329 179q199 0 307.5 -136.5t108.5 -371.5q0 -256 -126.5 -411t-336.5 -155q-185 0 -282 144zM444 539v-82q0 -106 56 -173t147 -67q108 0 167.5 83.5t59.5 236.5q0 270 -210 270q-97 0 -158.5 -73.5t-61.5 -194.5z" />
    <glyph glyph-name="ydieresis" unicode="&#xff;" horiz-adv-x="1102" 
d="M1108 1024l-416 -1106q-150 -399 -452 -399q-115 0 -189 26v252q63 -37 137 -37q122 0 170 115l54 127l-416 1022h350l191 -623q18 -58 28 -137h4q9 58 33 135l193 625h313zM793 1186q-67 0 -110 39t-43 98q0 61 43 99t110 38t110.5 -38.5t43.5 -98.5t-43 -98.5
t-111 -38.5zM335 1186q-68 0 -111 39.5t-43 97.5q0 60 44 98.5t110 38.5q68 0 110.5 -38.5t42.5 -98.5q0 -61 -42.5 -99t-110.5 -38z" />
    <glyph glyph-name="Amacron" unicode="&#x100;" horiz-adv-x="1440" 
d="M1425 0h-352l-102 319h-510l-101 -319h-350l522 1434h383zM897 567l-154 482q-17 54 -24 129h-8q-5 -63 -25 -125l-156 -486h367zM1013 1567h-586v172h586v-172z" />
    <glyph glyph-name="amacron" unicode="&#x101;" horiz-adv-x="1102" 
d="M985 0h-299v147h-4q-103 -172 -305 -172q-149 0 -234.5 84.5t-85.5 225.5q0 298 353 344l278 37q0 168 -182 168q-183 0 -348 -109v238q66 34 180.5 60t208.5 26q438 0 438 -437v-612zM688 416v69l-186 -24q-154 -20 -154 -139q0 -54 37.5 -88.5t101.5 -34.5
q89 0 145 61.5t56 155.5zM864 1186h-586v172h586v-172z" />
    <glyph glyph-name="Abreve" unicode="&#x102;" horiz-adv-x="1440" 
d="M1425 0h-352l-102 319h-510l-101 -319h-350l522 1434h383zM897 567l-154 482q-17 54 -24 129h-8q-5 -63 -25 -125l-156 -486h367zM1057 1874q-12 -141 -102.5 -224t-237.5 -83q-146 0 -238 85.5t-96 221.5h179q17 -135 159 -135q137 0 156 135h180z" />
    <glyph glyph-name="abreve" unicode="&#x103;" horiz-adv-x="1102" 
d="M985 0h-299v147h-4q-103 -172 -305 -172q-149 0 -234.5 84.5t-85.5 225.5q0 298 353 344l278 37q0 168 -182 168q-183 0 -348 -109v238q66 34 180.5 60t208.5 26q438 0 438 -437v-612zM688 416v69l-186 -24q-154 -20 -154 -139q0 -54 37.5 -88.5t101.5 -34.5
q89 0 145 61.5t56 155.5zM908 1493q-12 -141 -102.5 -224t-237.5 -83q-146 0 -238 85.5t-96 221.5h179q17 -135 159 -135q137 0 156 135h180z" />
    <glyph glyph-name="Aogonek" unicode="&#x104;" horiz-adv-x="1440" 
d="M1425 0h-197q-60 -92 -60 -160q0 -53 58 -53q49 0 119 26v-136q-77 -26 -154 -26q-85 0 -138 48.5t-53 126.5q0 84 73 174l-102 319h-510l-101 -319h-350l522 1434h383zM897 567l-154 482q-17 54 -24 129h-8q-5 -63 -25 -125l-156 -486h367z" />
    <glyph glyph-name="aogonek" unicode="&#x105;" horiz-adv-x="1102" 
d="M985 0h-144q-60 -92 -60 -160q0 -53 58 -53q49 0 119 26v-136q-77 -26 -154 -26q-85 0 -138 48.5t-53 126.5q0 84 73 174v147h-4q-103 -172 -305 -172q-149 0 -234.5 84.5t-85.5 225.5q0 298 353 344l278 37q0 168 -182 168q-183 0 -348 -109v238q66 34 180.5 60
t208.5 26q438 0 438 -437v-612zM688 416v69l-186 -24q-154 -20 -154 -139q0 -54 37.5 -88.5t101.5 -34.5q89 0 145 61.5t56 155.5z" />
    <glyph glyph-name="Cacute" unicode="&#x106;" horiz-adv-x="1278" 
d="M1192 51q-157 -76 -410 -76q-330 0 -519 194t-189 517q0 344 212.5 558t551.5 214q210 0 354 -53v-311q-144 86 -328 86q-202 0 -326 -127t-124 -344q0 -208 117 -331.5t315 -123.5q189 0 346 92v-295zM1159 1890l-313 -323h-228l260 323h281z" />
    <glyph glyph-name="cacute" unicode="&#x107;" horiz-adv-x="983" 
d="M909 37q-107 -62 -309 -62q-236 0 -382 143t-146 369q0 261 156.5 411.5t418.5 150.5q181 0 262 -48v-268q-99 74 -221 74q-136 0 -215.5 -79.5t-79.5 -219.5q0 -136 76 -213.5t209 -77.5q118 0 231 74v-254zM926 1509l-313 -323h-228l260 323h281z" />
    <glyph glyph-name="Ccircumflex" unicode="&#x108;" horiz-adv-x="1278" 
d="M1192 51q-157 -76 -410 -76q-330 0 -519 194t-189 517q0 344 212.5 558t551.5 214q210 0 354 -53v-311q-144 86 -328 86q-202 0 -326 -127t-124 -344q0 -208 117 -331.5t315 -123.5q189 0 346 92v-295zM1159 1567h-207l-158 188l-147 -188h-207l235 325h248z" />
    <glyph glyph-name="ccircumflex" unicode="&#x109;" horiz-adv-x="983" 
d="M909 37q-107 -62 -309 -62q-236 0 -382 143t-146 369q0 261 156.5 411.5t418.5 150.5q181 0 262 -48v-268q-99 74 -221 74q-136 0 -215.5 -79.5t-79.5 -219.5q0 -136 76 -213.5t209 -77.5q118 0 231 74v-254zM953 1186h-207l-158 188l-147 -188h-207l235 325h248z" />
    <glyph glyph-name="Cdotaccent" unicode="&#x10a;" horiz-adv-x="1278" 
d="M1192 51q-157 -76 -410 -76q-330 0 -519 194t-189 517q0 344 212.5 558t551.5 214q210 0 354 -53v-311q-144 86 -328 86q-202 0 -326 -127t-124 -344q0 -208 117 -331.5t315 -123.5q189 0 346 92v-295zM819 1567q-67 0 -110.5 40t-43.5 97q0 60 44 97.5t110 37.5
q67 0 109.5 -38t42.5 -97t-42.5 -98t-109.5 -39z" />
    <glyph glyph-name="cdotaccent" unicode="&#x10b;" horiz-adv-x="983" 
d="M909 37q-107 -62 -309 -62q-236 0 -382 143t-146 369q0 261 156.5 411.5t418.5 150.5q181 0 262 -48v-268q-99 74 -221 74q-136 0 -215.5 -79.5t-79.5 -219.5q0 -136 76 -213.5t209 -77.5q118 0 231 74v-254zM610 1186q-67 0 -110.5 40t-43.5 97q0 60 44 97.5t110 37.5
q67 0 109.5 -38t42.5 -97t-42.5 -98t-109.5 -39z" />
    <glyph glyph-name="Ccaron" unicode="&#x10c;" horiz-adv-x="1278" 
d="M1192 51q-157 -76 -410 -76q-330 0 -519 194t-189 517q0 344 212.5 558t551.5 214q210 0 354 -53v-311q-144 86 -328 86q-202 0 -326 -127t-124 -344q0 -208 117 -331.5t315 -123.5q189 0 346 92v-295zM1163 1892l-238 -325h-248l-235 325h205l155 -188l156 188h205z" />
    <glyph glyph-name="ccaron" unicode="&#x10d;" horiz-adv-x="983" 
d="M909 37q-107 -62 -309 -62q-236 0 -382 143t-146 369q0 261 156.5 411.5t418.5 150.5q181 0 262 -48v-268q-99 74 -221 74q-136 0 -215.5 -79.5t-79.5 -219.5q0 -136 76 -213.5t209 -77.5q118 0 231 74v-254zM950 1511l-238 -325h-248l-235 325h205l155 -188l156 188h205
z" />
    <glyph glyph-name="Dcaron" unicode="&#x10e;" horiz-adv-x="1510" 
d="M164 0v1434h508q764 0 764 -699q0 -335 -208.5 -535t-555.5 -200h-508zM487 1171v-909h160q210 0 329.5 126t119.5 343q0 205 -118.5 322.5t-332.5 117.5h-158zM1077 1892l-238 -325h-248l-235 325h205l155 -188l156 188h205z" />
    <glyph glyph-name="dcaron" unicode="&#x10f;" horiz-adv-x="1432" 
d="M1135 0h-316v141h-4q-108 -166 -317 -166q-192 0 -309 135.5t-117 378.5q0 254 129 407t338 153q198 0 276 -142h4v609h316v-1516zM825 498v77q0 100 -58 166t-151 66q-105 0 -164 -82.5t-59 -226.5q0 -135 57 -208t158 -73q96 0 156.5 77t60.5 204zM1603 1515l-168 -352
h-194l90 352h272z" />
    <glyph glyph-name="Dcroat" unicode="&#x110;" horiz-adv-x="1510" 
d="M164 0v586h-164v266h164v582h508q764 0 764 -699q0 -335 -208.5 -535t-555.5 -200h-508zM487 1171v-319h271v-266h-271v-324h160q210 0 329.5 126t119.5 343q0 205 -118.5 322.5t-332.5 117.5h-158z" />
    <glyph glyph-name="dcroat" unicode="&#x111;" horiz-adv-x="1295" 
d="M1278 1171h-143v-1171h-316v141h-4q-108 -166 -317 -166q-192 0 -309 135.5t-117 378.5q0 254 129 407t338 153q198 0 276 -142h4v264h-330v205h330v140h316v-140h143v-205zM825 498v77q0 100 -58 166t-151 66q-105 0 -164 -82.5t-59 -226.5q0 -135 57 -208t158 -73
q96 0 156.5 77t60.5 204z" />
    <glyph glyph-name="Emacron" unicode="&#x112;" horiz-adv-x="1090" 
d="M1024 0h-860v1434h827v-263h-504v-319h469v-262h-469v-328h537v-262zM864 1567h-586v172h586v-172z" />
    <glyph glyph-name="emacron" unicode="&#x113;" horiz-adv-x="1108" 
d="M1053 422h-668q16 -223 281 -223q169 0 297 80v-228q-142 -76 -369 -76q-248 0 -385 137.5t-137 383.5q0 255 148 404t364 149q224 0 346.5 -133t122.5 -361v-133zM760 616q0 220 -178 220q-76 0 -131.5 -63t-67.5 -157h377zM867 1186h-586v172h586v-172z" />
    <glyph glyph-name="Ebreve" unicode="&#x114;" horiz-adv-x="1090" 
d="M1024 0h-860v1434h827v-263h-504v-319h469v-262h-469v-328h537v-262zM926 1874q-12 -141 -102.5 -224t-237.5 -83q-146 0 -238 85.5t-96 221.5h179q17 -135 159 -135q137 0 156 135h180z" />
    <glyph glyph-name="ebreve" unicode="&#x115;" horiz-adv-x="1108" 
d="M1053 422h-668q16 -223 281 -223q169 0 297 80v-228q-142 -76 -369 -76q-248 0 -385 137.5t-137 383.5q0 255 148 404t364 149q224 0 346.5 -133t122.5 -361v-133zM760 616q0 220 -178 220q-76 0 -131.5 -63t-67.5 -157h377zM911 1493q-12 -141 -102.5 -224t-237.5 -83
q-146 0 -238 85.5t-96 221.5h179q17 -135 159 -135q137 0 156 135h180z" />
    <glyph glyph-name="Edotaccent" unicode="&#x116;" horiz-adv-x="1090" 
d="M1024 0h-860v1434h827v-263h-504v-319h469v-262h-469v-328h537v-262zM589 1567q-67 0 -110.5 40t-43.5 97q0 60 44 97.5t110 37.5q67 0 109.5 -38t42.5 -97t-42.5 -98t-109.5 -39z" />
    <glyph glyph-name="edotaccent" unicode="&#x117;" horiz-adv-x="1108" 
d="M1053 422h-668q16 -223 281 -223q169 0 297 80v-228q-142 -76 -369 -76q-248 0 -385 137.5t-137 383.5q0 255 148 404t364 149q224 0 346.5 -133t122.5 -361v-133zM760 616q0 220 -178 220q-76 0 -131.5 -63t-67.5 -157h377zM596 1186q-67 0 -110.5 40t-43.5 97
q0 60 44 97.5t110 37.5q67 0 109.5 -38t42.5 -97t-42.5 -98t-109.5 -39z" />
    <glyph glyph-name="Eogonek" unicode="&#x118;" horiz-adv-x="1090" 
d="M1024 0h-143q-60 -92 -60 -160q0 -53 58 -53q49 0 119 26v-136q-77 -26 -154 -26q-85 0 -138 48.5t-53 126.5q0 84 73 174h-562v1434h827v-263h-504v-319h469v-262h-469v-328h537v-262z" />
    <glyph glyph-name="eogonek" unicode="&#x119;" horiz-adv-x="1108" 
d="M1053 422h-668q16 -223 281 -223q169 0 297 80v-228q-108 -58 -284 -72q-46 -79 -46 -139q0 -53 58 -53q48 0 118 26v-136q-77 -26 -154 -26q-85 0 -137.5 48.5t-52.5 126.5q0 73 57 153q-216 20 -333 155t-117 362q0 255 148 404t364 149q224 0 346.5 -133t122.5 -361
v-133zM760 616q0 220 -178 220q-76 0 -131.5 -63t-67.5 -157h377z" />
    <glyph glyph-name="Ecaron" unicode="&#x11a;" horiz-adv-x="1090" 
d="M1024 0h-860v1434h827v-263h-504v-319h469v-262h-469v-328h537v-262zM954 1892l-238 -325h-248l-235 325h205l155 -188l156 188h205z" />
    <glyph glyph-name="ecaron" unicode="&#x11b;" horiz-adv-x="1108" 
d="M1053 422h-668q16 -223 281 -223q169 0 297 80v-228q-142 -76 -369 -76q-248 0 -385 137.5t-137 383.5q0 255 148 404t364 149q224 0 346.5 -133t122.5 -361v-133zM760 616q0 220 -178 220q-76 0 -131.5 -63t-67.5 -157h377zM935 1511l-238 -325h-248l-235 325h205
l155 -188l156 188h205z" />
    <glyph glyph-name="Gcircumflex" unicode="&#x11c;" horiz-adv-x="1456" 
d="M1341 96q-210 -121 -522 -121q-346 0 -545.5 191.5t-199.5 527.5q0 338 218 551t580 213q228 0 402 -63v-303q-166 96 -406 96q-201 0 -327.5 -130.5t-126.5 -348.5q0 -221 113.5 -342t306.5 -121q116 0 184 33v280h-287v258h610v-721zM1196 1567h-207l-158 188
l-147 -188h-207l235 325h248z" />
    <glyph glyph-name="gcircumflex" unicode="&#x11d;" horiz-adv-x="1268" 
d="M1137 117q0 -285 -165 -441.5t-478 -156.5q-207 0 -328 59v266q158 -92 319 -92q160 0 248 84.5t88 229.5v81h-4q-108 -172 -319 -172q-196 0 -311 138t-115 370q0 260 128 413t337 153q187 0 280 -144h4v119h316v-907zM825 492v81q0 97 -57.5 165.5t-149.5 68.5
q-105 0 -165 -82t-60 -231q0 -128 57 -202.5t156 -74.5q98 0 158.5 75.5t60.5 199.5zM993 1186h-207l-158 188l-147 -188h-207l235 325h248z" />
    <glyph glyph-name="Gbreve" unicode="&#x11e;" horiz-adv-x="1456" 
d="M1341 96q-210 -121 -522 -121q-346 0 -545.5 191.5t-199.5 527.5q0 338 218 551t580 213q228 0 402 -63v-303q-166 96 -406 96q-201 0 -327.5 -130.5t-126.5 -348.5q0 -221 113.5 -342t306.5 -121q116 0 184 33v280h-287v258h610v-721zM1143 1874q-12 -141 -102.5 -224
t-237.5 -83q-146 0 -238 85.5t-96 221.5h179q17 -135 159 -135q137 0 156 135h180z" />
    <glyph glyph-name="gbreve" unicode="&#x11f;" horiz-adv-x="1268" 
d="M1137 117q0 -285 -165 -441.5t-478 -156.5q-207 0 -328 59v266q158 -92 319 -92q160 0 248 84.5t88 229.5v81h-4q-108 -172 -319 -172q-196 0 -311 138t-115 370q0 260 128 413t337 153q187 0 280 -144h4v119h316v-907zM825 492v81q0 97 -57.5 165.5t-149.5 68.5
q-105 0 -165 -82t-60 -231q0 -128 57 -202.5t156 -74.5q98 0 158.5 75.5t60.5 199.5zM971 1493q-12 -141 -102.5 -224t-237.5 -83q-146 0 -238 85.5t-96 221.5h179q17 -135 159 -135q137 0 156 135h180z" />
    <glyph glyph-name="Gdotaccent" unicode="&#x120;" horiz-adv-x="1456" 
d="M1341 96q-210 -121 -522 -121q-346 0 -545.5 191.5t-199.5 527.5q0 338 218 551t580 213q228 0 402 -63v-303q-166 96 -406 96q-201 0 -327.5 -130.5t-126.5 -348.5q0 -221 113.5 -342t306.5 -121q116 0 184 33v280h-287v258h610v-721zM819 1567q-67 0 -110.5 40
t-43.5 97q0 60 44 97.5t110 37.5q67 0 109.5 -38t42.5 -97t-42.5 -98t-109.5 -39z" />
    <glyph glyph-name="gdotaccent" unicode="&#x121;" horiz-adv-x="1268" 
d="M1137 117q0 -285 -165 -441.5t-478 -156.5q-207 0 -328 59v266q158 -92 319 -92q160 0 248 84.5t88 229.5v81h-4q-108 -172 -319 -172q-196 0 -311 138t-115 370q0 260 128 413t337 153q187 0 280 -144h4v119h316v-907zM825 492v81q0 97 -57.5 165.5t-149.5 68.5
q-105 0 -165 -82t-60 -231q0 -128 57 -202.5t156 -74.5q98 0 158.5 75.5t60.5 199.5zM634 1186q-67 0 -110.5 40t-43.5 97q0 60 44 97.5t110 37.5q67 0 109.5 -38t42.5 -97t-42.5 -98t-109.5 -39z" />
    <glyph glyph-name="Gcommaaccent" unicode="&#x122;" horiz-adv-x="1456" 
d="M1341 96q-210 -121 -522 -121q-346 0 -545.5 191.5t-199.5 527.5q0 338 218 551t580 213q228 0 402 -63v-303q-166 96 -406 96q-201 0 -327.5 -130.5t-126.5 -348.5q0 -221 113.5 -342t306.5 -121q116 0 184 33v280h-287v258h610v-721zM972 -111l-168 -352h-194l90 352
h272z" />
    <glyph glyph-name="gcommaaccent" unicode="&#x123;" horiz-adv-x="1268" 
d="M821 1538l-90 -352h-272l168 352h194zM1137 117q0 -285 -165 -441.5t-478 -156.5q-207 0 -328 59v266q158 -92 319 -92q160 0 248 84.5t88 229.5v81h-4q-108 -172 -319 -172q-196 0 -311 138t-115 370q0 260 128 413t337 153q187 0 280 -144h4v119h316v-907zM825 492v81
q0 97 -57.5 165.5t-149.5 68.5q-105 0 -165 -82t-60 -231q0 -128 57 -202.5t156 -74.5q98 0 158.5 75.5t60.5 199.5z" />
    <glyph glyph-name="Hcircumflex" unicode="&#x124;" horiz-adv-x="1569" 
d="M1405 0h-324v584h-594v-584h-323v1434h323v-572h594v572h324v-1434zM1144 1567h-207l-158 188l-147 -188h-207l235 325h248z" />
    <glyph glyph-name="hcircumflex" unicode="&#x125;" horiz-adv-x="1233" 
d="M1116 0h-315v582q0 225 -164 225q-84 0 -136 -63t-52 -160v-584h-316v1516h316v-644h4q116 177 315 177q348 0 348 -420v-629zM1012 1567h-207l-158 188l-147 -188h-207l235 325h248z" />
    <glyph glyph-name="Hbar" unicode="&#x126;" horiz-adv-x="1569" 
d="M1569 1018h-164v-1018h-324v584h-594v-584h-323v1018h-164v205h164v211h323v-211h594v211h324v-211h164v-205zM1081 862v156h-594v-156h594z" />
    <glyph glyph-name="hbar" unicode="&#x127;" horiz-adv-x="1262" 
d="M1149 0h-311v553q0 225 -164 225q-86 0 -137.5 -60t-51.5 -159v-559h-315v1171h-143v205h143v140h315v-140h330v-205h-330v-321h4q115 176 316 176q344 0 344 -420v-606z" />
    <glyph glyph-name="Itilde" unicode="&#x128;" horiz-adv-x="649" 
d="M487 0h-323v1434h323v-1434zM684 1860q0 -140 -55.5 -216.5t-151.5 -76.5q-86 0 -168 43q-89 47 -123 47q-80 0 -80 -108h-141q0 139 55 216t154 77q81 0 168 -49q79 -44 120 -44q78 0 78 111h144z" />
    <glyph glyph-name="itilde" unicode="&#x129;" horiz-adv-x="582" 
d="M449 0h-316v1024h316v-1024zM650 1497q0 -140 -55.5 -216.5t-151.5 -76.5q-86 0 -168 43q-89 47 -123 47q-80 0 -80 -108h-141q0 139 55 216t154 77q81 0 168 -49q79 -44 120 -44q78 0 78 111h144z" />
    <glyph glyph-name="Imacron" unicode="&#x12a;" horiz-adv-x="649" 
d="M487 0h-323v1434h323v-1434zM617 1567h-586v172h586v-172z" />
    <glyph glyph-name="imacron" unicode="&#x12b;" horiz-adv-x="582" 
d="M449 0h-316v1024h316v-1024zM584 1186h-586v172h586v-172z" />
    <glyph glyph-name="Ibreve" unicode="&#x12c;" horiz-adv-x="649" 
d="M487 0h-323v1434h323v-1434zM662 1874q-12 -141 -102.5 -224t-237.5 -83q-146 0 -238 85.5t-96 221.5h179q17 -135 159 -135q137 0 156 135h180z" />
    <glyph glyph-name="ibreve" unicode="&#x12d;" horiz-adv-x="582" 
d="M449 0h-316v1024h316v-1024zM628 1493q-12 -141 -102.5 -224t-237.5 -83q-146 0 -238 85.5t-96 221.5h179q17 -135 159 -135q137 0 156 135h180z" />
    <glyph glyph-name="Iogonek" unicode="&#x12e;" horiz-adv-x="649" 
d="M506 -323q-77 -26 -154 -26q-85 0 -137.5 48.5t-52.5 126.5q0 84 73 174h-71v1434h323v-1434h-98q-59 -90 -59 -160q0 -53 58 -53q48 0 118 26v-136z" />
    <glyph glyph-name="iogonek" unicode="&#x12f;" horiz-adv-x="582" 
d="M293 1186q-80 0 -131 47.5t-51 116.5q0 71 51 116t131 45q81 0 131.5 -45t50.5 -116q0 -72 -50.5 -118t-131.5 -46zM475 -323q-77 -26 -154 -26q-85 0 -137.5 48.5t-52.5 126.5q0 85 72 174h-70v1024h316v-1024h-91q-59 -90 -59 -160q0 -53 57 -53q49 0 119 26v-136z" />
    <glyph glyph-name="Idotaccent" unicode="&#x130;" horiz-adv-x="649" 
d="M487 0h-323v1434h323v-1434zM325 1567q-67 0 -110.5 40t-43.5 97q0 60 44 97.5t110 37.5q67 0 109.5 -38t42.5 -97t-42.5 -98t-109.5 -39z" />
    <glyph glyph-name="dotlessi" unicode="&#x131;" horiz-adv-x="582" 
d="M449 0h-316v1024h316v-1024z" />
    <glyph glyph-name="IJ" unicode="&#x132;" horiz-adv-x="1561" 
d="M487 0h-323v1434h323v-1434zM1411 569q0 -288 -133.5 -441t-386.5 -153q-113 0 -209 39v303q83 -63 186 -63q221 0 221 328v852h322v-865z" />
    <glyph glyph-name="ij" unicode="&#x133;" horiz-adv-x="1164" 
d="M293 1186q-80 0 -131 47.5t-51 116.5q0 71 51 116t131 45q81 0 131.5 -45t50.5 -116q0 -72 -50.5 -118t-131.5 -46zM449 0h-316v1024h316v-1024zM874 1186q-80 0 -131 47.5t-51 116.5q0 71 51 116t131 45q81 0 131.5 -45t50.5 -116q0 -72 -50.5 -118t-131.5 -46zM1030 18
q0 -227 -111 -363t-320 -136q-69 0 -151 30v248q66 -37 117 -37q149 0 149 234v1030h316v-1006z" />
    <glyph glyph-name="Jcircumflex" unicode="&#x134;" horiz-adv-x="912" 
d="M762 569q0 -288 -133.5 -441t-386.5 -153q-113 0 -209 39v303q83 -63 186 -63q221 0 221 328v852h322v-865zM959 1567h-207l-158 188l-147 -188h-207l235 325h248z" />
    <glyph glyph-name="jcircumflex" unicode="&#x135;" horiz-adv-x="582" 
d="M449 18q0 -227 -111 -363t-320 -136q-69 0 -151 30v248q66 -37 117 -37q149 0 149 234v1030h316v-1006zM649 1186h-207l-158 188l-147 -188h-207l235 325h248z" />
    <glyph glyph-name="Kcommaaccent" unicode="&#x136;" horiz-adv-x="1329" 
d="M1356 0h-408l-418 623q-12 18 -38 79h-5v-702h-323v1434h323v-678h5q12 28 40 80l396 598h385l-500 -684zM886 -111l-168 -352h-194l90 352h272z" />
    <glyph glyph-name="kcommaaccent" unicode="&#x137;" horiz-adv-x="1145" 
d="M1159 0h-379l-327 508h-4v-508h-316v1516h316v-965h4l305 473h375l-367 -481zM765 -111l-168 -352h-194l90 352h272z" />
    <glyph glyph-name="kgreenlandic" unicode="&#x138;" horiz-adv-x="1145" 
d="M1159 0h-379l-327 508h-4v-508h-316v1024h316v-473h4l305 473h375l-367 -481z" />
    <glyph glyph-name="Lacute" unicode="&#x139;" horiz-adv-x="1047" 
d="M1018 0h-854v1434h323v-1172h531v-262zM903 1890l-313 -323h-228l260 323h281z" />
    <glyph glyph-name="lacute" unicode="&#x13a;" horiz-adv-x="582" 
d="M449 0h-316v1516h316v-1516zM652 1972l-313 -323h-228l260 323h281z" />
    <glyph glyph-name="Lcommaaccent" unicode="&#x13b;" horiz-adv-x="1047" 
d="M1018 0h-379v-82q186 -7 186 -166q0 -207 -317 -207q-46 0 -88 4v138q35 -6 72 -6q122 0 122 73q0 66 -110 66q-13 0 -37 -2v182h-303v1434h323v-1172h531v-262z" />
    <glyph glyph-name="lcommaaccent" unicode="&#x13c;" horiz-adv-x="582" 
d="M127 -451v138q35 -6 72 -6q123 0 123 73q0 66 -111 66q-13 0 -37 -2v182h-41v1516h316v-1516h-103v-82q186 -7 186 -166q0 -207 -317 -207q-46 0 -88 4z" />
    <glyph glyph-name="Lcaron" unicode="&#x13d;" horiz-adv-x="1047" 
d="M1018 0h-854v1434h323v-1172h531v-262zM1032 1433l-168 -352h-194l90 352h272z" />
    <glyph glyph-name="lcaron" unicode="&#x13e;" horiz-adv-x="746" 
d="M449 0h-316v1516h316v-1516zM917 1515l-168 -352h-194l90 352h272z" />
    <glyph glyph-name="Ldot" unicode="&#x13f;" horiz-adv-x="1047" 
d="M1018 0h-854v1434h323v-1172h531v-262zM827 651q-67 0 -110.5 40t-43.5 97q0 60 44 97.5t110 37.5q67 0 109.5 -38t42.5 -97t-42.5 -98t-109.5 -39z" />
    <glyph glyph-name="ldot" unicode="&#x140;" horiz-adv-x="887" 
d="M449 0h-316v1516h316v-1516zM735 590q-67 0 -110.5 40t-43.5 97q0 60 44 97.5t110 37.5q67 0 109.5 -38t42.5 -97t-42.5 -98t-109.5 -39z" />
    <glyph glyph-name="Lslash" unicode="&#x141;" horiz-adv-x="1047" 
d="M1018 0h-854v467l-162 -86v264l162 84v705h323v-549l283 149v-262l-283 -149v-361h531v-262z" />
    <glyph glyph-name="lslash" unicode="&#x142;" horiz-adv-x="643" 
d="M610 754l-135 -86v-668h-315v473l-131 -84v258l131 82v787h315v-592l135 86v-256z" />
    <glyph glyph-name="Nacute" unicode="&#x143;" horiz-adv-x="1618" 
d="M1454 0h-326l-591 901q-52 79 -72 119h-4q8 -76 8 -232v-788h-305v1434h348l569 -873q39 -59 72 -117h4q-8 50 -8 197v793h305v-1434zM1143 1890l-313 -323h-228l260 323h281z" />
    <glyph glyph-name="nacute" unicode="&#x144;" horiz-adv-x="1239" 
d="M1122 0h-315v569q0 238 -170 238q-82 0 -135 -63t-53 -160v-584h-316v1024h316v-162h4q113 187 329 187q340 0 340 -422v-627zM972 1509l-313 -323h-228l260 323h281z" />
    <glyph glyph-name="Ncommaaccent" unicode="&#x145;" horiz-adv-x="1618" 
d="M1454 0h-326l-591 901q-52 79 -72 119h-4q8 -76 8 -232v-788h-305v1434h348l569 -873q39 -59 72 -117h4q-8 50 -8 197v793h305v-1434zM990 -111l-168 -352h-194l90 352h272z" />
    <glyph glyph-name="ncommaaccent" unicode="&#x146;" horiz-adv-x="1239" 
d="M1122 0h-315v569q0 238 -170 238q-82 0 -135 -63t-53 -160v-584h-316v1024h316v-162h4q113 187 329 187q340 0 340 -422v-627zM800 -111l-168 -352h-194l90 352h272z" />
    <glyph glyph-name="Ncaron" unicode="&#x147;" horiz-adv-x="1618" 
d="M1454 0h-326l-591 901q-52 79 -72 119h-4q8 -76 8 -232v-788h-305v1434h348l569 -873q39 -59 72 -117h4q-8 50 -8 197v793h305v-1434zM1170 1892l-238 -325h-248l-235 325h205l155 -188l156 188h205z" />
    <glyph glyph-name="ncaron" unicode="&#x148;" horiz-adv-x="1239" 
d="M1122 0h-315v569q0 238 -170 238q-82 0 -135 -63t-53 -160v-584h-316v1024h316v-162h4q113 187 329 187q340 0 340 -422v-627zM1001 1511l-238 -325h-248l-235 325h205l155 -188l156 188h205z" />
    <glyph glyph-name="napostrophe" unicode="&#x149;" horiz-adv-x="1403" 
d="M326 1468l-193 -444h-194l114 444h273zM1286 0h-315v569q0 238 -170 238q-84 0 -136.5 -63.5t-52.5 -159.5v-584h-315v1024h315v-162h4q113 187 330 187q340 0 340 -422v-627z" />
    <glyph glyph-name="Eng" unicode="&#x14a;" horiz-adv-x="1618" 
d="M1454 80q0 -500 -397 -500q-119 0 -203 31v248q66 -37 139 -37q152 0 156 181l-612 898q-46 68 -72 119h-4q8 -76 8 -232v-788h-305v1434h348l569 -840q57 -84 72 -117h4q-8 50 -8 197v760h305v-1354z" />
    <glyph glyph-name="eng" unicode="&#x14b;" horiz-adv-x="1239" 
d="M1122 63q0 -485 -409 -485q-88 0 -172 31v248q66 -37 116 -37q150 0 150 233v516q0 238 -170 238q-82 0 -135 -63t-53 -160v-584h-316v1024h316v-162h4q113 187 329 187q340 0 340 -422v-564z" />
    <glyph glyph-name="Omacron" unicode="&#x14c;" horiz-adv-x="1553" 
d="M770 -25q-308 0 -502 200.5t-194 522.5q0 340 197 550t522 210q307 0 496.5 -201t189.5 -530q0 -338 -196.5 -545t-512.5 -207zM784 1180q-170 0 -270 -127.5t-100 -337.5q0 -213 100 -337t262 -124q167 0 265 120.5t98 334.5q0 223 -95 347t-260 124zM1069 1567h-586
v172h586v-172z" />
    <glyph glyph-name="omacron" unicode="&#x14d;" horiz-adv-x="1252" 
d="M621 -25q-256 0 -402.5 143.5t-146.5 389.5q0 254 152 397.5t411 143.5q255 0 400 -143.5t145 -379.5q0 -255 -149.5 -403t-409.5 -148zM629 807q-112 0 -174 -77t-62 -218q0 -295 238 -295q227 0 227 303q0 287 -229 287zM919 1186h-586v172h586v-172z" />
    <glyph glyph-name="Obreve" unicode="&#x14e;" horiz-adv-x="1553" 
d="M770 -25q-308 0 -502 200.5t-194 522.5q0 340 197 550t522 210q307 0 496.5 -201t189.5 -530q0 -338 -196.5 -545t-512.5 -207zM784 1180q-170 0 -270 -127.5t-100 -337.5q0 -213 100 -337t262 -124q167 0 265 120.5t98 334.5q0 223 -95 347t-260 124zM1113 1874
q-12 -141 -102.5 -224t-237.5 -83q-146 0 -238 85.5t-96 221.5h179q17 -135 159 -135q137 0 156 135h180z" />
    <glyph glyph-name="obreve" unicode="&#x14f;" horiz-adv-x="1252" 
d="M621 -25q-256 0 -402.5 143.5t-146.5 389.5q0 254 152 397.5t411 143.5q255 0 400 -143.5t145 -379.5q0 -255 -149.5 -403t-409.5 -148zM629 807q-112 0 -174 -77t-62 -218q0 -295 238 -295q227 0 227 303q0 287 -229 287zM963 1493q-12 -141 -102.5 -224t-237.5 -83
q-146 0 -238 85.5t-96 221.5h179q17 -135 159 -135q137 0 156 135h180z" />
    <glyph glyph-name="Ohungarumlaut" unicode="&#x150;" horiz-adv-x="1553" 
d="M770 -25q-308 0 -502 200.5t-194 522.5q0 340 197 550t522 210q307 0 496.5 -201t189.5 -530q0 -338 -196.5 -545t-512.5 -207zM784 1180q-170 0 -270 -127.5t-100 -337.5q0 -213 100 -337t262 -124q167 0 265 120.5t98 334.5q0 223 -95 347t-260 124zM1277 1886
l-252 -319h-210l213 319h249zM899 1886l-248 -319h-211l211 319h248z" />
    <glyph glyph-name="ohungarumlaut" unicode="&#x151;" horiz-adv-x="1252" 
d="M621 -25q-256 0 -402.5 143.5t-146.5 389.5q0 254 152 397.5t411 143.5q255 0 400 -143.5t145 -379.5q0 -255 -149.5 -403t-409.5 -148zM629 807q-112 0 -174 -77t-62 -218q0 -295 238 -295q227 0 227 303q0 287 -229 287zM1106 1505l-252 -319h-210l213 319h249z
M728 1505l-248 -319h-211l211 319h248z" />
    <glyph glyph-name="OE" unicode="&#x152;" horiz-adv-x="1925" 
d="M1860 0h-828q-26 0 -117 -12q-90 -13 -157 -13q-307 0 -495.5 203t-188.5 520q0 342 194 551t516 209q63 0 151 -12q89 -12 109 -12h783v-263h-504v-323h469v-264h-469v-322h537v-262zM991 305v823q-86 52 -209 52q-168 0 -267 -129.5t-99 -339.5q0 -208 101 -332.5
t261 -124.5q116 0 213 51z" />
    <glyph glyph-name="oe" unicode="&#x153;" horiz-adv-x="1893" 
d="M1837 422h-670q14 -223 283 -223q167 0 295 80v-228q-142 -76 -346 -76q-252 0 -391 189h-4q-137 -187 -408 -187q-234 0 -379 143t-145 388q0 251 147 397t389 146q134 0 238.5 -49.5t154.5 -127.5h5q118 175 376 175q213 0 334 -134t121 -358v-135zM1542 616
q0 220 -174 220q-80 0 -135 -63.5t-66 -156.5h375zM631 807q-113 0 -175.5 -77.5t-62.5 -217.5q0 -293 236 -293q229 0 229 297q0 138 -59.5 214.5t-167.5 76.5z" />
    <glyph glyph-name="Racute" unicode="&#x154;" horiz-adv-x="1303" 
d="M1266 0h-371l-145 369q-71 180 -193 180h-70v-549h-323v1434h512q522 0 522 -390q0 -149 -85.5 -252t-238.5 -143v-4q126 -40 205 -221zM487 1192v-399h140q104 0 167.5 60.5t63.5 150.5q0 188 -225 188h-146zM979 1890l-313 -323h-228l260 323h281z" />
    <glyph glyph-name="racute" unicode="&#x155;" horiz-adv-x="815" 
d="M801 739q-57 31 -133 31q-103 0 -161 -75.5t-58 -205.5v-489h-316v1024h316v-190h4q75 208 270 208q50 0 78 -12v-291zM772 1509l-313 -323h-228l260 323h281z" />
    <glyph glyph-name="Rcommaaccent" unicode="&#x156;" horiz-adv-x="1303" 
d="M1266 0h-371l-145 369q-71 180 -193 180h-70v-549h-323v1434h512q522 0 522 -390q0 -149 -85.5 -252t-238.5 -143v-4q126 -40 205 -221zM487 1192v-399h140q104 0 167.5 60.5t63.5 150.5q0 188 -225 188h-146zM849 -111l-168 -352h-194l90 352h272z" />
    <glyph glyph-name="rcommaaccent" unicode="&#x157;" horiz-adv-x="815" 
d="M801 739q-57 31 -133 31q-103 0 -161 -75.5t-58 -205.5v-489h-316v1024h316v-190h4q75 208 270 208q50 0 78 -12v-291zM593 -111l-168 -352h-194l90 352h272z" />
    <glyph glyph-name="Rcaron" unicode="&#x158;" horiz-adv-x="1303" 
d="M1266 0h-371l-145 369q-71 180 -193 180h-70v-549h-323v1434h512q522 0 522 -390q0 -149 -85.5 -252t-238.5 -143v-4q126 -40 205 -221zM487 1192v-399h140q104 0 167.5 60.5t63.5 150.5q0 188 -225 188h-146zM997 1892l-238 -325h-248l-235 325h205l155 -188l156 188
h205z" />
    <glyph glyph-name="rcaron" unicode="&#x159;" horiz-adv-x="815" 
d="M801 739q-57 31 -133 31q-103 0 -161 -75.5t-58 -205.5v-489h-316v1024h316v-190h4q75 208 270 208q50 0 78 -12v-291zM789 1511l-238 -325h-248l-235 325h205l155 -188l156 188h205z" />
    <glyph glyph-name="Sacute" unicode="&#x15a;" horiz-adv-x="1098" 
d="M106 55v320q172 -146 379 -146q99 0 154 40.5t55 105.5q0 56 -46 105.5t-220 131.5q-328 155 -328 420q0 193 142.5 309.5t380.5 116.5q210 0 348 -55v-299q-144 100 -330 100q-93 0 -147 -40t-54 -105q0 -64 42.5 -109t179.5 -110q212 -101 292 -201t80 -236
q0 -198 -142.5 -313t-414.5 -115q-223 0 -371 80zM887 1890l-313 -323h-228l260 323h281z" />
    <glyph glyph-name="sacute" unicode="&#x15b;" horiz-adv-x="901" 
d="M94 27v256q156 -93 293 -93q150 0 150 93q0 41 -36 67t-157 72q-140 53 -195 123.5t-55 177.5q0 148 117 237t313 89q127 0 254 -41v-244q-119 70 -250 70q-125 0 -125 -86q0 -43 30 -70t130 -62q153 -54 215 -125.5t62 -177.5q0 -155 -118.5 -246.5t-330.5 -91.5
q-159 0 -297 52zM793 1509l-313 -323h-228l260 323h281z" />
    <glyph glyph-name="Scircumflex" unicode="&#x15c;" horiz-adv-x="1098" 
d="M106 55v320q172 -146 379 -146q99 0 154 40.5t55 105.5q0 56 -46 105.5t-220 131.5q-328 155 -328 420q0 193 142.5 309.5t380.5 116.5q210 0 348 -55v-299q-144 100 -330 100q-93 0 -147 -40t-54 -105q0 -64 42.5 -109t179.5 -110q212 -101 292 -201t80 -236
q0 -198 -142.5 -313t-414.5 -115q-223 0 -371 80zM930 1567h-207l-158 188l-147 -188h-207l235 325h248z" />
    <glyph glyph-name="scircumflex" unicode="&#x15d;" horiz-adv-x="901" 
d="M94 27v256q156 -93 293 -93q150 0 150 93q0 41 -36 67t-157 72q-140 53 -195 123.5t-55 177.5q0 148 117 237t313 89q127 0 254 -41v-244q-119 70 -250 70q-125 0 -125 -86q0 -43 30 -70t130 -62q153 -54 215 -125.5t62 -177.5q0 -155 -118.5 -246.5t-330.5 -91.5
q-159 0 -297 52zM825 1186h-207l-158 188l-147 -188h-207l235 325h248z" />
    <glyph glyph-name="Scedilla" unicode="&#x15e;" horiz-adv-x="1098" 
d="M614 -16v-66q187 -8 187 -166q0 -207 -318 -207q-46 0 -88 4v138q35 -6 72 -6q123 0 123 73q0 66 -111 66q-13 0 -37 -2v158q-205 9 -336 79v320q172 -146 379 -146q99 0 154 40.5t55 105.5q0 56 -46.5 106t-219.5 131q-328 155 -328 420q0 193 142.5 309.5t380.5 116.5
q210 0 348 -55v-299q-144 100 -330 100q-93 0 -147 -40t-54 -105q0 -64 42.5 -109t179.5 -110q212 -101 292 -201t80 -236q0 -170 -107.5 -281t-312.5 -138z" />
    <glyph glyph-name="scedilla" unicode="&#x15f;" horiz-adv-x="901" 
d="M518 -15v-67q187 -8 187 -166q0 -207 -318 -207q-46 0 -88 4v138q35 -6 72 -6q123 0 123 73q0 66 -111 66q-13 0 -37 -2v159q-146 10 -252 50v256q156 -93 293 -93q150 0 150 93q0 41 -36 67t-157 72q-140 53 -195 123.5t-55 177.5q0 148 117 237t313 89q127 0 254 -41
v-244q-119 70 -250 70q-125 0 -125 -86q0 -43 30 -70t130 -62q153 -54 215 -125.5t62 -177.5q0 -129 -84.5 -215.5t-237.5 -112.5z" />
    <glyph glyph-name="Scaron" unicode="&#x160;" horiz-adv-x="1098" 
d="M106 55v320q172 -146 379 -146q99 0 154 40.5t55 105.5q0 56 -46 105.5t-220 131.5q-328 155 -328 420q0 193 142.5 309.5t380.5 116.5q210 0 348 -55v-299q-144 100 -330 100q-93 0 -147 -40t-54 -105q0 -64 42.5 -109t179.5 -110q212 -101 292 -201t80 -236
q0 -198 -142.5 -313t-414.5 -115q-223 0 -371 80zM916 1861l-238 -325h-248l-235 325h205l155 -188l156 188h205z" />
    <glyph glyph-name="scaron" unicode="&#x161;" horiz-adv-x="901" 
d="M94 27v256q156 -93 293 -93q150 0 150 93q0 41 -36 67t-157 72q-140 53 -195 123.5t-55 177.5q0 148 117 237t313 89q127 0 254 -41v-244q-119 70 -250 70q-125 0 -125 -86q0 -43 30 -70t130 -62q153 -54 215 -125.5t62 -177.5q0 -155 -118.5 -246.5t-330.5 -91.5
q-159 0 -297 52zM772 1511l-238 -325h-248l-235 325h205l155 -188l156 188h205z" />
    <glyph glyph-name="Tcommaaccent" unicode="&#x162;" horiz-adv-x="1200" 
d="M1171 1171h-409v-1171h-117v-82q186 -7 186 -166q0 -207 -317 -207q-46 0 -88 4v138q35 -6 72 -6q123 0 123 73q0 66 -111 66q-13 0 -37 -2v182h-35v1171h-407v263h1140v-263z" />
    <glyph glyph-name="tcommaaccent" unicode="&#x163;" horiz-adv-x="797" 
d="M752 12q-71 -37 -204 -37h-7l-11 1v-58q187 -8 187 -166q0 -207 -318 -207q-46 0 -88 4v138q35 -6 72 -6q123 0 123 73q0 66 -111 66q-13 0 -37 -2v197q-151 80 -151 307v469h-166v233h166v221l315 90v-311h230v-233h-230v-414q0 -160 127 -160q50 0 103 29v-234z" />
    <glyph glyph-name="Tcaron" unicode="&#x164;" horiz-adv-x="1200" 
d="M1171 1171h-409v-1171h-324v1171h-407v263h1140v-263zM961 1892l-238 -325h-248l-235 325h205l155 -188l156 188h205z" />
    <glyph glyph-name="tcaron" unicode="&#x165;" horiz-adv-x="971" 
d="M752 12q-70 -37 -211 -37q-334 0 -334 347v469h-166v233h166v221l315 90v-311h230v-233h-230v-414q0 -160 127 -160q50 0 103 29v-234zM1114 1487l-168 -352h-194l90 352h272z" />
    <glyph glyph-name="Tbar" unicode="&#x166;" horiz-adv-x="1200" 
d="M1171 1171h-409v-366h237v-266h-237v-539h-324v539h-237v266h237v366h-407v263h1140v-263z" />
    <glyph glyph-name="tbar" unicode="&#x167;" horiz-adv-x="797" 
d="M752 12q-70 -37 -211 -37q-334 0 -334 347v120h-146v205h146v144h-166v233h166v221l315 90v-311h230v-233h-230v-144h219v-205h-219v-65q0 -160 127 -160q50 0 103 29v-234z" />
    <glyph glyph-name="Utilde" unicode="&#x168;" horiz-adv-x="1481" 
d="M1333 621q0 -646 -602 -646q-584 0 -584 631v828h324v-832q0 -348 272 -348q267 0 267 336v844h323v-813zM1100 1829q0 -140 -55.5 -216.5t-151.5 -76.5q-86 0 -168 43q-89 47 -123 47q-80 0 -80 -108h-141q0 139 55 216t154 77q81 0 168 -49q79 -44 120 -44q78 0 78 111
h144z" />
    <glyph glyph-name="utilde" unicode="&#x169;" horiz-adv-x="1239" 
d="M1106 0h-315v156h-5q-117 -181 -313 -181q-356 0 -356 431v618h315v-590q0 -217 172 -217q85 0 136 59.5t51 161.5v586h315v-1024zM979 1497q0 -140 -55.5 -216.5t-151.5 -76.5q-86 0 -168 43q-89 47 -123 47q-80 0 -80 -108h-141q0 139 55 216t154 77q81 0 168 -49
q79 -44 120 -44q78 0 78 111h144z" />
    <glyph glyph-name="Umacron" unicode="&#x16a;" horiz-adv-x="1481" 
d="M1333 621q0 -646 -602 -646q-584 0 -584 631v828h324v-832q0 -348 272 -348q267 0 267 336v844h323v-813zM1033 1567h-586v172h586v-172z" />
    <glyph glyph-name="umacron" unicode="&#x16b;" horiz-adv-x="1239" 
d="M1106 0h-315v156h-5q-117 -181 -313 -181q-356 0 -356 431v618h315v-590q0 -217 172 -217q85 0 136 59.5t51 161.5v586h315v-1024zM912 1186h-586v172h586v-172z" />
    <glyph glyph-name="Ubreve" unicode="&#x16c;" horiz-adv-x="1481" 
d="M1333 621q0 -646 -602 -646q-584 0 -584 631v828h324v-832q0 -348 272 -348q267 0 267 336v844h323v-813zM1077 1874q-12 -141 -102.5 -224t-237.5 -83q-146 0 -238 85.5t-96 221.5h179q17 -135 159 -135q137 0 156 135h180z" />
    <glyph glyph-name="ubreve" unicode="&#x16d;" horiz-adv-x="1239" 
d="M1106 0h-315v156h-5q-117 -181 -313 -181q-356 0 -356 431v618h315v-590q0 -217 172 -217q85 0 136 59.5t51 161.5v586h315v-1024zM956 1493q-12 -141 -102.5 -224t-237.5 -83q-146 0 -238 85.5t-96 221.5h179q17 -135 159 -135q137 0 156 135h180z" />
    <glyph glyph-name="Uring" unicode="&#x16e;" horiz-adv-x="1481" 
d="M1333 621q0 -646 -602 -646q-584 0 -584 631v828h324v-832q0 -348 272 -348q267 0 267 336v844h323v-813zM736 1567q-102 0 -168.5 59.5t-66.5 155.5q0 101 69.5 161t170.5 60q107 0 173 -59.5t66 -155.5q0 -98 -71.5 -159.5t-172.5 -61.5zM736 1880q-96 0 -96 -94
t96 -94q45 0 74 27.5t29 66.5q0 41 -28.5 67.5t-74.5 26.5z" />
    <glyph glyph-name="uring" unicode="&#x16f;" horiz-adv-x="1239" 
d="M1106 0h-315v156h-5q-117 -181 -313 -181q-356 0 -356 431v618h315v-590q0 -217 172 -217q85 0 136 59.5t51 161.5v586h315v-1024zM615 1186q-102 0 -168.5 59.5t-66.5 155.5q0 101 69.5 161t170.5 60q107 0 173 -59.5t66 -155.5q0 -98 -71.5 -159.5t-172.5 -61.5z
M615 1499q-96 0 -96 -94t96 -94q45 0 74 27.5t29 66.5q0 41 -28.5 67.5t-74.5 26.5z" />
    <glyph glyph-name="Uhungarumlaut" unicode="&#x170;" horiz-adv-x="1481" 
d="M1333 621q0 -646 -602 -646q-584 0 -584 631v828h324v-832q0 -348 272 -348q267 0 267 336v844h323v-813zM1221 1886l-252 -319h-210l213 319h249zM843 1886l-248 -319h-211l211 319h248z" />
    <glyph glyph-name="uhungarumlaut" unicode="&#x171;" horiz-adv-x="1239" 
d="M1106 0h-315v156h-5q-117 -181 -313 -181q-356 0 -356 431v618h315v-590q0 -217 172 -217q85 0 136 59.5t51 161.5v586h315v-1024zM1090 1505l-252 -319h-210l213 319h249zM712 1505l-248 -319h-211l211 319h248z" />
    <glyph glyph-name="Uogonek" unicode="&#x172;" horiz-adv-x="1481" 
d="M1333 621q0 -605 -525 -643q-46 -79 -46 -138q0 -53 58 -53q48 0 118 26v-136q-77 -26 -154 -26q-85 0 -137.5 48.5t-52.5 126.5q0 73 57 153q-504 43 -504 627v828h324v-832q0 -348 272 -348q267 0 267 336v844h323v-813z" />
    <glyph glyph-name="uogonek" unicode="&#x173;" horiz-adv-x="1239" 
d="M1106 0h-155q-59 -90 -59 -160q0 -53 58 -53q48 0 118 26v-136q-77 -26 -154 -26q-85 0 -137.5 48.5t-52.5 126.5q0 84 73 174h-6v156h-5q-117 -181 -313 -181q-356 0 -356 431v618h315v-590q0 -217 172 -217q85 0 136 59.5t51 161.5v586h315v-1024z" />
    <glyph glyph-name="Wcircumflex" unicode="&#x174;" horiz-adv-x="2058" 
d="M2040 1434l-379 -1434h-358l-238 920q-19 72 -23 161h-4q-9 -98 -26 -161l-244 -920h-373l-377 1434h353l202 -955q13 -61 19 -164h6q4 77 29 168l260 951h346l235 -963q13 -53 23 -154h4q4 79 21 160l198 957h326zM1389 1567h-207l-158 188l-147 -188h-207l235 325h248z
" />
    <glyph glyph-name="wcircumflex" unicode="&#x175;" horiz-adv-x="1633" 
d="M1616 1024l-295 -1024h-332l-151 600q-15 60 -17 131h-6q-7 -78 -20 -127l-162 -604h-328l-289 1024h322l141 -668q10 -47 15 -114h6q5 70 18 118l176 664h301l158 -668q6 -25 14 -116h7q5 58 16 116l133 668h293zM1176 1186h-207l-158 188l-147 -188h-207l235 325h248z
" />
    <glyph glyph-name="Ycircumflex" unicode="&#x176;" horiz-adv-x="1243" 
d="M1245 1434l-467 -924v-510h-323v504l-455 930h369l231 -535q6 -15 33 -117h4q13 72 31 113l235 539h342zM981 1567h-207l-158 188l-147 -188h-207l235 325h248z" />
    <glyph glyph-name="ycircumflex" unicode="&#x177;" horiz-adv-x="1102" 
d="M1108 1024l-416 -1106q-150 -399 -452 -399q-115 0 -189 26v252q63 -37 137 -37q122 0 170 115l54 127l-416 1022h350l191 -623q18 -58 28 -137h4q9 58 33 135l193 625h313zM910 1186h-207l-158 188l-147 -188h-207l235 325h248z" />
    <glyph glyph-name="Ydieresis" unicode="&#x178;" horiz-adv-x="1243" 
d="M1245 1434l-467 -924v-510h-323v504l-455 930h369l231 -535q6 -15 33 -117h4q13 72 31 113l235 539h342zM858 1567q-67 0 -110 39t-43 98q0 61 43 99t110 38t110.5 -38.5t43.5 -98.5t-43 -98.5t-111 -38.5zM400 1567q-68 0 -111 39.5t-43 97.5q0 60 44 98.5t110 38.5
q68 0 110.5 -38.5t42.5 -98.5q0 -61 -42.5 -99t-110.5 -38z" />
    <glyph glyph-name="Zacute" unicode="&#x179;" horiz-adv-x="1243" 
d="M1196 0h-1155v186l735 985h-682v263h1100v-181l-719 -991h721v-262zM967 1890l-313 -323h-228l260 323h281z" />
    <glyph glyph-name="zacute" unicode="&#x17a;" horiz-adv-x="981" 
d="M944 0h-919v131l514 660h-463v233h864v-156l-487 -635h491v-233zM836 1509l-313 -323h-228l260 323h281z" />
    <glyph glyph-name="Zdotaccent" unicode="&#x17b;" horiz-adv-x="1243" 
d="M1196 0h-1155v186l735 985h-682v263h1100v-181l-719 -991h721v-262zM641 1567q-67 0 -110.5 40t-43.5 97q0 60 44 97.5t110 37.5q67 0 109.5 -38t42.5 -97t-42.5 -98t-109.5 -39z" />
    <glyph glyph-name="zdotaccent" unicode="&#x17c;" horiz-adv-x="981" 
d="M944 0h-919v131l514 660h-463v233h864v-156l-487 -635h491v-233zM512 1186q-67 0 -110.5 40t-43.5 97q0 60 44 97.5t110 37.5q67 0 109.5 -38t42.5 -97t-42.5 -98t-109.5 -39z" />
    <glyph glyph-name="Zcaron" unicode="&#x17d;" horiz-adv-x="1243" 
d="M1196 0h-1155v186l735 985h-682v263h1100v-181l-719 -991h721v-262zM990 1858l-238 -325h-248l-235 325h205l155 -188l156 188h205z" />
    <glyph glyph-name="zcaron" unicode="&#x17e;" horiz-adv-x="981" 
d="M944 0h-919v131l514 660h-463v233h864v-156l-487 -635h491v-233zM872 1511l-238 -325h-248l-235 325h205l155 -188l156 188h205z" />
    <glyph glyph-name="longs" unicode="&#x17f;" horiz-adv-x="613" 
d="M717 1274q-61 24 -117 24q-151 0 -151 -165v-1133h-316v1151q0 175 114 282t310 107q96 0 160 -20v-246z" />
    <glyph glyph-name="uni0180" unicode="&#x180;" horiz-adv-x="1270" 
d="M453 119h-4v-119h-316v1171h-151v205h151v140h316v-140h233v-205h-233v-301h4q117 179 333 179q198 0 305 -136t107 -372q0 -256 -125 -411t-334 -155q-189 0 -286 144zM444 551v-105q0 -99 57 -164t146 -65q108 0 167.5 83.5t59.5 236.5q0 127 -54.5 198.5t-155.5 71.5
q-95 0 -157.5 -71t-62.5 -185z" />
    <glyph glyph-name="uni0181" unicode="&#x181;" horiz-adv-x="1622" 
d="M471 0v1196h-45q-84 0 -136 -53.5t-52 -134.5q0 -68 22 -136h-287q-24 65 -24 148q0 180 131.5 297t357.5 117h555q240 0 369 -88t129 -248q0 -117 -79 -204t-200 -120v-4q153 -19 244.5 -113t91.5 -229q0 -197 -141 -312.5t-385 -115.5h-551zM795 1196v-340h141
q100 0 157.5 48.5t57.5 133.5q0 158 -236 158h-120zM795 616v-378h174q112 0 175.5 52t63.5 142q0 86 -62.5 135t-174.5 49h-176z" />
    <glyph glyph-name="uni0182" unicode="&#x182;" horiz-adv-x="1315" 
d="M164 0v1434h923v-267h-600v-311h279q228 0 353.5 -106t125.5 -295q0 -216 -133.5 -335.5t-378.5 -119.5h-569zM487 621v-385h189q227 0 227 198q0 187 -215 187h-201z" />
    <glyph glyph-name="uni0183" unicode="&#x183;" horiz-adv-x="1270" 
d="M453 119h-4v-119h-316v1516h920v-205h-604v-441h4q117 179 333 179q198 0 305 -136t107 -372q0 -256 -125 -411t-334 -155q-189 0 -286 144zM444 551v-105q0 -99 57 -164t146 -65q108 0 167.5 83.5t59.5 236.5q0 127 -54.5 198.5t-155.5 71.5q-95 0 -157.5 -71
t-62.5 -185z" />
    <glyph glyph-name="uni0184" unicode="&#x184;" horiz-adv-x="1315" 
d="M164 0v1001l-205 181v26l502 250h26v-602h279q228 0 353.5 -106t125.5 -295q0 -217 -133.5 -336t-378.5 -119h-569zM487 621v-385h189q227 0 227 198q0 187 -215 187h-201z" />
    <glyph glyph-name="uni0185" unicode="&#x185;" horiz-adv-x="1270" 
d="M453 119h-4v-119h-316v1516h316v-646h4q117 179 333 179q198 0 305 -136t107 -372q0 -256 -125 -411t-334 -155q-189 0 -286 144zM444 551v-105q0 -99 57 -164t146 -65q108 0 167.5 83.5t59.5 236.5q0 127 -54.5 198.5t-155.5 71.5q-95 0 -157.5 -71t-62.5 -185z" />
    <glyph glyph-name="uni0186" unicode="&#x186;" horiz-adv-x="1280" 
d="M88 29v311q145 -86 328 -86q202 0 326 127t124 344q0 208 -117 331.5t-315 123.5q-187 0 -346 -93v295q158 76 410 76q330 0 519 -193.5t189 -516.5q0 -345 -213 -559t-551 -214q-207 0 -354 54z" />
    <glyph glyph-name="uni0187" unicode="&#x187;" horiz-adv-x="1280" 
d="M1434 1386q-52 27 -101 27q-68 0 -106.5 -49t-38.5 -129q0 -77 12 -141l-8 -7q-178 93 -358 93q-194 0 -307 -128t-113 -343q0 -208 117 -331.5t315 -123.5q189 0 346 92v-295q-157 -76 -410 -76q-330 0 -519 194t-189 517q0 344 208.5 558t539.5 214q83 0 165 -24
q28 99 112.5 161t201.5 62q74 0 133 -23v-248z" />
    <glyph glyph-name="uni0188" unicode="&#x188;" horiz-adv-x="985" 
d="M1139 1001q-44 23 -90 23q-64 0 -102 -48.5t-38 -121.5q0 -57 9 -111l-9 -6q-105 70 -225 70q-135 0 -213 -79t-78 -220q0 -136 76 -213.5t209 -77.5q118 0 231 74v-254q-107 -62 -309 -62q-236 0 -382 143t-146 369q0 261 155 411.5t416 150.5q45 0 94 -9
q20 86 99.5 146.5t181.5 60.5q69 0 121 -20v-226z" />
    <glyph glyph-name="uni0189" unicode="&#x189;" horiz-adv-x="1510" 
d="M164 0v586h-164v266h164v582h508q764 0 764 -699q0 -335 -208.5 -535t-555.5 -200h-508zM487 1171v-319h271v-266h-271v-324h160q210 0 329.5 126t119.5 343q0 205 -118.5 322.5t-332.5 117.5h-158z" />
    <glyph glyph-name="uni018A" unicode="&#x18a;" horiz-adv-x="1817" 
d="M471 0v1171h-45q-85 0 -136.5 -49t-51.5 -125q0 -62 22 -125h-287q-24 65 -24 148q0 175 133 294.5t356 119.5h541q764 0 764 -699q0 -335 -208.5 -535t-555.5 -200h-508zM795 1171v-909h159q210 0 329.5 126t119.5 343q0 205 -118.5 322.5t-332.5 117.5h-157z" />
    <glyph glyph-name="uni018B" unicode="&#x18b;" horiz-adv-x="1315" 
d="M1151 0h-602q-228 0 -353.5 106t-125.5 295q0 217 133.5 336t378.5 119h245v311h-600v267h924v-1434zM827 236v385h-188q-108 0 -167.5 -53t-59.5 -146q0 -186 215 -186h200z" />
    <glyph glyph-name="uni018C" unicode="&#x18c;" horiz-adv-x="1270" 
d="M1137 0h-316v141h-4q-108 -166 -317 -166q-192 0 -310 135.5t-118 378.5q0 254 129 407t338 153q200 0 278 -142h4v404h-604v205h920v-1516zM825 498v77q0 100 -58 166t-151 66q-105 0 -164 -82.5t-59 -226.5q0 -135 57 -208t158 -73q96 0 156.5 77t60.5 204z" />
    <glyph glyph-name="uni018D" unicode="&#x18d;" horiz-adv-x="1252" 
d="M874 127q160 -114 160 -274q0 -145 -129.5 -239.5t-320.5 -94.5q-195 0 -363 82v286q156 -116 338 -116q152 0 152 92q0 43 -45.5 78.5t-227.5 124.5q-366 179 -366 479q0 221 152 362.5t413 141.5q251 0 397 -136.5t146 -349.5q0 -261 -306 -436zM858 559
q0 111 -62.5 179.5t-168.5 68.5t-170 -70t-64 -178q0 -82 51 -150t203 -151q211 115 211 301z" />
    <glyph glyph-name="uni018E" unicode="&#x18e;" horiz-adv-x="1090" 
d="M926 0h-860v262h536v322h-469v264h469v323h-504v263h828v-1434z" />
    <glyph glyph-name="uni018F" unicode="&#x18f;" horiz-adv-x="1557" 
d="M78 850h1055q-60 344 -447 344q-214 0 -444 -152v287q207 129 491 129q361 0 555.5 -190t194.5 -533q0 -339 -198.5 -549.5t-524.5 -210.5q-306 0 -494 201t-188 531v143zM1133 594h-705q17 -165 106.5 -259.5t227.5 -94.5q146 0 244 95t127 259z" />
    <glyph glyph-name="uni0190" unicode="&#x190;" horiz-adv-x="1143" 
d="M1071 43q-168 -68 -379 -68q-294 0 -454 110.5t-160 311.5q0 132 76 225.5t213 129.5v6q-240 77 -240 301q0 184 155.5 291.5t426.5 107.5q181 0 338 -61v-283q-149 66 -318 66q-264 0 -264 -158t303 -158h119v-268h-129q-177 0 -258.5 -39t-81.5 -133q0 -170 301 -170
q194 0 352 74v-285z" />
    <glyph glyph-name="uni0191" unicode="&#x191;" horiz-adv-x="1067" 
d="M993 1171h-506v-352h465v-262h-465v-504q0 -219 -116 -341t-320 -122q-90 0 -164 27v279q56 -27 119 -27q158 0 158 188v1377h829v-263z" />
    <glyph glyph-name="florin" unicode="&#x192;" horiz-adv-x="1178" 
d="M1044 1174q-64 30 -133 30q-124 0 -147 -137l-23 -137h158v-215h-192l-91 -594q-30 -196 -140 -311t-277 -115q-50 0 -121 20v242q39 -20 92 -20q123 0 154 202l88 576h-105v215h142l22 149q25 167 135 267t279 100q82 0 159 -23v-249z" />
    <glyph glyph-name="uni0193" unicode="&#x193;" horiz-adv-x="1458" 
d="M1513 1386q-52 27 -100 27q-68 0 -106.5 -49t-38.5 -129q0 -77 12 -141l-8 -7q-185 101 -404 101q-201 0 -326.5 -130t-125.5 -349q0 -222 113 -342.5t305 -120.5q116 0 184 33v280h-287v258h610v-721q-210 -121 -522 -121q-346 0 -545.5 191.5t-199.5 527.5
q0 338 217.5 551t578.5 213q115 0 197 -24q28 99 112.5 161t201.5 62q73 0 132 -23v-248z" />
    <glyph glyph-name="uni0194" unicode="&#x194;" horiz-adv-x="1368" 
d="M1358 1434l-461 -1145l37 -60q133 -216 133 -364q0 -142 -109 -244t-280 -102q-169 0 -273 100.5t-104 245.5q0 75 26.5 146t108.5 212l35 60l-461 1151h357l262 -736q18 -51 57 -202h4q16 63 60 202l264 736h344zM684 59q-72 -126 -72 -186q0 -100 72 -100t72 100
q0 61 -72 186z" />
    <glyph glyph-name="uni0195" unicode="&#x195;" horiz-adv-x="1913" 
d="M449 0h-316v1516h316v-644h4q116 177 315 177q348 0 348 -420v-150q0 -252 187 -252q90 0 141 67.5t51 186.5q0 247 -129 543h326q118 -271 118 -539q0 -240 -138 -375t-382 -135q-239 0 -364 124t-125 356v127q0 225 -164 225q-84 0 -136 -63t-52 -160v-584z" />
    <glyph glyph-name="uni0196" unicode="&#x196;" horiz-adv-x="772" 
d="M731 12q-101 -37 -213 -37q-354 0 -354 424v1035h323v-1010q0 -170 140 -170q56 0 104 29v-271z" />
    <glyph glyph-name="uni0197" unicode="&#x197;" horiz-adv-x="733" 
d="M692 584h-164v-584h-323v584h-164v278h164v572h323v-572h164v-278z" />
    <glyph glyph-name="uni0198" unicode="&#x198;" horiz-adv-x="1329" 
d="M1356 0h-408l-420 618q-8 12 -36 72h-5v-690h-323v1434h323v-666h5q16 32 36 63l201 308q131 201 218 260t202 59q70 0 137 -26v-283q-48 31 -100 31q-82 0 -189 -160l-184 -277z" />
    <glyph glyph-name="uni0199" unicode="&#x199;" horiz-adv-x="1145" 
d="M1159 0h-379l-327 508h-4v-508h-316v1137q0 403 379 403q93 0 168 -24v-242q-48 24 -107 24q-124 0 -124 -161v-586h4l305 473h375l-367 -481z" />
    <glyph glyph-name="uni019A" unicode="&#x19a;" horiz-adv-x="668" 
d="M647 688h-155v-688h-316v688h-156v205h156v623h316v-623h155v-205z" />
    <glyph glyph-name="uni019B" unicode="&#x19b;" horiz-adv-x="1125" 
d="M1102 0h-330l-199 709l-229 -709h-338l443 1012l-224 -109l-73 146l241 116q-45 84 -133 84q-69 0 -141 -37v271q77 26 198 26q233 0 345 -217l194 94l70 -143l-205 -98z" />
    <glyph glyph-name="uni019C" unicode="&#x19c;" horiz-adv-x="1991" 
d="M1827 0h-324v188h-4q-51 -95 -141.5 -154t-198.5 -59q-215 0 -305 220q-120 -220 -352 -220q-342 0 -342 476v983h323v-922q0 -258 168 -258q79 0 129.5 75.5t50.5 192.5v912h324v-930q0 -250 166 -250q82 0 132 73.5t50 200.5v906h324v-1434z" />
    <glyph glyph-name="uni019D" unicode="&#x19d;" horiz-adv-x="1618" 
d="M1454 0h-326l-591 901q-52 79 -72 119h-4q8 -76 8 -232v-729q0 -220 -110 -341t-308 -121q-93 0 -164 26v279q56 -27 119 -27q158 0 158 188v1371h348l569 -873q39 -59 72 -117h4q-8 50 -8 197v793h305v-1434z" />
    <glyph glyph-name="uni019E" unicode="&#x19e;" horiz-adv-x="1235" 
d="M1122 -471h-317v1040q0 238 -168 238q-82 0 -135 -63t-53 -160v-584h-316v1024h316v-162h4q113 187 329 187q340 0 340 -422v-1098z" />
    <glyph glyph-name="uni019F" unicode="&#x19f;" horiz-adv-x="1553" 
d="M770 -25q-308 0 -502 200.5t-194 522.5q0 340 197 550t522 210q307 0 496.5 -201t189.5 -530q0 -338 -196.5 -545t-512.5 -207zM1128 838q-26 164 -115.5 253t-228.5 89q-142 0 -236 -91t-122 -251h702zM1130 594h-704q26 -160 120 -250t230 -90q142 0 235.5 89
t118.5 251z" />
    <glyph glyph-name="Ohorn" unicode="&#x1a0;" horiz-adv-x="1592" 
d="M1327 1212q152 -195 152 -485q0 -338 -196.5 -545t-512.5 -207q-308 0 -502 200.5t-194 522.5q0 340 197 550t522 210q198 0 351 -87q58 -14 91 -14q191 0 191 131q0 50 -18 111h192q23 -69 23 -135q0 -120 -67.5 -187t-192.5 -67q-6 0 -18 1zM784 1180
q-170 0 -270 -127.5t-100 -337.5q0 -213 100 -337t262 -124q167 0 265 120.5t98 334.5q0 223 -95 347t-260 124z" />
    <glyph glyph-name="ohorn" unicode="&#x1a1;" horiz-adv-x="1290" 
d="M1043 897q137 -142 137 -371q0 -255 -149.5 -403t-409.5 -148q-256 0 -402.5 143.5t-146.5 389.5q0 254 152 397.5t411 143.5q68 0 153 -15q57 -10 110 -10q177 0 177 141q0 50 -18 111h192q23 -69 23 -131q0 -226 -229 -248zM629 807q-112 0 -174 -77t-62 -218
q0 -295 238 -295q227 0 227 303q0 287 -229 287z" />
    <glyph glyph-name="uni01A2" unicode="&#x1a2;" horiz-adv-x="2165" 
d="M2001 0h-324v1118q-83 -12 -166 -12q-81 0 -174 10v-1020q-210 -121 -532 -121q-338 0 -534.5 193.5t-196.5 529.5q0 337 207 548.5t546 211.5q131 0 348 -39q218 -39 353 -39q256 0 473 78v-1458zM1014 279v884q-120 17 -193 17q-187 0 -296 -128.5t-109 -340.5
q0 -220 110.5 -342.5t292.5 -122.5q127 0 195 33z" />
    <glyph glyph-name="uni01A3" unicode="&#x1a3;" horiz-adv-x="1745" 
d="M1612 0h-307v750q-60 -7 -105 -7q-77 0 -162 11v-693q-181 -86 -413 -86q-263 0 -408 141t-145 390t157 396t414 147q135 0 298 -32t271 -32q214 0 400 64v-1049zM731 227v576q-39 4 -94 4q-115 0 -182.5 -78.5t-67.5 -216.5q0 -141 67 -218t185 -77q56 0 92 10z" />
    <glyph glyph-name="uni01A4" unicode="&#x1a4;" horiz-adv-x="1567" 
d="M795 494v-494h-324v1186h-45q-86 0 -137 -54t-51 -135q0 -62 22 -125h-287q-24 65 -24 148q0 175 133 294.5t356 119.5h539q543 0 543 -457q0 -216 -155.5 -349.5t-416.5 -133.5h-153zM795 1186v-447h127q258 0 258 226q0 221 -258 221h-127z" />
    <glyph glyph-name="uni01A5" unicode="&#x1a5;" horiz-adv-x="1270" 
d="M453 119h-4v-590h-316v1608q0 403 379 403q93 0 168 -24v-242q-48 24 -107 24q-124 0 -124 -161v-267h4q117 179 329 179q199 0 307.5 -136.5t108.5 -371.5q0 -256 -126.5 -411t-336.5 -155q-185 0 -282 144zM444 539v-82q0 -106 56 -173t147 -67q108 0 167.5 83.5
t59.5 236.5q0 270 -210 270q-97 0 -158.5 -73.5t-61.5 -194.5z" />
    <glyph glyph-name="uni01A6" unicode="&#x1a6;" horiz-adv-x="1303" 
d="M1278 -195h-371l-157 385q-78 191 -211 191h-52v-381h-323v1434h323v-195h181q524 0 524 -387q0 -279 -322 -369v-4q131 -60 209 -233zM487 993v-368h131q110 0 171 49.5t61 134.5q0 184 -229 184h-134z" />
    <glyph glyph-name="uni01A7" unicode="&#x1a7;" horiz-adv-x="1100" 
d="M993 362v-307q-148 -80 -389 -80q-264 0 -404.5 112.5t-140.5 305.5q0 132 83 235t294 208q142 71 182.5 116t40.5 107q0 65 -54.5 105t-147.5 40q-189 0 -328 -96v285q139 65 348 65q239 0 383 -114.5t144 -301.5q0 -266 -332 -430q-177 -88 -217.5 -136t-40.5 -101
q0 -146 200 -146q223 0 379 133z" />
    <glyph glyph-name="uni01A8" unicode="&#x1a8;" horiz-adv-x="901" 
d="M807 33q-133 -58 -326 -58q-200 0 -310 78.5t-110 216.5q0 230 277 343q112 46 136 70.5t24 59.5q0 91 -127 91q-128 0 -248 -70v240q115 45 256 45q206 0 317 -80.5t111 -229.5q0 -101 -51.5 -171.5t-190.5 -133.5q-123 -56 -161.5 -87t-38.5 -69q0 -88 149 -88
q161 0 293 86v-243z" />
    <glyph glyph-name="uni01A9" unicode="&#x1a9;" horiz-adv-x="1165" 
d="M1125 0h-1083v172l462 554l-437 523v185h996v-265h-540l353 -429l-384 -480h633v-260z" />
    <glyph glyph-name="uni01AA" unicode="&#x1aa;" horiz-adv-x="934" 
d="M934 -444q-70 -37 -211 -37q-334 0 -334 346v1022q-80 -33 -170 -33q-145 0 -243.5 94t-98.5 242q0 153 109.5 251.5t283.5 98.5q208 0 321.5 -120.5t113.5 -342.5v-1157q0 -160 126 -160q55 0 103 29v-233zM389 1124v15q0 164 -127 164q-49 0 -77.5 -29.5t-28.5 -73.5
q0 -46 31.5 -75t80.5 -29q67 0 121 28z" />
    <glyph glyph-name="uni01AB" unicode="&#x1ab;" horiz-adv-x="797" 
d="M752 -29q0 -169 -104.5 -275t-264.5 -106q-83 0 -156 31v225q61 -32 131 -32q152 0 152 161q-144 0 -223.5 91.5t-79.5 255.5v469h-166v233h166v221l313 90v-311h232v-233h-232v-414q0 -160 129 -160q50 0 103 29v-275z" />
    <glyph glyph-name="uni01AC" unicode="&#x1ac;" horiz-adv-x="1305" 
d="M1274 1171h-410v-1171h-323v1171h-92q-87 0 -139 -46.5t-52 -120.5q0 -54 16 -109h-274q-20 64 -20 131q0 182 126.5 295t354.5 113h813v-263z" />
    <glyph glyph-name="uni01AD" unicode="&#x1ad;" horiz-adv-x="797" 
d="M752 12q-70 -37 -211 -37q-334 0 -334 347v469h-166v233h166v109q0 189 92 298t256 109q106 0 197 -35v-237q-54 30 -107 30q-125 0 -125 -174v-100h232v-233h-232v-414q0 -160 129 -160q50 0 103 29v-234z" />
    <glyph glyph-name="uni01AE" unicode="&#x1ae;" horiz-adv-x="1202" 
d="M1171 1171h-409v-1114q0 -188 158 -188q62 0 118 27v-273q-82 -33 -178 -33q-204 0 -313 119t-109 338v1124h-407v263h1140v-263z" />
    <glyph glyph-name="Uhorn" unicode="&#x1af;" horiz-adv-x="1604" 
d="M1333 1289v-668q0 -646 -602 -646q-584 0 -584 631v828h324v-832q0 -348 272 -348q267 0 267 336v844h301q64 0 103.5 42t39.5 105q0 44 -18 105h190q19 -57 19 -119q0 -120 -82.5 -196t-229.5 -82z" />
    <glyph glyph-name="uhorn" unicode="&#x1b0;" horiz-adv-x="1368" 
d="M1106 890v-890h-315v156h-5q-117 -181 -313 -181q-356 0 -356 431v618h315v-590q0 -217 172 -217q85 0 136 59.5t51 161.5v586h288q125 0 125 148q0 43 -18 104h184q16 -48 16 -117q0 -117 -73.5 -189.5t-206.5 -79.5z" />
    <glyph glyph-name="uni01B1" unicode="&#x1b1;" horiz-adv-x="1567" 
d="M1485 1174h-340q338 -196 338 -570q0 -285 -195.5 -457t-503.5 -172q-316 0 -509 173.5t-193 451.5q0 381 348 574h-348v260h602v-260q-262 -226 -262 -525q0 -180 101.5 -288.5t254.5 -108.5q159 0 262 108t103 299q0 282 -258 515v260h600v-260z" />
    <glyph glyph-name="uni01B2" unicode="&#x1b2;" horiz-adv-x="1602" 
d="M164 1434h323v-816q0 -364 289 -364q184 0 299 152t115 393q0 184 -63.5 286.5t-178.5 102.5q-88 0 -164 -35v272q98 33 207 33q248 0 388.5 -171.5t140.5 -477.5q0 -355 -212 -594.5t-546 -239.5q-598 0 -598 627v832z" />
    <glyph glyph-name="uni01B3" unicode="&#x1b3;" horiz-adv-x="1268" 
d="M1268 1434l-467 -924v-510h-324v504l-241 504q-82 172 -189 172q-48 0 -98 -29v281q71 26 151 26q145 0 235.5 -66.5t162.5 -222.5l125 -270q3 -6 32 -117h4q13 72 31 113l236 539h342z" />
    <glyph glyph-name="uni01B4" unicode="&#x1b4;" horiz-adv-x="1219" 
d="M1249 774q-58 33 -120 33q-103 0 -173 -189l-258 -702q-146 -397 -458 -397q-115 0 -189 26v252q63 -37 137 -37q123 0 177 129l47 113l-416 1022h350l191 -623q18 -58 28 -137h4q13 78 31 135l86 265q67 207 162.5 296t245.5 89q81 0 155 -27v-248z" />
    <glyph glyph-name="uni01B5" unicode="&#x1b5;" horiz-adv-x="1243" 
d="M1196 0h-1155v186l307 412h-176v262h373l231 311h-682v263h1100v-181l-285 -393h221v-262h-411l-244 -336h721v-262z" />
    <glyph glyph-name="uni01B6" unicode="&#x1b6;" horiz-adv-x="981" 
d="M944 0h-919v131l225 289h-113v194h264l138 177h-463v233h864v-156l-195 -254h138v-194h-287l-143 -187h491v-233z" />
    <glyph glyph-name="uni01B7" unicode="&#x1b7;" horiz-adv-x="1370" 
d="M41 -362v319q213 -160 487 -160q196 0 312 92t116 246q0 157 -129.5 244.5t-361.5 87.5h-143v186l460 518h-725v263h1155v-181l-477 -538q258 -38 409.5 -190.5t151.5 -383.5q0 -274 -216.5 -448t-551.5 -174q-260 0 -487 119z" />
    <glyph glyph-name="uni01B8" unicode="&#x1b8;" horiz-adv-x="1370" 
d="M1329 -362q-231 -119 -504 -119q-333 0 -542 166.5t-209 435.5q0 231 154.5 392t406.5 202l-477 538v181h1155v-263h-719l455 -518v-186h-144q-232 0 -361.5 -87.5t-129.5 -244.5q0 -154 116 -246t312 -92q291 0 487 148v-307z" />
    <glyph glyph-name="uni01B9" unicode="&#x1b9;" horiz-adv-x="1016" 
d="M1038 -387q-181 -94 -407 -94q-276 0 -443.5 127t-167.5 340q0 173 118 299t317 170l-363 413v156h914v-233h-533l346 -408v-131h-125q-167 0 -261.5 -66.5t-94.5 -181.5q0 -113 86.5 -178.5t230.5 -65.5q224 0 383 115v-262z" />
    <glyph glyph-name="uni01BA" unicode="&#x1ba;" horiz-adv-x="912" 
d="M723 -180v-246q-150 -55 -324 -55q-201 0 -315.5 75t-114.5 209q0 118 74.5 197.5t247.5 138.5q160 54 204 90t44 84q0 67 -59.5 92t-190.5 25h-84v141l229 230h-403v223h790v-166l-266 -252q305 -42 305 -287q0 -134 -90.5 -223t-323.5 -162q-125 -39 -151.5 -61.5
t-26.5 -52.5q0 -72 158 -72q149 0 297 72z" />
    <glyph glyph-name="uni01BB" unicode="&#x1bb;" horiz-adv-x="1178" 
d="M1053 0h-944v246l266 293h-182v241h397q112 137 112 234q0 192 -215 192q-181 0 -350 -147v278q187 121 398 121q222 0 355.5 -113t133.5 -294q0 -124 -113 -271h142v-241h-338l-244 -271v-6h582v-262z" />
    <glyph glyph-name="uni01BC" unicode="&#x1bc;" horiz-adv-x="1178" 
d="M164 37v270q147 -90 313 -90q125 0 195.5 59.5t70.5 161.5q0 100 -79.5 156.5t-225.5 56.5q-80 0 -248 -18l98 543h-157v258h868v-258h-438l-51 -287q63 6 94 6q215 0 338 -117t123 -311q0 -217 -149 -354.5t-404 -137.5q-207 0 -348 62z" />
    <glyph glyph-name="uni01BD" unicode="&#x1bd;" horiz-adv-x="910" 
d="M102 16v230q117 -56 242 -56q182 0 182 117t-213 117q-102 0 -190 -16l43 387h-115v229h766v-229h-389l-16 -160q56 6 88 6q162 0 255 -82t93 -221q0 -160 -120.5 -261.5t-330.5 -101.5q-170 0 -295 41z" />
    <glyph glyph-name="uni01BE" unicode="&#x1be;" horiz-adv-x="901" 
d="M100 27v256q156 -93 293 -93q150 0 150 93q0 29 -19 54.5t-121 73.5q-130 61 -181.5 132t-51.5 180v68h-135v233h135v221l315 90v-311h230v-233h-230v-43q0 -36 22 -63t105 -68q134 -67 184 -137.5t50 -172.5q0 -153 -118.5 -242.5t-330.5 -89.5q-159 0 -297 52z" />
    <glyph glyph-name="uni01BF" unicode="&#x1bf;" horiz-adv-x="1225" 
d="M449 -55v-416h-316v1495h316v-106h4q126 131 331 131q175 0 282.5 -115.5t107.5 -300.5q0 -229 -197.5 -414t-527.5 -274zM449 674v-453q192 63 297.5 165.5t105.5 223.5q0 79 -48 132t-124 53q-109 0 -231 -121z" />
    <glyph glyph-name="uni01C0" unicode="&#x1c0;" horiz-adv-x="668" 
d="M461 -481h-252v2048h252v-2048z" />
    <glyph glyph-name="uni01C1" unicode="&#x1c1;" horiz-adv-x="1127" 
d="M920 -481h-252v2048h252v-2048zM461 -481h-252v2048h252v-2048z" />
    <glyph glyph-name="uni01C2" unicode="&#x1c2;" horiz-adv-x="1059" 
d="M997 233h-342v-714h-252v714h-342v234h342v268h-342v234h342v598h252v-598h342v-234h-342v-268h342v-234z" />
    <glyph glyph-name="uni01C3" unicode="&#x1c3;" horiz-adv-x="670" 
d="M500 1434l-39 -988h-256l-37 988h332zM336 -23q-80 0 -132 48.5t-52 117.5q0 72 52.5 118t131.5 46q80 0 131 -46.5t51 -117.5q0 -72 -50.5 -119t-131.5 -47z" />
    <glyph glyph-name="uni01C4" unicode="&#x1c4;" horiz-adv-x="2661" 
d="M164 0v1434h508q764 0 764 -699q0 -335 -208.5 -535t-555.5 -200h-508zM487 1171v-909h160q210 0 329.5 126t119.5 343q0 205 -118.5 322.5t-332.5 117.5h-158zM2613 0h-1155v186l735 985h-682v263h1100v-181l-719 -991h721v-262zM2430 1891l-238 -325h-248l-235 325h205
l155 -188l156 188h205z" />
    <glyph glyph-name="uni01C5" unicode="&#x1c5;" horiz-adv-x="2476" 
d="M164 0v1434h508q764 0 764 -699q0 -335 -208.5 -535t-555.5 -200h-508zM487 1171v-909h160q210 0 329.5 126t119.5 343q0 205 -118.5 322.5t-332.5 117.5h-158zM2439 0h-919v131l514 660h-463v233h864v-156l-487 -635h491v-233zM2382 1511l-238 -325h-248l-235 325h205
l155 -188l156 188h205z" />
    <glyph glyph-name="uni01C6" unicode="&#x1c6;" horiz-adv-x="2224" 
d="M1135 0h-316v141h-4q-108 -166 -317 -166q-192 0 -309 135.5t-117 378.5q0 254 129 407t338 153q198 0 276 -142h4v609h316v-1516zM825 498v77q0 100 -58 166t-151 66q-105 0 -164 -82.5t-59 -226.5q0 -135 57 -208t158 -73q96 0 156.5 77t60.5 204zM2187 0h-919v131
l514 660h-463v233h864v-156l-487 -635h491v-233zM2131 1511l-238 -325h-248l-235 325h205l155 -188l156 188h205z" />
    <glyph glyph-name="uni01C7" unicode="&#x1c7;" horiz-adv-x="1958" 
d="M1808 569q0 -288 -133.5 -441t-386.5 -153q-113 0 -209 39v303q83 -63 187 -63q221 0 221 328v852h321v-865zM997 0h-833v1434h323v-1172h510v-262z" />
    <glyph glyph-name="uni01C8" unicode="&#x1c8;" horiz-adv-x="1606" 
d="M1317 1186q-80 0 -131 47.5t-51 116.5q0 71 51 116t131 45q81 0 131.5 -45t50.5 -116q0 -72 -50.5 -118t-131.5 -46zM997 0h-833v1434h323v-1172h510v-262zM1473 18q0 -227 -111 -363t-320 -136q-69 0 -151 30v248q66 -37 117 -37q149 0 149 234v1030h316v-1006z" />
    <glyph glyph-name="uni01C9" unicode="&#x1c9;" horiz-adv-x="1164" 
d="M449 0h-316v1516h316v-1516zM874 1186q-80 0 -131 47.5t-51 116.5q0 71 51 116t131 45q81 0 131.5 -45t50.5 -116q0 -72 -50.5 -118t-131.5 -46zM1030 18q0 -227 -111 -363t-320 -136q-69 0 -151 30v248q66 -37 117 -37q149 0 149 234v1030h316v-1006z" />
    <glyph glyph-name="uni01CA" unicode="&#x1ca;" horiz-adv-x="2466" 
d="M1454 0h-326l-591 901q-52 79 -72 119h-4q8 -76 8 -232v-788h-305v1434h348l569 -873q39 -59 72 -117h4q-8 50 -8 197v793h305v-1434zM2316 569q0 -288 -133.5 -441t-386.5 -153q-113 0 -209 39v303q83 -63 186 -63q221 0 221 328v852h322v-865z" />
    <glyph glyph-name="uni01CB" unicode="&#x1cb;" horiz-adv-x="2169" 
d="M1454 0h-326l-591 901q-52 79 -72 119h-4q8 -76 8 -232v-788h-305v1434h348l569 -873q39 -59 72 -117h4q-8 50 -8 197v793h305v-1434zM1880 1186q-80 0 -131 47.5t-51 116.5q0 71 51 116t131 45q81 0 131.5 -45t50.5 -116q0 -72 -50.5 -118t-131.5 -46zM2036 18
q0 -227 -111 -363t-320 -136q-69 0 -151 30v248q66 -37 117 -37q149 0 149 234v1030h316v-1006z" />
    <glyph glyph-name="uni01CC" unicode="&#x1cc;" horiz-adv-x="1837" 
d="M1122 0h-315v569q0 238 -170 238q-82 0 -135 -63t-53 -160v-584h-316v1024h316v-162h4q113 187 329 187q340 0 340 -422v-627zM1549 1186q-80 0 -131 47.5t-51 116.5q0 71 51 116t131 45q81 0 131.5 -45t50.5 -116q0 -72 -50.5 -118t-131.5 -46zM1705 18
q0 -227 -111 -363t-320 -136q-69 0 -151 30v248q66 -37 117 -37q149 0 149 234v1030h316v-1006z" />
    <glyph glyph-name="uni01CD" unicode="&#x1cd;" horiz-adv-x="1440" 
d="M1425 0h-352l-102 319h-510l-101 -319h-350l522 1434h383zM897 567l-154 482q-17 54 -24 129h-8q-5 -63 -25 -125l-156 -486h367zM1081 1883l-238 -325h-248l-235 325h205l155 -188l156 188h205z" />
    <glyph glyph-name="uni01CE" unicode="&#x1ce;" horiz-adv-x="1102" 
d="M985 0h-299v147h-4q-103 -172 -305 -172q-149 0 -234.5 84.5t-85.5 225.5q0 298 353 344l278 37q0 168 -182 168q-183 0 -348 -109v238q66 34 180.5 60t208.5 26q438 0 438 -437v-612zM688 416v69l-186 -24q-154 -20 -154 -139q0 -54 37.5 -88.5t101.5 -34.5
q89 0 145 61.5t56 155.5zM895 1499l-238 -325h-248l-235 325h205l155 -188l156 188h205z" />
    <glyph glyph-name="uni01CF" unicode="&#x1cf;" horiz-adv-x="649" 
d="M487 0h-323v1434h323v-1434zM688 1883l-238 -325h-248l-235 325h205l155 -188l156 188h205z" />
    <glyph glyph-name="uni01D0" unicode="&#x1d0;" horiz-adv-x="582" 
d="M449 0h-316v1024h316v-1024zM651 1499l-238 -325h-248l-235 325h205l155 -188l156 188h205z" />
    <glyph glyph-name="uni01D1" unicode="&#x1d1;" horiz-adv-x="1553" 
d="M770 -25q-308 0 -502 200.5t-194 522.5q0 340 197 550t522 210q307 0 496.5 -201t189.5 -530q0 -338 -196.5 -545t-512.5 -207zM784 1180q-170 0 -270 -127.5t-100 -337.5q0 -213 100 -337t262 -124q167 0 265 120.5t98 334.5q0 223 -95 347t-260 124zM1137 1883
l-238 -325h-248l-235 325h205l155 -188l156 188h205z" />
    <glyph glyph-name="uni01D2" unicode="&#x1d2;" horiz-adv-x="1252" 
d="M621 -25q-256 0 -402.5 143.5t-146.5 389.5q0 254 152 397.5t411 143.5q255 0 400 -143.5t145 -379.5q0 -255 -149.5 -403t-409.5 -148zM629 807q-112 0 -174 -77t-62 -218q0 -295 238 -295q227 0 227 303q0 287 -229 287zM987 1499l-238 -325h-248l-235 325h205
l155 -188l156 188h205z" />
    <glyph glyph-name="uni01D3" unicode="&#x1d3;" horiz-adv-x="1481" 
d="M1333 621q0 -646 -602 -646q-584 0 -584 631v828h324v-832q0 -348 272 -348q267 0 267 336v844h323v-813zM1137 1883l-238 -325h-248l-235 325h205l155 -188l156 188h205z" />
    <glyph glyph-name="uni01D4" unicode="&#x1d4;" horiz-adv-x="1239" 
d="M1106 0h-315v156h-5q-117 -181 -313 -181q-356 0 -356 431v618h315v-590q0 -217 172 -217q85 0 136 59.5t51 161.5v586h315v-1024zM981 1499l-238 -325h-248l-235 325h205l155 -188l156 188h205z" />
    <glyph glyph-name="uni01D5" unicode="&#x1d5;" horiz-adv-x="1481" 
d="M1333 621q0 -646 -602 -646q-584 0 -584 631v828h324v-832q0 -348 272 -348q267 0 267 336v844h323v-813zM1035 1913h-586v172h586v-172zM941 1627q-52 0 -86 30.5t-34 76.5q0 47 33.5 77t86.5 30t87 -30t34 -77t-33 -77t-88 -30zM543 1627q-53 0 -87 31t-34 76
q0 47 34.5 77t86.5 30q53 0 87 -30t34 -77t-33 -77t-88 -30z" />
    <glyph glyph-name="uni01D6" unicode="&#x1d6;" horiz-adv-x="1239" 
d="M1106 0h-315v156h-5q-117 -181 -313 -181q-356 0 -356 431v618h315v-590q0 -217 172 -217q85 0 136 59.5t51 161.5v586h315v-1024zM914 1534h-586v172h586v-172zM820 1248q-52 0 -86 30.5t-34 76.5q0 47 33.5 77t86.5 30t87 -30t34 -77t-33 -77t-88 -30zM422 1248
q-53 0 -87 31t-34 76q0 47 34.5 77t86.5 30q53 0 87 -30t34 -77t-33 -77t-88 -30z" />
    <glyph glyph-name="uni01D7" unicode="&#x1d7;" horiz-adv-x="1481" 
d="M1333 621q0 -646 -602 -646q-584 0 -584 631v828h324v-832q0 -348 272 -348q267 0 267 336v844h323v-813zM1118 2184l-313 -323h-227l260 323h280zM922 1575q-52 0 -86 30.5t-34 76.5q0 47 33.5 77t86.5 30t87 -30t34 -77t-33 -77t-88 -30zM483 1575q-53 0 -87 31t-34 76
q0 47 34.5 77t86.5 30q53 0 87 -30t34 -77t-33 -77t-88 -30z" />
    <glyph glyph-name="uni01D8" unicode="&#x1d8;" horiz-adv-x="1239" 
d="M1106 0h-315v156h-5q-117 -181 -313 -181q-356 0 -356 431v618h315v-590q0 -217 172 -217q85 0 136 59.5t51 161.5v586h315v-1024zM998 1805l-313 -323h-227l260 323h280zM802 1196q-52 0 -86 30.5t-34 76.5q0 47 33.5 77t86.5 30t87 -30t34 -77t-33 -77t-88 -30z
M363 1196q-53 0 -87 31t-34 76q0 47 34.5 77t86.5 30q53 0 87 -30t34 -77t-33 -77t-88 -30z" />
    <glyph glyph-name="uni01D9" unicode="&#x1d9;" horiz-adv-x="1481" 
d="M1333 621q0 -646 -602 -646q-584 0 -584 631v828h324v-832q0 -348 272 -348q267 0 267 336v844h323v-813zM1096 2188l-238 -325h-248l-235 325h204l156 -188l156 188h205zM934 1577q-52 0 -86 30.5t-34 76.5q0 47 33.5 77t86.5 30t87 -30t34 -77t-33 -77t-88 -30z
M536 1577q-53 0 -87 31t-34 76q0 47 34.5 77t86.5 30q53 0 87 -30t34 -77t-33 -77t-88 -30z" />
    <glyph glyph-name="uni01DA" unicode="&#x1da;" horiz-adv-x="1239" 
d="M1106 0h-315v156h-5q-117 -181 -313 -181q-356 0 -356 431v618h315v-590q0 -217 172 -217q85 0 136 59.5t51 161.5v586h315v-1024zM976 1808l-238 -325h-248l-235 325h204l156 -188l156 188h205zM814 1197q-52 0 -86 30.5t-34 76.5q0 47 33.5 77t86.5 30t87 -30t34 -77
t-33 -77t-88 -30zM416 1197q-53 0 -87 31t-34 76q0 47 34.5 77t86.5 30q53 0 87 -30t34 -77t-33 -77t-88 -30z" />
    <glyph glyph-name="uni01DB" unicode="&#x1db;" horiz-adv-x="1481" 
d="M1333 621q0 -646 -602 -646q-584 0 -584 631v828h324v-832q0 -348 272 -348q267 0 267 336v844h323v-813zM888 1861h-228l-313 323h280zM982 1575q-55 0 -88 30t-33 77t34 77t87 30q52 0 86.5 -30t34.5 -77q0 -45 -34 -76t-87 -31zM543 1575q-55 0 -88 30t-33 77t34 77
t87 30t86.5 -30t33.5 -77q0 -46 -34 -76.5t-86 -30.5z" />
    <glyph glyph-name="uni01DC" unicode="&#x1dc;" horiz-adv-x="1239" 
d="M1106 0h-315v156h-5q-117 -181 -313 -181q-356 0 -356 431v618h315v-590q0 -217 172 -217q85 0 136 59.5t51 161.5v586h315v-1024zM768 1482h-228l-313 323h280zM862 1196q-55 0 -88 30t-33 77t34 77t87 30q52 0 86.5 -30t34.5 -77q0 -45 -34 -76t-87 -31zM423 1196
q-55 0 -88 30t-33 77t34 77t87 30t86.5 -30t33.5 -77q0 -46 -34 -76.5t-86 -30.5z" />
    <glyph glyph-name="uni01DD" unicode="&#x1dd;" horiz-adv-x="1108" 
d="M55 602h668q-15 223 -281 223q-168 0 -297 -80v228q143 76 369 76q248 0 385 -137.5t137 -383.5q0 -255 -148 -404t-364 -149q-224 0 -346.5 133t-122.5 361v133zM725 408h-377q0 -220 178 -220q76 0 131.5 63t67.5 157z" />
    <glyph glyph-name="uni01DE" unicode="&#x1de;" horiz-adv-x="1440" 
d="M1425 0h-352l-102 319h-510l-101 -319h-350l522 1434h383zM897 567l-154 482q-17 54 -24 129h-8q-5 -63 -25 -125l-156 -486h367zM1009 1882h-586v172h586v-172zM915 1596q-52 0 -86 30.5t-34 76.5q0 47 33.5 77t86.5 30t87 -30t34 -77t-33 -77t-88 -30zM517 1596
q-53 0 -87 31t-34 76q0 47 34.5 77t86.5 30q53 0 87 -30t34 -77t-33 -77t-88 -30z" />
    <glyph glyph-name="uni01DF" unicode="&#x1df;" horiz-adv-x="1102" 
d="M985 0h-299v147h-4q-103 -172 -305 -172q-149 0 -234.5 84.5t-85.5 225.5q0 298 353 344l278 37q0 168 -182 168q-183 0 -348 -109v238q66 34 180.5 60t208.5 26q438 0 438 -437v-612zM688 416v69l-186 -24q-154 -20 -154 -139q0 -54 37.5 -88.5t101.5 -34.5
q89 0 145 61.5t56 155.5zM851 1502h-586v172h586v-172zM757 1216q-52 0 -86 30.5t-34 76.5q0 47 33.5 77t86.5 30t87 -30t34 -77t-33 -77t-88 -30zM359 1216q-53 0 -87 31t-34 76q0 47 34.5 77t86.5 30q53 0 87 -30t34 -77t-33 -77t-88 -30z" />
    <glyph glyph-name="uni01E0" unicode="&#x1e0;" horiz-adv-x="1440" 
d="M1425 0h-352l-102 319h-510l-101 -319h-350l522 1434h383zM897 567l-154 482q-17 54 -24 129h-8q-5 -63 -25 -125l-156 -486h367zM1014 1884h-586v172h586v-172zM721 1598q-53 0 -87 31t-34 76q0 47 34.5 77t86.5 30q53 0 87 -30t34 -77t-33 -77t-88 -30z" />
    <glyph glyph-name="uni01E1" unicode="&#x1e1;" horiz-adv-x="1102" 
d="M985 0h-299v147h-4q-103 -172 -305 -172q-149 0 -234.5 84.5t-85.5 225.5q0 298 353 344l278 37q0 168 -182 168q-183 0 -348 -109v238q66 34 180.5 60t208.5 26q438 0 438 -437v-612zM688 416v69l-186 -24q-154 -20 -154 -139q0 -54 37.5 -88.5t101.5 -34.5
q89 0 145 61.5t56 155.5zM846 1509h-586v172h586v-172zM553 1223q-53 0 -87 31t-34 76q0 47 34.5 77t86.5 30q53 0 87 -30t34 -77t-33 -77t-88 -30z" />
    <glyph glyph-name="uni01E2" unicode="&#x1e2;" horiz-adv-x="1915" 
d="M1849 0h-858v319h-471l-147 -319h-375l725 1434h1094v-263h-504v-319h469v-262h-469v-328h536v-262zM991 567v604h-78l-282 -604h360zM1552 1585h-586v172h586v-172z" />
    <glyph glyph-name="uni01E3" unicode="&#x1e3;" horiz-adv-x="1696" 
d="M1640 422h-667q20 -223 282 -223q160 0 297 80v-226q-156 -78 -378 -78q-269 0 -398 179h-4q-141 -179 -362 -179q-166 0 -259.5 82.5t-93.5 229.5q0 146 96.5 234t276.5 102l256 20q0 191 -184 191q-174 0 -344 -107v236q187 86 370 86q234 0 324 -134h4
q132 134 326 134q214 0 336 -133t122 -365v-129zM1348 616q0 220 -177 220q-75 0 -131.5 -62t-66.5 -158h375zM686 414v45l-156 -13q-184 -15 -184 -131q0 -50 39 -83t102 -33q86 0 142.5 59.5t56.5 155.5zM1141 1210h-586v172h586v-172z" />
    <glyph glyph-name="uni01E4" unicode="&#x1e4;" horiz-adv-x="1456" 
d="M1477 322h-136v-226q-210 -121 -522 -121q-346 0 -545.5 191.5t-199.5 527.5q0 338 218 551t580 213q228 0 402 -63v-303q-166 96 -406 96q-201 0 -327.5 -130.5t-126.5 -348.5q0 -224 115 -348.5t305 -124.5q106 0 184 28v58h-287v190h287v88h-287v217h610v-305h136
v-190z" />
    <glyph glyph-name="uni01E5" unicode="&#x1e5;" horiz-adv-x="1268" 
d="M1268 -174h-160q-105 -307 -588 -307q-233 0 -354 59v260q148 -86 362 -86q192 0 252 74h-141v190h182v197h-4q-91 -172 -299 -172q-196 0 -321 137t-125 357q0 235 125 374.5t340 139.5q187 0 280 -144h4v119h316v-1008h131v-190zM825 553v20q0 102 -57 168t-150 66
q-107 0 -166 -70t-59 -198q0 -119 58.5 -187.5t154.5 -68.5q97 0 158 75.5t61 194.5z" />
    <glyph glyph-name="uni01E6" unicode="&#x1e6;" horiz-adv-x="1456" 
d="M1341 96q-210 -121 -522 -121q-346 0 -545.5 191.5t-199.5 527.5q0 338 218 551t580 213q228 0 402 -63v-303q-166 96 -406 96q-201 0 -327.5 -130.5t-126.5 -348.5q0 -221 113.5 -342t306.5 -121q116 0 184 33v280h-287v258h610v-721zM1157 1883l-238 -325h-248
l-235 325h205l155 -188l156 188h205z" />
    <glyph glyph-name="uni01E7" unicode="&#x1e7;" horiz-adv-x="1268" 
d="M1137 117q0 -285 -165 -441.5t-478 -156.5q-207 0 -328 59v266q158 -92 319 -92q160 0 248 84.5t88 229.5v81h-4q-108 -172 -319 -172q-196 0 -311 138t-115 370q0 260 128 413t337 153q187 0 280 -144h4v119h316v-907zM825 492v81q0 97 -57.5 165.5t-149.5 68.5
q-105 0 -165 -82t-60 -231q0 -128 57 -202.5t156 -74.5q98 0 158.5 75.5t60.5 199.5zM967 1499l-238 -325h-248l-235 325h205l155 -188l156 188h205z" />
    <glyph glyph-name="uni01E8" unicode="&#x1e8;" horiz-adv-x="1329" 
d="M1356 0h-408l-418 623q-12 18 -38 79h-5v-702h-323v1434h323v-678h5q12 28 40 80l396 598h385l-500 -684zM1047 1883l-238 -325h-248l-235 325h205l155 -188l156 188h205z" />
    <glyph glyph-name="uni01E9" unicode="&#x1e9;" horiz-adv-x="1145" 
d="M1159 0h-379l-327 508h-4v-508h-316v1516h316v-965h4l305 473h375l-367 -481zM971 1883l-238 -325h-248l-235 325h205l155 -188l156 188h205z" />
    <glyph glyph-name="uni01EA" unicode="&#x1ea;" horiz-adv-x="1553" 
d="M846 -20q-101 -117 -101 -177q0 -67 68 -67q30 0 59 16v-145q-46 -21 -120 -21q-203 0 -203 166q0 106 135 228q-274 29 -442 225t-168 493q0 340 197 550t522 210q307 0 496.5 -201t189.5 -530q0 -315 -173 -518t-460 -229zM784 1180q-170 0 -270 -127.5t-100 -337.5
q0 -213 100 -337t262 -124q167 0 265 120.5t98 334.5q0 223 -95 347t-260 124z" />
    <glyph glyph-name="uni01EB" unicode="&#x1eb;" horiz-adv-x="1252" 
d="M709 -20q-101 -117 -101 -177q0 -67 68 -67q30 0 59 16v-145q-46 -21 -121 -21q-202 0 -202 166q0 107 133 228q-223 21 -348 161.5t-125 366.5q0 254 152 397.5t411 143.5q255 0 400 -143.5t145 -379.5q0 -231 -125 -376t-346 -170zM629 807q-112 0 -174 -77t-62 -218
q0 -295 238 -295q227 0 227 303q0 287 -229 287z" />
    <glyph glyph-name="uni01EC" unicode="&#x1ec;" horiz-adv-x="1553" 
d="M846 -20q-101 -117 -101 -177q0 -67 68 -67q30 0 59 16v-145q-46 -21 -120 -21q-203 0 -203 166q0 106 135 228q-274 29 -442 225t-168 493q0 340 197 550t522 210q307 0 496.5 -201t189.5 -530q0 -315 -173 -518t-460 -229zM784 1180q-170 0 -270 -127.5t-100 -337.5
q0 -213 100 -337t262 -124q167 0 265 120.5t98 334.5q0 223 -95 347t-260 124zM1069 1585h-586v172h586v-172z" />
    <glyph glyph-name="uni01ED" unicode="&#x1ed;" horiz-adv-x="1252" 
d="M709 -20q-101 -117 -101 -177q0 -67 68 -67q30 0 59 16v-145q-46 -21 -121 -21q-202 0 -202 166q0 107 133 228q-223 21 -348 161.5t-125 366.5q0 254 152 397.5t411 143.5q255 0 400 -143.5t145 -379.5q0 -231 -125 -376t-346 -170zM629 807q-112 0 -174 -77t-62 -218
q0 -295 238 -295q227 0 227 303q0 287 -229 287zM920 1210h-586v172h586v-172z" />
    <glyph glyph-name="uni01EE" unicode="&#x1ee;" horiz-adv-x="1370" 
d="M41 -362v319q213 -160 487 -160q196 0 312 92t116 246q0 157 -129.5 244.5t-361.5 87.5h-143v186l460 518h-725v263h1155v-181l-477 -538q258 -38 409.5 -190.5t151.5 -383.5q0 -274 -216.5 -448t-551.5 -174q-260 0 -487 119zM965 1883l-238 -325h-248l-235 325h205
l155 -188l156 188h205z" />
    <glyph glyph-name="uni01EF" unicode="&#x1ef;" horiz-adv-x="1016" 
d="M-23 -389v274q157 -125 355 -125q164 0 255 65.5t91 182.5q0 115 -94 179.5t-262 64.5h-125v131l350 408h-537v233h914v-156l-363 -413q205 -32 319.5 -146t114.5 -293q0 -219 -183 -358t-462 -139q-208 0 -373 92zM813 1499l-238 -325h-248l-235 325h205l155 -188
l156 188h205z" />
    <glyph glyph-name="uni01F0" unicode="&#x1f0;" horiz-adv-x="582" 
d="M449 18q0 -227 -111 -363t-320 -136q-69 0 -151 30v248q66 -37 117 -37q149 0 149 234v1030h316v-1006zM651 1499l-238 -325h-248l-235 325h205l155 -188l156 188h205z" />
    <glyph glyph-name="uni01F1" unicode="&#x1f1;" horiz-adv-x="2654" 
d="M164 0v1434h508q764 0 764 -699q0 -335 -208.5 -535t-555.5 -200h-508zM487 1171v-909h160q210 0 329.5 126t119.5 343q0 205 -118.5 322.5t-332.5 117.5h-158zM2607 0h-1155v186l735 985h-682v263h1100v-181l-719 -991h721v-262z" />
    <glyph glyph-name="uni01F2" unicode="&#x1f2;" horiz-adv-x="2476" 
d="M164 0v1434h508q764 0 764 -699q0 -335 -208.5 -535t-555.5 -200h-508zM487 1171v-909h160q210 0 329.5 126t119.5 343q0 205 -118.5 322.5t-332.5 117.5h-158zM2439 0h-919v131l514 660h-463v233h864v-156l-487 -635h491v-233z" />
    <glyph glyph-name="uni01F3" unicode="&#x1f3;" horiz-adv-x="2224" 
d="M1135 0h-316v141h-4q-108 -166 -317 -166q-192 0 -309 135.5t-117 378.5q0 254 129 407t338 153q198 0 276 -142h4v609h316v-1516zM825 498v77q0 100 -58 166t-151 66q-105 0 -164 -82.5t-59 -226.5q0 -135 57 -208t158 -73q96 0 156.5 77t60.5 204zM2187 0h-919v131
l514 660h-463v233h864v-156l-487 -635h491v-233z" />
    <glyph glyph-name="uni01F4" unicode="&#x1f4;" horiz-adv-x="1456" 
d="M1341 96q-210 -121 -522 -121q-346 0 -545.5 191.5t-199.5 527.5q0 338 218 551t580 213q228 0 402 -63v-303q-166 96 -406 96q-201 0 -327.5 -130.5t-126.5 -348.5q0 -221 113.5 -342t306.5 -121q116 0 184 33v280h-287v258h610v-721zM1213 1887l-313 -323h-228l260 323
h281z" />
    <glyph glyph-name="uni01F5" unicode="&#x1f5;" horiz-adv-x="1268" 
d="M1137 117q0 -285 -165 -441.5t-478 -156.5q-207 0 -328 59v266q158 -92 319 -92q160 0 248 84.5t88 229.5v81h-4q-108 -172 -319 -172q-196 0 -311 138t-115 370q0 260 128 413t337 153q187 0 280 -144h4v119h316v-907zM825 492v81q0 97 -57.5 165.5t-149.5 68.5
q-105 0 -165 -82t-60 -231q0 -128 57 -202.5t156 -74.5q98 0 158.5 75.5t60.5 199.5zM1002 1511l-313 -323h-228l260 323h281z" />
    <glyph glyph-name="uni01F6" unicode="&#x1f6;" horiz-adv-x="2216" 
d="M2093 496q0 -253 -138 -387t-394 -134q-247 0 -384 133t-137 381v95h-553v-584h-323v1434h323v-572h553v572h324v-940q0 -240 203 -240q202 0 202 240v530h324v-528z" />
    <glyph glyph-name="uni01F7" unicode="&#x1f7;" horiz-adv-x="1526" 
d="M547 -24v-447h-324v1905h324v-146h4q163 170 428 170q210 0 341.5 -137t131.5 -348q0 -284 -245.5 -550.5t-659.5 -446.5zM547 981v-681q250 123 408.5 299.5t158.5 348.5q0 95 -60.5 163.5t-152.5 68.5q-172 0 -354 -199z" />
    <glyph glyph-name="uni01F8" unicode="&#x1f8;" horiz-adv-x="1618" 
d="M1454 0h-326l-591 901q-52 79 -72 119h-4q8 -76 8 -232v-788h-305v1434h348l569 -873q39 -59 72 -117h4q-8 50 -8 197v793h305v-1434zM924 1570h-227l-314 323h281z" />
    <glyph glyph-name="uni01F9" unicode="&#x1f9;" horiz-adv-x="1239" 
d="M1122 0h-315v569q0 238 -170 238q-82 0 -135 -63t-53 -160v-584h-316v1024h316v-162h4q113 187 329 187q340 0 340 -422v-627zM764 1188h-227l-314 323h281z" />
    <glyph glyph-name="Aringacute" unicode="&#x1fa;" horiz-adv-x="1440" 
d="M1425 0h-352l-102 319h-510l-101 -319h-350l512 1407q-53 54 -53 137q0 106 73.5 169t180.5 63q114 0 184 -63.5t70 -164.5q0 -80 -53 -137zM719 1645q-47 0 -75 -28.5t-28 -70.5q0 -98 103 -98q48 0 77 28.5t29 69.5q0 43 -29.5 71t-76.5 28zM893 584l-152 465
q-13 40 -22 120h-8q-7 -68 -23 -116l-153 -469h358zM1037 2181l-313 -323h-228l260 323h281z" />
    <glyph glyph-name="aringacute" unicode="&#x1fb;" horiz-adv-x="1102" 
d="M985 0h-299v147h-4q-103 -172 -305 -172q-149 0 -234.5 84.5t-85.5 225.5q0 298 353 344l278 37q0 168 -182 168q-183 0 -348 -109v238q66 34 180.5 60t208.5 26q438 0 438 -437v-612zM688 416v69l-186 -24q-154 -20 -154 -139q0 -54 37.5 -88.5t101.5 -34.5
q89 0 145 61.5t56 155.5zM573 1135q-102 0 -168.5 59.5t-66.5 155.5q0 101 69.5 161t170.5 60q107 0 173 -59.5t66 -155.5q0 -98 -71.5 -159.5t-172.5 -61.5zM573 1448q-96 0 -96 -94t96 -94q45 0 74 27.5t29 66.5q0 41 -28.5 67.5t-74.5 26.5zM891 1982l-313 -323h-228
l260 323h281z" />
    <glyph glyph-name="AEacute" unicode="&#x1fc;" horiz-adv-x="1915" 
d="M1849 0h-858v319h-471l-147 -319h-375l725 1434h1094v-263h-504v-319h469v-262h-469v-328h536v-262zM991 567v604h-78l-282 -604h360zM1526 1890l-313 -323h-228l260 323h281z" />
    <glyph glyph-name="aeacute" unicode="&#x1fd;" horiz-adv-x="1696" 
d="M1640 422h-667q20 -223 282 -223q160 0 297 80v-226q-156 -78 -378 -78q-269 0 -398 179h-4q-141 -179 -362 -179q-166 0 -259.5 82.5t-93.5 229.5q0 146 96.5 234t276.5 102l256 20q0 191 -184 191q-174 0 -344 -107v236q187 86 370 86q234 0 324 -134h4
q132 134 326 134q214 0 336 -133t122 -365v-129zM1348 616q0 220 -177 220q-75 0 -131.5 -62t-66.5 -158h375zM686 414v45l-156 -13q-184 -15 -184 -131q0 -50 39 -83t102 -33q86 0 142.5 59.5t56.5 155.5zM1180 1509l-313 -323h-228l260 323h281z" />
    <glyph glyph-name="Oslashacute" unicode="&#x1fe;" horiz-adv-x="1553" 
d="M348 109l-143 -170l-125 104l149 176q-155 192 -155 479q0 340 196.5 550t522.5 210q234 0 401 -119l129 150l125 -103l-135 -157q166 -196 166 -502q0 -338 -196.5 -545t-512.5 -207q-240 0 -422 134zM1016 1130q-97 76 -232 76q-181 0 -287 -136.5t-106 -360.5
q0 -146 47 -252zM1110 995l-578 -676q101 -92 244 -92q175 0 281 128.5t106 351.5q0 164 -53 288zM1149 1890l-313 -323h-228l260 323h281z" />
    <glyph glyph-name="oslashacute" unicode="&#x1ff;" horiz-adv-x="1252" 
d="M1206 1010l-139 -146q113 -143 113 -338q0 -259 -148 -404t-411 -145q-198 0 -328 86l-135 -141l-119 107l137 143q-104 141 -104 338q0 253 152.5 397t412.5 144q179 0 311 -82l139 147zM772 791q-56 40 -141 40q-258 0 -258 -317q0 -73 18 -121zM862 651l-393 -409
q61 -45 160 -45q252 0 252 323q0 74 -19 131zM958 1509l-313 -323h-228l260 323h281z" />
    <glyph glyph-name="uni0200" unicode="&#x200;" horiz-adv-x="1440" 
d="M1425 0h-352l-102 319h-510l-101 -319h-350l522 1434h383zM897 567l-154 482q-17 54 -24 129h-8q-5 -63 -25 -125l-156 -486h367zM1018 1569h-211l-247 319h247zM644 1569h-211l-252 319h250z" />
    <glyph glyph-name="uni0201" unicode="&#x201;" horiz-adv-x="1102" 
d="M985 0h-299v147h-4q-103 -172 -305 -172q-149 0 -234.5 84.5t-85.5 225.5q0 298 353 344l278 37q0 168 -182 168q-183 0 -348 -109v238q66 34 180.5 60t208.5 26q438 0 438 -437v-612zM688 416v69l-186 -24q-154 -20 -154 -139q0 -54 37.5 -88.5t101.5 -34.5
q89 0 145 61.5t56 155.5zM881 1186h-211l-247 319h247zM507 1186h-211l-252 319h250z" />
    <glyph glyph-name="uni0202" unicode="&#x202;" horiz-adv-x="1440" 
d="M1425 0h-352l-102 319h-510l-101 -319h-350l522 1434h383zM897 567l-154 482q-17 54 -24 129h-8q-5 -63 -25 -125l-156 -486h367zM1057 1553h-180q-17 135 -158 135q-136 0 -156 -135h-180q12 141 102.5 224t237.5 83q146 0 238 -85.5t96 -221.5z" />
    <glyph glyph-name="uni0203" unicode="&#x203;" horiz-adv-x="1102" 
d="M985 0h-299v147h-4q-103 -172 -305 -172q-149 0 -234.5 84.5t-85.5 225.5q0 298 353 344l278 37q0 168 -182 168q-183 0 -348 -109v238q66 34 180.5 60t208.5 26q438 0 438 -437v-612zM688 416v69l-186 -24q-154 -20 -154 -139q0 -54 37.5 -88.5t101.5 -34.5
q89 0 145 61.5t56 155.5zM889 1176h-180q-17 135 -158 135q-136 0 -156 -135h-180q12 141 102.5 224t237.5 83q146 0 238 -85.5t96 -221.5z" />
    <glyph glyph-name="uni0204" unicode="&#x204;" horiz-adv-x="1090" 
d="M1024 0h-860v1434h827v-263h-504v-319h469v-262h-469v-328h537v-262zM881 1569h-211l-247 319h247zM507 1569h-211l-252 319h250z" />
    <glyph glyph-name="uni0205" unicode="&#x205;" horiz-adv-x="1108" 
d="M1053 422h-668q16 -223 281 -223q169 0 297 80v-228q-142 -76 -369 -76q-248 0 -385 137.5t-137 383.5q0 255 148 404t364 149q224 0 346.5 -133t122.5 -361v-133zM760 616q0 220 -178 220q-76 0 -131.5 -63t-67.5 -157h377zM891 1186h-211l-247 319h247zM517 1186h-211
l-252 319h250z" />
    <glyph glyph-name="uni0206" unicode="&#x206;" horiz-adv-x="1090" 
d="M1024 0h-860v1434h827v-263h-504v-319h469v-262h-469v-328h537v-262zM915 1553h-180q-17 135 -158 135q-136 0 -156 -135h-180q12 141 102.5 224t237.5 83q146 0 238 -85.5t96 -221.5z" />
    <glyph glyph-name="uni0207" unicode="&#x207;" horiz-adv-x="1108" 
d="M1053 422h-668q16 -223 281 -223q169 0 297 80v-228q-142 -76 -369 -76q-248 0 -385 137.5t-137 383.5q0 255 148 404t364 149q224 0 346.5 -133t122.5 -361v-133zM760 616q0 220 -178 220q-76 0 -131.5 -63t-67.5 -157h377zM891 1176h-180q-17 135 -158 135
q-136 0 -156 -135h-180q12 141 102.5 224t237.5 83q146 0 238 -85.5t96 -221.5z" />
    <glyph glyph-name="uni0208" unicode="&#x208;" horiz-adv-x="649" 
d="M487 0h-323v1434h323v-1434zM639 1569h-211l-247 319h247zM265 1569h-211l-252 319h250z" />
    <glyph glyph-name="uni0209" unicode="&#x209;" horiz-adv-x="582" 
d="M449 0h-316v1024h316v-1024zM614 1186h-211l-247 319h247zM240 1186h-211l-252 319h250z" />
    <glyph glyph-name="uni020A" unicode="&#x20a;" horiz-adv-x="649" 
d="M487 0h-323v1434h323v-1434zM662 1553h-180q-17 135 -158 135q-136 0 -156 -135h-180q12 141 102.5 224t237.5 83q146 0 238 -85.5t96 -221.5z" />
    <glyph glyph-name="uni020B" unicode="&#x20b;" horiz-adv-x="582" 
d="M449 0h-316v1024h316v-1024zM628 1176h-180q-17 135 -158 135q-136 0 -156 -135h-180q12 141 102.5 224t237.5 83q146 0 238 -85.5t96 -221.5z" />
    <glyph glyph-name="uni020C" unicode="&#x20c;" horiz-adv-x="1553" 
d="M770 -25q-308 0 -502 200.5t-194 522.5q0 340 197 550t522 210q307 0 496.5 -201t189.5 -530q0 -338 -196.5 -545t-512.5 -207zM784 1180q-170 0 -270 -127.5t-100 -337.5q0 -213 100 -337t262 -124q167 0 265 120.5t98 334.5q0 223 -95 347t-260 124zM1100 1569h-211
l-247 319h247zM726 1569h-211l-252 319h250z" />
    <glyph glyph-name="uni020D" unicode="&#x20d;" horiz-adv-x="1252" 
d="M621 -25q-256 0 -402.5 143.5t-146.5 389.5q0 254 152 397.5t411 143.5q255 0 400 -143.5t145 -379.5q0 -255 -149.5 -403t-409.5 -148zM629 807q-112 0 -174 -77t-62 -218q0 -295 238 -295q227 0 227 303q0 287 -229 287zM958 1186h-211l-247 319h247zM584 1186h-211
l-252 319h250z" />
    <glyph glyph-name="uni020E" unicode="&#x20e;" horiz-adv-x="1553" 
d="M770 -25q-308 0 -502 200.5t-194 522.5q0 340 197 550t522 210q307 0 496.5 -201t189.5 -530q0 -338 -196.5 -545t-512.5 -207zM784 1180q-170 0 -270 -127.5t-100 -337.5q0 -213 100 -337t262 -124q167 0 265 120.5t98 334.5q0 223 -95 347t-260 124zM1114 1553h-180
q-17 135 -158 135q-136 0 -156 -135h-180q12 141 102.5 224t237.5 83q146 0 238 -85.5t96 -221.5z" />
    <glyph glyph-name="uni020F" unicode="&#x20f;" horiz-adv-x="1252" 
d="M621 -25q-256 0 -402.5 143.5t-146.5 389.5q0 254 152 397.5t411 143.5q255 0 400 -143.5t145 -379.5q0 -255 -149.5 -403t-409.5 -148zM629 807q-112 0 -174 -77t-62 -218q0 -295 238 -295q227 0 227 303q0 287 -229 287zM963 1176h-180q-17 135 -158 135
q-136 0 -156 -135h-180q12 141 102.5 224t237.5 83q146 0 238 -85.5t96 -221.5z" />
    <glyph glyph-name="uni0210" unicode="&#x210;" horiz-adv-x="1303" 
d="M1266 0h-371l-145 369q-71 180 -193 180h-70v-549h-323v1434h512q522 0 522 -390q0 -149 -85.5 -252t-238.5 -143v-4q126 -40 205 -221zM487 1192v-399h140q104 0 167.5 60.5t63.5 150.5q0 188 -225 188h-146zM946 1569h-211l-247 319h247zM572 1569h-211l-252 319h250z
" />
    <glyph glyph-name="uni0211" unicode="&#x211;" horiz-adv-x="815" 
d="M801 739q-57 31 -133 31q-103 0 -161 -75.5t-58 -205.5v-489h-316v1024h316v-190h4q75 208 270 208q50 0 78 -12v-291zM735 1186h-211l-247 319h247zM361 1186h-211l-252 319h250z" />
    <glyph glyph-name="uni0212" unicode="&#x212;" horiz-adv-x="1303" 
d="M1266 0h-371l-145 369q-71 180 -193 180h-70v-549h-323v1434h512q522 0 522 -390q0 -149 -85.5 -252t-238.5 -143v-4q126 -40 205 -221zM487 1192v-399h140q104 0 167.5 60.5t63.5 150.5q0 188 -225 188h-146zM965 1553h-180q-17 135 -158 135q-136 0 -156 -135h-180
q12 141 102.5 224t237.5 83q146 0 238 -85.5t96 -221.5z" />
    <glyph glyph-name="uni0213" unicode="&#x213;" horiz-adv-x="815" 
d="M801 739q-57 31 -133 31q-103 0 -161 -75.5t-58 -205.5v-489h-316v1024h316v-190h4q75 208 270 208q50 0 78 -12v-291zM807 1176h-180q-17 135 -158 135q-136 0 -156 -135h-180q12 141 102.5 224t237.5 83q146 0 238 -85.5t96 -221.5z" />
    <glyph glyph-name="uni0214" unicode="&#x214;" horiz-adv-x="1481" 
d="M1333 621q0 -646 -602 -646q-584 0 -584 631v828h324v-832q0 -348 272 -348q267 0 267 336v844h323v-813zM1042 1569h-211l-247 319h247zM668 1569h-211l-252 319h250z" />
    <glyph glyph-name="uni0215" unicode="&#x215;" horiz-adv-x="1239" 
d="M1106 0h-315v156h-5q-117 -181 -313 -181q-356 0 -356 431v618h315v-590q0 -217 172 -217q85 0 136 59.5t51 161.5v586h315v-1024zM928 1186h-211l-247 319h247zM554 1186h-211l-252 319h250z" />
    <glyph glyph-name="uni0216" unicode="&#x216;" horiz-adv-x="1481" 
d="M1333 621q0 -646 -602 -646q-584 0 -584 631v828h324v-832q0 -348 272 -348q267 0 267 336v844h323v-813zM1077 1553h-180q-17 135 -158 135q-136 0 -156 -135h-180q12 141 102.5 224t237.5 83q146 0 238 -85.5t96 -221.5z" />
    <glyph glyph-name="uni0217" unicode="&#x217;" horiz-adv-x="1239" 
d="M1106 0h-315v156h-5q-117 -181 -313 -181q-356 0 -356 431v618h315v-590q0 -217 172 -217q85 0 136 59.5t51 161.5v586h315v-1024zM956 1176h-180q-17 135 -158 135q-136 0 -156 -135h-180q12 141 102.5 224t237.5 83q146 0 238 -85.5t96 -221.5z" />
    <glyph glyph-name="Scommaaccent" unicode="&#x218;" horiz-adv-x="1098" 
d="M106 55v320q172 -146 379 -146q99 0 154 40.5t55 105.5q0 56 -46 105.5t-220 131.5q-328 155 -328 420q0 193 142.5 309.5t380.5 116.5q210 0 348 -55v-299q-144 100 -330 100q-93 0 -147 -40t-54 -105q0 -64 42.5 -109t179.5 -110q212 -101 292 -201t80 -236
q0 -198 -142.5 -313t-414.5 -115q-223 0 -371 80zM729 -111l-168 -352h-194l90 352h272z" />
    <glyph glyph-name="scommaaccent" unicode="&#x219;" horiz-adv-x="901" 
d="M94 27v256q156 -93 293 -93q150 0 150 93q0 41 -36 67t-157 72q-140 53 -195 123.5t-55 177.5q0 148 117 237t313 89q127 0 254 -41v-244q-119 70 -250 70q-125 0 -125 -86q0 -43 30 -70t130 -62q153 -54 215 -125.5t62 -177.5q0 -155 -118.5 -246.5t-330.5 -91.5
q-159 0 -297 52zM608 -111l-168 -352h-194l90 352h272z" />
    <glyph glyph-name="uni021A" unicode="&#x21a;" horiz-adv-x="1200" 
d="M1171 1171h-409v-1171h-324v1171h-407v263h1140v-263zM772 -113l-168 -352h-194l90 352h272z" />
    <glyph glyph-name="uni021B" unicode="&#x21b;" horiz-adv-x="797" 
d="M752 12q-70 -37 -211 -37q-334 0 -334 347v469h-166v233h166v221l315 90v-311h230v-233h-230v-414q0 -160 127 -160q50 0 103 29v-234zM642 -119l-168 -352h-194l90 352h272z" />
    <glyph glyph-name="uni021C" unicode="&#x21c;" horiz-adv-x="1176" 
d="M0 -461v285q97 -27 238 -27q232 0 378 97t146 253q0 121 -85 197t-226 76q-106 0 -226 -41v276l125 35q334 94 334 279q0 95 -80.5 153t-218.5 58q-188 0 -356 -95v293q169 80 393 80q276 0 436 -129t160 -338q0 -254 -260 -368v-5q161 -41 252.5 -157.5t91.5 -286.5
q0 -275 -240.5 -465t-617.5 -190q-159 0 -244 20z" />
    <glyph glyph-name="uni021D" unicode="&#x21d;" horiz-adv-x="1012" 
d="M10 -463v246q86 -23 211 -23q191 0 309.5 70t118.5 186q0 90 -68.5 144.5t-187.5 54.5q-77 0 -182 -35v240l100 24q273 66 273 203q0 160 -244 160q-160 0 -303 -76v254q146 64 340 64q239 0 378.5 -103t139.5 -270q0 -201 -215 -291v-2q134 -29 212.5 -120.5
t78.5 -225.5q0 -220 -208.5 -369t-535.5 -149q-139 0 -217 18z" />
    <glyph glyph-name="uni021E" unicode="&#x21e;" horiz-adv-x="1569" 
d="M1405 0h-324v584h-594v-584h-323v1434h323v-572h594v572h324v-1434zM1145 1883l-238 -325h-248l-235 325h205l155 -188l156 188h205z" />
    <glyph glyph-name="uni021F" unicode="&#x21f;" horiz-adv-x="1233" 
d="M1116 0h-315v582q0 225 -164 225q-84 0 -136 -63t-52 -160v-584h-316v1516h316v-644h4q116 177 315 177q348 0 348 -420v-629zM971 1883l-238 -325h-248l-235 325h205l155 -188l156 188h205z" />
    <glyph glyph-name="uni0220" unicode="&#x220;" horiz-adv-x="1600" 
d="M1436 -471h-324v1259q0 392 -289 392q-145 0 -240.5 -108t-95.5 -275v-797h-323v1434h323v-238h5q162 262 456 262q234 0 361 -155t127 -443v-1331z" />
    <glyph glyph-name="uni0221" unicode="&#x221;" horiz-adv-x="1377" 
d="M1040 -391q-19 -41 -32 -90h-267q41 161 131 293q-53 118 -53 268v61h-4q-108 -166 -317 -166q-192 0 -309 135.5t-117 378.5q0 254 129 407t338 153q198 0 276 -142h4v609h316v-1430q0 -25 2 -55q99 47 202 47q146 0 245 -78.5t99 -192.5q0 -120 -100.5 -199t-261.5 -79
t-281 80zM825 498v77q0 100 -58 166t-151 66q-105 0 -164 -82.5t-59 -226.5q0 -135 57 -208t158 -73q96 0 156.5 77t60.5 204zM1204 -186q52 -66 131 -66q92 0 92 55q0 56 -86 56q-72 0 -137 -45z" />
    <glyph glyph-name="uni0222" unicode="&#x222;" horiz-adv-x="1438" 
d="M354 932q-217 88 -217 315q0 96 35 187h309q-22 -72 -22 -154q0 -105 68 -167t190 -62q262 0 262 229q0 78 -23 154h310q34 -88 34 -187q0 -227 -217 -315q281 -111 281 -418q0 -240 -180 -389.5t-473 -149.5q-294 0 -465.5 142t-171.5 377q0 319 280 438zM715 772
q-143 0 -222 -69.5t-79 -192.5q0 -118 80 -187t221 -69q146 0 227.5 70t81.5 192q0 115 -83.5 185.5t-225.5 70.5z" />
    <glyph glyph-name="uni0223" unicode="&#x223;" horiz-adv-x="1295" 
d="M319 942q-192 98 -192 352q0 124 23 222h294q-16 -109 -16 -189q0 -278 219 -278t219 278q0 80 -16 189h295q22 -93 22 -216q0 -255 -196 -358q252 -113 252 -430q0 -241 -159 -389t-423 -148q-265 0 -417 144t-152 387q0 302 247 436zM647 807q-119 0 -186.5 -79
t-67.5 -216q0 -132 69 -213.5t185 -81.5q119 0 186.5 79t67.5 216q0 132 -69 213.5t-185 81.5z" />
    <glyph glyph-name="uni0224" unicode="&#x224;" horiz-adv-x="1243" 
d="M1237 -348h-291q58 108 58 186q0 162 -207 162h-756v186l735 985h-682v263h1100v-181l-719 -991h365q452 0 452 -358q0 -130 -55 -252z" />
    <glyph glyph-name="uni0225" unicode="&#x225;" horiz-adv-x="981" 
d="M1012 -309h-262q47 89 47 172q0 137 -162 137h-610v131l514 660h-463v233h864v-156l-487 -635h241q367 0 367 -315q0 -109 -49 -227z" />
    <glyph glyph-name="uni0226" unicode="&#x226;" horiz-adv-x="1440" 
d="M1425 0h-352l-102 319h-510l-101 -319h-350l522 1434h383zM897 567l-154 482q-17 54 -24 129h-8q-5 -63 -25 -125l-156 -486h367zM720 1567q-67 0 -110.5 40t-43.5 97q0 60 44 97.5t110 37.5q67 0 109.5 -38t42.5 -97t-42.5 -98t-109.5 -39z" />
    <glyph glyph-name="uni0227" unicode="&#x227;" horiz-adv-x="1102" 
d="M985 0h-299v147h-4q-103 -172 -305 -172q-149 0 -234.5 84.5t-85.5 225.5q0 298 353 344l278 37q0 168 -182 168q-183 0 -348 -109v238q66 34 180.5 60t208.5 26q438 0 438 -437v-612zM688 416v69l-186 -24q-154 -20 -154 -139q0 -54 37.5 -88.5t101.5 -34.5
q89 0 145 61.5t56 155.5zM553 1192q-67 0 -110.5 40t-43.5 97q0 60 44 97.5t110 37.5q67 0 109.5 -38t42.5 -97t-42.5 -98t-109.5 -39z" />
    <glyph glyph-name="uni0228" unicode="&#x228;" horiz-adv-x="1090" 
d="M1024 0h-365v-82q187 -8 187 -166q0 -207 -318 -207q-46 0 -88 4v138q35 -6 72 -6q123 0 123 73q0 66 -111 66q-13 0 -37 -2v182h-323v1434h827v-263h-504v-319h469v-262h-469v-328h537v-262z" />
    <glyph glyph-name="uni0229" unicode="&#x229;" horiz-adv-x="1108" 
d="M1053 422h-668q16 -223 281 -223q169 0 297 80v-228q-129 -68 -336 -75v-58q186 -7 186 -166q0 -207 -317 -207q-46 0 -88 4v138q35 -6 71 -6q123 0 123 73q0 66 -110 66q-13 0 -37 -2v170q-185 36 -284 168t-99 340q0 255 148 404t364 149q224 0 346.5 -133t122.5 -361
v-133zM760 616q0 220 -178 220q-76 0 -131.5 -63t-67.5 -157h377z" />
    <glyph glyph-name="uni022A" unicode="&#x22a;" horiz-adv-x="1553" 
d="M770 -25q-308 0 -502 200.5t-194 522.5q0 340 197 550t522 210q307 0 496.5 -201t189.5 -530q0 -338 -196.5 -545t-512.5 -207zM784 1180q-170 0 -270 -127.5t-100 -337.5q0 -213 100 -337t262 -124q167 0 265 120.5t98 334.5q0 223 -95 347t-260 124zM1069 1882h-586
v172h586v-172zM975 1596q-52 0 -86 30.5t-34 76.5q0 47 33.5 77t86.5 30t87 -30t34 -77t-33 -77t-88 -30zM577 1596q-53 0 -87 31t-34 76q0 47 34.5 77t86.5 30q53 0 87 -30t34 -77t-33 -77t-88 -30z" />
    <glyph glyph-name="uni022B" unicode="&#x22b;" horiz-adv-x="1252" 
d="M621 -25q-256 0 -402.5 143.5t-146.5 389.5q0 254 152 397.5t411 143.5q255 0 400 -143.5t145 -379.5q0 -255 -149.5 -403t-409.5 -148zM629 807q-112 0 -174 -77t-62 -218q0 -295 238 -295q227 0 227 303q0 287 -229 287zM923 1502h-586v172h586v-172zM829 1216
q-52 0 -86 30.5t-34 76.5q0 47 33.5 77t86.5 30t87 -30t34 -77t-33 -77t-88 -30zM431 1216q-53 0 -87 31t-34 76q0 47 34.5 77t86.5 30q53 0 87 -30t34 -77t-33 -77t-88 -30z" />
    <glyph glyph-name="uni022C" unicode="&#x22c;" horiz-adv-x="1553" 
d="M770 -25q-308 0 -502 200.5t-194 522.5q0 340 197 550t522 210q307 0 496.5 -201t189.5 -530q0 -338 -196.5 -545t-512.5 -207zM784 1180q-170 0 -270 -127.5t-100 -337.5q0 -213 100 -337t262 -124q167 0 265 120.5t98 334.5q0 223 -95 347t-260 124zM1080 1893h-586
v172h586v-172zM1140 1818q0 -229 -209 -229q-60 0 -149 34q-96 37 -129 37q-76 0 -76 -78h-143q0 110 55.5 171t157.5 61q71 0 151 -35q85 -37 123 -37q76 0 76 76h143z" />
    <glyph glyph-name="uni022D" unicode="&#x22d;" horiz-adv-x="1252" 
d="M621 -25q-256 0 -402.5 143.5t-146.5 389.5q0 254 152 397.5t411 143.5q255 0 400 -143.5t145 -379.5q0 -255 -149.5 -403t-409.5 -148zM629 807q-112 0 -174 -77t-62 -218q0 -295 238 -295q227 0 227 303q0 287 -229 287zM917 1512h-586v172h586v-172zM977 1437
q0 -229 -209 -229q-60 0 -149 34q-96 37 -129 37q-76 0 -76 -78h-143q0 110 55.5 171t157.5 61q71 0 151 -35q85 -37 123 -37q76 0 76 76h143z" />
    <glyph glyph-name="uni022E" unicode="&#x22e;" horiz-adv-x="1553" 
d="M770 -25q-308 0 -502 200.5t-194 522.5q0 340 197 550t522 210q307 0 496.5 -201t189.5 -530q0 -338 -196.5 -545t-512.5 -207zM784 1180q-170 0 -270 -127.5t-100 -337.5q0 -213 100 -337t262 -124q167 0 265 120.5t98 334.5q0 223 -95 347t-260 124zM776 1567
q-67 0 -110.5 40t-43.5 97q0 60 44 97.5t110 37.5q67 0 109.5 -38t42.5 -97t-42.5 -98t-109.5 -39z" />
    <glyph glyph-name="uni022F" unicode="&#x22f;" horiz-adv-x="1252" 
d="M621 -25q-256 0 -402.5 143.5t-146.5 389.5q0 254 152 397.5t411 143.5q255 0 400 -143.5t145 -379.5q0 -255 -149.5 -403t-409.5 -148zM629 807q-112 0 -174 -77t-62 -218q0 -295 238 -295q227 0 227 303q0 287 -229 287zM625 1192q-67 0 -110.5 40t-43.5 97
q0 60 44 97.5t110 37.5q67 0 109.5 -38t42.5 -97t-42.5 -98t-109.5 -39z" />
    <glyph glyph-name="uni0230" unicode="&#x230;" horiz-adv-x="1553" 
d="M770 -25q-308 0 -502 200.5t-194 522.5q0 340 197 550t522 210q307 0 496.5 -201t189.5 -530q0 -338 -196.5 -545t-512.5 -207zM784 1180q-170 0 -270 -127.5t-100 -337.5q0 -213 100 -337t262 -124q167 0 265 120.5t98 334.5q0 223 -95 347t-260 124zM1069 1884h-586
v172h586v-172zM776 1598q-53 0 -87 31t-34 76q0 47 34.5 77t86.5 30q53 0 87 -30t34 -77t-33 -77t-88 -30z" />
    <glyph glyph-name="uni0231" unicode="&#x231;" horiz-adv-x="1252" 
d="M621 -25q-256 0 -402.5 143.5t-146.5 389.5q0 254 152 397.5t411 143.5q255 0 400 -143.5t145 -379.5q0 -255 -149.5 -403t-409.5 -148zM629 807q-112 0 -174 -77t-62 -218q0 -295 238 -295q227 0 227 303q0 287 -229 287zM919 1509h-586v172h586v-172zM626 1223
q-53 0 -87 31t-34 76q0 47 34.5 77t86.5 30q53 0 87 -30t34 -77t-33 -77t-88 -30z" />
    <glyph glyph-name="uni0232" unicode="&#x232;" horiz-adv-x="1243" 
d="M1245 1434l-467 -924v-510h-323v504l-455 930h369l231 -535q6 -15 33 -117h4q13 72 31 113l235 539h342zM915 1585h-586v172h586v-172z" />
    <glyph glyph-name="uni0233" unicode="&#x233;" horiz-adv-x="1102" 
d="M1108 1024l-416 -1106q-150 -399 -452 -399q-115 0 -189 26v252q63 -37 137 -37q122 0 170 115l54 127l-416 1022h350l191 -623q18 -58 28 -137h4q9 58 33 135l193 625h313zM844 1210h-586v172h586v-172z" />
    <glyph glyph-name="uni0234" unicode="&#x234;" horiz-adv-x="690" 
d="M354 -391q-19 -41 -32 -90h-267q40 161 131 293q-53 118 -53 268v1436h316v-1430q0 -25 2 -55q99 47 202 47q146 0 245 -78.5t99 -192.5q0 -120 -100.5 -199t-261.5 -79t-281 80zM518 -186q52 -66 131 -66q92 0 92 55q0 56 -86 56q-72 0 -137 -45z" />
    <glyph glyph-name="uni0235" unicode="&#x235;" horiz-adv-x="1364" 
d="M1028 -391q-22 -45 -33 -90h-266q41 161 131 293q-53 118 -53 268v489q0 238 -170 238q-82 0 -135 -63t-53 -160v-584h-316v1024h316v-162h4q113 187 329 187q340 0 340 -422v-541q0 -25 2 -55q99 47 203 47q146 0 245 -78.5t99 -192.5q0 -120 -100.5 -199t-261.5 -79
t-281 80zM1192 -186q52 -66 131 -66q92 0 92 55q0 56 -86 56q-72 0 -137 -45z" />
    <glyph glyph-name="uni0236" unicode="&#x236;" horiz-adv-x="797" 
d="M428 -391q-22 -45 -33 -90h-266q41 161 131 293q-53 118 -53 268v711h-166v233h166v221l315 90v-311h230v-233h-230v-705q0 -25 2 -55q99 47 203 47q146 0 245 -78.5t99 -192.5q0 -120 -100.5 -199t-261.5 -79t-281 80zM592 -186q52 -66 131 -66q92 0 92 55q0 56 -86 56
q-72 0 -137 -45z" />
    <glyph glyph-name="uni0250" unicode="&#x250;" horiz-adv-x="1102" 
d="M395 358q0 -168 183 -168q188 0 348 109v-238q-64 -33 -179.5 -59.5t-209.5 -26.5q-439 0 -439 437v612h299v-147h4q102 172 306 172q149 0 234 -84t85 -226q0 -297 -352 -344zM395 539l187 24q153 20 153 139q0 54 -38 88.5t-101 34.5q-89 0 -145 -61t-56 -156v-69z" />
    <glyph glyph-name="uni0251" unicode="&#x251;" horiz-adv-x="1304" 
d="M1266 1024l-214 -498l166 -526h-315l-47 214h-6q-124 -239 -358 -239q-192 0 -305.5 138.5t-113.5 369.5q0 252 132 409t347 157q247 0 334 -211h5l56 186h319zM795 526q-58 283 -203 283q-88 0 -145.5 -85t-57.5 -222q0 -130 47.5 -206t122.5 -76q141 0 221 259z" />
    <glyph glyph-name="uni0252" unicode="&#x252;" horiz-adv-x="1304" 
d="M454 214h-5l-47 -214h-316q76 232 167 526q-32 80 -214 498h319l56 -186h4q87 211 335 211q215 0 347 -157t132 -409q0 -231 -113.5 -369.5t-305.5 -138.5q-235 0 -359 239zM509 526l15 -47q83 -259 221 -259q75 0 123 76t48 206q0 137 -57.5 222t-145.5 85
q-146 0 -204 -283z" />
    <glyph glyph-name="uni0253" unicode="&#x253;" horiz-adv-x="1266" 
d="M453 119h-4v-119h-316v1042q0 238 140.5 368t402.5 130q129 0 237 -37v-252q-107 47 -227 47q-237 0 -237 -254v-174h4q118 179 329 179q198 0 305 -136t107 -372q0 -256 -124.5 -411t-332.5 -155q-185 0 -284 144zM444 551v-105q0 -98 58 -163.5t147 -65.5q110 0 169 84
t59 236q0 126 -56 198t-157 72q-95 0 -157.5 -71t-62.5 -185z" />
    <glyph glyph-name="uni0254" unicode="&#x254;" horiz-adv-x="979" 
d="M76 23v268q98 -74 221 -74q136 0 214.5 80t78.5 219q0 137 -75 214t-208 77q-122 0 -231 -74v254q109 62 305 62q235 0 380.5 -143t145.5 -369q0 -261 -155.5 -411.5t-417.5 -150.5q-176 0 -258 48z" />
    <glyph glyph-name="uni0255" unicode="&#x255;" horiz-adv-x="1022" 
d="M395 14q-22 -73 -26 -155h-222q9 136 64 270q-139 143 -139 358q0 260 156 411t417 151q158 0 258 -48v-268q-97 74 -221 74q-138 0 -215.5 -80t-77.5 -219q0 -62 14 -111q130 111 289 111q133 0 216 -71.5t83 -178.5q0 -122 -107 -202.5t-284 -80.5q-107 0 -205 39z
M506 227q54 -34 127 -34q135 0 135 61q0 53 -80 53q-108 0 -182 -80z" />
    <glyph glyph-name="uni0256" unicode="&#x256;" horiz-adv-x="1266" 
d="M1364 -444q-70 -37 -211 -37q-336 0 -336 358v264h-4q-108 -166 -315 -166q-191 0 -308.5 136t-117.5 378q0 253 128.5 406.5t336.5 153.5q197 0 276 -142h4v609h316v-1596q0 -160 129 -160q54 0 102 29v-233zM825 492v90q0 99 -59.5 162t-151.5 63q-105 0 -165 -83
t-60 -226q0 -281 215 -281q102 0 161.5 74t59.5 201z" />
    <glyph glyph-name="uni0257" unicode="&#x257;" horiz-adv-x="1266" 
d="M1364 1274q-48 24 -107 24q-124 0 -124 -161v-1137h-316v141h-4q-108 -166 -315 -166q-191 0 -308.5 136t-117.5 378q0 253 128.5 406.5t336.5 153.5q197 0 276 -142h4v230q0 403 379 403q93 0 168 -24v-242zM825 492v90q0 99 -59.5 162t-151.5 63q-105 0 -165 -83
t-60 -226q0 -281 215 -281q102 0 161.5 74t59.5 201z" />
    <glyph glyph-name="uni0258" unicode="&#x258;" horiz-adv-x="1108" 
d="M145 43v236q136 -80 310 -80q261 0 268 223h-668v121q0 230 127.5 368t349.5 138q233 0 368.5 -146.5t135.5 -402.5q0 -248 -143 -386.5t-401 -138.5q-195 0 -347 68zM725 616q-4 96 -56 158t-137 62q-184 0 -184 -220h377z" />
    <glyph glyph-name="uni0259" unicode="&#x259;" horiz-adv-x="1108" 
d="M55 602h668q-15 223 -281 223q-168 0 -297 -80v228q143 76 369 76q248 0 385 -137.5t137 -383.5q0 -255 -148 -404t-364 -149q-224 0 -346.5 133t-122.5 361v133zM725 408h-377q0 -220 178 -220q76 0 131.5 63t67.5 157z" />
    <glyph glyph-name="uni025A" unicode="&#x25a;" horiz-adv-x="1323" 
d="M1374 676q-54 -27 -114 -27q-131 0 -183 109l-78 -43q37 -99 37 -211q0 -240 -144 -384.5t-384 -144.5q-191 0 -311 116t-148 319l590 329q-82 86 -221 86t-273 -80v232q159 72 340 72q258 0 412 -166l252 141l27 -88q35 -115 114 -115q42 0 84 21v-166zM723 559
l-375 -209q10 -71 56.5 -116.5t115.5 -45.5q97 0 153 80t56 213q0 41 -6 78z" />
    <glyph glyph-name="uni025B" unicode="&#x25b;" horiz-adv-x="912" 
d="M850 16q-126 -41 -297 -41q-243 0 -372.5 80t-129.5 230q0 204 217 254v4q-178 51 -178 213q0 137 125 215t352 78q141 0 269 -31v-234q-113 35 -238 35q-195 0 -195 -100q0 -92 207 -92h92v-217h-98q-123 0 -181 -21.5t-58 -81.5q0 -102 219 -102q155 0 266 47v-236z
" />
    <glyph glyph-name="uni025C" unicode="&#x25c;" horiz-adv-x="912" 
d="M61 12v240q111 -47 263 -47q223 0 223 100q0 61 -60 83t-184 22h-94v217h92q207 0 207 92q0 100 -193 100q-125 0 -239 -35v234q118 31 270 31q224 0 349.5 -79t125.5 -214q0 -162 -178 -213v-4q217 -50 217 -238q0 -149 -141.5 -237.5t-390.5 -88.5q-153 0 -267 37z" />
    <glyph glyph-name="uni025D" unicode="&#x25d;" horiz-adv-x="1104" 
d="M1155 676q-54 -27 -115 -27q-112 0 -163 84l-68 -71q-74 -78 -166 -119v-4q217 -50 217 -238q0 -149 -141.5 -237.5t-390.5 -88.5q-153 0 -267 37v240q111 -47 263 -47q223 0 223 100q0 61 -60 83t-184 22h-94v217h92q207 0 207 92q0 100 -193 100q-125 0 -239 -35v234
q118 31 270 31q345 0 440 -181l144 156l28 -90q35 -113 113 -113q42 0 84 21v-166z" />
    <glyph glyph-name="uni025E" unicode="&#x25e;" horiz-adv-x="1270" 
d="M1012 541v-4q202 -44 202 -230q0 -158 -142.5 -245t-407.5 -87q-284 0 -438 137.5t-154 393.5q0 254 166.5 398.5t453.5 144.5q243 0 376.5 -79t133.5 -218q0 -157 -190 -211zM645 408v217h35q211 0 211 92q0 102 -203 102q-299 0 -299 -307t289 -307q223 0 223 102
q0 65 -56.5 83t-168.5 18h-31z" />
    <glyph glyph-name="uni025F" unicode="&#x25f;" horiz-adv-x="762" 
d="M711 412h-172v-504q0 -174 -114 -281.5t-310 -107.5q-88 0 -160 20v246q59 -25 117 -25q151 0 151 166v486h-172v233h172v379h316v-379h172v-233z" />
    <glyph glyph-name="uni0260" unicode="&#x260;" horiz-adv-x="1266" 
d="M1364 1274q-48 24 -107 24q-124 0 -124 -161v-1020q0 -286 -164.5 -442t-476.5 -156q-212 0 -326 59v266q158 -92 319 -92q163 0 249.5 82.5t86.5 231.5v81h-4q-110 -172 -321 -172q-196 0 -310 137t-114 371q0 260 127 413t336 153q186 0 278 -144h4v232q0 403 379 403
q93 0 168 -24v-242zM825 487v91q0 98 -58 163.5t-151 65.5q-105 0 -166 -83.5t-61 -231.5q0 -127 57 -201t158 -74q100 0 160.5 74.5t60.5 195.5z" />
    <glyph glyph-name="uni0261" unicode="&#x261;" horiz-adv-x="1266" 
d="M1133 117q0 -286 -164.5 -442t-476.5 -156q-212 0 -326 59v266q158 -92 319 -92q163 0 249.5 82.5t86.5 231.5v81h-4q-110 -172 -321 -172q-196 0 -310 137t-114 371q0 260 127 413t336 153q186 0 282 -144h4v119h312v-907zM825 487v91q0 98 -58 163.5t-151 65.5
q-105 0 -166 -83.5t-61 -231.5q0 -127 57 -201t158 -74q100 0 160.5 74.5t60.5 195.5z" />
    <glyph glyph-name="uni0262" unicode="&#x262;" horiz-adv-x="1123" 
d="M1030 61q-181 -86 -399 -86q-267 0 -413 137t-146 382q0 244 162.5 399.5t445.5 155.5q153 0 285 -39v-260q-136 57 -285 57q-138 0 -214.5 -81t-76.5 -222q0 -139 68 -213t188 -74q48 0 78 6v162h-184v233h491v-557z" />
    <glyph glyph-name="uni0263" unicode="&#x263;" horiz-adv-x="1198" 
d="M1198 1024l-436 -770l57 -92q113 -182 113 -303q0 -135 -96.5 -222.5t-262.5 -87.5q-157 0 -247 86t-90 224q0 119 112 303l58 94l-437 768h346l269 -504l268 504h346zM584 39q-60 -104 -60 -168q0 -76 60 -76q59 0 59 76q0 65 -59 168z" />
    <glyph glyph-name="uni0264" unicode="&#x264;" horiz-adv-x="1125" 
d="M1114 762q-74 45 -145 45q-107 0 -199 -98q186 -201 186 -390q0 -147 -109.5 -245.5t-293.5 -98.5q-181 0 -283 95t-102 243q0 195 186 396q-92 98 -198 98q-72 0 -146 -45v250q78 37 164 37q124 0 206.5 -39t182.5 -131q101 92 182 131t205 39q87 0 164 -37v-250z
M563 557q-102 -122 -102 -221q0 -57 28 -93t74 -36q45 0 73 36.5t28 92.5q0 100 -101 221z" />
    <glyph glyph-name="uni0265" unicode="&#x265;" horiz-adv-x="1225" 
d="M1092 -471h-316v623h-4q-116 -177 -315 -177q-344 0 -344 420v629h311v-575q0 -226 164 -226q85 0 136.5 62.5t51.5 160.5v578h316v-1495z" />
    <glyph glyph-name="uni0266" unicode="&#x266;" horiz-adv-x="1225" 
d="M1112 0h-311v575q0 226 -164 226q-85 0 -136.5 -62.5t-51.5 -160.5v-578h-316v1042q0 238 140.5 368t402.5 130q129 0 237 -37v-252q-107 47 -227 47q-237 0 -237 -254v-172h4q117 177 315 177q344 0 344 -420v-629z" />
    <glyph glyph-name="uni0267" unicode="&#x267;" horiz-adv-x="1225" 
d="M1112 -78q0 -403 -379 -403q-92 0 -168 24v242q50 -25 107 -25q125 0 125 162v653q0 226 -160 226q-85 0 -136.5 -62.5t-51.5 -160.5v-578h-316v1042q0 238 140.5 368t402.5 130q129 0 237 -37v-252q-107 47 -227 47q-237 0 -237 -254v-172h4q117 177 315 177
q344 0 344 -420v-707z" />
    <glyph glyph-name="uni0268" unicode="&#x268;" horiz-adv-x="742" 
d="M373 1186q-80 0 -131.5 47.5t-51.5 116.5q0 72 52 116.5t131 44.5q81 0 131.5 -45t50.5 -116q0 -72 -50.5 -118t-131.5 -46zM700 451h-172v-451h-315v451h-172v204h172v369h315v-369h172v-204z" />
    <glyph glyph-name="uni0269" unicode="&#x269;" horiz-adv-x="678" 
d="M668 12q-70 -37 -211 -37q-334 0 -334 347v702h313v-647q0 -160 129 -160q55 0 103 29v-234z" />
    <glyph glyph-name="uni026A" unicode="&#x26a;" horiz-adv-x="824" 
d="M741 0h-659v233h172v558h-172v233h659v-233h-172v-558h172v-233z" />
    <glyph glyph-name="uni026B" unicode="&#x26b;" horiz-adv-x="877" 
d="M866 690q-97 -78 -217 -78q-24 0 -53 4v-616h-315v700q-41 7 -62 7q-107 0 -209 -95v236q97 78 217 78q28 0 54 -4v594h315v-678q43 -7 61 -7q108 0 209 95v-236z" />
    <glyph glyph-name="uni026C" unicode="&#x26c;" horiz-adv-x="805" 
d="M805 655h-189v-655h-315v655h-45q-138 0 -217.5 64t-79.5 170q0 89 60 149t153 60q73 0 129 -47v465h315v-666h189v-195zM301 850q-27 88 -92 88q-45 0 -45 -41q0 -47 100 -47h37z" />
    <glyph glyph-name="uni026D" unicode="&#x26d;" horiz-adv-x="582" 
d="M680 -444q-70 -37 -211 -37q-336 0 -336 346v1651h316v-1596q0 -160 129 -160q54 0 102 29v-233z" />
    <glyph glyph-name="uni026E" unicode="&#x26e;" horiz-adv-x="1465" 
d="M449 -401v268q155 -107 335 -107q164 0 253 65t89 183q0 115 -94 179.5t-262 64.5h-125v131l350 408h-546v-791h-316v1516h316v-492h923v-156l-362 -413q205 -32 319.5 -146t114.5 -293q0 -219 -183 -358t-462 -139q-197 0 -350 80z" />
    <glyph glyph-name="uni026F" unicode="&#x26f;" horiz-adv-x="1876" 
d="M1743 0h-316v160h-4q-114 -185 -331 -185q-216 0 -297 191q-118 -191 -344 -191q-334 0 -334 412v637h315v-584q0 -223 164 -223q77 0 126.5 67t49.5 167v573h315v-590q0 -217 162 -217q81 0 129.5 65t48.5 173v569h316v-1024z" />
    <glyph glyph-name="uni0270" unicode="&#x270;" horiz-adv-x="1876" 
d="M1743 -471h-316v631h-4q-114 -185 -331 -185q-216 0 -297 191q-118 -191 -344 -191q-334 0 -334 412v637h315v-584q0 -223 164 -223q77 0 126.5 67t49.5 167v573h315v-590q0 -217 162 -217q81 0 129.5 65t48.5 173v569h316v-1495z" />
    <glyph glyph-name="uni0271" unicode="&#x271;" horiz-adv-x="1876" 
d="M1759 -78q0 -403 -379 -403q-92 0 -168 24v242q50 -25 107 -25q125 0 125 162v662q0 223 -164 223q-78 0 -127 -67t-49 -167v-573h-316v590q0 217 -161 217q-81 0 -129.5 -65t-48.5 -173v-569h-316v1024h316v-160h4q115 185 331 185q217 0 297 -191q118 191 344 191
q334 0 334 -412v-715z" />
    <glyph glyph-name="uni0272" unicode="&#x272;" horiz-adv-x="1235" 
d="M1122 0h-317v569q0 238 -168 238q-83 0 -135.5 -64t-52.5 -159v-662q0 -403 -379 -403q-92 0 -168 24v242q50 -25 106 -25q125 0 125 162v1102h316v-162h4q115 187 329 187q340 0 340 -422v-627z" />
    <glyph glyph-name="uni0273" unicode="&#x273;" horiz-adv-x="1235" 
d="M1354 -444q-70 -37 -211 -37q-336 0 -336 358v692q0 238 -170 238q-83 0 -135.5 -64t-52.5 -159v-584h-316v1024h316v-162h4q115 187 329 187q340 0 340 -422v-707q0 -160 129 -160q55 0 103 29v-233z" />
    <glyph glyph-name="uni0274" unicode="&#x274;" horiz-adv-x="1258" 
d="M1124 0h-313l-324 504l-63 117h-4q6 -100 6 -175v-446h-293v1024h334l305 -479q48 -75 62 -109h4q-7 55 -7 113v475h293v-1024z" />
    <glyph glyph-name="uni0275" unicode="&#x275;" horiz-adv-x="1241" 
d="M614 -25q-253 0 -397.5 142.5t-144.5 390.5q0 254 150 397.5t409 143.5q254 0 396 -143t142 -380q0 -256 -147.5 -403.5t-407.5 -147.5zM844 610q-36 197 -221 197q-186 0 -226 -197h447zM844 416h-447q38 -199 228 -199q182 0 219 199z" />
    <glyph glyph-name="uni0276" unicode="&#x276;" horiz-adv-x="1489" 
d="M1407 0h-674q-85 -25 -164 -25q-227 0 -362 143.5t-135 379.5q0 243 142 397t370 154q88 0 166 -25h634v-233h-342v-162h322v-234h-322v-162h365v-233zM733 254v516q-51 35 -127 35q-104 0 -160.5 -80t-56.5 -221q0 -133 59.5 -209t153.5 -76q81 0 131 35z" />
    <glyph glyph-name="uni0277" unicode="&#x277;" horiz-adv-x="1622" 
d="M805 178h-8q-65 -111 -145 -157t-201 -46q-167 0 -273 126.5t-106 328.5q0 286 202 452.5t553 166.5q331 0 527 -160t196 -432q0 -218 -123 -350t-319 -132q-218 0 -303 203zM662 551h299v-76q0 -258 131 -258q149 0 149 223q0 367 -430 367q-210 0 -320 -93.5
t-110 -267.5q0 -229 139 -229q142 0 142 258v76z" />
    <glyph glyph-name="uni0278" unicode="&#x278;" horiz-adv-x="1405" 
d="M852 -25v-446h-293v446q-223 24 -355 166t-132 363q0 224 132.5 368t354.5 177v467h293v-467q220 -24 350.5 -167t130.5 -352q0 -224 -130.5 -372.5t-350.5 -182.5zM852 807v-590q188 40 188 303q0 248 -188 287zM559 217v590q-194 -41 -194 -295q0 -255 194 -295z" />
    <glyph glyph-name="uni0279" unicode="&#x279;" horiz-adv-x="817" 
d="M684 0h-315v190h-4q-75 -208 -271 -208q-42 0 -78 12v291q62 -31 134 -31q102 0 160.5 75.5t58.5 205.5v489h315v-1024z" />
    <glyph glyph-name="uni027A" unicode="&#x27a;" horiz-adv-x="817" 
d="M684 0h-315v190h-4q-75 -208 -271 -208q-42 0 -78 12v291q62 -31 134 -31q102 0 160.5 75.5t58.5 205.5v981h315v-1516z" />
    <glyph glyph-name="uni027B" unicode="&#x27b;" horiz-adv-x="817" 
d="M915 -444q-70 -37 -210 -37q-336 0 -336 358v313h-4q-75 -208 -271 -208q-42 0 -78 12v291q62 -31 134 -31q102 0 160.5 75.5t58.5 205.5v489h315v-1104q0 -160 129 -160q54 0 102 29v-233z" />
    <glyph glyph-name="uni027C" unicode="&#x27c;" horiz-adv-x="817" 
d="M801 739q-62 31 -133 31q-102 0 -160.5 -75.5t-58.5 -205.5v-960h-316v1495h316v-190h4q76 208 270 208q42 0 78 -12v-291z" />
    <glyph glyph-name="uni027D" unicode="&#x27d;" horiz-adv-x="817" 
d="M801 739q-62 31 -133 31q-102 0 -160.5 -75.5t-58.5 -205.5v-569q0 -160 129 -160q54 0 102 29v-233q-70 -37 -211 -37q-336 0 -336 358v1147h316v-190h4q76 208 270 208q42 0 78 -12v-291z" />
    <glyph glyph-name="uni027E" unicode="&#x27e;" horiz-adv-x="723" 
d="M707 782q-58 25 -117 25q-152 0 -152 -191v-616h-315v635q0 190 112.5 302t311.5 112q85 0 160 -21v-246z" />
    <glyph glyph-name="uni027F" unicode="&#x27f;" horiz-adv-x="723" 
d="M600 0h-313v635q0 172 -159 172q-59 0 -112 -29v234q99 37 220 37q176 0 270 -93.5t94 -263.5v-692z" />
    <glyph glyph-name="uni0280" unicode="&#x280;" horiz-adv-x="1094" 
d="M1063 0h-346l-82 217q-25 66 -58 94.5t-98 28.5h-30v-340h-316v1024h430q441 0 441 -313q0 -102 -64 -171t-172 -91v-5q125 -42 184 -182zM449 801v-238h86q147 0 147 119t-143 119h-90z" />
    <glyph glyph-name="uni0281" unicode="&#x281;" horiz-adv-x="1094" 
d="M1063 1024l-105 -244q-60 -139 -178 -192v-4q105 -21 164.5 -89t59.5 -169q0 -326 -453 -326h-418v1024h316v-340h24q113 0 164 131l82 209h344zM449 461v-238h86q147 0 147 115q0 123 -147 123h-86z" />
    <glyph glyph-name="uni0282" unicode="&#x282;" horiz-adv-x="901" 
d="M281 -10v-39q0 -127 114 -127q51 0 105 29v-170q-72 -31 -144 -31q-121 0 -191.5 75t-70.5 207v349q154 -93 293 -93q150 0 150 93q0 41 -35.5 67t-157.5 72q-139 53 -194.5 123t-55.5 178q0 148 116.5 237t313.5 89q131 0 254 -41v-244q-119 70 -250 70q-125 0 -125 -86
q0 -42 28.5 -69t131.5 -63q150 -53 213.5 -125t63.5 -178q0 -155 -118.5 -246.5t-330.5 -91.5q-50 0 -110 15z" />
    <glyph glyph-name="uni0283" unicode="&#x283;" horiz-adv-x="647" 
d="M750 1274q-56 24 -117 24q-152 0 -152 -165v-1225q0 -174 -114 -281.5t-310 -107.5q-87 0 -159 20v246q59 -25 116 -25q152 0 152 166v1225q0 174 114 281.5t310 107.5q88 0 160 -20v-246z" />
    <glyph glyph-name="uni0284" unicode="&#x284;" horiz-adv-x="742" 
d="M797 1274q-56 24 -117 24q-152 0 -152 -165v-478h172v-204h-172v-543q0 -174 -114 -281.5t-310 -107.5q-87 0 -159 20v246q59 -25 116 -25q152 0 152 166v525h-172v204h172v496q0 174 114 281.5t310 107.5q88 0 160 -20v-246z" />
    <glyph glyph-name="uni0285" unicode="&#x285;" horiz-adv-x="713" 
d="M713 12q-70 -37 -211 -37q-334 0 -334 347v817q0 159 -127 159q-55 0 -102 -28v233q70 37 211 37q333 0 333 -346v-817q0 -160 127 -160q55 0 103 29v-234z" />
    <glyph glyph-name="uni0286" unicode="&#x286;" horiz-adv-x="830" 
d="M850 1274q-56 24 -117 24q-151 0 -151 -165v-1029q0 -119 -37 -227q97 -61 166 -108v-250q-148 114 -262 186q-155 -186 -429 -186q-160 0 -254 75.5t-94 198.5q0 119 96 200t248 81q113 0 248 -51q2 27 2 86v1042q0 174 114 281.5t310 107.5q88 0 160 -20v-246z
M213 -170q-109 43 -199 43q-104 0 -104 -68q0 -69 119 -69q127 0 184 94z" />
    <glyph glyph-name="uni0287" unicode="&#x287;" horiz-adv-x="797" 
d="M756 0h-166v-221l-314 -90v311h-231v233h231v414q0 160 -129 160q-54 0 -102 -29v234q70 37 211 37q334 0 334 -347v-469h166v-233z" />
    <glyph glyph-name="uni0288" unicode="&#x288;" horiz-adv-x="797" 
d="M752 -444q-70 -37 -211 -37q-334 0 -334 346v926h-166v233h166v221l313 90v-311h232v-233h-232v-871q0 -160 129 -160q55 0 103 29v-233z" />
    <glyph glyph-name="uni0289" unicode="&#x289;" horiz-adv-x="1413" 
d="M1372 422h-172v-422h-315v156h-4q-116 -181 -312 -181q-356 0 -356 431v16h-172v233h172v369h317v-369h355v369h315v-369h172v-233zM885 414v8h-355v-8q0 -197 170 -197q80 0 132.5 55t52.5 142z" />
    <glyph glyph-name="uni028A" unicode="&#x28a;" horiz-adv-x="1221" 
d="M207 788h-152v236h465v-233q-147 -81 -147 -283q0 -122 64 -196t171 -74q113 0 177.5 73t64.5 197q0 201 -148 283v233h461v-236h-147q147 -122 147 -319q0 -220 -149.5 -357t-411.5 -137q-258 0 -402.5 133t-144.5 351q0 196 152 329z" />
    <glyph glyph-name="uni028B" unicode="&#x28b;" horiz-adv-x="1252" 
d="M104 1024h316v-537q0 -249 209 -249q111 0 172 78.5t61 222.5q0 268 -145 268q-52 0 -109 -25v242q72 25 170 25q191 0 296.5 -131t105.5 -373q0 -260 -150 -415t-416 -155q-510 0 -510 494v555z" />
    <glyph glyph-name="uni028C" unicode="&#x28c;" horiz-adv-x="1110" 
d="M1108 0h-338l-178 631q-27 97 -35 182h-4q-12 -89 -37 -176l-182 -637h-330l381 1024h360z" />
    <glyph glyph-name="uni028D" unicode="&#x28d;" horiz-adv-x="1633" 
d="M1616 0h-326l-139 668q-8 36 -12 94h-6q-2 -28 -19 -98l-160 -664h-327l-148 668q-9 42 -14 96h-6q-1 -13 -17 -96l-129 -668h-297l295 1024h344l148 -602q12 -49 12 -115h4q4 44 21 113l149 604h338z" />
    <glyph glyph-name="uni028E" unicode="&#x28e;" horiz-adv-x="1102" 
d="M1106 0h-350l-191 623q-19 61 -28 137h-5l-3 -15q-15 -75 -29 -120l-193 -625h-313l416 1106q154 410 458 410q97 0 187 -29v-252q-66 39 -144 39q-116 0 -166 -119l-55 -133z" />
    <glyph glyph-name="uni028F" unicode="&#x28f;" horiz-adv-x="961" 
d="M977 1024l-338 -680v-344h-315v340l-340 684h352l110 -285q31 -79 43 -133h3q13 54 43 133l110 285h332z" />
    <glyph glyph-name="uni0290" unicode="&#x290;" horiz-adv-x="983" 
d="M1114 -248q-77 -33 -143 -33q-111 0 -183.5 66.5t-72.5 167.5q0 25 2 47h-692v131l514 660h-463v233h864v-156l-487 -635h491q-43 -153 -43 -221q0 -121 113 -121q42 0 100 31v-170z" />
    <glyph glyph-name="uni0291" unicode="&#x291;" horiz-adv-x="1192" 
d="M716 0q-15 -74 -18 -156h-221q5 81 19 156h-471v156l493 635h-463v233h865v-156l-500 -657h134q54 144 155 228.5t227 84.5q128 0 207.5 -72t79.5 -176q0 -122 -97.5 -199t-265.5 -77h-144zM781 211h89q138 0 138 65q0 60 -74 60q-101 0 -153 -125z" />
    <glyph glyph-name="uni0292" unicode="&#x292;" horiz-adv-x="1016" 
d="M-23 -389v274q157 -125 355 -125q164 0 255 65.5t91 182.5q0 115 -94 179.5t-262 64.5h-125v131l350 408h-537v233h914v-156l-363 -413q205 -32 319.5 -146t114.5 -293q0 -219 -183 -358t-462 -139q-208 0 -373 92z" />
    <glyph glyph-name="uni0293" unicode="&#x293;" horiz-adv-x="1016" 
d="M1053 -481q-122 90 -232 159q-185 -159 -473 -159q-176 0 -278.5 76t-102.5 198q0 117 100.5 199t258.5 82q152 0 344 -86v24q0 240 -348 240h-125v131l350 408h-537v233h914v-156l-363 -413q203 -31 314.5 -143t111.5 -292q0 -95 -43 -184q37 -22 109 -67v-250z
M588 -195q-153 68 -264 68q-119 0 -119 -68q0 -69 155 -69q149 0 228 69z" />
    <glyph glyph-name="uni0294" unicode="&#x294;" horiz-adv-x="756" 
d="M469 0h-315v508q0 133 41.5 216.5t156.5 186.5q137 123 137 209q0 156 -237 156q-148 0 -293 -86v278q154 72 334 72q239 0 376.5 -111t137.5 -290q0 -196 -199 -367q-81 -70 -110 -125t-29 -139v-508z" />
    <glyph glyph-name="uni0295" unicode="&#x295;" horiz-adv-x="756" 
d="M797 1190q-139 86 -303 86q-106 0 -167 -40.5t-61 -107.5q0 -80 140 -217q122 -120 159 -204.5t37 -198.5v-508h-315v498q0 77 -28.5 127.5t-123.5 146.5q-116 117 -151 193t-35 159q0 184 144.5 300t387.5 116q162 0 316 -72v-278z" />
    <glyph glyph-name="uni0296" unicode="&#x296;" horiz-adv-x="899" 
d="M10 47v279q140 -86 303 -86q106 0 167 40t61 107q0 80 -140 217q-122 120 -159 204.5t-37 199.5v508h315v-498q0 -77 28.5 -127.5t123.5 -147.5q116 -117 151 -193t35 -159q0 -184 -144.5 -300t-387.5 -116q-162 0 -316 72z" />
    <glyph glyph-name="uni0297" unicode="&#x297;" horiz-adv-x="979" 
d="M913 -420q-126 -61 -280 -61q-551 0 -551 755q0 775 580 775q137 0 251 -48v-268q-111 74 -221 74q-154 0 -223.5 -125.5t-69.5 -398.5q0 -523 283 -523q120 0 231 74v-254z" />
    <glyph glyph-name="uni0298" unicode="&#x298;" horiz-adv-x="1492" 
d="M739 -25q-305 0 -471 199.5t-166 570.5q0 378 171 586.5t481 208.5q305 0 471 -199.5t166 -570.5q0 -378 -171 -586.5t-481 -208.5zM748 1298q-330 0 -330 -540q0 -541 327 -541q330 0 330 541q0 540 -327 540zM745 621q-59 0 -98 39.5t-39 97.5q0 61 38.5 99t98.5 38
q61 0 100.5 -38.5t39.5 -98.5q0 -59 -39 -98t-101 -39z" />
    <glyph glyph-name="uni0299" unicode="&#x299;" horiz-adv-x="1096" 
d="M133 0v1024h453q415 0 415 -248q0 -186 -202 -221v-4q235 -39 235 -240q0 -311 -413 -311h-488zM449 817v-192h114q121 0 121 96t-131 96h-104zM449 418v-211h137q131 0 131 104q0 107 -131 107h-137z" />
    <glyph glyph-name="uni029A" unicode="&#x29a;" horiz-adv-x="1276" 
d="M279 539v4q-189 54 -189 213q0 135 139.5 214t384.5 79q279 0 434.5 -143.5t155.5 -389.5q0 -253 -167 -397t-462 -144q-503 0 -503 310q0 195 207 254zM653 627v-217h-39q-120 0 -174.5 -22t-54.5 -81q0 -102 211 -102q291 0 291 307q0 145 -75.5 226t-213.5 81
q-195 0 -195 -100q0 -92 218 -92h32z" />
    <glyph glyph-name="uni029B" unicode="&#x29b;" horiz-adv-x="1112" 
d="M1176 1104q-48 26 -91 26q-127 0 -127 -153q0 -105 27 -225l-6 -7q-161 62 -299 62q-139 0 -215 -80.5t-76 -222.5q0 -139 68 -213t188 -74q48 0 78 6v162h-184v233h491v-557q-181 -86 -399 -86q-267 0 -413 137t-146 382q0 241 158.5 398t431.5 157q47 0 112 -13v27
q0 101 77 170.5t196 69.5q64 0 129 -25v-174z" />
    <glyph glyph-name="uni029C" unicode="&#x29c;" horiz-adv-x="1258" 
d="M1124 0h-315v403h-360v-403h-316v1024h316v-379h360v379h315v-1024z" />
    <glyph glyph-name="uni029D" unicode="&#x29d;" horiz-adv-x="830" 
d="M426 1186q-80 0 -131 47.5t-51 116.5q0 72 51.5 116.5t130.5 44.5q81 0 131.5 -45t50.5 -116q0 -72 -50.5 -118t-131.5 -46zM711 -481q-148 114 -262 186q-155 -186 -429 -186q-160 0 -254 75.5t-94 198.5q0 119 96 200t248 81q113 0 248 -51q2 27 2 86v915h316v-920
q0 -119 -37 -227q97 -61 166 -108v-250zM213 -170q-109 43 -199 43q-104 0 -104 -68q0 -69 119 -69q127 0 184 94z" />
    <glyph glyph-name="uni029E" unicode="&#x29e;" horiz-adv-x="1145" 
d="M1012 -471h-316v944h-4l-305 -473h-375l367 481l-393 543h379l327 -508h4v508h316v-1495z" />
    <glyph glyph-name="uni029F" unicode="&#x29f;" horiz-adv-x="858" 
d="M827 0h-694v1024h316v-782h378v-242z" />
    <glyph glyph-name="uni02A0" unicode="&#x2a0;" horiz-adv-x="1266" 
d="M1364 1274q-48 24 -107 24q-124 0 -124 -161v-1608h-316v612h-4q-106 -166 -315 -166q-189 0 -307.5 137.5t-118.5 376.5q0 256 128.5 408t334.5 152q192 0 278 -144h4v232q0 403 379 403q93 0 168 -24v-242zM825 489v86q0 98 -58.5 165t-150.5 67q-105 0 -166 -83.5
t-61 -225.5q0 -129 57 -205t154 -76q101 0 163 75.5t62 196.5z" />
    <glyph glyph-name="uni02A1" unicode="&#x2a1;" horiz-adv-x="807" 
d="M520 555h193v-233h-193v-322h-315v322h-172v233h172q0 111 41 191.5t157 187.5q83 77 110.5 114t27.5 82q0 146 -238 146q-148 0 -293 -86v278q154 72 334 72q236 0 375 -109t139 -280q0 -89 -36.5 -166t-157.5 -188q-88 -80 -116 -129t-28 -113z" />
    <glyph glyph-name="uni02A2" unicode="&#x2a2;" horiz-adv-x="807" 
d="M807 1188q-172 88 -328 88q-203 0 -203 -137q0 -67 142 -209q109 -109 146.5 -188t37.5 -187h172v-233h-172v-322h-315v322h-193v233h193q0 58 -24.5 103.5t-121.5 140.5q-107 106 -144.5 181.5t-37.5 164.5q0 173 138.5 284t375.5 111q177 0 334 -70v-282z" />
    <glyph glyph-name="uni02A3" unicode="&#x2a3;" horiz-adv-x="2071" 
d="M2032 0h-1215v141h-4q-108 -166 -315 -166q-191 0 -308.5 136t-117.5 378q0 253 128.5 406.5t336.5 153.5q197 0 276 -142h4v609h316v-492h895v-156l-488 -635h492v-233zM825 492v90q0 99 -59.5 162t-151.5 63q-105 0 -165 -83t-60 -226q0 -281 215 -281q102 0 161.5 74
t59.5 201zM1626 791h-493v-633z" />
    <glyph glyph-name="uni02A4" unicode="&#x2a4;" horiz-adv-x="2149" 
d="M1133 -401v268q155 -107 335 -107q164 0 253 65t89 183q0 115 -94 179.5t-262 64.5h-125v131l350 408h-546v-791h-316v141h-4q-108 -166 -315 -166q-191 0 -308.5 136t-117.5 378q0 253 128.5 406.5t336.5 153.5q197 0 276 -142h4v609h316v-492h923v-156l-362 -413
q205 -32 319.5 -146t114.5 -293q0 -219 -183 -358t-462 -139q-197 0 -350 80zM825 492v90q0 99 -59.5 162t-151.5 63q-105 0 -165 -83t-60 -226q0 -281 215 -281q102 0 161.5 74t59.5 201z" />
    <glyph glyph-name="uni02A5" unicode="&#x2a5;" horiz-adv-x="2300" 
d="M1824 0q-15 -74 -18 -156h-221q5 81 19 156h-787v141h-4q-108 -166 -315 -166q-191 0 -308.5 136t-117.5 378q0 253 128.5 406.5t336.5 153.5q197 0 276 -142h4v609h316v-492h895v-156l-500 -657h134q54 144 155 228.5t227 84.5q128 0 207.5 -72t79.5 -176
q0 -122 -97.5 -199t-265.5 -77h-144zM825 492v90q0 99 -59.5 162t-151.5 63q-105 0 -165 -83t-60 -226q0 -281 215 -281q102 0 161.5 74t59.5 201zM1626 791h-493v-635zM1889 211h89q138 0 138 65q0 60 -74 60q-101 0 -153 -125z" />
    <glyph glyph-name="uni02A6" unicode="&#x2a6;" horiz-adv-x="1426" 
d="M207 791h-166v233h166v221l313 90v-311h393q83 25 183 25q124 0 235 -37v-244q-112 66 -231 66q-121 0 -121 -89q0 -39 26.5 -62t129.5 -69q130 -59 179.5 -126.5t49.5 -163.5q0 -157 -154 -253t-426 -96q-244 0 -366.5 62.5t-166.5 157.5t-44 258v338zM678 791h-158
v-318q0 -161 77 -212.5t202 -51.5q254 0 254 110q0 34 -30.5 57t-139.5 66q-121 47 -167 112t-46 167q0 34 8 70z" />
    <glyph glyph-name="uni02A7" unicode="&#x2a7;" horiz-adv-x="1233" 
d="M1335 1274q-56 24 -116 24q-152 0 -152 -165v-1225q0 -174 -114 -281.5t-310 -107.5q-88 0 -160 20v246q59 -25 117 -25q152 0 152 166v86q-70 -37 -211 -37q-334 0 -334 347v469h-166v233h166v221l313 90v-311h232v127q0 174 114 281.5t310 107.5q87 0 159 -20v-246z
M752 246v545h-232v-414q0 -160 129 -160q55 0 103 29z" />
    <glyph glyph-name="uni02A8" unicode="&#x2a8;" horiz-adv-x="1694" 
d="M926 86q-187 -111 -359 -111q-360 0 -360 385v431h-166v233h166v221l313 90v-311h232v-233h-232v-408q0 -172 146 -172q56 0 131 39q-54 112 -54 237q0 260 156.5 411t417.5 151q158 0 258 -48v-268q-97 74 -221 74q-138 0 -215.5 -80t-77.5 -219q0 -50 8 -88
q157 88 295 88q133 0 216 -71.5t83 -178.5q0 -121 -107.5 -202t-285.5 -81q-203 0 -344 111zM1161 240q61 -47 144 -47q135 0 135 61q0 53 -80 53q-87 0 -199 -67z" />
    <glyph glyph-name="uni02A9" unicode="&#x2a9;" horiz-adv-x="1868" 
d="M1755 -78q0 -403 -381 -403q-90 0 -166 24v242q50 -25 107 -25q123 0 123 162v647q0 238 -168 238q-84 0 -136.5 -64t-52.5 -159v-584h-315v791h-234v-791h-315v791h-172v233h172v127q0 174 114 281.5t310 107.5q88 0 160 -20v-246q-56 24 -117 24q-152 0 -152 -165v-109
h549v-162h4q115 187 330 187q340 0 340 -422v-705z" />
    <glyph glyph-name="uni02AA" unicode="&#x2aa;" horiz-adv-x="1354" 
d="M133 1516h316v-1043q0 -161 77 -212.5t201 -51.5q254 0 254 110q0 34 -30.5 57t-139.5 66q-121 47 -167 112t-46 167q0 149 115 238.5t311 89.5q125 0 236 -37v-244q-112 66 -232 66q-121 0 -121 -89q0 -39 26.5 -62t129.5 -69q130 -59 179.5 -126.5t49.5 -163.5
q0 -158 -154.5 -253.5t-424.5 -95.5q-242 0 -365 61.5t-169 158t-46 258.5v1063z" />
    <glyph glyph-name="uni02AB" unicode="&#x2ab;" horiz-adv-x="1387" 
d="M1348 0h-1215v1516h316v-492h894v-156l-487 -635h492v-233zM942 791h-493v-633z" />
    <glyph glyph-name="uni02AC" unicode="&#x2ac;" horiz-adv-x="1075" 
d="M1032 1434l-160 -648h-262l-65 318q-6 28 -10 82h-5q-1 -24 -10 -82l-65 -318h-262l-150 648h231l58 -336q0 -1 6 -80h4q5 56 10 82l68 334h256l63 -334q2 -10 9 -80h4q2 20 10 80l47 334h223zM1032 647l-160 -647h-262l-65 317q-6 28 -10 82h-5q-1 -24 -10 -82l-65 -317
h-262l-150 647h231l58 -336q0 -1 6 -80h4q5 56 10 82l68 334h256l63 -334q2 -10 9 -80h4q2 20 10 80l47 334h223z" />
    <glyph glyph-name="uni02AD" unicode="&#x2ad;" horiz-adv-x="1075" 
d="M963 922h-209v323h-432v-323h-209v512h850v-512zM963 0h-209v324h-432v-324h-209v512h850v-512z" />
    <glyph glyph-name="uni02AE" unicode="&#x2ae;" horiz-adv-x="1297" 
d="M1163 -492h-315v644h-4q-116 -177 -316 -177q-348 0 -348 420v252q0 160 -129 160q-54 0 -102 -29v234q70 37 211 37q336 0 336 -359v-241q0 -226 163 -226q86 0 137.5 62.5t51.5 160.5v578h315v-1516z" />
    <glyph glyph-name="uni02AF" unicode="&#x2af;" horiz-adv-x="1297" 
d="M1395 -444q-70 -37 -211 -37q-336 0 -336 358v275h-4q-116 -177 -316 -177q-348 0 -348 420v252q0 160 -129 160q-54 0 -102 -29v234q70 37 211 37q336 0 336 -359v-241q0 -226 163 -226q86 0 137.5 62.5t51.5 160.5v578h315v-1104q0 -160 129 -160q55 0 103 29v-233z
" />
    <glyph glyph-name="uni02B0" unicode="&#x2b0;" horiz-adv-x="744" 
d="M659 666h-227v317q0 82 -61 82q-68 0 -68 -84v-315h-227v811h227v-342h2q59 96 168 96q186 0 186 -230v-335zM194 1434z" />
    <glyph glyph-name="uni02B1" unicode="&#x2b1;" horiz-adv-x="744" 
d="M659 666h-227v317q0 82 -61 82q-68 0 -68 -84v-315h-227v491q0 320 393 320q96 0 166 -29v-172q-74 43 -164 43q-168 0 -168 -135v-49h2q59 96 168 96q186 0 186 -230v-335zM424 1434z" />
    <glyph glyph-name="uni02B2" unicode="&#x2b2;" horiz-adv-x="385" 
d="M190 1253q-57 0 -93 32t-36 79q0 104 129 104q127 0 127 -104q0 -49 -34.5 -80t-92.5 -31zM303 657q0 -113 -61.5 -183.5t-182.5 -70.5q-41 0 -92 17v168q34 -17 56 -17q53 0 53 78v565h227v-557z" />
    <glyph glyph-name="uni02B3" unicode="&#x2b3;" horiz-adv-x="525" 
d="M494 1020q-34 14 -72 14q-113 0 -113 -131v-237h-227v548h227v-96h2q43 107 150 107q15 0 33 -8v-197z" />
    <glyph glyph-name="uni02B4" unicode="&#x2b4;" horiz-adv-x="525" 
d="M440 666h-227v96h-2q-42 -107 -150 -107q-11 0 -32 9v196q34 -14 71 -14q113 0 113 131v237h227v-548z" />
    <glyph glyph-name="uni02B5" unicode="&#x2b5;" horiz-adv-x="537" 
d="M549 420q-51 -17 -92 -17q-121 0 -182.5 70.5t-61.5 183.5v105h-2q-42 -107 -150 -107q-11 0 -32 9v196q34 -14 71 -14q113 0 113 131v237h227v-565q0 -78 54 -78q21 0 55 17v-168z" />
    <glyph glyph-name="uni02B6" unicode="&#x2b6;" horiz-adv-x="729" 
d="M713 1212l-60 -135q-38 -86 -129 -108q142 -26 142 -144q0 -159 -258 -159h-306v546h228v-186h14q50 0 78 76l41 110h250zM330 907v-112h30q78 0 78 57q0 55 -80 55h-28z" />
    <glyph glyph-name="uni02B7" unicode="&#x2b7;" horiz-adv-x="955" 
d="M934 1212l-154 -546h-235l-56 264q-10 47 -10 86h-4q-4 -48 -12 -82l-60 -268h-235l-145 546h229l47 -317q4 -30 8 -72h2q4 46 10 74l70 315h219l60 -315l8 -72h2l51 387h205z" />
    <glyph glyph-name="uni02B8" unicode="&#x2b8;" horiz-adv-x="678" 
d="M664 1212l-201 -565q-86 -241 -279 -241q-77 0 -135 22v172q38 -27 90 -27q63 0 84 50l19 43l-230 546h252l68 -264q16 -63 20 -100h2q2 10 23 98l65 266h222z" />
    <glyph glyph-name="uni02B9" unicode="&#x2b9;" horiz-adv-x="600" 
d="M477 1452l-125 -442h-200l65 442h260z" />
    <glyph glyph-name="uni02BA" unicode="&#x2ba;" horiz-adv-x="1010" 
d="M881 1452l-125 -444h-201l64 444h262zM486 1452l-125 -442h-203l65 442h263z" />
    <glyph glyph-name="uni02BB" unicode="&#x2bb;" horiz-adv-x="594" 
d="M481 1468l-110 -444h-275l189 444h196z" />
    <glyph glyph-name="uni02BC" unicode="&#x2bc;" horiz-adv-x="594" 
d="M500 1468l-193 -444h-194l114 444h273z" />
    <glyph glyph-name="uni02BD" unicode="&#x2bd;" horiz-adv-x="594" 
d="M500 1468l-193 -444h-194l114 444h273z" />
    <glyph glyph-name="uni02BE" unicode="&#x2be;" horiz-adv-x="682" 
d="M230 1219v133q95 0 95 69q0 68 -95 68v135q99 0 160.5 -57.5t61.5 -145.5q0 -87 -61.5 -144.5t-160.5 -57.5z" />
    <glyph glyph-name="uni02BF" unicode="&#x2bf;" horiz-adv-x="682" 
d="M452 1219q-99 0 -160.5 57.5t-61.5 144.5q0 88 61.5 145.5t160.5 57.5v-135q-95 0 -95 -68q0 -69 95 -69v-133z" />
    <glyph glyph-name="uni02C0" unicode="&#x2c0;" horiz-adv-x="547" 
d="M344 666h-227v217q0 55 18.5 100.5t40 69.5t89.5 89q52 50 52 93q0 75 -123 75q-84 0 -194 -58v173q103 51 218 51q151 0 240 -63t89 -164q0 -102 -101 -198q-102 -96 -102 -168v-217zM234 1434z" />
    <glyph glyph-name="uni02C1" unicode="&#x2c1;" horiz-adv-x="547" 
d="M547 1252q-109 58 -194 58q-124 0 -124 -75q0 -43 52 -93t82 -81t48.5 -77.5t18.5 -100.5v-217h-227v217q0 72 -101 168q-102 96 -102 198q0 101 89 164t240 63q116 0 218 -51v-173zM304 1434z" />
    <glyph glyph-name="uni02C2" unicode="&#x2c2;" horiz-adv-x="1196" 
d="M1104 196l-1012 429l1 195l1010 429l1 -222l-736 -304l735 -304z" />
    <glyph glyph-name="uni02C3" unicode="&#x2c3;" horiz-adv-x="1196" 
d="M1104 820l-1 -195l-1010 -429l-1 223l736 304l-735 304l-1 223z" />
    <glyph glyph-name="uni02C4" unicode="&#x2c4;" horiz-adv-x="1196" 
d="M1125 217h-223l-304 737l-304 -737h-223l430 1012h195z" />
    <glyph glyph-name="uni02C5" unicode="&#x2c5;" horiz-adv-x="1196" 
d="M1125 1229l-430 -1012h-195l-429 1012h223l304 -737l304 737h223z" />
    <glyph glyph-name="circumflex" unicode="&#x2c6;" horiz-adv-x="785" 
d="M750 1186h-207l-158 188l-147 -188h-207l235 325h248z" />
    <glyph glyph-name="caron" unicode="&#x2c7;" horiz-adv-x="785" 
d="M754 1511l-238 -325h-248l-235 325h205l155 -188l156 188h205z" />
    <glyph glyph-name="uni02C8" unicode="&#x2c8;" horiz-adv-x="682" 
d="M425 1174h-168v362h168v-362z" />
    <glyph glyph-name="macron" unicode="&#x2c9;" horiz-adv-x="690" 
d="M637 1186h-586v172h586v-172z" />
    <glyph glyph-name="uni02CA" unicode="&#x2ca;" horiz-adv-x="621" 
d="M596 1509l-313 -323h-228l260 323h281z" />
    <glyph glyph-name="uni02CB" unicode="&#x2cb;" horiz-adv-x="643" 
d="M596 1186h-227l-314 323h281z" />
    <glyph glyph-name="uni02CC" unicode="&#x2cc;" horiz-adv-x="682" 
d="M425 -481h-168v362h168v-362z" />
    <glyph glyph-name="uni02CD" unicode="&#x2cd;" horiz-adv-x="690" 
d="M637 -291h-586v172h586v-172z" />
    <glyph glyph-name="uni02CE" unicode="&#x2ce;" horiz-adv-x="621" 
d="M596 -443h-227l-314 323h281z" />
    <glyph glyph-name="uni02CF" unicode="&#x2cf;" horiz-adv-x="621" 
d="M596 -119l-313 -323h-228l260 323h281z" />
    <glyph glyph-name="uni02D0" unicode="&#x2d0;" horiz-adv-x="569" 
d="M418 1081l-108 -245h-51l-108 245h267zM418 -20h-267l108 245h51z" />
    <glyph glyph-name="uni02D1" unicode="&#x2d1;" horiz-adv-x="569" 
d="M418 682l-106 -246h-53l-108 246h267z" />
    <glyph glyph-name="uni02D2" unicode="&#x2d2;" horiz-adv-x="682" 
d="M230 353v133q95 0 95 69q0 68 -95 68v135q99 0 160.5 -57.5t61.5 -145.5q0 -87 -61.5 -144.5t-160.5 -57.5z" />
    <glyph glyph-name="uni02D3" unicode="&#x2d3;" horiz-adv-x="682" 
d="M452 353q-99 0 -160.5 57.5t-61.5 144.5q0 88 61.5 145.5t160.5 57.5v-135q-95 0 -95 -68q0 -69 95 -69v-133z" />
    <glyph glyph-name="uni02D4" unicode="&#x2d4;" horiz-adv-x="682" 
d="M543 352h-404v148h127v262h150v-262h127v-148z" />
    <glyph glyph-name="uni02D5" unicode="&#x2d5;" horiz-adv-x="682" 
d="M543 614h-127v-262h-150v262h-127v148h404v-148z" />
    <glyph glyph-name="uni02D6" unicode="&#x2d6;" horiz-adv-x="682" 
d="M543 479h-127v-127h-150v127h-127v148h127v127h150v-127h127v-148z" />
    <glyph glyph-name="uni02D7" unicode="&#x2d7;" horiz-adv-x="635" 
d="M590 479h-549v150h549v-150z" />
    <glyph glyph-name="breve" unicode="&#x2d8;" horiz-adv-x="709" 
d="M692 1493q-12 -141 -102.5 -224t-237.5 -83q-146 0 -238 85.5t-96 221.5h179q17 -135 159 -135q137 0 156 135h180z" />
    <glyph glyph-name="dotaccent" unicode="&#x2d9;" horiz-adv-x="518" 
d="M260 1186q-67 0 -110.5 40t-43.5 97q0 60 44 97.5t110 37.5q67 0 109.5 -38t42.5 -97t-42.5 -98t-109.5 -39z" />
    <glyph glyph-name="ring" unicode="&#x2da;" horiz-adv-x="555" 
d="M274 1186q-102 0 -168.5 59.5t-66.5 155.5q0 101 69.5 161t170.5 60q107 0 173 -59.5t66 -155.5q0 -98 -71.5 -159.5t-172.5 -61.5zM274 1499q-96 0 -96 -94t96 -94q45 0 74 27.5t29 66.5q0 41 -28.5 67.5t-74.5 26.5z" />
    <glyph glyph-name="ogonek" unicode="&#x2db;" horiz-adv-x="545" 
d="M443 -323q-77 -26 -154 -26q-85 0 -138 48.5t-53 126.5q0 84 73 174h155q-60 -92 -60 -160q0 -53 58 -53q49 0 119 26v-136z" />
    <glyph glyph-name="tilde" unicode="&#x2dc;" horiz-adv-x="785" 
d="M754 1497q0 -140 -55.5 -216.5t-151.5 -76.5q-86 0 -168 43q-89 47 -123 47q-80 0 -80 -108h-141q0 139 55 216t154 77q81 0 168 -49q79 -44 120 -44q78 0 78 111h144z" />
    <glyph glyph-name="hungarumlaut" unicode="&#x2dd;" horiz-adv-x="832" 
d="M870 1505l-252 -319h-210l213 319h249zM492 1505l-248 -319h-211l211 319h248z" />
    <glyph glyph-name="uni02DE" unicode="&#x2de;" horiz-adv-x="682" 
d="M582 639q-54 -27 -115 -27q-130 0 -182 109l-107 -59l-74 184l252 141l27 -88q35 -115 115 -115q42 0 84 21v-166z" />
    <glyph glyph-name="uni02DF" unicode="&#x2df;" horiz-adv-x="688" 
d="M645 1016l-113 -113l-188 188l-188 -188l-113 113l188 188l-188 189l113 113l188 -189l188 189l113 -113l-188 -189z" />
    <glyph glyph-name="uni02E0" unicode="&#x2e0;" horiz-adv-x="790" 
d="M790 1223l-270 -461q99 -154 99 -230q0 -85 -62 -139.5t-168 -54.5q-101 0 -159.5 54.5t-58.5 139.5q0 74 99 231l-270 460h243l152 -301l152 301h243zM395 614q-41 -54 -41 -83q0 -41 41 -41t41 41q0 34 -41 83z" />
    <glyph glyph-name="uni02E1" unicode="&#x2e1;" horiz-adv-x="379" 
d="M303 666h-227v811h227v-811zM194 1434z" />
    <glyph glyph-name="uni02E2" unicode="&#x2e2;" horiz-adv-x="570" 
d="M48 678v151q88 -35 196 -35q70 0 70 35q0 19 -69 40q-129 39 -163 84.5t-34 99.5q0 81 74.5 126.5t203.5 45.5q82 0 172 -25v-151q-108 28 -170 28q-55 0 -55 -26q0 -18 68 -39q127 -37 160.5 -80t33.5 -94q0 -192 -289 -192q-113 0 -198 32z" />
    <glyph glyph-name="uni02E3" unicode="&#x2e3;" horiz-adv-x="768" 
d="M748 1223l-214 -278l212 -296h-256l-93 145q-8 12 -14 25q-7 -15 -13 -24l-94 -146h-256l219 286l-206 288h258l92 -151q3 -4 12 -25q7 14 14 26l94 150h245z" />
    <glyph glyph-name="uni02E4" unicode="&#x2e4;" horiz-adv-x="547" 
d="M547 1252q-109 58 -194 58q-124 0 -124 -75q0 -43 52 -93t82 -81t48.5 -77.5t18.5 -100.5v-217h-227v217q0 72 -101 168q-102 96 -102 198q0 101 89 164t240 63q116 0 218 -51v-173zM314 1434z" />
    <glyph glyph-name="uni02E5" unicode="&#x2e5;" horiz-adv-x="784" 
d="M634 0h-156v1311h-328v155h484v-1466z" />
    <glyph glyph-name="uni02E6" unicode="&#x2e6;" horiz-adv-x="784" 
d="M634 0h-156v981h-328v158h328v327h156v-1466z" />
    <glyph glyph-name="uni02E7" unicode="&#x2e7;" horiz-adv-x="784" 
d="M634 0h-156v655h-328v156h328v655h156v-1466z" />
    <glyph glyph-name="uni02E8" unicode="&#x2e8;" horiz-adv-x="784" 
d="M634 0h-156v328h-328v155h328v983h156v-1466z" />
    <glyph glyph-name="uni02E9" unicode="&#x2e9;" horiz-adv-x="784" 
d="M634 1466l-1 -1466h-483v156h327l2 1310h155z" />
    <glyph glyph-name="uni02EA" unicode="&#x2ea;" horiz-adv-x="682" 
d="M585 0h-488l1 881h94l-2 -787h394z" />
    <glyph glyph-name="uni02EB" unicode="&#x2eb;" horiz-adv-x="682" 
d="M585 393h-394l1 -393h-95l1 881h94l-2 -394h393z" />
    <glyph glyph-name="uni02EC" unicode="&#x2ec;" horiz-adv-x="682" 
d="M701 -119l-237 -325h-248l-235 325h204l156 -188l156 188h204z" />
    <glyph glyph-name="uni02ED" unicode="&#x2ed;" horiz-adv-x="850" 
d="M850 1397h-850v119h850v-119zM850 1116h-850v119h850v-119z" />
    <glyph glyph-name="uni02EE" unicode="&#x2ee;" horiz-adv-x="1010" 
d="M915 1468l-190 -444h-197l113 444h274zM500 1468l-193 -444h-194l114 444h273z" />
    <glyph glyph-name="uni02EF" unicode="&#x2ef;" horiz-adv-x="682" 
d="M584 -51l-207 -322h-74l-207 322h155l89 -150l88 150h156z" />
    <glyph glyph-name="uni02F0" unicode="&#x2f0;" horiz-adv-x="682" 
d="M584 -373h-156l-88 150l-89 -150h-155l207 322h74z" />
    <glyph glyph-name="uni02F1" unicode="&#x2f1;" horiz-adv-x="682" 
d="M501 -456l-322 207v74l322 207v-155l-150 -89l150 -89v-155z" />
    <glyph glyph-name="uni02F2" unicode="&#x2f2;" horiz-adv-x="682" 
d="M501 -249l-322 -207v155l150 89l-150 89v155l322 -207v-74z" />
    <glyph glyph-name="uni02F3" unicode="&#x2f3;" horiz-adv-x="682" 
d="M337 -514q-103 0 -169.5 59.5t-66.5 155.5q0 101 69.5 161t170.5 60q108 0 174 -60t66 -155q0 -98 -71.5 -159.5t-172.5 -61.5zM337 -201q-96 0 -96 -94t96 -94q45 0 73.5 27.5t28.5 66.5q0 41 -28 67.5t-74 26.5z" />
    <glyph glyph-name="uni02F4" unicode="&#x2f4;" horiz-adv-x="682" 
d="M596 377h-227l-314 323h281z" />
    <glyph glyph-name="uni02F5" unicode="&#x2f5;" horiz-adv-x="890" 
d="M870 377h-211l-247 319h247zM496 377h-211l-252 319h250z" />
    <glyph glyph-name="uni02F6" unicode="&#x2f6;" horiz-adv-x="890" 
d="M870 696l-252 -319h-210l213 319h249zM492 696l-248 -319h-211l211 319h248z" />
    <glyph glyph-name="uni02F7" unicode="&#x2f7;" horiz-adv-x="682" 
d="M700 -100q0 -140 -55 -216.5t-151 -76.5q-86 0 -168 43q-89 47 -123 47q-80 0 -80 -109h-141q0 139 54.5 216t153.5 77q81 0 168 -49q77 -43 121 -43q78 0 78 111h143z" />
    <glyph glyph-name="uni02F8" unicode="&#x2f8;" horiz-adv-x="569" 
d="M283 1223q-55 0 -93 39t-38 94t38 93t93 38t94.5 -38t39.5 -93t-39.5 -94t-94.5 -39zM283 377q-55 0 -93 39t-38 94t38 94t93 39t94.5 -39t39.5 -94t-39.5 -94t-94.5 -39z" />
    <glyph glyph-name="uni02F9" unicode="&#x2f9;" horiz-adv-x="682" 
d="M551 1341h-272v-272h-148v418h420v-146z" />
    <glyph glyph-name="uni02FA" unicode="&#x2fa;" horiz-adv-x="682" 
d="M551 1069h-148v272h-272v146h420v-418z" />
    <glyph glyph-name="uni02FB" unicode="&#x2fb;" horiz-adv-x="682" 
d="M551 -20h-420v417h148v-272h272v-145z" />
    <glyph glyph-name="uni02FC" unicode="&#x2fc;" horiz-adv-x="682" 
d="M551 -20h-420v145h272v272h148v-417z" />
    <glyph glyph-name="uni02FD" unicode="&#x2fd;" horiz-adv-x="682" 
d="M718 -440h-754v342h146v-197h462v197h146v-342z" />
    <glyph glyph-name="uni02FE" unicode="&#x2fe;" horiz-adv-x="682" 
d="M719 -440h-754v342h146v-197h608v-145z" />
    <glyph glyph-name="uni02FF" unicode="&#x2ff;" horiz-adv-x="682" 
d="M643 -197h-420l168 -243h-144l-210 296v28l208 296h144l-166 -243h420v-134z" />
    <glyph glyph-name="gravecomb" unicode="&#x300;" horiz-adv-x="549" 
d="M498 1219h-197l-264 245h280z" />
    <glyph glyph-name="acutecomb" unicode="&#x301;" horiz-adv-x="549" 
d="M512 1464l-264 -245h-197l180 245h281z" />
    <glyph glyph-name="uni0302" unicode="&#x302;" horiz-adv-x="0" 
d="M360 1186h-207l-158 188l-147 -188h-207l235 325h248z" />
    <glyph glyph-name="uni0303" unicode="&#x303;" horiz-adv-x="0" 
d="M360 1497q0 -140 -55.5 -216.5t-151.5 -76.5q-86 0 -168 43q-89 47 -123 47q-80 0 -80 -108h-141q0 139 55 216t154 77q81 0 168 -49q79 -44 120 -44q78 0 78 111h144z" />
    <glyph glyph-name="uni0304" unicode="&#x304;" horiz-adv-x="0" 
d="M293 1186h-586v172h586v-172z" />
    <glyph glyph-name="uni0305" unicode="&#x305;" horiz-adv-x="0" 
d="M426 1397h-850v119h850v-119z" />
    <glyph glyph-name="uni0306" unicode="&#x306;" horiz-adv-x="0" 
d="M337 1493q-12 -141 -102.5 -224t-237.5 -83q-146 0 -238 85.5t-96 221.5h179q17 -135 159 -135q137 0 156 135h180z" />
    <glyph glyph-name="uni0307" unicode="&#x307;" horiz-adv-x="0" 
d="M1 1186q-67 0 -110.5 40t-43.5 97q0 60 44 97.5t110 37.5q67 0 109.5 -38t42.5 -97t-42.5 -98t-109.5 -39z" />
    <glyph glyph-name="uni0308" unicode="&#x308;" horiz-adv-x="0" 
d="M229 1186q-67 0 -110 39t-43 98q0 61 43 99t110 38t110.5 -38.5t43.5 -98.5t-43 -98.5t-111 -38.5zM-229 1186q-68 0 -111 39.5t-43 97.5q0 60 44 98.5t110 38.5q68 0 110.5 -38.5t42.5 -98.5q0 -61 -42.5 -99t-110.5 -38z" />
    <glyph glyph-name="hookabovecomb" unicode="&#x309;" horiz-adv-x="623" 
d="M328 1268v-49h-140v124q119 7 119 64q0 55 -82 55q-38 0 -78 -10v117q90 6 115 6q209 0 209 -158q0 -124 -143 -149z" />
    <glyph glyph-name="uni030A" unicode="&#x30a;" horiz-adv-x="0" 
d="M-4 1186q-102 0 -168.5 59.5t-66.5 155.5q0 101 69.5 161t170.5 60q107 0 173 -59.5t66 -155.5q0 -98 -71.5 -159.5t-172.5 -61.5zM-4 1499q-96 0 -96 -94t96 -94q45 0 74 27.5t29 66.5q0 41 -28.5 67.5t-74.5 26.5z" />
    <glyph glyph-name="uni030B" unicode="&#x30b;" horiz-adv-x="0" 
d="M418 1505l-252 -319h-210l213 319h249zM40 1505l-248 -319h-211l211 319h248z" />
    <glyph glyph-name="uni030C" unicode="&#x30c;" horiz-adv-x="0" 
d="M361 1511l-238 -325h-248l-235 325h205l155 -188l156 188h205z" />
    <glyph glyph-name="uni030D" unicode="&#x30d;" horiz-adv-x="0" 
d="M83 1174h-168v362h168v-362z" />
    <glyph glyph-name="uni030E" unicode="&#x30e;" horiz-adv-x="0" 
d="M250 1174h-168v362h168v-362zM-82 1174h-168v362h168v-362z" />
    <glyph glyph-name="uni030F" unicode="&#x30f;" horiz-adv-x="0" 
d="M418 1186h-211l-247 319h247zM44 1186h-211l-252 319h250z" />
    <glyph glyph-name="uni0310" unicode="&#x310;" horiz-adv-x="0" 
d="M11 1440q-51 0 -84 30t-33 73q0 45 33.5 73t83.5 28q51 0 83 -28.5t32 -72.5t-32.5 -73.5t-82.5 -29.5zM337 1493q-12 -141 -102.5 -224t-237.5 -83q-146 0 -238 85.5t-96 221.5h178q17 -135 160 -135q137 0 156 135h180z" />
    <glyph glyph-name="uni0311" unicode="&#x311;" horiz-adv-x="0" 
d="M335 1186h-180q-17 135 -158 135q-136 0 -156 -135h-180q12 141 102.5 224t237.5 83q146 0 238 -85.5t96 -221.5z" />
    <glyph glyph-name="uni0312" unicode="&#x312;" horiz-adv-x="0" 
d="M145 1356q-91 -51 -120 -127q44 -3 75 -35t31 -74q0 -50 -34.5 -81t-90.5 -31q-64 0 -102.5 39t-38.5 102q0 89 63.5 169t163.5 122z" />
    <glyph glyph-name="uni0313" unicode="&#x313;" horiz-adv-x="0" 
d="M-82 1008l-53 84q93 53 121 127q-44 3 -75.5 34.5t-31.5 73.5q0 50 34.5 81.5t90.5 31.5q65 0 103 -39t38 -102q0 -89 -63.5 -169t-163.5 -122z" />
    <glyph glyph-name="uni0314" unicode="&#x314;" horiz-adv-x="0" 
d="M145 1092l-53 -84q-100 42 -163.5 122t-63.5 169q0 63 38 102t103 39q56 0 90.5 -31.5t34.5 -81.5q0 -42 -31 -73.5t-75 -34.5q29 -75 120 -127z" />
    <glyph glyph-name="uni0315" unicode="&#x315;" horiz-adv-x="0" 
d="M94 1008l-53 84q93 53 121 127q-44 3 -75.5 34.5t-31.5 73.5q0 50 34.5 81.5t90.5 31.5q65 0 103 -39t38 -102q0 -89 -63.5 -169t-163.5 -122z" />
    <glyph glyph-name="uni0316" unicode="&#x316;" horiz-adv-x="0" 
d="M270 -442h-227l-314 323h281z" />
    <glyph glyph-name="uni0317" unicode="&#x317;" horiz-adv-x="0" 
d="M270 -119l-313 -323h-228l260 323h281z" />
    <glyph glyph-name="uni0318" unicode="&#x318;" horiz-adv-x="0" 
d="M205 -444h-148v127h-262v149h262v127h148v-403z" />
    <glyph glyph-name="uni0319" unicode="&#x319;" horiz-adv-x="0" 
d="M205 -317h-262v-127h-148v403h148v-127h262v-149z" />
    <glyph glyph-name="uni031A" unicode="&#x31a;" horiz-adv-x="0" 
d="M307 1153h-147v258h-467v145h614v-403z" />
    <glyph glyph-name="uni031B" unicode="&#x31b;" horiz-adv-x="0" 
d="M-195 1153l3 158q212 0 212 108q0 73 -28 152h178q25 -75 25 -156q0 -116 -76.5 -189t-206.5 -73h-107z" />
    <glyph glyph-name="uni031C" unicode="&#x31c;" horiz-adv-x="0" 
d="M111 -440q-99 0 -160.5 57.5t-61.5 144.5q0 88 61.5 145.5t160.5 57.5v-135q-95 0 -95 -68q0 -69 95 -69v-133z" />
    <glyph glyph-name="uni031D" unicode="&#x31d;" horiz-adv-x="0" 
d="M203 -447h-404v148h127v262h150v-262h127v-148z" />
    <glyph glyph-name="uni031E" unicode="&#x31e;" horiz-adv-x="0" 
d="M203 -184h-127v-262h-150v262h-127v148h404v-148z" />
    <glyph glyph-name="uni031F" unicode="&#x31f;" horiz-adv-x="0" 
d="M203 -312h-127v-127h-150v127h-127v148h127v127h150v-127h127v-148z" />
    <glyph glyph-name="uni0320" unicode="&#x320;" horiz-adv-x="0" 
d="M275 -248h-549v150h549v-150z" />
    <glyph glyph-name="uni0321" unicode="&#x321;" horiz-adv-x="0" 
d="M291 63q0 -485 -410 -485q-88 0 -172 31v248q66 -37 117 -37q149 0 149 233v31h316v-21z" />
    <glyph glyph-name="uni0322" unicode="&#x322;" horiz-adv-x="0" 
d="M291 -391q-84 -31 -172 -31q-410 0 -410 485v21h316v-31q0 -233 149 -233q52 0 117 37v-248z" />
    <glyph glyph-name="dotbelowcomb" unicode="&#x323;" horiz-adv-x="682" 
d="M340 -391q-67 0 -110.5 40t-43.5 97q0 60 44 97.5t110 37.5q67 0 109.5 -38t42.5 -97t-42.5 -98t-109.5 -39z" />
    <glyph glyph-name="uni0324" unicode="&#x324;" horiz-adv-x="0" 
d="M229 -393q-67 0 -110 39t-43 98q0 61 43 99t110 38t110.5 -38.5t43.5 -98.5t-43 -98.5t-111 -38.5zM-229 -393q-68 0 -111 39.5t-43 97.5q0 60 44 98.5t110 38.5q68 0 110.5 -38.5t42.5 -98.5q0 -61 -42.5 -99t-110.5 -38z" />
    <glyph glyph-name="uni0325" unicode="&#x325;" horiz-adv-x="0" 
d="M-4 -514q-102 0 -168.5 59.5t-66.5 155.5q0 101 69.5 161t170.5 60q107 0 173 -59.5t66 -155.5q0 -98 -71.5 -159.5t-172.5 -61.5zM-4 -201q-96 0 -96 -94t96 -94q45 0 74 27.5t29 66.5q0 41 -28.5 67.5t-74.5 26.5z" />
    <glyph glyph-name="uni0326" unicode="&#x326;" horiz-adv-x="0" 
d="M-53 -475l-39 76q63 19 80 75q-117 4 -117 99q0 46 34.5 76t90.5 30q59 0 96 -37t37 -92q0 -78 -49.5 -140.5t-132.5 -86.5z" />
    <glyph glyph-name="uni0327" unicode="&#x327;" horiz-adv-x="0" 
d="M-203 -451v138q35 -6 72 -6q123 0 123 73q0 66 -111 66q-13 0 -37 -2v182h172v-82q187 -8 187 -166q0 -207 -318 -207q-46 0 -88 4z" />
    <glyph glyph-name="uni0328" unicode="&#x328;" horiz-adv-x="0" 
d="M173 -323q-77 -26 -154 -26q-85 0 -138 48.5t-53 126.5q0 84 73 174h155q-60 -92 -60 -160q0 -53 58 -53q49 0 119 26v-136z" />
    <glyph glyph-name="uni0329" unicode="&#x329;" horiz-adv-x="0" 
d="M84 -481h-168v362h168v-362z" />
    <glyph glyph-name="uni032A" unicode="&#x32a;" horiz-adv-x="0" 
d="M377 -440h-146v196h-462v-196h-146v342h754v-342z" />
    <glyph glyph-name="uni032B" unicode="&#x32b;" horiz-adv-x="0" 
d="M355 -98q0 -110 -58 -178t-155 -68q-86 0 -142 57q-56 -57 -144 -57q-98 0 -154.5 67t-56.5 179h137q0 -117 75 -117q85 0 85 117h116q0 -117 86 -117q74 0 74 117h137z" />
    <glyph glyph-name="uni032C" unicode="&#x32c;" horiz-adv-x="0" 
d="M361 -119l-238 -325h-248l-235 325h205l155 -188l156 188h205z" />
    <glyph glyph-name="uni032D" unicode="&#x32d;" horiz-adv-x="0" 
d="M360 -444h-207l-158 188l-147 -188h-207l235 325h248z" />
    <glyph glyph-name="uni032E" unicode="&#x32e;" horiz-adv-x="0" 
d="M337 -119q-12 -141 -102.5 -224t-237.5 -83q-146 0 -238 85.5t-96 221.5h179q17 -135 159 -135q137 0 156 135h180z" />
    <glyph glyph-name="uni032F" unicode="&#x32f;" horiz-adv-x="0" 
d="M335 -426h-180q-17 135 -158 135q-136 0 -156 -135h-180q12 141 102.5 224t237.5 83q146 0 238 -85.5t96 -221.5z" />
    <glyph glyph-name="uni0330" unicode="&#x330;" horiz-adv-x="0" 
d="M360 -100q0 -140 -55.5 -216.5t-151.5 -76.5q-86 0 -168 43q-89 47 -123 47q-80 0 -80 -108h-141q0 139 55 216t154 77q81 0 168 -49q79 -44 120 -44q78 0 78 111h144z" />
    <glyph glyph-name="uni0331" unicode="&#x331;" horiz-adv-x="0" 
d="M293 -291h-586v172h586v-172z" />
    <glyph glyph-name="uni0332" unicode="&#x332;" horiz-adv-x="0" 
d="M425 -297h-850v119h850v-119z" />
    <glyph glyph-name="uni0333" unicode="&#x333;" horiz-adv-x="0" 
d="M425 -297h-850v119h850v-119zM425 -578h-850v119h850v-119z" />
    <glyph glyph-name="uni0334" unicode="&#x334;" horiz-adv-x="0" 
d="M359 696q0 -140 -55.5 -216.5t-151.5 -76.5q-86 0 -168 43q-89 47 -123 47q-80 0 -80 -108h-141q0 139 55 216t154 77q81 0 168 -49q79 -44 120 -44q78 0 78 111h144z" />
    <glyph glyph-name="uni0335" unicode="&#x335;" horiz-adv-x="0" 
d="M293 455h-586v172h586v-172z" />
    <glyph glyph-name="uni0336" unicode="&#x336;" horiz-adv-x="0" 
d="M426 479h-850v119h850v-119z" />
    <glyph glyph-name="uni0337" unicode="&#x337;" horiz-adv-x="0" 
d="M412 963l-688 -844h-134l686 844h136z" />
    <glyph glyph-name="uni0338" unicode="&#x338;" horiz-adv-x="0" 
d="M401 1434l-688 -1672h-112l686 1672h114z" />
    <glyph glyph-name="uni0339" unicode="&#x339;" horiz-adv-x="0" 
d="M-111 -440v133q95 0 95 69q0 68 -95 68v135q99 0 160.5 -57.5t61.5 -145.5q0 -87 -61.5 -144.5t-160.5 -57.5z" />
    <glyph glyph-name="uni033A" unicode="&#x33a;" horiz-adv-x="0" 
d="M377 -440h-754v342h146v-197h462v197h146v-342z" />
    <glyph glyph-name="uni033B" unicode="&#x33b;" horiz-adv-x="0" 
d="M209 -516h-418v418h418v-418zM78 -385v156h-156v-156h156z" />
    <glyph glyph-name="uni033C" unicode="&#x33c;" horiz-adv-x="0" 
d="M371 -295h-138q-17 68 -80 68q-41 0 -67.5 -39t-26.5 -99h-118q0 61 -26.5 99.5t-68.5 38.5q-62 0 -79 -68h-138q15 89 75 143t141 54q102 0 154 -78q53 78 156 78q79 0 140 -54.5t76 -142.5z" />
    <glyph glyph-name="uni033D" unicode="&#x33d;" horiz-adv-x="0" 
d="M239 1295l-105 -105l-134 133l-133 -133l-104 104l133 133l-133 133l106 106l133 -133l133 133l104 -104l-133 -133z" />
    <glyph glyph-name="uni033E" unicode="&#x33e;" horiz-adv-x="0" 
d="M-119 1268v135q111 0 111 45q0 20 -53 86q-54 67 -54 127q0 180 234 180v-135q-107 0 -107 -45q0 -17 54 -84q53 -66 53 -129q0 -180 -238 -180z" />
    <glyph glyph-name="uni033F" unicode="&#x33f;" horiz-adv-x="0" 
d="M425 1677h-850v119h850v-119zM425 1396h-850v119h850v-119z" />
    <glyph glyph-name="uni0340" unicode="&#x340;" horiz-adv-x="0" 
d="M0 1186h-227l-314 323h281z" />
    <glyph glyph-name="uni0341" unicode="&#x341;" horiz-adv-x="0" 
d="M0 1509l-313 -323h-228l260 323h281z" />
    <glyph glyph-name="uni0342" unicode="&#x342;" horiz-adv-x="0" 
d="M0 1497q0 -140 -55.5 -216.5t-151.5 -76.5q-86 0 -168 43q-89 47 -123 47q-80 0 -80 -108h-141q0 139 55 216t154 77q81 0 168 -49q79 -44 120 -44q78 0 78 111h144z" />
    <glyph glyph-name="uni0343" unicode="&#x343;" horiz-adv-x="0" 
d="M-53 1200l-39 76q63 19 80 76q-117 4 -117 98q0 46 34.5 76t90.5 30q59 0 96 -37t37 -92q0 -78 -49.5 -140.5t-132.5 -86.5z" />
    <glyph glyph-name="uni0344" unicode="&#x344;" horiz-adv-x="0" 
d="M227 1581l-202 -373h-152l84 373h270zM305 1184q-62 0 -102.5 37t-40.5 92q0 57 40.5 93t102.5 36q63 0 103.5 -36.5t40.5 -92.5t-40 -92.5t-104 -36.5zM-305 1184q-63 0 -104 37.5t-41 91.5q0 57 41.5 93t103.5 36q63 0 103 -36.5t40 -92.5t-39.5 -92.5t-103.5 -36.5z
" />
    <glyph glyph-name="uni0345" unicode="&#x345;" horiz-adv-x="0" 
d="M207 -377q-84 -110 -211 -110q-203 0 -203 186v180h195v-176q0 -53 47 -53q43 0 82 49z" />
    <glyph glyph-name="uni0346" unicode="&#x346;" horiz-adv-x="0" 
d="M377 1198h-146v197h-462v-197h-146v342h754v-342z" />
    <glyph glyph-name="uni0347" unicode="&#x347;" horiz-adv-x="850" 
d="M850 -297h-850v119h850v-119zM850 -578h-850v119h850v-119z" />
    <glyph glyph-name="uni0348" unicode="&#x348;" horiz-adv-x="0" 
d="M250 -482h-168v362h168v-362zM-82 -482h-168v362h168v-362z" />
    <glyph glyph-name="uni0349" unicode="&#x349;" horiz-adv-x="0" 
d="M211 -455h-148v272h-272v146h420v-418z" />
    <glyph glyph-name="uni034A" unicode="&#x34a;" horiz-adv-x="0" 
d="M353 1546q0 -229 -209 -229q-55 0 -131 28l-98 -176l-91 47l91 165q-28 8 -49 8q-76 0 -76 -78h-143q0 231 213 231q62 0 131 -26l98 177l92 -48l-94 -168q26 -7 47 -7q76 0 76 76h143z" />
    <glyph glyph-name="uni034B" unicode="&#x34b;" horiz-adv-x="0" 
d="M1 1677q-51 0 -84 30t-33 73q0 45 33.5 73t83.5 28q51 0 83 -28.5t32 -72.5t-32.5 -73.5t-82.5 -29.5zM353 1634q0 -229 -209 -229q-58 0 -149 35q-96 37 -129 37q-76 0 -76 -78h-143q0 231 213 231q71 0 151 -35q83 -36 123 -36q76 0 76 75h143zM1 1165q-51 0 -84 30
t-33 73q0 45 33.5 73t83.5 28q51 0 83 -28.5t32 -72.5t-32.5 -73.5t-82.5 -29.5z" />
    </font>
</defs>
</svg>
