<?xml version="1.0" standalone="no"?>
<!DOCTYPE svg PUBLIC "-//W3C//DTD SVG 1.1//EN" "http://www.w3.org/Graphics/SVG/1.1/DTD/svg11.dtd" >
<svg>
<metadata>
Created by FontForge 20110222 at Sun Oct  5 00:34:35 2014
 By Orthosie Webhosting
(c) 2007 Adobe Systems Incorporated. All Rights Reserved.
</metadata>
<defs>
<font id="HypatiaSansProRegular" horiz-adv-x="511" >
  <font-face 
    font-family="HypatiaSansProRegular"
    font-weight="400"
    font-stretch="normal"
    units-per-em="1000"
    panose-1="2 11 5 2 2 2 4 2 3 3"
    ascent="734"
    descent="-266"
    x-height="449"
    cap-height="685"
    bbox="-176 -267 1832 1012"
    underline-thickness="46"
    underline-position="-47"
    unicode-range="U+0020-FB06"
  />
<missing-glyph horiz-adv-x="462" 
d="M0 0v647h462v-647h-462zM74 46h314l-157 236zM259 324l157 -236v472zM46 560v-472l157 236zM74 601l157 -236l157 236h-314z" />
    <glyph glyph-name="f_f" unicode="ff" horiz-adv-x="548" 
d="M286 725q66 0 113 -33q41 50 113 50q20 0 48.5 -4.5t33.5 -4.5v-79q-22 24 -68 24q-43 0 -69 -32.5t-26 -96.5v-100h99v-58h-99v-288q0 -55 2 -103h-81q2 48 2 103v288h-179v-288q0 -55 2 -103h-81q2 48 2 103v288h-77v58h77v65q0 98 52.5 154.5t135.5 56.5zM175 515v-66
h179v94q0 50 13 89q-28 28 -76 28q-54 0 -85 -39.5t-31 -105.5z" />
    <glyph glyph-name="f_f_i" unicode="ffi" horiz-adv-x="752" 
d="M684 340v-237q0 -73 3 -103h-83q2 22 2 103v285h-175v-285q0 -55 2 -103h-81q2 48 2 103v285h-179v-285q0 -55 2 -103h-81q2 48 2 103v285h-78v61h78v53q0 114 55.5 168.5t134.5 54.5q74 0 123 -40q49 57 137 57q30 0 52 -5t40 -12.5t26 -9.5v-86q-46 52 -115 52
q-54 0 -87 -39.5t-33 -115.5v-77h256q-3 -35 -3 -109zM175 449h179v79q0 56 20 102q-31 33 -85 33q-48 0 -81 -37.5t-33 -112.5v-64z" />
    <glyph glyph-name="f_f_l" unicode="ffl" horiz-adv-x="756" 
d="M547 679q-52 0 -84 -37t-32 -114v-79h98v-61h-98v-285q0 -55 2 -103h-81q2 48 2 103v285h-179v-285q0 -55 2 -103h-81q2 48 2 103v285h-77v61h77v61q0 104 55 159.5t137 55.5q73 0 122 -39q51 55 140 55q42 0 81.5 -13t53.5 -13h3q-3 -33 -3 -110v-502q0 -73 3 -103h-82
q2 22 2 103v557q-23 19 -63 19zM175 449h179v76q0 59 21 105q-31 33 -83 33t-84.5 -37.5t-32.5 -109.5v-67z" />
    <glyph glyph-name="longs_t" unicode="&#x17f;t" horiz-adv-x="581" 
d="M286 449h71v70q0 155 -88 155q-94 0 -94 -157v-412q0 -81 2 -105h-81q2 48 2 105v280h-77v64h77v71q0 104 43.5 162t129.5 58q79 0 121 -58.5t42 -161.5v-71h125v-64h-125v-230q0 -50 19.5 -74t51.5 -24q27 0 40 12v-72q-7 0 -26.5 -2.5t-30.5 -2.5q-63 0 -97 41.5
t-34 112.5v239h-71v64z" />
    <glyph glyph-name="T_h" unicode="Th" horiz-adv-x="1002" 
d="M860 103v158q0 61 -28 96.5t-78 35.5q-52 0 -78.5 -36t-26.5 -96v-158q0 -65 3 -103h-84q3 38 3 103v515h-221v-439q0 -138 4 -179h-91q5 78 5 179v310q0 73 -3 129h-69q-94 0 -172 -5v76q62 -4 172 -4h456q-3 -34 -3 -103v-198q18 35 52 54t75 19q81 0 122 -53.5
t41 -144.5v-156q0 -78 2 -103h-83q2 50 2 103z" />
    <glyph glyph-name="f_b" unicode="fb" horiz-adv-x="856" 
d="M431 612v-253q21 46 67 72t99 26q95 0 158 -66.5t63 -163.5q0 -100 -65 -167t-161 -67q-49 0 -94 25.5t-67 69.5q0 -61 3 -88h-81v660q-27 19 -59 19q-62 0 -90.5 -41t-28.5 -110v-79h97v-61h-97v-285q0 -55 2 -103h-81q2 48 2 103v285h-77v61h77v71q0 110 55.5 165.5
t137.5 55.5q47 0 85 -12.5t58 -12.5q-3 -35 -3 -104zM427 225q0 -69 46 -117.5t110 -48.5t109.5 48.5t45.5 117.5q0 68 -46.5 117t-110.5 49t-109 -48.5t-45 -117.5z" />
    <glyph glyph-name="f_f_b" unicode="ffb" horiz-adv-x="1113" 
d="M547 679q-51 0 -83.5 -37.5t-32.5 -110.5v-82h98v-61h-98v-285q0 -55 2 -103h-81q2 48 2 103v285h-179v-285q0 -55 2 -103h-81q2 48 2 103v285h-77v61h77v62q0 100 54 157t135 57q76 0 125 -39q46 55 141 55q38 0 80.5 -13t53.5 -13h3q-3 -45 -3 -92v-264q22 46 68 72
t99 26q95 0 158 -66.5t63 -163.5q0 -100 -65 -167t-161 -67q-49 0 -94.5 25.5t-67.5 70.5q0 -28 1 -56t1 -33h-82q3 31 3 103v556q-22 20 -63 20zM685 225q0 -69 45.5 -117.5t109.5 -48.5t109.5 48.5t45.5 117.5q0 68 -46 117t-110 49q-65 0 -109.5 -48.5t-44.5 -117.5z
M175 449h179v80q0 51 21 101q-31 33 -83 33t-84.5 -37.5t-32.5 -106.5v-70z" />
    <glyph glyph-name="f_f_h" unicode="ffh" horiz-adv-x="1040" 
d="M547 679q-52 0 -84 -37t-32 -114v-79h98v-61h-98v-285q0 -55 2 -103h-81q2 48 2 103v285h-179v-285q0 -55 2 -103h-81q2 48 2 103v285h-77v61h77v61q0 104 55 159.5t137 55.5q73 0 122 -39q51 55 140 55q42 0 81.5 -13t53.5 -13h3q-3 -33 -3 -110v-221q20 33 54 53t74 20
q81 0 121.5 -53t40.5 -145v-156q0 -65 3 -103h-83q2 50 2 103v158q0 61 -28 96.5t-78 35.5q-49 0 -76.5 -35t-29.5 -92v-163q0 -73 3 -103h-82q2 22 2 103v557q-23 19 -63 19zM175 449h179v76q0 59 21 105q-31 33 -83 33t-84.5 -37.5t-32.5 -109.5v-67z" />
    <glyph glyph-name="f_f_j" unicode="ffj" horiz-adv-x="753" 
d="M684 346v-414q0 -93 -38.5 -144.5t-107.5 -51.5q-23 0 -46.5 3.5t-24.5 3.5v73q14 -14 50 -14q41 0 65 35t24 103v448h-175v-285q0 -55 2 -103h-81q2 48 2 103v285h-179v-285q0 -55 2 -103h-81q2 48 2 103v285h-78v61h78v53q0 114 55.5 168.5t134.5 54.5q74 0 123 -40
q49 57 137 57q30 0 52 -5t40 -12.5t26 -9.5v-86q-46 52 -115 52q-54 0 -87 -39.5t-33 -115.5v-77h256q-3 -38 -3 -103zM175 449h179v79q0 56 20 102q-31 33 -85 33q-48 0 -81 -37.5t-33 -112.5v-64z" />
    <glyph glyph-name="f_f_k" unicode="ffk" horiz-adv-x="985" 
d="M547 679q-52 0 -84 -37t-32 -114v-79h98v-61h-98v-285q0 -55 2 -103h-81q2 48 2 103v285h-179v-285q0 -55 2 -103h-81q2 48 2 103v285h-77v61h77v61q0 104 55 159.5t137 55.5q73 0 122 -39q51 55 140 55q42 0 81.5 -13t53.5 -13h3q-3 -33 -3 -110v-367q148 177 170 211
h89q-35 -34 -183 -212q154 -174 222 -237h-105q-20 26 -193 215v-112q0 -73 3 -103h-82q2 22 2 103v557q-23 19 -63 19zM175 449h179v76q0 59 21 105q-31 33 -83 33t-84.5 -37.5t-32.5 -109.5v-67z" />
    <glyph glyph-name="f_f_t" unicode="fft" horiz-adv-x="830" 
d="M175 391v-288q0 -55 2 -103h-81q2 48 2 103v288h-77v58h77v70q0 92 51.5 149t130.5 57q74 0 117 -33q42 49 113 49q17 0 32.5 -1.5t29 -4t19.5 -3.5v-76q-21 21 -68 21q-44 0 -68 -34t-24 -95v-99h174v23q0 44 -2 92h82q-2 -48 -2 -92v-23h125v-58h-125v-229
q0 -101 72 -101q28 0 38 11v-72q-6 0 -26 -2.5t-32 -2.5q-57 0 -93.5 37t-36.5 116v243h-174v-288q0 -55 2 -103h-81q2 48 2 103v288h-179zM175 521v-72h179v95q0 51 12 90q-26 26 -80 26q-49 0 -80 -40t-31 -99z" />
    <glyph glyph-name="f_h" unicode="fh" horiz-adv-x="784" 
d="M432 612v-226q18 34 51.5 52.5t74.5 18.5q80 0 121 -53.5t41 -144.5v-156q0 -70 4 -103h-83q2 50 2 103v158q0 61 -28 96.5t-78 35.5q-48 0 -74 -30t-31 -80v-180q0 -73 3 -103h-84q3 33 3 103v557q-27 19 -59 19q-62 0 -90.5 -41t-28.5 -110v-79h97v-61h-97v-285
q0 -55 2 -103h-81q2 48 2 103v285h-77v61h77v71q0 110 55.5 165.5t137.5 55.5q47 0 85 -12.5t58 -12.5q-3 -35 -3 -104z" />
    <glyph glyph-name="f_i" unicode="fi" horiz-adv-x="497" 
d="M427 336v-233q0 -43 3 -103h-83q3 33 3 103v288h-175v-288q0 -55 2 -103h-81q2 48 2 103v288h-77v58h77v75q0 107 54 162.5t142 55.5q37 0 74 -12.5t41 -13.5v-86q-48 51 -112 51q-55 0 -88.5 -38.5t-33.5 -110.5v-83h255q-3 -69 -3 -113z" />
    <glyph glyph-name="f_j" unicode="fj" horiz-adv-x="497" 
d="M428 346v-414q0 -93 -38.5 -144.5t-107.5 -51.5q-23 0 -46.5 3.5t-24.5 3.5v73q14 -14 50 -14q41 0 65 35t24 103v448h-175v-285q0 -55 2 -103h-81q2 48 2 103v285h-77v61h77v75q0 107 54 162.5t142 55.5q37 0 74 -12.5t41 -13.5v-86q-48 51 -112 51q-55 0 -88.5 -38.5
t-33.5 -110.5v-83h256q-3 -38 -3 -103z" />
    <glyph glyph-name="f_k" unicode="fk" horiz-adv-x="729" 
d="M432 612v-372q18 22 58 69.5t65 78.5t46 61h90q-54 -54 -183 -213q153 -174 221 -236h-105q-31 38 -192 214v-111q0 -73 3 -103h-84q3 33 3 103v557q-27 19 -59 19q-62 0 -90.5 -41t-28.5 -110v-79h97v-61h-97v-285q0 -55 2 -103h-81q2 48 2 103v285h-77v61h77v71
q0 110 55.5 165.5t137.5 55.5q47 0 85 -12.5t58 -12.5q-3 -35 -3 -104z" />
    <glyph glyph-name="f_l" unicode="fl" horiz-adv-x="500" 
d="M431 612v-509q0 -73 3 -103h-84q3 33 3 103v557q-27 19 -59 19q-62 0 -90.5 -41t-28.5 -110v-79h97v-61h-97v-285q0 -55 2 -103h-81q2 48 2 103v285h-77v61h77v71q0 110 55.5 165.5t137.5 55.5q47 0 85 -12.5t58 -12.5q-3 -35 -3 -104z" />
    <glyph glyph-name="f_t" unicode="ft" horiz-adv-x="592" 
d="M21 391v58h77v95q0 97 42 146.5t113 49.5q21 0 47.5 -4.5t31.5 -4.5v-75q-20 20 -65 20q-44 0 -68 -34t-24 -95v-98h191v23q0 44 -2 92h82q-2 -48 -2 -92v-23h125v-58h-125v-229q0 -101 72 -101q28 0 38 11v-72q-6 0 -26 -2.5t-32 -2.5q-57 0 -93.5 37t-36.5 116v243
h-191v-288q0 -79 2 -103h-81q2 48 2 103v288h-77z" />
    <glyph glyph-name="longs_b" unicode="&#x17f;b" horiz-adv-x="857" 
d="M431 612v-253q21 46 67 72t99 26q95 0 158 -66.5t63 -163.5q0 -100 -65 -167t-161 -67q-49 0 -94 25.5t-67 69.5q0 -61 3 -88h-81v660q-27 19 -59 19q-62 0 -90.5 -41t-28.5 -110v-425q0 -55 2 -103h-81q2 48 2 103v282h-77v64h77v71q0 110 55.5 165.5t137.5 55.5
q47 0 85 -12.5t58 -12.5q-3 -35 -3 -104zM427 225q0 -69 46 -117.5t110 -48.5t109.5 48.5t45.5 117.5q0 68 -46.5 117t-110.5 49t-109 -48.5t-45 -117.5z" />
    <glyph glyph-name="longs_h" unicode="&#x17f;h" horiz-adv-x="786" 
d="M431 612v-228q37 73 127 73q80 0 121 -53.5t41 -144.5v-156q0 -65 3 -103h-83q2 25 2 103v158q0 61 -28 96.5t-78 35.5t-76.5 -33t-28.5 -88v-169q0 -63 2 -103h-82q2 44 2 103v557q-27 19 -59 19q-62 0 -90.5 -41t-28.5 -110v-425q0 -55 2 -103h-81q2 48 2 103v282h-77
v64h77v71q0 110 55.5 165.5t137.5 55.5q47 0 85 -12.5t58 -12.5q-3 -35 -3 -104z" />
    <glyph glyph-name="longs_i" unicode="&#x17f;i" horiz-adv-x="496" 
d="M175 516v-413q0 -55 2 -103h-81q2 48 2 103v282h-77v64h77v75q0 106 53.5 162t139.5 56q38 0 76 -12.5t42 -13.5v-86q-47 51 -113 51q-55 0 -88 -41.5t-33 -123.5zM429 346v-242q0 -74 3 -104h-83q2 44 2 104v297h-46q5 5 29 48h98q-3 -34 -3 -103z" />
    <glyph glyph-name="longs_k" unicode="&#x17f;k" horiz-adv-x="727" 
d="M431 612v-371q18 22 57.5 68.5t64.5 78t46 61.5h90q-54 -54 -183 -213q153 -174 221 -236h-105q-27 33 -191 213v-110q0 -63 2 -103h-82q2 44 2 103v557q-27 19 -59 19q-62 0 -90.5 -41t-28.5 -110v-425q0 -55 2 -103h-81q2 48 2 103v282h-77v64h77v71q0 110 55.5 165.5
t137.5 55.5q47 0 85 -12.5t58 -12.5q-3 -35 -3 -104z" />
    <glyph glyph-name="longs_l" unicode="&#x17f;l" horiz-adv-x="501" 
d="M431 612v-509q0 -63 2 -103h-82q2 44 2 103v557q-27 19 -59 19q-62 0 -90.5 -41t-28.5 -110v-425q0 -55 2 -103h-81q2 48 2 103v282h-77v64h77v71q0 110 55.5 165.5t137.5 55.5q47 0 85 -12.5t58 -12.5q-3 -35 -3 -104z" />
    <glyph glyph-name="longs_longs_i" unicode="&#x17f;&#x17f;i" horiz-adv-x="752" 
d="M175 497v-394q0 -17 0.5 -54.5t0.5 -48.5h-80q2 48 2 103v282h-77v64h77v48q0 117 54 172.5t136 55.5q73 0 123 -39q50 56 137 56q30 0 52 -5t39.5 -12.5t26.5 -9.5v-85q-47 51 -113 51q-58 0 -90 -42t-32 -123v-413q0 -55 2 -103h-80q0 11 0.5 48.5t0.5 54.5v282h-76v64
h76v81q0 60 20 100q-27 33 -83 33q-53 0 -84.5 -40t-31.5 -126zM684 346v-242q0 -74 3 -104h-83q2 44 2 104v297h-46q5 5 29 48h98q-3 -35 -3 -103z" />
    <glyph glyph-name="longs_longs_l" unicode="&#x17f;&#x17f;l" horiz-adv-x="756" 
d="M175 516v-413q0 -55 2 -103h-81q2 48 2 103v282h-77v64h77v61q0 104 55 159.5t137 55.5q73 0 122 -39q51 55 140 55q42 0 81.5 -13t53.5 -13h3q-3 -33 -3 -110v-502q0 -73 3 -103h-82q2 22 2 103v557q-23 19 -63 19q-52 0 -84 -37t-32 -114v-425q0 -67 3 -103h-82
q2 48 2 103v282h-76v64h76v76q0 59 21 105q-31 33 -83 33t-84.5 -37.5t-32.5 -109.5z" />
    <glyph glyph-name="t_f" unicode="tf" horiz-adv-x="529" 
d="M167 385v-226q0 -102 72 -102q27 0 39 12v-72q-6 0 -26 -2.5t-33 -2.5q-57 0 -93 37t-36 115v241h-71v64h71v26q0 53 -3 89h83q-3 -36 -3 -89v-26h168v95q0 94 41 145t113 51q20 0 46.5 -4.5t37.5 -4.5v-79q-21 24 -69 24q-44 0 -68 -34t-24 -95v-98h98v-64h-98v-282
q0 -67 3 -103h-83q3 72 3 103v282h-168z" />
    <glyph glyph-name="t_t" unicode="tt" horiz-adv-x="588" 
d="M87 564h83q-3 -36 -3 -89v-26h125v-64h-125v-226q0 -102 72 -102q27 0 39 12v-72q-6 0 -26 -2.5t-33 -2.5q-57 0 -93 37t-36 115v241h-71v64h71v26q0 53 -3 89zM361 564h83q-3 -36 -3 -89v-26h125v-64h-125v-226q0 -102 72 -102q27 0 39 12v-72q-6 0 -26 -2.5t-33 -2.5
q-57 0 -93 37t-36 115v241h-71v64h71v26q0 53 -3 89z" />
    <glyph glyph-name="Tcommaaccent_h" unicode="&#x162;h" horiz-adv-x="1002" 
d="M860 103v158q0 61 -28 96.5t-78 35.5q-52 0 -78.5 -36t-26.5 -96v-158q0 -65 3 -103h-84q3 38 3 103v515h-221v-439q0 -138 4 -179h-91q5 78 5 179v310q0 73 -3 129h-69q-94 0 -172 -5v76q62 -4 172 -4h456q-3 -34 -3 -103v-198q18 35 52 54t75 19q81 0 122 -53.5
t41 -144.5v-156q0 -78 2 -103h-83q2 50 2 103zM273 -88v46q51 0 83.5 -28t32.5 -72q0 -40 -28.5 -65t-72.5 -25q-28 0 -52 10v51q20 -14 44 -14q20 0 34 13t14 32q0 22 -16 37t-39 15z" />
    <glyph glyph-name="Tcaron_h" unicode="&#x164;h" horiz-adv-x="1002" 
d="M860 103v158q0 61 -28 96.5t-78 35.5q-52 0 -78.5 -36t-26.5 -96v-158q0 -65 3 -103h-84q3 38 3 103v515h-221v-439q0 -138 4 -179h-91q5 78 5 179v310q0 73 -3 129h-69q-94 0 -172 -5v76q62 -4 172 -4h456q-3 -34 -3 -103v-198q18 35 52 54t75 19q81 0 122 -53.5
t41 -144.5v-156q0 -78 2 -103h-83q2 50 2 103zM313 780l79 74h76l-148 -133h-16l-148 133h80z" />
    <glyph glyph-name=".notdef" horiz-adv-x="462" 
d="M0 0v647h462v-647h-462zM74 46h314l-157 236zM259 324l157 -236v472zM46 560v-472l157 236zM74 601l157 -236l157 236h-314z" />
    <glyph glyph-name=".null" horiz-adv-x="0" 
 />
    <glyph glyph-name="nonmarkingreturn" horiz-adv-x="333" 
 />
    <glyph glyph-name="space" unicode=" " horiz-adv-x="217" 
 />
    <glyph glyph-name="exclam" unicode="!" horiz-adv-x="317" 
d="M164 300v259q0 66 -4 108h85q-3 -35 -3 -108v-259q0 -72 3 -108h-85q4 48 4 108zM151 41q0 22 14.5 36.5t35.5 14.5q22 0 36.5 -14.5t14.5 -36.5q0 -21 -15 -35.5t-36 -14.5t-35.5 15t-14.5 35z" />
    <glyph glyph-name="quotedbl" unicode="&#x22;" horiz-adv-x="324" 
d="M50 719h79l-12 -255h-55zM195 719h79l-12 -255h-55z" />
    <glyph glyph-name="numbersign" unicode="#" horiz-adv-x="518" 
d="M148 18h-56l34 196h-90v56h99l24 139h-99v55h108l31 186h56l-31 -186h117l31 186h57l-32 -186h89v-55h-97l-25 -139h100v-56h-109l-34 -196h-55l32 196h-117zM190 270h118l24 139h-118z" />
    <glyph glyph-name="dollar" unicode="$" horiz-adv-x="518" 
d="M202 495q0 -29 17 -54t42 -42t54.5 -38t54.5 -42t42 -55.5t17 -77.5q0 -63 -38.5 -108t-101.5 -57v-51h-56v47q-28 1 -72 10t-59 11v103q17 -29 58.5 -47t84.5 -18t70 29.5t27 73.5q0 35 -23 63.5t-56 50t-66 45t-56 62t-23 88.5q0 60 33.5 100t90.5 53l-1 51h56v-45
q27 -1 64.5 -8t50.5 -8v-98q-29 56 -111 56q-42 0 -70.5 -24.5t-28.5 -69.5z" />
    <glyph glyph-name="percent" unicode="%" horiz-adv-x="731" 
d="M193 684h1q63 0 107 -46t44 -111q0 -69 -44.5 -117t-108.5 -48t-108.5 46t-44.5 112q0 68 45 116t109 48zM193 626h-1q-38 0 -65.5 -30t-27.5 -73t27.5 -73.5t66.5 -30.5q37 0 64 31.5t27 74.5q0 42 -26.5 71.5t-64.5 29.5zM540 317h1q63 0 107 -45.5t44 -110.5
q0 -68 -44.5 -116t-108.5 -48t-108.5 46t-44.5 112q0 68 45 115t109 47zM540 260h-1q-38 0 -65 -30t-27 -73t27.5 -73t65.5 -30t65 31t27 75q0 41 -27 70.5t-65 29.5zM140 0h-68l517 680h70z" />
    <glyph glyph-name="ampersand" unicode="&#x26;" horiz-adv-x="697" 
d="M605 385h90q-18 -16 -36 -35t-30.5 -33t-31.5 -38t-26.5 -34.5t-28 -38t-24.5 -33.5q63 -81 125 -108l1 -74q-89 22 -178 120q-48 -58 -96 -89t-111 -31q-93 0 -150 57.5t-57 141.5q0 61 37.5 105.5t104.5 90.5q-69 52 -69 133q0 56 42.5 96.5t102.5 40.5q56 0 95.5 -38
t39.5 -95q0 -41 -24 -71.5t-73 -66.5q87 -61 167 -165q10 14 30.5 43.5t32.5 46.5t31 39t36 36zM268 59q44 0 80.5 26.5t75.5 76.5q-89 118 -184 185q-53 -37 -82 -72.5t-29 -80.5q0 -55 41.5 -95t97.5 -40zM193 520q0 -53 68 -98q45 29 63 50.5t18 50.5q0 31 -21.5 53
t-51.5 22q-33 0 -54.5 -22.5t-21.5 -55.5z" />
    <glyph glyph-name="quotesingle" unicode="'" horiz-adv-x="180" 
d="M50 719h79l-12 -255h-55z" />
    <glyph glyph-name="parenleft" unicode="(" horiz-adv-x="294" 
d="M263 -108v-80q-110 75 -168 201t-58 262q0 138 60 265t166 201v-78q-72 -67 -112.5 -172t-40.5 -214q0 -108 40 -212.5t113 -172.5z" />
    <glyph glyph-name="parenright" unicode=")" horiz-adv-x="294" 
d="M31 660v81q109 -75 167.5 -201.5t58.5 -262.5q0 -139 -60 -265t-166 -200v78q73 67 113.5 172t40.5 213t-40.5 212.5t-113.5 172.5z" />
    <glyph glyph-name="asterisk" unicode="*" horiz-adv-x="439" 
d="M48 505v65l81 -7l51 -2l-31 48q-21 32 -46 64l57 34q7 -22 34 -73l26 -50l25 50q30 57 33 73l58 -34q-6 -5 -47 -64l-31 -48l52 2l81 8v-66q-9 2 -41 4.5t-40 3.5l-51 2l31 -47q23 -32 48 -64l-59 -32q-5 13 -34 71l-24 51l-29 -51q-4 -10 -17.5 -38t-15.5 -33l-58 34
q15 18 49 63l30 46l-51 -2q-16 -1 -45 -4t-36 -4z" />
    <glyph glyph-name="plus" unicode="+" horiz-adv-x="518" 
d="M294 458v-174h165v-62h-165v-174h-70v174h-165v62h165v174h70z" />
    <glyph glyph-name="comma" unicode="," horiz-adv-x="205" 
d="M78 111h77q0 -183 -58 -276h-63q44 93 44 276z" />
    <glyph glyph-name="hyphen" unicode="-" horiz-adv-x="310" 
d="M32 270h245v-70h-245v70z" />
    <glyph glyph-name="period" unicode="." horiz-adv-x="203" 
d="M47 44q0 23 16 39.5t39 16.5q22 0 38 -16.5t16 -39.5t-16 -39.5t-38 -16.5t-38.5 16.5t-16.5 39.5z" />
    <glyph glyph-name="slash" unicode="/" horiz-adv-x="285" 
d="M75 -37h-72l207 739h72z" />
    <glyph glyph-name="zero" unicode="0" horiz-adv-x="518" 
d="M42 336q0 152 56.5 248t157.5 96q102 0 160 -96t58 -248t-58 -248.5t-160 -96.5q-101 0 -157.5 96.5t-56.5 248.5zM125 336q0 -125 34.5 -200t96.5 -75q65 0 100 75t35 200q0 124 -35.5 199t-99.5 75q-62 0 -96.5 -75t-34.5 -199z" />
    <glyph glyph-name="one" unicode="1" horiz-adv-x="518" 
d="M334 568v-463q0 -75 3 -105h-87q3 66 3 105v480q-93 -37 -128 -56v69q24 9 85.5 36.5t94.5 45.5h33q-4 -32 -4 -112z" />
    <glyph glyph-name="two" unicode="2" horiz-adv-x="518" 
d="M59 0v36q134 136 220 249q46 59 61.5 97.5t15.5 82.5q0 62 -38 102t-95 40q-49 0 -90 -22t-61 -56v104q12 3 39 15.5t60 21.5t71 9q90 0 145 -56.5t55 -147.5q0 -51 -22.5 -100t-73.5 -114q-54 -69 -169 -190h41.5h57h43.5q114 2 145 5v-80q-45 4 -158 4h-247z" />
    <glyph glyph-name="three" unicode="3" horiz-adv-x="518" 
d="M215 609q-41 0 -75.5 -15t-52.5 -39v89q7 2 32 11.5t52.5 16t57.5 6.5q82 0 133 -47t51 -124q0 -57 -33.5 -98t-85.5 -57q58 -15 97.5 -61t39.5 -109q0 -84 -56.5 -137t-146.5 -53q-26 0 -51 4t-39 8.5t-33.5 12t-25.5 9.5v90q17 -27 54.5 -41.5t81.5 -14.5q59 0 95.5 36
t36.5 95q0 53 -39.5 89.5t-96.5 36.5q-11 0 -25 -2v67q8 -2 25 -2q52 0 86 32t34 83q0 50 -33.5 82t-82.5 32z" />
    <glyph glyph-name="four" unicode="4" horiz-adv-x="518" 
d="M15 245l341 438h31q-1 -26 -1 -118v-292q82 0 116 3v-66q-25 2 -116 2v-105q0 -73 3 -107h-87q3 25 3 107v105h-182q-77 0 -108 -1v34zM305 535l-195 -262h195v262z" />
    <glyph glyph-name="five" unicode="5" horiz-adv-x="518" 
d="M216 -12q-24 0 -49 4t-39.5 9t-34.5 12t-27 9v91q20 -26 57.5 -40.5t77.5 -14.5q66 0 111 41t45 104q0 62 -44 103.5t-111 41.5q-76 0 -115 -33q32 151 55 255q15 64 18 103q27 -3 74 -3h90q57 0 90 4v-76q-38 3 -85 3h-112l-45 -199q20 10 65 10q89 0 148 -58t59 -150
q0 -91 -66.5 -153.5t-161.5 -62.5z" />
    <glyph glyph-name="six" unicode="6" horiz-adv-x="518" 
d="M322 555q-28 -32 -132 -162q30 24 85 24q85 0 144 -61.5t59 -150.5q0 -88 -64.5 -150.5t-155.5 -62.5q-90 0 -153.5 63t-63.5 154q0 74 38 139.5t166 217.5q66 76 81 104h100q-38 -38 -104 -115zM121 207q0 -61 40.5 -103.5t98.5 -42.5q57 0 97.5 42t40.5 101
q0 60 -41 102.5t-99 42.5q-57 0 -97 -41t-40 -101z" />
    <glyph glyph-name="seven" unicode="7" horiz-adv-x="518" 
d="M162 597q-71 0 -101 -3v77q22 -2 101 -2h238q76 0 99 2q-19 -30 -48 -87q-112 -220 -246 -493q-27 -49 -43 -91h-92q19 26 61 104q122 237 250 493h-219z" />
    <glyph glyph-name="eight" unicode="8" horiz-adv-x="518" 
d="M131 192q0 -53 36 -90.5t88 -37.5t89 37t37 89t-37 90t-89 38t-88 -37t-36 -89zM148 500q0 -46 31.5 -79t75.5 -33q45 0 76.5 32.5t31.5 78.5t-31 77t-77 31q-45 0 -76 -31t-31 -76zM69 505q0 72 53.5 122.5t132.5 50.5q80 0 133.5 -50t53.5 -121q0 -55 -29.5 -95
t-73.5 -58q53 -19 87.5 -63.5t34.5 -104.5q0 -81 -58.5 -137t-147.5 -56t-146.5 55.5t-57.5 137.5q0 58 33.5 103t84.5 65q-42 17 -71 57t-29 94z" />
    <glyph glyph-name="nine" unicode="9" horiz-adv-x="518" 
d="M195 0h-99q35 34 91 100q61 74 142 177q-31 -24 -78 -24q-88 0 -149.5 61.5t-61.5 150.5t65.5 151t158.5 62q88 0 151.5 -64t63.5 -154q0 -71 -37 -133t-150 -203q-13 -15 -19 -23q-69 -87 -78 -101zM398 461q0 61 -39.5 104t-95.5 43q-59 0 -100.5 -42t-41.5 -102
q0 -59 41.5 -101.5t99.5 -42.5q56 0 96 41t40 100z" />
    <glyph glyph-name="colon" unicode=":" horiz-adv-x="206" 
d="M51 368q0 22 15 37.5t37 15.5t37 -15.5t15 -37.5t-15 -37.5t-37 -15.5t-37 15.5t-15 37.5zM51 40q0 22 15 37.5t37 15.5t37 -15.5t15 -37.5t-15 -37.5t-37 -15.5t-37 15.5t-15 37.5z" />
    <glyph glyph-name="semicolon" unicode=";" horiz-adv-x="226" 
d="M66 369q0 22 15 37.5t37 15.5t37 -15.5t15 -37.5t-15 -37.5t-37 -15.5t-37 15.5t-15 37.5zM81 105h76q0 -180 -56 -270h-62q42 93 42 270z" />
    <glyph glyph-name="less" unicode="&#x3c;" horiz-adv-x="518" 
d="M465 4l-422 239v20l422 239v-76l-319 -173l319 -172v-77z" />
    <glyph glyph-name="equal" unicode="=" horiz-adv-x="518" 
d="M459 300h-400v62h400v-62zM459 144h-400v62h400v-62z" />
    <glyph glyph-name="greater" unicode="&#x3e;" horiz-adv-x="518" 
d="M69 505l403 -239v-20l-403 -239v77l303 172l-303 173v76z" />
    <glyph glyph-name="question" unicode="?" horiz-adv-x="451" 
d="M176 594q-57 0 -105 -30v77q8 1 29.5 7.5t45 11t48.5 4.5q82 0 131.5 -49t49.5 -127q0 -65 -34 -115.5t-122 -112.5q7 -46 16 -86h-79q0 3 -18 109q92 64 122.5 103.5t30.5 90.5q0 50 -32 83.5t-83 33.5zM158 41q0 21 14.5 35.5t34.5 14.5q21 0 36 -14.5t15 -35.5
t-15 -35.5t-36 -14.5q-20 0 -34.5 14.5t-14.5 35.5z" />
    <glyph glyph-name="at" unicode="@" horiz-adv-x="829" 
d="M105 208q0 -134 90 -226.5t221 -92.5q117 0 175 37l-3 -68q-2 0 -63 -10t-109 -10q-158 0 -265.5 106.5t-107.5 263.5q0 158 109.5 270t266.5 112q162 0 264.5 -90.5t102.5 -239.5q0 -103 -57 -169.5t-141 -66.5q-46 0 -68 18t-20 57q-44 -71 -125 -71q-60 0 -101 48
t-41 117q0 86 52.5 147.5t126.5 61.5q44 0 74.5 -26.5t39.5 -58.5q10 64 9 75h63l-41 -252q-10 -62 37 -62q54 0 91.5 48.5t37.5 127.5q0 130 -84 207t-220 77q-130 0 -222 -97t-92 -233zM511 228q0 48 -27 81.5t-65 33.5q-49 0 -84 -41.5t-35 -99.5q0 -48 28.5 -81.5
t69.5 -33.5q47 0 80 41t33 100z" />
    <glyph glyph-name="A" unicode="A" horiz-adv-x="645" 
d="M645 0h-104q-12 35 -45 113l-50 119h-261l-49 -117q-35 -84 -44 -115h-92q41 77 72 152l236 546h23l239 -546q40 -90 75 -152zM418 299l-103 252l-103 -252h206z" />
    <glyph glyph-name="B" unicode="B" horiz-adv-x="513" 
d="M71 0q5 52 5 179v314q0 152 -4 192h148q92 0 143 -47t51 -115q0 -48 -25 -85t-60 -50q62 -18 99.5 -68t37.5 -117q0 -87 -63.5 -145t-170.5 -58h-161zM384 205q0 64 -41.5 103t-105.5 39h-80v-281h69q69 0 113.5 38.5t44.5 100.5zM157 622v-215h77q42 0 70.5 30.5
t28.5 76.5q0 48 -34 78t-86 30h-56z" />
    <glyph glyph-name="C" unicode="C" horiz-adv-x="632" 
d="M127 343q0 -117 84.5 -200t204.5 -83q116 0 181 56v-94q-108 -33 -187 -33q-155 0 -260.5 103.5t-105.5 250.5q0 148 105.5 251.5t260.5 103.5q28 0 56 -3.5t44 -7t42 -10.5t38 -10v-96q-65 54 -175 54q-120 0 -204 -82.5t-84 -199.5z" />
    <glyph glyph-name="D" unicode="D" horiz-adv-x="654" 
d="M265 0h-193q5 52 5 179v327q0 129 -5 179h193q142 0 243 -100t101 -242t-101 -242.5t-243 -100.5zM158 618v-551h102q110 0 188 81.5t78 194.5t-78 194t-189 81h-101z" />
    <glyph glyph-name="E" unicode="E" horiz-adv-x="461" 
d="M237 618h-80v-218h79q110 0 156 3v-74q-47 3 -156 3h-79v-264h88q124 0 169 3v-74q-45 3 -169 3h-173q4 110 4 179v328q0 118 -4 178h165q107 0 169 4v-75q-41 4 -169 4z" />
    <glyph glyph-name="F" unicode="F" horiz-adv-x="449" 
d="M72 0q4 62 4 179v327q0 119 -4 179h171q101 0 163 4v-75q-41 4 -163 4h-86v-238h86q74 0 134 4v-76q-40 4 -134 4h-86v-133q0 -86 3 -179h-88z" />
    <glyph glyph-name="G" unicode="G" horiz-adv-x="669" 
d="M599 192v-170q-38 -13 -58.5 -18.5t-55 -10.5t-73.5 -5q-160 0 -264 103t-104 252t103.5 252t262.5 103q85 0 176 -33v-94q-66 55 -173 55q-124 0 -205 -82t-81 -201t82 -201.5t203 -82.5q76 0 109 20v113q0 66 -4 126h86q-4 -60 -4 -126z" />
    <glyph glyph-name="H" unicode="H" horiz-adv-x="689" 
d="M157 506v-104h374v104q0 137 -3 179h88q-4 -88 -4 -179v-362q0 -88 4 -144h-88q3 42 3 145v190h-374v-191q0 -88 4 -144h-88q3 42 3 145v361q0 138 -3 179h88q-4 -54 -4 -179z" />
    <glyph glyph-name="I" unicode="I" horiz-adv-x="241" 
d="M161 506v-327q0 -117 4 -179h-89q4 62 4 179v327q0 119 -4 179h89q-4 -60 -4 -179z" />
    <glyph glyph-name="J" unicode="J" horiz-adv-x="239" 
d="M161 506v-509q0 -90 -50.5 -142t-128.5 -52q-19 0 -48.5 6.5t-35.5 7.5v90q27 -34 80 -34q43 0 72.5 34.5t29.5 89.5v509q0 89 -3 179h88q-4 -60 -4 -179z" />
    <glyph glyph-name="K" unicode="K" horiz-adv-x="575" 
d="M157 506v-146l185 212q64 76 91 113h100q-44 -44 -110 -119l-186 -211l229 -245q21 -23 40 -42.5t40 -39.5t29 -28h-121q-34 47 -68 83l-229 248v-152q0 -86 3 -179h-88q4 62 4 179v327q0 119 -4 179h88q-3 -90 -3 -179z" />
    <glyph glyph-name="L" unicode="L" horiz-adv-x="462" 
d="M157 506v-437h120q115 0 160 3v-76q-60 4 -160 4h-205q4 110 4 179v327q0 119 -4 179h88q-3 -90 -3 -179z" />
    <glyph glyph-name="M" unicode="M" horiz-adv-x="815" 
d="M696 698l58 -538q11 -100 24 -160h-95q0 36 -9 136l-34 366l-224 -511h-20l-221 510l-44 -357q-12 -100 -13 -144h-87q9 39 28 181l72 517h21l259 -571l262 571h23z" />
    <glyph glyph-name="N" unicode="N" horiz-adv-x="697" 
d="M153 144q0 -88 4 -144h-85q4 56 4 145v362q0 85 -4 193h19q29 -36 82 -95l370 -440v341q0 53 -3 179h84q-3 -66 -3 -179v-373q0 -87 3 -145h-18q-28 36 -74 89l-377 448z" />
    <glyph glyph-name="O" unicode="O" horiz-adv-x="796" 
d="M44 343q0 147 103 250.5t251 103.5t251 -103.5t103 -250.5t-103 -251t-251 -104t-251 104t-103 251zM127 343q0 -118 79 -201.5t192 -83.5t192 83.5t79 201.5t-79.5 201t-191.5 83t-191.5 -83t-79.5 -201z" />
    <glyph glyph-name="P" unicode="P" horiz-adv-x="486" 
d="M157 269v-90q0 -117 4 -179h-88q3 46 3 179v347q0 114 -3 159h153q104 0 164.5 -58.5t60.5 -149.5q0 -90 -63.5 -149t-163.5 -59h-67zM157 622v-291h61q65 0 108 44.5t43 102.5q0 60 -41 102t-111 42h-60z" />
    <glyph glyph-name="Q" unicode="Q" horiz-adv-x="796" 
d="M44 343q0 147 103 251t251 104q147 0 250.5 -104.5t103.5 -250.5q0 -99 -44.5 -174t-107.5 -118q36 -31 89 -64q107 -63 201 -63q47 0 78 9v-63q-42 -12 -96 -12q-120 0 -245 81q-45 29 -104 77q-54 -28 -125 -28q-147 0 -250.5 104t-103.5 251zM127 343
q0 -118 79.5 -201t191.5 -83t191.5 83t79.5 201q0 117 -79.5 200.5t-191.5 83.5t-191.5 -83.5t-79.5 -200.5z" />
    <glyph glyph-name="R" unicode="R" horiz-adv-x="554" 
d="M158 284v-111q0 -132 4 -173h-89q4 41 4 173v333q0 139 -4 179h143q111 0 173 -55.5t62 -144.5q0 -74 -38.5 -120t-96.5 -65q12 -15 101 -135.5t136 -164.5h-111q-122 157 -197 286q-12 -2 -33 -2h-54zM158 620v-276h65q63 0 104 38.5t41 100.5q0 57 -40.5 97t-114.5 40
h-55z" />
    <glyph glyph-name="S" unicode="S" horiz-adv-x="468" 
d="M155 525q0 -33 19 -61.5t48 -47.5t62.5 -43t62.5 -47.5t48 -61.5t19 -84q0 -86 -57.5 -140.5t-149.5 -54.5q-29 0 -55 4.5t-54.5 11t-46.5 9.5v114q19 -32 63.5 -53t94.5 -21q55 0 86.5 33.5t31.5 86.5q0 40 -26.5 72.5t-63.5 56.5t-74.5 50.5t-64 68.5t-26.5 97
q0 86 55 135t143 49q30 0 72.5 -9t53.5 -10v-108q-26 64 -126 64q-51 0 -83 -29.5t-32 -81.5z" />
    <glyph glyph-name="T" unicode="T" horiz-adv-x="617" 
d="M195 685h225q126 0 173 3v-74q-62 4 -173 4h-70q-1 -37 -1 -129v-310q0 -138 4 -179h-89q3 46 3 179v310q0 73 -3 129h-69q-109 0 -171 -4v74q47 -3 171 -3z" />
    <glyph glyph-name="U" unicode="U" horiz-adv-x="673" 
d="M71 685h89q-4 -54 -4 -179v-231q0 -96 50.5 -155.5t130.5 -59.5t130 59.5t50 155.5v231q0 137 -3 179h88q-3 -66 -3 -179v-229q0 -132 -73 -210t-189 -78q-117 0 -189.5 78t-72.5 210v229q0 125 -4 179z" />
    <glyph glyph-name="V" unicode="V" horiz-adv-x="637" 
d="M143 566l179 -430l176 430q41 106 45 119h91q-26 -47 -71 -151l-237 -554h-15l-238 554q-50 114 -72 151h98q10 -37 44 -119z" />
    <glyph glyph-name="W" unicode="W" horiz-adv-x="971" 
d="M345 -15h-12l-261 562q-39 87 -71 138h100q13 -38 50 -119l197 -442l109 254l-76 168q-41 92 -71 139h93q15 -44 55 -131l37 -87l39 90q37 87 52 128h86q-16 -24 -70 -140l-72 -157l114 -260l183 426q38 82 54 131h88q-35 -70 -68 -141l-254 -559h-10l-146 319z" />
    <glyph glyph-name="X" unicode="X" horiz-adv-x="525" 
d="M353 118l-94 160l-102 -173q-41 -71 -57 -105h-99q44 59 98 145l120 198l-117 192q-55 93 -99 150h105q27 -54 64 -114l92 -156l92 157q15 26 36.5 65t26.5 48h98q-38 -49 -98 -147l-115 -188l118 -195q59 -95 104 -155h-105q-59 104 -68 118z" />
    <glyph glyph-name="Y" unicode="Y" horiz-adv-x="587" 
d="M250 0q3 46 3 172v146l-159 238q-53 79 -94 129h105q17 -34 56 -94l136 -201l129 194q45 66 62 101h99q-36 -46 -98 -137l-155 -230v-146q0 -110 4 -172h-88z" />
    <glyph glyph-name="Z" unicode="Z" horiz-adv-x="543" 
d="M420 534l-270 -466h198q119 0 165 3v-74q-46 3 -165 3h-324q29 44 91 152l269 466h-174q-129 0 -170 -4v74q46 -3 170 -3h299q-38 -59 -89 -151z" />
    <glyph glyph-name="bracketleft" unicode="[" horiz-adv-x="338" 
d="M71 -182q3 33 3 105v706q0 71 -3 105h159q48 0 83 3v-67q-33 3 -84 3h-88v-794h89q48 0 83 3v-67q-33 3 -84 3h-158z" />
    <glyph glyph-name="backslash" unicode="\" horiz-adv-x="285" 
d="M282 -37h-72l-207 739h72z" />
    <glyph glyph-name="bracketright" unicode="]" horiz-adv-x="338" 
d="M266 -182h-156q-51 0 -84 -3v67q35 -3 83 -3h88v794h-87q-51 0 -84 -3v67q34 -3 83 -3h157q-2 -46 -2 -105v-706q0 -61 2 -105z" />
    <glyph glyph-name="asciicircum" unicode="^" horiz-adv-x="478" 
d="M236 634l-128 -181h-77l200 255h15l199 -255h-80z" />
    <glyph glyph-name="underscore" unicode="_" horiz-adv-x="485" 
d="M11 -69h463v-47h-463v47z" />
    <glyph glyph-name="grave" unicode="`" horiz-adv-x="462" 
d="M110 664l102 -152h-69l-113 152h80z" />
    <glyph glyph-name="a" unicode="a" horiz-adv-x="449" 
d="M185 395q-68 0 -112 -46v78l45 15q45 15 84 15q172 0 172 -199v-169q0 -39 26 -39q16 0 22 5v-49q-25 -17 -59 -17q-23 0 -39 13.5t-20 39.5q-36 -53 -114 -53q-69 0 -109.5 36.5t-40.5 93.5q0 58 41.5 96.5t113.5 38.5q35 0 65 -13t41 -32v57q0 58 -28 93.5t-88 35.5z
M117 123q0 -35 25 -57.5t69 -22.5q38 0 65 23t27 57q0 32 -27 55t-65 23q-44 0 -69 -22.5t-25 -55.5z" />
    <glyph glyph-name="b" unicode="b" horiz-adv-x="572" 
d="M69 103v583h-46q12 18 27 48h99q-3 -30 -3 -103v-272q22 46 67.5 72t98.5 26q95 0 158 -66.5t63 -163.5q0 -99 -65 -166.5t-161 -67.5q-50 0 -94.5 24.5t-66.5 68.5q0 -50 2 -86h-83q4 41 4 103zM143 225q0 -69 45.5 -117.5t110.5 -48.5q64 0 109.5 48.5t45.5 117.5
q0 68 -46 117t-111 49q-64 0 -109 -48.5t-45 -117.5z" />
    <glyph glyph-name="c" unicode="c" horiz-adv-x="419" 
d="M115 223q0 -68 46 -115.5t111 -47.5q68 0 104 32v-87q-11 -1 -30 -4.5t-37 -5.5t-39 -2q-98 0 -165 67t-67 163q0 98 67 166t165 68q25 0 59 -5.5t45 -6.5v-87q-42 31 -102 31q-66 0 -111.5 -48.5t-45.5 -117.5z" />
    <glyph glyph-name="d" unicode="d" horiz-adv-x="571" 
d="M503 645v-542q0 -64 3 -103h-83q2 19 2 90q-27 -48 -71.5 -72.5t-95.5 -24.5q-92 0 -155.5 68t-63.5 164q0 99 63.5 165.5t159.5 66.5q115 0 163 -91v320h-46q12 13 28 48h99q-3 -48 -3 -89zM428 224q0 69 -44.5 118t-108.5 49q-65 0 -111 -48.5t-46 -116.5
q0 -70 46 -119t112 -49q63 0 107.5 49t44.5 117z" />
    <glyph glyph-name="e" unicode="e" horiz-adv-x="496" 
d="M456 229h-337q-2 -70 43.5 -122t116.5 -52q82 0 138 37v-74q-2 0 -50.5 -13t-99.5 -13q-98 0 -163 66.5t-65 164.5q0 100 61.5 166.5t150.5 66.5q50 0 91 -21t65.5 -53.5t37.5 -68t13 -67.5q0 -11 -2 -17zM251 398q-48 0 -83 -32t-47 -82h255q-5 43 -39.5 78.5
t-85.5 35.5z" />
    <glyph glyph-name="f" unicode="f" horiz-adv-x="292" 
d="M21 385v64h77v95q0 94 41 145t113 51q20 0 46.5 -4.5t37.5 -4.5v-79q-21 24 -69 24q-44 0 -68 -34t-24 -95v-98h98v-64h-98v-282q0 -67 3 -103h-83q3 72 3 103v282h-77z" />
    <glyph glyph-name="g" unicode="g" horiz-adv-x="494" 
d="M389 449h66q0 -50 -44 -80q27 -38 27 -92q0 -75 -56 -128t-136 -53q-24 0 -52.5 9.5t-37.5 9.5q-15 0 -26 -15t-11 -38q0 -20 14.5 -35.5t33.5 -15.5q4 0 31 4t48 4q94 0 159 -40.5t65 -104.5q0 -58 -66.5 -99.5t-159.5 -41.5q-94 0 -159.5 40t-65.5 99q0 66 78 105
q-23 8 -37 32t-14 49q0 27 18 53t48 36q-57 54 -57 130q0 75 55.5 127.5t135.5 52.5q71 0 126 -49q17 15 17 41zM133 277q0 -49 33 -84t79 -35q47 0 81 35t34 84t-34 83t-81 34q-46 0 -79 -34t-33 -83zM97 -127q0 -36 42.5 -60.5t104.5 -24.5q61 0 103.5 24t42.5 59
t-44 59.5t-105 24.5q-60 0 -102 -24t-42 -58z" />
    <glyph glyph-name="h" unicode="h" horiz-adv-x="500" 
d="M359 103v158q0 61 -28 96.5t-77 35.5q-51 0 -79.5 -37t-28.5 -95v-158q0 -70 4 -103h-85q4 33 4 103v583h-46q6 7 15.5 25.5t11.5 22.5h100q-4 -35 -4 -103v-250q43 76 134 76q76 0 116 -54t40 -144v-156q0 -70 4 -103h-85q4 50 4 103z" />
    <glyph glyph-name="i" unicode="i" horiz-adv-x="219" 
d="M150 346v-242q0 -74 3 -104h-84q3 33 3 104v297h-46q11 12 29 48h98q-3 -35 -3 -103zM64 585q0 20 13 33.5t33 13.5t33 -13.5t13 -33.5q0 -19 -13.5 -32t-32.5 -13t-32.5 13t-13.5 32z" />
    <glyph glyph-name="j" unicode="j" horiz-adv-x="219" 
d="M150 346v-408q0 -94 -38 -145t-108 -51q-23 0 -46.5 3.5t-24.5 3.5v72q16 -14 50 -14q41 0 65 34t24 99v461h-46q13 19 28 48h99q-3 -37 -3 -103zM64 586q0 19 13 32.5t32 13.5t32.5 -13t13.5 -33t-13.5 -33t-32.5 -13t-32 13.5t-13 32.5z" />
    <glyph glyph-name="k" unicode="k" horiz-adv-x="444" 
d="M146 631v-393q142 170 170 211h89q-41 -41 -183 -212q101 -114 140 -156t82 -81h-106q-19 25 -192 215v-112q0 -69 3 -103h-84q4 31 4 103v583h-46q14 19 26 48h100q-3 -34 -3 -103z" />
    <glyph glyph-name="l" unicode="l" horiz-adv-x="215" 
d="M146 631v-528q0 -69 3 -103h-84q4 31 4 103v583h-46q14 19 26 48h100q-3 -34 -3 -103z" />
    <glyph glyph-name="m" unicode="m" horiz-adv-x="743" 
d="M333 0q3 39 3 104v170q0 120 -92 120q-39 0 -66.5 -32.5t-27.5 -91.5v-166q0 -68 3 -104h-83q2 48 2 104v297h-46q17 22 29 48h95v-67q36 75 123 75q98 0 126 -88q14 39 47.5 63.5t82.5 24.5q71 0 110 -47t39 -135v-171q0 -64 3 -104h-84q3 44 3 104v162q0 128 -92 128
q-40 0 -67 -33.5t-27 -89.5v-167q0 -66 3 -104h-84z" />
    <glyph glyph-name="n" unicode="n" horiz-adv-x="503" 
d="M362 262q0 65 -30 98.5t-75 33.5q-47 0 -77 -35t-30 -91v-164q0 -60 3 -104h-84q3 44 3 104v297h-46q12 16 29 48h95v-69q17 33 52 55t82 22q73 0 114 -51t41 -145v-157q0 -65 4 -104h-84q3 44 3 104v158z" />
    <glyph glyph-name="o" unicode="o" horiz-adv-x="541" 
d="M39 224q0 97 68 165t163 68q96 0 164 -68t68 -165q0 -96 -68 -163.5t-164 -67.5q-95 0 -163 67.5t-68 163.5zM114 224q0 -68 45.5 -115.5t110.5 -47.5t111 47.5t46 115.5t-46 116.5t-111 48.5t-110.5 -48.5t-45.5 -116.5z" />
    <glyph glyph-name="p" unicode="p" horiz-adv-x="576" 
d="M72 -150v551h-46q14 18 28 48h96v-94q58 102 167 102q92 0 156 -68t64 -163q0 -98 -64.5 -165.5t-157.5 -67.5q-54 0 -98 23.5t-67 68.5v-235q0 -64 4 -103h-85q3 44 3 103zM147 224q0 -68 45.5 -117t109.5 -49t110 48.5t46 117.5t-46.5 118t-111.5 49q-63 0 -108 -49
t-45 -118z" />
    <glyph glyph-name="q" unicode="q" horiz-adv-x="573" 
d="M504 -139q0 -69 4 -114h-85q4 43 4 117v225q-51 -96 -169 -96q-91 0 -155 67t-64 164t64 165t155 68q116 0 169 -93v17q0 39 -3 68h83q-3 -36 -3 -114v-474zM431 224q0 69 -46 118t-110 49q-65 0 -111 -48.5t-46 -116.5q0 -70 46.5 -119t112.5 -49q63 0 108.5 48.5
t45.5 117.5z" />
    <glyph glyph-name="r" unicode="r" horiz-adv-x="345" 
d="M267 457q17 0 33 -2.5t21 -2.5v-85q-28 17 -65 17q-41 0 -72 -43t-31 -97v-141q0 -58 4 -103h-84q3 51 3 103v298h-46q16 20 27 48h90v-102q13 50 46.5 80t73.5 30z" />
    <glyph glyph-name="s" unicode="s" horiz-adv-x="357" 
d="M135 342q0 -28 28 -52t61 -40.5t61 -51.5t28 -83q0 -56 -38.5 -91.5t-104.5 -35.5q-23 0 -47 5t-46.5 12t-30.5 9v97q15 -27 50.5 -45.5t69.5 -18.5q31 0 50 17t19 46q0 30 -28 55t-61 41.5t-61 50.5t-28 79q0 54 37.5 87.5t103.5 33.5q25 0 58.5 -8t41.5 -9v-87
q-11 20 -41 33.5t-56 13.5q-32 0 -49 -16.5t-17 -41.5z" />
    <glyph glyph-name="t" unicode="t" horiz-adv-x="314" 
d="M87 564h83q-3 -36 -3 -89v-26h125v-64h-125v-226q0 -102 72 -102q27 0 39 12v-72q-6 0 -26 -2.5t-33 -2.5q-57 0 -93 37t-36 115v241h-71v64h71v26q0 53 -3 89z" />
    <glyph glyph-name="u" unicode="u" horiz-adv-x="506" 
d="M148 180q0 -62 30.5 -93.5t73.5 -31.5q47 0 77 36t30 91v164q0 60 -3 103h84q-4 -39 -4 -103v-247q0 -65 15 -99h-75q-14 25 -15 69q-43 -77 -134 -77q-70 0 -113.5 47t-43.5 134v228h-46q13 15 28 48h98q-2 -58 -2 -103v-166z" />
    <glyph glyph-name="v" unicode="v" horiz-adv-x="441" 
d="M1 449h94q7 -26 24 -64l107 -258l97 239q20 47 29 83h87q-35 -65 -53 -106l-156 -358h-17l-160 362q-27 63 -52 102z" />
    <glyph glyph-name="w" unicode="w" horiz-adv-x="662" 
d="M316 450h37l120 -316l84 246q19 59 20 69h84q-25 -52 -45 -107l-131 -357h-19l-135 345l-126 -345h-20l-140 362q-28 70 -43 102h92q13 -51 28 -90l81 -225z" />
    <glyph glyph-name="x" unicode="x" horiz-adv-x="392" 
d="M260 65l-65 104l-43 -69q-38 -60 -56 -100h-93q30 39 74 108l76 116l-78 124q-32 54 -67 101h95q20 -42 43 -82l53 -86l54 87q27 44 45 81h90q-29 -38 -71 -101l-76 -122l74 -118q46 -73 76 -108h-95q-20 39 -36 65z" />
    <glyph glyph-name="y" unicode="y" horiz-adv-x="459" 
d="M129 -191q-23 -37 -46.5 -52t-56.5 -15q-13 0 -25 3q29 35 63 87q101 156 138 226l-146 289q-34 65 -55 102h94q8 -25 33 -77l115 -228q59 124 97 221q16 40 30 84h89q-18 -32 -49 -106q-84 -195 -136 -289q-44 -84 -145 -245z" />
    <glyph glyph-name="z" unicode="z" horiz-adv-x="400" 
d="M376 449l-237 -385h150q48 0 82 3v-70q-33 3 -83 3h-266l236 384h-141q-48 0 -82 -3v71q33 -3 83 -3h258z" />
    <glyph glyph-name="braceleft" unicode="{" horiz-adv-x="344" 
d="M323 736v-59q-15 2 -46 2q-39 0 -67 -33.5t-28 -81.5q0 -34 3.5 -81.5t3.5 -80.5q0 -52 -26.5 -83t-56.5 -41q30 -8 56.5 -37t26.5 -80q0 -35 -3.5 -86t-3.5 -86q0 -53 28 -84.5t67 -31.5q28 0 46 3v-60q-26 2 -68 2q-59 0 -101.5 44.5t-42.5 122.5q0 32 4 81.5t4 86.5
q0 50 -29 72.5t-73 22.5v60q44 0 73 24.5t29 78.5q0 32 -4 78t-4 79q0 71 41.5 118.5t102.5 47.5q34 0 68 2z" />
    <glyph glyph-name="bar" unicode="|" horiz-adv-x="204" 
d="M134 -185h-65l1 925h65z" />
    <glyph glyph-name="braceright" unicode="}" horiz-adv-x="344" 
d="M88 -182q-34 0 -68 -2v60q27 -3 46 -3q39 0 66.5 31.5t27.5 84.5q0 35 -3.5 86t-3.5 86q0 51 27 80t57 37q-31 10 -57.5 41t-26.5 83q0 33 3.5 80.5t3.5 81.5q0 48 -28 81.5t-66 33.5q-32 0 -46 -2v59q18 -2 68 -2q60 0 101 -47.5t41 -118.5q0 -33 -3.5 -79t-3.5 -78
q0 -54 29 -78.5t73 -24.5v-60q-44 0 -73 -23t-29 -72q0 -37 3.5 -86.5t3.5 -81.5q0 -78 -42 -122.5t-100 -44.5z" />
    <glyph glyph-name="asciitilde" unicode="~" horiz-adv-x="518" 
d="M105 160h-67q3 69 39 112.5t92 43.5q26 0 47 -9.5t34.5 -23.5t26 -28t28 -23.5t33.5 -9.5q33 0 52 24.5t22 64.5h68q-3 -68 -41.5 -111.5t-96.5 -43.5q-33 0 -58 14.5t-37.5 31.5t-32 31.5t-41.5 14.5q-30 0 -47.5 -24t-20.5 -64z" />
    <glyph glyph-name="uni00A0" unicode="&#xa0;" horiz-adv-x="217" 
 />
    <glyph glyph-name="exclamdown" unicode="&#xa1;" horiz-adv-x="313" 
d="M149 148v-259q0 -66 4 -108h-85q3 34 3 108v259q0 72 -3 108h85q-4 -48 -4 -108zM162 407q0 -22 -14.5 -36.5t-35.5 -14.5q-22 0 -36.5 14.5t-14.5 36.5q0 21 14.5 35.5t36.5 14.5q21 0 35.5 -15t14.5 -35z" />
    <glyph glyph-name="cent" unicode="&#xa2;" horiz-adv-x="513" 
d="M333 -47h-46v66q-88 11 -146 75.5t-58 153.5t58 155.5t146 76.5v77h46v-76q18 -1 45.5 -6t40.5 -6v-87q-35 31 -98 31q-66 0 -112 -48.5t-46 -116.5q0 -67 46.5 -114.5t111.5 -47.5q67 0 101 31v-87q-71 -12 -89 -12v-65z" />
    <glyph glyph-name="sterling" unicode="&#xa3;" horiz-adv-x="518" 
d="M88 327v52h82l4 37q14 141 70.5 201.5t152.5 60.5q21 0 48.5 -5.5t31.5 -5.5v-79q-25 25 -80 25q-62 0 -98 -45.5t-47 -151.5l-4 -37h134v-52h-138l-4 -52q-15 -171 -88 -213h197q73 0 104 3v-68q-36 3 -105 3h-325v62q58 0 93.5 46t45.5 167l5 52h-79z" />
    <glyph glyph-name="currency" unicode="&#xa4;" horiz-adv-x="518" 
d="M60 94l-41 39l77 77q-41 54 -41 118q0 62 41 118l-81 79l41 40l79 -78q53 43 124 43q68 0 122 -42l76 75l41 -39l-75 -78q41 -56 41 -118q0 -66 -41 -119l76 -78l-41 -40l-77 78q-55 -42 -122 -42q-73 0 -123 42zM124 329q0 -58 39.5 -98t95.5 -40t95.5 40t39.5 98
q0 57 -39.5 97t-95.5 40t-95.5 -40t-39.5 -97z" />
    <glyph glyph-name="yen" unicode="&#xa5;" horiz-adv-x="518" 
d="M213 0q4 62 4 134v62h-127v43h127v53h-127v43h127v24l-147 226q-48 71 -63 85h97q8 -18 44 -73l113 -166l101 148q48 72 58 91h91q-32 -37 -82 -115l-131 -198v-22h129v-43h-129v-53h129v-43h-129v-62q0 -72 4 -134h-89z" />
    <glyph glyph-name="brokenbar" unicode="&#xa6;" horiz-adv-x="203" 
d="M134 370h-65v370h65v-370zM134 185v-370h-65v370h65z" />
    <glyph glyph-name="section" unicode="&#xa7;" horiz-adv-x="476" 
d="M381 672v-76q-38 44 -123 44q-47 0 -70.5 -20.5t-23.5 -55.5q0 -30 26.5 -53t64.5 -39.5t76 -36.5t64.5 -54t26.5 -81q0 -64 -70 -116q48 -38 48 -103q0 -70 -49 -105.5t-128 -35.5q-32 0 -59 5t-51 13t-35 10v89q20 -30 60.5 -45.5t82.5 -15.5q48 0 76 21t28 61
q0 36 -28 61.5t-68.5 42t-81 34.5t-68.5 51t-28 80q0 36 23 68.5t66 48.5q-18 12 -36.5 39.5t-18.5 59.5q0 63 43.5 98.5t119.5 35.5q31 0 53.5 -3.5t47.5 -11.5t32 -10zM120 358q0 -37 29.5 -61t83.5 -46.5t75 -37.5q44 34 44 80q0 29 -20 53t-43 36.5t-58.5 29t-49.5 24.5
q-28 -10 -44.5 -32t-16.5 -46z" />
    <glyph glyph-name="dieresis" unicode="&#xa8;" horiz-adv-x="462" 
d="M95 586q0 18 12.5 30t30.5 12q17 0 29.5 -12t12.5 -30q0 -17 -12.5 -29.5t-29.5 -12.5t-30 12.5t-13 29.5zM282 586q0 18 12.5 30t30.5 12q17 0 29 -12t12 -30q0 -17 -12 -29.5t-29 -12.5q-18 0 -30.5 12.5t-12.5 29.5z" />
    <glyph glyph-name="copyright" unicode="&#xa9;" horiz-adv-x="691" 
d="M41 315q0 127 89 217t215 90q127 0 216 -90t89 -217q0 -128 -89 -218.5t-216 -90.5q-126 0 -215 90.5t-89 218.5zM90 315q0 -109 74.5 -186t180.5 -77t181 77t75 186q0 108 -75 184.5t-181 76.5t-180.5 -76.5t-74.5 -184.5zM255 315q0 -50 34 -85t82 -35q52 0 79 23v-71
q-9 -1 -24 -3.5t-29 -4t-30 -1.5q-73 0 -123.5 51.5t-50.5 125.5t50.5 126t123.5 52q22 0 47.5 -5t33.5 -5v-72q-28 25 -77 25q-48 0 -82 -35.5t-34 -85.5z" />
    <glyph glyph-name="ordfeminine" unicode="&#xaa;" horiz-adv-x="281" 
d="M109 517q-39 0 -65 -24v53q2 0 27 8t48 8q62 0 90 -30t28 -94v-89q0 -29 16 -29q11 0 15 3v-24q-19 -19 -42 -19q-16 0 -27.5 9t-12.5 24q-21 -33 -70 -33q-42 0 -67 22t-25 57q0 36 25.5 60t69.5 24q47 0 63 -27v26q0 33 -18 54t-55 21zM83 362q0 -18 13.5 -29.5
t37.5 -11.5q20 0 35 12t15 29t-14.5 28.5t-35.5 11.5q-24 0 -37.5 -11.5t-13.5 -28.5z" />
    <glyph glyph-name="guillemotleft" unicode="&#xab;" horiz-adv-x="576" 
d="M131 224l151 -124v-76l-236 194v13l234 195v-76zM335 224l151 -124v-76l-236 194v13l234 195v-76z" />
    <glyph glyph-name="logicalnot" unicode="&#xac;" horiz-adv-x="518" 
d="M448 122h-74v154h-350v62h424v-216z" />
    <glyph glyph-name="uni00AD" unicode="&#xad;" horiz-adv-x="310" 
d="M32 270h245v-70h-245v70z" />
    <glyph glyph-name="registered" unicode="&#xae;" horiz-adv-x="413" 
d="M63 588q0 60 42 102.5t103 42.5q60 0 102.5 -42.5t42.5 -102.5q0 -61 -42.5 -104t-102.5 -43q-61 0 -103 43t-42 104zM94 588q0 -49 33.5 -83.5t80.5 -34.5t80 34.5t33 83.5q0 48 -33 82t-80 34t-80.5 -34t-33.5 -82zM188 571v-31q0 -26 1 -34h-33q2 16 2 37v83
q0 32 -2 44h46q27 0 42.5 -13.5t15.5 -35.5q0 -16 -10 -28t-25 -17q26 -38 56 -70h-43l-39 65h-11zM188 648v-54h15q13 0 21.5 7.5t7.5 18.5q0 28 -29 28h-15z" />
    <glyph glyph-name="macron" unicode="&#xaf;" horiz-adv-x="462" 
d="M110 601h242v-55h-242v55z" />
    <glyph glyph-name="degree" unicode="&#xb0;" horiz-adv-x="315" 
d="M38 561q0 51 35 86.5t85 35.5q49 0 84 -35.5t35 -86.5q0 -50 -35 -85.5t-84 -35.5q-50 0 -85 35.5t-35 85.5zM89 561q0 -31 20 -51.5t49 -20.5q28 0 48 21t20 51t-20 51.5t-48 21.5t-48.5 -21.5t-20.5 -51.5z" />
    <glyph glyph-name="plusminus" unicode="&#xb1;" horiz-adv-x="518" 
d="M294 545v-174h165v-62h-165v-174h-70v174h-165v62h165v174h70zM59 0v62h400v-62h-400z" />
    <glyph glyph-name="twosuperior" unicode="&#xb2;" horiz-adv-x="329" 
d="M39 448v29q2 2 23 21.5t26.5 24.5t24.5 23.5t26 27t21.5 25.5t20.5 28t14 25.5t11 28t3 26.5q0 33 -21.5 56t-53.5 23q-59 0 -87 -45v73q3 1 37.5 13.5t65.5 12.5q56 0 90 -35.5t33 -89.5q0 -27 -10.5 -53.5t-37 -58t-42 -48t-55.5 -54.5h74q56 0 85 3v-58q-21 2 -95 2
h-153z" />
    <glyph glyph-name="threesuperior" unicode="&#xb3;" horiz-adv-x="329" 
d="M137 789q-50 0 -80 -30v62q1 0 19.5 6t34.5 9t36 3q52 0 85 -27t33 -71q0 -34 -20 -57.5t-52 -33.5q35 -8 59 -33t24 -61q0 -51 -36 -81.5t-94 -30.5q-20 0 -37.5 3.5t-35.5 9t-21 6.5v62q23 -31 86 -31q32 0 53.5 18.5t21.5 48.5q0 28 -22.5 47t-55.5 19q-4 0 -9 -0.5
t-7 -0.5v48q10 -2 16 -2q29 0 48.5 16.5t19.5 42.5t-19 42t-47 16z" />
    <glyph glyph-name="acute" unicode="&#xb4;" horiz-adv-x="462" 
d="M244 512l102 152h79l-113 -152h-68z" />
    <glyph glyph-name="mu" unicode="&#xb5;" 
d="M146 179q2 -122 106 -122q48 0 77 38.5t29 88.5v162q0 64 -4 103h84q-3 -44 -3 -103v-231q0 -37 5.5 -51t20.5 -14q16 0 21 5v-49q-28 -17 -57 -17q-28 0 -43 19.5t-18 71.5q-40 -88 -125 -88q-71 0 -106 53q10 -63 10 -207q0 -37 3 -97h-80q3 33 3 103v504q0 61 -4 101
h84q-3 -44 -3 -103v-167z" />
    <glyph glyph-name="paragraph" unicode="&#xb6;" horiz-adv-x="509" 
d="M388 -85h-87q2 124 2 177v109h-9q-110 0 -180 70.5t-70 171.5t68.5 171.5t185.5 70.5h169v-68h-82v-525q0 -85 3 -177z" />
    <glyph glyph-name="periodcentered" unicode="&#xb7;" horiz-adv-x="203" 
d="M47 240q0 22 16.5 38.5t38.5 16.5t38 -16t16 -39t-16 -39.5t-38 -16.5q-23 0 -39 16.5t-16 39.5z" />
    <glyph glyph-name="cedilla" unicode="&#xb8;" horiz-adv-x="462" 
d="M150 -91l54 91h45l-29 -46q31 -4 51 -23.5t20 -53.5q0 -37 -26 -60t-69 -23q-22 0 -58 13v51q18 -22 53 -22q20 0 32.5 10.5t12.5 27.5q0 19 -14 30t-38 11t-34 -6z" />
    <glyph glyph-name="onesuperior" unicode="&#xb9;" horiz-adv-x="266" 
d="M182 770v-259q0 -39 2 -63h-64q1 13 1 63v258q-39 -15 -76 -32v51q47 16 114 50h25q-2 -14 -2 -68z" />
    <glyph glyph-name="ordmasculine" unicode="&#xba;" horiz-adv-x="334" 
d="M22 421q0 58 42.5 99.5t101.5 41.5q61 0 103.5 -41t42.5 -100q0 -58 -42.5 -99.5t-103.5 -41.5q-59 0 -101.5 41.5t-42.5 99.5zM79 421q0 -38 25 -65t62 -27t63 27t26 65t-26 65t-63 27t-62 -27t-25 -65z" />
    <glyph glyph-name="guillemotright" unicode="&#xbb;" horiz-adv-x="576" 
d="M240 226l-151 124v76l236 -194v-13l-234 -195v76zM445 226l-151 124v76l236 -194v-13l-234 -195v76z" />
    <glyph glyph-name="onequarter" unicode="&#xbc;" horiz-adv-x="721" 
d="M195 607v-259q0 -39 2 -63h-64q1 13 1 63v258q-39 -15 -76 -32v51q47 16 114 50h25q-2 -14 -2 -68zM154 0h-59l437 670h59zM381 135l212 257h23q0 -7 -0.5 -32t-0.5 -39v-166q55 0 68 1v-49q-14 2 -68 2v-48q0 -33 2 -61h-63q2 15 2 61v48h-107q-48 0 -68 -1v27zM556 297
l-114 -142h114v142z" />
    <glyph glyph-name="onehalf" unicode="&#xbd;" horiz-adv-x="721" 
d="M195 607v-259q0 -39 2 -63h-64q1 13 1 63v258q-39 -15 -76 -32v51q47 16 114 50h25q-2 -14 -2 -68zM154 0h-59l437 670h59zM447 0v29q2 2 23 21.5t26.5 24.5t24.5 23.5t26 27t21.5 25.5t20.5 28t14 25.5t11 28t3 26.5q0 33 -21.5 56t-53.5 23q-59 0 -87 -45v73
q3 1 37.5 13.5t65.5 12.5q56 0 90 -35.5t33 -89.5q0 -27 -10.5 -53.5t-37 -58t-42 -48t-55.5 -54.5h74q56 0 85 3v-58q-21 2 -95 2h-153z" />
    <glyph glyph-name="threequarters" unicode="&#xbe;" horiz-adv-x="721" 
d="M131 626q-50 0 -80 -30v62q1 0 19.5 6t34.5 9t36 3q52 0 85 -27t33 -71q0 -34 -20 -57.5t-52 -33.5q35 -8 59 -33t24 -61q0 -51 -36 -81.5t-94 -30.5q-20 0 -37.5 3.5t-35.5 9t-21 6.5v62q23 -31 86 -31q32 0 53.5 18.5t21.5 48.5q0 28 -22.5 47t-55.5 19q-4 0 -9 -0.5
t-7 -0.5v48q10 -2 16 -2q29 0 48.5 16.5t19.5 42.5t-19 42t-47 16zM183 0h-59l437 670h59zM385 135l212 257h23q0 -7 -0.5 -32t-0.5 -39v-166q55 0 68 1v-49q-14 2 -68 2v-48q0 -33 2 -61h-63q2 15 2 61v48h-107q-48 0 -68 -1v27zM560 297l-114 -142h114v142z" />
    <glyph glyph-name="questiondown" unicode="&#xbf;" horiz-adv-x="451" 
d="M275 -146q57 0 105 30v-77q-8 -1 -29.5 -7.5t-45 -11t-48.5 -4.5q-82 0 -131.5 49t-49.5 127q0 65 34 115.5t122 112.5q-7 46 -16 86h79q0 -2 18 -109q-92 -64 -122.5 -103.5t-30.5 -90.5q0 -50 32 -83.5t83 -33.5zM293 407q0 -21 -14.5 -35.5t-34.5 -14.5
q-21 0 -36 14.5t-15 35.5t15 35.5t36 14.5q20 0 34.5 -14.5t14.5 -35.5z" />
    <glyph glyph-name="Agrave" unicode="&#xc0;" horiz-adv-x="645" 
d="M645 0h-104q-12 35 -45 113l-50 119h-261l-49 -117q-35 -84 -44 -115h-92q41 77 72 152l236 546h23l239 -546q40 -90 75 -152zM418 299l-103 252l-103 -252h206zM247 847l129 -112h-80l-146 112h97z" />
    <glyph glyph-name="Aacute" unicode="&#xc1;" horiz-adv-x="645" 
d="M645 0h-104q-12 35 -45 113l-50 119h-261l-49 -117q-35 -84 -44 -115h-92q41 77 72 152l236 546h23l239 -546q40 -90 75 -152zM418 299l-103 252l-103 -252h206zM266 735l128 112h97l-146 -112h-79z" />
    <glyph glyph-name="Acircumflex" unicode="&#xc2;" horiz-adv-x="645" 
d="M645 0h-104q-12 35 -45 113l-50 119h-261l-49 -117q-35 -84 -44 -115h-92q41 77 72 152l236 546h23l239 -546q40 -90 75 -152zM418 299l-103 252l-103 -252h206zM321 800l-79 -74h-76l148 133h16l148 -133h-80z" />
    <glyph glyph-name="Atilde" unicode="&#xc3;" horiz-adv-x="645" 
d="M645 0h-104q-12 35 -45 113l-50 119h-261l-49 -117q-35 -84 -44 -115h-92q41 77 72 152l236 546h23l239 -546q40 -90 75 -152zM418 299l-103 252l-103 -252h206zM205 740h-56q-2 47 27 76.5t78 29.5q34 0 55.5 -14.5t38.5 -29t39 -14.5q21 0 34.5 14t13.5 38h57
q0 -47 -28.5 -76t-76.5 -29q-42 0 -75 28t-58 28q-22 0 -35.5 -14.5t-13.5 -36.5z" />
    <glyph glyph-name="Adieresis" unicode="&#xc4;" horiz-adv-x="645" 
d="M645 0h-104q-12 35 -45 113l-50 119h-261l-49 -117q-35 -84 -44 -115h-92q41 77 72 152l236 546h23l239 -546q40 -90 75 -152zM418 299l-103 252l-103 -252h206zM179 788q0 19 13.5 32t32.5 13t32.5 -13t13.5 -32t-13.5 -32t-32.5 -13t-32.5 13t-13.5 32zM368 788
q0 19 14 32t33 13t32 -13t13 -32t-13 -32t-32 -13t-33 13t-14 32z" />
    <glyph glyph-name="Aring" unicode="&#xc5;" horiz-adv-x="645" 
d="M230 779q0 36 26.5 61t63.5 25t64 -25t27 -61q0 -32 -23 -56t-56 -29l238 -542q40 -90 75 -152h-104q-12 35 -45 113l-50 119h-261l-49 -117q-35 -84 -44 -115h-92q41 77 72 152l234 543q-32 5 -54 28.5t-22 55.5zM418 299l-103 252l-103 -252h206zM274 779
q0 -19 13.5 -33t32.5 -14q20 0 33.5 14t13.5 33q0 20 -13.5 34t-33.5 14q-19 0 -32.5 -14t-13.5 -34z" />
    <glyph glyph-name="AE" unicode="&#xc6;" horiz-adv-x="835" 
d="M655 0h-195l-15 122l-18 116h-210l-65 -126q-36 -65 -56 -112h-96q29 39 87 151l287 534h184q82 0 148 4v-75q-40 4 -137 4h-126l39 -259h116q86 0 132 3v-74q-45 3 -122 3h-112l34 -223h123q95 0 138 3v-73q-29 2 -136 2zM377 555l-129 -250h166z" />
    <glyph glyph-name="Ccedilla" unicode="&#xc7;" horiz-adv-x="632" 
d="M341 -93l49 83q-148 7 -247 109t-99 244q0 148 105.5 251.5t260.5 103.5q28 0 56 -3.5t44 -7t42 -10.5t38 -10v-96q-65 54 -175 54q-120 0 -204 -82.5t-84 -199.5t84.5 -200t204.5 -83q116 0 181 56v-94q-93 -29 -161 -32l-23 -36q32 -4 52 -24.5t20 -54.5
q0 -38 -26.5 -61t-69.5 -23q-12 0 -23.5 2.5t-22.5 6t-13 4.5v53q18 -22 54 -22q20 0 32.5 10.5t12.5 26.5q0 19 -14 30t-39 11q-24 0 -35 -6z" />
    <glyph glyph-name="Egrave" unicode="&#xc8;" horiz-adv-x="461" 
d="M237 618h-80v-218h79q110 0 156 3v-74q-47 3 -156 3h-79v-264h88q124 0 169 3v-74q-45 3 -169 3h-173q4 110 4 179v328q0 118 -4 178h165q107 0 169 4v-75q-41 4 -169 4zM158 847l129 -112h-80l-146 112h97z" />
    <glyph glyph-name="Eacute" unicode="&#xc9;" horiz-adv-x="461" 
d="M237 618h-80v-218h79q110 0 156 3v-74q-47 3 -156 3h-79v-264h88q124 0 169 3v-74q-45 3 -169 3h-173q4 110 4 179v328q0 118 -4 178h165q107 0 169 4v-75q-41 4 -169 4zM179 735l128 112h97l-146 -112h-79z" />
    <glyph glyph-name="Ecircumflex" unicode="&#xca;" horiz-adv-x="461" 
d="M237 618h-80v-218h79q110 0 156 3v-74q-47 3 -156 3h-79v-264h88q124 0 169 3v-74q-45 3 -169 3h-173q4 110 4 179v328q0 118 -4 178h165q107 0 169 4v-75q-41 4 -169 4zM236 800l-79 -74h-76l148 133h16l148 -133h-80z" />
    <glyph glyph-name="Edieresis" unicode="&#xcb;" horiz-adv-x="461" 
d="M237 618h-80v-218h79q110 0 156 3v-74q-47 3 -156 3h-79v-264h88q124 0 169 3v-74q-45 3 -169 3h-173q4 110 4 179v328q0 118 -4 178h165q107 0 169 4v-75q-41 4 -169 4zM98 788q0 19 13.5 32t32.5 13t32.5 -13t13.5 -32t-13.5 -32t-32.5 -13t-32.5 13t-13.5 32zM287 788
q0 19 14 32t33 13t32 -13t13 -32t-13 -32t-32 -13t-33 13t-14 32z" />
    <glyph glyph-name="Igrave" unicode="&#xcc;" horiz-adv-x="241" 
d="M161 506v-327q0 -117 4 -179h-89q4 62 4 179v327q0 119 -4 179h89q-4 -60 -4 -179zM49 847l129 -112h-80l-146 112h97z" />
    <glyph glyph-name="Iacute" unicode="&#xcd;" horiz-adv-x="241" 
d="M161 506v-327q0 -117 4 -179h-89q4 62 4 179v327q0 119 -4 179h89q-4 -60 -4 -179zM65 735l128 112h97l-146 -112h-79z" />
    <glyph glyph-name="Icircumflex" unicode="&#xce;" horiz-adv-x="241" 
d="M161 506v-327q0 -117 4 -179h-89q4 62 4 179v327q0 119 -4 179h89q-4 -60 -4 -179zM120 800l-79 -74h-76l148 133h16l148 -133h-80z" />
    <glyph glyph-name="Idieresis" unicode="&#xcf;" horiz-adv-x="241" 
d="M161 506v-327q0 -117 4 -179h-89q4 62 4 179v327q0 119 -4 179h89q-4 -60 -4 -179zM-20 788q0 19 13.5 32t32.5 13t32.5 -13t13.5 -32t-13.5 -32t-32.5 -13t-32.5 13t-13.5 32zM169 788q0 19 14 32t33 13t32 -13t13 -32t-13 -32t-32 -13t-33 13t-14 32z" />
    <glyph glyph-name="Eth" unicode="&#xd0;" horiz-adv-x="704" 
d="M315 0h-193q5 52 5 179v129h-107v60h107v138q0 129 -5 179h193q142 0 243 -100t101 -242t-101 -242.5t-243 -100.5zM208 618v-250h153v-60h-153v-241h102q110 0 188 81.5t78 194.5t-78 194t-189 81h-101z" />
    <glyph glyph-name="Ntilde" unicode="&#xd1;" horiz-adv-x="697" 
d="M153 144q0 -88 4 -144h-85q4 56 4 145v362q0 85 -4 193h19q29 -36 82 -95l370 -440v341q0 53 -3 179h84q-3 -66 -3 -179v-373q0 -87 3 -145h-18q-28 36 -74 89l-377 448zM233 740h-56q-2 47 27 76.5t78 29.5q34 0 55.5 -14.5t38.5 -29t39 -14.5q21 0 34.5 14t13.5 38h57
q0 -47 -28.5 -76t-76.5 -29q-42 0 -75 28t-58 28q-22 0 -35.5 -14.5t-13.5 -36.5z" />
    <glyph glyph-name="Ograve" unicode="&#xd2;" horiz-adv-x="796" 
d="M44 343q0 147 103 250.5t251 103.5t251 -103.5t103 -250.5t-103 -251t-251 -104t-251 104t-103 251zM127 343q0 -118 79 -201.5t192 -83.5t192 83.5t79 201.5t-79.5 201t-191.5 83t-191.5 -83t-79.5 -201zM327 847l129 -112h-80l-146 112h97z" />
    <glyph glyph-name="Oacute" unicode="&#xd3;" horiz-adv-x="796" 
d="M44 343q0 147 103 250.5t251 103.5t251 -103.5t103 -250.5t-103 -251t-251 -104t-251 104t-103 251zM127 343q0 -118 79 -201.5t192 -83.5t192 83.5t79 201.5t-79.5 201t-191.5 83t-191.5 -83t-79.5 -201zM342 735l128 112h97l-146 -112h-79z" />
    <glyph glyph-name="Ocircumflex" unicode="&#xd4;" horiz-adv-x="796" 
d="M44 343q0 147 103 250.5t251 103.5t251 -103.5t103 -250.5t-103 -251t-251 -104t-251 104t-103 251zM127 343q0 -118 79 -201.5t192 -83.5t192 83.5t79 201.5t-79.5 201t-191.5 83t-191.5 -83t-79.5 -201zM397 800l-79 -74h-76l148 133h16l148 -133h-80z" />
    <glyph glyph-name="Otilde" unicode="&#xd5;" horiz-adv-x="796" 
d="M44 343q0 147 103 250.5t251 103.5t251 -103.5t103 -250.5t-103 -251t-251 -104t-251 104t-103 251zM127 343q0 -118 79 -201.5t192 -83.5t192 83.5t79 201.5t-79.5 201t-191.5 83t-191.5 -83t-79.5 -201zM282 740h-56q-2 47 27 76.5t78 29.5q34 0 55.5 -14.5t38.5 -29
t39 -14.5q21 0 34.5 14t13.5 38h57q0 -47 -28.5 -76t-76.5 -29q-42 0 -75 28t-58 28q-22 0 -35.5 -14.5t-13.5 -36.5z" />
    <glyph glyph-name="Odieresis" unicode="&#xd6;" horiz-adv-x="796" 
d="M44 343q0 147 103 250.5t251 103.5t251 -103.5t103 -250.5t-103 -251t-251 -104t-251 104t-103 251zM127 343q0 -118 79 -201.5t192 -83.5t192 83.5t79 201.5t-79.5 201t-191.5 83t-191.5 -83t-79.5 -201zM257 788q0 19 13.5 32t32.5 13t32.5 -13t13.5 -32t-13.5 -32
t-32.5 -13t-32.5 13t-13.5 32zM446 788q0 19 14 32t33 13t32 -13t13 -32t-13 -32t-32 -13t-33 13t-14 32z" />
    <glyph glyph-name="multiply" unicode="&#xd7;" horiz-adv-x="518" 
d="M433 385l-132 -133l133 -132l-42 -42l-132 133l-132 -131l-43 42l131 132l-133 132l42 43l133 -133l132 130z" />
    <glyph glyph-name="Oslash" unicode="&#xd8;" horiz-adv-x="796" 
d="M44 343q0 147 103 250.5t251 103.5q117 0 209 -68l48 56h72l-78 -92q103 -103 103 -250t-103 -251t-251 -104q-116 0 -209 67l-47 -55h-72l78 91q-104 102 -104 252zM127 343q0 -112 71 -193l360 421q-72 56 -160 56q-112 0 -191.5 -83t-79.5 -201zM669 343
q0 110 -71 191l-360 -422q71 -54 160 -54q113 0 192 83.5t79 201.5z" />
    <glyph glyph-name="Ugrave" unicode="&#xd9;" horiz-adv-x="673" 
d="M71 685h89q-4 -54 -4 -179v-231q0 -96 50.5 -155.5t130.5 -59.5t130 59.5t50 155.5v231q0 137 -3 179h88q-3 -66 -3 -179v-229q0 -132 -73 -210t-189 -78q-117 0 -189.5 78t-72.5 210v229q0 125 -4 179zM267 847l129 -112h-80l-146 112h97z" />
    <glyph glyph-name="Uacute" unicode="&#xda;" horiz-adv-x="673" 
d="M71 685h89q-4 -54 -4 -179v-231q0 -96 50.5 -155.5t130.5 -59.5t130 59.5t50 155.5v231q0 137 -3 179h88q-3 -66 -3 -179v-229q0 -132 -73 -210t-189 -78q-117 0 -189.5 78t-72.5 210v229q0 125 -4 179zM281 735l128 112h97l-146 -112h-79z" />
    <glyph glyph-name="Ucircumflex" unicode="&#xdb;" horiz-adv-x="673" 
d="M71 685h89q-4 -54 -4 -179v-231q0 -96 50.5 -155.5t130.5 -59.5t130 59.5t50 155.5v231q0 137 -3 179h88q-3 -66 -3 -179v-229q0 -132 -73 -210t-189 -78q-117 0 -189.5 78t-72.5 210v229q0 125 -4 179zM335 800l-79 -74h-76l148 133h16l148 -133h-80z" />
    <glyph glyph-name="Udieresis" unicode="&#xdc;" horiz-adv-x="673" 
d="M71 685h89q-4 -54 -4 -179v-231q0 -96 50.5 -155.5t130.5 -59.5t130 59.5t50 155.5v231q0 137 -3 179h88q-3 -66 -3 -179v-229q0 -132 -73 -210t-189 -78q-117 0 -189.5 78t-72.5 210v229q0 125 -4 179zM197 788q0 19 13.5 32t32.5 13t32.5 -13t13.5 -32t-13.5 -32
t-32.5 -13t-32.5 13t-13.5 32zM386 788q0 19 14 32t33 13t32 -13t13 -32t-13 -32t-32 -13t-33 13t-14 32z" />
    <glyph glyph-name="Yacute" unicode="&#xdd;" horiz-adv-x="587" 
d="M250 0q3 46 3 172v146l-159 238q-53 79 -94 129h105q17 -34 56 -94l136 -201l129 194q45 66 62 101h99q-36 -46 -98 -137l-155 -230v-146q0 -110 4 -172h-88zM238 735l128 112h97l-146 -112h-79z" />
    <glyph glyph-name="Thorn" unicode="&#xde;" horiz-adv-x="479" 
d="M157 143v-15q0 -82 3 -128h-88q4 41 4 149v357q0 141 -4 179h88q-3 -59 -3 -131h62q105 0 165 -57t60 -149q0 -89 -64.5 -147t-167.5 -58h-55zM157 490v-284h53q66 0 109 42.5t43 100.5q0 60 -41 100.5t-111 40.5h-53z" />
    <glyph glyph-name="germandbls" unicode="&#xdf;" horiz-adv-x="530" 
d="M263 343q-30 0 -50 -6v73q12 -2 39 -2q55 0 90.5 39t35.5 97q0 53 -31.5 90.5t-82.5 37.5q-54 0 -87 -37.5t-33 -118.5v-412q0 -60 3 -104h-83q3 45 3 103v414q0 111 55.5 165.5t142.5 54.5q84 0 135.5 -52.5t51.5 -134.5q0 -121 -117 -161q63 -13 107.5 -65t44.5 -126
q0 -91 -59 -150.5t-147 -59.5q-21 0 -36.5 2t-37.5 7.5t-28 6.5v91q33 -40 97 -40q55 0 93.5 41.5t38.5 100.5q0 62 -40.5 104t-104.5 42z" />
    <glyph glyph-name="agrave" unicode="&#xe0;" horiz-adv-x="449" 
d="M185 395q-68 0 -112 -46v78l45 15q45 15 84 15q172 0 172 -199v-169q0 -39 26 -39q16 0 22 5v-49q-25 -17 -59 -17q-23 0 -39 13.5t-20 39.5q-36 -53 -114 -53q-69 0 -109.5 36.5t-40.5 93.5q0 58 41.5 96.5t113.5 38.5q35 0 65 -13t41 -32v57q0 58 -28 93.5t-88 35.5z
M117 123q0 -35 25 -57.5t69 -22.5q38 0 65 23t27 57q0 32 -27 55t-65 23q-44 0 -69 -22.5t-25 -55.5zM147 664l102 -152h-69l-113 152h80z" />
    <glyph glyph-name="aacute" unicode="&#xe1;" horiz-adv-x="449" 
d="M185 395q-68 0 -112 -46v78l45 15q45 15 84 15q172 0 172 -199v-169q0 -39 26 -39q16 0 22 5v-49q-25 -17 -59 -17q-23 0 -39 13.5t-20 39.5q-36 -53 -114 -53q-69 0 -109.5 36.5t-40.5 93.5q0 58 41.5 96.5t113.5 38.5q35 0 65 -13t41 -32v57q0 58 -28 93.5t-88 35.5z
M117 123q0 -35 25 -57.5t69 -22.5q38 0 65 23t27 57q0 32 -27 55t-65 23q-44 0 -69 -22.5t-25 -55.5zM159 512l102 152h79l-113 -152h-68z" />
    <glyph glyph-name="acircumflex" unicode="&#xe2;" horiz-adv-x="449" 
d="M185 395q-68 0 -112 -46v78l45 15q45 15 84 15q172 0 172 -199v-169q0 -39 26 -39q16 0 22 5v-49q-25 -17 -59 -17q-23 0 -39 13.5t-20 39.5q-36 -53 -114 -53q-69 0 -109.5 36.5t-40.5 93.5q0 58 41.5 96.5t113.5 38.5q35 0 65 -13t41 -32v57q0 58 -28 93.5t-88 35.5z
M117 123q0 -35 25 -57.5t69 -22.5q38 0 65 23t27 57q0 32 -27 55t-65 23q-44 0 -69 -22.5t-25 -55.5zM205 595l-67 -86h-63l124 150h15l124 -150h-66z" />
    <glyph glyph-name="atilde" unicode="&#xe3;" horiz-adv-x="449" 
d="M185 395q-68 0 -112 -46v78l45 15q45 15 84 15q172 0 172 -199v-169q0 -39 26 -39q16 0 22 5v-49q-25 -17 -59 -17q-23 0 -39 13.5t-20 39.5q-36 -53 -114 -53q-69 0 -109.5 36.5t-40.5 93.5q0 58 41.5 96.5t113.5 38.5q35 0 65 -13t41 -32v57q0 58 -28 93.5t-88 35.5z
M117 123q0 -35 25 -57.5t69 -22.5q38 0 65 23t27 57q0 32 -27 55t-65 23q-44 0 -69 -22.5t-25 -55.5zM124 526h-52q1 41 24 67.5t60 26.5q28 0 56.5 -23t39.5 -23q37 0 37 42h50q0 -39 -23.5 -66t-59.5 -27q-30 0 -58 23t-40 23q-16 0 -25 -12t-9 -31z" />
    <glyph glyph-name="adieresis" unicode="&#xe4;" horiz-adv-x="449" 
d="M185 395q-68 0 -112 -46v78l45 15q45 15 84 15q172 0 172 -199v-169q0 -39 26 -39q16 0 22 5v-49q-25 -17 -59 -17q-23 0 -39 13.5t-20 39.5q-36 -53 -114 -53q-69 0 -109.5 36.5t-40.5 93.5q0 58 41.5 96.5t113.5 38.5q35 0 65 -13t41 -32v57q0 58 -28 93.5t-88 35.5z
M117 123q0 -35 25 -57.5t69 -22.5q38 0 65 23t27 57q0 32 -27 55t-65 23q-44 0 -69 -22.5t-25 -55.5zM72 586q0 18 12.5 30t30.5 12q17 0 29.5 -12t12.5 -30q0 -17 -12.5 -29.5t-29.5 -12.5t-30 12.5t-13 29.5zM259 586q0 18 12.5 30t30.5 12q17 0 29 -12t12 -30
q0 -17 -12 -29.5t-29 -12.5q-18 0 -30.5 12.5t-12.5 29.5z" />
    <glyph glyph-name="aring" unicode="&#xe5;" horiz-adv-x="449" 
d="M185 395q-68 0 -112 -46v78l45 15q45 15 84 15q172 0 172 -199v-169q0 -39 26 -39q16 0 22 5v-49q-25 -17 -59 -17q-23 0 -39 13.5t-20 39.5q-36 -53 -114 -53q-69 0 -109.5 36.5t-40.5 93.5q0 58 41.5 96.5t113.5 38.5q35 0 65 -13t41 -32v57q0 58 -28 93.5t-88 35.5z
M117 123q0 -35 25 -57.5t69 -22.5q38 0 65 23t27 57q0 32 -27 55t-65 23q-44 0 -69 -22.5t-25 -55.5zM121 586q0 32 24.5 55.5t59.5 23.5t60 -23.5t25 -55.5q0 -33 -25 -56.5t-60 -23.5t-59.5 23.5t-24.5 56.5zM165 586q0 -17 11.5 -29t28.5 -12t28.5 12t11.5 29
q0 16 -11.5 28t-28.5 12t-28.5 -12t-11.5 -28z" />
    <glyph glyph-name="ae" unicode="&#xe6;" horiz-adv-x="756" 
d="M73 355v77q8 2 28 8.5t43 11.5t49 5q60 0 99.5 -29.5t47.5 -83.5q19 51 65 81.5t103 30.5q65 0 113 -37.5t68 -83.5t20 -87q0 -16 -1 -19h-344v-1q0 -74 47 -124.5t118 -50.5q81 0 140 40v-76q-16 -3 -39.5 -10t-48 -11t-57.5 -4q-128 0 -186 104q-7 -46 -45 -76.5
t-101 -30.5q-70 0 -110.5 36t-40.5 95q0 60 41.5 97t109.5 37q75 0 109 -46v53q0 60 -29.5 96.5t-89.5 36.5q-74 0 -109 -39zM118 121q0 -33 25.5 -55t68.5 -22q40 0 66 23t26 55q0 34 -27 56t-65 22q-44 0 -69 -21t-25 -58zM502 398q-48 0 -83 -31t-49 -83h258
q-7 46 -42 80t-84 34z" />
    <glyph glyph-name="ccedilla" unicode="&#xe7;" horiz-adv-x="419" 
d="M197 -91l50 85q-90 8 -149.5 73.5t-59.5 155.5q0 98 67 166t165 68q25 0 59 -5.5t45 -6.5v-87q-42 31 -102 31q-66 0 -111.5 -48.5t-45.5 -117.5q0 -68 46 -115.5t111 -47.5q68 0 104 32v-87q-77 -11 -84 -11l-25 -40q31 -4 51 -23.5t20 -53.5q0 -37 -26 -60t-69 -23
q-22 0 -58 13v51q18 -22 53 -22q20 0 32.5 10.5t12.5 27.5q0 19 -14 30t-38 11t-34 -6z" />
    <glyph glyph-name="egrave" unicode="&#xe8;" horiz-adv-x="496" 
d="M456 229h-337q-2 -70 43.5 -122t116.5 -52q82 0 138 37v-74q-2 0 -50.5 -13t-99.5 -13q-98 0 -163 66.5t-65 164.5q0 100 61.5 166.5t150.5 66.5q50 0 91 -21t65.5 -53.5t37.5 -68t13 -67.5q0 -11 -2 -17zM251 398q-48 0 -83 -32t-47 -82h255q-5 43 -39.5 78.5
t-85.5 35.5zM189 664l102 -152h-69l-113 152h80z" />
    <glyph glyph-name="eacute" unicode="&#xe9;" horiz-adv-x="496" 
d="M456 229h-337q-2 -70 43.5 -122t116.5 -52q82 0 138 37v-74q-2 0 -50.5 -13t-99.5 -13q-98 0 -163 66.5t-65 164.5q0 100 61.5 166.5t150.5 66.5q50 0 91 -21t65.5 -53.5t37.5 -68t13 -67.5q0 -11 -2 -17zM251 398q-48 0 -83 -32t-47 -82h255q-5 43 -39.5 78.5
t-85.5 35.5zM214 512l102 152h79l-113 -152h-68z" />
    <glyph glyph-name="ecircumflex" unicode="&#xea;" horiz-adv-x="496" 
d="M456 229h-337q-2 -70 43.5 -122t116.5 -52q82 0 138 37v-74q-2 0 -50.5 -13t-99.5 -13q-98 0 -163 66.5t-65 164.5q0 100 61.5 166.5t150.5 66.5q50 0 91 -21t65.5 -53.5t37.5 -68t13 -67.5q0 -11 -2 -17zM251 398q-48 0 -83 -32t-47 -82h255q-5 43 -39.5 78.5
t-85.5 35.5zM251 595l-67 -86h-63l124 150h15l124 -150h-66z" />
    <glyph glyph-name="edieresis" unicode="&#xeb;" horiz-adv-x="496" 
d="M456 229h-337q-2 -70 43.5 -122t116.5 -52q82 0 138 37v-74q-2 0 -50.5 -13t-99.5 -13q-98 0 -163 66.5t-65 164.5q0 100 61.5 166.5t150.5 66.5q50 0 91 -21t65.5 -53.5t37.5 -68t13 -67.5q0 -11 -2 -17zM251 398q-48 0 -83 -32t-47 -82h255q-5 43 -39.5 78.5
t-85.5 35.5zM116 586q0 18 12.5 30t30.5 12q17 0 29.5 -12t12.5 -30q0 -17 -12.5 -29.5t-29.5 -12.5t-30 12.5t-13 29.5zM303 586q0 18 12.5 30t30.5 12q17 0 29 -12t12 -30q0 -17 -12 -29.5t-29 -12.5q-18 0 -30.5 12.5t-12.5 29.5z" />
    <glyph glyph-name="igrave" unicode="&#xec;" horiz-adv-x="219" 
d="M150 346v-242q0 -74 3 -104h-83q2 44 2 104v297h-46q5 5 29 48h98q-3 -35 -3 -103zM51 664l102 -152h-69l-113 152h80z" />
    <glyph glyph-name="iacute" unicode="&#xed;" horiz-adv-x="219" 
d="M150 346v-242q0 -74 3 -104h-83q2 44 2 104v297h-46q5 5 29 48h98q-3 -35 -3 -103zM70 512l102 152h79l-113 -152h-68z" />
    <glyph glyph-name="icircumflex" unicode="&#xee;" horiz-adv-x="219" 
d="M150 346v-242q0 -74 3 -104h-83q2 44 2 104v297h-46q5 5 29 48h98q-3 -35 -3 -103zM110 595l-67 -86h-63l124 150h15l124 -150h-66z" />
    <glyph glyph-name="idieresis" unicode="&#xef;" horiz-adv-x="219" 
d="M150 346v-242q0 -74 3 -104h-83q2 44 2 104v297h-46q5 5 29 48h98q-3 -35 -3 -103zM-25 586q0 18 12.5 30t30.5 12q17 0 29.5 -12t12.5 -30q0 -17 -12.5 -29.5t-29.5 -12.5t-30 12.5t-13 29.5zM162 586q0 18 12.5 30t30.5 12q17 0 29 -12t12 -30q0 -17 -12 -29.5
t-29 -12.5q-18 0 -30.5 12.5t-12.5 29.5z" />
    <glyph glyph-name="eth" unicode="&#xf0;" horiz-adv-x="562" 
d="M175 546l103 61q-68 46 -166 64v66q139 -26 229 -94l93 55l24 -38l-81 -48q129 -122 130 -342q1 -119 -67 -198t-170 -79q-98 0 -164.5 66t-66.5 163q0 96 66.5 162t162.5 66q51 0 94 -21t65 -61q-21 130 -110 209l-118 -69zM427 236q0 65 -44.5 105.5t-109.5 40.5
t-110 -46.5t-45 -113.5q0 -66 45.5 -112.5t109.5 -46.5q65 0 109.5 50.5t44.5 122.5z" />
    <glyph glyph-name="ntilde" unicode="&#xf1;" horiz-adv-x="503" 
d="M362 262q0 65 -30 98.5t-75 33.5q-47 0 -77 -35t-30 -91v-164q0 -60 3 -104h-84q3 44 3 104v297h-46q12 16 29 48h95v-69q17 33 52 55t82 22q73 0 114 -51t41 -145v-157q0 -65 4 -104h-84q3 44 3 104v158zM175 526h-52q1 41 24 67.5t60 26.5q28 0 56.5 -23t39.5 -23
q37 0 37 42h50q0 -39 -23.5 -66t-59.5 -27q-29 0 -58 23t-40 23q-16 0 -25 -12t-9 -31z" />
    <glyph glyph-name="ograve" unicode="&#xf2;" horiz-adv-x="541" 
d="M39 224q0 97 68 165t163 68q96 0 164 -68t68 -165q0 -96 -68 -163.5t-164 -67.5q-95 0 -163 67.5t-68 163.5zM114 224q0 -68 45.5 -115.5t110.5 -47.5t111 47.5t46 115.5t-46 116.5t-111 48.5t-110.5 -48.5t-45.5 -116.5zM206 664l102 -152h-69l-113 152h80z" />
    <glyph glyph-name="oacute" unicode="&#xf3;" horiz-adv-x="541" 
d="M39 224q0 97 68 165t163 68q96 0 164 -68t68 -165q0 -96 -68 -163.5t-164 -67.5q-95 0 -163 67.5t-68 163.5zM114 224q0 -68 45.5 -115.5t110.5 -47.5t111 47.5t46 115.5t-46 116.5t-111 48.5t-110.5 -48.5t-45.5 -116.5zM233 512l102 152h79l-113 -152h-68z" />
    <glyph glyph-name="ocircumflex" unicode="&#xf4;" horiz-adv-x="541" 
d="M39 224q0 97 68 165t163 68q96 0 164 -68t68 -165q0 -96 -68 -163.5t-164 -67.5q-95 0 -163 67.5t-68 163.5zM114 224q0 -68 45.5 -115.5t110.5 -47.5t111 47.5t46 115.5t-46 116.5t-111 48.5t-110.5 -48.5t-45.5 -116.5zM269 595l-67 -86h-63l124 150h15l124 -150h-66z
" />
    <glyph glyph-name="otilde" unicode="&#xf5;" horiz-adv-x="541" 
d="M39 224q0 97 68 165t163 68q96 0 164 -68t68 -165q0 -96 -68 -163.5t-164 -67.5q-95 0 -163 67.5t-68 163.5zM114 224q0 -68 45.5 -115.5t110.5 -47.5t111 47.5t46 115.5t-46 116.5t-111 48.5t-110.5 -48.5t-45.5 -116.5zM189 526h-52q1 41 24 67.5t60 26.5
q28 0 56.5 -23t39.5 -23q37 0 37 42h50q0 -39 -23.5 -66t-59.5 -27q-29 0 -58 23t-40 23q-16 0 -25 -12t-9 -31z" />
    <glyph glyph-name="odieresis" unicode="&#xf6;" horiz-adv-x="541" 
d="M39 224q0 97 68 165t163 68q96 0 164 -68t68 -165q0 -96 -68 -163.5t-164 -67.5q-95 0 -163 67.5t-68 163.5zM114 224q0 -68 45.5 -115.5t110.5 -47.5t111 47.5t46 115.5t-46 116.5t-111 48.5t-110.5 -48.5t-45.5 -116.5zM134 586q0 18 12.5 30t30.5 12q17 0 29.5 -12
t12.5 -30q0 -17 -12.5 -29.5t-29.5 -12.5t-30 12.5t-13 29.5zM321 586q0 18 12.5 30t30.5 12q17 0 29 -12t12 -30q0 -17 -12 -29.5t-29 -12.5q-18 0 -30.5 12.5t-12.5 29.5z" />
    <glyph glyph-name="divide" unicode="&#xf7;" horiz-adv-x="518" 
d="M69 222v63h379v-63h-379zM209 378q0 20 14 34t34 14q21 0 36 -14t15 -34t-15 -35t-36 -15q-19 0 -33.5 15t-14.5 35zM209 132q0 20 14 34.5t34 14.5q21 0 36 -14.5t15 -34.5t-15 -34.5t-36 -14.5q-20 0 -34 14.5t-14 34.5z" />
    <glyph glyph-name="oslash" unicode="&#xf8;" horiz-adv-x="542" 
d="M39 224q0 97 68 165t163 68q81 0 146 -52l28 31h45l-49 -54q62 -67 62 -158q0 -96 -67.5 -163.5t-164.5 -67.5q-79 0 -141 48l-26 -29h-47l47 52q-64 66 -64 160zM115 224q0 -64 37 -107l216 236q-42 36 -98 36q-64 0 -109.5 -48.5t-45.5 -116.5zM427 224q0 58 -36 104
l-214 -235q40 -32 93 -32q65 0 111 47.5t46 115.5z" />
    <glyph glyph-name="ugrave" unicode="&#xf9;" horiz-adv-x="506" 
d="M148 180q0 -62 30.5 -93.5t73.5 -31.5q47 0 77 36t30 91v164q0 60 -3 103h84q-4 -39 -4 -103v-247q0 -65 15 -99h-75q-14 25 -15 69q-43 -77 -134 -77q-70 0 -113.5 47t-43.5 134v228h-46q13 15 28 48h98q-2 -58 -2 -103v-166zM187 664l102 -152h-69l-113 152h80z" />
    <glyph glyph-name="uacute" unicode="&#xfa;" horiz-adv-x="506" 
d="M148 180q0 -62 30.5 -93.5t73.5 -31.5q47 0 77 36t30 91v164q0 60 -3 103h84q-4 -39 -4 -103v-247q0 -65 15 -99h-75q-14 25 -15 69q-43 -77 -134 -77q-70 0 -113.5 47t-43.5 134v228h-46q13 15 28 48h98q-2 -58 -2 -103v-166zM215 512l102 152h79l-113 -152h-68z" />
    <glyph glyph-name="ucircumflex" unicode="&#xfb;" horiz-adv-x="506" 
d="M148 180q0 -62 30.5 -93.5t73.5 -31.5q47 0 77 36t30 91v164q0 60 -3 103h84q-4 -39 -4 -103v-247q0 -65 15 -99h-75q-14 25 -15 69q-43 -77 -134 -77q-70 0 -113.5 47t-43.5 134v228h-46q13 15 28 48h98q-2 -58 -2 -103v-166zM252 595l-67 -86h-63l124 150h15l124 -150
h-66z" />
    <glyph glyph-name="udieresis" unicode="&#xfc;" horiz-adv-x="506" 
d="M148 180q0 -62 30.5 -93.5t73.5 -31.5q47 0 77 36t30 91v164q0 60 -3 103h84q-4 -39 -4 -103v-247q0 -65 15 -99h-75q-14 25 -15 69q-43 -77 -134 -77q-70 0 -113.5 47t-43.5 134v228h-46q13 15 28 48h98q-2 -58 -2 -103v-166zM117 586q0 18 12.5 30t30.5 12
q17 0 29.5 -12t12.5 -30q0 -17 -12.5 -29.5t-29.5 -12.5t-30 12.5t-13 29.5zM304 586q0 18 12.5 30t30.5 12q17 0 29 -12t12 -30q0 -17 -12 -29.5t-29 -12.5q-18 0 -30.5 12.5t-12.5 29.5z" />
    <glyph glyph-name="yacute" unicode="&#xfd;" horiz-adv-x="459" 
d="M129 -191q-23 -37 -46.5 -52t-56.5 -15q-13 0 -25 3q29 35 63 87q101 156 138 226l-146 289q-34 65 -55 102h94q8 -25 33 -77l115 -228q59 124 97 221q16 40 30 84h89q-18 -32 -49 -106q-84 -195 -136 -289q-44 -84 -145 -245zM192 512l102 152h79l-113 -152h-68z" />
    <glyph glyph-name="thorn" unicode="&#xfe;" horiz-adv-x="572" 
d="M69 -117v803h-46q21 36 27 48h99q-3 -30 -3 -103v-272q22 46 67.5 72t98.5 26q95 0 158 -66.5t63 -163.5q0 -100 -64.5 -167t-160.5 -67q-51 0 -95 24.5t-67 68.5l1 -203q0 -78 3 -136h-85q4 53 4 136zM143 225q0 -69 45.5 -117.5t110.5 -48.5q64 0 109.5 48.5
t45.5 117.5q0 68 -46 117t-111 49q-64 0 -109 -48.5t-45 -117.5z" />
    <glyph glyph-name="ydieresis" unicode="&#xff;" horiz-adv-x="459" 
d="M129 -191q-23 -37 -46.5 -52t-56.5 -15q-13 0 -25 3q29 35 63 87q101 156 138 226l-146 289q-34 65 -55 102h94q8 -25 33 -77l115 -228q59 124 97 221q16 40 30 84h89q-18 -32 -49 -106q-84 -195 -136 -289q-44 -84 -145 -245zM98 586q0 18 12.5 30t30.5 12
q17 0 29.5 -12t12.5 -30q0 -17 -12.5 -29.5t-29.5 -12.5t-30 12.5t-13 29.5zM285 586q0 18 12.5 30t30.5 12q17 0 29 -12t12 -30q0 -17 -12 -29.5t-29 -12.5q-18 0 -30.5 12.5t-12.5 29.5z" />
    <glyph glyph-name="Amacron" unicode="&#x100;" horiz-adv-x="645" 
d="M645 0h-104q-12 35 -45 113l-50 119h-261l-49 -117q-35 -84 -44 -115h-92q41 77 72 152l236 546h23l239 -546q40 -90 75 -152zM418 299l-103 252l-103 -252h206zM179 801h283v-52h-283v52z" />
    <glyph glyph-name="amacron" unicode="&#x101;" horiz-adv-x="449" 
d="M185 395q-68 0 -112 -46v78l45 15q45 15 84 15q172 0 172 -199v-169q0 -39 26 -39q16 0 22 5v-49q-25 -17 -59 -17q-23 0 -39 13.5t-20 39.5q-36 -53 -114 -53q-69 0 -109.5 36.5t-40.5 93.5q0 58 41.5 96.5t113.5 38.5q35 0 65 -13t41 -32v57q0 58 -28 93.5t-88 35.5z
M117 123q0 -35 25 -57.5t69 -22.5q38 0 65 23t27 57q0 32 -27 55t-65 23q-44 0 -69 -22.5t-25 -55.5zM88 601h242v-55h-242v55z" />
    <glyph glyph-name="Abreve" unicode="&#x102;" horiz-adv-x="645" 
d="M645 0h-104q-12 35 -45 113l-50 119h-261l-49 -117q-35 -84 -44 -115h-92q41 77 72 152l236 546h23l239 -546q40 -90 75 -152zM418 299l-103 252l-103 -252h206zM236 838q0 -29 24.5 -48.5t59.5 -19.5q34 0 58.5 19.5t24.5 48.5h57q0 -51 -40.5 -83t-99.5 -32
q-60 0 -100.5 32t-40.5 83h57z" />
    <glyph glyph-name="abreve" unicode="&#x103;" horiz-adv-x="449" 
d="M185 395q-68 0 -112 -46v78l45 15q45 15 84 15q172 0 172 -199v-169q0 -39 26 -39q16 0 22 5v-49q-25 -17 -59 -17q-23 0 -39 13.5t-20 39.5q-36 -53 -114 -53q-69 0 -109.5 36.5t-40.5 93.5q0 58 41.5 96.5t113.5 38.5q35 0 65 -13t41 -32v57q0 58 -28 93.5t-88 35.5z
M117 123q0 -35 25 -57.5t69 -22.5q38 0 65 23t27 57q0 32 -27 55t-65 23q-44 0 -69 -22.5t-25 -55.5zM144 628q0 -27 19 -46t47 -19t47 19t19 46h54q0 -49 -35 -83t-85 -34t-85.5 34t-35.5 83h55z" />
    <glyph glyph-name="Aogonek" unicode="&#x104;" horiz-adv-x="645" 
d="M645 0q-75 -26 -122.5 -69.5t-47.5 -84.5q0 -23 16 -38t39 -15q43 0 74 31v-62q-42 -28 -102 -28q-45 0 -73.5 24.5t-28.5 66.5q0 87 141 175q-12 35 -45 113l-50 119h-261l-49 -117q-35 -84 -44 -115h-92q41 77 72 152l236 546h23l239 -546q40 -90 75 -152zM418 299
l-103 252l-103 -252h206z" />
    <glyph glyph-name="aogonek" unicode="&#x105;" horiz-adv-x="449" 
d="M185 395q-68 0 -112 -46v78l45 15q45 15 84 15q172 0 172 -199v-169q0 -39 26 -39q16 0 22 5l-1 -41q-77 -56 -107.5 -89t-30.5 -66q0 -26 16 -40.5t41 -14.5q32 0 60 25v-55q-39 -26 -85 -26t-74 24.5t-28 65.5q0 43 30 77.5t93 80.5q-27 9 -32 46q-36 -53 -114 -53
q-69 0 -109.5 36.5t-40.5 93.5q0 58 41.5 96.5t113.5 38.5q35 0 65 -13t41 -32v57q0 58 -28 93.5t-88 35.5zM117 123q0 -35 25 -57.5t69 -22.5q38 0 65 23t27 57q0 32 -27 55t-65 23q-44 0 -69 -22.5t-25 -55.5z" />
    <glyph glyph-name="Cacute" unicode="&#x106;" horiz-adv-x="632" 
d="M127 343q0 -117 84.5 -200t204.5 -83q116 0 181 56v-94q-108 -33 -187 -33q-155 0 -260.5 103.5t-105.5 250.5q0 148 105.5 251.5t260.5 103.5q28 0 56 -3.5t44 -7t42 -10.5t38 -10v-96q-65 54 -175 54q-120 0 -204 -82.5t-84 -199.5zM345 735l128 112h97l-146 -112h-79z
" />
    <glyph glyph-name="cacute" unicode="&#x107;" horiz-adv-x="419" 
d="M115 223q0 -68 46 -115.5t111 -47.5q68 0 104 32v-87q-11 -1 -30 -4.5t-37 -5.5t-39 -2q-98 0 -165 67t-67 163q0 98 67 166t165 68q25 0 59 -5.5t45 -6.5v-87q-42 31 -102 31q-66 0 -111.5 -48.5t-45.5 -117.5zM218 512l102 152h79l-113 -152h-68z" />
    <glyph glyph-name="Ccircumflex" unicode="&#x108;" horiz-adv-x="632" 
d="M127 343q0 -117 84.5 -200t204.5 -83q116 0 181 56v-94q-108 -33 -187 -33q-155 0 -260.5 103.5t-105.5 250.5q0 148 105.5 251.5t260.5 103.5q28 0 56 -3.5t44 -7t42 -10.5t38 -10v-96q-65 54 -175 54q-120 0 -204 -82.5t-84 -199.5zM392 800l-79 -74h-76l148 133h16
l148 -133h-80z" />
    <glyph glyph-name="ccircumflex" unicode="&#x109;" horiz-adv-x="419" 
d="M115 223q0 -68 46 -115.5t111 -47.5q68 0 104 32v-87q-11 -1 -30 -4.5t-37 -5.5t-39 -2q-98 0 -165 67t-67 163q0 98 67 166t165 68q25 0 59 -5.5t45 -6.5v-87q-42 31 -102 31q-66 0 -111.5 -48.5t-45.5 -117.5zM253 595l-67 -86h-63l124 150h15l124 -150h-66z" />
    <glyph glyph-name="Cdotaccent" unicode="&#x10a;" horiz-adv-x="632" 
d="M127 343q0 -117 84.5 -200t204.5 -83q116 0 181 56v-94q-108 -33 -187 -33q-155 0 -260.5 103.5t-105.5 250.5q0 148 105.5 251.5t260.5 103.5q28 0 56 -3.5t44 -7t42 -10.5t38 -10v-96q-65 54 -175 54q-120 0 -204 -82.5t-84 -199.5zM354 783q0 20 14 34t34 14t33.5 -14
t13.5 -34q0 -19 -13.5 -33t-33.5 -14t-34 13.5t-14 33.5z" />
    <glyph glyph-name="cdotaccent" unicode="&#x10b;" horiz-adv-x="419" 
d="M115 223q0 -68 46 -115.5t111 -47.5q68 0 104 32v-87q-11 -1 -30 -4.5t-37 -5.5t-39 -2q-98 0 -165 67t-67 163q0 98 67 166t165 68q25 0 59 -5.5t45 -6.5v-87q-42 31 -102 31q-66 0 -111.5 -48.5t-45.5 -117.5zM210 584q0 20 13 33t33 13t33 -13t13 -33q0 -19 -13.5 -32
t-32.5 -13t-32.5 13t-13.5 32z" />
    <glyph glyph-name="Ccaron" unicode="&#x10c;" horiz-adv-x="632" 
d="M127 343q0 -117 84.5 -200t204.5 -83q116 0 181 56v-94q-108 -33 -187 -33q-155 0 -260.5 103.5t-105.5 250.5q0 148 105.5 251.5t260.5 103.5q28 0 56 -3.5t44 -7t42 -10.5t38 -10v-96q-65 54 -175 54q-120 0 -204 -82.5t-84 -199.5zM401 780l79 74h76l-148 -133h-16
l-148 133h80z" />
    <glyph glyph-name="ccaron" unicode="&#x10d;" horiz-adv-x="419" 
d="M115 223q0 -68 46 -115.5t111 -47.5q68 0 104 32v-87q-11 -1 -30 -4.5t-37 -5.5t-39 -2q-98 0 -165 67t-67 163q0 98 67 166t165 68q25 0 59 -5.5t45 -6.5v-87q-42 31 -102 31q-66 0 -111.5 -48.5t-45.5 -117.5zM255 564l68 86h63l-125 -150h-15l-123 150h65z" />
    <glyph glyph-name="Dcaron" unicode="&#x10e;" horiz-adv-x="654" 
d="M265 0h-193q5 52 5 179v327q0 129 -5 179h193q142 0 243 -100t101 -242t-101 -242.5t-243 -100.5zM158 618v-551h102q110 0 188 81.5t78 194.5t-78 194t-189 81h-101zM261 780l79 74h76l-148 -133h-16l-148 133h80z" />
    <glyph glyph-name="dcaron" unicode="&#x10f;" horiz-adv-x="571" 
d="M503 645v-542q0 -64 3 -103h-83q2 19 2 90q-27 -48 -71.5 -72.5t-95.5 -24.5q-92 0 -155.5 68t-63.5 164q0 99 63.5 165.5t159.5 66.5q115 0 163 -91v320h-46q12 13 28 48h99q-3 -48 -3 -89zM428 224q0 69 -44.5 118t-108.5 49q-65 0 -111 -48.5t-46 -116.5
q0 -70 46 -119t112 -49q63 0 107.5 49t44.5 117zM554 570l6 163h69l-17 -163h-58z" />
    <glyph glyph-name="Dcroat" unicode="&#x110;" horiz-adv-x="704" 
d="M315 0h-193q5 52 5 179v129h-107v60h107v138q0 129 -5 179h193q142 0 243 -100t101 -242t-101 -242.5t-243 -100.5zM208 618v-250h153v-60h-153v-241h102q110 0 188 81.5t78 194.5t-78 194t-189 81h-101z" />
    <glyph glyph-name="dcroat" unicode="&#x111;" horiz-adv-x="586" 
d="M503 676v-90h83v-57h-83v-426q0 -71 5 -103h-87q4 42 4 90q-27 -48 -71.5 -72.5t-95.5 -24.5q-92 0 -155.5 68t-63.5 164q0 99 63.5 165.5t159.5 66.5q115 0 163 -91v163h-194v57h194v100h-46q12 16 28 48h99q-3 -18 -3 -58zM429 224q0 69 -45 118t-109 49
q-65 0 -111 -48.5t-46 -116.5q0 -70 46 -119t112 -49q63 0 108 49t45 117z" />
    <glyph glyph-name="Emacron" unicode="&#x112;" horiz-adv-x="461" 
d="M237 618h-80v-218h79q110 0 156 3v-74q-47 3 -156 3h-79v-264h88q124 0 169 3v-74q-45 3 -169 3h-173q4 110 4 179v328q0 118 -4 178h165q107 0 169 4v-75q-41 4 -169 4zM96 801h283v-52h-283v52z" />
    <glyph glyph-name="emacron" unicode="&#x113;" horiz-adv-x="496" 
d="M456 229h-337q-2 -70 43.5 -122t116.5 -52q82 0 138 37v-74q-2 0 -50.5 -13t-99.5 -13q-98 0 -163 66.5t-65 164.5q0 100 61.5 166.5t150.5 66.5q50 0 91 -21t65.5 -53.5t37.5 -68t13 -67.5q0 -11 -2 -17zM251 398q-48 0 -83 -32t-47 -82h255q-5 43 -39.5 78.5
t-85.5 35.5zM131 601h242v-55h-242v55z" />
    <glyph glyph-name="Ebreve" unicode="&#x114;" horiz-adv-x="461" 
d="M237 618h-80v-218h79q110 0 156 3v-74q-47 3 -156 3h-79v-264h88q124 0 169 3v-74q-45 3 -169 3h-173q4 110 4 179v328q0 118 -4 178h165q107 0 169 4v-75q-41 4 -169 4zM155 838q0 -29 24.5 -48.5t59.5 -19.5q34 0 58.5 19.5t24.5 48.5h57q0 -51 -40.5 -83t-99.5 -32
q-60 0 -100.5 32t-40.5 83h57z" />
    <glyph glyph-name="ebreve" unicode="&#x115;" horiz-adv-x="496" 
d="M456 229h-337q-2 -70 43.5 -122t116.5 -52q82 0 138 37v-74q-2 0 -50.5 -13t-99.5 -13q-98 0 -163 66.5t-65 164.5q0 100 61.5 166.5t150.5 66.5q50 0 91 -21t65.5 -53.5t37.5 -68t13 -67.5q0 -11 -2 -17zM251 398q-48 0 -83 -32t-47 -82h255q-5 43 -39.5 78.5
t-85.5 35.5zM186 628q0 -27 19 -46t47 -19t47 19t19 46h54q0 -49 -35 -83t-85 -34t-85.5 34t-35.5 83h55z" />
    <glyph glyph-name="Edotaccent" unicode="&#x116;" horiz-adv-x="461" 
d="M237 618h-80v-218h79q110 0 156 3v-74q-47 3 -156 3h-79v-264h88q124 0 169 3v-74q-45 3 -169 3h-173q4 110 4 179v328q0 118 -4 178h165q107 0 169 4v-75q-41 4 -169 4zM192 783q0 20 14 34t34 14t33.5 -14t13.5 -34q0 -19 -13.5 -33t-33.5 -14t-34 13.5t-14 33.5z" />
    <glyph glyph-name="edotaccent" unicode="&#x117;" horiz-adv-x="496" 
d="M456 229h-337q-2 -70 43.5 -122t116.5 -52q82 0 138 37v-74q-2 0 -50.5 -13t-99.5 -13q-98 0 -163 66.5t-65 164.5q0 100 61.5 166.5t150.5 66.5q50 0 91 -21t65.5 -53.5t37.5 -68t13 -67.5q0 -11 -2 -17zM251 398q-48 0 -83 -32t-47 -82h255q-5 43 -39.5 78.5
t-85.5 35.5zM207 584q0 20 13.5 33t32.5 13t32.5 -13t13.5 -33q0 -19 -13.5 -32t-32.5 -13t-32.5 13t-13.5 32z" />
    <glyph glyph-name="Eogonek" unicode="&#x118;" horiz-adv-x="461" 
d="M196 -174q0 86 138 174h-262q4 110 4 179v328q0 118 -4 178h165q91 0 169 5v-76q-41 4 -169 4h-80v-218h79q110 0 156 3v-74q-47 3 -156 3h-79v-264h88q124 0 169 3v-71h-2q-60 -29 -100.5 -72.5t-40.5 -80.5q0 -23 15.5 -38t38.5 -15q45 0 74 31v-62q-40 -28 -102 -28
q-44 0 -72.5 24.5t-28.5 66.5z" />
    <glyph glyph-name="eogonek" unicode="&#x119;" horiz-adv-x="496" 
d="M456 229h-337q-2 -70 43.5 -122t116.5 -52q82 0 138 37v-74q-144 -100 -144 -161q0 -24 16 -38.5t41 -14.5q31 0 60 25v-55q-39 -25 -92 -25q-41 0 -68 24t-27 65q0 73 124 158q-34 -4 -60 -4q-98 0 -163 66.5t-65 164.5q0 100 61.5 166.5t150.5 66.5q50 0 91 -21
t65.5 -53.5t37.5 -68t13 -67.5q0 -11 -2 -17zM251 398q-48 0 -83 -32t-47 -82h255q-5 43 -39.5 78.5t-85.5 35.5z" />
    <glyph glyph-name="Ecaron" unicode="&#x11a;" horiz-adv-x="461" 
d="M237 618h-80v-218h79q110 0 156 3v-74q-47 3 -156 3h-79v-264h88q124 0 169 3v-74q-45 3 -169 3h-173q4 110 4 179v328q0 118 -4 178h165q107 0 169 4v-75q-41 4 -169 4zM240 780l79 74h76l-148 -133h-16l-148 133h80z" />
    <glyph glyph-name="ecaron" unicode="&#x11b;" horiz-adv-x="496" 
d="M456 229h-337q-2 -70 43.5 -122t116.5 -52q82 0 138 37v-74q-2 0 -50.5 -13t-99.5 -13q-98 0 -163 66.5t-65 164.5q0 100 61.5 166.5t150.5 66.5q50 0 91 -21t65.5 -53.5t37.5 -68t13 -67.5q0 -11 -2 -17zM251 398q-48 0 -83 -32t-47 -82h255q-5 43 -39.5 78.5
t-85.5 35.5zM253 564l68 86h63l-125 -150h-15l-123 150h65z" />
    <glyph glyph-name="Gcircumflex" unicode="&#x11c;" horiz-adv-x="669" 
d="M599 192v-170q-38 -13 -58.5 -18.5t-55 -10.5t-73.5 -5q-160 0 -264 103t-104 252t103.5 252t262.5 103q85 0 176 -33v-94q-66 55 -173 55q-124 0 -205 -82t-81 -201t82 -201.5t203 -82.5q76 0 109 20v113q0 66 -4 126h86q-4 -60 -4 -126zM394 800l-79 -74h-76l148 133
h16l148 -133h-80z" />
    <glyph glyph-name="gcircumflex" unicode="&#x11d;" horiz-adv-x="494" 
d="M389 449h66q0 -50 -44 -80q27 -38 27 -92q0 -75 -56 -128t-136 -53q-24 0 -52.5 9.5t-37.5 9.5q-15 0 -26 -15t-11 -38q0 -20 14.5 -35.5t33.5 -15.5q4 0 31 4t48 4q94 0 159 -40.5t65 -104.5q0 -58 -66.5 -99.5t-159.5 -41.5q-94 0 -159.5 40t-65.5 99q0 66 78 105
q-23 8 -37 32t-14 49q0 27 18 53t48 36q-57 54 -57 130q0 75 55.5 127.5t135.5 52.5q71 0 126 -49q17 15 17 41zM133 277q0 -49 33 -84t79 -35q47 0 81 35t34 84t-34 83t-81 34q-46 0 -79 -34t-33 -83zM97 -127q0 -36 42.5 -60.5t104.5 -24.5q61 0 103.5 24t42.5 59
t-44 59.5t-105 24.5q-60 0 -102 -24t-42 -58zM247 595l-67 -86h-63l124 150h15l124 -150h-66z" />
    <glyph glyph-name="Gbreve" unicode="&#x11e;" horiz-adv-x="669" 
d="M599 192v-170q-38 -13 -58.5 -18.5t-55 -10.5t-73.5 -5q-160 0 -264 103t-104 252t103.5 252t262.5 103q85 0 176 -33v-94q-66 55 -173 55q-124 0 -205 -82t-81 -201t82 -201.5t203 -82.5q76 0 109 20v113q0 66 -4 126h86q-4 -60 -4 -126zM318 838q0 -29 24.5 -48.5
t59.5 -19.5q34 0 58.5 19.5t24.5 48.5h57q0 -51 -40.5 -83t-99.5 -32q-60 0 -100.5 32t-40.5 83h57z" />
    <glyph glyph-name="gbreve" unicode="&#x11f;" horiz-adv-x="494" 
d="M389 449h66q0 -50 -44 -80q27 -38 27 -92q0 -75 -56 -128t-136 -53q-24 0 -52.5 9.5t-37.5 9.5q-15 0 -26 -15t-11 -38q0 -20 14.5 -35.5t33.5 -15.5q4 0 31 4t48 4q94 0 159 -40.5t65 -104.5q0 -58 -66.5 -99.5t-159.5 -41.5q-94 0 -159.5 40t-65.5 99q0 66 78 105
q-23 8 -37 32t-14 49q0 27 18 53t48 36q-57 54 -57 130q0 75 55.5 127.5t135.5 52.5q71 0 126 -49q17 15 17 41zM133 277q0 -49 33 -84t79 -35q47 0 81 35t34 84t-34 83t-81 34q-46 0 -79 -34t-33 -83zM97 -127q0 -36 42.5 -60.5t104.5 -24.5q61 0 103.5 24t42.5 59
t-44 59.5t-105 24.5q-60 0 -102 -24t-42 -58zM182 628q0 -27 19 -46t47 -19t47 19t19 46h54q0 -49 -35 -83t-85 -34t-85.5 34t-35.5 83h55z" />
    <glyph glyph-name="Gdotaccent" unicode="&#x120;" horiz-adv-x="669" 
d="M599 192v-170q-38 -13 -58.5 -18.5t-55 -10.5t-73.5 -5q-160 0 -264 103t-104 252t103.5 252t262.5 103q85 0 176 -33v-94q-66 55 -173 55q-124 0 -205 -82t-81 -201t82 -201.5t203 -82.5q76 0 109 20v113q0 66 -4 126h86q-4 -60 -4 -126zM356 783q0 20 14 34t34 14
t33.5 -14t13.5 -34q0 -19 -13.5 -33t-33.5 -14t-34 13.5t-14 33.5z" />
    <glyph glyph-name="gdotaccent" unicode="&#x121;" horiz-adv-x="494" 
d="M389 449h66q0 -50 -44 -80q27 -38 27 -92q0 -75 -56 -128t-136 -53q-24 0 -52.5 9.5t-37.5 9.5q-15 0 -26 -15t-11 -38q0 -20 14.5 -35.5t33.5 -15.5q4 0 31 4t48 4q94 0 159 -40.5t65 -104.5q0 -58 -66.5 -99.5t-159.5 -41.5q-94 0 -159.5 40t-65.5 99q0 66 78 105
q-23 8 -37 32t-14 49q0 27 18 53t48 36q-57 54 -57 130q0 75 55.5 127.5t135.5 52.5q71 0 126 -49q17 15 17 41zM133 277q0 -49 33 -84t79 -35q47 0 81 35t34 84t-34 83t-81 34q-46 0 -79 -34t-33 -83zM97 -127q0 -36 42.5 -60.5t104.5 -24.5q61 0 103.5 24t42.5 59
t-44 59.5t-105 24.5q-60 0 -102 -24t-42 -58zM202 584q0 20 13 33t33 13t33 -13t13 -33q0 -19 -13.5 -32t-32.5 -13t-32.5 13t-13.5 32z" />
    <glyph glyph-name="Gcommaaccent" unicode="&#x122;" horiz-adv-x="669" 
d="M599 192v-170q-38 -13 -58.5 -18.5t-55 -10.5t-73.5 -5q-160 0 -264 103t-104 252t103.5 252t262.5 103q85 0 176 -33v-94q-66 55 -173 55q-124 0 -205 -82t-81 -201t82 -201.5t203 -82.5q76 0 109 20v113q0 66 -4 126h86q-4 -60 -4 -126zM372 -88v46q51 0 83.5 -28
t32.5 -72q0 -40 -28.5 -65t-72.5 -25q-28 0 -52 10v51q20 -14 44 -14q20 0 34 13t14 32q0 22 -16 37t-39 15z" />
    <glyph glyph-name="gcommaaccent" unicode="&#x123;" horiz-adv-x="494" 
d="M389 449h66q0 -50 -44 -80q27 -38 27 -92q0 -75 -56 -128t-136 -53q-24 0 -52.5 9.5t-37.5 9.5q-15 0 -26 -15t-11 -38q0 -20 14.5 -35.5t33.5 -15.5q4 0 31 4t48 4q94 0 159 -40.5t65 -104.5q0 -58 -66.5 -99.5t-159.5 -41.5q-94 0 -159.5 40t-65.5 99q0 66 78 105
q-23 8 -37 32t-14 49q0 27 18 53t48 36q-57 54 -57 130q0 75 55.5 127.5t135.5 52.5q71 0 126 -49q17 15 17 41zM133 277q0 -49 33 -84t79 -35q47 0 81 35t34 84t-34 83t-81 34q-46 0 -79 -34t-33 -83zM97 -127q0 -36 42.5 -60.5t104.5 -24.5q61 0 103.5 24t42.5 59
t-44 59.5t-105 24.5q-60 0 -102 -24t-42 -58zM281 538v-46q-51 0 -83.5 28t-32.5 72q0 40 28.5 65t72.5 25q28 0 52 -10v-51q-20 14 -44 14q-20 0 -34 -13t-14 -32q0 -22 16 -37t39 -15z" />
    <glyph glyph-name="Hcircumflex" unicode="&#x124;" horiz-adv-x="689" 
d="M157 506v-104h374v104q0 137 -3 179h88q-4 -88 -4 -179v-362q0 -88 4 -144h-88q3 42 3 145v190h-374v-191q0 -88 4 -144h-88q3 42 3 145v361q0 138 -3 179h88q-4 -54 -4 -179zM343 800l-79 -74h-76l148 133h16l148 -133h-80z" />
    <glyph glyph-name="hcircumflex" unicode="&#x125;" horiz-adv-x="500" 
d="M359 103v158q0 61 -28 96.5t-77 35.5q-51 0 -79.5 -37t-28.5 -95v-158q0 -70 4 -103h-85q4 33 4 103v583h-46q6 7 15.5 25.5t11.5 22.5h100q-4 -35 -4 -103v-250q43 76 134 76q76 0 116 -54t40 -144v-156q0 -70 4 -103h-85q4 50 4 103zM102 823l-79 -74h-76l148 133h16
l148 -133h-80z" />
    <glyph glyph-name="Hbar" unicode="&#x126;" horiz-adv-x="700" 
d="M22 550h60q-1 76 -4 135h92q-4 -44 -4 -135h369q-2 105 -4 135h94q-3 -55 -5 -135h57v-54h-57v-352q0 -74 5 -144h-94q4 37 4 145v177h-369v-178q0 -88 4 -144h-92q4 56 4 145v351h-60v54zM166 393h369v103h-369v-103z" />
    <glyph glyph-name="hbar" unicode="&#x127;" horiz-adv-x="503" 
d="M361 103v158q0 61 -27.5 96.5t-76.5 35.5q-51 0 -79.5 -37t-28.5 -95v-158q0 -65 3 -103h-84q3 38 3 103v426h-66v57h66v100h-46q6 7 16 26t12 22h99q-3 -34 -3 -103v-45h167v-57h-167v-148q40 76 134 76q76 0 116 -54t40 -144v-156q0 -65 3 -103h-84q3 38 3 103z" />
    <glyph glyph-name="Itilde" unicode="&#x128;" horiz-adv-x="241" 
d="M161 506v-327q0 -117 4 -179h-89q4 62 4 179v327q0 119 -4 179h89q-4 -60 -4 -179zM6 740h-56q-2 47 27 76.5t78 29.5q34 0 55.5 -14.5t38.5 -29t39 -14.5q21 0 34.5 14t13.5 38h57q0 -47 -28.5 -76t-76.5 -29q-42 0 -75 28t-58 28q-22 0 -35.5 -14.5t-13.5 -36.5z" />
    <glyph glyph-name="itilde" unicode="&#x129;" horiz-adv-x="219" 
d="M150 346v-242q0 -74 3 -104h-83q2 44 2 104v297h-46q5 5 29 48h98q-3 -35 -3 -103zM28 526h-52q1 41 24 67.5t60 26.5q28 0 56.5 -23t39.5 -23q37 0 37 42h50q0 -39 -23.5 -66t-59.5 -27q-30 0 -58 23t-40 23q-16 0 -25 -12t-9 -31z" />
    <glyph glyph-name="Imacron" unicode="&#x12a;" horiz-adv-x="241" 
d="M161 506v-327q0 -117 4 -179h-89q4 62 4 179v327q0 119 -4 179h89q-4 -60 -4 -179zM-23 801h283v-52h-283v52z" />
    <glyph glyph-name="imacron" unicode="&#x12b;" horiz-adv-x="219" 
d="M150 346v-242q0 -74 3 -104h-83q2 44 2 104v297h-46q5 5 29 48h98q-3 -35 -3 -103zM-12 601h242v-55h-242v55z" />
    <glyph glyph-name="Ibreve" unicode="&#x12c;" horiz-adv-x="241" 
d="M161 506v-327q0 -117 4 -179h-89q4 62 4 179v327q0 119 -4 179h89q-4 -60 -4 -179zM37 838q0 -29 24.5 -48.5t59.5 -19.5q34 0 58.5 19.5t24.5 48.5h57q0 -51 -40.5 -83t-99.5 -32q-60 0 -100.5 32t-40.5 83h57z" />
    <glyph glyph-name="ibreve" unicode="&#x12d;" horiz-adv-x="219" 
d="M150 346v-242q0 -74 3 -104h-83q2 44 2 104v297h-46q5 5 29 48h98q-3 -35 -3 -103zM43 628q0 -27 19 -46t47 -19t47 19t19 46h54q0 -49 -35 -83t-85 -34t-85.5 34t-35.5 83h55z" />
    <glyph glyph-name="Iogonek" unicode="&#x12e;" horiz-adv-x="241" 
d="M161 506v-327q0 -117 4 -179q-64 -29 -104 -70t-40 -83q0 -23 16.5 -38t40.5 -15q43 0 72 31v-62q-42 -28 -100 -28q-45 0 -74 24.5t-29 66.5q0 84 129 175q4 64 4 178v327q0 119 -4 179h89q-4 -60 -4 -179z" />
    <glyph glyph-name="iogonek" unicode="&#x12f;" horiz-adv-x="219" 
d="M150 346v-242q0 -74 3 -104q-64 -41 -95 -74t-31 -69q0 -24 16.5 -38.5t40.5 -14.5q31 0 60 25v-55q-38 -25 -92 -25q-40 0 -67 24.5t-27 66.5q0 44 28.5 81t82.5 79q3 33 3 104v297h-46q11 12 29 48h98q-3 -35 -3 -103zM64 585q0 20 13 33.5t33 13.5t33 -13.5t13 -33.5
q0 -19 -13.5 -32t-32.5 -13t-32.5 13t-13.5 32z" />
    <glyph glyph-name="Idotaccent" unicode="&#x130;" horiz-adv-x="241" 
d="M161 506v-327q0 -117 4 -179h-89q4 62 4 179v327q0 119 -4 179h89q-4 -60 -4 -179zM72 783q0 20 14 34t34 14t33.5 -14t13.5 -34q0 -19 -13.5 -33t-33.5 -14t-34 13.5t-14 33.5z" />
    <glyph glyph-name="dotlessi" unicode="&#x131;" horiz-adv-x="219" 
d="M150 346v-242q0 -74 3 -104h-83q2 44 2 104v297h-46q5 5 29 48h98q-3 -35 -3 -103z" />
    <glyph glyph-name="IJ" unicode="&#x132;" horiz-adv-x="480" 
d="M161 506v-327q0 -117 4 -179h-89q4 62 4 179v327q0 119 -4 179h89q-4 -60 -4 -179zM402 506v-509q0 -90 -50.5 -142t-128.5 -52q-19 0 -48.5 6.5t-35.5 7.5v90q27 -34 80 -34q43 0 72.5 34.5t29.5 89.5v509q0 89 -3 179h88q-4 -60 -4 -179z" />
    <glyph glyph-name="ij" unicode="&#x133;" horiz-adv-x="438" 
d="M150 346v-242q0 -74 3 -104h-84q3 33 3 104v297h-46q11 12 29 48h98q-3 -35 -3 -103zM64 585q0 20 13 33.5t33 13.5t33 -13.5t13 -33.5q0 -19 -13.5 -32t-32.5 -13t-32.5 13t-13.5 32zM369 346v-408q0 -94 -38 -145t-108 -51q-23 0 -46.5 3.5t-24.5 3.5v72q16 -14 50 -14
q41 0 65 34t24 99v461h-46q13 19 28 48h99q-3 -38 -3 -103zM283 586q0 19 13 32.5t32 13.5q20 0 33 -13t13 -33t-13 -33t-33 -13q-19 0 -32 13.5t-13 32.5z" />
    <glyph glyph-name="Jcircumflex" unicode="&#x134;" horiz-adv-x="239" 
d="M161 506v-509q0 -90 -50.5 -142t-128.5 -52q-19 0 -48.5 6.5t-35.5 7.5v90q27 -34 80 -34q43 0 72.5 34.5t29.5 89.5v509q0 89 -3 179h88q-4 -60 -4 -179zM120 800l-79 -74h-76l148 133h16l148 -133h-80z" />
    <glyph glyph-name="jcircumflex" unicode="&#x135;" horiz-adv-x="219" 
d="M150 346v-414q0 -93 -38.5 -144.5t-107.5 -51.5q-23 0 -46.5 3.5t-24.5 3.5v73q14 -14 50 -14q41 0 65 35t24 103v461h-46q17 23 27 48h100q-3 -37 -3 -103zM109 595l-67 -86h-63l124 150h15l124 -150h-66z" />
    <glyph glyph-name="Kcommaaccent" unicode="&#x136;" horiz-adv-x="575" 
d="M157 506v-146l185 212q64 76 91 113h100q-44 -44 -110 -119l-186 -211l229 -245q21 -23 40 -42.5t40 -39.5t29 -28h-121q-34 47 -68 83l-229 248v-152q0 -86 3 -179h-88q4 62 4 179v327q0 119 -4 179h88q-3 -90 -3 -179zM246 -88v46q51 0 83.5 -28t32.5 -72
q0 -40 -28.5 -65t-72.5 -25q-28 0 -52 10v51q20 -14 44 -14q20 0 34 13t14 32q0 22 -16 37t-39 15z" />
    <glyph glyph-name="kcommaaccent" unicode="&#x137;" horiz-adv-x="444" 
d="M146 631v-393q142 170 170 211h89q-41 -41 -183 -212q101 -114 140 -156t82 -81h-106q-19 25 -192 215v-112q0 -69 3 -103h-84q4 31 4 103v583h-46q14 19 26 48h100q-3 -34 -3 -103zM193 -88v46q51 0 83.5 -28t32.5 -72q0 -40 -28.5 -65t-72.5 -25q-28 0 -52 10v51
q20 -14 44 -14q20 0 34 13t14 32q0 22 -16 37t-39 15z" />
    <glyph glyph-name="kgreenlandic" unicode="&#x138;" horiz-adv-x="447" 
d="M72 121v280h-46q8 10 28 48h99q-3 -60 -3 -120v-90l133 158q26 31 49 44.5t54 13.5q28 0 44 -9q-23 -7 -41.5 -23.5t-45.5 -50.5l-116 -136l126 -142q62 -66 94 -94h-107q-15 24 -59 71l-131 143v-93q0 -91 3 -121h-83q2 21 2 121z" />
    <glyph glyph-name="Lacute" unicode="&#x139;" horiz-adv-x="462" 
d="M157 506v-437h120q115 0 160 3v-76q-60 4 -160 4h-205q4 110 4 179v327q0 119 -4 179h88q-3 -90 -3 -179zM63 735l128 112h97l-146 -112h-79z" />
    <glyph glyph-name="lacute" unicode="&#x13a;" horiz-adv-x="215" 
d="M146 608v-505q0 -72 4 -103h-85q4 31 4 103v560h-46q12 16 26 48h100q-3 -36 -3 -103zM53 733l102 89h97l-119 -89h-80z" />
    <glyph glyph-name="Lcommaaccent" unicode="&#x13b;" horiz-adv-x="462" 
d="M157 506v-437h120q115 0 160 3v-76q-60 4 -160 4h-205q4 110 4 179v327q0 119 -4 179h88q-3 -90 -3 -179zM198 -88v46q51 0 83.5 -28t32.5 -72q0 -40 -28.5 -65t-72.5 -25q-28 0 -52 10v51q20 -14 44 -14q20 0 34 13t14 32q0 22 -16 37t-39 15z" />
    <glyph glyph-name="lcommaaccent" unicode="&#x13c;" horiz-adv-x="215" 
d="M146 631v-528q0 -69 3 -103h-84q4 31 4 103v583h-46q14 19 26 48h100q-3 -34 -3 -103zM74 -88v46q51 0 83.5 -28t32.5 -72q0 -40 -28.5 -65t-72.5 -25q-28 0 -52 10v51q20 -14 44 -14q20 0 34 13t14 32q0 22 -16 37t-39 15z" />
    <glyph glyph-name="Lcaron" unicode="&#x13d;" horiz-adv-x="462" 
d="M157 506v-437h120q115 0 160 3v-76q-60 4 -160 4h-205q4 110 4 179v327q0 119 -4 179h88q-3 -90 -3 -179zM275 570l6 163h69l-17 -163h-58z" />
    <glyph glyph-name="lcaron" unicode="&#x13e;" horiz-adv-x="215" 
d="M146 631v-528q0 -69 3 -103h-84q4 31 4 103v583h-46q14 19 26 48h100q-3 -34 -3 -103zM198 570l6 163h69l-17 -163h-58z" />
    <glyph glyph-name="Ldot" unicode="&#x13f;" horiz-adv-x="462" 
d="M157 506v-437h120q115 0 160 3v-76q-60 4 -160 4h-205q4 110 4 179v327q0 119 -4 179h88q-3 -90 -3 -179zM302 385q0 20 14 34t34 14t33.5 -14t13.5 -34q0 -19 -13.5 -33t-33.5 -14t-34 13.5t-14 33.5z" />
    <glyph glyph-name="ldot" unicode="&#x140;" horiz-adv-x="265" 
d="M203 390q0 17 10 29t26 12t26 -12t10 -29t-10 -28t-26 -11t-26 11t-10 28zM146 631v-528q0 -69 3 -103h-84q4 31 4 103v583h-46q14 19 26 48h100q-3 -34 -3 -103z" />
    <glyph glyph-name="Lslash" unicode="&#x141;" horiz-adv-x="503" 
d="M199 506v-126l178 106v-73l-178 -105v-239h119q115 0 160 3v-76q-60 4 -160 4h-204q3 82 3 179v87l-90 -53v73l90 52v168q0 134 -3 179h87q-2 -60 -2 -179z" />
    <glyph glyph-name="lslash" unicode="&#x142;" horiz-adv-x="310" 
d="M192 631v-213l92 57v-65l-92 -58v-249q0 -69 3 -103h-84q4 31 4 103v208l-88 -56v67l88 54v310h-47q11 14 28 48h99q-3 -35 -3 -103z" />
    <glyph glyph-name="Nacute" unicode="&#x143;" horiz-adv-x="697" 
d="M153 144q0 -88 4 -144h-85q4 56 4 145v362q0 85 -4 193h19q29 -36 82 -95l370 -440v341q0 53 -3 179h84q-3 -66 -3 -179v-373q0 -87 3 -145h-18q-28 36 -74 89l-377 448zM294 735l128 112h97l-146 -112h-79z" />
    <glyph glyph-name="nacute" unicode="&#x144;" horiz-adv-x="503" 
d="M362 262q0 65 -30 98.5t-75 33.5q-47 0 -77 -35t-30 -91v-164q0 -60 3 -104h-84q3 44 3 104v297h-46q12 16 29 48h95v-69q17 33 52 55t82 22q73 0 114 -51t41 -145v-157q0 -65 4 -104h-84q3 44 3 104v158zM215 512l102 152h79l-113 -152h-68z" />
    <glyph glyph-name="Ncommaaccent" unicode="&#x145;" horiz-adv-x="697" 
d="M153 144q0 -88 4 -144h-85q4 56 4 145v362q0 85 -4 193h19q29 -36 82 -95l370 -440v341q0 53 -3 179h84q-3 -66 -3 -179v-373q0 -87 3 -145h-18q-28 36 -74 89l-377 448zM331 -88v46q51 0 83.5 -28t32.5 -72q0 -40 -28.5 -65t-72.5 -25q-28 0 -52 10v51q20 -14 44 -14
q20 0 34 13t14 32q0 22 -16 37t-39 15z" />
    <glyph glyph-name="ncommaaccent" unicode="&#x146;" horiz-adv-x="503" 
d="M362 262q0 65 -30 98.5t-75 33.5q-47 0 -77 -35t-30 -91v-164q0 -60 3 -104h-84q3 44 3 104v297h-46q12 16 29 48h95v-69q17 33 52 55t82 22q73 0 114 -51t41 -145v-157q0 -65 4 -104h-84q3 44 3 104v158zM218 -88v46q51 0 83.5 -28t32.5 -72q0 -40 -28.5 -65t-72.5 -25
q-28 0 -52 10v51q20 -14 44 -14q20 0 34 13t14 32q0 22 -16 37t-39 15z" />
    <glyph glyph-name="Ncaron" unicode="&#x147;" horiz-adv-x="697" 
d="M153 144q0 -88 4 -144h-85q4 56 4 145v362q0 85 -4 193h19q29 -36 82 -95l370 -440v341q0 53 -3 179h84q-3 -66 -3 -179v-373q0 -87 3 -145h-18q-28 36 -74 89l-377 448zM345 780l79 74h76l-148 -133h-16l-148 133h80z" />
    <glyph glyph-name="ncaron" unicode="&#x148;" horiz-adv-x="503" 
d="M362 262q0 65 -30 98.5t-75 33.5q-47 0 -77 -35t-30 -91v-164q0 -60 3 -104h-84q3 44 3 104v297h-46q12 16 29 48h95v-69q17 33 52 55t82 22q73 0 114 -51t41 -145v-157q0 -65 4 -104h-84q3 44 3 104v158zM259 564l68 86h63l-125 -150h-15l-123 150h65z" />
    <glyph glyph-name="napostrophe" unicode="&#x149;" horiz-adv-x="503" 
d="M362 262q0 65 -30 98.5t-75 33.5q-47 0 -77 -35t-30 -91v-164q0 -60 3 -104h-84q3 44 3 104v297h-46q12 16 29 48h95v-69q17 33 52 55t82 22q73 0 114 -51t41 -145v-157q0 -65 4 -104h-84q3 44 3 104v158zM66 499l6 163h69l-17 -163h-58z" />
    <glyph glyph-name="Eng" unicode="&#x14a;" horiz-adv-x="697" 
d="M621 506v-508q0 -90 -50 -142.5t-129 -52.5q-18 0 -47 6.5t-35 7.5v86q27 -34 81 -34q44 0 73 34.5t29 89.5v63l-389 469v-337q0 -128 3 -188h-85q4 80 4 194v313q0 83 -4 193h19q19 -26 91 -113l361 -421v340q0 119 -4 179h86q-4 -40 -4 -179z" />
    <glyph glyph-name="eng" unicode="&#x14b;" horiz-adv-x="507" 
d="M362 265q0 59 -29.5 93.5t-76.5 34.5q-49 0 -77.5 -34.5t-28.5 -91.5v-164q0 -59 3 -103h-84q3 44 3 103v298h-46q14 17 28 48h96v-69q37 77 130 77q73 0 116.5 -51.5t43.5 -137.5v-250q0 -93 -38.5 -144t-107.5 -51q-23 0 -46.5 3.5t-24.5 3.5v72q16 -14 50 -14
q41 0 65 34.5t24 98.5v244z" />
    <glyph glyph-name="Omacron" unicode="&#x14c;" horiz-adv-x="796" 
d="M44 343q0 147 103 250.5t251 103.5t251 -103.5t103 -250.5t-103 -251t-251 -104t-251 104t-103 251zM127 343q0 -118 79 -201.5t192 -83.5t192 83.5t79 201.5t-79.5 201t-191.5 83t-191.5 -83t-79.5 -201zM257 801h283v-52h-283v52z" />
    <glyph glyph-name="omacron" unicode="&#x14d;" horiz-adv-x="541" 
d="M39 224q0 97 68 165t163 68q96 0 164 -68t68 -165q0 -96 -68 -163.5t-164 -67.5q-95 0 -163 67.5t-68 163.5zM114 224q0 -68 45.5 -115.5t110.5 -47.5t111 47.5t46 115.5t-46 116.5t-111 48.5t-110.5 -48.5t-45.5 -116.5zM149 601h242v-55h-242v55z" />
    <glyph glyph-name="Obreve" unicode="&#x14e;" horiz-adv-x="796" 
d="M44 343q0 147 103 250.5t251 103.5t251 -103.5t103 -250.5t-103 -251t-251 -104t-251 104t-103 251zM127 343q0 -118 79 -201.5t192 -83.5t192 83.5t79 201.5t-79.5 201t-191.5 83t-191.5 -83t-79.5 -201zM314 838q0 -29 24.5 -48.5t59.5 -19.5q34 0 58.5 19.5t24.5 48.5
h57q0 -51 -40.5 -83t-99.5 -32q-60 0 -100.5 32t-40.5 83h57z" />
    <glyph glyph-name="obreve" unicode="&#x14f;" horiz-adv-x="541" 
d="M39 224q0 97 68 165t163 68q96 0 164 -68t68 -165q0 -96 -68 -163.5t-164 -67.5q-95 0 -163 67.5t-68 163.5zM114 224q0 -68 45.5 -115.5t110.5 -47.5t111 47.5t46 115.5t-46 116.5t-111 48.5t-110.5 -48.5t-45.5 -116.5zM204 628q0 -27 19 -46t47 -19t47 19t19 46h54
q0 -49 -35 -83t-85 -34t-85.5 34t-35.5 83h55z" />
    <glyph glyph-name="Ohungarumlaut" unicode="&#x150;" horiz-adv-x="796" 
d="M44 343q0 147 103 250.5t251 103.5t251 -103.5t103 -250.5t-103 -251t-251 -104t-251 104t-103 251zM127 343q0 -118 79 -201.5t192 -83.5t192 83.5t79 201.5t-79.5 201t-191.5 83t-191.5 -83t-79.5 -201zM284 735l92 138h74l-100 -138h-66zM429 735l92 138h73l-99 -138
h-66z" />
    <glyph glyph-name="ohungarumlaut" unicode="&#x151;" horiz-adv-x="541" 
d="M39 224q0 97 68 165t163 68q96 0 164 -68t68 -165q0 -96 -68 -163.5t-164 -67.5q-95 0 -163 67.5t-68 163.5zM114 224q0 -68 45.5 -115.5t110.5 -47.5t111 47.5t46 115.5t-46 116.5t-111 48.5t-110.5 -48.5t-45.5 -116.5zM163 512l92 138h74l-100 -138h-66zM308 512
l92 138h73l-99 -138h-66z" />
    <glyph glyph-name="OE" unicode="&#x152;" horiz-adv-x="826" 
d="M614 617h-92v-217h85q103 0 149 3v-74q-46 3 -149 3h-85v-264h94q102 0 162 4v-76q-60 4 -162 4h-194q-166 0 -272 98t-106 245t105 244t272 97h193q78 0 156 5v-76q-41 4 -156 4zM127 343q0 -117 82 -196t210 -79h21l1 124v305l-1 120h-22q-127 0 -209 -78.5t-82 -195.5
z" />
    <glyph glyph-name="oe" unicode="&#x153;" horiz-adv-x="878" 
d="M838 229h-343v-1q-1 -75 48 -124.5t119 -49.5q79 0 137 38v-75q-10 -2 -38 -9.5t-52.5 -11.5t-55.5 -4q-71 0 -121 35t-72 94q-17 -52 -68.5 -90.5t-123.5 -38.5q-94 0 -161.5 68t-67.5 164t67.5 165t161.5 69q70 0 122 -38t70 -90q16 55 65.5 90.5t114.5 35.5
q88 0 144 -66.5t56 -141.5q0 -11 -2 -19zM114 224q0 -67 45.5 -115t109.5 -48q65 0 111 48t46 115q0 68 -46 116.5t-110 48.5t-110 -48.5t-46 -116.5zM635 398q-51 0 -85.5 -30.5t-47.5 -83.5h256q-5 45 -40.5 79.5t-82.5 34.5z" />
    <glyph glyph-name="Racute" unicode="&#x154;" horiz-adv-x="554" 
d="M158 284v-111q0 -132 4 -173h-89q4 41 4 173v333q0 139 -4 179h143q111 0 173 -55.5t62 -144.5q0 -74 -38.5 -120t-96.5 -65q12 -15 101 -135.5t136 -164.5h-111q-122 157 -197 286q-12 -2 -33 -2h-54zM158 620v-276h65q63 0 104 38.5t41 100.5q0 57 -40.5 97t-114.5 40
h-55zM184 735l128 112h97l-146 -112h-79z" />
    <glyph glyph-name="racute" unicode="&#x155;" horiz-adv-x="345" 
d="M267 457q17 0 33 -2.5t21 -2.5v-85q-28 17 -65 17q-41 0 -72 -43t-31 -97v-141q0 -58 4 -103h-84q3 51 3 103v298h-46q16 20 27 48h90v-102q13 50 46.5 80t73.5 30zM153 512l102 152h79l-113 -152h-68z" />
    <glyph glyph-name="Rcommaaccent" unicode="&#x156;" horiz-adv-x="554" 
d="M158 284v-111q0 -132 4 -173h-89q4 41 4 173v333q0 139 -4 179h143q111 0 173 -55.5t62 -144.5q0 -74 -38.5 -120t-96.5 -65q12 -15 101 -135.5t136 -164.5h-111q-122 157 -197 286q-12 -2 -33 -2h-54zM158 620v-276h65q63 0 104 38.5t41 100.5q0 57 -40.5 97t-114.5 40
h-55zM237 -88v46q51 0 83.5 -28t32.5 -72q0 -40 -28.5 -65t-72.5 -25q-28 0 -52 10v51q20 -14 44 -14q20 0 34 13t14 32q0 22 -16 37t-39 15z" />
    <glyph glyph-name="rcommaaccent" unicode="&#x157;" horiz-adv-x="345" 
d="M267 457q17 0 33 -2.5t21 -2.5v-85q-28 17 -65 17q-41 0 -72 -43t-31 -97v-141q0 -58 4 -103h-84q3 51 3 103v298h-46q16 20 27 48h90v-102q13 50 46.5 80t73.5 30zM86 -88v46q51 0 83.5 -28t32.5 -72q0 -40 -28.5 -65t-72.5 -25q-28 0 -52 10v51q20 -14 44 -14
q20 0 34 13t14 32q0 22 -16 37t-39 15z" />
    <glyph glyph-name="Rcaron" unicode="&#x158;" horiz-adv-x="554" 
d="M158 284v-111q0 -132 4 -173h-89q4 41 4 173v333q0 139 -4 179h143q111 0 173 -55.5t62 -144.5q0 -74 -38.5 -120t-96.5 -65q12 -15 101 -135.5t136 -164.5h-111q-122 157 -197 286q-12 -2 -33 -2h-54zM158 620v-276h65q63 0 104 38.5t41 100.5q0 57 -40.5 97t-114.5 40
h-55zM242 780l79 74h76l-148 -133h-16l-148 133h80z" />
    <glyph glyph-name="rcaron" unicode="&#x159;" horiz-adv-x="345" 
d="M267 457q17 0 33 -2.5t21 -2.5v-85q-28 17 -65 17q-41 0 -72 -43t-31 -97v-141q0 -58 4 -103h-84q3 51 3 103v298h-46q16 20 27 48h90v-102q13 50 46.5 80t73.5 30zM177 564l68 86h63l-125 -150h-15l-123 150h65z" />
    <glyph glyph-name="Sacute" unicode="&#x15a;" horiz-adv-x="468" 
d="M155 525q0 -33 19 -61.5t48 -47.5t62.5 -43t62.5 -47.5t48 -61.5t19 -84q0 -86 -57.5 -140.5t-149.5 -54.5q-29 0 -55 4.5t-54.5 11t-46.5 9.5v114q19 -32 63.5 -53t94.5 -21q55 0 86.5 33.5t31.5 86.5q0 40 -26.5 72.5t-63.5 56.5t-74.5 50.5t-64 68.5t-26.5 97
q0 86 55 135t143 49q30 0 72.5 -9t53.5 -10v-108q-26 64 -126 64q-51 0 -83 -29.5t-32 -81.5zM210 735l128 112h97l-146 -112h-79z" />
    <glyph glyph-name="sacute" unicode="&#x15b;" horiz-adv-x="357" 
d="M135 342q0 -28 28 -52t61 -40.5t61 -51.5t28 -83q0 -56 -38.5 -91.5t-104.5 -35.5q-23 0 -47 5t-46.5 12t-30.5 9v97q15 -27 50.5 -45.5t69.5 -18.5q31 0 50 17t19 46q0 30 -28 55t-61 41.5t-61 50.5t-28 79q0 54 37.5 87.5t103.5 33.5q25 0 58.5 -8t41.5 -9v-87
q-11 20 -41 33.5t-56 13.5q-32 0 -49 -16.5t-17 -41.5zM148 512l102 152h79l-113 -152h-68z" />
    <glyph glyph-name="Scircumflex" unicode="&#x15c;" horiz-adv-x="468" 
d="M155 525q0 -33 19 -61.5t48 -47.5t62.5 -43t62.5 -47.5t48 -61.5t19 -84q0 -86 -57.5 -140.5t-149.5 -54.5q-29 0 -55 4.5t-54.5 11t-46.5 9.5v114q19 -32 63.5 -53t94.5 -21q55 0 86.5 33.5t31.5 86.5q0 40 -26.5 72.5t-63.5 56.5t-74.5 50.5t-64 68.5t-26.5 97
q0 86 55 135t143 49q30 0 72.5 -9t53.5 -10v-108q-26 64 -126 64q-51 0 -83 -29.5t-32 -81.5zM253 800l-79 -74h-76l148 133h16l148 -133h-80z" />
    <glyph glyph-name="scircumflex" unicode="&#x15d;" horiz-adv-x="357" 
d="M135 342q0 -28 28 -52t61 -40.5t61 -51.5t28 -83q0 -56 -38.5 -91.5t-104.5 -35.5q-23 0 -47 5t-46.5 12t-30.5 9v97q15 -27 50.5 -45.5t69.5 -18.5q31 0 50 17t19 46q0 30 -28 55t-61 41.5t-61 50.5t-28 79q0 54 37.5 87.5t103.5 33.5q25 0 58.5 -8t41.5 -9v-87
q-11 20 -41 33.5t-56 13.5q-32 0 -49 -16.5t-17 -41.5zM187 595l-67 -86h-63l124 150h15l124 -150h-66z" />
    <glyph glyph-name="Scedilla" unicode="&#x15e;" horiz-adv-x="468" 
d="M137 -93l46 79q-30 2 -74.5 12t-57.5 12v114q19 -32 63.5 -53t94.5 -21q55 0 86.5 33.5t31.5 86.5q0 40 -26.5 72.5t-63.5 56.5t-74.5 50.5t-64 68.5t-26.5 97q0 86 55 135t143 49q30 0 72.5 -9t53.5 -10v-108q-26 64 -126 64q-51 0 -83 -29.5t-32 -81.5q0 -33 19 -61.5
t48 -47.5t62.5 -43t62.5 -47.5t48 -61.5t19 -84q0 -81 -50.5 -133.5t-133.5 -60.5l-21 -32q32 -4 52 -24.5t20 -54.5q0 -38 -26.5 -61t-69.5 -23q-12 0 -23.5 2.5t-22.5 6t-13 4.5v53q18 -22 54 -22q20 0 32.5 10.5t12.5 26.5q0 19 -14 30t-39 11q-24 0 -35 -6z" />
    <glyph glyph-name="scedilla" unicode="&#x15f;" horiz-adv-x="357" 
d="M94 -91l48 81q-23 3 -56.5 13t-39.5 11v97q15 -27 50.5 -45.5t69.5 -18.5q31 0 50 17t19 46q0 30 -28 55t-61 41.5t-61 50.5t-28 79q0 54 37.5 87.5t103.5 33.5q25 0 58.5 -8t41.5 -9v-87q-11 20 -41 33.5t-56 13.5q-32 0 -49 -16.5t-17 -41.5q0 -28 28 -52t61 -40.5
t61 -51.5t28 -83q0 -53 -34 -87.5t-93 -38.5l-22 -35q31 -4 51 -23.5t20 -53.5q0 -37 -26 -60t-69 -23q-22 0 -58 13v51q18 -22 53 -22q20 0 32.5 10.5t12.5 27.5q0 19 -14 30t-38 11t-34 -6z" />
    <glyph glyph-name="Scaron" unicode="&#x160;" horiz-adv-x="468" 
d="M155 525q0 -33 19 -61.5t48 -47.5t62.5 -43t62.5 -47.5t48 -61.5t19 -84q0 -86 -57.5 -140.5t-149.5 -54.5q-29 0 -55 4.5t-54.5 11t-46.5 9.5v114q19 -32 63.5 -53t94.5 -21q55 0 86.5 33.5t31.5 86.5q0 40 -26.5 72.5t-63.5 56.5t-74.5 50.5t-64 68.5t-26.5 97
q0 86 55 135t143 49q30 0 72.5 -9t53.5 -10v-108q-26 64 -126 64q-51 0 -83 -29.5t-32 -81.5zM256 780l79 74h76l-148 -133h-16l-148 133h80z" />
    <glyph glyph-name="scaron" unicode="&#x161;" horiz-adv-x="357" 
d="M135 342q0 -28 28 -52t61 -40.5t61 -51.5t28 -83q0 -56 -38.5 -91.5t-104.5 -35.5q-23 0 -47 5t-46.5 12t-30.5 9v97q15 -27 50.5 -45.5t69.5 -18.5q31 0 50 17t19 46q0 30 -28 55t-61 41.5t-61 50.5t-28 79q0 54 37.5 87.5t103.5 33.5q25 0 58.5 -8t41.5 -9v-87
q-11 20 -41 33.5t-56 13.5q-32 0 -49 -16.5t-17 -41.5zM192 564l68 86h63l-125 -150h-15l-123 150h65z" />
    <glyph glyph-name="Tcommaaccent" unicode="&#x162;" horiz-adv-x="617" 
d="M195 685h225q126 0 173 3v-74q-62 4 -173 4h-70q-1 -37 -1 -129v-310q0 -138 4 -179h-89q3 46 3 179v310q0 73 -3 129h-69q-109 0 -171 -4v74q47 -3 171 -3zM273 -88v46q51 0 83.5 -28t32.5 -72q0 -40 -28.5 -65t-72.5 -25q-28 0 -52 10v51q20 -14 44 -14q20 0 34 13
t14 32q0 22 -16 37t-39 15z" />
    <glyph glyph-name="tcommaaccent" unicode="&#x163;" horiz-adv-x="314" 
d="M87 564h83q-3 -36 -3 -89v-26h125v-64h-125v-226q0 -102 72 -102q27 0 39 12v-72q-6 0 -26 -2.5t-33 -2.5q-57 0 -93 37t-36 115v241h-71v64h71v26q0 53 -3 89zM155 -88v46q51 0 83.5 -28t32.5 -72q0 -40 -28.5 -65t-72.5 -25q-28 0 -52 10v51q20 -14 44 -14q20 0 34 13
t14 32q0 22 -16 37t-39 15z" />
    <glyph glyph-name="Tcaron" unicode="&#x164;" horiz-adv-x="617" 
d="M195 685h225q126 0 173 3v-74q-62 4 -173 4h-70q-1 -37 -1 -129v-310q0 -138 4 -179h-89q3 46 3 179v310q0 73 -3 129h-69q-109 0 -171 -4v74q47 -3 171 -3zM309 780l79 74h76l-148 -133h-16l-148 133h80z" />
    <glyph glyph-name="tcaron" unicode="&#x165;" horiz-adv-x="314" 
d="M87 564h83q-3 -36 -3 -89v-26h125v-64h-125v-226q0 -102 72 -102q27 0 39 12v-72q-6 0 -26 -2.5t-33 -2.5q-57 0 -93 37t-36 115v241h-71v64h71v26q0 53 -3 89zM224 522l6 163h69l-17 -163h-58z" />
    <glyph glyph-name="Tbar" unicode="&#x166;" horiz-adv-x="617" 
d="M195 685h225q126 0 173 3v-74q-62 4 -173 4h-70q-1 -37 -1 -129v-96h136v-60h-136v-154q0 -138 4 -179h-89q3 46 3 179v154h-134v60h134v96q0 73 -3 129h-69q-109 0 -171 -4v74q47 -3 171 -3z" />
    <glyph glyph-name="tbar" unicode="&#x167;" horiz-adv-x="314" 
d="M87 564h83q-3 -36 -3 -89v-26h125v-64h-125v-100h102v-51h-102v-75q0 -102 72 -102q27 0 39 12v-72q-6 0 -26 -2.5t-33 -2.5q-57 0 -93 37t-36 115v90h-54v51h54v100h-71v64h71v26q0 53 -3 89z" />
    <glyph glyph-name="Utilde" unicode="&#x168;" horiz-adv-x="673" 
d="M71 685h89q-4 -54 -4 -179v-231q0 -96 50.5 -155.5t130.5 -59.5t130 59.5t50 155.5v231q0 137 -3 179h88q-3 -66 -3 -179v-229q0 -132 -73 -210t-189 -78q-117 0 -189.5 78t-72.5 210v229q0 125 -4 179zM225 740h-56q-2 47 27 76.5t78 29.5q34 0 55.5 -14.5t38.5 -29
t39 -14.5q21 0 34.5 14t13.5 38h57q0 -47 -28.5 -76t-76.5 -29q-42 0 -75 28t-58 28q-22 0 -35.5 -14.5t-13.5 -36.5z" />
    <glyph glyph-name="utilde" unicode="&#x169;" horiz-adv-x="506" 
d="M148 180q0 -62 30.5 -93.5t73.5 -31.5q47 0 77 36t30 91v164q0 60 -3 103h84q-4 -39 -4 -103v-247q0 -65 15 -99h-75q-14 25 -15 69q-43 -77 -134 -77q-70 0 -113.5 47t-43.5 134v228h-46q13 15 28 48h98q-2 -58 -2 -103v-166zM172 526h-52q1 41 24 67.5t60 26.5
q28 0 56.5 -23t39.5 -23q37 0 37 42h50q0 -39 -23.5 -66t-59.5 -27q-30 0 -58 23t-40 23q-16 0 -25 -12t-9 -31z" />
    <glyph glyph-name="Umacron" unicode="&#x16a;" horiz-adv-x="673" 
d="M71 685h89q-4 -54 -4 -179v-231q0 -96 50.5 -155.5t130.5 -59.5t130 59.5t50 155.5v231q0 137 -3 179h88q-3 -66 -3 -179v-229q0 -132 -73 -210t-189 -78q-117 0 -189.5 78t-72.5 210v229q0 125 -4 179zM195 801h283v-52h-283v52z" />
    <glyph glyph-name="umacron" unicode="&#x16b;" horiz-adv-x="506" 
d="M148 180q0 -62 30.5 -93.5t73.5 -31.5q47 0 77 36t30 91v164q0 60 -3 103h84q-4 -39 -4 -103v-247q0 -65 15 -99h-75q-14 25 -15 69q-43 -77 -134 -77q-70 0 -113.5 47t-43.5 134v228h-46q13 15 28 48h98q-2 -58 -2 -103v-166zM132 601h242v-55h-242v55z" />
    <glyph glyph-name="Ubreve" unicode="&#x16c;" horiz-adv-x="673" 
d="M71 685h89q-4 -54 -4 -179v-231q0 -96 50.5 -155.5t130.5 -59.5t130 59.5t50 155.5v231q0 137 -3 179h88q-3 -66 -3 -179v-229q0 -132 -73 -210t-189 -78q-117 0 -189.5 78t-72.5 210v229q0 125 -4 179zM253 838q0 -29 24.5 -48.5t59.5 -19.5q34 0 58.5 19.5t24.5 48.5
h57q0 -51 -40.5 -83t-99.5 -32q-60 0 -100.5 32t-40.5 83h57z" />
    <glyph glyph-name="ubreve" unicode="&#x16d;" horiz-adv-x="506" 
d="M148 180q0 -62 30.5 -93.5t73.5 -31.5q47 0 77 36t30 91v164q0 60 -3 103h84q-4 -39 -4 -103v-247q0 -65 15 -99h-75q-14 25 -15 69q-43 -77 -134 -77q-70 0 -113.5 47t-43.5 134v228h-46q13 15 28 48h98q-2 -58 -2 -103v-166zM187 628q0 -27 19 -46t47 -19t47 19t19 46
h54q0 -49 -35 -83t-85 -34t-85.5 34t-35.5 83h55z" />
    <glyph glyph-name="Uring" unicode="&#x16e;" horiz-adv-x="673" 
d="M71 685h89q-4 -54 -4 -179v-231q0 -96 50.5 -155.5t130.5 -59.5t130 59.5t50 155.5v231q0 137 -3 179h88q-3 -66 -3 -179v-229q0 -132 -73 -210t-189 -78q-117 0 -189.5 78t-72.5 210v229q0 125 -4 179zM246 819q0 36 26.5 61t63.5 25t64 -25t27 -61q0 -35 -27 -60
t-64 -25q-36 0 -63 25t-27 60zM290 819q0 -19 13.5 -33t32.5 -14q20 0 33.5 14t13.5 33q0 20 -13.5 34t-33.5 14q-19 0 -32.5 -14t-13.5 -34z" />
    <glyph glyph-name="uring" unicode="&#x16f;" horiz-adv-x="506" 
d="M148 180q0 -62 30.5 -93.5t73.5 -31.5q47 0 77 36t30 91v164q0 60 -3 103h84q-4 -39 -4 -103v-247q0 -65 15 -99h-75q-14 25 -15 69q-43 -77 -134 -77q-70 0 -113.5 47t-43.5 134v228h-46q13 15 28 48h98q-2 -58 -2 -103v-166zM169 586q0 32 24.5 55.5t59.5 23.5
t60 -23.5t25 -55.5q0 -33 -25 -56.5t-60 -23.5t-59.5 23.5t-24.5 56.5zM213 586q0 -17 11.5 -29t28.5 -12t28.5 12t11.5 29q0 16 -11.5 28t-28.5 12t-28.5 -12t-11.5 -28z" />
    <glyph glyph-name="Uhungarumlaut" unicode="&#x170;" horiz-adv-x="673" 
d="M71 685h89q-4 -54 -4 -179v-231q0 -96 50.5 -155.5t130.5 -59.5t130 59.5t50 155.5v231q0 137 -3 179h88q-3 -66 -3 -179v-229q0 -132 -73 -210t-189 -78q-117 0 -189.5 78t-72.5 210v229q0 125 -4 179zM223 735l92 138h74l-100 -138h-66zM368 735l92 138h73l-99 -138
h-66z" />
    <glyph glyph-name="uhungarumlaut" unicode="&#x171;" horiz-adv-x="506" 
d="M148 180q0 -62 30.5 -93.5t73.5 -31.5q47 0 77 36t30 91v164q0 60 -3 103h84q-4 -39 -4 -103v-247q0 -65 15 -99h-75q-14 25 -15 69q-43 -77 -134 -77q-70 0 -113.5 47t-43.5 134v228h-46q13 15 28 48h98q-2 -58 -2 -103v-166zM143 512l92 138h74l-100 -138h-66zM288 512
l92 138h73l-99 -138h-66z" />
    <glyph glyph-name="Uogonek" unicode="&#x172;" horiz-adv-x="673" 
d="M235 -175q0 49 39.5 93t94.5 75q-15 -4 -36 -4q-112 0 -185 79.5t-73 209.5v228q0 125 -4 179h89q-4 -54 -4 -179v-230q0 -96 51 -156t130 -60q80 0 130 60t50 156v230q0 123 -4 179h89q-3 -66 -3 -179v-228q0 -157 -106 -240q-10 -7 -53.5 -39t-64.5 -49.5t-43 -47.5
t-22 -56q0 -23 16.5 -37.5t39.5 -14.5q40 0 73 31v-63q-45 -27 -103 -27q-46 0 -73.5 25.5t-27.5 64.5z" />
    <glyph glyph-name="uogonek" unicode="&#x173;" horiz-adv-x="506" 
d="M148 180q0 -62 30.5 -93.5t73.5 -31.5q47 0 77 36t30 91v164q0 60 -3 103h84q-4 -39 -4 -103v-247q0 -65 15 -99q-62 -28 -101 -67t-39 -76q0 -25 16 -39t41 -14q32 0 60 25v-55q-41 -26 -92 -26q-41 0 -68 24.5t-27 65.5q0 79 135 162q-14 25 -15 69q-43 -77 -134 -77
q-70 0 -113.5 47t-43.5 134v228h-46q13 15 28 48h98q-2 -58 -2 -103v-166z" />
    <glyph glyph-name="Wcircumflex" unicode="&#x174;" horiz-adv-x="971" 
d="M345 -15h-12l-261 562q-39 87 -71 138h100q13 -38 50 -119l197 -442l109 254l-76 168q-41 92 -71 139h93q15 -44 55 -131l37 -87l39 90q37 87 52 128h86q-16 -24 -70 -140l-72 -157l114 -260l183 426q38 82 54 131h88q-35 -70 -68 -141l-254 -559h-10l-146 319zM492 800
l-79 -74h-76l148 133h16l148 -133h-80z" />
    <glyph glyph-name="wcircumflex" unicode="&#x175;" horiz-adv-x="662" 
d="M316 450h37l120 -316l84 246q19 59 20 69h84q-25 -52 -45 -107l-131 -357h-19l-135 345l-126 -345h-20l-140 362q-28 70 -43 102h92q13 -51 28 -90l81 -225zM333 595l-67 -86h-63l124 150h15l124 -150h-66z" />
    <glyph glyph-name="Ycircumflex" unicode="&#x176;" horiz-adv-x="587" 
d="M250 0q3 46 3 172v146l-159 238q-53 79 -94 129h105q17 -34 56 -94l136 -201l129 194q45 66 62 101h99q-36 -46 -98 -137l-155 -230v-146q0 -110 4 -172h-88zM295 800l-79 -74h-76l148 133h16l148 -133h-80z" />
    <glyph glyph-name="ycircumflex" unicode="&#x177;" horiz-adv-x="459" 
d="M129 -191q-23 -37 -46.5 -52t-56.5 -15q-13 0 -25 3q29 35 63 87q101 156 138 226l-146 289q-34 65 -55 102h94q8 -25 33 -77l115 -228q59 124 97 221q16 40 30 84h89q-18 -32 -49 -106q-84 -195 -136 -289q-44 -84 -145 -245zM232 595l-67 -86h-63l124 150h15l124 -150
h-66z" />
    <glyph glyph-name="Ydieresis" unicode="&#x178;" horiz-adv-x="587" 
d="M250 0q3 46 3 172v146l-159 238q-53 79 -94 129h105q17 -34 56 -94l136 -201l129 194q45 66 62 101h99q-36 -46 -98 -137l-155 -230v-146q0 -110 4 -172h-88zM152 788q0 19 13.5 32t32.5 13t32.5 -13t13.5 -32t-13.5 -32t-32.5 -13t-32.5 13t-13.5 32zM341 788
q0 19 14 32t33 13t32 -13t13 -32t-13 -32t-32 -13t-33 13t-14 32z" />
    <glyph glyph-name="Zacute" unicode="&#x179;" horiz-adv-x="543" 
d="M420 534l-270 -466h198q119 0 165 3v-74q-46 3 -165 3h-324q29 44 91 152l269 466h-174q-129 0 -170 -4v74q46 -3 170 -3h299q-38 -59 -89 -151zM218 735l128 112h97l-146 -112h-79z" />
    <glyph glyph-name="zacute" unicode="&#x17a;" horiz-adv-x="400" 
d="M376 449l-237 -385h150q48 0 82 3v-70q-33 3 -83 3h-266l236 384h-141q-48 0 -82 -3v71q33 -3 83 -3h258zM168 512l102 152h79l-113 -152h-68z" />
    <glyph glyph-name="Zdotaccent" unicode="&#x17b;" horiz-adv-x="543" 
d="M420 534l-270 -466h198q119 0 165 3v-74q-46 3 -165 3h-324q29 44 91 152l269 466h-174q-129 0 -170 -4v74q46 -3 170 -3h299q-38 -59 -89 -151zM227 783q0 20 14 34t34 14t33.5 -14t13.5 -34q0 -19 -14 -33t-33 -14q-20 0 -34 13.5t-14 33.5z" />
    <glyph glyph-name="zdotaccent" unicode="&#x17c;" horiz-adv-x="400" 
d="M376 449l-237 -385h150q48 0 82 3v-70q-33 3 -83 3h-266l236 384h-141q-48 0 -82 -3v71q33 -3 83 -3h258zM158 584q0 20 13 33t33 13t33 -13t13 -33q0 -19 -13.5 -32t-32.5 -13t-32.5 13t-13.5 32z" />
    <glyph glyph-name="Zcaron" unicode="&#x17d;" horiz-adv-x="543" 
d="M420 534l-270 -466h198q119 0 165 3v-74q-46 3 -165 3h-324q29 44 91 152l269 466h-174q-129 0 -170 -4v74q46 -3 170 -3h299q-38 -59 -89 -151zM277 780l79 74h76l-148 -133h-16l-148 133h80z" />
    <glyph glyph-name="zcaron" unicode="&#x17e;" horiz-adv-x="400" 
d="M376 449l-237 -385h150q48 0 82 3v-70q-33 3 -83 3h-266l236 384h-141q-48 0 -82 -3v71q33 -3 83 -3h258zM205 564l68 86h63l-125 -150h-15l-123 150h65z" />
    <glyph glyph-name="longs" unicode="&#x17f;" horiz-adv-x="244" 
d="M21 385v64h77v101q0 92 43 141t110 49q20 0 47.5 -4.5t37.5 -4.5v-78q-20 23 -69 23q-41 0 -66.5 -33t-25.5 -96v-444q0 -79 2 -103h-81q2 48 2 103v282h-77z" />
    <glyph glyph-name="uni018F" unicode="&#x18f;" horiz-adv-x="723" 
d="M42 331h550q2 12 2 32q0 107 -75 184.5t-189 77.5q-128 0 -223 -75v92q9 3 39.5 15t44.5 16.5t41.5 12t54 10.5t57.5 3q148 0 240.5 -101t92.5 -250q0 -147 -94.5 -251t-230.5 -104q-70 0 -130 28t-99 73t-61 100.5t-22 112.5q0 14 2 24zM355 65q83 0 150 58t81 144h-453
q6 -83 71.5 -142.5t150.5 -59.5z" />
    <glyph glyph-name="florin" unicode="&#x192;" horiz-adv-x="518" 
d="M86 387h97l10 67q37 229 187 229q23 0 38 -3t28 -8.5t22 -7.5v-79q-31 31 -81 31q-91 0 -117 -171l-8 -58h118v-63h-127l-27 -186q-27 -184 -74.5 -258.5t-143.5 -74.5q-20 0 -37.5 4.5t-33.5 11t-21 8.5v80q36 -36 92 -36q35 0 56.5 15t44 76t39.5 178l27 182h-89v63z
" />
    <glyph glyph-name="uni019F" unicode="&#x19f;" horiz-adv-x="797" 
d="M44 343q0 147 103 250.5t251 103.5t251 -103.5t103 -250.5t-103 -251t-251 -104t-251 104t-103 251zM398 58q105 0 182.5 74.5t87.5 184.5h-540q9 -110 86.5 -184.5t183.5 -74.5zM398 627q-103 0 -179.5 -71t-89.5 -176h537q-13 105 -89 176t-179 71z" />
    <glyph glyph-name="Ohorn" unicode="&#x1a0;" horiz-adv-x="796" 
d="M127 343q0 -118 79 -201.5t192 -83.5t192 83.5t79 201.5t-79.5 201t-191.5 83t-191.5 -83t-79.5 -201zM665 743h75q7 -18 7 -49q0 -45 -23.5 -74.5t-67.5 -34.5q96 -100 96 -242q0 -147 -103 -251t-251 -104t-251 104t-103 251t103 250.5t251 103.5q59 0 108.5 -17
t77.5 -34t35 -17q57 0 57 55q0 35 -11 59z" />
    <glyph glyph-name="ohorn" unicode="&#x1a1;" horiz-adv-x="539" 
d="M461 513h68q5 -30 5 -36q3 -96 -82 -111q48 -63 48 -142q0 -96 -67.5 -163.5t-163.5 -67.5t-163.5 67.5t-67.5 163.5q0 97 67.5 165t163.5 68q41 0 74.5 -13t52.5 -26t27 -13q22 0 34.5 13t12.5 35q0 31 -9 60zM113 224q0 -68 45.5 -115.5t110.5 -47.5q64 0 110 47.5
t46 115.5t-46 116.5t-110 48.5q-65 0 -110.5 -48.5t-45.5 -116.5z" />
    <glyph glyph-name="Uhorn" unicode="&#x1af;" horiz-adv-x="673" 
d="M71 685h89q-4 -54 -4 -179v-231q0 -95 51 -155t130 -60q80 0 130 59.5t50 155.5v231q0 137 -3 179h61q53 0 53 55q0 32 -11 56h76q7 -21 7 -49q0 -42 -24 -74t-76 -37q-1 -39 -1 -130v-229q0 -132 -73 -210t-189 -78q-117 0 -189.5 78t-72.5 210v229q0 125 -4 179z" />
    <glyph glyph-name="uhorn" unicode="&#x1b0;" horiz-adv-x="506" 
d="M454 553h68q6 -27 6 -42q1 -50 -25 -76.5t-67 -31.5v-295q0 -80 16 -108h-75q-14 23 -15 70q-45 -78 -136 -78q-69 0 -112.5 46.5t-43.5 129.5v232h-47q15 18 28 49h99q-2 -58 -2 -103v-170q0 -58 30.5 -89t73.5 -31q48 0 77.5 35.5t29.5 90.5v164q0 60 -3 103h55
q51 0 52 47q0 26 -9 57z" />
    <glyph glyph-name="uni01C4" unicode="&#x1c4;" horiz-adv-x="1197" 
d="M265 0h-193q5 52 5 179v327q0 129 -5 179h193q142 0 243 -100t101 -242t-101 -242.5t-243 -100.5zM158 618v-551h102q110 0 188 81.5t78 194.5t-78 194t-189 81h-101zM1074 534l-270 -466h198q118 0 165 3v-74q-47 3 -165 3h-324q29 44 91 152l269 466h-174
q-129 0 -170 -4v74q46 -3 170 -3h299q-38 -59 -89 -151zM931 780l79 74h76l-148 -133h-16l-148 133h80z" />
    <glyph glyph-name="uni01C5" unicode="&#x1c5;" horiz-adv-x="1053" 
d="M265 0h-193q5 52 5 179v327q0 129 -5 179h193q142 0 243 -100t101 -242t-101 -242.5t-243 -100.5zM158 618v-551h102q110 0 188 81.5t78 194.5t-78 194t-189 81h-101zM1030 449l-237 -385h150q48 0 82 3v-70q-33 3 -83 3h-266l236 384h-141q-47 0 -82 -3v71q33 -3 83 -3
h258zM859 564l68 86h63l-125 -150h-15l-123 150h65z" />
    <glyph glyph-name="uni01C6" unicode="&#x1c6;" horiz-adv-x="971" 
d="M503 645v-542q0 -64 3 -103h-83q2 19 2 90q-27 -48 -71.5 -72.5t-95.5 -24.5q-92 0 -155.5 68t-63.5 164q0 99 63.5 165.5t159.5 66.5q115 0 163 -91v320h-46q12 13 28 48h99q-3 -48 -3 -89zM428 224q0 69 -44.5 118t-108.5 49q-65 0 -111 -48.5t-46 -116.5
q0 -70 46 -119t112 -49q63 0 107.5 49t44.5 117zM947 449l-237 -385h150q48 0 82 3v-70q-33 3 -83 3h-266l236 384h-141q-48 0 -82 -3v71q33 -3 83 -3h258zM776 564l68 86h63l-125 -150h-15l-123 150h65z" />
    <glyph glyph-name="uni01C7" unicode="&#x1c7;" horiz-adv-x="700" 
d="M157 506v-437h120q115 0 160 3v-76q-60 4 -160 4h-205q4 110 4 179v327q0 119 -4 179h88q-3 -90 -3 -179zM623 506v-509q0 -90 -50.5 -142t-128.5 -52q-19 0 -48.5 6.5t-35.5 7.5v90q27 -34 80 -34q43 0 72.5 34.5t29.5 89.5v509q0 89 -3 179h88q-4 -60 -4 -179z" />
    <glyph glyph-name="uni01C8" unicode="&#x1c8;" horiz-adv-x="681" 
d="M157 506v-437h120q115 0 160 3v-76q-60 4 -160 4h-205q4 110 4 179v327q0 119 -4 179h88q-3 -90 -3 -179zM612 346v-408q0 -94 -38 -145t-108 -51q-23 0 -46.5 3.5t-24.5 3.5v72q16 -14 50 -14q41 0 65 34t24 99v461h-46q13 19 28 48h99q-3 -38 -3 -103zM526 586
q0 19 13 32.5t32 13.5t32.5 -13t13.5 -33t-13.5 -33t-32.5 -13t-32 13.5t-13 32.5z" />
    <glyph glyph-name="uni01C9" unicode="&#x1c9;" horiz-adv-x="434" 
d="M146 631v-528q0 -69 3 -103h-84q4 31 4 103v583h-46q14 19 26 48h100q-3 -34 -3 -103zM365 346v-408q0 -94 -38 -145t-108 -51q-23 0 -46.5 3.5t-24.5 3.5v72q16 -14 50 -14q41 0 65 34t24 99v461h-46q13 19 28 48h99q-3 -38 -3 -103zM279 586q0 19 13 32.5t32 13.5
q20 0 33 -13t13 -33t-13 -33t-33 -13q-19 0 -32 13.5t-13 32.5z" />
    <glyph glyph-name="uni01CA" unicode="&#x1ca;" horiz-adv-x="936" 
d="M153 144q0 -88 4 -144h-85q4 56 4 145v362q0 85 -4 193h19q29 -36 82 -95l370 -440v341q0 53 -3 179h84q-3 -66 -3 -179v-373q0 -87 3 -145h-18q-28 36 -74 89l-377 448zM858 506v-509q0 -90 -50.5 -142t-128.5 -52q-19 0 -48.5 6.5t-35.5 7.5v90q27 -34 80 -34
q43 0 72.5 34.5t29.5 89.5v509q0 89 -3 179h88q-4 -60 -4 -179z" />
    <glyph glyph-name="uni01CB" unicode="&#x1cb;" horiz-adv-x="916" 
d="M153 144q0 -88 4 -144h-85q4 56 4 145v362q0 85 -4 193h19q29 -36 82 -95l370 -440v341q0 53 -3 179h84q-3 -66 -3 -179v-373q0 -87 3 -145h-18q-28 36 -74 89l-377 448zM847 346v-408q0 -94 -38 -145t-108 -51q-23 0 -46.5 3.5t-24.5 3.5v72q16 -14 50 -14q41 0 65 34
t24 99v461h-46q13 19 28 48h99q-3 -38 -3 -103zM761 586q0 19 13 32.5t32 13.5q20 0 33 -13t13 -33t-13 -33t-33 -13q-19 0 -32 13.5t-13 32.5z" />
    <glyph glyph-name="uni01CC" unicode="&#x1cc;" horiz-adv-x="722" 
d="M362 262q0 65 -30 98.5t-75 33.5q-47 0 -77 -35t-30 -91v-164q0 -60 3 -104h-84q3 44 3 104v297h-46q12 16 29 48h95v-69q17 33 52 55t82 22q73 0 114 -51t41 -145v-157q0 -65 4 -104h-84q3 44 3 104v158zM653 346v-408q0 -94 -38 -145t-108 -51q-23 0 -46.5 3.5
t-24.5 3.5v72q16 -14 50 -14q41 0 65 34t24 99v461h-46q13 19 28 48h99q-3 -38 -3 -103zM567 586q0 19 13 32.5t32 13.5q20 0 33 -13t13 -33t-13 -33t-33 -13q-19 0 -32 13.5t-13 32.5z" />
    <glyph glyph-name="uni01F1" unicode="&#x1f1;" horiz-adv-x="1197" 
d="M265 0h-193q5 52 5 179v327q0 129 -5 179h193q142 0 243 -100t101 -242t-101 -242.5t-243 -100.5zM158 618v-551h102q110 0 188 81.5t78 194.5t-78 194t-189 81h-101zM1074 534l-270 -466h198q118 0 165 3v-74q-47 3 -165 3h-324q29 44 91 152l269 466h-174
q-129 0 -170 -4v74q46 -3 170 -3h299q-38 -59 -89 -151z" />
    <glyph glyph-name="uni01F2" unicode="&#x1f2;" horiz-adv-x="1053" 
d="M265 0h-193q5 52 5 179v327q0 129 -5 179h193q142 0 243 -100t101 -242t-101 -242.5t-243 -100.5zM158 618v-551h102q110 0 188 81.5t78 194.5t-78 194t-189 81h-101zM1030 449l-237 -385h150q48 0 82 3v-70q-33 3 -83 3h-266l236 384h-141q-47 0 -82 -3v71q33 -3 83 -3
h258z" />
    <glyph glyph-name="uni01F3" unicode="&#x1f3;" horiz-adv-x="971" 
d="M503 645v-542q0 -64 3 -103h-83q2 19 2 90q-27 -48 -71.5 -72.5t-95.5 -24.5q-92 0 -155.5 68t-63.5 164q0 99 63.5 165.5t159.5 66.5q115 0 163 -91v320h-46q12 13 28 48h99q-3 -48 -3 -89zM428 224q0 69 -44.5 118t-108.5 49q-65 0 -111 -48.5t-46 -116.5
q0 -70 46 -119t112 -49q63 0 107.5 49t44.5 117zM947 449l-237 -385h150q48 0 82 3v-70q-33 3 -83 3h-266l236 384h-141q-48 0 -82 -3v71q33 -3 83 -3h258z" />
    <glyph glyph-name="Aringacute" unicode="&#x1fa;" horiz-adv-x="645" 
d="M645 0h-104q-12 35 -45 113l-50 119h-261l-49 -117q-35 -84 -44 -115h-92q41 77 72 152l229 530q-30 6 -49 26t-19 45q0 29 25.5 50.5t62.5 21.5q36 0 62 -21.5t26 -50.5q0 -26 -20.5 -46t-50.5 -25l232 -530q40 -90 75 -152zM418 299l-103 252l-103 -252h206zM278 839
l98 78h93l-108 -78h-83zM282 753q0 -14 11.5 -24t27.5 -10t27.5 10t11.5 24t-11.5 24t-27.5 10t-27.5 -10t-11.5 -24z" />
    <glyph glyph-name="aringacute" unicode="&#x1fb;" horiz-adv-x="449" 
d="M185 395q-68 0 -112 -46v78l45 15q45 15 84 15q172 0 172 -199v-169q0 -39 26 -39q16 0 22 5v-49q-25 -17 -59 -17q-23 0 -39 13.5t-20 39.5q-36 -53 -114 -53q-69 0 -109.5 36.5t-40.5 93.5q0 58 41.5 96.5t113.5 38.5q35 0 65 -13t41 -32v57q0 58 -28 93.5t-88 35.5z
M117 123q0 -35 25 -57.5t69 -22.5q38 0 65 23t27 57q0 32 -27 55t-65 23q-44 0 -69 -22.5t-25 -55.5zM124 547q0 28 24.5 48t58.5 20q35 0 59.5 -20t24.5 -48t-24.5 -47.5t-59.5 -19.5q-34 0 -58.5 19.5t-24.5 47.5zM167 631l85 84h80l-94 -84h-71zM169 547q0 -14 11 -24
t27 -10t27.5 10t11.5 24q0 15 -11 25t-28 10q-16 0 -27 -10t-11 -25z" />
    <glyph glyph-name="AEacute" unicode="&#x1fc;" horiz-adv-x="835" 
d="M655 0h-195l-15 122l-18 116h-210l-65 -126q-36 -65 -56 -112h-96q29 39 87 151l287 534h184q82 0 148 4v-75q-40 4 -137 4h-126l39 -259h116q86 0 132 3v-74q-45 3 -122 3h-112l34 -223h123q95 0 138 3v-73q-29 2 -136 2zM377 555l-129 -250h166zM461 735l128 112h97
l-146 -112h-79z" />
    <glyph glyph-name="aeacute" unicode="&#x1fd;" horiz-adv-x="756" 
d="M73 355v77q8 2 28 8.5t43 11.5t49 5q60 0 99.5 -29.5t47.5 -83.5q19 51 65 81.5t103 30.5q65 0 113 -37.5t68 -83.5t20 -87q0 -16 -1 -19h-344v-1q0 -74 47 -124.5t118 -50.5q81 0 140 40v-76q-16 -3 -39.5 -10t-48 -11t-57.5 -4q-128 0 -186 104q-7 -46 -45 -76.5
t-101 -30.5q-70 0 -110.5 36t-40.5 95q0 60 41.5 97t109.5 37q75 0 109 -46v53q0 60 -29.5 96.5t-89.5 36.5q-74 0 -109 -39zM118 121q0 -33 25.5 -55t68.5 -22q40 0 66 23t26 55q0 34 -27 56t-65 22q-44 0 -69 -21t-25 -58zM502 398q-48 0 -83 -31t-49 -83h258
q-7 46 -42 80t-84 34zM329 512l102 152h79l-113 -152h-68z" />
    <glyph glyph-name="Oslashacute" unicode="&#x1fe;" horiz-adv-x="796" 
d="M44 343q0 147 103 250.5t251 103.5q117 0 209 -68l48 56h72l-78 -92q103 -103 103 -250t-103 -251t-251 -104q-116 0 -209 67l-47 -55h-72l78 91q-104 102 -104 252zM127 343q0 -112 71 -193l360 421q-72 56 -160 56q-112 0 -191.5 -83t-79.5 -201zM669 343
q0 110 -71 191l-360 -422q71 -54 160 -54q113 0 192 83.5t79 201.5zM343 735l128 112h97l-146 -112h-79z" />
    <glyph glyph-name="oslashacute" unicode="&#x1ff;" horiz-adv-x="542" 
d="M39 224q0 97 68 165t163 68q81 0 146 -52l28 31h45l-49 -54q62 -67 62 -158q0 -96 -67.5 -163.5t-164.5 -67.5q-79 0 -141 48l-26 -29h-47l47 52q-64 66 -64 160zM115 224q0 -64 37 -107l216 236q-42 36 -98 36q-64 0 -109.5 -48.5t-45.5 -116.5zM427 224q0 58 -36 104
l-214 -235q40 -32 93 -32q65 0 111 47.5t46 115.5zM235 512l102 152h79l-113 -152h-68z" />
    <glyph glyph-name="Scommaaccent" unicode="&#x218;" horiz-adv-x="468" 
d="M155 525q0 -33 19 -61.5t48 -47.5t62.5 -43t62.5 -47.5t48 -61.5t19 -84q0 -86 -57.5 -140.5t-149.5 -54.5q-29 0 -55 4.5t-54.5 11t-46.5 9.5v114q19 -32 63.5 -53t94.5 -21q55 0 86.5 33.5t31.5 86.5q0 40 -26.5 72.5t-63.5 56.5t-74.5 50.5t-64 68.5t-26.5 97
q0 86 55 135t143 49q30 0 72.5 -9t53.5 -10v-108q-26 64 -126 64q-51 0 -83 -29.5t-32 -81.5zM194 -88v46q51 0 83.5 -28t32.5 -72q0 -40 -28.5 -65t-72.5 -25q-28 0 -52 10v51q20 -14 44 -14q20 0 34 13t14 32q0 22 -16 37t-39 15z" />
    <glyph glyph-name="scommaaccent" unicode="&#x219;" horiz-adv-x="357" 
d="M135 342q0 -28 28 -52t61 -40.5t61 -51.5t28 -83q0 -56 -38.5 -91.5t-104.5 -35.5q-23 0 -47 5t-46.5 12t-30.5 9v97q15 -27 50.5 -45.5t69.5 -18.5q31 0 50 17t19 46q0 30 -28 55t-61 41.5t-61 50.5t-28 79q0 54 37.5 87.5t103.5 33.5q25 0 58.5 -8t41.5 -9v-87
q-11 20 -41 33.5t-56 13.5q-32 0 -49 -16.5t-17 -41.5zM137 -88v46q51 0 83.5 -28t32.5 -72q0 -40 -28.5 -65t-72.5 -25q-28 0 -52 10v51q20 -14 44 -14q20 0 34 13t14 32q0 22 -16 37t-39 15z" />
    <glyph glyph-name="uni021A" unicode="&#x21a;" horiz-adv-x="617" 
d="M195 685h225q126 0 173 3v-74q-62 4 -173 4h-70q-1 -37 -1 -129v-310q0 -138 4 -179h-89q3 46 3 179v310q0 73 -3 129h-69q-109 0 -171 -4v74q47 -3 171 -3zM273 -88v46q51 0 83.5 -28t32.5 -72q0 -40 -28.5 -65t-72.5 -25q-28 0 -52 10v51q20 -14 44 -14q20 0 34 13
t14 32q0 22 -16 37t-39 15z" />
    <glyph glyph-name="uni021B" unicode="&#x21b;" horiz-adv-x="314" 
d="M87 564h83q-3 -36 -3 -89v-26h125v-64h-125v-226q0 -102 72 -102q27 0 39 12v-72q-6 0 -26 -2.5t-33 -2.5q-57 0 -93 37t-36 115v241h-71v64h71v26q0 53 -3 89zM155 -88v46q51 0 83.5 -28t32.5 -72q0 -40 -28.5 -65t-72.5 -25q-28 0 -52 10v51q20 -14 44 -14q20 0 34 13
t14 32q0 22 -16 37t-39 15z" />
    <glyph glyph-name="uni021C" unicode="&#x21c;" horiz-adv-x="503" 
d="M193 312q-33 0 -63 -6v79q22 -5 59 -5q57 0 101 38.5t44 88.5q0 49 -38.5 82.5t-102.5 33.5q-75 0 -123 -35v82q17 3 41.5 9.5t44.5 10t43 3.5q104 0 159.5 -49t55.5 -129q0 -54 -32 -97t-87 -63q64 -13 110.5 -64.5t46.5 -126.5q0 -60 -25.5 -109.5t-65 -82t-94.5 -57
t-106 -37.5t-108 -21v78h1q54 3 107.5 18.5t101 42.5t77.5 71.5t30 99.5q0 69 -52 107t-125 38z" />
    <glyph glyph-name="uni021D" unicode="&#x21d;" horiz-adv-x="423" 
d="M169 120q-40 0 -62 -13v70q76 5 122 37t46 81q0 42 -32 69.5t-80 27.5q-59 0 -102 -33v78q8 2 25.5 7.5t36 9t43.5 3.5q81 0 133 -43.5t52 -114.5q0 -50 -31 -85t-75 -53q53 -10 87.5 -53t34.5 -111q0 -201 -333 -260v71h1q55 1 112 21t101 65t44 103t-34.5 90.5
t-88.5 32.5z" />
    <glyph glyph-name="uni0232" unicode="&#x232;" horiz-adv-x="587" 
d="M250 0q3 46 3 172v146l-159 238q-53 79 -94 129h105q17 -34 56 -94l136 -201l129 194q45 66 62 101h99q-36 -46 -98 -137l-155 -230v-146q0 -110 4 -172h-88zM154 801h283v-52h-283v52z" />
    <glyph glyph-name="uni0233" unicode="&#x233;" horiz-adv-x="459" 
d="M129 -191q-23 -37 -46.5 -52t-56.5 -15q-13 0 -25 3q29 35 63 87q101 156 138 226l-146 289q-34 65 -55 102h94q8 -25 33 -77l115 -228q59 124 97 221q16 40 30 84h89q-18 -32 -49 -106q-84 -195 -136 -289q-44 -84 -145 -245zM116 601h242v-55h-242v55z" />
    <glyph glyph-name="uni0237" unicode="&#x237;" horiz-adv-x="219" 
d="M150 346v-414q0 -93 -38.5 -144.5t-107.5 -51.5q-23 0 -46.5 3.5t-24.5 3.5v73q14 -14 50 -14q41 0 65 35t24 103v461h-46q17 23 27 48h100q-3 -37 -3 -103z" />
    <glyph glyph-name="uni0259" unicode="&#x259;" horiz-adv-x="502" 
d="M44 236h339q-1 62 -43.5 110t-111.5 48q-88 0 -145 -45v74q10 2 34.5 11t55.5 16t67 7q98 0 160 -66t62 -166t-61 -166t-151 -66q-67 0 -116 35t-70.5 84.5t-21.5 104.5q0 11 2 19zM250 51q56 0 92.5 38t42.5 92h-262q4 -55 39 -92.5t88 -37.5z" />
    <glyph glyph-name="uni0275" unicode="&#x275;" horiz-adv-x="541" 
d="M39 224q0 97 68 165t163 68q96 0 164 -68t68 -165q0 -96 -68 -163.5t-164 -67.5q-95 0 -163 67.5t-68 163.5zM270 55q61 0 106 43t52 107h-316q7 -65 52 -107.5t106 -42.5zM270 395q-59 0 -102.5 -39.5t-54.5 -100.5h313q-10 60 -54 100t-102 40z" />
    <glyph glyph-name="uni02BB" unicode="&#x2bb;" horiz-adv-x="267" 
d="M164 476h-74q0 152 45 229h62q-33 -79 -33 -229z" />
    <glyph glyph-name="uni02BC" unicode="&#x2bc;" horiz-adv-x="191" 
d="M75 739h77q0 -183 -58 -276h-63q44 93 44 276z" />
    <glyph glyph-name="circumflex" unicode="&#x2c6;" horiz-adv-x="462" 
d="M230 595l-67 -86h-63l124 150h15l124 -150h-66z" />
    <glyph glyph-name="caron" unicode="&#x2c7;" horiz-adv-x="462" 
d="M232 564l68 86h63l-125 -150h-15l-123 150h65z" />
    <glyph glyph-name="uni02C9" unicode="&#x2c9;" horiz-adv-x="462" 
d="M110 601h242v-55h-242v55z" />
    <glyph glyph-name="breve" unicode="&#x2d8;" horiz-adv-x="462" 
d="M165 628q0 -27 19 -46t47 -19t47 19t19 46h54q0 -49 -35 -83t-85 -34t-85.5 34t-35.5 83h55z" />
    <glyph glyph-name="dotaccent" unicode="&#x2d9;" horiz-adv-x="462" 
d="M186 584q0 20 13 33t33 13t33 -13t13 -33q0 -19 -13.5 -32t-32.5 -13t-32.5 13t-13.5 32z" />
    <glyph glyph-name="ring" unicode="&#x2da;" horiz-adv-x="462" 
d="M147 586q0 32 24.5 55.5t59.5 23.5t60 -23.5t25 -55.5q0 -33 -25 -56.5t-60 -23.5t-59.5 23.5t-24.5 56.5zM191 586q0 -17 11.5 -29t28.5 -12t28.5 12t11.5 29q0 16 -11.5 28t-28.5 12t-28.5 -12t-11.5 -28z" />
    <glyph glyph-name="ogonek" unicode="&#x2db;" horiz-adv-x="462" 
d="M94 -162q0 45 36 84t97 80h59q-63 -47 -92.5 -78.5t-29.5 -66.5q0 -24 16 -38.5t41 -14.5q31 0 60 25v-55q-39 -25 -92 -25q-41 0 -68 24t-27 65z" />
    <glyph glyph-name="tilde" unicode="&#x2dc;" horiz-adv-x="462" 
d="M150 526h-52q1 41 24 67.5t60 26.5q28 0 56.5 -23t39.5 -23q37 0 37 42h50q0 -39 -23.5 -66t-59.5 -27q-29 0 -57.5 23t-40.5 23q-16 0 -25 -12t-9 -31z" />
    <glyph glyph-name="hungarumlaut" unicode="&#x2dd;" horiz-adv-x="462" 
d="M106 512l92 138h74l-100 -138h-66zM251 512l92 138h73l-99 -138h-66z" />
    <glyph glyph-name="uni0302" unicode="&#x302;" horiz-adv-x="0" 
d="M0 595l-67 -86h-63l124 150h15l124 -150h-66z" />
    <glyph glyph-name="tildecomb" unicode="&#x303;" horiz-adv-x="0" 
d="M-82 526h-52q1 41 24 67.5t60 26.5q28 0 56.5 -23t39.5 -23q37 0 37 42h50q0 -39 -23.5 -66t-59.5 -27q-30 0 -58 23t-40 23q-16 0 -25 -12t-9 -31z" />
    <glyph glyph-name="uni0374" unicode="&#x374;" horiz-adv-x="239" 
d="M30 332l102 229h79l-113 -229h-68z" />
    <glyph glyph-name="uni0375" unicode="&#x375;" horiz-adv-x="239" 
d="M30 -107l102 229h79l-113 -229h-68z" />
    <glyph glyph-name="uni037A" unicode="&#x37a;" horiz-adv-x="400" 
d="M159 -121q0 43 10 69h61q-6 -24 -6 -50q0 -58 45 -58q16 0 26 5v-43q-20 -11 -52 -11q-42 0 -63 26t-21 62z" />
    <glyph glyph-name="uni037E" unicode="&#x37e;" horiz-adv-x="226" 
d="M66 369q0 22 15 37.5t37 15.5t37 -15.5t15 -37.5t-15 -37.5t-37 -15.5t-37 15.5t-15 37.5zM81 105h76q0 -180 -56 -270h-62q42 93 42 270z" />
    <glyph glyph-name="tonos" unicode="&#x384;" horiz-adv-x="455" 
d="M182 512l102 138h79l-111 -138h-70z" />
    <glyph glyph-name="dieresistonos" unicode="&#x385;" horiz-adv-x="504" 
d="M191 509l74 148h71l-83 -148h-62zM98 576q0 16 11.5 27.5t28.5 11.5t29 -11.5t12 -27.5t-12 -27t-29 -11t-28.5 11t-11.5 27zM338 576q0 16 12 27.5t29 11.5t28.5 -11.5t11.5 -27.5t-11.5 -27t-28.5 -11t-29 11t-12 27z" />
    <glyph glyph-name="Alphatonos" unicode="&#x386;" horiz-adv-x="645" 
d="M645 0h-104q-12 35 -45 113l-50 119h-261l-49 -117q-35 -84 -44 -115h-92q41 77 72 152l236 546h23l239 -546q40 -90 75 -152zM418 299l-103 252l-103 -252h206zM43 516l58 184h70l-65 -184h-63z" />
    <glyph glyph-name="anoteleia" unicode="&#x387;" horiz-adv-x="203" 
d="M47 344q0 22 16.5 38.5t38.5 16.5t38 -16t16 -39t-16 -39.5t-38 -16.5q-23 0 -39 16.5t-16 39.5z" />
    <glyph glyph-name="Epsilontonos" unicode="&#x388;" horiz-adv-x="533" 
d="M308 618h-80v-218h79q109 0 156 3v-74q-46 3 -156 3h-79v-264h88q124 0 169 3v-74q-45 3 -169 3h-173q4 110 4 179v328q0 118 -4 178h165q107 0 169 4v-75q-41 4 -169 4zM-33 516l58 184h70l-65 -184h-63z" />
    <glyph glyph-name="Etatonos" unicode="&#x389;" horiz-adv-x="759" 
d="M228 506v-104h374v104q0 137 -3 179h88q-4 -88 -4 -179v-362q0 -88 4 -144h-88q3 42 3 145v190h-374v-191q0 -88 4 -144h-88q3 42 3 145v361q0 138 -3 179h88q-4 -54 -4 -179zM-33 516l58 184h70l-65 -184h-63z" />
    <glyph glyph-name="Iotatonos" unicode="&#x38a;" horiz-adv-x="302" 
d="M221 506v-327q0 -117 4 -179h-89q4 62 4 179v327q0 119 -4 179h89q-4 -60 -4 -179zM-33 516l58 184h70l-65 -184h-63z" />
    <glyph glyph-name="Omicrontonos" unicode="&#x38c;" horiz-adv-x="827" 
d="M75 343q0 147 103 250.5t251 103.5t251 -103.5t103 -250.5t-103 -251t-251 -104t-251 104t-103 251zM158 343q0 -118 79 -201.5t192 -83.5t192 83.5t79 201.5t-79.5 201t-191.5 83t-191.5 -83t-79.5 -201zM-23 516l58 184h70l-65 -184h-63z" />
    <glyph glyph-name="Upsilontonos" unicode="&#x38e;" horiz-adv-x="723" 
d="M374 0q3 46 3 172v146l-159 238q-53 79 -94 129h105q17 -34 56 -94l136 -201l129 194q45 66 62 101h99q-36 -46 -98 -137l-155 -230v-146q0 -110 4 -172h-88zM-16 516l58 184h70l-65 -184h-63z" />
    <glyph glyph-name="Omegatonos" unicode="&#x38f;" horiz-adv-x="842" 
d="M173 347q0 -91 50.5 -165t128.5 -111v-71h-134q-109 0 -154 -3v72q60 -4 135 -4h60q-72 41 -120 118.5t-48 166.5q0 145 98.5 244.5t244.5 99.5t245.5 -99t99.5 -245q0 -90 -48.5 -166.5t-120.5 -118.5h50q83 0 145 4v-72q-47 3 -163 3h-125v71q73 34 126 109.5t53 166.5
q0 115 -76 196.5t-186 81.5q-111 0 -186 -81t-75 -197zM-23 516l58 184h70l-65 -184h-63z" />
    <glyph glyph-name="iotadieresistonos" unicode="&#x390;" horiz-adv-x="221" 
d="M144 346v-232q0 -64 24 -64q19 0 24 5v-49q-26 -17 -56 -17q-38 0 -53.5 30.5t-15.5 96.5v232q0 65 -3 101h84q-4 -46 -4 -103zM51 509l74 148h71l-83 -148h-62zM-42 576q0 16 11.5 27.5t28.5 11.5t29 -11.5t12 -27.5t-12 -27t-29 -11t-28.5 11t-11.5 27zM198 576
q0 16 12 27.5t29 11.5t28.5 -11.5t11.5 -27.5t-11.5 -27t-28.5 -11t-29 11t-12 27z" />
    <glyph glyph-name="Alpha" unicode="&#x391;" horiz-adv-x="645" 
d="M645 0h-104q-12 35 -45 113l-50 119h-261l-49 -117q-35 -84 -44 -115h-92q41 77 72 152l236 546h23l239 -546q40 -90 75 -152zM418 299l-103 252l-103 -252h206z" />
    <glyph glyph-name="Beta" unicode="&#x392;" horiz-adv-x="513" 
d="M71 0q5 52 5 179v314q0 152 -4 192h148q92 0 143 -47t51 -115q0 -48 -25 -85t-60 -50q62 -18 99.5 -68t37.5 -117q0 -87 -63.5 -145t-170.5 -58h-161zM384 205q0 64 -41.5 103t-105.5 39h-80v-281h69q69 0 113.5 38.5t44.5 100.5zM157 622v-215h77q42 0 70.5 30.5
t28.5 76.5q0 48 -34 78t-86 30h-56z" />
    <glyph glyph-name="Gamma" unicode="&#x393;" horiz-adv-x="457" 
d="M72 0q4 62 4 179v327q0 119 -4 179h212q70 0 148 5v-78q-62 4 -148 4h-127v-437q0 -86 3 -179h-88z" />
    <glyph glyph-name="uni0394" unicode="&#x394;" horiz-adv-x="622" 
d="M622 0h-622q23 39 72 152l230 551h16l234 -551q31 -73 70 -152zM305 549l-187 -480h378z" />
    <glyph glyph-name="Epsilon" unicode="&#x395;" horiz-adv-x="461" 
d="M237 618h-80v-218h79q110 0 156 3v-74q-47 3 -156 3h-79v-264h88q124 0 169 3v-74q-45 3 -169 3h-173q4 110 4 179v328q0 118 -4 178h165q107 0 169 4v-75q-41 4 -169 4z" />
    <glyph glyph-name="Zeta" unicode="&#x396;" horiz-adv-x="543" 
d="M420 534l-270 -466h198q119 0 165 3v-74q-46 3 -165 3h-324q29 44 91 152l269 466h-174q-129 0 -170 -4v74q46 -3 170 -3h299q-38 -59 -89 -151z" />
    <glyph glyph-name="Eta" unicode="&#x397;" horiz-adv-x="689" 
d="M157 506v-104h374v104q0 137 -3 179h88q-4 -88 -4 -179v-362q0 -88 4 -144h-88q3 42 3 145v190h-374v-191q0 -88 4 -144h-88q3 42 3 145v361q0 138 -3 179h88q-4 -54 -4 -179z" />
    <glyph glyph-name="Theta" unicode="&#x398;" horiz-adv-x="796" 
d="M332 377h135q63 0 103 4v-74q-33 3 -103 3h-135q-68 0 -102 -3v74q46 -4 102 -4zM44 343q0 147 103 250.5t251 103.5t251 -103.5t103 -250.5t-103 -251t-251 -104t-251 104t-103 251zM127 343q0 -118 79 -201.5t192 -83.5t192 83.5t79 201.5t-79.5 201t-191.5 83
t-191.5 -83t-79.5 -201z" />
    <glyph glyph-name="Iota" unicode="&#x399;" horiz-adv-x="241" 
d="M161 506v-327q0 -117 4 -179h-89q4 62 4 179v327q0 119 -4 179h89q-4 -60 -4 -179z" />
    <glyph glyph-name="Kappa" unicode="&#x39a;" horiz-adv-x="575" 
d="M157 506v-146l185 212q64 76 91 113h100q-44 -44 -110 -119l-186 -211l229 -245q21 -23 40 -42.5t40 -39.5t29 -28h-121q-34 47 -68 83l-229 248v-152q0 -86 3 -179h-88q4 62 4 179v327q0 119 -4 179h88q-3 -90 -3 -179z" />
    <glyph glyph-name="Lambda" unicode="&#x39b;" horiz-adv-x="641" 
d="M488 125q-29 72 -87 209.5t-86 205.5q-78 -180 -178 -428q-30 -75 -42 -112h-95q31 52 72 152l238 556h18l238 -556q49 -111 75 -152h-107q-10 33 -46 125z" />
    <glyph glyph-name="Mu" unicode="&#x39c;" horiz-adv-x="815" 
d="M696 698l58 -538q11 -100 24 -160h-95q0 36 -9 136l-34 366l-224 -511h-20l-221 510l-44 -357q-12 -100 -13 -144h-87q9 39 28 181l72 517h21l259 -571l262 571h23z" />
    <glyph glyph-name="Nu" unicode="&#x39d;" horiz-adv-x="697" 
d="M153 144q0 -88 4 -144h-85q4 56 4 145v362q0 85 -4 193h19q29 -36 82 -95l370 -440v341q0 53 -3 179h84q-3 -66 -3 -179v-373q0 -87 3 -145h-18q-28 36 -74 89l-377 448z" />
    <glyph glyph-name="Xi" unicode="&#x39e;" horiz-adv-x="523" 
d="M47 -4v80q43 -4 130 -4h157q81 0 141 4v-80q-60 4 -141 4h-158q-73 0 -129 -4zM328 614h-136q-78 0 -137 -4v79q59 -4 137 -4h136q65 0 139 6v-81q-56 4 -139 4zM76 325v79q41 -3 118 -3h130q20 0 42.5 0.5t46 2t33.5 1.5v-80q-64 4 -122 4h-130q-65 0 -118 -4z" />
    <glyph glyph-name="Omicron" unicode="&#x39f;" horiz-adv-x="796" 
d="M44 343q0 147 103 250.5t251 103.5t251 -103.5t103 -250.5t-103 -251t-251 -104t-251 104t-103 251zM127 343q0 -118 79 -201.5t192 -83.5t192 83.5t79 201.5t-79.5 201t-191.5 83t-191.5 -83t-79.5 -201z" />
    <glyph glyph-name="Pi" unicode="&#x3a0;" horiz-adv-x="654" 
d="M72 685h509q-3 -31 -3 -141v-363q0 -119 4 -181h-89q3 34 3 181v436h-338v-438q0 -133 3 -179h-88q3 46 3 179v328q0 104 -4 178z" />
    <glyph glyph-name="Rho" unicode="&#x3a1;" horiz-adv-x="486" 
d="M157 269v-90q0 -117 4 -179h-88q3 46 3 179v347q0 114 -3 159h153q104 0 164.5 -58.5t60.5 -149.5q0 -90 -63.5 -149t-163.5 -59h-67zM157 622v-291h61q65 0 108 44.5t43 102.5q0 60 -41 102t-111 42h-60z" />
    <glyph glyph-name="Sigma" unicode="&#x3a3;" horiz-adv-x="559" 
d="M14 0v13q56 61 89 99l196 235l-191 225q-50 61 -86 101v12h361q82 0 127 3v-74q-60 4 -129 4h-221l225 -268l-236 -282h255q82 0 129 3v-74q-47 3 -127 3h-392z" />
    <glyph glyph-name="Tau" unicode="&#x3a4;" horiz-adv-x="617" 
d="M195 685h225q126 0 173 3v-74q-62 4 -173 4h-70q-1 -37 -1 -129v-310q0 -138 4 -179h-89q3 46 3 179v310q0 73 -3 129h-69q-109 0 -171 -4v74q47 -3 171 -3z" />
    <glyph glyph-name="Upsilon" unicode="&#x3a5;" horiz-adv-x="587" 
d="M250 0q3 46 3 172v146l-159 238q-53 79 -94 129h105q17 -34 56 -94l136 -201l129 194q45 66 62 101h99q-36 -46 -98 -137l-155 -230v-146q0 -110 4 -172h-88z" />
    <glyph glyph-name="Phi" unicode="&#x3a6;" horiz-adv-x="743" 
d="M43 345q0 126 80.5 209.5t209.5 94.5q0 41 -3 68h81l-3 -68q129 -11 210.5 -94.5t81.5 -209.5q0 -124 -81.5 -208t-210.5 -96l3 -68h-81q3 29 3 68q-128 12 -209 96t-81 208zM619 345q0 96 -58.5 160.5t-152.5 75.5v-472q94 11 152.5 75.5t58.5 160.5zM123 345
q0 -96 58 -160.5t153 -75.5v472q-95 -11 -153 -75.5t-58 -160.5z" />
    <glyph glyph-name="Chi" unicode="&#x3a7;" horiz-adv-x="525" 
d="M353 118l-94 160l-102 -173q-41 -71 -57 -105h-99q44 59 98 145l120 198l-117 192q-55 93 -99 150h105q27 -54 64 -114l92 -156l92 157q15 26 36.5 65t26.5 48h98q-38 -49 -98 -147l-115 -188l118 -195q59 -95 104 -155h-105q-59 104 -68 118z" />
    <glyph glyph-name="Psi" unicode="&#x3a8;" horiz-adv-x="676" 
d="M122 685q7 -48 7 -174q0 -84 49.5 -141t121.5 -67v218q0 124 -4 164h85q-3 -45 -3 -164v-219q72 12 121 69t49 140q0 88 7 174h85q-15 -67 -15 -174q0 -115 -71.5 -191t-175.5 -87v-60q0 -127 3 -173h-85q4 62 4 173v60q-105 11 -176.5 86.5t-71.5 191.5q0 104 -13 174
h83z" />
    <glyph glyph-name="uni03A9" unicode="&#x3a9;" horiz-adv-x="817" 
d="M147 347q0 -91 50.5 -165t128.5 -111v-71h-134q-109 0 -154 -3v72q60 -4 135 -4h60q-72 41 -120 118.5t-48 166.5q0 145 98.5 244.5t244.5 99.5t245.5 -99t99.5 -245q0 -90 -48.5 -166.5t-120.5 -118.5h50q83 0 145 4v-72q-47 3 -163 3h-125v71q73 34 126 109.5t53 166.5
q0 115 -76 196.5t-186 81.5q-111 0 -186 -81t-75 -197z" />
    <glyph glyph-name="Iotadieresis" unicode="&#x3aa;" horiz-adv-x="241" 
d="M161 506v-327q0 -117 4 -179h-89q4 62 4 179v327q0 119 -4 179h89q-4 -60 -4 -179zM-20 788q0 19 13.5 32t32.5 13t32.5 -13t13.5 -32t-13.5 -32t-32.5 -13t-32.5 13t-13.5 32zM169 788q0 19 14 32t33 13t32 -13t13 -32t-13 -32t-32 -13t-33 13t-14 32z" />
    <glyph glyph-name="Upsilondieresis" unicode="&#x3ab;" horiz-adv-x="587" 
d="M250 0q3 46 3 172v146l-159 238q-53 79 -94 129h105q17 -34 56 -94l136 -201l129 194q45 66 62 101h99q-36 -46 -98 -137l-155 -230v-146q0 -110 4 -172h-88zM152 788q0 19 13.5 32t32.5 13t32.5 -13t13.5 -32t-13.5 -32t-32.5 -13t-32.5 13t-13.5 32zM341 788
q0 19 14 32t33 13t32 -13t13 -32t-13 -32t-32 -13t-33 13t-14 32z" />
    <glyph glyph-name="alphatonos" unicode="&#x3ac;" horiz-adv-x="538" 
d="M399 449h74q-14 -94 -14 -184v-127q-1 -48 9 -66.5t30 -18.5q9 0 21 5v-55q-25 -14 -54 -14q-36 0 -51.5 25t-20.5 81q-50 -106 -155 -106q-84 0 -140.5 68.5t-56.5 165.5q0 98 56.5 166t141.5 68q104 0 151 -104q1 39 9 96zM388 223q0 71 -38 119.5t-94 48.5
q-57 0 -96.5 -49t-39.5 -119t40 -119.5t98 -49.5q54 0 92 48.5t38 120.5zM214 512l102 138h79l-111 -138h-70z" />
    <glyph glyph-name="epsilontonos" unicode="&#x3ad;" horiz-adv-x="387" 
d="M217 200q-49 0 -77 -18.5t-28 -50.5q0 -33 27 -53t74 -20q83 0 140 49v-76q-2 -1 -31.5 -13.5t-58.5 -19t-65 -6.5q-70 0 -116 36t-46 95q0 43 27 70t64 39q-80 29 -80 102q0 54 43.5 88.5t117.5 34.5q46 0 85.5 -14t44.5 -15v-85q-45 49 -122 49q-45 0 -69.5 -17.5
t-24.5 -45.5q0 -32 28 -49t74 -17q48 0 63 4v-71q-24 4 -70 4zM166 512l102 138h79l-111 -138h-70z" />
    <glyph glyph-name="etatonos" unicode="&#x3ae;" horiz-adv-x="504" 
d="M359 273q0 60 -27 90t-73 30t-79.5 -38.5t-33.5 -96.5v-155q0 -64 4 -103h-85q4 39 4 103v267q0 49 -3 79h76q3 -19 3 -55v-23q17 37 53.5 61.5t83.5 24.5q75 0 114.5 -47t39.5 -137v-530h-84q7 61 7 129v401zM220 512l102 138h79l-111 -138h-70z" />
    <glyph glyph-name="iotatonos" unicode="&#x3af;" horiz-adv-x="221" 
d="M144 346v-232q0 -64 24 -64q19 0 24 5v-49q-26 -17 -56 -17q-38 0 -53.5 30.5t-15.5 96.5v232q0 65 -3 101h84q-4 -46 -4 -103zM67 512l102 138h79l-111 -138h-70z" />
    <glyph glyph-name="upsilondieresistonos" unicode="&#x3b0;" horiz-adv-x="499" 
d="M146 348l-5 -177q-1 -53 29.5 -84t74.5 -31q63 0 96.5 53t33.5 141q0 106 -52 199h80q49 -90 49 -199q0 -117 -55 -187.5t-152 -70.5q-78 0 -130.5 48t-50.5 127l4 180q2 55 -4 102h77q7 -46 5 -101zM186 509l74 148h71l-83 -148h-62zM93 576q0 16 11.5 27.5t28.5 11.5
t29 -11.5t12 -27.5t-12 -27t-29 -11t-28.5 11t-11.5 27zM333 576q0 16 12 27.5t29 11.5t28.5 -11.5t11.5 -27.5t-11.5 -27t-28.5 -11t-29 11t-12 27z" />
    <glyph glyph-name="alpha" unicode="&#x3b1;" horiz-adv-x="538" 
d="M399 449h74q-14 -94 -14 -184v-127q-1 -48 9 -66.5t30 -18.5q9 0 21 5v-55q-25 -14 -54 -14q-36 0 -51.5 25t-20.5 81q-50 -106 -155 -106q-84 0 -140.5 68.5t-56.5 165.5q0 98 56.5 166t141.5 68q104 0 151 -104q1 39 9 96zM388 223q0 71 -38 119.5t-94 48.5
q-57 0 -96.5 -49t-39.5 -119t40 -119.5t98 -49.5q54 0 92 48.5t38 120.5z" />
    <glyph glyph-name="beta" unicode="&#x3b2;" horiz-adv-x="549" 
d="M269 -10q-71 0 -126 32q0 -43 2.5 -134.5t3.5 -146.5h-79v776q0 103 57 160t138 57q77 0 125.5 -46.5t48.5 -116.5q0 -64 -35 -109t-88 -62q83 -8 134.5 -63t51.5 -132q0 -92 -65.5 -153.5t-167.5 -61.5zM267 348q-31 0 -55 -3v68q62 2 108 45t46 105q0 47 -29.5 76
t-73.5 29q-49 0 -81.5 -38t-32.5 -111v-426q48 -38 120 -38q65 0 110 43.5t45 105.5q0 64 -46.5 104t-110.5 40z" />
    <glyph glyph-name="gamma" unicode="&#x3b3;" horiz-adv-x="508" 
d="M390 449h78q-23 -134 -63 -227.5t-121 -220.5q-6 -71 -41 -258h-82q48 161 48 260q0 133 -134 348q-39 62 -75 98h107q146 -238 156 -369q84 135 118 308q8 37 9 61z" />
    <glyph glyph-name="delta" unicode="&#x3b4;" horiz-adv-x="512" 
d="M39 212q0 87 60 146t142 57q-80 61 -133 120.5t-53 101.5q0 50 49 76.5t124 26.5q19 0 37.5 -2t33 -4t32.5 -7t28 -7.5t28 -9.5t23.5 -9.5t23 -10t19.5 -8.5v-84q-44 37 -102.5 58.5t-116.5 21.5q-43 0 -70.5 -13t-27.5 -39q0 -31 61.5 -88.5t139.5 -113.5
q70 -51 103 -99t33 -113q0 -91 -63.5 -154.5t-153.5 -63.5q-91 0 -154 63t-63 155zM117 213q0 -62 40.5 -106.5t98.5 -44.5t98 44.5t40 106.5t-40 106.5t-98 44.5t-98.5 -44.5t-40.5 -106.5z" />
    <glyph glyph-name="epsilon" unicode="&#x3b5;" horiz-adv-x="387" 
d="M217 200q-49 0 -77 -18.5t-28 -50.5q0 -33 27 -53t74 -20q83 0 140 49v-76q-2 -1 -31.5 -13.5t-58.5 -19t-65 -6.5q-70 0 -116 36t-46 95q0 43 27 70t64 39q-80 29 -80 102q0 54 43.5 88.5t117.5 34.5q46 0 85.5 -14t44.5 -15v-85q-45 49 -122 49q-45 0 -69.5 -17.5
t-24.5 -45.5q0 -32 28 -49t74 -17q48 0 63 4v-71q-24 4 -70 4z" />
    <glyph glyph-name="zeta" unicode="&#x3b6;" horiz-adv-x="390" 
d="M371 732v-67q-252 -254 -252 -433q0 -47 10 -77t32 -45.5t43 -22.5t55 -14q8 -1 12 -2q58 -13 86 -39t28 -78q0 -68 -52 -158h-71q51 80 51 139q0 51 -67 64q-37 8 -57 13t-47.5 16t-42 25t-29 35.5t-20.5 53.5t-6 74q0 188 227 427q-159 0 -193 6v66q49 -14 153 -14h101
q22 19 39 31z" />
    <glyph glyph-name="eta" unicode="&#x3b7;" horiz-adv-x="504" 
d="M359 273q0 60 -27 90t-73 30t-79.5 -38.5t-33.5 -96.5v-155q0 -64 4 -103h-85q4 39 4 103v267q0 49 -3 79h76q3 -19 3 -55v-23q17 37 53.5 61.5t83.5 24.5q75 0 114.5 -47t39.5 -137v-530h-84q7 61 7 129v401z" />
    <glyph glyph-name="theta" unicode="&#x3b8;" horiz-adv-x="522" 
d="M50 358q0 158 57 262t153 104q97 0 154.5 -104t57.5 -262t-57.5 -261.5t-154.5 -103.5q-96 0 -153 103.5t-57 261.5zM260 656q-60 0 -95.5 -74t-40.5 -194h273q-4 120 -40 194t-97 74zM260 60q61 0 96.5 72.5t40.5 192.5h-272q5 -119 40.5 -192t94.5 -73z" />
    <glyph glyph-name="iota" unicode="&#x3b9;" horiz-adv-x="221" 
d="M144 346v-232q0 -64 24 -64q19 0 24 5v-49q-26 -17 -56 -17q-38 0 -53.5 30.5t-15.5 96.5v232q0 65 -3 101h84q-4 -46 -4 -103z" />
    <glyph glyph-name="kappa" unicode="&#x3ba;" horiz-adv-x="463" 
d="M151 340v-113q87 116 130 159q39 41 62.5 56t54.5 15q30 0 49 -17q-38 -13 -102 -77q-56 -57 -113 -129l131 -138q53 -59 100 -96h-110q-10 15 -59 71l-143 152v-120q0 -73 3 -103h-83q3 33 3 103v237q0 63 -4 109h78q3 -34 3 -109z" />
    <glyph glyph-name="lambda" unicode="&#x3bb;" horiz-adv-x="461" 
d="M-35 657v69q7 2 20.5 6.5t25.5 6.5t30 2q64 0 107.5 -46.5t86.5 -154.5l169 -419q29 -73 55 -121h-101q-7 39 -26 91l-99 257l-130 -305q-12 -27 -17 -43h-84q20 29 33 56l165 371l-37 94q-32 83 -64 117t-75 34q-29 0 -59 -15z" />
    <glyph glyph-name="uni03BC" unicode="&#x3bc;" 
d="M146 179q2 -122 106 -122q48 0 77 38.5t29 88.5v162q0 64 -4 103h84q-3 -44 -3 -103v-231q0 -37 5.5 -51t20.5 -14q16 0 21 5v-49q-28 -17 -57 -17q-28 0 -43 19.5t-18 71.5q-40 -88 -125 -88q-71 0 -106 53q10 -63 10 -207q0 -37 3 -97h-80q3 33 3 103v504q0 61 -4 101
h84q-3 -44 -3 -103v-167z" />
    <glyph glyph-name="nu" unicode="&#x3bd;" horiz-adv-x="446" 
d="M128 361l98 -259q103 138 103 258q0 54 -16 89h83q-1 -8 2.5 -35t3.5 -53q0 -155 -184 -375h-15l-151 359q-33 75 -51 104h101q8 -39 26 -88z" />
    <glyph glyph-name="xi" unicode="&#x3be;" horiz-adv-x="427" 
d="M345 -204h-71q50 86 50 139q0 33 -23 46.5t-71 17.5q-37 4 -65.5 12.5t-55 26t-40.5 49.5t-14 78q0 64 40 114.5t103 71.5q-55 18 -88.5 60.5t-33.5 104.5q0 77 57.5 128t140.5 52q28 1 58.5 -3.5t38.5 -4.5v-69q-44 16 -85 15q-57 -1 -96 -37t-39 -86q0 -53 39 -90
t93 -37q44 0 73 13v-66q-60 0 -99 -11q-57 -16 -92 -55.5t-35 -89.5q0 -96 129 -109q68 -7 102.5 -30t34.5 -86q0 -13 -1.5 -26.5t-5.5 -26.5t-7 -23t-9.5 -23.5t-9.5 -19.5t-10 -19.5t-8 -15.5z" />
    <glyph glyph-name="omicron" unicode="&#x3bf;" horiz-adv-x="541" 
d="M39 224q0 97 68 165t163 68q96 0 164 -68t68 -165q0 -96 -68 -163.5t-164 -67.5q-95 0 -163 67.5t-68 163.5zM114 224q0 -68 45.5 -115.5t110.5 -47.5t111 47.5t46 115.5t-46 116.5t-111 48.5t-110.5 -48.5t-45.5 -116.5z" />
    <glyph glyph-name="pi" unicode="&#x3c0;" horiz-adv-x="567" 
d="M545 452v-69q-20 1 -63 1h-46q-7 -168 -7 -235q0 -102 13 -149h-82q-6 38 -6 139q0 149 6 245h-137l-19 -384h-73l19 384q-100 0 -129 -8v61q35 12 122 12h341q31 0 61 3z" />
    <glyph glyph-name="rho" unicode="&#x3c1;" horiz-adv-x="537" 
d="M285 -7q-94 0 -148 59v-155q0 -109 16 -154h-81q-13 40 -13 150v313q0 119 59.5 185t159.5 66q95 0 157 -67.5t62 -165.5q0 -96 -61 -163.5t-151 -67.5zM137 209v-85q51 -64 140 -64q60 0 101.5 48t41.5 116q0 69 -40.5 117t-101.5 48q-65 0 -103 -47t-38 -133z" />
    <glyph glyph-name="uni03C2" unicode="&#x3c2;" horiz-adv-x="418" 
d="M115 228q0 -124 151 -158q67 -15 91.5 -41.5t24.5 -78.5q0 -59 -47 -138h-71q45 76 45 118q0 29 -17 46t-63 28q-40 9 -71 23t-60 38t-44.5 63.5t-15.5 91.5q0 100 68 168.5t166 68.5q23 0 60 -6t43 -7v-87q-40 32 -103 32q-68 0 -112.5 -46.5t-44.5 -114.5z" />
    <glyph glyph-name="sigma" unicode="&#x3c3;" horiz-adv-x="574" 
d="M266 451h161q77 0 116 4v-68q-39 -4 -116 -4h-43q85 -62 85 -162q0 -94 -63.5 -161t-153.5 -67t-152 68t-62 164q0 98 61 162t167 64zM393 226q0 45 -26 87t-66 70h-46q-60 0 -101 -45.5t-41 -111.5q0 -69 40.5 -117t98.5 -48q59 0 100 48t41 117z" />
    <glyph glyph-name="tau" unicode="&#x3c4;" horiz-adv-x="439" 
d="M421 452v-70q-20 2 -72 2h-94q-7 -168 -7 -274q0 -26 3.5 -40.5t8 -18t11.5 -3.5q12 0 19 4v-51q-24 -12 -48 -12q-38 0 -54.5 27t-16.5 92q0 132 6 276h-25q-105 0 -134 -9v61q33 13 122 13h209q41 0 72 3z" />
    <glyph glyph-name="upsilon" unicode="&#x3c5;" horiz-adv-x="499" 
d="M146 348l-5 -177q-1 -53 29.5 -84t74.5 -31q63 0 96.5 53t33.5 141q0 106 -52 199h80q49 -90 49 -199q0 -117 -55 -187.5t-152 -70.5q-78 0 -130.5 48t-50.5 127l4 180q2 55 -4 102h77q7 -46 5 -101z" />
    <glyph glyph-name="phi" unicode="&#x3c6;" horiz-adv-x="633" 
d="M38 231q0 103 69 166.5t175 72.5v71q0 80 -3 104h74q-2 -24 -2 -104l-1 -71q106 -9 175.5 -73t69.5 -166q0 -103 -70 -167t-175 -71l1 -111q0 -70 3 -104h-75q3 34 3 104v111q-107 8 -175.5 71.5t-68.5 166.5zM519 231q0 76 -49 122t-120 49v-343q71 4 120 50t49 122z
M113 231q0 -77 49 -122.5t120 -49.5v343q-71 -3 -120 -49t-49 -122z" />
    <glyph glyph-name="chi" unicode="&#x3c7;" horiz-adv-x="450" 
d="M289 -119l-68 138l-77 -157q-47 -93 -56 -119h-91q42 64 91 160l99 193l-93 183q-53 107 -91 170h96q20 -54 56 -126l75 -147l72 148q40 78 58 125h88q-27 -42 -82 -147l-101 -201l83 -167q64 -129 101 -191h-97q-14 37 -63 138z" />
    <glyph glyph-name="psi" unicode="&#x3c8;" horiz-adv-x="653" 
d="M361 437v-376q54 11 89 51t50 125q32 209 33 212h85q-10 -32 -17 -69t-14 -86t-10 -64q-19 -111 -72 -168.5t-144 -67.5v-85q0 -59 4 -97h-74q2 42 2 97v85q-91 9 -144 65t-71 169q-22 159 -41 221h84q3 -13 34 -212q14 -87 48.5 -126t89.5 -50v376q0 59 -2 103h74
q-4 -44 -4 -103z" />
    <glyph glyph-name="omega" unicode="&#x3c9;" horiz-adv-x="712" 
d="M393 261v-77q0 -58 24.5 -91t64.5 -33q47 0 77 47.5t30 112.5q0 120 -91 229h90q23 -34 36.5 -59t28 -73.5t14.5 -99.5q0 -95 -49 -160.5t-131 -65.5q-102 0 -132 102q-13 -45 -46.5 -73.5t-87.5 -28.5q-80 0 -127.5 62t-47.5 162q0 125 82 234h86q-91 -105 -91 -229
q0 -70 29.5 -115t76.5 -45q40 0 65 33t25 90v78q0 53 -2 77h79q-3 -37 -3 -77z" />
    <glyph glyph-name="iotadieresis" unicode="&#x3ca;" horiz-adv-x="221" 
d="M144 346v-232q0 -64 24 -64q19 0 24 5v-49q-26 -17 -56 -17q-38 0 -53.5 30.5t-15.5 96.5v232q0 65 -3 101h84q-4 -46 -4 -103zM-29 586q0 18 12.5 30t30.5 12q17 0 29.5 -12t12.5 -30q0 -17 -12.5 -29.5t-29.5 -12.5t-30 12.5t-13 29.5zM158 586q0 18 12.5 30t30.5 12
q17 0 29 -12t12 -30q0 -17 -12 -29.5t-29 -12.5q-18 0 -30.5 12.5t-12.5 29.5z" />
    <glyph glyph-name="upsilondieresis" unicode="&#x3cb;" horiz-adv-x="499" 
d="M146 348l-5 -177q-1 -53 29.5 -84t74.5 -31q63 0 96.5 53t33.5 141q0 106 -52 199h80q49 -90 49 -199q0 -117 -55 -187.5t-152 -70.5q-78 0 -130.5 48t-50.5 127l4 180q2 55 -4 102h77q7 -46 5 -101zM105 586q0 18 12.5 30t30.5 12q17 0 29.5 -12t12.5 -30
q0 -17 -12.5 -29.5t-29.5 -12.5t-30 12.5t-13 29.5zM292 586q0 18 12.5 30t30.5 12q17 0 29 -12t12 -30q0 -17 -12 -29.5t-29 -12.5q-18 0 -30.5 12.5t-12.5 29.5z" />
    <glyph glyph-name="omicrontonos" unicode="&#x3cc;" horiz-adv-x="541" 
d="M39 224q0 97 68 165t163 68q96 0 164 -68t68 -165q0 -96 -68 -163.5t-164 -67.5q-95 0 -163 67.5t-68 163.5zM114 224q0 -68 45.5 -115.5t110.5 -47.5t111 47.5t46 115.5t-46 116.5t-111 48.5t-110.5 -48.5t-45.5 -116.5zM226 512l102 138h79l-111 -138h-70z" />
    <glyph glyph-name="upsilontonos" unicode="&#x3cd;" horiz-adv-x="499" 
d="M146 348l-5 -177q-1 -53 29.5 -84t74.5 -31q63 0 96.5 53t33.5 141q0 106 -52 199h80q49 -90 49 -199q0 -117 -55 -187.5t-152 -70.5q-78 0 -130.5 48t-50.5 127l4 180q2 55 -4 102h77q7 -46 5 -101zM199 512l102 138h79l-111 -138h-70z" />
    <glyph glyph-name="omegatonos" unicode="&#x3ce;" horiz-adv-x="712" 
d="M393 261v-77q0 -58 24.5 -91t64.5 -33q47 0 77 47.5t30 112.5q0 120 -91 229h90q23 -34 36.5 -59t28 -73.5t14.5 -99.5q0 -95 -49 -160.5t-131 -65.5q-102 0 -132 102q-13 -45 -46.5 -73.5t-87.5 -28.5q-80 0 -127.5 62t-47.5 162q0 125 82 234h86q-91 -105 -91 -229
q0 -70 29.5 -115t76.5 -45q40 0 65 33t25 90v78q0 53 -2 77h79q-3 -37 -3 -77zM319 512l102 138h79l-111 -138h-70z" />
    <glyph glyph-name="uni03D1" unicode="&#x3d1;" horiz-adv-x="483" 
d="M30 212h83q7 -13 20 -42t21 -44t21.5 -33.5t29 -27t34.5 -8.5q53 0 87 69t39 165q-153 4 -236.5 71t-83.5 170q0 75 54 133.5t131 58.5q102 0 158 -95.5t56 -260.5q0 -167 -56 -272t-153 -105q-34 0 -60.5 12.5t-47.5 38t-34 48.5t-32 62.5t-31 59.5zM367 357
q3 131 -33.5 217t-106.5 86q-46 0 -76 -38t-30 -87q0 -75 65 -125t181 -53z" />
    <glyph glyph-name="uni03D7" unicode="&#x3d7;" horiz-adv-x="542" 
d="M151 340v-111q93 116 115 141q77 87 129 87q32 0 52 -17q-38 -11 -101 -74q-59 -61 -114 -132l114 -130q44 -52 93 -52q45 0 82 30v-83q-17 -11 -58 -47t-77 -64.5t-96.5 -53t-124.5 -24.5q-133 0 -218 97v125q72 -149 218 -149q45 0 89.5 15.5t71.5 34t54.5 39
t37.5 24.5q-72 -9 -138 74l-129 152v-119q0 -73 3 -103h-83q3 33 3 103v237q0 63 -4 109h78q3 -34 3 -109z" />
    <glyph glyph-name="uni03D9" unicode="&#x3d9;" horiz-adv-x="539" 
d="M37 224q0 97 68 165t163 68q96 0 164 -68t68 -165q0 -86 -55.5 -150t-137.5 -78v-64q0 -42 3 -87h-82q2 60 2 87v64q-82 14 -137.5 78t-55.5 150zM112 224q0 -68 45.5 -115.5t110.5 -47.5t111 47.5t46 115.5t-46 116.5t-111 48.5t-110.5 -48.5t-45.5 -116.5z" />
    <glyph glyph-name="uni03DB" unicode="&#x3db;" horiz-adv-x="417" 
d="M118 226q0 -125 148 -154q62 -14 90 -40.5t28 -83.5q0 -49 -47 -136h-71q44 66 44 117q0 31 -20.5 49t-64.5 28q-185 38 -185 215q0 95 57.5 157.5t155.5 77.5q41 6 55 22.5t14 68.5h68q0 -80 -26 -112.5t-88 -42.5q-76 -11 -117 -55t-41 -111z" />
    <glyph glyph-name="uni03DD" unicode="&#x3dd;" horiz-adv-x="469" 
d="M63 -155q11 38 11 132v338q0 87 -3 134h150q92 0 154 4v-74q-47 3 -154 3h-66v-187h75q70 0 117 3v-72q-31 2 -117 2h-75v-152q0 -79 -5 -131h-87z" />
    <glyph glyph-name="uni03E1" unicode="&#x3e1;" horiz-adv-x="563" 
d="M166 417l153 75q-52 68 -116 110.5t-118 43.5l89 42q69 -19 152 -96.5t139 -195.5q54 -113 66.5 -222t-17.5 -189l-88 -40q32 53 36 135t-13 147l-160 -78q-60 -28 -101 -51l-30 63q13 5 102 46l172 84q-34 85 -74 146l-166 -79q-84 -42 -99 -51l-29 64q16 5 102 46z" />
    <glyph glyph-name="uni0400" unicode="&#x400;" horiz-adv-x="461" 
d="M237 618h-80v-218h79q110 0 156 3v-74q-47 3 -156 3h-79v-264h88q124 0 169 3v-74q-45 3 -169 3h-173q4 110 4 179v328q0 118 -4 178h165q107 0 169 4v-75q-41 4 -169 4zM158 847l129 -112h-80l-146 112h97z" />
    <glyph glyph-name="uni0401" unicode="&#x401;" horiz-adv-x="461" 
d="M237 618h-80v-218h79q110 0 156 3v-74q-47 3 -156 3h-79v-264h88q124 0 169 3v-74q-45 3 -169 3h-173q4 110 4 179v328q0 118 -4 178h165q107 0 169 4v-75q-41 4 -169 4zM98 788q0 19 13.5 32t32.5 13t32.5 -13t13.5 -32t-13.5 -32t-32.5 -13t-32.5 13t-13.5 32zM287 788
q0 19 14 32t33 13t32 -13t13 -32t-13 -32t-32 -13t-33 13t-14 32z" />
    <glyph glyph-name="uni0402" unicode="&#x402;" horiz-adv-x="695" 
d="M568 179q0 70 -41 120.5t-116 50.5q-63 0 -109 -25v-152q0 -132 4 -173h-89q4 62 4 179v439h-55q-87 0 -147 -4v74q45 -3 147 -3h268q107 0 152 3v-74q-60 4 -154 4h-130v-226q47 27 121 27q112 0 170 -70t58 -165q0 -111 -73 -186t-188 -105v75q78 24 128 76t50 135z
" />
    <glyph glyph-name="uni0403" unicode="&#x403;" horiz-adv-x="457" 
d="M72 0q4 62 4 179v327q0 119 -4 179h212q70 0 148 5v-78q-62 4 -148 4h-127v-437q0 -86 3 -179h-88zM201 735l128 112h97l-146 -112h-79z" />
    <glyph glyph-name="uni0404" unicode="&#x404;" horiz-adv-x="647" 
d="M350 319h-221q5 -115 81 -187t201 -72q122 0 186 50v-91q-98 -30 -188 -30q-169 0 -267 97t-98 257q0 157 99 255.5t266 98.5q30 0 58.5 -3t43 -6t42.5 -9.5t36 -8.5v-97q-61 52 -178 52q-123 0 -197 -67t-82 -172h218q130 0 175 3v-73q-45 3 -175 3z" />
    <glyph glyph-name="uni0405" unicode="&#x405;" horiz-adv-x="483" 
d="M159 525q0 -40 28 -71.5t67.5 -56t79 -51t67.5 -69t28 -97.5q0 -87 -57.5 -141t-154.5 -54q-32 0 -60 4.5t-58.5 12.5t-47.5 11v114q19 -32 67.5 -54.5t98.5 -22.5q58 0 90.5 33t32.5 87q0 40 -27.5 72.5t-67 56.5t-79 50.5t-67 68.5t-27.5 97q0 86 55 135t147 49
q32 0 78 -12t60 -14v-108q-14 32 -52 51.5t-82 19.5q-55 0 -87 -29t-32 -82z" />
    <glyph glyph-name="uni0406" unicode="&#x406;" horiz-adv-x="241" 
d="M161 506v-327q0 -117 4 -179h-89q4 62 4 179v327q0 119 -4 179h89q-4 -60 -4 -179z" />
    <glyph glyph-name="uni0407" unicode="&#x407;" horiz-adv-x="241" 
d="M161 506v-327q0 -117 4 -179h-89q4 62 4 179v327q0 119 -4 179h89q-4 -60 -4 -179zM-20 788q0 19 13.5 32t32.5 13t32.5 -13t13.5 -32t-13.5 -32t-32.5 -13t-32.5 13t-13.5 32zM169 788q0 19 14 32t33 13t32 -13t13 -32t-13 -32t-32 -13t-33 13t-14 32z" />
    <glyph glyph-name="uni0408" unicode="&#x408;" horiz-adv-x="239" 
d="M161 506v-509q0 -90 -50.5 -142t-128.5 -52q-19 0 -48.5 6.5t-35.5 7.5v90q27 -34 80 -34q43 0 72.5 34.5t29.5 89.5v509q0 89 -3 179h88q-4 -60 -4 -179z" />
    <glyph glyph-name="uni0409" unicode="&#x409;" horiz-adv-x="855" 
d="M453 125l-162 421l-159 -428q-30 -77 -40 -118h-92q22 38 67 152l219 556h24l107 -274h148q125 0 188 -55.5t63 -154.5q0 -96 -65.5 -160t-173.5 -64h-80q-12 42 -44 125zM552 370h-110l121 -306h9q68 0 114.5 45.5t46.5 114.5q0 146 -181 146z" />
    <glyph glyph-name="uni040A" unicode="&#x40a;" horiz-adv-x="911" 
d="M153 506v-104h327v104q0 109 -5 179h87q-4 -176 -4 -179v-75h66q117 0 182.5 -60t65.5 -154t-65.5 -155.5t-180.5 -61.5h-151q5 47 5 145v190h-327v-191q0 -88 4 -144h-85q4 56 4 145v361q0 125 -4 179h85q-4 -54 -4 -179zM558 363v-295h61q80 0 126 40.5t46 107.5
q0 66 -46 106.5t-126 40.5h-61z" />
    <glyph glyph-name="uni040B" unicode="&#x40b;" horiz-adv-x="712" 
d="M564 211q0 73 -36 107.5t-92 34.5q-73 0 -133 -39v-133q0 -119 4 -181h-91q6 62 6 179v439h-65q-78 0 -138 -4v75q60 -4 138 -4h273q100 0 162 4v-76q-39 5 -162 5h-127v-236q72 37 152 37q83 0 136.5 -50t53.5 -151v-113q0 -69 3 -105h-88q4 47 4 211z" />
    <glyph glyph-name="uni040C" unicode="&#x40c;" horiz-adv-x="571" 
d="M76 179v327q0 119 -4 179h88q-3 -90 -3 -179v-121h50q152 169 234 300h107q-15 -15 -46.5 -55.5t-92 -113.5t-135.5 -156q82 -97 148 -179t96.5 -120.5t52.5 -60.5h-119q-23 37 -40 62t-70.5 92.5t-140.5 169.5h-44v-145q0 -86 3 -179h-88q4 62 4 179zM223 735l128 112
h97l-146 -112h-79z" />
    <glyph glyph-name="uni040D" unicode="&#x40d;" horiz-adv-x="699" 
d="M543 144v386l-338 -411q-68 -78 -114 -138h-20q5 72 5 152v373q0 69 -5 179h90q-4 -84 -4 -179v-347l341 411q72 87 108 135h22q-4 -108 -4 -198v-362q0 -89 4 -145h-89q4 56 4 144zM284 847l129 -112h-80l-146 112h97z" />
    <glyph glyph-name="uni040E" unicode="&#x40e;" horiz-adv-x="591" 
d="M139 605l170 -317l159 322q23 53 28 75h95q-23 -39 -52 -94l-253 -505q-34 -75 -37 -86h-94q21 33 47 82l66 124l-208 377q-35 63 -60 102h102q11 -32 37 -80zM203 845q5 -36 32 -59t69 -23q43 0 70.5 23t30.5 59h67q-5 -57 -50.5 -94t-117.5 -37q-71 0 -116.5 37
t-50.5 94h66z" />
    <glyph glyph-name="uni040F" unicode="&#x40f;" horiz-adv-x="642" 
d="M570 0h-208l-8 -186h-72l-1 186h-209q4 74 4 179v327q0 104 -5 179h90q-4 -60 -4 -179v-439h328v437q0 113 -4 181h90q-5 -50 -5 -182v-362q0 -97 4 -141z" />
    <glyph glyph-name="uni0410" unicode="&#x410;" horiz-adv-x="645" 
d="M645 0h-104q-12 35 -45 113l-50 119h-261l-49 -117q-35 -84 -44 -115h-92q41 77 72 152l236 546h23l239 -546q40 -90 75 -152zM418 299l-103 252l-103 -252h206z" />
    <glyph glyph-name="uni0411" unicode="&#x411;" horiz-adv-x="515" 
d="M71 685h166q98 0 170 4v-68q-74 4 -171 3h-79v-213h92q97 0 157 -58t60 -146q0 -90 -61 -148.5t-161 -58.5h-173q5 52 5 179v326q0 110 -5 180zM157 351v-291h77q67 0 108.5 42.5t41.5 101.5q0 61 -41.5 104t-108.5 43h-77z" />
    <glyph glyph-name="uni0412" unicode="&#x412;" horiz-adv-x="513" 
d="M71 0q5 52 5 179v314q0 152 -4 192h148q92 0 143 -47t51 -115q0 -48 -25 -85t-60 -50q62 -18 99.5 -68t37.5 -117q0 -87 -63.5 -145t-170.5 -58h-161zM384 205q0 64 -41.5 103t-105.5 39h-80v-281h69q69 0 113.5 38.5t44.5 100.5zM157 622v-215h77q42 0 70.5 30.5
t28.5 76.5q0 48 -34 78t-86 30h-56z" />
    <glyph glyph-name="uni0413" unicode="&#x413;" horiz-adv-x="457" 
d="M72 0q4 62 4 179v327q0 119 -4 179h212q70 0 148 5v-78q-62 4 -148 4h-127v-437q0 -86 3 -179h-88z" />
    <glyph glyph-name="uni0414" unicode="&#x414;" horiz-adv-x="728" 
d="M710 70l-20 -256h-71l9 186h-526l1 -186h-70l-13 256q15 -2 67 -2q18 37 47 105l220 535h21l218 -535q28 -66 47 -105q54 0 70 2zM547 68l-186 489l-189 -489h375z" />
    <glyph glyph-name="uni0415" unicode="&#x415;" horiz-adv-x="461" 
d="M237 618h-80v-218h79q110 0 156 3v-74q-47 3 -156 3h-79v-264h88q124 0 169 3v-74q-45 3 -169 3h-173q4 110 4 179v328q0 118 -4 178h165q107 0 169 4v-75q-41 4 -169 4z" />
    <glyph glyph-name="uni0416" unicode="&#x416;" horiz-adv-x="878" 
d="M397 179v147h-47q-158 -193 -239 -326h-111q27 29 122.5 158.5t156.5 204.5q-59 71 -116.5 145.5t-90.5 116.5t-50 60h104q82 -131 227 -302h44v123q0 134 -3 179h88q-4 -60 -4 -179v-123h47q28 32 52.5 61.5t45 56.5t36 46.5t32 43.5t24 35t22 33t17.5 26h102
q-30 -33 -116.5 -144.5t-140.5 -176.5q83 -100 167 -217t112 -147h-113q-1 2 -36 54t-52.5 77t-59.5 81t-90 114h-49v-147q0 -117 4 -179h-88q3 46 3 179z" />
    <glyph glyph-name="uni0417" unicode="&#x417;" horiz-adv-x="490" 
d="M205 322q-46 0 -79 -5v74q15 -4 81 -4q57 0 95.5 34t38.5 90q0 50 -36 82t-93 32q-82 0 -144 -47v84q5 1 55.5 16.5t93.5 15.5q96 0 152 -49.5t56 -129.5q0 -58 -34 -100.5t-85 -57.5q59 -16 96 -60.5t37 -109.5q0 -86 -58 -140.5t-161 -54.5q-44 0 -78.5 8.5t-62 20
t-38.5 14.5v92h1q28 -28 75 -47t93 -19q69 0 107 37t38 94q0 60 -43.5 95t-106.5 35z" />
    <glyph glyph-name="uni0418" unicode="&#x418;" horiz-adv-x="699" 
d="M543 144v386l-338 -411q-68 -78 -114 -138h-20q5 72 5 152v373q0 69 -5 179h90q-4 -84 -4 -179v-347l341 411q72 87 108 135h22q-4 -108 -4 -198v-362q0 -89 4 -145h-89q4 56 4 144z" />
    <glyph glyph-name="uni0419" unicode="&#x419;" horiz-adv-x="699" 
d="M543 144v386l-338 -411q-68 -78 -114 -138h-20q5 72 5 152v373q0 69 -5 179h90q-4 -84 -4 -179v-347l341 411q72 87 108 135h22q-4 -108 -4 -198v-362q0 -89 4 -145h-89q4 56 4 144zM258 845q5 -36 32 -59t69 -23q43 0 70.5 23t30.5 59h67q-5 -57 -50.5 -94t-117.5 -37
q-71 0 -116.5 37t-50.5 94h66z" />
    <glyph glyph-name="uni041A" unicode="&#x41a;" horiz-adv-x="571" 
d="M76 179v327q0 119 -4 179h88q-3 -90 -3 -179v-121h50q152 169 234 300h107q-15 -15 -46.5 -55.5t-92 -113.5t-135.5 -156q82 -97 148 -179t96.5 -120.5t52.5 -60.5h-119q-23 37 -40 62t-70.5 92.5t-140.5 169.5h-44v-145q0 -86 3 -179h-88q4 62 4 179z" />
    <glyph glyph-name="uni041B" unicode="&#x41b;" horiz-adv-x="641" 
d="M488 125q-29 72 -87 209.5t-86 205.5q-78 -180 -178 -428q-30 -75 -42 -112h-95q31 52 72 152l238 556h18l238 -556q49 -111 75 -152h-107q-10 33 -46 125z" />
    <glyph glyph-name="uni041C" unicode="&#x41c;" horiz-adv-x="815" 
d="M696 698l58 -538q11 -100 24 -160h-95q0 36 -9 136l-34 366l-224 -511h-20l-221 510l-44 -357q-12 -100 -13 -144h-87q9 39 28 181l72 517h21l259 -571l262 571h23z" />
    <glyph glyph-name="uni041D" unicode="&#x41d;" horiz-adv-x="689" 
d="M157 506v-104h374v104q0 137 -3 179h88q-4 -88 -4 -179v-362q0 -88 4 -144h-88q3 42 3 145v190h-374v-191q0 -88 4 -144h-88q3 42 3 145v361q0 138 -3 179h88q-4 -54 -4 -179z" />
    <glyph glyph-name="uni041E" unicode="&#x41e;" horiz-adv-x="796" 
d="M44 343q0 147 103 250.5t251 103.5t251 -103.5t103 -250.5t-103 -251t-251 -104t-251 104t-103 251zM127 343q0 -118 79 -201.5t192 -83.5t192 83.5t79 201.5t-79.5 201t-191.5 83t-191.5 -83t-79.5 -201z" />
    <glyph glyph-name="uni041F" unicode="&#x41f;" horiz-adv-x="654" 
d="M72 685h509q-3 -31 -3 -141v-363q0 -119 4 -181h-89q3 34 3 181v436h-338v-438q0 -133 3 -179h-88q3 46 3 179v328q0 104 -4 178z" />
    <glyph glyph-name="uni0420" unicode="&#x420;" horiz-adv-x="486" 
d="M157 269v-90q0 -117 4 -179h-88q3 46 3 179v347q0 114 -3 159h153q104 0 164.5 -58.5t60.5 -149.5q0 -90 -63.5 -149t-163.5 -59h-67zM157 622v-291h61q65 0 108 44.5t43 102.5q0 60 -41 102t-111 42h-60z" />
    <glyph glyph-name="uni0421" unicode="&#x421;" horiz-adv-x="632" 
d="M127 343q0 -117 84.5 -200t204.5 -83q116 0 181 56v-94q-108 -33 -187 -33q-155 0 -260.5 103.5t-105.5 250.5q0 148 105.5 251.5t260.5 103.5q28 0 56 -3.5t44 -7t42 -10.5t38 -10v-96q-65 54 -175 54q-120 0 -204 -82.5t-84 -199.5z" />
    <glyph glyph-name="uni0422" unicode="&#x422;" horiz-adv-x="617" 
d="M195 685h225q126 0 173 3v-74q-62 4 -173 4h-70q-1 -37 -1 -129v-310q0 -138 4 -179h-89q3 46 3 179v310q0 73 -3 129h-69q-109 0 -171 -4v74q47 -3 171 -3z" />
    <glyph glyph-name="uni0423" unicode="&#x423;" horiz-adv-x="591" 
d="M139 605l170 -317l159 322q23 53 28 75h95q-23 -39 -52 -94l-253 -505q-34 -75 -37 -86h-94q21 33 47 82l66 124l-208 377q-35 63 -60 102h102q11 -32 37 -80z" />
    <glyph glyph-name="uni0424" unicode="&#x424;" horiz-adv-x="750" 
d="M41 347q0 122 81.5 194t211.5 81q0 42 -3 91h86q-3 -49 -3 -91q131 -9 213.5 -80.5t82.5 -194.5q0 -121 -82.5 -193.5t-213.5 -80.5q0 -37 4 -101h-87q0 4 1.5 42.5t1.5 58.5q-130 9 -211.5 81t-81.5 193zM632 347q0 92 -62 147t-156 59v-411q94 4 156 58.5t62 146.5z
M119 347q0 -91 61 -145.5t154 -59.5v411q-93 -5 -154 -59.5t-61 -146.5z" />
    <glyph glyph-name="uni0425" unicode="&#x425;" horiz-adv-x="525" 
d="M353 118l-94 160l-102 -173q-41 -71 -57 -105h-99q44 59 98 145l120 198l-117 192q-55 93 -99 150h105q27 -54 64 -114l92 -156l92 157q15 26 36.5 65t26.5 48h98q-38 -49 -98 -147l-115 -188l118 -195q59 -95 104 -155h-105q-59 104 -68 118z" />
    <glyph glyph-name="uni0426" unicode="&#x426;" horiz-adv-x="652" 
d="M617 68l-17 -254h-71l5 186h-463q5 62 5 179v327q0 104 -5 179h90q-4 -60 -4 -179v-439h321v437q0 124 -5 181h91q-5 -50 -5 -182v-362v-73h58z" />
    <glyph glyph-name="uni0427" unicode="&#x427;" horiz-adv-x="590" 
d="M139 488q0 -72 41.5 -109.5t104.5 -37.5q89 0 149 33v206q0 72 -4 105h88q-3 -38 -3 -105v-472q0 -62 4 -108h-89q4 32 4 105v200q-73 -33 -166 -33t-151.5 51t-58.5 149v108q0 68 -3 105h87q-3 -37 -3 -105v-92z" />
    <glyph glyph-name="uni0428" unicode="&#x428;" horiz-adv-x="873" 
d="M801 0h-730q5 77 5 169v335q0 131 -5 181h85q-4 -45 -4 -180v-440h247v439q0 131 -5 181h86q-4 -45 -4 -180v-440h245v441q0 59 -4 179h85q-5 -75 -5 -179v-327q0 -63 4 -179z" />
    <glyph glyph-name="uni0429" unicode="&#x429;" horiz-adv-x="883" 
d="M850 68l-15 -239h-70l2 171h-695q4 61 4 169v335q0 131 -5 181h85q-4 -68 -4 -180v-437h242v436q0 136 -3 181h84q-4 -45 -4 -180v-437h242v438q0 129 -5 179h86q-5 -75 -5 -179v-327q0 -74 1 -111h60z" />
    <glyph glyph-name="uni042A" unicode="&#x42a;" horiz-adv-x="637" 
d="M152 685h135q-3 -45 -3 -178v-58h77q107 0 168 -64t61 -160q0 -93 -64 -159t-166 -66h-162q5 52 5 179v326q0 78 -1 113h-50q-93 0 -133 -4v74q45 -3 133 -3zM284 381v-313h67q67 0 111 46t44 110q0 67 -42 112t-113 45h-67z" />
    <glyph glyph-name="uni042B" unicode="&#x42b;" horiz-adv-x="687" 
d="M72 685h86q-4 -60 -4 -178v-58h75q107 0 168 -64t61 -160q0 -93 -64 -159t-166 -66h-157q5 52 5 179v326q0 120 -4 180zM154 381v-313h64q66 0 110.5 46t44.5 110q0 67 -42 112t-113 45h-64zM611 506v-327q0 -117 4 -179h-85q3 46 3 179v327q0 134 -3 179h85
q-4 -60 -4 -179z" />
    <glyph glyph-name="uni042C" unicode="&#x42c;" horiz-adv-x="525" 
d="M72 685h89q-4 -60 -4 -178v-58h93q107 0 168 -64t61 -160q0 -94 -63 -159.5t-167 -65.5h-178q5 52 5 179v326q0 120 -4 180zM157 381v-313h81q66 0 111 46t45 110q0 66 -43 111.5t-113 45.5h-81z" />
    <glyph glyph-name="uni042D" unicode="&#x42d;" horiz-adv-x="639" 
d="M508 318h-208q-125 0 -170 -3v75q45 -3 170 -3h208q-10 99 -86 167.5t-186 68.5q-111 0 -178 -58v92q97 36 181 36q158 0 256 -101t98 -249q0 -151 -98 -250.5t-256 -99.5q-75 0 -186 35v92q71 -57 183 -57q111 0 188.5 74t83.5 181z" />
    <glyph glyph-name="uni042E" unicode="&#x42e;" horiz-adv-x="964" 
d="M157 506v-132h107q11 135 102.5 227t221.5 92q139 0 234 -102t95 -248t-95 -248t-234 -102q-128 0 -219.5 90t-103.5 223h-108v-127q0 -86 3 -179h-89q5 52 5 179v327q0 129 -5 179h89q-3 -90 -3 -179zM346 343q0 -117 70 -198.5t172 -81.5q104 0 174.5 81.5t70.5 198.5
t-70.5 198.5t-174.5 81.5q-102 0 -172 -81.5t-70 -198.5z" />
    <glyph glyph-name="uni042F" unicode="&#x42f;" horiz-adv-x="535" 
d="M378 173v111h-55q-28 0 -43 2q-30 -43 -93 -147.5t-88 -138.5h-99q37 41 108 152t97 147q-128 47 -128 186q0 90 60.5 145t170.5 55h156q-5 -50 -5 -179v-333q0 -121 5 -173h-91q5 39 5 173zM378 345v275h-72q-69 0 -108 -40t-39 -95q0 -61 41.5 -100.5t102.5 -39.5h75z
" />
    <glyph glyph-name="uni0430" unicode="&#x430;" horiz-adv-x="449" 
d="M185 395q-68 0 -112 -46v78l45 15q45 15 84 15q172 0 172 -199v-169q0 -39 26 -39q16 0 22 5v-49q-25 -17 -59 -17q-23 0 -39 13.5t-20 39.5q-36 -53 -114 -53q-69 0 -109.5 36.5t-40.5 93.5q0 58 41.5 96.5t113.5 38.5q35 0 65 -13t41 -32v57q0 58 -28 93.5t-88 35.5z
M117 123q0 -35 25 -57.5t69 -22.5q38 0 65 23t27 57q0 32 -27 55t-65 23q-44 0 -69 -22.5t-25 -55.5z" />
    <glyph glyph-name="uni0431" unicode="&#x431;" horiz-adv-x="527" 
d="M469 704v-76q-30 -10 -167 -37q-95 -21 -143.5 -85t-54.5 -186q17 50 62.5 81t107.5 31q90 0 151 -61.5t61 -151.5q0 -96 -61 -161t-151 -65q-44 0 -82.5 15t-73 47.5t-54.5 93.5t-20 143q0 151 65 245.5t188 125.5l57 12t65.5 14.5t49.5 14.5zM122 224q0 -68 44.5 -116
t106.5 -48q57 0 98 46t41 112q0 61 -43 103.5t-103 42.5t-102 -41.5t-42 -98.5z" />
    <glyph glyph-name="uni0432" unicode="&#x432;" horiz-adv-x="442" 
d="M232 0h-163q4 40 4 116v201q0 12 -0.5 41t-0.5 43h-45q18 23 28 48h178q75 0 112.5 -29.5t37.5 -81.5q0 -35 -20.5 -60.5t-48.5 -32.5q85 -26 85 -113q0 -61 -44 -96.5t-123 -35.5zM322 134q0 34 -22 55t-57 21h-96v-155h81q42 0 68 21.5t26 57.5zM147 394v-133h88
q27 0 50 19t23 49t-20.5 47.5t-59.5 17.5h-81z" />
    <glyph glyph-name="uni0433" unicode="&#x433;" horiz-adv-x="360" 
d="M69 0q4 60 4 164v109q0 54 -2 128h-45q18 23 28 48h159q99 0 130 3v-72q-47 3 -130 3h-63v-219q0 -104 4 -164h-85z" />
    <glyph glyph-name="uni0434" unicode="&#x434;" horiz-adv-x="554" 
d="M529 65l-16 -216h-64l8 151h-360l4 -151h-64l-12 216q23 -3 63 -3l145 346q8 21 0 41h69l164 -387q45 0 63 3zM383 62l-114 288l-115 -288h229z" />
    <glyph glyph-name="uni0435" unicode="&#x435;" horiz-adv-x="496" 
d="M456 229h-337q-2 -70 43.5 -122t116.5 -52q82 0 138 37v-74q-2 0 -50.5 -13t-99.5 -13q-98 0 -163 66.5t-65 164.5q0 100 61.5 166.5t150.5 66.5q50 0 91 -21t65.5 -53.5t37.5 -68t13 -67.5q0 -11 -2 -17zM251 398q-48 0 -83 -32t-47 -82h255q-5 43 -39.5 78.5
t-85.5 35.5z" />
    <glyph glyph-name="uni0436" unicode="&#x436;" horiz-adv-x="630" 
d="M152 382l87 -125h40v72q0 80 -2 120h79q-3 -30 -3 -120v-72h40l89 130q18 23 41 62h83v-1q-23 -23 -66 -84l-93 -132l108 -146q40 -52 75 -86h-97q-5 12 -40 64l-101 143h-39v-86q0 -91 3 -121h-79q2 42 2 121v86h-39l-105 -146q-27 -37 -41 -61h-94q28 26 70 81l114 150
l-90 128q-48 68 -73 90h87q16 -31 44 -67z" />
    <glyph glyph-name="uni0437" unicode="&#x437;" horiz-adv-x="403" 
d="M176 205q-50 0 -70 -5v64q16 -4 63 -4t75 19t28 53q0 29 -24.5 49t-69.5 20q-39 0 -72 -13.5t-49 -30.5v70q8 1 25.5 9t43.5 14.5t60 6.5q74 0 117.5 -34.5t43.5 -88.5q0 -36 -23 -62.5t-57 -39.5q37 -12 64 -38.5t27 -68.5q0 -60 -46 -96.5t-116 -36.5q-38 0 -66.5 6.5
t-58 19t-30.5 12.5v69h1q56 -47 138 -47q48 0 75 22t27 57q0 34 -28 54t-78 20z" />
    <glyph glyph-name="uni0438" unicode="&#x438;" horiz-adv-x="503" 
d="M362 95v215l-184 -227q-57 -71 -78 -99h-31q4 52 4 100v247q0 22 -2 70h-42q18 23 28 48h91q-3 -42 -3 -118v-210l192 235q46 58 75 101h25q-3 -52 -3 -127v-234q0 -69 3 -96h-77q2 36 2 95z" />
    <glyph glyph-name="uni0439" unicode="&#x439;" horiz-adv-x="503" 
d="M362 95v215l-184 -227q-57 -71 -78 -99h-31q4 52 4 100v247q0 22 -2 70h-42q18 23 28 48h91q-3 -42 -3 -118v-210l192 235q46 58 75 101h25q-3 -52 -3 -127v-234q0 -69 3 -96h-77q2 36 2 95zM180 630q0 -31 23.5 -52t56.5 -21t57 21t24 52h58q0 -52 -41 -88t-99 -36
q-57 0 -97 36t-40 88h58z" />
    <glyph glyph-name="uni043A" unicode="&#x43a;" horiz-adv-x="439" 
d="M73 121v208q0 50 -1 72h-46q18 23 28 48h99q-3 -60 -3 -120v-72h19l109 130q31 35 49 62h91q-31 -28 -80 -84l-106 -128l128 -153q40 -47 80 -84h-101q-28 39 -48 61l-123 146h-18v-86q0 -91 3 -121h-83q3 32 3 121z" />
    <glyph glyph-name="uni043B" unicode="&#x43b;" horiz-adv-x="452" 
d="M330 81l-110 260l-107 -260q-17 -39 -29 -81h-84q21 35 46 98l133 306q11 24 3 45h67l154 -351q35 -77 49 -98h-93q-11 37 -29 81z" />
    <glyph glyph-name="uni043C" unicode="&#x43c;" horiz-adv-x="591" 
d="M452 455h44l39 -335q8 -75 16 -120h-81q0 28 -7 102l-21 205l-138 -315h-20l-140 315l-24 -201q-11 -92 -11 -106h-76q17 89 21 120l47 335h45l153 -348z" />
    <glyph glyph-name="uni043D" unicode="&#x43d;" horiz-adv-x="509" 
d="M147 333v-65h220v65q0 75 -3 116h80q-3 -42 -3 -116v-239q0 -40 3 -94h-80q3 27 3 94v119h-220v-119q0 -58 2 -94h-79q3 54 3 94v239q0 11 -0.5 34.5t-0.5 33.5h-45q18 23 28 48h94q0 -6 -1 -48t-1 -68z" />
    <glyph glyph-name="uni043E" unicode="&#x43e;" horiz-adv-x="541" 
d="M39 224q0 97 68 165t163 68q96 0 164 -68t68 -165q0 -96 -68 -163.5t-164 -67.5q-95 0 -163 67.5t-68 163.5zM114 224q0 -68 45.5 -115.5t110.5 -47.5t111 47.5t46 115.5t-46 116.5t-111 48.5t-110.5 -48.5t-45.5 -116.5z" />
    <glyph glyph-name="uni043F" unicode="&#x43f;" horiz-adv-x="499" 
d="M72 118v203v80h-46q18 23 28 48h382q-3 -63 -3 -106v-225q0 -88 3 -118h-82q1 11 1 120v264h-205v-266q0 -80 2 -118h-82q0 6 1 49t1 69z" />
    <glyph glyph-name="uni0440" unicode="&#x440;" horiz-adv-x="576" 
d="M72 -150v551h-46q14 18 28 48h96v-94q58 102 167 102q92 0 156 -68t64 -163q0 -98 -64.5 -165.5t-157.5 -67.5q-54 0 -98 23.5t-67 68.5v-235q0 -64 4 -103h-85q3 44 3 103zM147 224q0 -68 45.5 -117t109.5 -49t110 48.5t46 117.5t-46.5 118t-111.5 49q-63 0 -108 -49
t-45 -118z" />
    <glyph glyph-name="uni0441" unicode="&#x441;" horiz-adv-x="419" 
d="M115 223q0 -68 46 -115.5t111 -47.5q68 0 104 32v-87q-11 -1 -30 -4.5t-37 -5.5t-39 -2q-98 0 -165 67t-67 163q0 98 67 166t165 68q25 0 59 -5.5t45 -6.5v-87q-42 31 -102 31q-66 0 -111.5 -48.5t-45.5 -117.5z" />
    <glyph glyph-name="uni0442" unicode="&#x442;" horiz-adv-x="416" 
d="M125 449h166q67 0 107 2v-69q-40 2 -107 2h-45v-265q0 -91 3 -119h-83q3 57 3 119v265h-44q-69 0 -107 -2v69q38 -2 107 -2z" />
    <glyph glyph-name="uni0443" unicode="&#x443;" horiz-adv-x="459" 
d="M129 -191q-23 -37 -46.5 -52t-56.5 -15q-13 0 -25 3q29 35 63 87q101 156 138 226l-146 289q-34 65 -55 102h94q8 -25 33 -77l115 -228q59 124 97 221q16 40 30 84h89q-18 -32 -49 -106q-84 -195 -136 -289q-44 -84 -145 -245z" />
    <glyph glyph-name="uni0444" unicode="&#x444;" horiz-adv-x="629" 
d="M276 -103v99q-112 10 -174.5 71.5t-62.5 156.5q0 94 62.5 157.5t174.5 73.5v146h-46q12 16 28 49h97q-3 -30 -3 -87v-108q112 -10 175.5 -73.5t63.5 -157.5q0 -95 -63.5 -157t-175.5 -71v-99q0 -73 4 -104h-83q3 35 3 104zM514 224q0 70 -41.5 117t-120.5 56v-346
q79 9 120.5 55.5t41.5 117.5zM115 224q0 -70 41.5 -116.5t119.5 -56.5v346q-79 -10 -120 -57t-41 -116z" />
    <glyph glyph-name="uni0445" unicode="&#x445;" horiz-adv-x="392" 
d="M260 65l-65 104l-43 -69q-38 -60 -56 -100h-93q30 39 74 108l76 116l-78 124q-32 54 -67 101h95q20 -42 43 -82l53 -86l54 87q27 44 45 81h90q-29 -38 -71 -101l-76 -122l74 -118q46 -73 76 -108h-95q-20 39 -36 65z" />
    <glyph glyph-name="uni0446" unicode="&#x446;" horiz-adv-x="518" 
d="M411 -151l2 151h-344q3 32 3 101v300h-44q18 23 28 48h96q-2 -23 -2 -119v-265h201v266q0 88 -3 118h83q-3 -60 -3 -118v-270h58l-12 -212h-63z" />
    <glyph glyph-name="uni0447" unicode="&#x447;" horiz-adv-x="451" 
d="M126 319q0 -46 23.5 -70t67.5 -24q42 0 86 18v109q0 60 -3 97h83q-3 -38 -3 -97v-238q0 -66 4 -114h-84q3 34 3 110v73q-57 -21 -109 -21q-69 0 -107.5 37.5t-38.5 109.5v46q0 30 -1 46h-43q18 23 28 48h96q-2 -33 -2 -94v-36z" />
    <glyph glyph-name="uni0448" unicode="&#x448;" horiz-adv-x="670" 
d="M605 0h-534q2 58 2 131v203q0 11 -0.5 33t-0.5 34h-46q18 23 28 48h96q-2 -76 -2 -118v-270h151l1 270q0 88 -3 118h80q-2 -23 -2 -118v-270h152v271q0 87 -3 117h80q-2 -40 -2 -117v-196q0 -98 3 -136z" />
    <glyph glyph-name="uni0449" unicode="&#x449;" horiz-adv-x="691" 
d="M585 -151l2 151h-516q2 58 2 131v203q0 11 -0.5 33t-0.5 34h-46q18 23 28 48h96q-2 -76 -2 -118v-270h151l1 270q0 88 -3 118h80q-2 -23 -2 -118v-270h152v271q0 87 -3 117h80q-2 -40 -2 -117v-196v-75h58l-12 -212h-63z" />
    <glyph glyph-name="uni044A" unicode="&#x44a;" horiz-adv-x="492" 
d="M291 0h-151q3 30 3 113v217v54l-125 -3v70q98 -2 149 -2h55q-3 -56 -3 -119v-25h76q76 0 121 -44t45 -109q0 -66 -45 -109t-125 -43zM384 151q0 42 -27.5 71t-77.5 29h-60v-197h65q49 0 74.5 27.5t25.5 69.5z" />
    <glyph glyph-name="uni044B" unicode="&#x44b;" horiz-adv-x="570" 
d="M200 0h-134q3 30 3 113v217q0 82 -2 119h79q-3 -58 -3 -119v-25h61q75 0 120.5 -43.5t45.5 -109.5q0 -65 -45.5 -108.5t-124.5 -43.5zM293 152q0 40 -27.5 69.5t-75.5 29.5h-47v-197h49q49 0 75 28t26 70zM501 346v-243q0 -73 3 -103h-80q3 33 3 103v243q0 68 -3 103h80
q-3 -34 -3 -103z" />
    <glyph glyph-name="uni044C" unicode="&#x44c;" horiz-adv-x="425" 
d="M223 0h-157q3 30 3 113v217q0 82 -2 119h81q-3 -58 -3 -116v-28h76q79 0 125.5 -43.5t46.5 -108.5q0 -66 -46 -109.5t-124 -43.5zM316 151q0 42 -28.5 71t-79.5 29h-63v-197h68q50 0 76.5 27.5t26.5 69.5z" />
    <glyph glyph-name="uni044D" unicode="&#x44d;" horiz-adv-x="442" 
d="M316 200h-111q-89 0 -110 -2v66q31 -3 110 -3h112q-4 51 -43 91t-101 40q-82 0 -124 -38v82q10 2 33 8.5t44 9.5t50 3q99 0 163.5 -65.5t64.5 -166.5t-64 -166.5t-164 -65.5q-26 0 -46 3t-48 10l-36 9v82q46 -40 127 -40q62 0 101.5 41.5t41.5 101.5z" />
    <glyph glyph-name="uni044E" unicode="&#x44e;" horiz-adv-x="715" 
d="M150 335v-85h95q7 90 66.5 148.5t145.5 58.5q93 0 155.5 -67t62.5 -164t-62.5 -165t-155.5 -68q-84 0 -143 57t-69 146h-95v-81q0 -58 3 -115h-83q0 6 1 48t1 67v220q0 11 -0.5 33t-0.5 33h-45q16 18 28 48h99q-3 -57 -3 -114zM316 225q0 -71 40 -119.5t101 -48.5
t101.5 48.5t40.5 119.5q0 70 -40.5 119t-101.5 49t-101 -49t-40 -119z" />
    <glyph glyph-name="uni044F" unicode="&#x44f;" horiz-adv-x="429" 
d="M285 117v61h-73q-25 -33 -61.5 -97.5t-50.5 -80.5h-94q27 26 70.5 91t72.5 97q-41 10 -72.5 44t-31.5 82q0 57 44 96t124 39h151q-3 -32 -3 -119v-213q0 -88 3 -118h-82q3 30 3 118zM285 229v166h-71q-43 0 -67.5 -23t-24.5 -58q0 -34 26 -59.5t66 -25.5h71z" />
    <glyph glyph-name="uni0450" unicode="&#x450;" horiz-adv-x="496" 
d="M456 229h-337q-2 -70 43.5 -122t116.5 -52q82 0 138 37v-74q-2 0 -50.5 -13t-99.5 -13q-98 0 -163 66.5t-65 164.5q0 100 61.5 166.5t150.5 66.5q50 0 91 -21t65.5 -53.5t37.5 -68t13 -67.5q0 -11 -2 -17zM251 398q-48 0 -83 -32t-47 -82h255q-5 43 -39.5 78.5
t-85.5 35.5zM189 664l102 -152h-69l-113 152h80z" />
    <glyph glyph-name="uni0451" unicode="&#x451;" horiz-adv-x="496" 
d="M456 229h-337q-2 -70 43.5 -122t116.5 -52q82 0 138 37v-74q-2 0 -50.5 -13t-99.5 -13q-98 0 -163 66.5t-65 164.5q0 100 61.5 166.5t150.5 66.5q50 0 91 -21t65.5 -53.5t37.5 -68t13 -67.5q0 -11 -2 -17zM251 398q-48 0 -83 -32t-47 -82h255q-5 43 -39.5 78.5
t-85.5 35.5zM116 586q0 18 12.5 30t30.5 12q17 0 29.5 -12t12.5 -30q0 -17 -12.5 -29.5t-29.5 -12.5t-30 12.5t-13 29.5zM303 586q0 18 12.5 30t30.5 12q17 0 29 -12t12 -30q0 -17 -12 -29.5t-29 -12.5q-18 0 -30.5 12.5t-12.5 29.5z" />
    <glyph glyph-name="uni0452" unicode="&#x452;" horiz-adv-x="525" 
d="M152 620v-34h178v-57h-178v-101q47 21 107 21q94 0 152.5 -66t58.5 -170q0 -112 -63 -189.5t-180 -116.5v75q162 65 162 225q0 77 -41.5 128t-105.5 51q-49 0 -90 -19v-262q0 -67 3 -105h-84q4 33 4 105v424h-70v57h70v100h-46q5 7 14.5 25.5t12.5 22.5h99
q-3 -44 -3 -114z" />
    <glyph glyph-name="uni0453" unicode="&#x453;" horiz-adv-x="360" 
d="M69 0q4 60 4 164v109q0 54 -2 128h-45q18 23 28 48h159q99 0 130 3v-72q-47 3 -130 3h-63v-219q0 -104 4 -164h-85zM163 512l102 152h79l-113 -152h-68z" />
    <glyph glyph-name="uni0454" unicode="&#x454;" horiz-adv-x="440" 
d="M226 200h-103q3 -59 47.5 -100.5t106.5 -41.5q78 0 120 37v-81q-10 -2 -36 -9t-45.5 -9.5t-45.5 -2.5q-102 0 -166.5 65.5t-64.5 166.5q0 102 64.5 167.5t166.5 65.5q29 0 48.5 -2.5t43 -8.5t31.5 -8v-81q-40 36 -117 36q-62 0 -104.5 -39.5t-48.5 -92.5h103q97 0 117 2
v-65q-20 1 -117 1z" />
    <glyph glyph-name="uni0455" unicode="&#x455;" horiz-adv-x="376" 
d="M135 342q0 -25 20.5 -45t49.5 -34.5t57.5 -32t49 -46.5t20.5 -69q0 -57 -40.5 -92t-110.5 -35q-23 0 -49.5 5t-52.5 12.5t-33 8.5v91q15 -23 56 -40.5t75 -17.5q35 0 55.5 17t20.5 46q0 25 -20 44.5t-49 34t-58 32t-49 47t-20 68.5q0 55 38.5 88t108.5 33q33 0 72 -12
t41 -12v-84q-12 22 -47 36.5t-62 14.5q-36 0 -54.5 -16.5t-18.5 -41.5z" />
    <glyph glyph-name="uni0456" unicode="&#x456;" horiz-adv-x="219" 
d="M150 346v-242q0 -74 3 -104h-84q3 33 3 104v297h-46q11 12 29 48h98q-3 -35 -3 -103zM64 585q0 20 13 33.5t33 13.5t33 -13.5t13 -33.5q0 -19 -13.5 -32t-32.5 -13t-32.5 13t-13.5 32z" />
    <glyph glyph-name="uni0457" unicode="&#x457;" horiz-adv-x="219" 
d="M150 346v-242q0 -74 3 -104h-83q2 44 2 104v297h-46q5 5 29 48h98q-3 -35 -3 -103zM-25 586q0 18 12.5 30t30.5 12q17 0 29.5 -12t12.5 -30q0 -17 -12.5 -29.5t-29.5 -12.5t-30 12.5t-13 29.5zM162 586q0 18 12.5 30t30.5 12q17 0 29 -12t12 -30q0 -17 -12 -29.5
t-29 -12.5q-18 0 -30.5 12.5t-12.5 29.5z" />
    <glyph glyph-name="uni0458" unicode="&#x458;" horiz-adv-x="219" 
d="M150 346v-408q0 -94 -38 -145t-108 -51q-23 0 -46.5 3.5t-24.5 3.5v72q16 -14 50 -14q41 0 65 34t24 99v461h-46q13 19 28 48h99q-3 -37 -3 -103zM64 586q0 19 13 32.5t32 13.5t32.5 -13t13.5 -33t-13.5 -33t-32.5 -13t-32 13.5t-13 32.5z" />
    <glyph glyph-name="uni0459" unicode="&#x459;" horiz-adv-x="635" 
d="M314 73l-106 265l-102 -265q-19 -51 -24 -73h-82q6 12 42 94l127 310q10 20 1 45h66l62 -144h122q85 0 134 -40t49 -115q0 -70 -50 -110t-128 -40h-84q-25 69 -27 73zM527 150q0 45 -30.5 72.5t-90.5 27.5h-84l82 -197h21q45 0 73.5 28t28.5 69z" />
    <glyph glyph-name="uni045A" unicode="&#x45a;" horiz-adv-x="679" 
d="M473 0h-137q3 50 3 96v116h-189v-117q0 -57 3 -95h-83q3 54 3 95v237q0 12 -0.5 35t-0.5 34h-46q18 23 28 48h99q-3 -27 -3 -111v-70h189v70q0 70 -3 111h83q-3 -87 -3 -111v-33h61q72 0 121.5 -40t49.5 -111q0 -69 -47 -111.5t-128 -42.5zM572 153q0 40 -30 69.5
t-80 29.5h-46v-200h47q55 0 82 28.5t27 72.5z" />
    <glyph glyph-name="uni045B" unicode="&#x45b;" horiz-adv-x="503" 
d="M361 103v158q0 61 -27.5 96.5t-76.5 35.5q-51 0 -79.5 -37t-28.5 -95v-158q0 -65 3 -103h-84q3 38 3 103v426h-66v57h66v100h-46q6 7 16 26t12 22h99q-3 -34 -3 -103v-45h167v-57h-167v-148q40 76 134 76q76 0 116 -54t40 -144v-156q0 -65 3 -103h-84q3 38 3 103z" />
    <glyph glyph-name="uni045C" unicode="&#x45c;" horiz-adv-x="439" 
d="M73 121v208q0 50 -1 72h-46q18 23 28 48h99q-3 -60 -3 -120v-72h19l109 130q31 35 49 62h91q-31 -28 -80 -84l-106 -128l128 -153q40 -47 80 -84h-101q-28 39 -48 61l-123 146h-18v-86q0 -91 3 -121h-83q3 32 3 121zM197 512l102 152h79l-113 -152h-68z" />
    <glyph glyph-name="uni045D" unicode="&#x45d;" horiz-adv-x="503" 
d="M362 95v215l-184 -227q-57 -71 -78 -99h-31q4 52 4 100v247q0 22 -2 70h-42q18 23 28 48h91q-3 -42 -3 -118v-210l192 235q46 58 75 101h25q-3 -52 -3 -127v-234q0 -69 3 -96h-77q2 36 2 95zM202 664l102 -152h-69l-113 152h80z" />
    <glyph glyph-name="uni045E" unicode="&#x45e;" horiz-adv-x="459" 
d="M129 -191q-23 -37 -46.5 -52t-56.5 -15q-13 0 -25 3q29 35 63 87q101 156 138 226l-146 289q-34 65 -55 102h94q8 -25 33 -77l115 -228q59 124 97 221q16 40 30 84h89q-18 -32 -49 -106q-84 -195 -136 -289q-44 -84 -145 -245zM156 630q0 -31 23.5 -52t56.5 -21t57 21
t24 52h58q0 -52 -41 -88t-99 -36q-57 0 -97 36t-40 88h58z" />
    <glyph glyph-name="uni045F" unicode="&#x45f;" horiz-adv-x="501" 
d="M435 0h-143l-8 -151h-62l2 151h-155q3 32 3 105v225l-1 71h-45q18 23 28 48h98q-2 -23 -2 -119v-269h205v270q0 98 -2 118h82q-2 -40 -2 -118v-204q0 -79 2 -127z" />
    <glyph glyph-name="uni0462" unicode="&#x462;" horiz-adv-x="657" 
d="M117 624h102v3q0 56 -2 86h86q-3 -45 -3 -86v-3h175q75 0 106 3v-72q-23 2 -106 2h-175v-136h96q100 0 160 -59t60 -150q0 -92 -62.5 -152t-163.5 -60h-176q5 52 5 179v378h-102q-72 0 -95 -2v72q34 -3 95 -3zM300 358v-295h76q64 0 108.5 42.5t44.5 104.5
q0 65 -43 106.5t-113 41.5h-73z" />
    <glyph glyph-name="uni0463" unicode="&#x463;" horiz-adv-x="508" 
d="M14 449h125v63q0 58 -1 86h82q-3 -42 -3 -86v-63h178v-61h-178v-103h65q186 0 186 -142q0 -72 -49 -107.5t-137 -35.5h-147q4 41 4 175v213h-125v61zM217 227v-169h67q53 0 80.5 22t27.5 62t-28 62.5t-80 22.5h-67z" />
    <glyph glyph-name="uni0472" unicode="&#x472;" horiz-adv-x="797" 
d="M44 343q0 147 103 250.5t251 103.5t251 -103.5t103 -250.5t-103 -251t-251 -104t-251 104t-103 251zM398 58q105 0 182.5 74.5t87.5 184.5h-540q9 -110 86.5 -184.5t183.5 -74.5zM398 627q-103 0 -179.5 -71t-89.5 -176h537q-13 105 -89 176t-179 71z" />
    <glyph glyph-name="uni0473" unicode="&#x473;" horiz-adv-x="541" 
d="M39 224q0 97 68 165t163 68q96 0 164 -68t68 -165q0 -96 -68 -163.5t-164 -67.5q-95 0 -163 67.5t-68 163.5zM270 55q61 0 106 43t52 107h-316q7 -65 52 -107.5t106 -42.5zM270 395q-59 0 -102.5 -39.5t-54.5 -100.5h313q-10 60 -54 100t-102 40z" />
    <glyph glyph-name="uni0474" unicode="&#x474;" horiz-adv-x="674" 
d="M146 561l173 -425q84 239 157 427q30 75 59 104.5t73 29.5q16 0 44 -7v-80q-20 10 -43 10q-17 0 -33.5 -22t-41.5 -85q-104 -249 -209 -533h-15l-237 554q-46 107 -74 151h102q12 -47 45 -124z" />
    <glyph glyph-name="uni0475" unicode="&#x475;" horiz-adv-x="474" 
d="M121 371l102 -244q47 134 79 221q43 109 115 109q26 0 35 -7v-76q-15 11 -38 11q-16 0 -28 -16t-29 -54q-34 -65 -131 -331h-16l-159 363q-22 57 -52 102h95q9 -32 27 -78z" />
    <glyph glyph-name="uni0490" unicode="&#x490;" horiz-adv-x="468" 
d="M72 0q4 62 4 179v327q0 119 -4 179h299l18 130h64l-14 -203q-62 4 -147 4h-135v-437q0 -86 3 -179h-88z" />
    <glyph glyph-name="uni0491" unicode="&#x491;" horiz-adv-x="377" 
d="M69 0q4 60 4 163v110q0 54 -2 128h-45q18 23 28 48h226l14 115h62l-12 -183q-47 3 -130 3h-64v-221q0 -103 4 -163h-85z" />
    <glyph glyph-name="uni0492" unicode="&#x492;" horiz-adv-x="470" 
d="M89 0q4 62 4 179v141h-73v57h73v129q0 119 -4 179h212q71 0 148 5v-78q-62 4 -148 4h-127v-239h199v-57h-199v-141q0 -86 3 -179h-88z" />
    <glyph glyph-name="uni0493" unicode="&#x493;" horiz-adv-x="364" 
d="M21 191v57h55v25q0 54 -2 128h-44q18 23 28 48h158q99 0 130 3v-72q-47 3 -130 3h-63v-135h112v-57h-112v-27q0 -104 4 -164h-85q4 60 4 164v27h-55z" />
    <glyph glyph-name="uni0496" unicode="&#x496;" horiz-adv-x="917" 
d="M397 179v147h-47q-158 -193 -239 -326h-111q27 29 122.5 158.5t156.5 204.5q-59 71 -116.5 145.5t-90.5 116.5t-50 60h104q82 -131 227 -302h44v123q0 134 -3 179h88q-4 -60 -4 -179v-123h47q28 32 52.5 61.5t45 56.5t36 46.5t32 43.5t24 35t22 33t17.5 26h102
q-30 -33 -116.5 -144.5t-140.5 -176.5q50 -60 92 -115.5t80.5 -110t50.5 -70.5h78l-15 -239h-70l2 171h-52q-1 2 -36 54t-52.5 77t-59.5 81t-90 114h-49v-147q0 -117 4 -179h-88q3 46 3 179z" />
    <glyph glyph-name="uni0497" unicode="&#x497;" horiz-adv-x="676" 
d="M152 382l87 -125h40v72q0 80 -2 120h79q-3 -30 -3 -120v-72h40l89 130q18 23 41 62h83v-1q-23 -23 -66 -84l-93 -132l108 -146l19 -25h85l-12 -212h-63l2 151h-53q-5 12 -40 64l-101 143h-39v-86q0 -91 3 -121h-79q2 42 2 121v86h-39l-105 -146q-27 -37 -41 -61h-94
q28 26 70 81l114 150l-90 128q-48 68 -73 90h87q16 -31 44 -67z" />
    <glyph glyph-name="uni0498" unicode="&#x498;" horiz-adv-x="493" 
d="M205 322q-46 0 -79 -5v74q15 -4 81 -4q57 0 95.5 34t38.5 90q0 50 -36 82t-93 32q-82 0 -144 -47v84q5 1 55.5 16.5t93.5 15.5q96 0 152 -49.5t56 -129.5q0 -58 -34 -100.5t-85 -57.5q59 -16 96 -60.5t37 -109.5q0 -83 -54 -137t-150 -58q41 -20 66 -54.5t25 -77.5
q0 -55 -37 -90t-90 -35q-49 0 -89 26v61q38 -35 76 -33q31 1 51 22t20 58q0 83 -139 137q-15 5 -40 15.5t-37 13.5v92h1q28 -28 75 -47t93 -19q69 0 107 37t38 94q0 60 -43.5 95t-106.5 35z" />
    <glyph glyph-name="uni0499" unicode="&#x499;" horiz-adv-x="408" 
d="M176 205q-50 0 -70 -5v64q16 -4 63 -4t75 19t28 53q0 29 -24.5 49t-69.5 20q-39 0 -72 -13.5t-49 -30.5v70q8 1 25.5 9t43.5 14.5t60 6.5q74 0 117.5 -34.5t43.5 -88.5q0 -36 -23 -62.5t-57 -39.5q37 -12 64 -38.5t27 -68.5q0 -60 -44.5 -95.5t-114.5 -37.5
q59 -38 59 -103q0 -38 -29.5 -65t-69.5 -27q-43 0 -70 22v50q28 -26 57 -25q21 0 37 17.5t16 41.5q0 31 -22.5 57.5t-60.5 40.5q-20 5 -45.5 16.5t-29.5 12.5v69h1q56 -47 138 -47q48 0 75 22t27 57q0 34 -28 54t-78 20z" />
    <glyph glyph-name="uni049A" unicode="&#x49a;" horiz-adv-x="608" 
d="M76 179v327q0 119 -4 179h88q-3 -90 -3 -179v-121h50q152 169 234 300h107q-15 -15 -46.5 -55.5t-92 -113.5t-135.5 -156q57 -67 105 -125.5t84.5 -105t48.5 -61.5h79l-15 -239h-70l2 171h-56q-23 37 -40 62t-70.5 92.5t-140.5 169.5h-44v-145q0 -86 3 -179h-88
q4 62 4 179z" />
    <glyph glyph-name="uni049B" unicode="&#x49b;" horiz-adv-x="472" 
d="M73 121v208q0 50 -1 72h-46q18 23 28 48h99q-3 -60 -3 -120v-72h19l109 130q31 35 49 62h91q-31 -28 -80 -84l-106 -128l128 -153q1 -1 8.5 -10t11.5 -13h75l-12 -212h-63l2 151h-43q-28 39 -48 61l-123 146h-18v-86q0 -91 3 -121h-83q3 32 3 121z" />
    <glyph glyph-name="uni049C" unicode="&#x49c;" horiz-adv-x="579" 
d="M189 494h52v-109h13q99 126 203 300h105q-45 -51 -130 -166.5t-122 -163.5q22 -30 83.5 -114.5t105 -141t80.5 -99.5h-113q-8 11 -88.5 135t-128.5 189h-8v-108h-52v108h-32v-145q0 -86 3 -179h-88q4 62 4 179v327q0 119 -4 179h88q-3 -90 -3 -179v-121h32v109z" />
    <glyph glyph-name="uni049D" unicode="&#x49d;" horiz-adv-x="463" 
d="M73 121v208q0 50 -1 72h-46q18 23 28 48h99q-3 -60 -3 -120v-75h19v91h45v-91h10l79 134q28 58 29 61h88v-1q-8 -11 -26 -41t-47 -72.5t-72 -98.5q41 -43 107 -147q35 -55 66 -89h-100q-31 55 -39 68l-86 142h-9v-89h-45v89h-19v-89q0 -91 3 -121h-83q3 32 3 121z" />
    <glyph glyph-name="uni04A0" unicode="&#x4a0;" horiz-adv-x="693" 
d="M199 179v327q0 46 -2 116h-49q-89 0 -134 -3v69q45 -3 134 -3h135q-3 -90 -3 -179v-121h50q152 169 234 300h107q-15 -15 -46.5 -55.5t-92 -113.5t-135.5 -156q82 -97 148 -179t96.5 -120.5t52.5 -60.5h-119q-23 37 -40 62t-70.5 92.5t-140.5 169.5h-44v-145
q0 -86 3 -179h-88q4 62 4 179z" />
    <glyph glyph-name="uni04A1" unicode="&#x4a1;" horiz-adv-x="512" 
d="M144 121v208q0 46 -1 67h-21q-67 0 -104 -3v59q38 -3 105 -3h101q-3 -60 -3 -120v-72h19l109 130q31 35 49 62h91q-31 -28 -80 -84l-106 -128l128 -153q40 -47 80 -84h-101q-28 39 -48 61l-123 146h-18v-86q0 -91 3 -121h-83q3 32 3 121z" />
    <glyph glyph-name="uni04A2" unicode="&#x4a2;" horiz-adv-x="700" 
d="M156 506v-104h374v104q0 137 -3 179h88q-4 -88 -4 -179v-362q0 -52 1 -76h55l-15 -239h-70l2 171h-57q3 42 3 145v190h-374v-191q0 -88 4 -144h-88q3 42 3 145v361q0 138 -3 179h88q-4 -54 -4 -179z" />
    <glyph glyph-name="uni04A3" unicode="&#x4a3;" horiz-adv-x="536" 
d="M431 -151l2 151h-70q3 27 3 94v119h-220v-119q0 -58 2 -94h-79q3 54 3 94v239q0 11 -0.5 34.5t-0.5 33.5h-45q18 23 28 48h94q0 -6 -1 -48t-1 -68v-65h220v65q0 75 -3 116h80q-3 -42 -3 -116v-239v-33h66l-12 -212h-63z" />
    <glyph glyph-name="uni04AA" unicode="&#x4aa;" horiz-adv-x="632" 
d="M127 343q0 -117 84.5 -200t204.5 -83q116 0 181 56v-94q-108 -33 -187 -33h-7q39 -30 56.5 -60.5t17.5 -70.5q0 -54 -37 -88.5t-90 -34.5q-49 0 -89 26v61q36 -35 77 -33q31 1 50.5 21t19.5 56q0 80 -107 138q-115 34 -186 127t-71 212q0 148 105.5 251.5t260.5 103.5
q28 0 56 -3.5t44 -7t42 -10.5t38 -10v-96q-65 54 -175 54q-120 0 -204 -82.5t-84 -199.5z" />
    <glyph glyph-name="uni04AB" unicode="&#x4ab;" horiz-adv-x="422" 
d="M115 223q0 -68 46 -115.5t111 -47.5q68 0 104 32v-87q-10 -1 -28.5 -4.5t-35 -5.5t-35.5 -2q63 -45 63 -104q0 -38 -29.5 -65t-69.5 -27q-42 0 -70 22v50q28 -26 57 -25q22 0 37.5 17t15.5 42q0 29 -23.5 57.5t-59.5 42.5q-72 23 -116 83t-44 137q0 98 67 166t165 68
q25 0 59 -5.5t45 -6.5v-87q-42 31 -102 31q-66 0 -111.5 -48.5t-45.5 -117.5z" />
    <glyph glyph-name="uni04AE" unicode="&#x4ae;" horiz-adv-x="587" 
d="M250 0q3 46 3 172v146l-159 238q-53 79 -94 129h105q17 -34 56 -94l136 -201l129 194q45 66 62 101h99q-36 -46 -98 -137l-155 -230v-146q0 -110 4 -172h-88z" />
    <glyph glyph-name="uni04AF" unicode="&#x4af;" horiz-adv-x="440" 
d="M0 449h94q10 -39 35 -102l97 -240l96 249q23 58 31 93h87q-39 -84 -49 -110l-131 -309v-184q0 -45 3 -105h-81q3 33 3 105v180l-134 317q-24 59 -51 106z" />
    <glyph glyph-name="uni04B0" unicode="&#x4b0;" horiz-adv-x="587" 
d="M250 0q3 46 3 172v84h-147v59h147v3l-159 238q-53 79 -94 129h105q17 -34 56 -94l136 -201l129 194q45 66 62 101h99q-36 -46 -98 -137l-155 -230v-3h147v-59h-147v-84q0 -110 4 -172h-88z" />
    <glyph glyph-name="uni04B1" unicode="&#x4b1;" horiz-adv-x="440" 
d="M0 449h94q24 -72 32 -92l100 -246l95 244q22 56 31 94h88q-29 -55 -50 -107l-130 -303v-8h108v-57h-108v-128q0 -45 3 -105h-81q3 33 3 105v128h-110v57h110v6l-135 308q-24 58 -50 104z" />
    <glyph glyph-name="uni04B2" unicode="&#x4b2;" horiz-adv-x="577" 
d="M352 118l-94 160l-102 -173q-41 -71 -57 -105h-99q44 59 98 145l120 198l-117 192q-55 93 -99 150h105q27 -54 64 -114l92 -156l92 157q15 26 36.5 65t26.5 48h98q-38 -49 -98 -147l-115 -188l118 -195q30 -50 56 -87h82l-15 -239h-70l2 171h-56q-59 104 -68 118z" />
    <glyph glyph-name="uni04B3" unicode="&#x4b3;" horiz-adv-x="427" 
d="M257 65l-65 104l-43 -69q-38 -60 -56 -100h-93q30 39 74 108l76 116l-78 124q-32 54 -67 101h95q20 -42 43 -82l53 -86l54 87q27 44 45 81h90q-29 -38 -71 -101l-76 -122l74 -118q16 -26 30 -47h68l-12 -212h-63l2 151h-44q-20 39 -36 65z" />
    <glyph glyph-name="uni04B6" unicode="&#x4b6;" horiz-adv-x="600" 
d="M135 488q0 -72 41.5 -109.5t104.5 -37.5q89 0 149 33v206q0 72 -4 105h88q-3 -38 -3 -105v-472v-40h56l-15 -239h-70l2 171h-58q4 32 4 105v200q-73 -33 -166 -33t-151.5 51t-58.5 149v108q0 68 -3 105h87q-3 -37 -3 -105v-92z" />
    <glyph glyph-name="uni04B7" unicode="&#x4b7;" horiz-adv-x="465" 
d="M120 319q0 -46 23.5 -70t67.5 -24q42 0 86 18v109q0 60 -3 97h83q-3 -38 -3 -97v-238q0 -32 1 -53h59l-12 -212h-63l2 151h-67q3 34 3 110v73q-57 -21 -109 -21q-69 0 -107.5 37.5t-38.5 109.5v46q0 44 -2 94h82q-2 -33 -2 -94v-36z" />
    <glyph glyph-name="uni04B8" unicode="&#x4b8;" horiz-adv-x="590" 
d="M262 456h55v-114q63 4 117 32v206q0 72 -4 105h88q-3 -38 -3 -105v-472q0 -62 4 -108h-89q4 32 4 105v200q-52 -24 -117 -31v-101h-55v99q-90 2 -147 53t-57 147v108q0 68 -3 105h87q-3 -37 -3 -105v-92q0 -66 34 -103t89 -43v114z" />
    <glyph glyph-name="uni04B9" unicode="&#x4b9;" horiz-adv-x="463" 
d="M202 320h45v-94q34 4 68 21v105q0 47 -2 97h83q-3 -38 -3 -97v-244q0 -60 4 -108h-84q2 46 2 104v84q-35 -16 -68 -20v-84h-45v81q-70 0 -109 38t-39 109v43v46h-47q18 23 28 48h99q-2 -33 -2 -94v-30q0 -87 70 -99v94z" />
    <glyph glyph-name="uni04BA" unicode="&#x4ba;" horiz-adv-x="576" 
d="M442 105v119q0 73 -36.5 112.5t-99.5 39.5q-79 0 -149 -50v-221q0 -67 3 -105h-88q4 33 4 105v473q0 69 -5 107h89q-3 -36 -3 -105v-186q77 51 172 51q90 0 142 -54t52 -157v-129q0 -67 3 -105h-87q3 38 3 105z" />
    <glyph glyph-name="uni04BB" unicode="&#x4bb;" horiz-adv-x="500" 
d="M359 103v158q0 61 -28 96.5t-77 35.5q-51 0 -79.5 -37t-28.5 -95v-158q0 -70 4 -103h-85q4 33 4 103v583h-46q6 7 15.5 25.5t11.5 22.5h100q-4 -35 -4 -103v-250q43 76 134 76q76 0 116 -54t40 -144v-156q0 -70 4 -103h-85q4 50 4 103z" />
    <glyph glyph-name="uni04C0" unicode="&#x4c0;" horiz-adv-x="241" 
d="M161 506v-327q0 -117 4 -179h-89q4 62 4 179v327q0 119 -4 179h89q-4 -60 -4 -179z" />
    <glyph glyph-name="uni04C1" unicode="&#x4c1;" horiz-adv-x="878" 
d="M397 179v147h-47q-158 -193 -239 -326h-111q27 29 122.5 158.5t156.5 204.5q-59 71 -116.5 145.5t-90.5 116.5t-50 60h104q82 -131 227 -302h44v123q0 134 -3 179h88q-4 -60 -4 -179v-123h47q28 32 52.5 61.5t45 56.5t36 46.5t32 43.5t24 35t22 33t17.5 26h102
q-30 -33 -116.5 -144.5t-140.5 -176.5q83 -100 167 -217t112 -147h-113q-1 2 -36 54t-52.5 77t-59.5 81t-90 114h-49v-147q0 -117 4 -179h-88q3 46 3 179zM338 845q5 -36 32 -59t69 -23q43 0 70.5 23t30.5 59h67q-5 -57 -50.5 -94t-117.5 -37q-71 0 -116.5 37t-50.5 94h66z
" />
    <glyph glyph-name="uni04C2" unicode="&#x4c2;" horiz-adv-x="630" 
d="M152 382l87 -125h40v72q0 80 -2 120h79q-3 -30 -3 -120v-72h40l89 130q18 23 41 62h83v-1q-23 -23 -66 -84l-93 -132l108 -146q40 -52 75 -86h-97q-5 12 -40 64l-101 143h-39v-86q0 -91 3 -121h-79q2 42 2 121v86h-39l-105 -146q-27 -37 -41 -61h-94q28 26 70 81l114 150
l-90 128q-48 68 -73 90h87q16 -31 44 -67zM235 630q0 -31 23.5 -52t56.5 -21t57 21t24 52h58q0 -52 -41 -88t-99 -36q-57 0 -97 36t-40 88h58z" />
    <glyph glyph-name="uni04CF" unicode="&#x4cf;" horiz-adv-x="215" 
d="M146 631v-528q0 -72 4 -103h-85q4 31 4 103v528q0 63 -4 103h84q-3 -45 -3 -103z" />
    <glyph glyph-name="uni04D0" unicode="&#x4d0;" horiz-adv-x="645" 
d="M645 0h-104q-12 35 -45 113l-50 119h-261l-49 -117q-35 -84 -44 -115h-92q41 77 72 152l236 546h23l239 -546q40 -90 75 -152zM418 299l-103 252l-103 -252h206zM216 845q5 -36 32 -59t69 -23q43 0 70.5 23t30.5 59h67q-5 -57 -50.5 -94t-117.5 -37q-71 0 -116.5 37
t-50.5 94h66z" />
    <glyph glyph-name="uni04D1" unicode="&#x4d1;" horiz-adv-x="449" 
d="M185 395q-68 0 -112 -46v78l45 15q45 15 84 15q172 0 172 -199v-169q0 -39 26 -39q16 0 22 5v-49q-25 -17 -59 -17q-23 0 -39 13.5t-20 39.5q-36 -53 -114 -53q-69 0 -109.5 36.5t-40.5 93.5q0 58 41.5 96.5t113.5 38.5q35 0 65 -13t41 -32v57q0 58 -28 93.5t-88 35.5z
M117 123q0 -35 25 -57.5t69 -22.5q38 0 65 23t27 57q0 32 -27 55t-65 23q-44 0 -69 -22.5t-25 -55.5zM132 630q0 -31 23.5 -52t56.5 -21t57 21t24 52h58q0 -52 -41 -88t-99 -36q-57 0 -97 36t-40 88h58z" />
    <glyph glyph-name="uni04D6" unicode="&#x4d6;" horiz-adv-x="461" 
d="M237 618h-80v-218h79q110 0 156 3v-74q-47 3 -156 3h-79v-264h88q124 0 169 3v-74q-45 3 -169 3h-173q4 110 4 179v328q0 118 -4 178h165q107 0 169 4v-75q-41 4 -169 4zM133 845q5 -36 32 -59t69 -23q43 0 70.5 23t30.5 59h67q-5 -57 -50.5 -94t-117.5 -37
q-71 0 -116.5 37t-50.5 94h66z" />
    <glyph glyph-name="uni04D7" unicode="&#x4d7;" horiz-adv-x="496" 
d="M456 229h-337q-2 -70 43.5 -122t116.5 -52q82 0 138 37v-74q-2 0 -50.5 -13t-99.5 -13q-98 0 -163 66.5t-65 164.5q0 100 61.5 166.5t150.5 66.5q50 0 91 -21t65.5 -53.5t37.5 -68t13 -67.5q0 -11 -2 -17zM251 398q-48 0 -83 -32t-47 -82h255q-5 43 -39.5 78.5
t-85.5 35.5zM168 630q0 -31 23.5 -52t56.5 -21t57 21t24 52h58q0 -52 -41 -88t-99 -36q-57 0 -97 36t-40 88h58z" />
    <glyph glyph-name="uni04D8" unicode="&#x4d8;" horiz-adv-x="723" 
d="M42 331h550q2 12 2 32q0 107 -75 184.5t-189 77.5q-128 0 -223 -75v92q9 3 39.5 15t44.5 16.5t41.5 12t54 10.5t57.5 3q148 0 240.5 -101t92.5 -250q0 -147 -94.5 -251t-230.5 -104q-70 0 -130 28t-99 73t-61 100.5t-22 112.5q0 14 2 24zM355 65q83 0 150 58t81 144h-453
q6 -83 71.5 -142.5t150.5 -59.5z" />
    <glyph glyph-name="uni04D9" unicode="&#x4d9;" horiz-adv-x="502" 
d="M44 236h339q-1 62 -43.5 110t-111.5 48q-88 0 -145 -45v74q10 2 34.5 11t55.5 16t67 7q98 0 160 -66t62 -166t-61 -166t-151 -66q-67 0 -116 35t-70.5 84.5t-21.5 104.5q0 11 2 19zM250 51q56 0 92.5 38t42.5 92h-262q4 -55 39 -92.5t88 -37.5z" />
    <glyph glyph-name="uni04E2" unicode="&#x4e2;" horiz-adv-x="699" 
d="M543 144v386l-338 -411q-68 -78 -114 -138h-20q5 72 5 152v373q0 69 -5 179h90q-4 -84 -4 -179v-347l341 411q72 87 108 135h22q-4 -108 -4 -198v-362q0 -89 4 -145h-89q4 56 4 144zM223 801h283v-52h-283v52z" />
    <glyph glyph-name="uni04E3" unicode="&#x4e3;" horiz-adv-x="503" 
d="M362 95v215l-184 -227q-57 -71 -78 -99h-31q4 52 4 100v247q0 22 -2 70h-42q18 23 28 48h91q-3 -42 -3 -118v-210l192 235q46 58 75 101h25q-3 -52 -3 -127v-234q0 -69 3 -96h-77q2 36 2 95zM143 601h242v-55h-242v55z" />
    <glyph glyph-name="uni04E6" unicode="&#x4e6;" horiz-adv-x="796" 
d="M44 343q0 147 103 250.5t251 103.5t251 -103.5t103 -250.5t-103 -251t-251 -104t-251 104t-103 251zM127 343q0 -118 79 -201.5t192 -83.5t192 83.5t79 201.5t-79.5 201t-191.5 83t-191.5 -83t-79.5 -201zM257 788q0 19 13.5 32t32.5 13t32.5 -13t13.5 -32t-13.5 -32
t-32.5 -13t-32.5 13t-13.5 32zM446 788q0 19 14 32t33 13t32 -13t13 -32t-13 -32t-32 -13t-33 13t-14 32z" />
    <glyph glyph-name="uni04E7" unicode="&#x4e7;" horiz-adv-x="541" 
d="M39 224q0 97 68 165t163 68q96 0 164 -68t68 -165q0 -96 -68 -163.5t-164 -67.5q-95 0 -163 67.5t-68 163.5zM114 224q0 -68 45.5 -115.5t110.5 -47.5t111 47.5t46 115.5t-46 116.5t-111 48.5t-110.5 -48.5t-45.5 -116.5zM134 586q0 18 12.5 30t30.5 12q17 0 29.5 -12
t12.5 -30q0 -17 -12.5 -29.5t-29.5 -12.5t-30 12.5t-13 29.5zM321 586q0 18 12.5 30t30.5 12q17 0 29 -12t12 -30q0 -17 -12 -29.5t-29 -12.5q-18 0 -30.5 12.5t-12.5 29.5z" />
    <glyph glyph-name="uni04E8" unicode="&#x4e8;" horiz-adv-x="797" 
d="M44 343q0 147 103 250.5t251 103.5t251 -103.5t103 -250.5t-103 -251t-251 -104t-251 104t-103 251zM398 58q105 0 182.5 74.5t87.5 184.5h-540q9 -110 86.5 -184.5t183.5 -74.5zM398 627q-103 0 -179.5 -71t-89.5 -176h537q-13 105 -89 176t-179 71z" />
    <glyph glyph-name="uni04E9" unicode="&#x4e9;" horiz-adv-x="541" 
d="M39 224q0 97 68 165t163 68q96 0 164 -68t68 -165q0 -96 -68 -163.5t-164 -67.5q-95 0 -163 67.5t-68 163.5zM270 55q61 0 106 43t52 107h-316q7 -65 52 -107.5t106 -42.5zM270 395q-59 0 -102.5 -39.5t-54.5 -100.5h313q-10 60 -54 100t-102 40z" />
    <glyph glyph-name="uni04EE" unicode="&#x4ee;" horiz-adv-x="591" 
d="M139 605l170 -317l159 322q23 53 28 75h95q-23 -39 -52 -94l-253 -505q-34 -75 -37 -86h-94q21 33 47 82l66 124l-208 377q-35 63 -60 102h102q11 -32 37 -80zM166 801h283v-52h-283v52z" />
    <glyph glyph-name="uni04EF" unicode="&#x4ef;" horiz-adv-x="459" 
d="M129 -191q-23 -37 -46.5 -52t-56.5 -15q-13 0 -25 3q29 35 63 87q101 156 138 226l-146 289q-34 65 -55 102h94q8 -25 33 -77l115 -228q59 124 97 221q16 40 30 84h89q-18 -32 -49 -106q-84 -195 -136 -289q-44 -84 -145 -245zM109 601h242v-55h-242v55z" />
    <glyph glyph-name="uni04F2" unicode="&#x4f2;" horiz-adv-x="591" 
d="M139 605l170 -317l159 322q23 53 28 75h95q-23 -39 -52 -94l-253 -505q-34 -75 -37 -86h-94q21 33 47 82l66 124l-208 377q-35 63 -60 102h102q11 -32 37 -80zM195 735l92 138h74l-100 -138h-66zM340 735l92 138h73l-99 -138h-66z" />
    <glyph glyph-name="uni04F3" unicode="&#x4f3;" horiz-adv-x="459" 
d="M129 -191q-23 -37 -46.5 -52t-56.5 -15q-13 0 -25 3q29 35 63 87q101 156 138 226l-146 289q-34 65 -55 102h94q8 -25 33 -77l115 -228q59 124 97 221q16 40 30 84h89q-18 -32 -49 -106q-84 -195 -136 -289q-44 -84 -145 -245zM131 512l92 138h74l-100 -138h-66zM276 512
l92 138h73l-99 -138h-66z" />
    </font>
</defs>
</svg>
