<?xml version="1.0" standalone="no"?>
<!DOCTYPE svg PUBLIC "-//W3C//DTD SVG 1.1//EN" "http://www.w3.org/Graphics/SVG/1.1/DTD/svg11.dtd" >
<svg>
<metadata>
Created by FontForge 20110222 at Mon Sep  8 02:16:59 2014
 By Orthosie Webhosting
(c) 2007 Adobe Systems Incorporated. All Rights Reserved.
</metadata>
<defs>
<font id="HypatiaSansProBlack" horiz-adv-x="624" >
  <font-face 
    font-family="HypatiaSansProBlack"
    font-weight="900"
    font-stretch="normal"
    units-per-em="1000"
    panose-1="2 11 9 2 2 2 4 2 3 3"
    ascent="734"
    descent="-266"
    x-height="477"
    cap-height="685"
    bbox="-238 -293 1733 1086"
    underline-thickness="46"
    underline-position="-47"
    unicode-range="U+0020-FB06"
  />
<missing-glyph horiz-adv-x="462" 
d="M0 0v647h462v-647h-462zM74 46h314l-157 236zM259 324l157 -236v472zM46 560v-472l157 236zM74 601l157 -236l157 236h-314z" />
    <glyph glyph-name="f_f" unicode="ff" horiz-adv-x="762" 
d="M363 734q89 0 152 -37q53 45 141 45q25 0 65.5 -5t48.5 -5v-167q-20 27 -71 27q-38 0 -57 -23.5t-19 -56.5v-35h111v-135h-111v-242q0 -17 0.5 -53.5t0.5 -46.5h-189q2 46 2 100v242h-136v-242q0 -17 0.5 -53.5t0.5 -46.5h-188q1 23 1 100v242h-87v135h87v26
q0 106 69 168.5t179 62.5zM301 508v-31h136v23q0 22 5 60q-24 24 -64 24q-35 0 -56 -23t-21 -53z" />
    <glyph glyph-name="f_f_i" unicode="ffi" horiz-adv-x="991" 
d="M935 325v-225q0 -43 3 -100h-192q3 32 3 100v232h-126v-232q0 -54 2 -100h-189q2 46 2 100v232h-137v-232q0 -17 0.5 -53.5t0.5 -46.5h-189q2 46 2 100v232h-87v145h87v2q0 123 71.5 189t187.5 66q96 0 159 -40q70 48 178 48q57 0 108.5 -13t62.5 -14v-182
q-36 36 -70 52.5t-90 16.5q-99 0 -99 -103v-22h315q-3 -66 -3 -152zM301 477h137v26q0 31 10 66q-29 25 -69 25q-29 0 -53.5 -20t-24.5 -62v-35z" />
    <glyph glyph-name="f_f_l" unicode="ffl" horiz-adv-x="1006" 
d="M695 601q-72 0 -72 -95v-29h96v-145h-96v-232q0 -54 2 -100h-189q2 46 2 100v232h-137v-232q0 -17 0.5 -53.5t0.5 -46.5h-189q2 46 2 100v232h-87v145h87v15q0 113 74.5 177.5t184.5 64.5q96 0 160 -40q67 48 177 48q71 0 136 -20.5t99 -20.5h3q-3 -32 -3 -111v-490
q0 -72 3 -100h-191q2 42 2 100v472q-22 29 -65 29zM301 477h137v19q0 46 10 72q-24 26 -69 26q-38 0 -58 -23.5t-20 -61.5v-32z" />
    <glyph glyph-name="longs_t" unicode="&#x17f;t" horiz-adv-x="793" 
d="M383 477h64v5q0 100 -69 100q-36 0 -57 -28t-21 -81v-368q0 -57 2 -105h-189q2 48 2 105v219h-87v153h87v9q0 110 71.5 182t195.5 72q112 0 181 -71.5t69 -186.5v-5h124v-153h-124v-91q0 -88 66 -88q28 0 44 11v-156q-9 0 -38.5 -3.5t-54.5 -3.5q-91 0 -146.5 52.5
t-55.5 161.5v117h-64v153z" />
    <glyph glyph-name="T_h" unicode="Th" horiz-adv-x="1159" 
d="M918 100v169q0 33 -14.5 51t-39.5 18q-58 0 -58 -73v-165q0 -61 5 -100h-194q3 46 3 100v424h-188v-345q0 -138 4 -179h-206q5 78 5 179v217q0 72 -3 128h-23q-103 0 -181 -5v170q62 -4 181 -4h602q-5 -26 -5 -99v-151q41 51 126 51q86 0 129 -59.5t43 -162.5v-164
q0 -61 5 -100h-195q4 41 4 100z" />
    <glyph glyph-name="f_b" unicode="fb" horiz-adv-x="1010" 
d="M623 601v-156q40 42 127 42q105 0 167.5 -68.5t62.5 -172.5q0 -112 -68.5 -182.5t-177.5 -70.5q-31 0 -63.5 10.5t-47.5 26.5v-30h-186v573q-27 27 -59 27q-78 0 -78 -89v-34h96v-145h-96v-232q0 -54 2 -100h-189q2 46 2 100v232h-87v145h87v12q0 67 23.5 118t62.5 79
t82 42t88 14q90 0 151 -19.5t104 -19.5q-3 -33 -3 -102zM619 240q0 -39 26 -66t62 -27q35 0 59 27t24 66q0 38 -25 65.5t-62 27.5q-35 0 -59.5 -27.5t-24.5 -65.5z" />
    <glyph glyph-name="f_f_b" unicode="ffb" horiz-adv-x="1333" 
d="M695 601q-32 0 -52 -23.5t-20 -65.5v-35h96v-145h-96v-232q0 -54 2 -100h-189q2 46 2 100v232h-137v-232q0 -17 0.5 -53.5t0.5 -46.5h-189q2 46 2 100v232h-87v145h87v9q0 113 72 180.5t177 67.5q107 0 171 -40q23 22 73 35t104 13q60 0 134 -20.5t100 -20.5h3
q-3 -66 -3 -74v-182q42 42 128 42q104 0 166.5 -68.5t62.5 -172.5q0 -112 -68.5 -182.5t-177.5 -70.5q-31 0 -63 10.5t-48 26.5v-30h-190q4 40 4 100v471q-21 30 -65 30zM943 240q0 -39 25.5 -66t61.5 -27q35 0 59.5 27t24.5 66q0 38 -25 65.5t-62 27.5q-35 0 -59.5 -27.5
t-24.5 -65.5zM301 477h137v27q0 32 9 64q-22 26 -68 26q-38 0 -58 -23.5t-20 -61.5v-32z" />
    <glyph glyph-name="f_f_h" unicode="ffh" horiz-adv-x="1299" 
d="M695 601q-72 0 -72 -95v-29h96v-145h-96v-232q0 -54 2 -100h-189q2 46 2 100v232h-137v-232q0 -17 0.5 -53.5t0.5 -46.5h-189q2 46 2 100v232h-87v145h87v15q0 113 74.5 177.5t184.5 64.5q96 0 160 -40q67 48 177 48q71 0 136 -20.5t99 -20.5h3q-3 -32 -3 -111v-155
q41 51 126 51q86 0 129 -59.5t43 -162.5v-164q0 -61 5 -100h-195q4 41 4 100v169q0 33 -14.5 51t-39.5 18q-55 0 -58 -66v-172q0 -72 3 -100h-191q2 42 2 100v472q-22 29 -65 29zM301 477h137v19q0 46 10 72q-24 26 -69 26q-38 0 -58 -23.5t-20 -61.5v-32z" />
    <glyph glyph-name="f_f_j" unicode="ffj" horiz-adv-x="995" 
d="M935 377v-381q0 -130 -57 -195.5t-138 -65.5q-41 0 -77 4.5t-40 4.5v160q14 -13 53 -13q73 0 73 133v308h-126v-232q0 -54 2 -100h-189q2 46 2 100v232h-137v-232q0 -17 0.5 -53.5t0.5 -46.5h-189q2 46 2 100v232h-87v145h87v2q0 123 71.5 189t187.5 66q96 0 159 -40
q70 48 178 48q57 0 108.5 -13t62.5 -14v-182q-36 36 -70 52.5t-90 16.5q-99 0 -99 -103v-22h315q-3 -36 -3 -100zM301 477h137v26q0 31 10 66q-29 25 -69 25q-29 0 -53.5 -20t-24.5 -62v-35z" />
    <glyph glyph-name="f_f_k" unicode="ffk" horiz-adv-x="1316" 
d="M695 601q-72 0 -72 -95v-29h96v-145h-96v-232q0 -54 2 -100h-189q2 46 2 100v232h-137v-232q0 -17 0.5 -53.5t0.5 -46.5h-189q2 46 2 100v232h-87v145h87v15q0 113 74.5 177.5t184.5 64.5q96 0 160 -40q67 48 177 48q71 0 136 -20.5t99 -20.5h3q-3 -32 -3 -111v-301
q100 150 118 188h190q-35 -44 -147 -213q133 -179 209 -264h-228q-9 16 -142 191v-91q0 -72 3 -100h-191q2 42 2 100v472q-22 29 -65 29zM301 477h137v19q0 46 10 72q-24 26 -69 26q-38 0 -58 -23.5t-20 -61.5v-32z" />
    <glyph glyph-name="f_f_t" unicode="fft" horiz-adv-x="1132" 
d="M301 342v-242q0 -17 0.5 -53.5t0.5 -46.5h-188q1 23 1 100v242h-87v135h87v23q0 105 66.5 169.5t176.5 64.5q94 0 157 -37q55 45 141 45q32 0 64.5 -4.5t40.5 -4.5v-159q-25 18 -64 18q-34 0 -54 -22.5t-20 -66.5v-26h162v40q0 43 -2 91h189q0 -13 -0.5 -49.5t-0.5 -41.5
v-40h124v-135h-124v-114q0 -83 65 -83q35 0 44 10v-155q-8 0 -40.5 -4t-59.5 -4q-84 0 -139.5 50.5t-55.5 147.5v152h-162v-242q0 -17 0.5 -53.5t0.5 -46.5h-189q2 46 2 100v242h-136zM301 504v-27h136v17q0 41 5 67q-25 23 -66 23q-36 0 -55.5 -24.5t-19.5 -55.5z" />
    <glyph glyph-name="f_h" unicode="fh" horiz-adv-x="975" 
d="M623 601v-166q39 51 125 51t129 -59.5t43 -162.5v-164q0 -61 5 -100h-194q3 31 3 100v169q0 33 -14.5 51t-39.5 18q-57 0 -57 -73v-165q0 -72 3 -100h-192q3 32 3 100v473q-27 27 -59 27q-78 0 -78 -89v-34h96v-145h-96v-232q0 -54 2 -100h-189q2 46 2 100v232h-87v145
h87v12q0 67 23.5 118t62.5 79t82 42t88 14q90 0 151 -19.5t104 -19.5q-3 -33 -3 -102z" />
    <glyph glyph-name="f_i" unicode="fi" horiz-adv-x="672" 
d="M612 324v-224q0 -62 4 -100h-192q2 42 2 100v242h-125v-242q0 -17 0.5 -53.5t0.5 -46.5h-189q2 46 2 100v242h-87v135h87v9q0 119 69 187.5t211 68.5q46 0 97 -13t67 -14v-182q-69 69 -151 69q-107 0 -107 -93v-32h315q-4 -44 -4 -153z" />
    <glyph glyph-name="f_j" unicode="fj" horiz-adv-x="672" 
d="M613 377v-381q0 -130 -57 -195.5t-138 -65.5q-41 0 -77 4.5t-40 4.5v160q14 -13 53 -13q73 0 73 133v309l-1 -1h-125v-232q0 -17 0.5 -53.5t0.5 -46.5h-189q2 46 2 100v232h-87v145h87v9q0 119 69 187.5t211 68.5q46 0 97 -13t67 -14v-182q-69 69 -151 69
q-107 0 -107 -93v-32h315q-3 -36 -3 -100z" />
    <glyph glyph-name="f_k" unicode="fk" horiz-adv-x="993" 
d="M623 601v-311q84 127 117 187h191q-20 -25 -148 -213q176 -226 210 -264h-228q-7 12 -16.5 26.5t-17.5 26t-24 32t-24 31t-29.5 37.5t-30.5 38v-91q0 -72 3 -100h-192q3 32 3 100v473q-27 27 -59 27q-78 0 -78 -89v-34h96v-145h-96v-232q0 -54 2 -100h-189q2 46 2 100
v232h-87v145h87v12q0 67 23.5 118t62.5 79t82 42t88 14q90 0 151 -19.5t104 -19.5q-3 -33 -3 -102z" />
    <glyph glyph-name="f_l" unicode="fl" horiz-adv-x="683" 
d="M623 601v-501q0 -72 3 -100h-192q3 32 3 100v473q-27 27 -59 27q-78 0 -78 -89v-34h96v-145h-96v-232q0 -54 2 -100h-189q2 46 2 100v232h-87v145h87v12q0 67 23.5 118t62.5 79t82 42t88 14q90 0 151 -19.5t104 -19.5q-3 -33 -3 -102z" />
    <glyph glyph-name="f_t" unicode="ft" horiz-adv-x="824" 
d="M28 342v135h87v17q0 121 58 183.5t160 62.5q32 0 64.5 -4.5t40.5 -4.5v-157q-22 16 -64 16q-34 0 -53.5 -23.5t-19.5 -67.5v-22h176v40q0 43 -2 91h189q0 -13 -0.5 -49.5t-0.5 -41.5v-40h124v-135h-124v-114q0 -83 65 -83q35 0 44 10v-155q-8 0 -40.5 -4t-59.5 -4
q-84 0 -139.5 50.5t-55.5 147.5v152h-176v-242q0 -17 0.5 -53.5t0.5 -46.5h-189q2 46 2 100v242h-87z" />
    <glyph glyph-name="longs_b" unicode="&#x17f;b" horiz-adv-x="1010" 
d="M623 601v-156q40 42 127 42q105 0 167.5 -68.5t62.5 -172.5q0 -112 -68.5 -182.5t-177.5 -70.5q-31 0 -63.5 10.5t-47.5 26.5v-30h-186v573q-27 27 -59 27q-78 0 -78 -89v-411q0 -54 2 -100h-189q2 46 2 100v224h-87v153h87v12q0 67 23.5 118t62.5 79t82 42t88 14
q90 0 151 -19.5t104 -19.5q-3 -33 -3 -102zM619 240q0 -39 26 -66t62 -27q35 0 59 27t24 66q0 38 -25 65.5t-62 27.5q-35 0 -59.5 -27.5t-24.5 -65.5z" />
    <glyph glyph-name="longs_h" unicode="&#x17f;h" horiz-adv-x="976" 
d="M623 601v-166q39 51 125 51t129 -59.5t43 -162.5v-164q0 -61 5 -100h-194q3 31 3 100v169q0 33 -14.5 51t-39.5 18q-54 0 -57 -66v-172q0 -72 3 -100h-192q3 32 3 100v473q-27 27 -59 27q-78 0 -78 -89v-411q0 -54 2 -100h-189q2 46 2 100v224h-87v153h87v12
q0 67 23.5 118t62.5 79t82 42t88 14q90 0 151 -19.5t104 -19.5q-3 -33 -3 -102z" />
    <glyph glyph-name="longs_i" unicode="&#x17f;i" horiz-adv-x="673" 
d="M300 462v-362q0 -54 2 -100h-189q2 46 2 100v224h-87v153h87v9q0 120 68.5 188t206.5 68q49 0 98.5 -13t70.5 -14v-181q-23 20 -39.5 32t-47 24t-63.5 12q-65 0 -87 -34t-22 -106zM613 377v-277q0 -62 4 -100h-192q2 42 2 100v272h-52q8 14 37 105h205q-4 -44 -4 -100z
" />
    <glyph glyph-name="longs_k" unicode="&#x17f;k" horiz-adv-x="991" 
d="M623 601v-308q77 115 115 184h191q-20 -25 -148 -213q176 -226 210 -264h-228q-22 39 -140 188v-88q0 -72 3 -100h-192q3 32 3 100v473q-27 27 -59 27q-78 0 -78 -89v-411q0 -54 2 -100h-189q2 46 2 100v224h-87v153h87v12q0 67 23.5 118t62.5 79t82 42t88 14
q90 0 151 -19.5t104 -19.5q-3 -33 -3 -102z" />
    <glyph glyph-name="longs_l" unicode="&#x17f;l" horiz-adv-x="683" 
d="M623 601v-501q0 -72 3 -100h-192q3 32 3 100v473q-27 27 -59 27q-78 0 -78 -89v-411q0 -54 2 -100h-189q2 46 2 100v224h-87v153h87v12q0 67 23.5 118t62.5 79t82 42t88 14q90 0 151 -19.5t104 -19.5q-3 -33 -3 -102z" />
    <glyph glyph-name="longs_longs_i" unicode="&#x17f;&#x17f;i" horiz-adv-x="984" 
d="M300 484v-384q0 -54 2 -100h-189q2 46 2 100v224h-87v153h87v5q0 119 71.5 185.5t187.5 66.5q89 0 159 -39q68 47 172 47q57 0 110 -12.5t67 -13.5v-183q-23 28 -65.5 49t-93.5 21q-59 0 -79.5 -32.5t-20.5 -108.5v-362q0 -54 2 -100h-189q2 46 2 100v224h-87v153h87v32
q0 38 10 61q-26 23 -63 23q-42 0 -63.5 -24.5t-21.5 -84.5zM935 377v-277q0 -62 4 -100h-192q2 42 2 100v272h-52q8 14 37 105h205q-4 -44 -4 -100z" />
    <glyph glyph-name="longs_longs_l" unicode="&#x17f;&#x17f;l" horiz-adv-x="1006" 
d="M300 509v-409q0 -54 2 -100h-189q2 46 2 100v224h-87v153h87v15q0 113 74.5 177.5t184.5 64.5q96 0 160 -40q67 48 177 48q71 0 136 -20.5t99 -20.5h3q-3 -32 -3 -111v-490q0 -72 3 -100h-191q2 42 2 100v472q-22 29 -65 29q-72 0 -72 -95v-406q0 -66 3 -100h-190
q2 46 2 100v224h-87v153h87v19q0 46 10 72q-24 26 -69 26q-38 0 -58.5 -23.5t-20.5 -61.5z" />
    <glyph glyph-name="t_f" unicode="tf" horiz-adv-x="780" 
d="M277 324v-96q0 -83 65 -83q35 0 45 10v-155q-9 0 -41 -4t-59 -4q-84 0 -139.5 50.5t-55.5 147.5v134h-64v153h64v40q0 55 -3 91h191q-3 -36 -3 -91v-40h177v17q0 121 57.5 183.5t156.5 62.5q29 0 63 -4.5t57 -4.5v-167q-23 26 -75 26q-33 0 -53 -23t-20 -66v-24h111v-153
h-111v-224q0 -66 3 -100h-192q3 69 3 100v224h-177z" />
    <glyph glyph-name="t_t" unicode="tt" horiz-adv-x="814" 
d="M89 608h191q-3 -36 -3 -91v-40h124v-153h-124v-96q0 -83 65 -83q35 0 45 10v-155q-9 0 -41 -4t-59 -4q-84 0 -139.5 50.5t-55.5 147.5v134h-64v153h64v40q0 55 -3 91zM465 608h191q-3 -36 -3 -91v-40h124v-153h-124v-96q0 -83 65 -83q35 0 45 10v-155q-9 0 -41 -4t-59 -4
q-84 0 -139.5 50.5t-55.5 147.5v134h-64v153h64v40q0 55 -3 91z" />
    <glyph glyph-name="Tcommaaccent_h" unicode="&#x162;h" horiz-adv-x="1159" 
d="M918 100v169q0 33 -14.5 51t-39.5 18q-58 0 -58 -73v-165q0 -61 5 -100h-194q3 46 3 100v424h-188v-345q0 -138 4 -179h-206q5 78 5 179v217q0 72 -3 128h-23q-103 0 -181 -5v170q62 -4 181 -4h602q-5 -26 -5 -99v-151q41 51 126 51q86 0 129 -59.5t43 -162.5v-164
q0 -61 5 -100h-195q4 41 4 100zM267 -124v99q82 0 129.5 -35t47.5 -92q0 -52 -37 -82.5t-102 -30.5q-43 0 -72 13v108q20 -20 48 -20q29 0 29 19q0 21 -43 21z" />
    <glyph glyph-name="Tcaron_h" unicode="&#x164;h" horiz-adv-x="1159" 
d="M918 100v169q0 33 -14.5 51t-39.5 18q-58 0 -58 -73v-165q0 -61 5 -100h-194q3 46 3 100v424h-188v-345q0 -138 4 -179h-206q5 78 5 179v217q0 72 -3 128h-23q-103 0 -181 -5v170q62 -4 181 -4h602q-5 -26 -5 -99v-151q41 51 126 51q86 0 129 -59.5t43 -162.5v-164
q0 -61 5 -100h-195q4 41 4 100zM347 849l35 36h167l-186 -161h-39l-182 161h172z" />
    <glyph glyph-name=".notdef" horiz-adv-x="462" 
d="M0 0v647h462v-647h-462zM74 46h314l-157 236zM259 324l157 -236v472zM46 560v-472l157 236zM74 601l157 -236l157 236h-314z" />
    <glyph glyph-name=".null" horiz-adv-x="0" 
 />
    <glyph glyph-name="nonmarkingreturn" horiz-adv-x="333" 
 />
    <glyph glyph-name="space" unicode=" " horiz-adv-x="196" 
 />
    <glyph glyph-name="exclam" unicode="!" horiz-adv-x="439" 
d="M163 392v181q0 70 -4 112h195q-3 -36 -3 -112v-181q0 -76 3 -113h-195q4 50 4 113zM154 97q0 44 30.5 75t75.5 31t76 -31t31 -75t-31 -75t-76 -31t-75.5 31t-30.5 75z" />
    <glyph glyph-name="quotedbl" unicode="&#x22;" horiz-adv-x="496" 
d="M41 724h181l-30 -300h-123zM275 724h181l-30 -300h-123z" />
    <glyph glyph-name="numbersign" unicode="#" horiz-adv-x="572" 
d="M188 9h-119l30 159h-78v124h100l21 94h-84v121h102l28 150h118l-28 -150h86l29 150h119l-28 -150h76v-121h-95l-20 -94h79v-124h-99l-32 -159h-119l32 159h-87zM240 292h86l19 94h-86z" />
    <glyph glyph-name="dollar" unicode="$" horiz-adv-x="572" 
d="M317 473q0 -16 18.5 -33t45.5 -34.5t54 -40.5t45.5 -60.5t18.5 -84.5q0 -67 -38.5 -113t-105.5 -65v-75h-119v61q-33 1 -77.5 7.5t-63.5 7.5v186q27 -29 70 -48.5t78 -19.5q49 0 49 37q0 17 -18 34t-44 34t-52 39t-44 59.5t-18 85.5q0 62 31.5 106.5t90.5 63.5l-2 81h119
v-66q21 -1 58.5 -6t58.5 -6v-171q-46 52 -115 52q-40 0 -40 -31z" />
    <glyph glyph-name="percent" unicode="%" horiz-adv-x="886" 
d="M215 695h1q75 0 127 -51.5t52 -123.5q0 -78 -53 -132.5t-131 -54.5q-77 0 -128.5 52t-51.5 128t53 129t131 53zM215 568h-1q-22 0 -37.5 -15t-15.5 -36q0 -23 15 -39.5t37 -16.5q21 0 36.5 17t15.5 40q0 21 -15 35.5t-35 14.5zM675 350h1q75 0 127 -50.5t52 -122.5
q0 -77 -53 -131t-130 -54q-76 0 -128 51.5t-52 126.5t53 127.5t130 52.5zM675 224h-1q-21 0 -36 -14.5t-15 -35.5q0 -24 15 -40.5t35 -16.5q21 0 36 17t15 41q0 20 -14.5 34.5t-34.5 14.5zM257 0h-149l521 685h150z" />
    <glyph glyph-name="ampersand" unicode="&#x26;" horiz-adv-x="754" 
d="M548 384h193q-82 -83 -169 -193q56 -47 109 -54v-146q-78 -2 -129.5 14t-97.5 54q-73 -68 -185 -68q-107 0 -164.5 58t-57.5 142q0 97 127 172q-55 51 -55 132q0 69 56 118.5t135 49.5q73 0 126.5 -45t53.5 -120q0 -41 -17.5 -72.5t-60.5 -67.5q37 -35 63 -66
q8 9 31.5 41.5t41.5 50.5zM290 140q37 0 70 30q-49 64 -95 105q-42 -34 -42 -67q0 -27 20.5 -47.5t46.5 -20.5zM266 497q0 -32 45 -58q46 24 46 60q0 17 -12.5 29t-31.5 12q-20 0 -33.5 -13t-13.5 -30z" />
    <glyph glyph-name="quotesingle" unicode="'" horiz-adv-x="263" 
d="M41 724h181l-30 -300h-123z" />
    <glyph glyph-name="parenleft" unicode="(" horiz-adv-x="423" 
d="M376 -27v-166q-164 53 -254 184t-90 287q0 168 94.5 295.5t249.5 174.5v-167q-79 -42 -127.5 -120t-48.5 -177q0 -100 48.5 -184t127.5 -127z" />
    <glyph glyph-name="parenright" unicode=")" horiz-adv-x="423" 
d="M46 582v166q164 -53 254 -184t90 -287q0 -168 -94.5 -295.5t-249.5 -174.5v167q79 42 128 120t49 177q0 100 -48.5 184t-128.5 127z" />
    <glyph glyph-name="asterisk" unicode="*" horiz-adv-x="566" 
d="M55 425v150q37 -12 89 -19l59 -8l-37 46q-51 64 -60 66l130 77q-1 -19 26 -90l21 -54l20 54q27 60 27 89l132 -76q-16 -7 -62 -66l-37 -46l57 8q60 7 91 20v-150q-13 7 -91 21l-57 8l37 -47q29 -39 62 -68l-131 -73q0 16 -28 88l-20 54l-21 -53q-27 -71 -27 -89l-131 75
q23 13 63 67l36 46l-59 -8q-46 -8 -89 -22z" />
    <glyph glyph-name="plus" unicode="+" horiz-adv-x="572" 
d="M365 498v-158h156v-143h-156v-156h-159v156h-155v143h155v158h159z" />
    <glyph glyph-name="comma" unicode="," horiz-adv-x="327" 
d="M88 205h182q0 -228 -85 -368h-146q49 122 49 368z" />
    <glyph glyph-name="hyphen" unicode="-" horiz-adv-x="384" 
d="M32 328h319v-170h-319v170z" />
    <glyph glyph-name="period" unicode="." horiz-adv-x="328" 
d="M47 102q0 49 34 84t83 35q48 0 82.5 -35t34.5 -84q0 -50 -34.5 -85.5t-82.5 -35.5q-49 0 -83 35.5t-34 85.5z" />
    <glyph glyph-name="slash" unicode="/" horiz-adv-x="376" 
d="M166 -37h-166l211 740h165z" />
    <glyph glyph-name="zero" unicode="0" horiz-adv-x="572" 
d="M4 334q0 146 69 243t194 97t193.5 -97t68.5 -243q0 -147 -68.5 -244t-193.5 -97t-194 97.5t-69 243.5zM196 334q0 -191 71 -191q70 0 70 191q0 190 -70 190q-71 0 -71 -190z" />
    <glyph glyph-name="one" unicode="1" horiz-adv-x="572" 
d="M438 549v-444q0 -75 3 -105h-202q3 66 3 105v363q-93 -36 -130 -52v157q140 52 239 104h90q-3 -24 -3 -128z" />
    <glyph glyph-name="two" unicode="2" horiz-adv-x="572" 
d="M75 0v92q107 98 182 213q44 69 44 109q0 41 -25.5 65.5t-65.5 24.5q-74 0 -121 -65v211q14 2 74 15t105 13q112 0 175.5 -63t62.5 -166q-1 -82 -83 -195q-26 -36 -75 -85q1 -1 58 -1q65 0 127 6v-179q-57 5 -168 5h-290z" />
    <glyph glyph-name="three" unicode="3" horiz-adv-x="572" 
d="M212 513q-72 0 -122 -40v174q10 1 36.5 8.5t59.5 13t67 5.5q102 0 162.5 -48t60.5 -130q0 -107 -112 -147q131 -44 131 -161q0 -94 -65.5 -146.5t-176.5 -52.5q-31 0 -66 6.5t-65.5 14.5t-40.5 9v179q19 -21 57 -34.5t74 -13.5q83 0 83 64q0 27 -18.5 41.5t-50.5 14.5
q-21 0 -33 -4v149q10 -3 31 -3q57 0 57 49q0 24 -18 38t-51 14z" />
    <glyph glyph-name="four" unicode="4" horiz-adv-x="572" 
d="M9 228l386 455h64q-2 -26 -2 -119v-287q77 0 110 3v-134q-36 3 -110 3v-73q0 -42 3 -76h-190q3 25 3 76v73h-125q-80 0 -139 -3v82zM273 399l-98 -122h98v122z" />
    <glyph glyph-name="five" unicode="5" horiz-adv-x="572" 
d="M243 -15q-44 0 -109 14.5t-71 15.5v184q20 -20 59.5 -35.5t74.5 -15.5q44 0 68.5 17.5t24.5 50.5t-29 50.5t-75 17.5q-72 0 -112 -21q11 51 31.5 143t30.5 142q14 75 18 122q18 -3 65 -3h152q65 0 89 4v-171q-38 3 -75 3h-103l-16 -71q5 1 26 1q87 0 147 -57.5t60 -156.5
t-74.5 -166.5t-181.5 -67.5z" />
    <glyph glyph-name="six" unicode="6" horiz-adv-x="572" 
d="M387 562q-15 -17 -93 -118q18 5 45 5q89 0 147.5 -66t58.5 -162q0 -95 -76 -162t-184 -67q-105 0 -179.5 71t-74.5 171q0 77 32 142.5t126 190.5q53 69 68 100h222q-19 -19 -92 -105zM221 225q0 -29 20.5 -49.5t48.5 -20.5q27 0 46 19.5t19 46.5q0 28 -19.5 48t-47.5 20
t-47.5 -19t-19.5 -45z" />
    <glyph glyph-name="seven" unicode="7" horiz-adv-x="572" 
d="M154 494q-57 0 -95 -4v180q31 -3 95 -3h322q73 0 96 2l-42 -87q-110 -236 -216 -491q-4 -11 -13 -32t-15 -36t-9 -23h-200q18 29 56 104q83 168 180 390h-159z" />
    <glyph glyph-name="eight" unicode="8" horiz-adv-x="572" 
d="M233 215q0 -25 17.5 -43t42.5 -18t43 18t18 43q0 24 -18 41.5t-43 17.5t-42.5 -17.5t-17.5 -41.5zM244 471q0 -19 14.5 -33t34.5 -14t34.5 14t14.5 33q0 20 -14.5 34t-34.5 14t-34.5 -14t-14.5 -34zM72 490q0 78 62 131t159 53t158.5 -53t61.5 -131q0 -47 -25 -83
t-63 -56q110 -47 110 -157q0 -86 -65.5 -143t-176.5 -57t-177 59t-66 148q0 102 107 150q-85 40 -85 139z" />
    <glyph glyph-name="nine" unicode="9" horiz-adv-x="572" 
d="M315 0h-215q43 46 73 85q58 72 100 137q-4 -2 -20 -2q-96 0 -160 63.5t-64 158.5q0 97 75 164.5t182 67.5q105 0 179.5 -71t74.5 -172q0 -53 -18.5 -104.5t-41.5 -88.5t-75 -110q-9 -12 -30.5 -41.5t-37.5 -52.5t-22 -34zM351 441q0 29 -19 50t-46 21q-28 0 -48 -20
t-20 -48t20 -48t48 -20q27 0 46 19t19 46z" />
    <glyph glyph-name="colon" unicode=":" horiz-adv-x="336" 
d="M59 367q0 46 31.5 78.5t76.5 32.5q46 0 78 -32.5t32 -78.5q0 -47 -32 -79.5t-78 -32.5q-45 0 -76.5 32.5t-31.5 79.5zM59 90q0 46 31.5 78.5t76.5 32.5q46 0 78 -32.5t32 -78.5q0 -47 -32 -79.5t-78 -32.5q-45 0 -76.5 32.5t-31.5 79.5z" />
    <glyph glyph-name="semicolon" unicode=";" horiz-adv-x="361" 
d="M70 367q0 46 31.5 78.5t77.5 32.5q45 0 77 -32.5t32 -78.5t-32 -79t-77 -33q-46 0 -77.5 32.5t-31.5 79.5zM88 187h182q0 -220 -79 -350h-147q44 110 44 350z" />
    <glyph glyph-name="less" unicode="&#x3c;" horiz-adv-x="572" 
d="M521 -13l-476 257v46l476 258v-172l-242 -110l242 -107v-172z" />
    <glyph glyph-name="equal" unicode="=" horiz-adv-x="572" 
d="M521 313h-470v143h470v-143zM521 76h-470v143h470v-143z" />
    <glyph glyph-name="greater" unicode="&#x3e;" horiz-adv-x="572" 
d="M98 557l419 -257v-47l-419 -257v172l194 109l-194 108v172z" />
    <glyph glyph-name="question" unicode="?" horiz-adv-x="454" 
d="M144 524q-56 0 -85 -24v170q3 0 50.5 9t88.5 9q103 0 160 -49.5t57 -135.5q0 -58 -31 -110.5t-89 -87.5q7 -36 17 -70h-185q-1 10 -26 124q57 33 84.5 58t27.5 54q0 21 -18 37t-51 16zM120 95q0 43 30.5 73.5t74.5 30.5t75 -30.5t31 -73.5t-31 -73.5t-75 -30.5
q-43 0 -74 30.5t-31 73.5z" />
    <glyph glyph-name="at" unicode="@" horiz-adv-x="937" 
d="M177 239q0 -128 80 -213t208 -85q86 0 131 29l-7 -133q-6 0 -47.5 -4t-76.5 -4q-185 0 -304.5 117.5t-119.5 292.5t125.5 297t308.5 122q193 0 307 -97t114 -252q0 -122 -62 -197t-168 -75q-59 0 -96 21.5t-46 58.5q-44 -69 -118 -69q-57 0 -95.5 46t-38.5 114
q0 93 54 160.5t128 67.5q63 0 91 -39q3 18 3 29h131l-35 -210q-5 -29 3 -46.5t27 -17.5q85 0 85 142q0 116 -73 184t-211 68q-126 0 -212 -90t-86 -217zM522 251q0 21 -11.5 36t-27.5 15q-25 0 -42.5 -20t-17.5 -49q0 -20 13 -35t32 -15q23 0 38.5 20t15.5 48z" />
    <glyph glyph-name="A" unicode="A" horiz-adv-x="746" 
d="M746 0h-225q-5 14 -25 63l-20 46h-239l-31 -66q-13 -29 -15 -43h-191q45 76 81 152l258 545h53l269 -545q27 -56 85 -152zM413 257l-59 141l-57 -141h116z" />
    <glyph glyph-name="B" unicode="B" horiz-adv-x="647" 
d="M70 0q5 52 5 179v293q0 173 -4 213h248q129 0 185.5 -50.5t56.5 -118.5q0 -92 -81 -132q46 -20 82 -62t36 -106q0 -91 -71 -153.5t-208 -62.5h-249zM401 214q0 35 -25 59t-65 24h-41v-168h36q95 0 95 85zM270 561v-137h30q33 0 53 17.5t20 50.5q0 28 -20.5 48.5
t-51.5 20.5h-31z" />
    <glyph glyph-name="C" unicode="C" horiz-adv-x="645" 
d="M238 344q0 -78 53.5 -132.5t133.5 -54.5q97 0 156 58v-210q-18 -1 -69.5 -9t-104.5 -8q-161 0 -262.5 102.5t-101.5 253.5q0 150 101.5 252.5t262.5 102.5q51 0 98.5 -7.5t67.5 -7.5v-217q-60 62 -150 62q-79 0 -132 -53.5t-53 -131.5z" />
    <glyph glyph-name="D" unicode="D" horiz-adv-x="732" 
d="M345 0h-276q5 52 5 179v327q0 129 -5 179h276q142 0 243 -100t101 -242t-101 -242.5t-243 -100.5zM270 525v-365h59q69 0 117 54t48 129q0 74 -48.5 128t-117.5 54h-58z" />
    <glyph glyph-name="E" unicode="E" horiz-adv-x="566" 
d="M322 524h-53v-93h40q111 0 173 4v-169q-62 4 -173 4h-40v-108h61q114 0 174 4v-170q-60 4 -174 4h-261q4 110 4 179v328q0 118 -4 178h253q81 0 174 6v-171q-41 4 -174 4z" />
    <glyph glyph-name="F" unicode="F" horiz-adv-x="546" 
d="M69 0q4 62 4 179v327q0 119 -4 179h253q112 0 174 4v-169q-41 4 -174 4h-53v-123h35q103 0 163 4v-169q-40 4 -163 4h-35v-61q0 -117 4 -179h-204z" />
    <glyph glyph-name="G" unicode="G" horiz-adv-x="691" 
d="M615 179v-160q-9 -1 -69.5 -16.5t-127.5 -15.5q-168 0 -271.5 102.5t-103.5 253.5t102 253.5t269 102.5q40 0 70 -3.5t58.5 -9t46.5 -7.5v-212q-64 65 -167 65q-82 0 -132.5 -54t-50.5 -135q0 -79 53 -134.5t127 -55.5q9 0 12 2v32q0 72 -4 132h192q-4 -40 -4 -140z" />
    <glyph glyph-name="H" unicode="H" horiz-adv-x="765" 
d="M270 506v-67h225v67q0 109 -5 179h205q-5 -110 -5 -179v-362q0 -74 5 -144h-205q5 47 5 145v132h-225v-133q0 -88 4 -144h-203q4 56 4 145v361q0 125 -4 179h203q-4 -54 -4 -179z" />
    <glyph glyph-name="I" unicode="I" horiz-adv-x="345" 
d="M271 506v-327q0 -117 4 -179h-203q4 62 4 179v327q0 119 -4 179h203q-4 -60 -4 -179z" />
    <glyph glyph-name="J" unicode="J" horiz-adv-x="344" 
d="M270 506v-524q0 -114 -76.5 -187t-191.5 -73q-23 0 -61 6.5t-60 6.5v196q34 -45 107 -45q38 0 62 30t24 76v514q0 119 -4 179h204q-4 -60 -4 -179z" />
    <glyph glyph-name="K" unicode="K" horiz-adv-x="740" 
d="M269 506v-130l125 187q49 76 73 122h217q-40 -52 -89 -124l-136 -198l161 -217q29 -39 120 -146h-264q-22 45 -63 99l-144 199v-119q0 -117 4 -179h-204q4 62 4 179v327q0 119 -4 179h204q-4 -60 -4 -179z" />
    <glyph glyph-name="L" unicode="L" horiz-adv-x="560" 
d="M269 506v-341h85q131 0 178 3v-172q-62 4 -178 4h-285q4 110 4 179v327q0 119 -4 179h204q-4 -60 -4 -179z" />
    <glyph glyph-name="M" unicode="M" horiz-adv-x="869" 
d="M737 697l81 -517q16 -108 39 -180h-217q0 21 -6.5 64t-17.5 104.5t-16 100.5l-165 -280h-35l-164 282q-44 -220 -45 -271h-178q3 10 36 181l99 516h49l241 -423l248 423h51z" />
    <glyph glyph-name="N" unicode="N" horiz-adv-x="739" 
d="M260 144q0 -88 4 -144h-195q4 56 4 145v354q0 91 -4 199h41q67 -67 115 -107l254 -218v133q0 95 -4 179h195q-5 -110 -5 -179v-356q0 -90 5 -162h-39q-73 75 -98 97l-273 234v-175z" />
    <glyph glyph-name="O" unicode="O" horiz-adv-x="831" 
d="M42 343q0 148 107 251.5t266 103.5q160 0 267 -103.5t107 -251.5q0 -149 -107 -252.5t-267 -103.5q-159 0 -266 103.5t-107 252.5zM239 343q0 -80 50.5 -135.5t125.5 -55.5t126 55.5t51 135.5t-51 135.5t-126 55.5t-125.5 -55.5t-50.5 -135.5z" />
    <glyph glyph-name="P" unicode="P" horiz-adv-x="629" 
d="M270 226v-47q0 -127 5 -179h-205q5 52 5 179v327q0 129 -5 179h263q122 0 190.5 -64t68.5 -168q0 -105 -67.5 -166t-191.5 -61h-63zM270 538v-165h39q41 0 64.5 25t23.5 57q0 31 -23.5 57t-64.5 26h-39z" />
    <glyph glyph-name="Q" unicode="Q" horiz-adv-x="832" 
d="M42 343q0 149 107 252.5t266 103.5q161 0 268 -103.5t107 -252.5q0 -89 -39 -161t-95 -116q29 -26 59 -44q76 -44 151 -44q45 0 80 9v-142q-59 -17 -128 -17q-140 0 -255 90q-43 34 -82 75q-22 -7 -66 -7q-159 0 -266 104t-107 253zM239 343q0 -79 51.5 -134.5
t124.5 -55.5q74 0 126 55.5t52 134.5t-52 134.5t-126 55.5q-73 0 -124.5 -55.5t-51.5 -134.5z" />
    <glyph glyph-name="R" unicode="R" horiz-adv-x="700" 
d="M270 242v-62q0 -128 5 -180h-205q5 52 5 180v326q0 129 -5 179h254q128 0 199 -62.5t71 -162.5q0 -143 -135 -188q30 -31 109.5 -128t131.5 -144h-253q-32 38 -83 116t-69 127q-4 -1 -9 -1h-16zM270 531v-150h48q36 0 58.5 21t22.5 52q0 32 -22.5 54.5t-61.5 22.5h-45z
" />
    <glyph glyph-name="S" unicode="S" horiz-adv-x="562" 
d="M288 510q0 -20 22 -40.5t53 -41.5t62 -48t53 -71.5t22 -99.5q0 -102 -74.5 -163.5t-190.5 -61.5q-42 0 -100.5 8t-77.5 9v211q28 -33 81 -54.5t98 -21.5q27 0 41.5 12.5t14.5 32.5q0 23 -21 44t-51 42t-60.5 46.5t-51.5 68.5t-21 97q0 103 66.5 162t186.5 59q29 0 72 -7
t64 -8v-193q-23 29 -60.5 44.5t-74.5 15.5q-53 0 -53 -42z" />
    <glyph glyph-name="T" unicode="T" horiz-adv-x="665" 
d="M208 685h247q122 0 182 4v-170q-75 5 -182 5h-23q-1 -37 -1 -128v-217q0 -127 5 -179h-207q5 78 5 179v217q0 72 -3 128h-23q-105 0 -180 -5v170q60 -4 180 -4z" />
    <glyph glyph-name="U" unicode="U" horiz-adv-x="730" 
d="M68 685h205q-5 -68 -5 -179v-235q0 -54 28.5 -83.5t68.5 -29.5q41 0 69.5 29.5t28.5 83.5v235q0 95 -4 179h203q-3 -66 -3 -179v-230q0 -132 -84 -209.5t-210 -77.5q-127 0 -210 77t-83 210v230q0 125 -4 179z" />
    <glyph glyph-name="V" unicode="V" horiz-adv-x="721" 
d="M261 577l108 -233l106 232q37 85 45 109h201q-35 -57 -80 -151l-265 -547h-30l-265 547q-51 106 -81 151h219q13 -49 42 -108z" />
    <glyph glyph-name="W" unicode="W" horiz-adv-x="1101" 
d="M536 603l35 -61l20 40q33 65 47 103h184q-50 -84 -90 -156l-74 -134l51 -93l147 289q32 62 44 94h196q-8 -15 -30 -52.5t-37 -66.5l-316 -575h-14l-136 238l-131 -238h-25l-306 530q-77 132 -99 164h219q19 -46 49 -100l168 -296l40 79l-109 192q-33 57 -79 125h203
q17 -34 43 -82z" />
    <glyph glyph-name="X" unicode="X" horiz-adv-x="678" 
d="M399 78l-70 117l-74 -128q-34 -63 -34 -67h-221q36 42 115 159l118 187l-117 183q-71 111 -107 156h234q19 -37 44 -82l53 -94l57 98q28 50 41 78h216q-42 -51 -105 -147l-114 -177l122 -186q76 -120 123 -175h-239q-9 22 -42 78z" />
    <glyph glyph-name="Y" unicode="Y" horiz-adv-x="706" 
d="M253 0q3 93 3 149v148l-165 260q-54 83 -91 128h236q17 -39 38 -75l87 -146l85 143q22 35 42 78h218q-33 -42 -102 -149l-153 -237v-150q0 -87 4 -149h-202z" />
    <glyph glyph-name="Z" unicode="Z" horiz-adv-x="606" 
d="M492 534l-177 -372h85q105 0 165 4v-170q-60 4 -165 4h-375q30 52 77 152l172 372h-72q-124 0 -165 -4v169q62 -4 165 -4h364q-34 -67 -74 -151z" />
    <glyph glyph-name="bracketleft" unicode="[" horiz-adv-x="441" 
d="M74 -179q3 33 3 105v703q0 71 -3 105h238q48 0 83 3v-145q-33 3 -84 3h-82v-635h83q48 0 83 3v-145q-33 3 -84 3h-237z" />
    <glyph glyph-name="backslash" unicode="\" horiz-adv-x="376" 
d="M376 -37h-166l-210 740h165z" />
    <glyph glyph-name="bracketright" unicode="]" horiz-adv-x="441" 
d="M367 -179h-237q-51 0 -84 -3v145q34 -3 83 -3h83v635h-82q-51 0 -84 -3v145q34 -3 83 -3h238q-3 -35 -3 -105v-703q0 -72 3 -105z" />
    <glyph glyph-name="asciicircum" unicode="^" horiz-adv-x="509" 
d="M249 576l-71 -87h-176l238 248h29l238 -248h-182z" />
    <glyph glyph-name="underscore" unicode="_" horiz-adv-x="481" 
d="M8 -69h463v-47h-463v47z" />
    <glyph glyph-name="grave" unicode="`" horiz-adv-x="462" 
d="M111 708l126 -170h-159l-155 170h188z" />
    <glyph glyph-name="a" unicode="a" horiz-adv-x="539" 
d="M196 354q-73 0 -122 -47v145q3 0 60 17.5t116 17.5q107 0 159.5 -58t52.5 -160v-104q0 -37 26 -37q18 0 27 5v-103q-49 -42 -115 -42q-67 0 -101 49q-44 -49 -114 -49q-68 0 -110 40.5t-42 107.5q0 66 43 110t116 44q59 0 89 -19v19q0 64 -85 64zM209 142q0 -16 11 -26.5
t27 -10.5t27 10.5t11 26.5q0 14 -11 24.5t-27 10.5t-27 -10.5t-11 -24.5z" />
    <glyph glyph-name="b" unicode="b" horiz-adv-x="633" 
d="M60 100v530h-52q27 62 36 104h206q-4 -32 -4 -99v-190q40 42 128 42q104 0 166.5 -68.5t62.5 -172.5q0 -113 -69.5 -183t-178.5 -70q-31 0 -62.5 9.5t-46.5 24.5v-27h-190q4 40 4 100zM242 240q0 -39 26 -66t62 -27q35 0 59 27t24 66t-25 66t-61 27q-35 0 -60 -27.5
t-25 -65.5z" />
    <glyph glyph-name="c" unicode="c" horiz-adv-x="451" 
d="M209 238q0 -36 26.5 -61.5t64.5 -25.5q58 0 97 47v-195q-5 0 -37.5 -5t-63.5 -5q-118 0 -193 71t-75 174q0 105 75.5 177t192.5 72q20 0 53.5 -5.5t43.5 -5.5v-192q-39 43 -93 43q-38 0 -64.5 -26t-26.5 -63z" />
    <glyph glyph-name="d" unicode="d" horiz-adv-x="633" 
d="M573 622v-522q0 -57 4 -100h-191q1 15 1 44q-50 -51 -138 -51q-95 0 -157 71.5t-62 171.5q0 108 65 179.5t170 71.5q88 0 122 -36v179h-52q20 40 36 104h206q-4 -49 -4 -112zM390 239q0 38 -25.5 65.5t-62.5 27.5q-35 0 -59 -27t-24 -66t25.5 -66t62.5 -27q34 0 58.5 27
t24.5 66z" />
    <glyph glyph-name="e" unicode="e" horiz-adv-x="533" 
d="M500 200h-293q34 -67 122 -67q62 0 113 27v-149q-11 0 -58.5 -9.5t-87.5 -9.5q-112 0 -188 70.5t-76 174.5t68 176.5t168 72.5q101 0 167.5 -72t66.5 -177q0 -21 -2 -37zM262 354q-21 0 -38 -17t-23 -43h118q-3 23 -17.5 41.5t-39.5 18.5z" />
    <glyph glyph-name="f" unicode="f" horiz-adv-x="441" 
d="M28 324v153h87v17q0 121 57.5 183.5t156.5 62.5q29 0 63 -4.5t57 -4.5v-167q-23 26 -75 26q-33 0 -53 -23t-20 -66v-24h111v-153h-111v-224q0 -66 3 -100h-192q3 69 3 100v224h-87z" />
    <glyph glyph-name="g" unicode="g" horiz-adv-x="562" 
d="M400 477h148q0 -30 -16.5 -59t-41.5 -42q19 -28 19 -76q0 -75 -66 -129.5t-162 -54.5q-11 0 -30.5 1t-23.5 1q-21 0 -21 -20q0 -19 32 -19q4 0 16.5 0.5t18.5 0.5q115 0 190.5 -45.5t75.5 -130.5q0 -71 -79 -119t-188 -48q-104 0 -178 47t-74 111q0 72 57 106
q-42 23 -42 72q0 38 24.5 65.5t60.5 30.5q-67 52 -67 129q0 78 64.5 133.5t163.5 55.5q64 0 116 -25q3 6 3 15zM223 298q0 -21 17 -36t41 -15q23 0 39 15t16 36q0 22 -16 37.5t-39 15.5q-24 0 -41 -15.5t-17 -37.5zM184 -101q0 -20 27.5 -34t65.5 -14q35 0 61 13t26 32
q0 21 -30.5 35t-74.5 14q-30 0 -52.5 -13.5t-22.5 -32.5z" />
    <glyph glyph-name="h" unicode="h" horiz-adv-x="599" 
d="M358 100v169q0 33 -14.5 51t-40.5 18q-57 0 -57 -73v-165q0 -61 5 -100h-195q4 41 4 100v530h-52q24 50 36 104h207q-5 -39 -5 -99v-200q48 51 126 51q86 0 129 -59.5t43 -162.5v-164q0 -61 5 -100h-195q4 41 4 100z" />
    <glyph glyph-name="i" unicode="i" horiz-adv-x="309" 
d="M249 377v-277q0 -62 4 -100h-194q4 42 4 100v272h-52q24 43 37 105h205q-4 -44 -4 -100zM57 623q0 42 29 71.5t70 29.5t69.5 -29.5t28.5 -71.5q0 -41 -28.5 -70.5t-69.5 -29.5t-70 29.5t-29 70.5z" />
    <glyph glyph-name="j" unicode="j" horiz-adv-x="309" 
d="M249 377v-363q0 -130 -57 -196t-138 -66q-40 0 -76 4.5t-41 4.5v160q16 -13 53 -13q73 0 73 115v349h-52q23 56 37 105h204q-3 -36 -3 -100zM57 624q0 41 29.5 70.5t70.5 29.5q40 0 68.5 -29.5t28.5 -70.5q0 -42 -28.5 -71.5t-68.5 -29.5q-41 0 -70.5 29.5t-29.5 71.5z
" />
    <glyph glyph-name="k" unicode="k" horiz-adv-x="616" 
d="M246 635v-346q100 150 118 188h190q-35 -44 -147 -213q133 -179 209 -264h-228q-9 16 -142 191v-91q0 -56 4 -100h-194q4 29 4 100v530h-52q24 58 36 104h206q-4 -29 -4 -99z" />
    <glyph glyph-name="l" unicode="l" horiz-adv-x="306" 
d="M246 635v-535q0 -71 4 -100h-194q4 29 4 100v530h-52q25 54 36 104h206q-4 -29 -4 -99z" />
    <glyph glyph-name="m" unicode="m" horiz-adv-x="888" 
d="M351 0q4 51 4 100v165q0 35 -13.5 54.5t-37.5 19.5q-55 0 -55 -75v-164q0 -66 3 -100h-191q2 46 2 100v272h-52q24 54 36 105h203v-57q50 66 139 66q90 0 124 -67q51 67 143 67q78 0 127.5 -53t49.5 -150v-183q0 -60 4 -100h-194q4 68 4 100v156q0 83 -51 83
q-55 0 -55 -78v-161q0 -44 3 -100h-193z" />
    <glyph glyph-name="n" unicode="n" horiz-adv-x="601" 
d="M360 260q0 36 -14 57.5t-41 21.5q-56 0 -56 -78v-161q0 -63 4 -100h-193q3 42 3 100v272h-52q24 55 37 105h201v-49q44 58 127 58q170 0 170 -226v-160q0 -63 4 -100h-194q4 37 4 100v160z" />
    <glyph glyph-name="o" unicode="o" horiz-adv-x="579" 
d="M32 239q0 103 75.5 175.5t181.5 72.5q107 0 182.5 -72.5t75.5 -175.5q0 -102 -75.5 -174t-182.5 -72t-182 72t-75 174zM208 239q0 -36 23.5 -61t57.5 -25t58 25t24 61q0 37 -24 62t-58 25t-57.5 -25t-23.5 -62z" />
    <glyph glyph-name="p" unicode="p" horiz-adv-x="636" 
d="M63 -141v515h-52q24 54 37 103h201v-46q61 56 136 56q95 0 158 -70.5t63 -169.5q0 -107 -66.5 -181t-166.5 -74q-86 0 -124 29v-162q0 -63 4 -100h-193q3 42 3 100zM245 239q0 -39 26 -66t62 -27q34 0 58.5 27t24.5 66q0 38 -24 65.5t-58 27.5q-36 0 -62.5 -27.5
t-26.5 -65.5z" />
    <glyph glyph-name="q" unicode="q" horiz-adv-x="634" 
d="M573 -130q0 -74 4 -111h-193q4 42 4 120v159q-54 -46 -138 -46q-92 0 -156 70t-64 171q0 107 65 180.5t161 73.5q89 0 132 -40v3q0 5 -2 27h190q-3 -47 -3 -145v-462zM391 239q0 38 -25 65.5t-60 27.5q-37 0 -62 -27.5t-25 -65.5t25 -65.5t62 -27.5q35 0 60 27.5t25 65.5
z" />
    <glyph glyph-name="r" unicode="r" horiz-adv-x="441" 
d="M371 487q15 0 24 -2t12 -2v-194q-33 23 -69 23q-39 0 -58.5 -34.5t-19.5 -72.5v-105q0 -56 4 -100h-194q3 50 3 100v273h-52q27 59 37 104h182v-103q14 51 48.5 82t82.5 31z" />
    <glyph glyph-name="s" unicode="s" horiz-adv-x="449" 
d="M232 344q0 -9 18.5 -19t45 -22.5t52.5 -30.5t44.5 -50t18.5 -73q0 -73 -51 -117t-150 -44q-35 0 -95.5 13.5t-69.5 13.5v167q23 -24 75.5 -44t82.5 -20q25 0 25 18q0 11 -27.5 25t-61 29t-61 51.5t-27.5 86.5q0 77 53 118t152 41q34 0 79.5 -9.5t52.5 -9.5v-154
q-19 23 -59.5 36.5t-65.5 13.5q-31 0 -31 -20z" />
    <glyph glyph-name="t" unicode="t" horiz-adv-x="438" 
d="M89 608h191q-3 -36 -3 -91v-40h124v-153h-124v-96q0 -83 65 -83q35 0 45 10v-155q-9 0 -41 -4t-59 -4q-84 0 -139.5 50.5t-55.5 147.5v134h-64v153h64v40q0 55 -3 91z" />
    <glyph glyph-name="u" unicode="u" horiz-adv-x="606" 
d="M246 218q0 -45 18.5 -62.5t39.5 -17.5q12 0 22.5 4t21.5 23.5t11 52.5v159q0 61 -4 100h194q-4 -39 -4 -100v-269q0 -75 16 -108h-181q-12 21 -14 55q-28 -37 -59.5 -50.5t-77.5 -13.5q-78 0 -123.5 52.5t-45.5 150.5v178h-52q20 44 36 105h207q-5 -48 -5 -100v-159z" />
    <glyph glyph-name="v" unicode="v" horiz-adv-x="543" 
d="M220 477q6 -26 19 -55l47 -129l47 134q9 24 14 50h196q-30 -50 -57 -104l-155 -306q-23 -48 -36 -79h-50q-13 33 -36 79l-152 305q-23 47 -57 105h220z" />
    <glyph glyph-name="w" unicode="w" horiz-adv-x="771" 
d="M430 477q7 -22 21 -48l67 -137l34 90q8 22 29 95h190q-29 -50 -73 -157l-92 -223q-13 -30 -39 -105h-55q-16 35 -39 77l-86 153l-83 -155q-20 -40 -35 -75h-58q-20 56 -53 131l-111 255q-27 62 -47 99h211q5 -28 19 -69l48 -126l71 149q12 24 18 46h63z" />
    <glyph glyph-name="x" unicode="x" horiz-adv-x="542" 
d="M281 85l-16 29l-16 -31q-19 -33 -35 -83h-214q30 35 82 115l84 124l-92 151q-29 49 -63 87h219q11 -38 33 -76l16 -31l20 33q21 38 36 74h201q-46 -57 -66 -87l-93 -144l77 -131q50 -80 88 -115h-221q-18 40 -40 85z" />
    <glyph glyph-name="y" unicode="y" horiz-adv-x="586" 
d="M292 -131q-39 -64 -88 -90t-122 -26q-27 0 -56 9q45 49 71 87q79 112 118 188l-163 341q-20 41 -52 99h216q6 -30 21 -65l73 -169q25 65 55 165q7 18 16 69h205q-26 -45 -49 -105q-100 -240 -144 -327q-43 -85 -101 -176z" />
    <glyph glyph-name="z" unicode="z" horiz-adv-x="515" 
d="M483 477l-178 -323h103q46 0 79 3v-160q-31 3 -80 3h-376l176 323h-84q-45 0 -79 -3v160q33 -3 81 -3h358z" />
    <glyph glyph-name="braceleft" unicode="{" horiz-adv-x="453" 
d="M421 737v-131q-16 3 -41 3q-93 0 -93 -88q0 -16 1.5 -47t1.5 -47q0 -54 -30 -90.5t-73 -51.5q41 -13 72 -51t31 -92q0 -18 -1.5 -54t-1.5 -53q0 -88 93 -88q14 0 41 3v-132q-25 3 -107 3q-83 0 -137.5 54.5t-54.5 147.5q0 18 1.5 54t1.5 54q0 48 -27 65.5t-75 17.5v142
q49 0 75.5 17t26.5 65q0 16 -1.5 47.5t-1.5 47.5q0 92 54.5 146.5t137.5 54.5q80 0 107 3z" />
    <glyph glyph-name="bar" unicode="|" horiz-adv-x="279" 
d="M212 -185h-145l1 925h145z" />
    <glyph glyph-name="braceright" unicode="}" horiz-adv-x="453" 
d="M140 -179q-83 0 -108 -3v132q27 -3 41 -3q93 0 93 88q0 17 -1 53t-1 54q0 55 30.5 92.5t71.5 50.5q-43 15 -72.5 51.5t-29.5 90.5q0 16 1 47t1 47q0 88 -93 88q-25 0 -41 -3v131q27 -3 108 -3q83 0 137 -54.5t54 -146.5q0 -16 -1.5 -47.5t-1.5 -47.5q0 -48 27 -65t75 -17
v-142q-48 0 -75 -17.5t-27 -65.5q0 -18 1.5 -54t1.5 -54q0 -93 -54 -147.5t-137 -54.5z" />
    <glyph glyph-name="asciitilde" unicode="~" horiz-adv-x="572" 
d="M173 141h-152q0 88 52.5 150t129.5 62q44 0 71 -15.5t44 -30.5t37 -15t31 15.5t11 39.5h153q0 -88 -53 -149.5t-130 -61.5q-43 0 -69 14t-43.5 27.5t-39.5 13.5q-19 0 -30.5 -15t-11.5 -35z" />
    <glyph glyph-name="uni00A0" unicode="&#xa0;" horiz-adv-x="196" 
 />
    <glyph glyph-name="exclamdown" unicode="&#xa1;" horiz-adv-x="426" 
d="M263 86v-181q0 -70 4 -112h-195q3 36 3 112v181q0 76 -3 113h195q-4 -50 -4 -113zM272 381q0 -44 -30.5 -75t-75.5 -31t-76 31t-31 75t31 75t76 31t75.5 -31t30.5 -75z" />
    <glyph glyph-name="cent" unicode="&#xa2;" horiz-adv-x="558" 
d="M395 -97h-93v95q-96 16 -154 83t-58 157q0 92 58 160t154 84v98h93v-96l59 -8v-192q-24 41 -83 41q-38 0 -65.5 -25t-27.5 -62q0 -35 27.5 -59.5t65.5 -24.5q59 0 87 44v-195q-12 -1 -31.5 -4t-31.5 -4v-92z" />
    <glyph glyph-name="sterling" unicode="&#xa3;" horiz-adv-x="572" 
d="M44 285v116h104l3 24q25 250 290 250q28 0 62.5 -7t40.5 -7v-172q-36 36 -95 36q-101 0 -113 -97l-3 -27h136v-116h-146l-3 -20q-4 -36 -25.5 -70t-44.5 -50h169q78 0 105 3v-151q-40 3 -109 3h-408v145q60 0 91 23t39 99l3 18h-96z" />
    <glyph glyph-name="currency" unicode="&#xa4;" horiz-adv-x="572" 
d="M128 73l-90 89l67 66q-25 42 -25 90q0 45 25 95l-73 73l87 87l75 -75q37 20 92 20q41 0 90 -19l68 68l88 -89l-64 -65q24 -54 24 -95q0 -44 -24 -90l71 -71l-87 -87l-76 74q-40 -20 -90 -20q-53 0 -90 19zM239 320q0 -21 13.5 -36t33.5 -15t34 15t14 36q0 22 -14 37.5
t-34 15.5t-33.5 -15.5t-13.5 -37.5z" />
    <glyph glyph-name="yen" unicode="&#xa5;" horiz-adv-x="572" 
d="M179 0q4 62 4 104v18h-108v87h108v39h-108v88h108v13l-136 242q-35 60 -47 76h216q4 -18 26 -64l48 -90l50 89q24 42 33 65h199q-22 -32 -69 -113l-125 -212v-6h113v-88h-113v-39h113v-87h-113v-19q0 -41 4 -103h-203z" />
    <glyph glyph-name="brokenbar" unicode="&#xa6;" horiz-adv-x="279" 
d="M213 370h-145v370h145v-370zM212 185v-370h-145v370h145z" />
    <glyph glyph-name="section" unicode="&#xa7;" horiz-adv-x="592" 
d="M480 671v-149q-19 18 -58 32t-83 14q-50 0 -50 -32q0 -20 25.5 -34.5t61.5 -27t72 -30t61.5 -51.5t25.5 -82q0 -78 -79 -118q24 -15 39.5 -43.5t15.5 -66.5q0 -78 -60 -121t-175 -43q-37 0 -68 4.5t-61.5 11t-48.5 8.5v168q26 -32 76 -49t97 -17q62 0 62 35
q0 20 -28.5 34.5t-68.5 27t-80.5 30t-69 52t-28.5 83.5q0 45 25.5 77.5t71.5 48.5q-20 15 -38 45t-18 63q0 71 50.5 113t160.5 42q53 0 105.5 -12t64.5 -13zM241 376q-21 -10 -21 -36q0 -22 18.5 -35.5t59.5 -27.5t60 -24q17 17 17 36q0 24 -23 39.5t-61 28t-50 19.5z" />
    <glyph glyph-name="dieresis" unicode="&#xa8;" horiz-adv-x="462" 
d="M25 623q0 37 26 63t62 26q37 0 63 -26t26 -63t-26 -62.5t-63 -25.5q-36 0 -62 25.5t-26 62.5zM261 623q0 37 26.5 63t63.5 26q36 0 61.5 -26t25.5 -63t-25.5 -62.5t-61.5 -25.5q-38 0 -64 25.5t-26 62.5z" />
    <glyph glyph-name="copyright" unicode="&#xa9;" horiz-adv-x="809" 
d="M44 325q0 150 105.5 255.5t255.5 105.5q149 0 254.5 -105.5t105.5 -255.5q0 -151 -105.5 -258t-254.5 -107q-150 0 -255.5 106.5t-105.5 258.5zM144 325q0 -112 76.5 -191t184.5 -79t184 79t76 191q0 111 -76 189t-184 78t-184.5 -78t-76.5 -189zM381 324q0 -25 19.5 -43
t47.5 -18q49 0 74 32v-151q-6 0 -34 -4t-51 -4q-82 0 -138 55t-56 133q0 79 56 134.5t138 55.5q21 0 47.5 -4.5t33.5 -4.5v-150q-20 32 -70 32q-28 0 -47.5 -18.5t-19.5 -44.5z" />
    <glyph glyph-name="ordfeminine" unicode="&#xaa;" horiz-adv-x="343" 
d="M111 491q-40 0 -65 -22v92q8 1 22.5 4.5t32.5 6t42 2.5q160 0 160 -147v-33q0 -45 20 -45q11 0 17 4v-45q-29 -36 -78 -36q-28 0 -48 10.5t-23 24.5q-26 -35 -72 -35q-43 0 -70.5 25t-27.5 65q0 39 28.5 66.5t74.5 27.5q36 0 55 -14v6q0 20 -19.5 31.5t-48.5 11.5z
M142 366q0 -7 6 -12.5t13 -5.5q20 0 20 18q0 7 -5.5 12.5t-14.5 5.5q-7 0 -13 -5.5t-6 -12.5z" />
    <glyph glyph-name="guillemotleft" unicode="&#xab;" horiz-adv-x="796" 
d="M269 239l103 -73v-175l-305 232v30l305 234v-174zM587 239l103 -73v-175l-305 232v30l305 234v-174z" />
    <glyph glyph-name="logicalnot" unicode="&#xac;" horiz-adv-x="572" 
d="M507 91h-175v160h-304v143h479v-303z" />
    <glyph glyph-name="uni00AD" unicode="&#xad;" horiz-adv-x="384" 
d="M32 328h319v-170h-319v170z" />
    <glyph glyph-name="registered" unicode="&#xae;" horiz-adv-x="459" 
d="M61 573q0 67 47 114t114 47t114.5 -47t47.5 -114q0 -68 -47.5 -116t-114.5 -48t-114 48t-47 116zM111 573q0 -48 32.5 -83t78.5 -35t79.5 35t33.5 83t-33 82.5t-79 34.5t-79 -34.5t-33 -82.5zM206 550v-22q0 -9 0.5 -20t0.5 -13h-52q2 12 2 39v75q0 29 -2 43h62
q32 0 47.5 -14.5t15.5 -37.5q0 -16 -9 -28t-21 -15q27 -33 54 -62h-62q-7 11 -26 55h-10zM206 617v-34h15q19 0 19 16q0 7 -5.5 12.5t-13.5 5.5h-15z" />
    <glyph glyph-name="macron" unicode="&#xaf;" horiz-adv-x="462" 
d="M70 681h322v-123h-322v123z" />
    <glyph glyph-name="degree" unicode="&#xb0;" horiz-adv-x="336" 
d="M23 537q0 60 42.5 103t101.5 43q61 0 103.5 -43t42.5 -103q0 -59 -43 -102.5t-103 -43.5q-59 0 -101.5 43.5t-42.5 102.5zM129 537q0 -18 11 -29.5t27 -11.5q17 0 28.5 11.5t11.5 29.5t-11.5 30.5t-28.5 12.5q-16 0 -27 -12.5t-11 -30.5z" />
    <glyph glyph-name="plusminus" unicode="&#xb1;" horiz-adv-x="572" 
d="M365 665v-158h156v-143h-156v-156h-159v156h-155v143h155v158h159zM51 0v143h470v-143h-470z" />
    <glyph glyph-name="twosuperior" unicode="&#xb2;" horiz-adv-x="386" 
d="M54 448v67q3 2 16.5 14t18.5 16.5t17.5 16t18 18t15.5 17.5t15 19.5t10.5 19.5t8 21t2.5 20q0 21 -13.5 33.5t-34.5 12.5q-41 0 -69 -37v142q12 1 47.5 7t60.5 6q71 0 110 -38.5t38 -101.5q-1 -34 -17 -61t-61 -78h24q43 0 71 3v-120q-32 3 -100 3h-178z" />
    <glyph glyph-name="threesuperior" unicode="&#xb3;" horiz-adv-x="386" 
d="M148 732q-43 0 -79 -24v117q6 1 23.5 5.5t38 7.5t41.5 3q66 0 105.5 -28t39.5 -78q0 -36 -17.5 -55t-50.5 -32q25 -9 39.5 -16.5t27 -26t12.5 -45.5q0 -57 -42 -87.5t-114 -30.5q-24 0 -63.5 8.5t-44.5 8.5v118q28 -28 89 -28q38 0 38 26q0 24 -37 24q-12 0 -22 -2v95
q2 0 9.5 -0.5t11.5 -0.5q27 0 27 20q0 21 -32 21z" />
    <glyph glyph-name="acute" unicode="&#xb4;" horiz-adv-x="462" 
d="M213 538l126 170h187l-155 -170h-158z" />
    <glyph glyph-name="mu" unicode="&#xb5;" horiz-adv-x="620" 
d="M245 215q-1 -36 15 -56t42 -20q24 0 40.5 20t16.5 55v163q0 65 -5 100h194q-4 -37 -4 -100v-192q0 -33 6 -45t24 -12q17 0 23 5v-109q-47 -36 -112 -36q-88 0 -107 75q-24 -40 -48 -56t-69 -16q-34 0 -54 14q27 -43 29 -183q0 -11 4 -81h-183q3 31 3 100v547q0 48 -4 89
h194q-5 -47 -5 -100v-162z" />
    <glyph glyph-name="paragraph" unicode="&#xb6;" horiz-adv-x="733" 
d="M527 -259h-204q3 116 3 224v184h-5q-128 0 -203 77t-75 190q0 50 15.5 96t47 85.5t87.5 63.5t128 24h333v-161h-130v-561q0 -108 3 -222z" />
    <glyph glyph-name="periodcentered" unicode="&#xb7;" horiz-adv-x="328" 
d="M47 250q0 49 34 84t83 35q48 0 82.5 -35t34.5 -84q0 -50 -34.5 -85.5t-82.5 -35.5q-49 0 -83 35.5t-34 85.5z" />
    <glyph glyph-name="cedilla" unicode="&#xb8;" horiz-adv-x="462" 
d="M145 -124l63 124h86l-20 -36q86 -20 86 -102q0 -54 -36 -86t-107 -32q-18 0 -46.5 6.5t-37.5 7.5v96q25 -25 67 -25q19 0 31 7.5t12 19.5q0 30 -52 30q-29 0 -46 -10z" />
    <glyph glyph-name="onesuperior" unicode="&#xb9;" horiz-adv-x="336" 
d="M258 762v-251q0 -39 2 -63h-137q2 13 2 63v189q-52 -20 -78 -31v107q76 28 152 64h61q-2 -13 -2 -78z" />
    <glyph glyph-name="ordmasculine" unicode="&#xba;" horiz-adv-x="363" 
d="M17 424q0 62 47.5 106t114.5 44q70 0 118.5 -44t48.5 -106t-48.5 -105.5t-118.5 -43.5q-67 0 -114.5 43.5t-47.5 105.5zM136 424q0 -19 12.5 -32.5t30.5 -13.5q20 0 34 13.5t14 32.5t-14 32t-34 13q-18 0 -30.5 -13t-12.5 -32z" />
    <glyph glyph-name="guillemotright" unicode="&#xbb;" horiz-adv-x="796" 
d="M209 238l-103 73v175l305 -232v-30l-305 -234v174zM527 238l-103 73v175l305 -232v-30l-305 -234v174z" />
    <glyph glyph-name="onequarter" unicode="&#xbc;" horiz-adv-x="870" 
d="M258 594v-251q0 -39 2 -63h-137q2 13 2 63v189q-52 -20 -78 -31v107q76 28 152 64h61q-2 -13 -2 -78zM275 0h-121l414 667h122zM466 146l244 270h42q-1 -16 -1 -72v-164q40 0 66 2v-91q-28 2 -66 2v-34q0 -12 2 -40h-128q1 15 1 40v34h-73q-37 0 -87 -2v55zM626 234
l-51 -54h51v54z" />
    <glyph glyph-name="onehalf" unicode="&#xbd;" horiz-adv-x="870" 
d="M258 594v-251q0 -39 2 -63h-137q2 13 2 63v189q-52 -20 -78 -31v107q76 28 152 64h61q-2 -13 -2 -78zM275 0h-121l414 667h122zM569 0v67q3 2 16.5 14t18.5 16.5t17.5 16t18 18t15.5 17.5t15 19.5t10.5 19.5t8 21t2.5 20q0 21 -13.5 33.5t-34.5 12.5q-41 0 -69 -37v142
q12 1 47.5 7t60.5 6q71 0 110 -38.5t38 -101.5q-1 -34 -17 -61t-61 -78h24q42 0 71 3v-120q-31 3 -100 3h-178z" />
    <glyph glyph-name="threequarters" unicode="&#xbe;" horiz-adv-x="870" 
d="M129 564q-43 0 -79 -24v117q6 1 23.5 5.5t38 7.5t41.5 3q66 0 105.5 -28t39.5 -78q0 -36 -17 -55t-51 -32q25 -9 39.5 -16.5t27 -26t12.5 -45.5q0 -57 -42 -87.5t-114 -30.5q-24 0 -63.5 8.5t-44.5 8.5v118q28 -28 89 -28q38 0 38 26q0 24 -37 24q-12 0 -22 -2v95
q2 0 9.5 -0.5t11.5 -0.5q27 0 27 20q0 21 -32 21zM296 0h-121l414 667h122zM476 146l244 270h42q-1 -16 -1 -72v-164q40 0 66 2v-91q-28 2 -66 2v-34q0 -12 2 -40h-128q1 15 1 40v34h-73q-37 0 -87 -2v55zM636 234l-51 -54h51v54z" />
    <glyph glyph-name="questiondown" unicode="&#xbf;" horiz-adv-x="454" 
d="M310 -46q56 0 85 24v-170q-3 0 -50.5 -9t-88.5 -9q-103 0 -160 49.5t-57 135.5q0 58 31 110.5t89 87.5q-7 36 -17 70h185q1 -10 26 -124q-57 -33 -84.5 -58t-27.5 -54q0 -21 18 -37t51 -16zM334 383q0 -43 -30.5 -73.5t-74.5 -30.5t-75 30.5t-31 73.5t31 73.5t75 30.5
q43 0 74 -30.5t31 -73.5z" />
    <glyph glyph-name="Agrave" unicode="&#xc0;" horiz-adv-x="746" 
d="M746 0h-225q-5 14 -25 63l-20 46h-239l-31 -66q-13 -29 -15 -43h-191q45 76 81 152l258 545h53l269 -545q27 -56 85 -152zM328 884l135 -149h-171l-179 149h215zM413 257l-59 141l-57 -141h116z" />
    <glyph glyph-name="Aacute" unicode="&#xc1;" horiz-adv-x="746" 
d="M746 0h-225q-5 14 -25 63l-20 46h-239l-31 -66q-13 -29 -15 -43h-191q45 76 81 152l258 545h53l269 -545q27 -56 85 -152zM272 735l134 149h215l-179 -149h-170zM413 257l-59 141l-57 -141h116z" />
    <glyph glyph-name="Acircumflex" unicode="&#xc2;" horiz-adv-x="746" 
d="M746 0h-225q-5 14 -25 63l-20 46h-239l-31 -66q-13 -29 -15 -43h-191q45 76 81 152l258 545h53l269 -545q27 -56 85 -152zM372 772l-35 -36h-167l186 161h39l182 -161h-172zM413 257l-59 141l-57 -141h116z" />
    <glyph glyph-name="Atilde" unicode="&#xc3;" horiz-adv-x="746" 
d="M746 0h-225q-5 14 -25 63l-20 46h-239l-31 -66q-13 -29 -15 -43h-191q45 76 81 152l258 545h53l269 -545q27 -56 85 -152zM413 257l-59 141l-57 -141h116zM262 742h-121q0 69 41.5 112.5t114.5 43.5q31 0 54 -7t34 -15.5t24 -15.5t26 -7q35 0 35 36l122 1
q0 -68 -41.5 -111.5t-115.5 -43.5q-48 0 -84.5 19.5t-53.5 19.5q-35 0 -35 -32z" />
    <glyph glyph-name="Adieresis" unicode="&#xc4;" horiz-adv-x="746" 
d="M746 0h-225q-5 14 -25 63l-20 46h-239l-31 -66q-13 -29 -15 -43h-191q45 76 81 152l258 545h53l269 -545q27 -56 85 -152zM413 257l-59 141l-57 -141h116zM146 826q0 40 28.5 68t68.5 28q41 0 69.5 -28t28.5 -68q0 -39 -28.5 -66.5t-69.5 -27.5q-40 0 -68.5 27.5
t-28.5 66.5zM391 826q0 40 29 68t70 28q40 0 68 -28t28 -68q0 -39 -28 -66.5t-68 -27.5q-41 0 -70 27.5t-29 66.5z" />
    <glyph glyph-name="Aring" unicode="&#xc5;" horiz-adv-x="746" 
d="M254 798q0 43 33 74t80 31t80 -30.5t33 -74.5q0 -37 -25 -66t-63 -37l269 -543q27 -56 85 -152h-225q-5 14 -25 63l-20 46h-239l-31 -66q-13 -29 -15 -43h-191q45 76 81 152l257 544q-37 9 -60.5 37.5t-23.5 64.5zM413 257l-59 141l-57 -141h116zM338 798q0 -12 8.5 -20
t20.5 -8t20.5 8t8.5 20t-8.5 20.5t-20.5 8.5t-20.5 -8.5t-8.5 -20.5z" />
    <glyph glyph-name="AE" unicode="&#xc6;" horiz-adv-x="899" 
d="M710 0h-239q-3 21 -9 53l-12 44h-194l-24 -48q-11 -23 -20 -49h-212q34 50 83 152l293 533h243q71 0 163 5v-170q-40 4 -130 4h-110l30 -103h85q95 0 141 3v-167q-39 3 -112 3h-79l28 -98h70q85 0 141 4l1 -169q-41 3 -137 3zM384 389l-59 -131h92z" />
    <glyph glyph-name="Ccedilla" unicode="&#xc7;" horiz-adv-x="645" 
d="M304 -128l60 118q-144 14 -232.5 114t-88.5 240q0 150 101.5 252.5t262.5 102.5q51 0 98.5 -7.5t67.5 -7.5v-217q-60 62 -150 62q-79 0 -132 -53.5t-53 -131.5t53.5 -132.5t133.5 -54.5q97 0 156 58v-210q-23 -1 -61.5 -7.5t-67.5 -8.5l-15 -26q89 -21 89 -105
q0 -56 -37 -89t-110 -33q-19 0 -48 6.5t-39 7.5v99q26 -25 69 -25q20 0 32 7.5t12 19.5q0 31 -53 31q-29 0 -48 -10z" />
    <glyph glyph-name="Egrave" unicode="&#xc8;" horiz-adv-x="566" 
d="M322 524h-53v-93h40q111 0 173 4v-169q-62 4 -173 4h-40v-108h61q114 0 174 4v-170q-60 4 -174 4h-261q4 110 4 179v328q0 118 -4 178h253q81 0 174 6v-171q-41 4 -174 4zM265 884l135 -149h-171l-179 149h215z" />
    <glyph glyph-name="Eacute" unicode="&#xc9;" horiz-adv-x="566" 
d="M322 524h-53v-93h40q111 0 173 4v-169q-62 4 -173 4h-40v-108h61q114 0 174 4v-170q-60 4 -174 4h-261q4 110 4 179v328q0 118 -4 178h253q81 0 174 6v-171q-41 4 -174 4zM193 735l134 149h215l-179 -149h-170z" />
    <glyph glyph-name="Ecircumflex" unicode="&#xca;" horiz-adv-x="566" 
d="M322 524h-53v-93h40q111 0 173 4v-169q-62 4 -173 4h-40v-108h61q114 0 174 4v-170q-60 4 -174 4h-261q4 110 4 179v328q0 118 -4 178h253q81 0 174 6v-171q-41 4 -174 4zM282 772l-35 -36h-167l186 161h39l182 -161h-172z" />
    <glyph glyph-name="Edieresis" unicode="&#xcb;" horiz-adv-x="566" 
d="M322 524h-53v-93h40q111 0 173 4v-169q-62 4 -173 4h-40v-108h61q114 0 174 4v-170q-60 4 -174 4h-261q4 110 4 179v328q0 118 -4 178h253q81 0 174 6v-171q-41 4 -174 4zM63 826q0 40 28.5 68t68.5 28q41 0 69.5 -28t28.5 -68q0 -39 -28.5 -66.5t-69.5 -27.5
q-40 0 -68.5 27.5t-28.5 66.5zM308 826q0 40 29 68t70 28q40 0 68 -28t28 -68q0 -39 -28 -66.5t-68 -27.5q-41 0 -70 27.5t-29 66.5z" />
    <glyph glyph-name="Igrave" unicode="&#xcc;" horiz-adv-x="345" 
d="M271 506v-327q0 -117 4 -179h-203q4 62 4 179v327q0 119 -4 179h203q-4 -60 -4 -179zM140 884l135 -149h-171l-179 149h215z" />
    <glyph glyph-name="Iacute" unicode="&#xcd;" horiz-adv-x="345" 
d="M271 506v-327q0 -117 4 -179h-203q4 62 4 179v327q0 119 -4 179h203q-4 -60 -4 -179zM71 735l134 149h215l-179 -149h-170z" />
    <glyph glyph-name="Icircumflex" unicode="&#xce;" horiz-adv-x="345" 
d="M271 506v-327q0 -117 4 -179h-203q4 62 4 179v327q0 119 -4 179h203q-4 -60 -4 -179zM172 772l-35 -36h-167l186 161h39l182 -161h-172z" />
    <glyph glyph-name="Idieresis" unicode="&#xcf;" horiz-adv-x="345" 
d="M271 506v-327q0 -117 4 -179h-203q4 62 4 179v327q0 119 -4 179h203q-4 -60 -4 -179zM-47 826q0 40 28.5 68t68.5 28q41 0 69.5 -28t28.5 -68q0 -39 -28.5 -66.5t-69.5 -27.5q-40 0 -68.5 27.5t-28.5 66.5zM198 826q0 40 29 68t70 28q40 0 68 -28t28 -68q0 -39 -28 -66.5
t-68 -27.5q-41 0 -70 27.5t-29 66.5z" />
    <glyph glyph-name="Eth" unicode="&#xd0;" horiz-adv-x="784" 
d="M397 0h-276q5 52 5 179v80h-111v138h111v109q0 129 -5 179h276q142 0 243 -100t101 -242t-101 -242.5t-243 -100.5zM322 525v-128h117v-138h-117v-99h59q69 0 117 54t48 129q0 74 -48.5 128t-117.5 54h-58z" />
    <glyph glyph-name="Ntilde" unicode="&#xd1;" horiz-adv-x="739" 
d="M260 144q0 -88 4 -144h-195q4 56 4 145v354q0 91 -4 199h41q67 -67 115 -107l254 -218v133q0 95 -4 179h195q-5 -110 -5 -179v-356q0 -90 5 -162h-39q-73 75 -98 97l-273 234v-175zM265 742h-121q0 69 41.5 112.5t114.5 43.5q31 0 54 -7t34 -15.5t24 -15.5t26 -7
q35 0 35 36l122 1q0 -68 -41.5 -111.5t-115.5 -43.5q-48 0 -84.5 19.5t-53.5 19.5q-35 0 -35 -32z" />
    <glyph glyph-name="Ograve" unicode="&#xd2;" horiz-adv-x="831" 
d="M42 343q0 148 107 251.5t266 103.5q160 0 267 -103.5t107 -251.5q0 -149 -107 -252.5t-267 -103.5q-159 0 -266 103.5t-107 252.5zM239 343q0 -80 50.5 -135.5t125.5 -55.5t126 55.5t51 135.5t-51 135.5t-126 55.5t-125.5 -55.5t-50.5 -135.5zM385 884l135 -149h-171
l-179 149h215z" />
    <glyph glyph-name="Oacute" unicode="&#xd3;" horiz-adv-x="831" 
d="M42 343q0 148 107 251.5t266 103.5q160 0 267 -103.5t107 -251.5q0 -149 -107 -252.5t-267 -103.5q-159 0 -266 103.5t-107 252.5zM239 343q0 -80 50.5 -135.5t125.5 -55.5t126 55.5t51 135.5t-51 135.5t-126 55.5t-125.5 -55.5t-50.5 -135.5zM313 735l134 149h215
l-179 -149h-170z" />
    <glyph glyph-name="Ocircumflex" unicode="&#xd4;" horiz-adv-x="831" 
d="M42 343q0 148 107 251.5t266 103.5q160 0 267 -103.5t107 -251.5q0 -149 -107 -252.5t-267 -103.5q-159 0 -266 103.5t-107 252.5zM239 343q0 -80 50.5 -135.5t125.5 -55.5t126 55.5t51 135.5t-51 135.5t-126 55.5t-125.5 -55.5t-50.5 -135.5zM414 772l-35 -36h-167
l186 161h39l182 -161h-172z" />
    <glyph glyph-name="Otilde" unicode="&#xd5;" horiz-adv-x="831" 
d="M42 343q0 148 107 251.5t266 103.5q160 0 267 -103.5t107 -251.5q0 -149 -107 -252.5t-267 -103.5q-159 0 -266 103.5t-107 252.5zM239 343q0 -80 50.5 -135.5t125.5 -55.5t126 55.5t51 135.5t-51 135.5t-126 55.5t-125.5 -55.5t-50.5 -135.5zM311 742h-121
q0 69 41.5 112.5t114.5 43.5q31 0 54 -7t34 -15.5t24 -15.5t26 -7q35 0 35 36l122 1q0 -68 -41.5 -111.5t-115.5 -43.5q-48 0 -84.5 19.5t-53.5 19.5q-35 0 -35 -32z" />
    <glyph glyph-name="Odieresis" unicode="&#xd6;" horiz-adv-x="831" 
d="M42 343q0 148 107 251.5t266 103.5q160 0 267 -103.5t107 -251.5q0 -149 -107 -252.5t-267 -103.5q-159 0 -266 103.5t-107 252.5zM239 343q0 -80 50.5 -135.5t125.5 -55.5t126 55.5t51 135.5t-51 135.5t-126 55.5t-125.5 -55.5t-50.5 -135.5zM195 826q0 40 28.5 68
t68.5 28q41 0 69.5 -28t28.5 -68q0 -39 -28.5 -66.5t-69.5 -27.5q-40 0 -68.5 27.5t-28.5 66.5zM440 826q0 40 29 68t70 28q40 0 68 -28t28 -68q0 -39 -28 -66.5t-68 -27.5q-41 0 -70 27.5t-29 66.5z" />
    <glyph glyph-name="multiply" unicode="&#xd7;" horiz-adv-x="572" 
d="M507 396l-129 -129l134 -132l-93 -92l-133 132l-128 -127l-93 93l128 128l-134 132l93 93l132 -132l129 126z" />
    <glyph glyph-name="Oslash" unicode="&#xd8;" horiz-adv-x="831" 
d="M42 343q0 148 107 251.5t266 103.5q103 0 187 -45l27 32h153l-88 -104q95 -100 95 -238q0 -149 -107 -252.5t-267 -103.5q-102 0 -186 45l-27 -32h-152l87 102q-95 101 -95 241zM239 343q0 -52 22 -94l227 269q-35 16 -73 16q-75 0 -125.5 -55.5t-50.5 -135.5zM592 343
q0 48 -21 92l-227 -268q31 -15 71 -15q75 0 126 55.5t51 135.5z" />
    <glyph glyph-name="Ugrave" unicode="&#xd9;" horiz-adv-x="730" 
d="M68 685h205q-5 -68 -5 -179v-235q0 -54 28.5 -83.5t68.5 -29.5q41 0 69.5 29.5t28.5 83.5v235q0 95 -4 179h203q-3 -66 -3 -179v-230q0 -132 -84 -209.5t-210 -77.5q-127 0 -210 77t-83 210v230q0 125 -4 179zM336 884l135 -149h-171l-179 149h215z" />
    <glyph glyph-name="Uacute" unicode="&#xda;" horiz-adv-x="730" 
d="M68 685h205q-5 -68 -5 -179v-235q0 -54 28.5 -83.5t68.5 -29.5q41 0 69.5 29.5t28.5 83.5v235q0 95 -4 179h203q-3 -66 -3 -179v-230q0 -132 -84 -209.5t-210 -77.5q-127 0 -210 77t-83 210v230q0 125 -4 179zM264 735l134 149h215l-179 -149h-170z" />
    <glyph glyph-name="Ucircumflex" unicode="&#xdb;" horiz-adv-x="730" 
d="M68 685h205q-5 -68 -5 -179v-235q0 -54 28.5 -83.5t68.5 -29.5q41 0 69.5 29.5t28.5 83.5v235q0 95 -4 179h203q-3 -66 -3 -179v-230q0 -132 -84 -209.5t-210 -77.5q-127 0 -210 77t-83 210v230q0 125 -4 179zM364 772l-35 -36h-167l186 161h39l182 -161h-172z" />
    <glyph glyph-name="Udieresis" unicode="&#xdc;" horiz-adv-x="730" 
d="M68 685h205q-5 -68 -5 -179v-235q0 -54 28.5 -83.5t68.5 -29.5q41 0 69.5 29.5t28.5 83.5v235q0 95 -4 179h203q-3 -66 -3 -179v-230q0 -132 -84 -209.5t-210 -77.5q-127 0 -210 77t-83 210v230q0 125 -4 179zM145 826q0 40 28.5 68t68.5 28q41 0 69.5 -28t28.5 -68
q0 -39 -28.5 -66.5t-69.5 -27.5q-40 0 -68.5 27.5t-28.5 66.5zM390 826q0 40 29 68t70 28q40 0 68 -28t28 -68q0 -39 -28 -66.5t-68 -27.5q-41 0 -70 27.5t-29 66.5z" />
    <glyph glyph-name="Yacute" unicode="&#xdd;" horiz-adv-x="706" 
d="M253 0q3 93 3 149v148l-165 260q-54 83 -91 128h236q17 -39 38 -75l87 -146l85 143q22 35 42 78h218q-33 -42 -102 -149l-153 -237v-150q0 -87 4 -149h-202zM254 735l134 149h215l-179 -149h-170z" />
    <glyph glyph-name="Thorn" unicode="&#xde;" horiz-adv-x="622" 
d="M270 125v-9q0 -70 3 -116h-203q5 52 5 179v327q0 129 -5 179l203 -1q-3 -38 -3 -119h54q124 0 191.5 -59.5t67.5 -162.5q0 -102 -71 -160t-202 -58h-40zM270 418v-146h30q42 0 65 21t23 52q0 30 -23 51.5t-65 21.5h-30z" />
    <glyph glyph-name="germandbls" unicode="&#xdf;" horiz-adv-x="643" 
d="M357 277q-34 0 -62 -16v170q8 -2 28 -2q29 0 49.5 23t20.5 55q0 31 -21 53t-51 22q-34 0 -55 -25t-21 -77v-364q0 -76 3 -116h-191q3 45 3 116v375q0 114 78 178.5t185 64.5q109 0 175.5 -56t66.5 -153q0 -43 -23 -79.5t-71 -54.5q55 -15 99 -63.5t44 -117.5
q0 -104 -65.5 -163.5t-174.5 -59.5q-26 0 -58.5 5.5t-39.5 6.5v172q27 -29 82 -29q28 0 48.5 19t20.5 45q0 31 -20 51t-50 20z" />
    <glyph glyph-name="agrave" unicode="&#xe0;" horiz-adv-x="539" 
d="M196 354q-73 0 -122 -47v145q3 0 60 17.5t116 17.5q107 0 159.5 -58t52.5 -160v-104q0 -37 26 -37q18 0 27 5v-103q-49 -42 -115 -42q-67 0 -101 49q-44 -49 -114 -49q-68 0 -110 40.5t-42 107.5q0 66 43 110t116 44q59 0 89 -19v19q0 64 -85 64zM209 142q0 -16 11 -26.5
t27 -10.5t27 10.5t11 26.5q0 14 -11 24.5t-27 10.5t-27 -10.5t-11 -24.5zM218 708l126 -170h-159l-155 170h188z" />
    <glyph glyph-name="aacute" unicode="&#xe1;" horiz-adv-x="539" 
d="M196 354q-73 0 -122 -47v145q3 0 60 17.5t116 17.5q107 0 159.5 -58t52.5 -160v-104q0 -37 26 -37q18 0 27 5v-103q-49 -42 -115 -42q-67 0 -101 49q-44 -49 -114 -49q-68 0 -110 40.5t-42 107.5q0 66 43 110t116 44q59 0 89 -19v19q0 64 -85 64zM209 142q0 -16 11 -26.5
t27 -10.5t27 10.5t11 26.5q0 14 -11 24.5t-27 10.5t-27 -10.5t-11 -24.5zM157 538l126 170h187l-155 -170h-158z" />
    <glyph glyph-name="acircumflex" unicode="&#xe2;" horiz-adv-x="539" 
d="M196 354q-73 0 -122 -47v145q3 0 60 17.5t116 17.5q107 0 159.5 -58t52.5 -160v-104q0 -37 26 -37q18 0 27 5v-103q-49 -42 -115 -42q-67 0 -101 49q-44 -49 -114 -49q-68 0 -110 40.5t-42 107.5q0 66 43 110t116 44q59 0 89 -19v19q0 64 -85 64zM209 142q0 -16 11 -26.5
t27 -10.5t27 10.5t11 26.5q0 14 -11 24.5t-27 10.5t-27 -10.5t-11 -24.5zM247 584l-34 -50h-136l152 184h39l156 -184h-143z" />
    <glyph glyph-name="atilde" unicode="&#xe3;" horiz-adv-x="539" 
d="M196 354q-73 0 -122 -47v145q3 0 60 17.5t116 17.5q107 0 159.5 -58t52.5 -160v-104q0 -37 26 -37q18 0 27 5v-103q-49 -42 -115 -42q-67 0 -101 49q-44 -49 -114 -49q-68 0 -110 40.5t-42 107.5q0 66 43 110t116 44q59 0 89 -19v19q0 64 -85 64zM209 142q0 -16 11 -26.5
t27 -10.5t27 10.5t11 26.5q0 14 -11 24.5t-27 10.5t-27 -10.5t-11 -24.5zM180 535h-112q1 63 36.5 106.5t89.5 43.5q39 0 68.5 -20t39.5 -20q24 0 24 33h105q0 -63 -33 -106.5t-85 -43.5q-29 0 -49.5 10t-34.5 20.5t-25 10.5q-24 0 -24 -34z" />
    <glyph glyph-name="adieresis" unicode="&#xe4;" horiz-adv-x="539" 
d="M196 354q-73 0 -122 -47v145q3 0 60 17.5t116 17.5q107 0 159.5 -58t52.5 -160v-104q0 -37 26 -37q18 0 27 5v-103q-49 -42 -115 -42q-67 0 -101 49q-44 -49 -114 -49q-68 0 -110 40.5t-42 107.5q0 66 43 110t116 44q59 0 89 -19v19q0 64 -85 64zM209 142q0 -16 11 -26.5
t27 -10.5t27 10.5t11 26.5q0 14 -11 24.5t-27 10.5t-27 -10.5t-11 -24.5zM48 623q0 37 26 63t62 26q37 0 63 -26t26 -63t-26 -62.5t-63 -25.5q-36 0 -62 25.5t-26 62.5zM284 623q0 37 26.5 63t63.5 26q36 0 61.5 -26t25.5 -63t-25.5 -62.5t-61.5 -25.5q-38 0 -64 25.5
t-26 62.5z" />
    <glyph glyph-name="aring" unicode="&#xe5;" horiz-adv-x="539" 
d="M196 354q-73 0 -122 -47v145q3 0 60 17.5t116 17.5q107 0 159.5 -58t52.5 -160v-104q0 -37 26 -37q18 0 27 5v-103q-49 -42 -115 -42q-67 0 -101 49q-44 -49 -114 -49q-68 0 -110 40.5t-42 107.5q0 66 43 110t116 44q59 0 89 -19v19q0 64 -85 64zM209 142q0 -16 11 -26.5
t27 -10.5t27 10.5t11 26.5q0 14 -11 24.5t-27 10.5t-27 -10.5t-11 -24.5zM131 624q0 44 34 75.5t81 31.5q49 0 83 -31.5t34 -75.5t-34 -76t-83 -32q-47 0 -81 32t-34 76zM219 624q0 -11 8 -19t19 -8q12 0 20 8t8 19t-8 19t-20 8q-11 0 -19 -8t-8 -19z" />
    <glyph glyph-name="ae" unicode="&#xe6;" horiz-adv-x="771" 
d="M75 308v144q8 0 63 17.5t94 17.5q107 0 147 -60q55 59 142 59q95 0 152.5 -73t57.5 -189q0 -15 -3 -24h-282q27 -67 110 -67q70 0 118 28v-153q-20 -1 -59.5 -8.5t-77.5 -7.5q-109 0 -189 76q-31 -40 -65.5 -60t-89.5 -20q-74 0 -116 42t-42 106q0 65 42.5 109.5
t115.5 44.5q53 0 91 -20v17q0 31 -23 49t-68 18q-62 0 -118 -46zM500 354q-21 0 -36.5 -15.5t-22.5 -44.5h114q-2 27 -16.5 43.5t-38.5 16.5zM212 142q0 -16 11 -26.5t27 -10.5q15 0 26 10.5t11 26.5q0 14 -11 24.5t-26 10.5q-16 0 -27 -10.5t-11 -24.5z" />
    <glyph glyph-name="ccedilla" unicode="&#xe7;" horiz-adv-x="451" 
d="M187 -124l61 121q-99 14 -159.5 81.5t-60.5 159.5q0 105 75.5 177t192.5 72q20 0 53.5 -5.5t43.5 -5.5v-192q-39 43 -93 43q-38 0 -64.5 -26t-26.5 -63q0 -36 26.5 -61.5t64.5 -25.5q58 0 97 47v-195q-13 -1 -32.5 -4t-31.5 -4l-17 -31q86 -20 86 -102q0 -54 -36 -86
t-107 -32q-18 0 -46.5 6.5t-37.5 7.5v96q25 -25 67 -25q19 0 31 7.5t12 19.5q0 30 -52 30q-29 0 -46 -10z" />
    <glyph glyph-name="egrave" unicode="&#xe8;" horiz-adv-x="533" 
d="M500 200h-293q34 -67 122 -67q62 0 113 27v-149q-11 0 -58.5 -9.5t-87.5 -9.5q-112 0 -188 70.5t-76 174.5t68 176.5t168 72.5q101 0 167.5 -72t66.5 -177q0 -21 -2 -37zM262 354q-21 0 -38 -17t-23 -43h118q-3 23 -17.5 41.5t-39.5 18.5zM225 708l126 -170h-159
l-155 170h188z" />
    <glyph glyph-name="eacute" unicode="&#xe9;" horiz-adv-x="533" 
d="M500 200h-293q34 -67 122 -67q62 0 113 27v-149q-11 0 -58.5 -9.5t-87.5 -9.5q-112 0 -188 70.5t-76 174.5t68 176.5t168 72.5q101 0 167.5 -72t66.5 -177q0 -21 -2 -37zM262 354q-21 0 -38 -17t-23 -43h118q-3 23 -17.5 41.5t-39.5 18.5zM190 538l126 170h187l-155 -170
h-158z" />
    <glyph glyph-name="ecircumflex" unicode="&#xea;" horiz-adv-x="533" 
d="M500 200h-293q34 -67 122 -67q62 0 113 27v-149q-11 0 -58.5 -9.5t-87.5 -9.5q-112 0 -188 70.5t-76 174.5t68 176.5t168 72.5q101 0 167.5 -72t66.5 -177q0 -21 -2 -37zM262 354q-21 0 -38 -17t-23 -43h118q-3 23 -17.5 41.5t-39.5 18.5zM264 584l-34 -50h-136l152 184
h39l156 -184h-143z" />
    <glyph glyph-name="edieresis" unicode="&#xeb;" horiz-adv-x="533" 
d="M500 200h-293q34 -67 122 -67q62 0 113 27v-149q-11 0 -58.5 -9.5t-87.5 -9.5q-112 0 -188 70.5t-76 174.5t68 176.5t168 72.5q101 0 167.5 -72t66.5 -177q0 -21 -2 -37zM262 354q-21 0 -38 -17t-23 -43h118q-3 23 -17.5 41.5t-39.5 18.5zM61 623q0 37 26 63t62 26
q37 0 63 -26t26 -63t-26 -62.5t-63 -25.5q-36 0 -62 25.5t-26 62.5zM297 623q0 37 26.5 63t63.5 26q36 0 61.5 -26t25.5 -63t-25.5 -62.5t-61.5 -25.5q-38 0 -64 25.5t-26 62.5z" />
    <glyph glyph-name="igrave" unicode="&#xec;" horiz-adv-x="309" 
d="M249 377v-277q0 -62 4 -100h-192q2 42 2 100v272h-52q8 14 37 105h205q-4 -44 -4 -100zM120 708l126 -170h-159l-155 170h188z" />
    <glyph glyph-name="iacute" unicode="&#xed;" horiz-adv-x="309" 
d="M249 377v-277q0 -62 4 -100h-192q2 42 2 100v272h-52q8 14 37 105h205q-4 -44 -4 -100zM66 538l126 170h187l-155 -170h-158z" />
    <glyph glyph-name="icircumflex" unicode="&#xee;" horiz-adv-x="309" 
d="M249 377v-277q0 -62 4 -100h-192q2 42 2 100v272h-52q8 14 37 105h205q-4 -44 -4 -100zM152 584l-34 -50h-136l152 184h39l156 -184h-143z" />
    <glyph glyph-name="idieresis" unicode="&#xef;" horiz-adv-x="309" 
d="M249 377v-277q0 -62 4 -100h-192q2 42 2 100v272h-52q8 14 37 105h205q-4 -44 -4 -100zM-51 623q0 37 26 63t62 26q37 0 63 -26t26 -63t-26 -62.5t-63 -25.5q-36 0 -62 25.5t-26 62.5zM185 623q0 37 26.5 63t63.5 26q36 0 61.5 -26t25.5 -63t-25.5 -62.5t-61.5 -25.5
q-38 0 -64 25.5t-26 62.5z" />
    <glyph glyph-name="eth" unicode="&#xf0;" horiz-adv-x="634" 
d="M145 536l72 39q-46 16 -88 22v145q138 -19 241 -85l93 50l47 -76l-65 -35q119 -122 119 -298q0 -131 -76 -218t-198 -87q-106 0 -180 67.5t-74 169.5q0 100 71 163.5t176 63.5q68 0 98 -30q-15 51 -71 96l-119 -64zM379 231q0 30 -23 50.5t-56 20.5q-34 0 -57.5 -20.5
t-23.5 -50.5t23.5 -50.5t57.5 -20.5q33 0 56 20.5t23 50.5z" />
    <glyph glyph-name="ntilde" unicode="&#xf1;" horiz-adv-x="601" 
d="M360 260q0 36 -14 57.5t-41 21.5q-56 0 -56 -78v-161q0 -63 4 -100h-193q3 42 3 100v272h-52q24 55 37 105h201v-49q44 58 127 58q170 0 170 -226v-160q0 -63 4 -100h-194q4 37 4 100v160zM235 535h-112q1 63 36.5 106.5t89.5 43.5q39 0 68.5 -20t39.5 -20q24 0 24 33
h105q0 -63 -33 -106.5t-85 -43.5q-29 0 -49.5 10t-34.5 20.5t-25 10.5q-24 0 -24 -34z" />
    <glyph glyph-name="ograve" unicode="&#xf2;" horiz-adv-x="579" 
d="M32 239q0 103 75.5 175.5t181.5 72.5q107 0 182.5 -72.5t75.5 -175.5q0 -102 -75.5 -174t-182.5 -72t-182 72t-75 174zM208 239q0 -36 23.5 -61t57.5 -25t58 25t24 61q0 37 -24 62t-58 25t-57.5 -25t-23.5 -62zM242 708l126 -170h-159l-155 170h188z" />
    <glyph glyph-name="oacute" unicode="&#xf3;" horiz-adv-x="579" 
d="M32 239q0 103 75.5 175.5t181.5 72.5q107 0 182.5 -72.5t75.5 -175.5q0 -102 -75.5 -174t-182.5 -72t-182 72t-75 174zM208 239q0 -36 23.5 -61t57.5 -25t58 25t24 61q0 37 -24 62t-58 25t-57.5 -25t-23.5 -62zM211 538l126 170h187l-155 -170h-158z" />
    <glyph glyph-name="ocircumflex" unicode="&#xf4;" horiz-adv-x="579" 
d="M32 239q0 103 75.5 175.5t181.5 72.5q107 0 182.5 -72.5t75.5 -175.5q0 -102 -75.5 -174t-182.5 -72t-182 72t-75 174zM208 239q0 -36 23.5 -61t57.5 -25t58 25t24 61q0 37 -24 62t-58 25t-57.5 -25t-23.5 -62zM286 584l-34 -50h-136l152 184h39l156 -184h-143z" />
    <glyph glyph-name="otilde" unicode="&#xf5;" horiz-adv-x="579" 
d="M32 239q0 103 75.5 175.5t181.5 72.5q107 0 182.5 -72.5t75.5 -175.5q0 -102 -75.5 -174t-182.5 -72t-182 72t-75 174zM208 239q0 -36 23.5 -61t57.5 -25t58 25t24 61q0 37 -24 62t-58 25t-57.5 -25t-23.5 -62zM220 535h-112q1 63 36.5 106.5t89.5 43.5q39 0 68.5 -20
t39.5 -20q24 0 24 33h105q0 -63 -33 -106.5t-85 -43.5q-29 0 -49.5 10t-34.5 20.5t-25 10.5q-24 0 -24 -34z" />
    <glyph glyph-name="odieresis" unicode="&#xf6;" horiz-adv-x="579" 
d="M32 239q0 103 75.5 175.5t181.5 72.5q107 0 182.5 -72.5t75.5 -175.5q0 -102 -75.5 -174t-182.5 -72t-182 72t-75 174zM208 239q0 -36 23.5 -61t57.5 -25t58 25t24 61q0 37 -24 62t-58 25t-57.5 -25t-23.5 -62zM83 623q0 37 26 63t62 26q37 0 63 -26t26 -63t-26 -62.5
t-63 -25.5q-36 0 -62 25.5t-26 62.5zM319 623q0 37 26.5 63t63.5 26q36 0 61.5 -26t25.5 -63t-25.5 -62.5t-61.5 -25.5q-38 0 -64 25.5t-26 62.5z" />
    <glyph glyph-name="divide" unicode="&#xf7;" horiz-adv-x="572" 
d="M43 197v143h485v-143h-485zM182 492q0 42 30 72.5t72 30.5q44 0 74 -30.5t30 -72.5q0 -43 -30 -73.5t-74 -30.5q-42 0 -72 31t-30 73zM182 54q0 43 30 73t72 30q44 0 74 -30t30 -73t-30 -73.5t-74 -30.5q-42 0 -72 30.5t-30 73.5z" />
    <glyph glyph-name="oslash" unicode="&#xf8;" horiz-adv-x="578" 
d="M32 239q0 103 75 175.5t181 72.5q81 0 151 -47l34 37h72l-66 -72q67 -70 67 -166q0 -102 -75.5 -174t-182.5 -72q-81 0 -147 44l-34 -37h-74l67 72q-68 71 -68 167zM208 239q0 -22 9 -40l108 117q-18 10 -37 10q-34 0 -57 -25t-23 -62zM370 239q0 20 -8 38l-108 -117
q14 -7 34 -7q34 0 58 25t24 61z" />
    <glyph glyph-name="ugrave" unicode="&#xf9;" horiz-adv-x="606" 
d="M246 218q0 -45 18.5 -62.5t39.5 -17.5q12 0 22.5 4t21.5 23.5t11 52.5v159q0 61 -4 100h194q-4 -39 -4 -100v-269q0 -75 16 -108h-181q-12 21 -14 55q-28 -37 -59.5 -50.5t-77.5 -13.5q-78 0 -123.5 52.5t-45.5 150.5v178h-52q20 44 36 105h207q-5 -48 -5 -100v-159z
M255 708l126 -170h-159l-155 170h188z" />
    <glyph glyph-name="uacute" unicode="&#xfa;" horiz-adv-x="606" 
d="M246 218q0 -45 18.5 -62.5t39.5 -17.5q12 0 22.5 4t21.5 23.5t11 52.5v159q0 61 -4 100h194q-4 -39 -4 -100v-269q0 -75 16 -108h-181q-12 21 -14 55q-28 -37 -59.5 -50.5t-77.5 -13.5q-78 0 -123.5 52.5t-45.5 150.5v178h-52q20 44 36 105h207q-5 -48 -5 -100v-159z
M228 538l126 170h187l-155 -170h-158z" />
    <glyph glyph-name="ucircumflex" unicode="&#xfb;" horiz-adv-x="606" 
d="M246 218q0 -45 18.5 -62.5t39.5 -17.5q12 0 22.5 4t21.5 23.5t11 52.5v159q0 61 -4 100h194q-4 -39 -4 -100v-269q0 -75 16 -108h-181q-12 21 -14 55q-28 -37 -59.5 -50.5t-77.5 -13.5q-78 0 -123.5 52.5t-45.5 150.5v178h-52q20 44 36 105h207q-5 -48 -5 -100v-159z
M300 584l-34 -50h-136l152 184h39l156 -184h-143z" />
    <glyph glyph-name="udieresis" unicode="&#xfc;" horiz-adv-x="606" 
d="M246 218q0 -45 18.5 -62.5t39.5 -17.5q12 0 22.5 4t21.5 23.5t11 52.5v159q0 61 -4 100h194q-4 -39 -4 -100v-269q0 -75 16 -108h-181q-12 21 -14 55q-28 -37 -59.5 -50.5t-77.5 -13.5q-78 0 -123.5 52.5t-45.5 150.5v178h-52q20 44 36 105h207q-5 -48 -5 -100v-159z
M97 623q0 37 26 63t62 26q37 0 63 -26t26 -63t-26 -62.5t-63 -25.5q-36 0 -62 25.5t-26 62.5zM333 623q0 37 26.5 63t63.5 26q36 0 61.5 -26t25.5 -63t-25.5 -62.5t-61.5 -25.5q-38 0 -64 25.5t-26 62.5z" />
    <glyph glyph-name="yacute" unicode="&#xfd;" horiz-adv-x="586" 
d="M292 -131q-39 -64 -88 -90t-122 -26q-27 0 -56 9q45 49 71 87q79 112 118 188l-163 341q-20 41 -52 99h216q6 -30 21 -65l73 -169q25 65 55 165q7 18 16 69h205q-26 -45 -49 -105q-100 -240 -144 -327q-43 -85 -101 -176zM219 538l126 170h187l-155 -170h-158z" />
    <glyph glyph-name="thorn" unicode="&#xfe;" horiz-adv-x="634" 
d="M60 -80v710h-52q27 62 36 104h206q-4 -32 -4 -99v-190q40 42 128 42q104 0 166.5 -68.5t62.5 -172.5q0 -112 -67.5 -183t-175.5 -71q-83 0 -114 31v-103q0 -80 3 -161h-193q4 76 4 161zM242 240q0 -39 26 -66t62 -27q35 0 59 27t24 66t-25 66t-61 27q-35 0 -60 -27.5
t-25 -65.5z" />
    <glyph glyph-name="ydieresis" unicode="&#xff;" horiz-adv-x="586" 
d="M292 -131q-39 -64 -88 -90t-122 -26q-27 0 -56 9q45 49 71 87q79 112 118 188l-163 341q-20 41 -52 99h216q6 -30 21 -65l73 -169q25 65 55 165q7 18 16 69h205q-26 -45 -49 -105q-100 -240 -144 -327q-43 -85 -101 -176zM96 623q0 37 26 63t62 26q37 0 63 -26t26 -63
t-26 -62.5t-63 -25.5q-36 0 -62 25.5t-26 62.5zM332 623q0 37 26.5 63t63.5 26q36 0 61.5 -26t25.5 -63t-25.5 -62.5t-61.5 -25.5q-38 0 -64 25.5t-26 62.5z" />
    <glyph glyph-name="Amacron" unicode="&#x100;" horiz-adv-x="746" 
d="M746 0h-225q-5 14 -25 63l-20 46h-239l-31 -66q-13 -29 -15 -43h-191q45 76 81 152l258 545h53l269 -545q27 -56 85 -152zM413 257l-59 141l-57 -141h116zM190 863h353v-117h-353v117z" />
    <glyph glyph-name="amacron" unicode="&#x101;" horiz-adv-x="539" 
d="M196 354q-73 0 -122 -47v145q3 0 60 17.5t116 17.5q107 0 159.5 -58t52.5 -160v-104q0 -37 26 -37q18 0 27 5v-103q-49 -42 -115 -42q-67 0 -101 49q-44 -49 -114 -49q-68 0 -110 40.5t-42 107.5q0 66 43 110t116 44q59 0 89 -19v19q0 64 -85 64zM209 142q0 -16 11 -26.5
t27 -10.5t27 10.5t11 26.5q0 14 -11 24.5t-27 10.5t-27 -10.5t-11 -24.5zM94 681h322v-123h-322v123z" />
    <glyph glyph-name="Abreve" unicode="&#x102;" horiz-adv-x="746" 
d="M746 0h-225q-5 14 -25 63l-20 46h-239l-31 -66q-13 -29 -15 -43h-191q45 76 81 152l258 545h53l269 -545q27 -56 85 -152zM413 257l-59 141l-57 -141h116zM315 862q0 -16 13.5 -25t34.5 -9q20 0 34 9t14 25h120q0 -63 -48 -98.5t-120 -35.5t-120 35.5t-48 98.5h120z" />
    <glyph glyph-name="abreve" unicode="&#x103;" horiz-adv-x="539" 
d="M196 354q-73 0 -122 -47v145q3 0 60 17.5t116 17.5q107 0 159.5 -58t52.5 -160v-104q0 -37 26 -37q18 0 27 5v-103q-49 -42 -115 -42q-67 0 -101 49q-44 -49 -114 -49q-68 0 -110 40.5t-42 107.5q0 66 43 110t116 44q59 0 89 -19v19q0 64 -85 64zM209 142q0 -16 11 -26.5
t27 -10.5t27 10.5t11 26.5q0 14 -11 24.5t-27 10.5t-27 -10.5t-11 -24.5zM213 686q0 -19 12 -32t29 -13t29.5 13t12.5 32h121q0 -66 -48 -113t-115 -47t-114.5 47t-47.5 113h121z" />
    <glyph glyph-name="Aogonek" unicode="&#x104;" horiz-adv-x="746" 
d="M746 0q-54 -6 -91.5 -17.5t-53.5 -26t-22 -26.5t-6 -24q0 -17 12 -28t32 -11q34 0 64 36v-124q-67 -44 -150 -44q-59 0 -95.5 28.5t-36.5 77.5q0 85 122 159q-5 14 -25 63l-20 46h-239l-31 -66q-13 -29 -15 -43h-191q45 76 81 152l258 545h53l269 -545q27 -56 85 -152z
M413 257l-59 141l-57 -141h116z" />
    <glyph glyph-name="aogonek" unicode="&#x105;" horiz-adv-x="539" 
d="M196 354q-73 0 -122 -47v145q3 0 60 17.5t116 17.5q107 0 159.5 -58t52.5 -160v-104q0 -37 26 -37q18 0 27 5v-100q-66 -40 -104.5 -82t-38.5 -76q0 -18 13 -30t33 -12q35 0 70 29v-82q-56 -45 -141 -45q-50 0 -82 27t-32 70q0 84 123 165q-35 9 -57 40q-44 -49 -114 -49
q-68 0 -110 40.5t-42 107.5q0 66 43 110t116 44q59 0 89 -19v19q0 64 -85 64zM209 142q0 -16 11 -26.5t27 -10.5t27 10.5t11 26.5q0 14 -11 24.5t-27 10.5t-27 -10.5t-11 -24.5z" />
    <glyph glyph-name="Cacute" unicode="&#x106;" horiz-adv-x="645" 
d="M238 344q0 -78 53.5 -132.5t133.5 -54.5q97 0 156 58v-210q-18 -1 -69.5 -9t-104.5 -8q-161 0 -262.5 102.5t-101.5 253.5q0 150 101.5 252.5t262.5 102.5q51 0 98.5 -7.5t67.5 -7.5v-217q-60 62 -150 62q-79 0 -132 -53.5t-53 -131.5zM294 735l134 149h215l-179 -149
h-170z" />
    <glyph glyph-name="cacute" unicode="&#x107;" horiz-adv-x="451" 
d="M209 238q0 -36 26.5 -61.5t64.5 -25.5q58 0 97 47v-195q-5 0 -37.5 -5t-63.5 -5q-118 0 -193 71t-75 174q0 105 75.5 177t192.5 72q20 0 53.5 -5.5t43.5 -5.5v-192q-39 43 -93 43q-38 0 -64.5 -26t-26.5 -63zM196 538l126 170h187l-155 -170h-158z" />
    <glyph glyph-name="Ccircumflex" unicode="&#x108;" horiz-adv-x="645" 
d="M238 344q0 -78 53.5 -132.5t133.5 -54.5q97 0 156 58v-210q-18 -1 -69.5 -9t-104.5 -8q-161 0 -262.5 102.5t-101.5 253.5q0 150 101.5 252.5t262.5 102.5q51 0 98.5 -7.5t67.5 -7.5v-217q-60 62 -150 62q-79 0 -132 -53.5t-53 -131.5zM394 772l-35 -36h-167l186 161h39
l182 -161h-172z" />
    <glyph glyph-name="ccircumflex" unicode="&#x109;" horiz-adv-x="451" 
d="M209 238q0 -36 26.5 -61.5t64.5 -25.5q58 0 97 47v-195q-5 0 -37.5 -5t-63.5 -5q-118 0 -193 71t-75 174q0 105 75.5 177t192.5 72q20 0 53.5 -5.5t43.5 -5.5v-192q-39 43 -93 43q-38 0 -64.5 -26t-26.5 -63zM269 584l-34 -50h-136l152 184h39l156 -184h-143z" />
    <glyph glyph-name="Cdotaccent" unicode="&#x10a;" horiz-adv-x="645" 
d="M238 344q0 -78 53.5 -132.5t133.5 -54.5q97 0 156 58v-210q-18 -1 -69.5 -9t-104.5 -8q-161 0 -262.5 102.5t-101.5 253.5q0 150 101.5 252.5t262.5 102.5q51 0 98.5 -7.5t67.5 -7.5v-217q-60 62 -150 62q-79 0 -132 -53.5t-53 -131.5zM293 825q0 43 30 73t73 30
t72.5 -30t29.5 -73t-29.5 -73.5t-72.5 -30.5t-73 30.5t-30 73.5z" />
    <glyph glyph-name="cdotaccent" unicode="&#x10b;" horiz-adv-x="451" 
d="M209 238q0 -36 26.5 -61.5t64.5 -25.5q58 0 97 47v-195q-5 0 -37.5 -5t-63.5 -5q-118 0 -193 71t-75 174q0 105 75.5 177t192.5 72q20 0 53.5 -5.5t43.5 -5.5v-192q-39 43 -93 43q-38 0 -64.5 -26t-26.5 -63zM177 624q0 42 29.5 71t70.5 29t69.5 -29t28.5 -71
q0 -41 -28.5 -70.5t-69.5 -29.5t-70.5 29.5t-29.5 70.5z" />
    <glyph glyph-name="Ccaron" unicode="&#x10c;" horiz-adv-x="645" 
d="M238 344q0 -78 53.5 -132.5t133.5 -54.5q97 0 156 58v-210q-18 -1 -69.5 -9t-104.5 -8q-161 0 -262.5 102.5t-101.5 253.5q0 150 101.5 252.5t262.5 102.5q51 0 98.5 -7.5t67.5 -7.5v-217q-60 62 -150 62q-79 0 -132 -53.5t-53 -131.5zM401 849l35 36h167l-186 -161h-39
l-182 161h172z" />
    <glyph glyph-name="ccaron" unicode="&#x10d;" horiz-adv-x="451" 
d="M209 238q0 -36 26.5 -61.5t64.5 -25.5q58 0 97 47v-195q-5 0 -37.5 -5t-63.5 -5q-118 0 -193 71t-75 174q0 105 75.5 177t192.5 72q20 0 53.5 -5.5t43.5 -5.5v-192q-39 43 -93 43q-38 0 -64.5 -26t-26.5 -63zM276 656l34 50h136l-152 -184h-39l-156 184h143z" />
    <glyph glyph-name="Dcaron" unicode="&#x10e;" horiz-adv-x="732" 
d="M345 0h-276q5 52 5 179v327q0 129 -5 179h276q142 0 243 -100t101 -242t-101 -242.5t-243 -100.5zM270 525v-365h59q69 0 117 54t48 129q0 74 -48.5 128t-117.5 54h-58zM307 849l35 36h167l-186 -161h-39l-182 161h172z" />
    <glyph glyph-name="dcaron" unicode="&#x10f;" horiz-adv-x="633" 
d="M573 622v-522q0 -57 4 -100h-191q1 15 1 44q-50 -51 -138 -51q-95 0 -157 71.5t-62 171.5q0 108 65 179.5t170 71.5q88 0 122 -36v179h-52q20 40 36 104h206q-4 -49 -4 -112zM619 510l11 198h158l-33 -198h-136zM390 239q0 38 -25.5 65.5t-62.5 27.5q-35 0 -59 -27
t-24 -66t25.5 -66t62.5 -27q34 0 58.5 27t24.5 66z" />
    <glyph glyph-name="Dcroat" unicode="&#x110;" horiz-adv-x="784" 
d="M397 0h-276q5 52 5 179v80h-111v138h111v109q0 129 -5 179h276q142 0 243 -100t101 -242t-101 -242.5t-243 -100.5zM322 525v-128h117v-138h-117v-99h59q69 0 117 54t48 129q0 74 -48.5 128t-117.5 54h-58z" />
    <glyph glyph-name="dcroat" unicode="&#x111;" horiz-adv-x="656" 
d="M573 632v-29h83v-113h-83v-390q0 -60 5 -100h-195q4 20 4 44q-50 -51 -138 -51q-95 0 -157 67.5t-62 165.5q0 106 64.5 173.5t170.5 67.5q39 0 72.5 -10.5t49.5 -25.5v59h-165v113h165v27h-52q34 98 36 104h205q-3 -37 -3 -102zM390 229q0 35 -25.5 59t-62.5 24
q-34 0 -58.5 -24t-24.5 -59t25.5 -59t62.5 -24q35 0 59 24t24 59z" />
    <glyph glyph-name="Emacron" unicode="&#x112;" horiz-adv-x="566" 
d="M322 524h-53v-93h40q111 0 173 4v-169q-62 4 -173 4h-40v-108h61q114 0 174 4v-170q-60 4 -174 4h-261q4 110 4 179v328q0 118 -4 178h253q81 0 174 6v-171q-41 4 -174 4zM108 863h353v-117h-353v117z" />
    <glyph glyph-name="emacron" unicode="&#x113;" horiz-adv-x="533" 
d="M500 200h-293q34 -67 122 -67q62 0 113 27v-149q-11 0 -58.5 -9.5t-87.5 -9.5q-112 0 -188 70.5t-76 174.5t68 176.5t168 72.5q101 0 167.5 -72t66.5 -177q0 -21 -2 -37zM262 354q-21 0 -38 -17t-23 -43h118q-3 23 -17.5 41.5t-39.5 18.5zM106 681h322v-123h-322v123z
" />
    <glyph glyph-name="Ebreve" unicode="&#x114;" horiz-adv-x="566" 
d="M322 524h-53v-93h40q111 0 173 4v-169q-62 4 -173 4h-40v-108h61q114 0 174 4v-170q-60 4 -174 4h-261q4 110 4 179v328q0 118 -4 178h253q81 0 174 6v-171q-41 4 -174 4zM234 862q0 -16 13.5 -25t34.5 -9q20 0 34 9t14 25h120q0 -63 -48 -98.5t-120 -35.5t-120 35.5
t-48 98.5h120z" />
    <glyph glyph-name="ebreve" unicode="&#x115;" horiz-adv-x="533" 
d="M500 200h-293q34 -67 122 -67q62 0 113 27v-149q-11 0 -58.5 -9.5t-87.5 -9.5q-112 0 -188 70.5t-76 174.5t68 176.5t168 72.5q101 0 167.5 -72t66.5 -177q0 -21 -2 -37zM262 354q-21 0 -38 -17t-23 -43h118q-3 23 -17.5 41.5t-39.5 18.5zM225 686q0 -19 12 -32t29 -13
t29.5 13t12.5 32h121q0 -66 -48 -113t-115 -47t-114.5 47t-47.5 113h121z" />
    <glyph glyph-name="Edotaccent" unicode="&#x116;" horiz-adv-x="566" 
d="M322 524h-53v-93h40q111 0 173 4v-169q-62 4 -173 4h-40v-108h61q114 0 174 4v-170q-60 4 -174 4h-261q4 110 4 179v328q0 118 -4 178h253q81 0 174 6v-171q-41 4 -174 4zM185 825q0 43 30 73t73 30t72.5 -30t29.5 -73t-29.5 -73.5t-72.5 -30.5t-73 30.5t-30 73.5z" />
    <glyph glyph-name="edotaccent" unicode="&#x117;" horiz-adv-x="533" 
d="M500 200h-293q34 -67 122 -67q62 0 113 27v-149q-11 0 -58.5 -9.5t-87.5 -9.5q-112 0 -188 70.5t-76 174.5t68 176.5t168 72.5q101 0 167.5 -72t66.5 -177q0 -21 -2 -37zM262 354q-21 0 -38 -17t-23 -43h118q-3 23 -17.5 41.5t-39.5 18.5zM168 624q0 42 29.5 71t70.5 29
t69.5 -29t28.5 -71q0 -41 -28.5 -70.5t-69.5 -29.5t-70.5 29.5t-29.5 70.5z" />
    <glyph glyph-name="Eogonek" unicode="&#x118;" horiz-adv-x="566" 
d="M222 -159q0 85 122 159h-275q4 110 4 179v328q0 118 -4 178h253q81 0 174 6v-171q-41 4 -174 4h-53v-93h40q111 0 173 4v-169q-62 4 -173 4h-40v-108h61q114 0 174 4v-166q-53 -11 -80.5 -41.5t-27.5 -52.5q0 -17 12 -28t32 -11q34 0 64 36v-124q-67 -44 -150 -44
q-59 0 -95.5 28.5t-36.5 77.5z" />
    <glyph glyph-name="eogonek" unicode="&#x119;" horiz-adv-x="533" 
d="M500 200h-293q34 -67 122 -67q62 0 113 27v-149q-47 -39 -68.5 -64t-21.5 -48q0 -17 11.5 -26.5t30.5 -9.5q29 0 60 25v-112q-24 -14 -38.5 -20.5t-42 -13t-59.5 -6.5q-52 0 -88.5 29t-36.5 75q0 79 112 152h-5q-112 0 -188 70.5t-76 174.5t68 176.5t168 72.5
q101 0 167.5 -72t66.5 -177q0 -21 -2 -37zM262 354q-21 0 -38 -17t-23 -43h118q-3 23 -17.5 41.5t-39.5 18.5z" />
    <glyph glyph-name="Ecaron" unicode="&#x11a;" horiz-adv-x="566" 
d="M322 524h-53v-93h40q111 0 173 4v-169q-62 4 -173 4h-40v-108h61q114 0 174 4v-170q-60 4 -174 4h-261q4 110 4 179v328q0 118 -4 178h253q81 0 174 6v-171q-41 4 -174 4zM286 849l35 36h167l-186 -161h-39l-182 161h172z" />
    <glyph glyph-name="ecaron" unicode="&#x11b;" horiz-adv-x="533" 
d="M500 200h-293q34 -67 122 -67q62 0 113 27v-149q-11 0 -58.5 -9.5t-87.5 -9.5q-112 0 -188 70.5t-76 174.5t68 176.5t168 72.5q101 0 167.5 -72t66.5 -177q0 -21 -2 -37zM262 354q-21 0 -38 -17t-23 -43h118q-3 23 -17.5 41.5t-39.5 18.5zM271 656l34 50h136l-152 -184
h-39l-156 184h143z" />
    <glyph glyph-name="Gcircumflex" unicode="&#x11c;" horiz-adv-x="691" 
d="M615 179v-160q-9 -1 -69.5 -16.5t-127.5 -15.5q-168 0 -271.5 102.5t-103.5 253.5t102 253.5t269 102.5q40 0 70 -3.5t58.5 -9t46.5 -7.5v-212q-64 65 -167 65q-82 0 -132.5 -54t-50.5 -135q0 -79 53 -134.5t127 -55.5q9 0 12 2v32q0 72 -4 132h192q-4 -40 -4 -140z
M409 772l-35 -36h-167l186 161h39l182 -161h-172z" />
    <glyph glyph-name="gcircumflex" unicode="&#x11d;" horiz-adv-x="562" 
d="M400 477h148q0 -30 -16.5 -59t-41.5 -42q19 -28 19 -76q0 -75 -66 -129.5t-162 -54.5q-11 0 -30.5 1t-23.5 1q-21 0 -21 -20q0 -19 32 -19q4 0 16.5 0.5t18.5 0.5q115 0 190.5 -45.5t75.5 -130.5q0 -71 -79 -119t-188 -48q-104 0 -178 47t-74 111q0 72 57 106
q-42 23 -42 72q0 38 24.5 65.5t60.5 30.5q-67 52 -67 129q0 78 64.5 133.5t163.5 55.5q64 0 116 -25q3 6 3 15zM223 298q0 -21 17 -36t41 -15q23 0 39 15t16 36q0 22 -16 37.5t-39 15.5q-24 0 -41 -15.5t-17 -37.5zM184 -101q0 -20 27.5 -34t65.5 -14q35 0 61 13t26 32
q0 21 -30.5 35t-74.5 14q-30 0 -52.5 -13.5t-22.5 -32.5zM283 584l-34 -50h-136l152 184h39l156 -184h-143z" />
    <glyph glyph-name="Gbreve" unicode="&#x11e;" horiz-adv-x="691" 
d="M615 179v-160q-9 -1 -69.5 -16.5t-127.5 -15.5q-168 0 -271.5 102.5t-103.5 253.5t102 253.5t269 102.5q40 0 70 -3.5t58.5 -9t46.5 -7.5v-212q-64 65 -167 65q-82 0 -132.5 -54t-50.5 -135q0 -79 53 -134.5t127 -55.5q9 0 12 2v32q0 72 -4 132h192q-4 -40 -4 -140z
M355 862q0 -16 13.5 -25t34.5 -9q20 0 34 9t14 25h120q0 -63 -48 -98.5t-120 -35.5t-120 35.5t-48 98.5h120z" />
    <glyph glyph-name="gbreve" unicode="&#x11f;" horiz-adv-x="562" 
d="M400 477h148q0 -30 -16.5 -59t-41.5 -42q19 -28 19 -76q0 -75 -66 -129.5t-162 -54.5q-11 0 -30.5 1t-23.5 1q-21 0 -21 -20q0 -19 32 -19q4 0 16.5 0.5t18.5 0.5q115 0 190.5 -45.5t75.5 -130.5q0 -71 -79 -119t-188 -48q-104 0 -178 47t-74 111q0 72 57 106
q-42 23 -42 72q0 38 24.5 65.5t60.5 30.5q-67 52 -67 129q0 78 64.5 133.5t163.5 55.5q64 0 116 -25q3 6 3 15zM223 298q0 -21 17 -36t41 -15q23 0 39 15t16 36q0 22 -16 37.5t-39 15.5q-24 0 -41 -15.5t-17 -37.5zM184 -101q0 -20 27.5 -34t65.5 -14q35 0 61 13t26 32
q0 21 -30.5 35t-74.5 14q-30 0 -52.5 -13.5t-22.5 -32.5zM244 686q0 -19 12 -32t29 -13t29.5 13t12.5 32h121q0 -66 -48 -113t-115 -47t-114.5 47t-47.5 113h121z" />
    <glyph glyph-name="Gdotaccent" unicode="&#x120;" horiz-adv-x="691" 
d="M615 179v-160q-9 -1 -69.5 -16.5t-127.5 -15.5q-168 0 -271.5 102.5t-103.5 253.5t102 253.5t269 102.5q40 0 70 -3.5t58.5 -9t46.5 -7.5v-212q-64 65 -167 65q-82 0 -132.5 -54t-50.5 -135q0 -79 53 -134.5t127 -55.5q9 0 12 2v32q0 72 -4 132h192q-4 -40 -4 -140z
M309 825q0 43 30 73t73 30t72.5 -30t29.5 -73t-29.5 -73.5t-72.5 -30.5t-73 30.5t-30 73.5z" />
    <glyph glyph-name="gdotaccent" unicode="&#x121;" horiz-adv-x="562" 
d="M400 477h148q0 -30 -16.5 -59t-41.5 -42q19 -28 19 -76q0 -75 -66 -129.5t-162 -54.5q-11 0 -30.5 1t-23.5 1q-21 0 -21 -20q0 -19 32 -19q4 0 16.5 0.5t18.5 0.5q115 0 190.5 -45.5t75.5 -130.5q0 -71 -79 -119t-188 -48q-104 0 -178 47t-74 111q0 72 57 106
q-42 23 -42 72q0 38 24.5 65.5t60.5 30.5q-67 52 -67 129q0 78 64.5 133.5t163.5 55.5q64 0 116 -25q3 6 3 15zM223 298q0 -21 17 -36t41 -15q23 0 39 15t16 36q0 22 -16 37.5t-39 15.5q-24 0 -41 -15.5t-17 -37.5zM184 -101q0 -20 27.5 -34t65.5 -14q35 0 61 13t26 32
q0 21 -30.5 35t-74.5 14q-30 0 -52.5 -13.5t-22.5 -32.5zM182 624q0 42 29.5 71t70.5 29t69.5 -29t28.5 -71q0 -41 -28.5 -70.5t-69.5 -29.5t-70.5 29.5t-29.5 70.5z" />
    <glyph glyph-name="Gcommaaccent" unicode="&#x122;" horiz-adv-x="691" 
d="M615 179v-160q-9 -1 -69.5 -16.5t-127.5 -15.5q-168 0 -271.5 102.5t-103.5 253.5t102 253.5t269 102.5q40 0 70 -3.5t58.5 -9t46.5 -7.5v-212q-64 65 -167 65q-82 0 -132.5 -54t-50.5 -135q0 -79 53 -134.5t127 -55.5q9 0 12 2v32q0 72 -4 132h192q-4 -40 -4 -140z
M345 -124v99q82 0 129.5 -35t47.5 -92q0 -52 -37 -82.5t-102 -30.5q-43 0 -72 13v108q20 -20 48 -20q29 0 29 19q0 21 -43 21z" />
    <glyph glyph-name="gcommaaccent" unicode="&#x123;" horiz-adv-x="562" 
d="M400 477h148q0 -30 -16.5 -59t-41.5 -42q19 -28 19 -76q0 -75 -66 -129.5t-162 -54.5q-11 0 -30.5 1t-23.5 1q-21 0 -21 -20q0 -19 32 -19q4 0 16.5 0.5t18.5 0.5q115 0 190.5 -45.5t75.5 -130.5q0 -71 -79 -119t-188 -48q-104 0 -178 47t-74 111q0 72 57 106
q-42 23 -42 72q0 38 24.5 65.5t60.5 30.5q-67 52 -67 129q0 78 64.5 133.5t163.5 55.5q64 0 116 -25q3 6 3 15zM223 298q0 -21 17 -36t41 -15q23 0 39 15t16 36q0 22 -16 37.5t-39 15.5q-24 0 -41 -15.5t-17 -37.5zM184 -101q0 -20 27.5 -34t65.5 -14q35 0 61 13t26 32
q0 21 -30.5 35t-74.5 14q-30 0 -52.5 -13.5t-22.5 -32.5zM334 610v-99q-82 0 -129.5 35t-47.5 92q0 52 37 82.5t102 30.5q43 0 72 -13v-108q-20 20 -48 20q-29 0 -29 -19q0 -21 43 -21z" />
    <glyph glyph-name="Hcircumflex" unicode="&#x124;" horiz-adv-x="765" 
d="M270 506v-67h225v67q0 109 -5 179h205q-5 -110 -5 -179v-362q0 -74 5 -144h-205q5 47 5 145v132h-225v-133q0 -88 4 -144h-203q4 56 4 145v361q0 125 -4 179h203q-4 -54 -4 -179zM381 772l-35 -36h-167l186 161h39l182 -161h-172z" />
    <glyph glyph-name="hcircumflex" unicode="&#x125;" horiz-adv-x="599" 
d="M358 100v169q0 33 -14.5 51t-40.5 18q-57 0 -57 -73v-165q0 -61 5 -100h-195q4 41 4 100v530h-52q24 50 36 104h207q-5 -39 -5 -99v-200q48 51 126 51q86 0 129 -59.5t43 -162.5v-164q0 -61 5 -100h-195q4 41 4 100zM143 808l-35 -36h-167l186 161h39l182 -161h-172z" />
    <glyph glyph-name="Hbar" unicode="&#x126;" horiz-adv-x="798" 
d="M18 603h68l-3 82h214l-3 -82h208l-3 82h215q0 -7 -1 -22.5t-2 -30.5t-1 -29h68v-118h-69v-341q0 -74 5 -144h-215q4 56 4 145v95h-210v-96q0 -88 4 -144h-214q4 56 4 145v340h-69v118zM293 412h210v73h-210v-73z" />
    <glyph glyph-name="hbar" unicode="&#x127;" horiz-adv-x="608" 
d="M366 100v145q0 33 -14.5 51t-40.5 18q-57 0 -57 -73v-141q0 -61 5 -100h-195q4 41 4 100v390h-55v108h55v32h-52q24 50 36 104h207q-5 -26 -5 -99v-37h140v-108h-140v-79q41 51 126 51q86 0 129 -59.5t43 -162.5v-140q0 -61 5 -100h-195q4 41 4 100z" />
    <glyph glyph-name="Itilde" unicode="&#x128;" horiz-adv-x="345" 
d="M271 506v-327q0 -117 4 -179h-203q4 62 4 179v327q0 119 -4 179h203q-4 -60 -4 -179zM69 742h-121q0 69 41.5 112.5t114.5 43.5q31 0 54 -7t34 -15.5t24 -15.5t26 -7q35 0 35 36l122 1q0 -68 -41.5 -111.5t-115.5 -43.5q-48 0 -84.5 19.5t-53.5 19.5q-35 0 -35 -32z" />
    <glyph glyph-name="itilde" unicode="&#x129;" horiz-adv-x="309" 
d="M249 377v-277q0 -62 4 -100h-192q2 42 2 100v272h-52q8 14 37 105h205q-4 -44 -4 -100zM86 535h-112q1 63 36.5 106.5t89.5 43.5q39 0 68.5 -20t39.5 -20q24 0 24 33h105q0 -63 -33 -106.5t-85 -43.5q-29 0 -49.5 10t-34.5 20.5t-25 10.5q-24 0 -24 -34z" />
    <glyph glyph-name="Imacron" unicode="&#x12a;" horiz-adv-x="345" 
d="M271 506v-327q0 -117 4 -179h-203q4 62 4 179v327q0 119 -4 179h203q-4 -60 -4 -179zM-9 863h353v-117h-353v117z" />
    <glyph glyph-name="imacron" unicode="&#x12b;" horiz-adv-x="309" 
d="M249 377v-277q0 -62 4 -100h-192q2 42 2 100v272h-52q8 14 37 105h205q-4 -44 -4 -100zM-6 681h322v-123h-322v123z" />
    <glyph glyph-name="Ibreve" unicode="&#x12c;" horiz-adv-x="345" 
d="M271 506v-327q0 -117 4 -179h-203q4 62 4 179v327q0 119 -4 179h203q-4 -60 -4 -179zM122 862q0 -16 13.5 -25t34.5 -9q20 0 34 9t14 25h120q0 -63 -48 -98.5t-120 -35.5t-120 35.5t-48 98.5h120z" />
    <glyph glyph-name="ibreve" unicode="&#x12d;" horiz-adv-x="309" 
d="M249 377v-277q0 -62 4 -100h-192q2 42 2 100v272h-52q8 14 37 105h205q-4 -44 -4 -100zM112 686q0 -19 12 -32t29 -13t29.5 13t12.5 32h121q0 -66 -48 -113t-115 -47t-114.5 47t-47.5 113h121z" />
    <glyph glyph-name="Iogonek" unicode="&#x12e;" horiz-adv-x="345" 
d="M271 506v-327q0 -117 4 -179q-68 0 -104.5 -30t-36.5 -64q0 -17 12 -28t32 -11q34 0 64 36v-124q-67 -44 -150 -44q-59 0 -95.5 28.5t-36.5 77.5q0 84 112 159q4 64 4 179v327q0 119 -4 179h203q-4 -60 -4 -179z" />
    <glyph glyph-name="iogonek" unicode="&#x12f;" horiz-adv-x="309" 
d="M249 377v-277q0 -62 4 -100q-123 -56 -123 -101q0 -17 11.5 -26.5t30.5 -9.5q29 0 60 25v-112q-24 -14 -38.5 -20.5t-42 -13t-59.5 -6.5q-52 0 -88.5 30t-36.5 79q0 44 19 76.5t74 78.5h-1q4 42 4 100v272h-52q24 43 37 105h205q-4 -44 -4 -100zM57 623q0 42 29 71.5
t70 29.5t69.5 -29.5t28.5 -71.5q0 -41 -28.5 -70.5t-69.5 -29.5t-70 29.5t-29 70.5z" />
    <glyph glyph-name="Idotaccent" unicode="&#x130;" horiz-adv-x="345" 
d="M271 506v-327q0 -117 4 -179h-203q4 62 4 179v327q0 119 -4 179h203q-4 -60 -4 -179zM68 825q0 43 30 73t73 30t72.5 -30t29.5 -73t-29.5 -73.5t-72.5 -30.5t-73 30.5t-30 73.5z" />
    <glyph glyph-name="dotlessi" unicode="&#x131;" horiz-adv-x="309" 
d="M249 377v-277q0 -62 4 -100h-192q2 42 2 100v272h-52q8 14 37 105h205q-4 -44 -4 -100z" />
    <glyph glyph-name="IJ" unicode="&#x132;" horiz-adv-x="689" 
d="M271 506v-327q0 -117 4 -179h-203q4 62 4 179v327q0 119 -4 179h203q-4 -60 -4 -179zM615 506v-524q0 -114 -76.5 -187t-191.5 -73q-23 0 -61 6.5t-60 6.5v196q34 -45 107 -45q38 0 62 30t24 76v514q0 119 -4 179h204q-4 -60 -4 -179z" />
    <glyph glyph-name="ij" unicode="&#x133;" horiz-adv-x="618" 
d="M249 377v-277q0 -62 4 -100h-194q4 42 4 100v272h-52q24 43 37 105h205q-4 -44 -4 -100zM57 623q0 42 29 71.5t70 29.5t69.5 -29.5t28.5 -71.5q0 -41 -28.5 -70.5t-69.5 -29.5t-70 29.5t-29 70.5zM558 377v-363q0 -130 -57 -196t-138 -66q-41 0 -77 4.5t-40 4.5v160
q16 -13 53 -13q73 0 73 115v349h-52q23 56 37 105h204q-3 -36 -3 -100zM366 624q0 41 29.5 70.5t70.5 29.5q40 0 68.5 -29.5t28.5 -70.5q0 -42 -28.5 -71.5t-68.5 -29.5q-41 0 -70.5 29.5t-29.5 71.5z" />
    <glyph glyph-name="Jcircumflex" unicode="&#x134;" horiz-adv-x="344" 
d="M270 506v-524q0 -114 -76.5 -187t-191.5 -73q-23 0 -61 6.5t-60 6.5v196q34 -45 107 -45q38 0 62 30t24 76v514q0 119 -4 179h204q-4 -60 -4 -179zM171 772l-35 -36h-167l186 161h39l182 -161h-172z" />
    <glyph glyph-name="jcircumflex" unicode="&#x135;" horiz-adv-x="309" 
d="M249 377v-381q0 -130 -57 -195.5t-138 -65.5q-41 0 -77 4.5t-40 4.5v160q14 -13 53 -13q73 0 73 133v349h-52q21 49 37 104h204q-3 -36 -3 -100zM152 584l-34 -50h-136l152 184h39l156 -184h-143z" />
    <glyph glyph-name="Kcommaaccent" unicode="&#x136;" horiz-adv-x="740" 
d="M269 506v-130l125 187q49 76 73 122h217q-40 -52 -89 -124l-136 -198l161 -217q29 -39 120 -146h-264q-22 45 -63 99l-144 199v-119q0 -117 4 -179h-204q4 62 4 179v327q0 119 -4 179h204q-4 -60 -4 -179zM303 -124v99q82 0 129.5 -35t47.5 -92q0 -52 -37 -82.5
t-102 -30.5q-43 0 -72 13v108q20 -20 48 -20q29 0 29 19q0 21 -43 21z" />
    <glyph glyph-name="kcommaaccent" unicode="&#x137;" horiz-adv-x="616" 
d="M246 635v-346q100 150 118 188h190q-35 -44 -147 -213q133 -179 209 -264h-228q-9 16 -142 191v-91q0 -56 4 -100h-194q4 29 4 100v530h-52q24 58 36 104h206q-4 -29 -4 -99zM250 -124v99q82 0 129.5 -35t47.5 -92q0 -52 -37 -82.5t-102 -30.5q-43 0 -72 13v108
q20 -20 48 -20q29 0 29 19q0 21 -43 21z" />
    <glyph glyph-name="kgreenlandic" unicode="&#x138;" horiz-adv-x="620" 
d="M63 129v244h-52q19 45 37 104h204q-3 -31 -3 -126v-61l70 107q30 46 68.5 68t99.5 22q49 0 82 -14q-30 -16 -91 -109l-68 -101l130 -168q77 -92 80 -95h-230q-11 26 -43 68l-98 124v-63q0 -97 3 -129h-193q4 42 4 129z" />
    <glyph glyph-name="Lacute" unicode="&#x139;" horiz-adv-x="560" 
d="M269 506v-341h85q131 0 178 3v-172q-62 4 -178 4h-285q4 110 4 179v327q0 119 -4 179h204q-4 -60 -4 -179zM63 735l134 149h215l-179 -149h-170z" />
    <glyph glyph-name="lacute" unicode="&#x13a;" horiz-adv-x="306" 
d="M246 605v-505q0 -69 7 -100h-197q4 29 4 100v500h-52q31 79 36 104h206q-4 -29 -4 -99zM58 735l114 119h215l-159 -119h-170z" />
    <glyph glyph-name="Lcommaaccent" unicode="&#x13b;" horiz-adv-x="560" 
d="M269 506v-341h85q131 0 178 3v-172q-62 4 -178 4h-285q4 110 4 179v327q0 119 -4 179h204q-4 -60 -4 -179zM213 -124v99q82 0 129.5 -35t47.5 -92q0 -52 -37 -82.5t-102 -30.5q-43 0 -72 13v108q20 -20 48 -20q29 0 29 19q0 21 -43 21z" />
    <glyph glyph-name="lcommaaccent" unicode="&#x13c;" horiz-adv-x="306" 
d="M246 635v-535q0 -71 4 -100h-194q4 29 4 100v530h-52q25 54 36 104h206q-4 -29 -4 -99zM95 -124v99q82 0 129.5 -35t47.5 -92q0 -52 -37 -82.5t-102 -30.5q-43 0 -72 13v108q20 -20 48 -20q29 0 29 19q0 21 -43 21z" />
    <glyph glyph-name="Lcaron" unicode="&#x13d;" horiz-adv-x="560" 
d="M269 506v-341h85q131 0 178 3v-172q-62 4 -178 4h-285q4 110 4 179v327q0 119 -4 179h204q-4 -60 -4 -179zM339 510l11 198h158l-33 -198h-136z" />
    <glyph glyph-name="lcaron" unicode="&#x13e;" horiz-adv-x="306" 
d="M246 635v-535q0 -71 4 -100h-194q4 29 4 100v530h-52q25 54 36 104h206q-4 -29 -4 -99zM292 510l11 198h158l-33 -198h-136z" />
    <glyph glyph-name="Ldot" unicode="&#x13f;" horiz-adv-x="560" 
d="M269 506v-341h85q131 0 178 3v-172q-62 4 -178 4h-285q4 110 4 179v327q0 119 -4 179h204q-4 -60 -4 -179zM347 428q0 43 30 73t73 30t72.5 -30t29.5 -73t-29.5 -73.5t-72.5 -30.5t-73 30.5t-30 73.5z" />
    <glyph glyph-name="ldot" unicode="&#x140;" horiz-adv-x="449" 
d="M310 391q0 35 20 59t50 24t49.5 -24t19.5 -59q0 -34 -19.5 -57.5t-49.5 -23.5t-50 23.5t-20 57.5zM246 635v-535q0 -71 4 -100h-194q4 29 4 100v530h-52q25 54 36 104h206q-4 -29 -4 -99z" />
    <glyph glyph-name="Lslash" unicode="&#x141;" horiz-adv-x="604" 
d="M314 506v-50l170 98v-164l-170 -97v-128h85q132 0 177 3v-172q-60 4 -177 4h-285q3 82 3 179v16l-81 -46l1 164l80 46v147q0 134 -3 179h203q-3 -45 -3 -179z" />
    <glyph glyph-name="lslash" unicode="&#x142;" horiz-adv-x="435" 
d="M306 635v-173l92 53v-148l-92 -53v-214q0 -71 4 -100h-194q4 29 4 100v121l-83 -48v148l83 48v261h-52q23 50 37 104h205q-4 -29 -4 -99z" />
    <glyph glyph-name="Nacute" unicode="&#x143;" horiz-adv-x="739" 
d="M260 144q0 -88 4 -144h-195q4 56 4 145v354q0 91 -4 199h41q67 -67 115 -107l254 -218v133q0 95 -4 179h195q-5 -110 -5 -179v-356q0 -90 5 -162h-39q-73 75 -98 97l-273 234v-175zM267 735l134 149h215l-179 -149h-170z" />
    <glyph glyph-name="nacute" unicode="&#x144;" horiz-adv-x="601" 
d="M360 260q0 36 -14 57.5t-41 21.5q-56 0 -56 -78v-161q0 -63 4 -100h-193q3 42 3 100v272h-52q24 55 37 105h201v-49q44 58 127 58q170 0 170 -226v-160q0 -63 4 -100h-194q4 37 4 100v160zM219 538l126 170h187l-155 -170h-158z" />
    <glyph glyph-name="Ncommaaccent" unicode="&#x145;" horiz-adv-x="739" 
d="M260 144q0 -88 4 -144h-195q4 56 4 145v354q0 91 -4 199h41q67 -67 115 -107l254 -218v133q0 95 -4 179h195q-5 -110 -5 -179v-356q0 -90 5 -162h-39q-73 75 -98 97l-273 234v-175zM348 -124v99q82 0 129.5 -35t47.5 -92q0 -52 -37 -82.5t-102 -30.5q-43 0 -72 13v108
q20 -20 48 -20q29 0 29 19q0 21 -43 21z" />
    <glyph glyph-name="ncommaaccent" unicode="&#x146;" horiz-adv-x="601" 
d="M360 260q0 36 -14 57.5t-41 21.5q-56 0 -56 -78v-161q0 -63 4 -100h-193q3 42 3 100v272h-52q24 55 37 105h201v-49q44 58 127 58q170 0 170 -226v-160q0 -63 4 -100h-194q4 37 4 100v160zM247 -124v99q82 0 129.5 -35t47.5 -92q0 -52 -37 -82.5t-102 -30.5q-43 0 -72 13
v108q20 -20 48 -20q29 0 29 19q0 21 -43 21z" />
    <glyph glyph-name="Ncaron" unicode="&#x147;" horiz-adv-x="739" 
d="M260 144q0 -88 4 -144h-195q4 56 4 145v354q0 91 -4 199h41q67 -67 115 -107l254 -218v133q0 95 -4 179h195q-5 -110 -5 -179v-356q0 -90 5 -162h-39q-73 75 -98 97l-273 234v-175zM358 849l35 36h167l-186 -161h-39l-182 161h172z" />
    <glyph glyph-name="ncaron" unicode="&#x148;" horiz-adv-x="601" 
d="M360 260q0 36 -14 57.5t-41 21.5q-56 0 -56 -78v-161q0 -63 4 -100h-193q3 42 3 100v272h-52q24 55 37 105h201v-49q44 58 127 58q170 0 170 -226v-160q0 -63 4 -100h-194q4 37 4 100v160zM310 656l34 50h136l-152 -184h-39l-156 184h143z" />
    <glyph glyph-name="napostrophe" unicode="&#x149;" horiz-adv-x="601" 
d="M360 260q0 36 -14 57.5t-41 21.5q-56 0 -56 -78v-161q0 -63 4 -100h-193q3 42 3 100v272h-52q24 55 37 105h201v-49q44 58 127 58q170 0 170 -226v-160q0 -63 4 -100h-194q4 37 4 100v160zM43 529l11 198h158l-33 -198h-136z" />
    <glyph glyph-name="Eng" unicode="&#x14a;" horiz-adv-x="739" 
d="M665 506v-524q0 -115 -74 -187.5t-193 -72.5q-25 0 -58 6.5t-54 6.5v184q34 -45 107 -45q38 0 62 29.5t24 76.5v151l-219 188v-175q0 -86 4 -144h-195q4 112 4 145v354q0 91 -4 199h40q5 -5 22 -21.5t31 -29.5t22 -20l295 -254v133q0 119 -4 179h194q-4 -60 -4 -179z" />
    <glyph glyph-name="eng" unicode="&#x14b;" horiz-adv-x="603" 
d="M361 264q0 75 -55 75q-56 0 -56 -75v-164q0 -63 4 -100h-194q3 42 3 100v273h-52q24 51 37 104h202v-49q44 59 127 59q80 0 125.5 -54t45.5 -158v-260q0 -130 -57.5 -196t-138.5 -66q-41 0 -77 4.5t-40 4.5v160q16 -13 53 -13q73 0 73 115v240z" />
    <glyph glyph-name="Omacron" unicode="&#x14c;" horiz-adv-x="831" 
d="M42 343q0 148 107 251.5t266 103.5q160 0 267 -103.5t107 -251.5q0 -149 -107 -252.5t-267 -103.5q-159 0 -266 103.5t-107 252.5zM239 343q0 -80 50.5 -135.5t125.5 -55.5t126 55.5t51 135.5t-51 135.5t-126 55.5t-125.5 -55.5t-50.5 -135.5zM239 863h353v-117h-353v117
z" />
    <glyph glyph-name="omacron" unicode="&#x14d;" horiz-adv-x="579" 
d="M32 239q0 103 75.5 175.5t181.5 72.5q107 0 182.5 -72.5t75.5 -175.5q0 -102 -75.5 -174t-182.5 -72t-182 72t-75 174zM208 239q0 -36 23.5 -61t57.5 -25t58 25t24 61q0 37 -24 62t-58 25t-57.5 -25t-23.5 -62zM128 681h322v-123h-322v123z" />
    <glyph glyph-name="Obreve" unicode="&#x14e;" horiz-adv-x="831" 
d="M42 343q0 148 107 251.5t266 103.5q160 0 267 -103.5t107 -251.5q0 -149 -107 -252.5t-267 -103.5q-159 0 -266 103.5t-107 252.5zM239 343q0 -80 50.5 -135.5t125.5 -55.5t126 55.5t51 135.5t-51 135.5t-126 55.5t-125.5 -55.5t-50.5 -135.5zM367 862q0 -16 13.5 -25
t34.5 -9q20 0 34 9t14 25h120q0 -63 -48 -98.5t-120 -35.5t-120 35.5t-48 98.5h120z" />
    <glyph glyph-name="obreve" unicode="&#x14f;" horiz-adv-x="579" 
d="M32 239q0 103 75.5 175.5t181.5 72.5q107 0 182.5 -72.5t75.5 -175.5q0 -102 -75.5 -174t-182.5 -72t-182 72t-75 174zM208 239q0 -36 23.5 -61t57.5 -25t58 25t24 61q0 37 -24 62t-58 25t-57.5 -25t-23.5 -62zM247 686q0 -19 12 -32t29 -13t29.5 13t12.5 32h121
q0 -66 -48 -113t-115 -47t-114.5 47t-47.5 113h121z" />
    <glyph glyph-name="Ohungarumlaut" unicode="&#x150;" horiz-adv-x="831" 
d="M42 343q0 148 107 251.5t266 103.5q160 0 267 -103.5t107 -251.5q0 -149 -107 -252.5t-267 -103.5q-159 0 -266 103.5t-107 252.5zM239 343q0 -80 50.5 -135.5t125.5 -55.5t126 55.5t51 135.5t-51 135.5t-126 55.5t-125.5 -55.5t-50.5 -135.5zM223 735l96 159h167
l-116 -159h-147zM445 735l96 159h167l-116 -159h-147z" />
    <glyph glyph-name="ohungarumlaut" unicode="&#x151;" horiz-adv-x="579" 
d="M32 239q0 103 75.5 175.5t181.5 72.5q107 0 182.5 -72.5t75.5 -175.5q0 -102 -75.5 -174t-182.5 -72t-182 72t-75 174zM208 239q0 -36 23.5 -61t57.5 -25t58 25t24 61q0 37 -24 62t-58 25t-57.5 -25t-23.5 -62zM108 539l96 159h167l-116 -159h-147zM330 539l96 159h167
l-116 -159h-147z" />
    <glyph glyph-name="OE" unicode="&#x152;" horiz-adv-x="949" 
d="M706 523h-53v-92h40q110 0 172 4v-169q-62 4 -172 4h-40v-108h61q113 0 173 4v-170q-60 4 -173 4h-281q-175 0 -283 96.5t-108 246.5t106 246t283 96h275q96 0 173 5v-171q-41 4 -173 4zM239 343q0 -82 49.5 -131.5t135.5 -49.5h33l1 92v189l-1 80h-35q-83 0 -133 -48
t-50 -132z" />
    <glyph glyph-name="oe" unicode="&#x153;" horiz-adv-x="860" 
d="M824 188h-277q32 -52 109 -52q62 0 113 24v-151q-14 -2 -41.5 -6.5t-52 -7.5t-47.5 -3q-114 0 -175 73q-54 -73 -170 -73q-102 0 -176.5 72t-74.5 175t73.5 175.5t177.5 72.5q63 0 100.5 -18t65.5 -51q49 69 160 69q94 0 157 -73t63 -173q0 -33 -5 -53zM206 239
q0 -36 23.5 -61t55.5 -25q35 0 60 25t25 60q0 37 -24 62.5t-58 25.5t-58 -25t-24 -62zM593 355q-37 0 -53 -43h99q-11 43 -46 43z" />
    <glyph glyph-name="Racute" unicode="&#x154;" horiz-adv-x="700" 
d="M270 242v-62q0 -128 5 -180h-205q5 52 5 180v326q0 129 -5 179h254q128 0 199 -62.5t71 -162.5q0 -143 -135 -188q30 -31 109.5 -128t131.5 -144h-253q-32 38 -83 116t-69 127q-4 -1 -9 -1h-16zM224 735l134 149h215l-179 -149h-170zM270 531v-150h48q36 0 58.5 21
t22.5 52q0 32 -22.5 54.5t-61.5 22.5h-45z" />
    <glyph glyph-name="racute" unicode="&#x155;" horiz-adv-x="441" 
d="M371 487q15 0 24 -2t12 -2v-194q-33 23 -69 23q-39 0 -58.5 -34.5t-19.5 -72.5v-105q0 -56 4 -100h-194q3 50 3 100v273h-52q27 59 37 104h182v-103q14 51 48.5 82t82.5 31zM152 538l126 170h187l-155 -170h-158z" />
    <glyph glyph-name="Rcommaaccent" unicode="&#x156;" horiz-adv-x="700" 
d="M270 242v-62q0 -128 5 -180h-205q5 52 5 180v326q0 129 -5 179h254q128 0 199 -62.5t71 -162.5q0 -143 -135 -188q30 -31 109.5 -128t131.5 -144h-253q-32 38 -83 116t-69 127q-4 -1 -9 -1h-16zM270 531v-150h48q36 0 58.5 21t22.5 52q0 32 -22.5 54.5t-61.5 22.5h-45z
M285 -124v99q82 0 129.5 -35t47.5 -92q0 -52 -37 -82.5t-102 -30.5q-43 0 -72 13v108q20 -20 48 -20q29 0 29 19q0 21 -43 21z" />
    <glyph glyph-name="rcommaaccent" unicode="&#x157;" horiz-adv-x="441" 
d="M371 487q15 0 24 -2t12 -2v-194q-33 23 -69 23q-39 0 -58.5 -34.5t-19.5 -72.5v-105q0 -56 4 -100h-194q3 50 3 100v273h-52q27 59 37 104h182v-103q14 51 48.5 82t82.5 31zM103 -124v99q82 0 129.5 -35t47.5 -92q0 -52 -37 -82.5t-102 -30.5q-43 0 -72 13v108
q20 -20 48 -20q29 0 29 19q0 21 -43 21z" />
    <glyph glyph-name="Rcaron" unicode="&#x158;" horiz-adv-x="700" 
d="M270 242v-62q0 -128 5 -180h-205q5 52 5 180v326q0 129 -5 179h254q128 0 199 -62.5t71 -162.5q0 -143 -135 -188q30 -31 109.5 -128t131.5 -144h-253q-32 38 -83 116t-69 127q-4 -1 -9 -1h-16zM335 849l35 36h167l-186 -161h-39l-182 161h172zM270 531v-150h48
q36 0 58.5 21t22.5 52q0 32 -22.5 54.5t-61.5 22.5h-45z" />
    <glyph glyph-name="rcaron" unicode="&#x159;" horiz-adv-x="441" 
d="M371 487q15 0 24 -2t12 -2v-194q-33 23 -69 23q-39 0 -58.5 -34.5t-19.5 -72.5v-105q0 -56 4 -100h-194q3 50 3 100v273h-52q27 59 37 104h182v-103q14 51 48.5 82t82.5 31zM234 656l34 50h136l-152 -184h-39l-156 184h143z" />
    <glyph glyph-name="Sacute" unicode="&#x15a;" horiz-adv-x="562" 
d="M288 510q0 -20 22 -40.5t53 -41.5t62 -48t53 -71.5t22 -99.5q0 -102 -74.5 -163.5t-190.5 -61.5q-42 0 -100.5 8t-77.5 9v211q28 -33 81 -54.5t98 -21.5q27 0 41.5 12.5t14.5 32.5q0 23 -21 44t-51 42t-60.5 46.5t-51.5 68.5t-21 97q0 103 66.5 162t186.5 59q29 0 72 -7
t64 -8v-193q-23 29 -60.5 44.5t-74.5 15.5q-53 0 -53 -42zM218 735l134 149h215l-179 -149h-170z" />
    <glyph glyph-name="sacute" unicode="&#x15b;" horiz-adv-x="449" 
d="M232 344q0 -9 18.5 -19t45 -22.5t52.5 -30.5t44.5 -50t18.5 -73q0 -73 -51 -117t-150 -44q-35 0 -95.5 13.5t-69.5 13.5v167q23 -24 75.5 -44t82.5 -20q25 0 25 18q0 11 -27.5 25t-61 29t-61 51.5t-27.5 86.5q0 77 53 118t152 41q34 0 79.5 -9.5t52.5 -9.5v-154
q-19 23 -59.5 36.5t-65.5 13.5q-31 0 -31 -20zM157 538l126 170h187l-155 -170h-158z" />
    <glyph glyph-name="Scircumflex" unicode="&#x15c;" horiz-adv-x="562" 
d="M288 510q0 -20 22 -40.5t53 -41.5t62 -48t53 -71.5t22 -99.5q0 -102 -74.5 -163.5t-190.5 -61.5q-42 0 -100.5 8t-77.5 9v211q28 -33 81 -54.5t98 -21.5q27 0 41.5 12.5t14.5 32.5q0 23 -21 44t-51 42t-60.5 46.5t-51.5 68.5t-21 97q0 103 66.5 162t186.5 59q29 0 72 -7
t64 -8v-193q-23 29 -60.5 44.5t-74.5 15.5q-53 0 -53 -42zM308 772l-35 -36h-167l186 161h39l182 -161h-172z" />
    <glyph glyph-name="scircumflex" unicode="&#x15d;" horiz-adv-x="449" 
d="M232 344q0 -9 18.5 -19t45 -22.5t52.5 -30.5t44.5 -50t18.5 -73q0 -73 -51 -117t-150 -44q-35 0 -95.5 13.5t-69.5 13.5v167q23 -24 75.5 -44t82.5 -20q25 0 25 18q0 11 -27.5 25t-61 29t-61 51.5t-27.5 86.5q0 77 53 118t152 41q34 0 79.5 -9.5t52.5 -9.5v-154
q-19 23 -59.5 36.5t-65.5 13.5q-31 0 -31 -20zM231 584l-34 -50h-136l152 184h39l156 -184h-143z" />
    <glyph glyph-name="Scedilla" unicode="&#x15e;" horiz-adv-x="562" 
d="M137 -128l57 113q-24 2 -68 8t-69 8v211q28 -33 81 -54.5t98 -21.5q27 0 41.5 12.5t14.5 32.5q0 23 -21 44t-51 42t-60.5 46.5t-51.5 68.5t-21 97q0 103 66.5 162t186.5 59q29 0 72 -7t64 -8v-193q-23 29 -60.5 44.5t-74.5 15.5q-53 0 -53 -42q0 -20 22 -40.5t53 -41.5
t62 -48t53 -71.5t22 -99.5q0 -91 -60 -150.5t-157 -71.5l-13 -24q89 -21 89 -105q0 -56 -37 -89t-110 -33q-19 0 -48 6.5t-39 7.5v99q26 -25 69 -25q20 0 32 7.5t12 19.5q0 31 -53 31q-29 0 -48 -10z" />
    <glyph glyph-name="scedilla" unicode="&#x15f;" horiz-adv-x="449" 
d="M120 -124l58 114q-27 4 -74.5 14.5t-58.5 10.5v167q23 -24 75.5 -44t82.5 -20q25 0 25 18q0 11 -27.5 25t-61 29t-61 51.5t-27.5 86.5q0 77 53 118t152 41q34 0 79.5 -9.5t52.5 -9.5v-154q-19 23 -59.5 36.5t-65.5 13.5q-31 0 -31 -20q0 -9 18.5 -19t45 -22.5t52.5 -30.5
t44.5 -50t18.5 -73q0 -62 -37.5 -103.5t-109.5 -53.5l-15 -28q86 -20 86 -102q0 -54 -36 -86t-107 -32q-18 0 -46.5 6.5t-37.5 7.5v96q25 -25 67 -25q19 0 31 7.5t12 19.5q0 30 -52 30q-29 0 -46 -10z" />
    <glyph glyph-name="Scaron" unicode="&#x160;" horiz-adv-x="562" 
d="M288 510q0 -20 22 -40.5t53 -41.5t62 -48t53 -71.5t22 -99.5q0 -102 -74.5 -163.5t-190.5 -61.5q-42 0 -100.5 8t-77.5 9v211q28 -33 81 -54.5t98 -21.5q27 0 41.5 12.5t14.5 32.5q0 23 -21 44t-51 42t-60.5 46.5t-51.5 68.5t-21 97q0 103 66.5 162t186.5 59q29 0 72 -7
t64 -8v-193q-23 29 -60.5 44.5t-74.5 15.5q-53 0 -53 -42zM308 849l35 36h167l-186 -161h-39l-182 161h172z" />
    <glyph glyph-name="scaron" unicode="&#x161;" horiz-adv-x="449" 
d="M232 344q0 -9 18.5 -19t45 -22.5t52.5 -30.5t44.5 -50t18.5 -73q0 -73 -51 -117t-150 -44q-35 0 -95.5 13.5t-69.5 13.5v167q23 -24 75.5 -44t82.5 -20q25 0 25 18q0 11 -27.5 25t-61 29t-61 51.5t-27.5 86.5q0 77 53 118t152 41q34 0 79.5 -9.5t52.5 -9.5v-154
q-19 23 -59.5 36.5t-65.5 13.5q-31 0 -31 -20zM244 656l34 50h136l-152 -184h-39l-156 184h143z" />
    <glyph glyph-name="Tcommaaccent" unicode="&#x162;" horiz-adv-x="665" 
d="M208 685h247q122 0 182 4v-170q-75 5 -182 5h-23q-1 -37 -1 -128v-217q0 -127 5 -179h-207q5 78 5 179v217q0 72 -3 128h-23q-105 0 -180 -5v170q60 -4 180 -4zM274 -124v99q82 0 129.5 -35t47.5 -92q0 -52 -37 -82.5t-102 -30.5q-43 0 -72 13v108q20 -20 48 -20
q29 0 29 19q0 21 -43 21z" />
    <glyph glyph-name="tcommaaccent" unicode="&#x163;" horiz-adv-x="438" 
d="M89 608h191q-3 -36 -3 -91v-40h124v-153h-124v-96q0 -83 65 -83q35 0 45 10v-155q-9 0 -41 -4t-59 -4q-84 0 -139.5 50.5t-55.5 147.5v134h-64v153h64v40q0 55 -3 91zM183 -124v99q82 0 129.5 -35t47.5 -92q0 -52 -37 -82.5t-102 -30.5q-43 0 -72 13v108q20 -20 48 -20
q29 0 29 19q0 21 -43 21z" />
    <glyph glyph-name="Tcaron" unicode="&#x164;" horiz-adv-x="665" 
d="M208 685h247q122 0 182 4v-170q-75 5 -182 5h-23q-1 -37 -1 -128v-217q0 -127 5 -179h-207q5 78 5 179v217q0 72 -3 128h-23q-105 0 -180 -5v170q60 -4 180 -4zM335 849l35 36h167l-186 -161h-39l-182 161h172z" />
    <glyph glyph-name="tcaron" unicode="&#x165;" horiz-adv-x="438" 
d="M89 608h191q-3 -36 -3 -91v-40h124v-153h-124v-96q0 -83 65 -83q35 0 45 10v-155q-9 0 -41 -4t-59 -4q-84 0 -139.5 50.5t-55.5 147.5v134h-64v153h64v40q0 55 -3 91zM327 552l11 198h158l-33 -198h-136z" />
    <glyph glyph-name="Tbar" unicode="&#x166;" horiz-adv-x="665" 
d="M208 685h247q122 0 182 4v-170q-75 5 -182 5h-23q-1 -37 -1 -128v-8h114v-138h-114v-71q0 -127 5 -179h-207q5 78 5 179v71h-110v138h110v8q0 72 -3 128h-23q-105 0 -180 -5v170q60 -4 180 -4z" />
    <glyph glyph-name="tbar" unicode="&#x167;" horiz-adv-x="438" 
d="M89 608h191q-3 -36 -3 -91v-40h124v-153h-124v-38h80v-76h-79q7 -65 64 -65q35 0 45 10v-155q-9 0 -41 -4t-59 -4q-84 0 -139.5 50.5t-55.5 147.5v20h-51v76h51v38h-64v153h64v40q0 55 -3 91z" />
    <glyph glyph-name="Utilde" unicode="&#x168;" horiz-adv-x="730" 
d="M68 685h205q-5 -68 -5 -179v-235q0 -54 28.5 -83.5t68.5 -29.5q41 0 69.5 29.5t28.5 83.5v235q0 95 -4 179h203q-3 -66 -3 -179v-230q0 -132 -84 -209.5t-210 -77.5q-127 0 -210 77t-83 210v230q0 125 -4 179zM260 742h-121q0 69 41.5 112.5t114.5 43.5q31 0 54 -7
t34 -15.5t24 -15.5t26 -7q35 0 35 36l122 1q0 -68 -41.5 -111.5t-115.5 -43.5q-48 0 -84.5 19.5t-53.5 19.5q-35 0 -35 -32z" />
    <glyph glyph-name="utilde" unicode="&#x169;" horiz-adv-x="606" 
d="M246 218q0 -45 18.5 -62.5t39.5 -17.5q12 0 22.5 4t21.5 23.5t11 52.5v159q0 61 -4 100h194q-4 -39 -4 -100v-269q0 -75 16 -108h-181q-12 21 -14 55q-28 -37 -59.5 -50.5t-77.5 -13.5q-78 0 -123.5 52.5t-45.5 150.5v178h-52q20 44 36 105h207q-5 -48 -5 -100v-159z
M234 535h-112q1 63 36.5 106.5t89.5 43.5q39 0 68.5 -20t39.5 -20q24 0 24 33h105q0 -63 -33 -106.5t-85 -43.5q-29 0 -49.5 10t-34.5 20.5t-25 10.5q-24 0 -24 -34z" />
    <glyph glyph-name="Umacron" unicode="&#x16a;" horiz-adv-x="730" 
d="M68 685h205q-5 -68 -5 -179v-235q0 -54 28.5 -83.5t68.5 -29.5q41 0 69.5 29.5t28.5 83.5v235q0 95 -4 179h203q-3 -66 -3 -179v-230q0 -132 -84 -209.5t-210 -77.5q-127 0 -210 77t-83 210v230q0 125 -4 179zM188 863h353v-117h-353v117z" />
    <glyph glyph-name="umacron" unicode="&#x16b;" horiz-adv-x="606" 
d="M246 218q0 -45 18.5 -62.5t39.5 -17.5q12 0 22.5 4t21.5 23.5t11 52.5v159q0 61 -4 100h194q-4 -39 -4 -100v-269q0 -75 16 -108h-181q-12 21 -14 55q-28 -37 -59.5 -50.5t-77.5 -13.5q-78 0 -123.5 52.5t-45.5 150.5v178h-52q20 44 36 105h207q-5 -48 -5 -100v-159z
M142 681h322v-123h-322v123z" />
    <glyph glyph-name="Ubreve" unicode="&#x16c;" horiz-adv-x="730" 
d="M68 685h205q-5 -68 -5 -179v-235q0 -54 28.5 -83.5t68.5 -29.5q41 0 69.5 29.5t28.5 83.5v235q0 95 -4 179h203q-3 -66 -3 -179v-230q0 -132 -84 -209.5t-210 -77.5q-127 0 -210 77t-83 210v230q0 125 -4 179zM316 862q0 -16 13.5 -25t34.5 -9q20 0 34 9t14 25h120
q0 -63 -48 -98.5t-120 -35.5t-120 35.5t-48 98.5h120z" />
    <glyph glyph-name="ubreve" unicode="&#x16d;" horiz-adv-x="606" 
d="M246 218q0 -45 18.5 -62.5t39.5 -17.5q12 0 22.5 4t21.5 23.5t11 52.5v159q0 61 -4 100h194q-4 -39 -4 -100v-269q0 -75 16 -108h-181q-12 21 -14 55q-28 -37 -59.5 -50.5t-77.5 -13.5q-78 0 -123.5 52.5t-45.5 150.5v178h-52q20 44 36 105h207q-5 -48 -5 -100v-159z
M261 686q0 -19 12 -32t29 -13t29.5 13t12.5 32h121q0 -66 -48 -113t-115 -47t-114.5 47t-47.5 113h121z" />
    <glyph glyph-name="Uring" unicode="&#x16e;" horiz-adv-x="730" 
d="M68 685h205q-5 -68 -5 -179v-235q0 -54 28.5 -83.5t68.5 -29.5q41 0 69.5 29.5t28.5 83.5v235q0 95 -4 179h203q-3 -66 -3 -179v-230q0 -132 -84 -209.5t-210 -77.5q-127 0 -210 77t-83 210v230q0 125 -4 179zM252 841q0 43 33 74t80 31t80 -30.5t33 -74.5t-33 -74.5
t-80 -30.5t-80 31t-33 74zM336 841q0 -12 8.5 -20t20.5 -8t20.5 8t8.5 20t-8.5 20.5t-20.5 8.5t-20.5 -8.5t-8.5 -20.5z" />
    <glyph glyph-name="uring" unicode="&#x16f;" horiz-adv-x="606" 
d="M246 218q0 -45 18.5 -62.5t39.5 -17.5q12 0 22.5 4t21.5 23.5t11 52.5v159q0 61 -4 100h194q-4 -39 -4 -100v-269q0 -75 16 -108h-181q-12 21 -14 55q-28 -37 -59.5 -50.5t-77.5 -13.5q-78 0 -123.5 52.5t-45.5 150.5v178h-52q20 44 36 105h207q-5 -48 -5 -100v-159z
M187 624q0 44 34 75.5t81 31.5q49 0 83 -31.5t34 -75.5t-34 -76t-83 -32q-47 0 -81 32t-34 76zM275 624q0 -11 8 -19t19 -8q12 0 20 8t8 19t-8 19t-20 8q-11 0 -19 -8t-8 -19z" />
    <glyph glyph-name="Uhungarumlaut" unicode="&#x170;" horiz-adv-x="730" 
d="M68 685h205q-5 -68 -5 -179v-235q0 -54 28.5 -83.5t68.5 -29.5q41 0 69.5 29.5t28.5 83.5v235q0 95 -4 179h203q-3 -66 -3 -179v-230q0 -132 -84 -209.5t-210 -77.5q-127 0 -210 77t-83 210v230q0 125 -4 179zM172 735l96 159h167l-116 -159h-147zM394 735l96 159h167
l-116 -159h-147z" />
    <glyph glyph-name="uhungarumlaut" unicode="&#x171;" horiz-adv-x="606" 
d="M246 218q0 -45 18.5 -62.5t39.5 -17.5q12 0 22.5 4t21.5 23.5t11 52.5v159q0 61 -4 100h194q-4 -39 -4 -100v-269q0 -75 16 -108h-181q-12 21 -14 55q-28 -37 -59.5 -50.5t-77.5 -13.5q-78 0 -123.5 52.5t-45.5 150.5v178h-52q20 44 36 105h207q-5 -48 -5 -100v-159z
M115 539l96 159h167l-116 -159h-147zM337 539l96 159h167l-116 -159h-147z" />
    <glyph glyph-name="Uogonek" unicode="&#x172;" horiz-adv-x="730" 
d="M241 -161q0 47 33 87.5t83 63.5h-3q-113 0 -197.5 81t-84.5 207v228q0 125 -4 179h205q-5 -68 -5 -179v-232q0 -54 28.5 -85t68.5 -31q41 0 69.5 31t28.5 85v232q0 95 -4 179h203q-3 -66 -3 -179v-228q0 -139 -115 -235q-13 -11 -35 -28.5t-32.5 -26t-25 -21.5
t-20.5 -21.5t-11 -19t-5 -20.5q0 -18 13 -29t31 -10q31 1 64 36v-126q-74 -41 -153 -41q-60 0 -94.5 29t-34.5 74z" />
    <glyph glyph-name="uogonek" unicode="&#x173;" horiz-adv-x="606" 
d="M246 218q0 -45 18.5 -62.5t39.5 -17.5q12 0 22.5 4t21.5 23.5t11 52.5v159q0 61 -4 100h194q-4 -39 -4 -100v-269q0 -75 16 -108h-1q-63 -5 -99 -38.5t-36 -63.5q0 -17 11.5 -26.5t30.5 -9.5q29 0 60 25v-112q-24 -14 -38.5 -20.5t-42 -13t-59.5 -6.5q-52 0 -88.5 29
t-36.5 75q0 45 28 82.5t90 78.5q-12 21 -14 55q-28 -37 -59.5 -50.5t-77.5 -13.5q-78 0 -123.5 52.5t-45.5 150.5v178h-52q20 44 36 105h207q-5 -48 -5 -100v-159z" />
    <glyph glyph-name="Wcircumflex" unicode="&#x174;" horiz-adv-x="1101" 
d="M536 603l35 -61l20 40q33 65 47 103h184q-50 -84 -90 -156l-74 -134l51 -93l147 289q32 62 44 94h196q-8 -15 -30 -52.5t-37 -66.5l-316 -575h-14l-136 238l-131 -238h-25l-306 530q-77 132 -99 164h219q19 -46 49 -100l168 -296l40 79l-109 192q-33 57 -79 125h203
q17 -34 43 -82zM568 772l-35 -36h-167l186 161h39l182 -161h-172z" />
    <glyph glyph-name="wcircumflex" unicode="&#x175;" horiz-adv-x="771" 
d="M430 477q7 -22 21 -48l67 -137l34 90q8 22 29 95h190q-29 -50 -73 -157l-92 -223q-13 -30 -39 -105h-55q-16 35 -39 77l-86 153l-83 -155q-20 -40 -35 -75h-58q-20 56 -53 131l-111 255q-27 62 -47 99h211q5 -28 19 -69l48 -126l71 149q12 24 18 46h63zM391 584l-34 -50
h-136l152 184h39l156 -184h-143z" />
    <glyph glyph-name="Ycircumflex" unicode="&#x176;" horiz-adv-x="706" 
d="M253 0q3 93 3 149v148l-165 260q-54 83 -91 128h236q17 -39 38 -75l87 -146l85 143q22 35 42 78h218q-33 -42 -102 -149l-153 -237v-150q0 -87 4 -149h-202zM359 772l-35 -36h-167l186 161h39l182 -161h-172z" />
    <glyph glyph-name="ycircumflex" unicode="&#x177;" horiz-adv-x="586" 
d="M292 -131q-39 -64 -88 -90t-122 -26q-27 0 -56 9q45 49 71 87q79 112 118 188l-163 341q-20 41 -52 99h216q6 -30 21 -65l73 -169q25 65 55 165q7 18 16 69h205q-26 -45 -49 -105q-100 -240 -144 -327q-43 -85 -101 -176zM299 584l-34 -50h-136l152 184h39l156 -184h-143
z" />
    <glyph glyph-name="Ydieresis" unicode="&#x178;" horiz-adv-x="706" 
d="M253 0q3 93 3 149v148l-165 260q-54 83 -91 128h236q17 -39 38 -75l87 -146l85 143q22 35 42 78h218q-33 -42 -102 -149l-153 -237v-150q0 -87 4 -149h-202zM133 826q0 40 28.5 68t68.5 28q41 0 69.5 -28t28.5 -68q0 -39 -28.5 -66.5t-69.5 -27.5q-40 0 -68.5 27.5
t-28.5 66.5zM378 826q0 40 29 68t70 28q40 0 68 -28t28 -68q0 -39 -28 -66.5t-68 -27.5q-41 0 -70 27.5t-29 66.5z" />
    <glyph glyph-name="Zacute" unicode="&#x179;" horiz-adv-x="606" 
d="M492 534l-177 -372h85q105 0 165 4v-170q-60 4 -165 4h-375q30 52 77 152l172 372h-72q-124 0 -165 -4v169q62 -4 165 -4h364q-34 -67 -74 -151zM195 735l134 149h215l-179 -149h-170z" />
    <glyph glyph-name="zacute" unicode="&#x17a;" horiz-adv-x="515" 
d="M483 477l-178 -323h103q46 0 79 3v-160q-31 3 -80 3h-376l176 323h-84q-45 0 -79 -3v160q33 -3 81 -3h358zM181 538l126 170h187l-155 -170h-158z" />
    <glyph glyph-name="Zdotaccent" unicode="&#x17b;" horiz-adv-x="606" 
d="M492 534l-177 -372h85q105 0 165 4v-170q-60 4 -165 4h-375q30 52 77 152l172 372h-72q-124 0 -165 -4v169q62 -4 165 -4h364q-34 -67 -74 -151zM199 825q0 43 30 73t73 30t72.5 -30t29.5 -73t-29.5 -73.5t-72.5 -30.5t-73 30.5t-30 73.5z" />
    <glyph glyph-name="zdotaccent" unicode="&#x17c;" horiz-adv-x="515" 
d="M483 477l-178 -323h103q46 0 79 3v-160q-31 3 -80 3h-376l176 323h-84q-45 0 -79 -3v160q33 -3 81 -3h358zM158 624q0 42 29.5 71t70.5 29t69.5 -29t28.5 -71q0 -41 -28.5 -70.5t-69.5 -29.5t-70.5 29.5t-29.5 70.5z" />
    <glyph glyph-name="Zcaron" unicode="&#x17d;" horiz-adv-x="606" 
d="M492 534l-177 -372h85q105 0 165 4v-170q-60 4 -165 4h-375q30 52 77 152l172 372h-72q-124 0 -165 -4v169q62 -4 165 -4h364q-34 -67 -74 -151zM300 849l35 36h167l-186 -161h-39l-182 161h172z" />
    <glyph glyph-name="zcaron" unicode="&#x17e;" horiz-adv-x="515" 
d="M483 477l-178 -323h103q46 0 79 3v-160q-31 3 -80 3h-376l176 323h-84q-45 0 -79 -3v160q33 -3 81 -3h358zM265 656l34 50h136l-152 -184h-39l-156 184h143z" />
    <glyph glyph-name="longs" unicode="&#x17f;" horiz-adv-x="360" 
d="M28 324v153h87v17q0 121 58 183.5t156 62.5q31 0 64 -4.5t56 -4.5v-166q-22 25 -75 25q-74 0 -74 -104v-386q0 -54 2 -100h-189q2 46 2 100v224h-87z" />
    <glyph glyph-name="uni018F" unicode="&#x18f;" horiz-adv-x="757" 
d="M46 401h465v2q0 45 -51 85.5t-137 40.5q-117 0 -203 -64v195q15 2 53 13.5t86.5 20t104.5 8.5q165 0 256.5 -99t91.5 -254q0 -150 -96.5 -253t-246.5 -103q-148 0 -238 95.5t-90 241.5q0 38 5 71zM378 166q51 0 84.5 22.5t37.5 62.5h-242q12 -85 120 -85z" />
    <glyph glyph-name="florin" unicode="&#x192;" horiz-adv-x="572" 
d="M55 394h100l4 25q23 129 84 196.5t172 67.5q35 0 65 -7t38 -8v-165q-28 26 -79 26q-42 0 -65 -28.5t-34 -95.5l-1 -11h107v-140h-125l-20 -133q-28 -179 -100.5 -258t-200.5 -79q-24 0 -57.5 8.5t-35.5 8.5l1 166q27 -27 87 -27q34 0 53.5 11.5t37.5 54t31 125.5l20 123
h-82v140z" />
    <glyph glyph-name="uni019F" unicode="&#x19f;" horiz-adv-x="834" 
d="M42 343q0 148 107 251.5t266 103.5q160 0 267 -103.5t107 -251.5q0 -149 -107 -252.5t-267 -103.5q-159 0 -266 103.5t-107 252.5zM415 152q64 0 111 41t61 105h-343q14 -64 60.5 -105t110.5 -41zM415 534q-61 0 -106.5 -37t-62.5 -97h338q-16 59 -62 96.5t-107 37.5z
" />
    <glyph glyph-name="Ohorn" unicode="&#x1a0;" horiz-adv-x="831" 
d="M239 343q0 -80 50.5 -135.5t125.5 -55.5t126 55.5t51 135.5t-51 135.5t-126 55.5t-125.5 -55.5t-50.5 -135.5zM663 758h170q4 -26 4 -62q0 -62 -31 -102t-81 -49q64 -88 64 -202q0 -149 -107 -252.5t-267 -103.5q-159 0 -266 103.5t-107 252.5q0 148 107 251.5t266 103.5
q62 0 112.5 -15.5t78.5 -31t37 -15.5q34 0 34 35q0 41 -14 87z" />
    <glyph glyph-name="ohorn" unicode="&#x1a1;" horiz-adv-x="570" 
d="M442 551h156q0 -3 1.5 -15t1.5 -14q10 -135 -91 -163q32 -53 32 -120q0 -102 -75.5 -174t-182.5 -72q-106 0 -181 72t-75 174q0 103 75 175.5t181 72.5q45 0 78.5 -11.5t52 -23t27.5 -11.5q13 0 13 22q0 47 -13 88zM203 239q0 -36 23.5 -61t57.5 -25t58 25t24 61
q0 37 -24 62t-58 25t-57.5 -25t-23.5 -62z" />
    <glyph glyph-name="Uhorn" unicode="&#x1af;" horiz-adv-x="730" 
d="M68 685h205q-5 -68 -5 -179v-235q0 -54 28.5 -83.5t68.5 -29.5q41 0 69.5 29.5t28.5 83.5v235q0 95 -4 179h143q26 0 26 32q0 37 -15 78h172q6 -30 6 -66q0 -56 -31.5 -99t-100.5 -51v-303q0 -132 -84 -209.5t-210 -77.5q-127 0 -210 77t-83 210v230q0 125 -4 179z" />
    <glyph glyph-name="uhorn" unicode="&#x1b0;" horiz-adv-x="606" 
d="M505 578h155q5 -27 5 -43q4 -138 -120 -156v-271q0 -79 16 -108h-180q-11 19 -16 55q-26 -36 -57.5 -50t-80.5 -14q-76 0 -121.5 51t-45.5 149v182h-52q22 52 36 104h207q-5 -47 -5 -100v-159q0 -45 18.5 -62.5t39.5 -17.5q12 0 22.5 4t21.5 23.5t11 52.5v159
q0 63 -4 100h134q25 0 27 24q0 36 -11 77z" />
    <glyph glyph-name="uni01C4" unicode="&#x1c4;" horiz-adv-x="1338" 
d="M345 0h-276q5 52 5 179v327q0 129 -5 179h276q142 0 243 -100t101 -242t-101 -242.5t-243 -100.5zM1224 534l-177 -372h85q105 0 165 4v-170q-60 4 -165 4h-375q30 52 77 152l172 372h-72q-124 0 -165 -4v169q62 -4 165 -4h364q-34 -67 -74 -151zM270 525v-365h59
q69 0 117 54t48 129q0 74 -48.5 128t-117.5 54h-58zM1032 849l35 36h167l-186 -161h-39l-182 161h172z" />
    <glyph glyph-name="uni01C5" unicode="&#x1c5;" horiz-adv-x="1247" 
d="M345 0h-276q5 52 5 179v327q0 129 -5 179h276q142 0 243 -100t101 -242t-101 -242.5t-243 -100.5zM270 525v-365h59q69 0 117 54t48 129q0 74 -48.5 128t-117.5 54h-58zM1215 477l-178 -323h103q46 0 79 3v-160q-31 3 -80 3h-376l176 323h-84q-45 0 -79 -3v160
q33 -3 81 -3h358zM997 656l34 50h136l-152 -184h-39l-156 184h143z" />
    <glyph glyph-name="uni01C6" unicode="&#x1c6;" horiz-adv-x="1148" 
d="M573 622v-522q0 -57 4 -100h-191q1 15 1 44q-50 -51 -138 -51q-95 0 -157 71.5t-62 171.5q0 108 65 179.5t170 71.5q88 0 122 -36v179h-52q20 40 36 104h206q-4 -49 -4 -112zM390 239q0 38 -25.5 65.5t-62.5 27.5q-35 0 -59 -27t-24 -66t25.5 -66t62.5 -27q34 0 58.5 27
t24.5 66zM1116 477l-178 -323h103q46 0 79 3v-160q-32 3 -80 3h-376l176 323h-84q-44 0 -79 -3v160q33 -3 81 -3h358zM898 656l34 50h136l-152 -184h-39l-156 184h143z" />
    <glyph glyph-name="uni01C7" unicode="&#x1c7;" horiz-adv-x="904" 
d="M269 506v-341h85q131 0 178 3v-172q-62 4 -178 4h-285q4 110 4 179v327q0 119 -4 179h204q-4 -60 -4 -179zM830 506v-524q0 -114 -76.5 -187t-191.5 -73q-23 0 -61 6.5t-60 6.5v196q34 -45 107 -45q38 0 62 30t24 76v514q0 119 -4 179h204q-4 -60 -4 -179z" />
    <glyph glyph-name="uni01C8" unicode="&#x1c8;" horiz-adv-x="869" 
d="M269 506v-341h85q131 0 178 3v-172q-62 4 -178 4h-285q4 110 4 179v327q0 119 -4 179h204q-4 -60 -4 -179zM809 377v-363q0 -130 -57 -196t-138 -66q-40 0 -76 4.5t-41 4.5v160q16 -13 53 -13q73 0 73 115v349h-52q23 56 37 105h204q-3 -36 -3 -100zM617 624
q0 41 29.5 70.5t70.5 29.5q40 0 68.5 -29.5t28.5 -70.5q0 -42 -28.5 -71.5t-68.5 -29.5q-41 0 -70.5 29.5t-29.5 71.5z" />
    <glyph glyph-name="uni01C9" unicode="&#x1c9;" horiz-adv-x="615" 
d="M246 635v-535q0 -71 4 -100h-194q4 29 4 100v530h-52q25 54 36 104h206q-4 -29 -4 -99zM555 377v-363q0 -130 -57 -196t-138 -66q-40 0 -76 4.5t-41 4.5v160q16 -13 53 -13q73 0 73 115v349h-52q23 56 37 105h204q-3 -36 -3 -100zM363 624q0 41 29.5 70.5t70.5 29.5
q40 0 68.5 -29.5t28.5 -70.5q0 -42 -28.5 -71.5t-68.5 -29.5q-41 0 -70.5 29.5t-29.5 71.5z" />
    <glyph glyph-name="uni01CA" unicode="&#x1ca;" horiz-adv-x="1083" 
d="M260 144q0 -88 4 -144h-195q4 56 4 145v354q0 91 -4 199h41q67 -67 115 -107l254 -218v133q0 95 -4 179h195q-5 -110 -5 -179v-356q0 -90 5 -162h-39q-73 75 -98 97l-273 234v-175zM1009 506v-524q0 -114 -76.5 -187t-191.5 -73q-23 0 -61 6.5t-60 6.5v196
q34 -45 107 -45q38 0 62 30t24 76v514q0 119 -4 179h204q-4 -60 -4 -179z" />
    <glyph glyph-name="uni01CB" unicode="&#x1cb;" horiz-adv-x="1048" 
d="M260 144q0 -88 4 -144h-195q4 56 4 145v354q0 91 -4 199h41q67 -67 115 -107l254 -218v133q0 95 -4 179h195q-5 -110 -5 -179v-356q0 -90 5 -162h-39q-73 75 -98 97l-273 234v-175zM988 377v-363q0 -130 -57 -196t-138 -66q-41 0 -77 4.5t-40 4.5v160q16 -13 53 -13
q73 0 73 115v349h-52q23 56 37 105h204q-3 -36 -3 -100zM796 624q0 41 29.5 70.5t70.5 29.5q40 0 68.5 -29.5t28.5 -70.5q0 -42 -28.5 -71.5t-68.5 -29.5q-41 0 -70.5 29.5t-29.5 71.5z" />
    <glyph glyph-name="uni01CC" unicode="&#x1cc;" horiz-adv-x="910" 
d="M360 260q0 36 -14 57.5t-41 21.5q-56 0 -56 -78v-161q0 -63 4 -100h-193q3 42 3 100v272h-52q24 55 37 105h201v-49q44 58 127 58q170 0 170 -226v-160q0 -63 4 -100h-194q4 37 4 100v160zM850 377v-363q0 -130 -57 -196t-138 -66q-41 0 -77 4.5t-40 4.5v160
q16 -13 53 -13q73 0 73 115v349h-52q23 56 37 105h204q-3 -36 -3 -100zM658 624q0 41 29.5 70.5t70.5 29.5q40 0 68.5 -29.5t28.5 -70.5q0 -42 -28.5 -71.5t-68.5 -29.5q-41 0 -70.5 29.5t-29.5 71.5z" />
    <glyph glyph-name="uni01F1" unicode="&#x1f1;" horiz-adv-x="1338" 
d="M345 0h-276q5 52 5 179v327q0 129 -5 179h276q142 0 243 -100t101 -242t-101 -242.5t-243 -100.5zM270 525v-365h59q69 0 117 54t48 129q0 74 -48.5 128t-117.5 54h-58zM1224 534l-177 -372h85q105 0 165 4v-170q-60 4 -165 4h-375q30 52 77 152l172 372h-72
q-124 0 -165 -4v169q62 -4 165 -4h364q-34 -67 -74 -151z" />
    <glyph glyph-name="uni01F2" unicode="&#x1f2;" horiz-adv-x="1247" 
d="M345 0h-276q5 52 5 179v327q0 129 -5 179h276q142 0 243 -100t101 -242t-101 -242.5t-243 -100.5zM270 525v-365h59q69 0 117 54t48 129q0 74 -48.5 128t-117.5 54h-58zM1215 477l-178 -323h103q46 0 79 3v-160q-31 3 -80 3h-376l176 323h-84q-45 0 -79 -3v160
q33 -3 81 -3h358z" />
    <glyph glyph-name="uni01F3" unicode="&#x1f3;" horiz-adv-x="1148" 
d="M573 622v-522q0 -57 4 -100h-191q1 15 1 44q-50 -51 -138 -51q-95 0 -157 71.5t-62 171.5q0 108 65 179.5t170 71.5q88 0 122 -36v179h-52q20 40 36 104h206q-4 -49 -4 -112zM390 239q0 38 -25.5 65.5t-62.5 27.5q-35 0 -59 -27t-24 -66t25.5 -66t62.5 -27q34 0 58.5 27
t24.5 66zM1116 477l-178 -323h103q46 0 79 3v-160q-32 3 -80 3h-376l176 323h-84q-44 0 -79 -3v160q33 -3 81 -3h358z" />
    <glyph glyph-name="Aringacute" unicode="&#x1fa;" horiz-adv-x="746" 
d="M746 0h-225q-5 14 -25 63l-20 46h-239l-31 -66q-13 -29 -15 -43h-191q45 76 81 152l245 519q-36 9 -59 32.5t-23 53.5q0 38 36 64.5t87 26.5t87 -26.5t36 -64.5q0 -30 -24 -54t-61 -33l256 -518q27 -56 85 -152zM279 863l96 87h204l-121 -87h-179zM413 257l-59 141
l-57 -141h116zM342 757q0 -9 7 -15t18 -6t18.5 6t7.5 15t-7.5 15.5t-18.5 6.5q-10 0 -17.5 -6.5t-7.5 -15.5z" />
    <glyph glyph-name="aringacute" unicode="&#x1fb;" horiz-adv-x="539" 
d="M196 354q-73 0 -122 -47v145q3 0 60 17.5t116 17.5q107 0 159.5 -58t52.5 -160v-104q0 -37 26 -37q18 0 27 5v-103q-49 -42 -115 -42q-67 0 -101 49q-44 -49 -114 -49q-68 0 -110 40.5t-42 107.5q0 66 43 110t116 44q59 0 89 -19v19q0 64 -85 64zM137 585q0 36 34 61
t81 25q49 0 83 -25t34 -61q0 -35 -34 -60.5t-83 -25.5q-47 0 -81 25.5t-34 60.5zM177 684l96 87h183l-121 -87h-158zM209 142q0 -16 11 -26.5t27 -10.5t27 10.5t11 26.5q0 14 -11 24.5t-27 10.5t-27 -10.5t-11 -24.5zM225 585q0 -9 8 -15t19 -6q12 0 20 6t8 15t-8 15.5
t-20 6.5q-11 0 -19 -6.5t-8 -15.5z" />
    <glyph glyph-name="AEacute" unicode="&#x1fc;" horiz-adv-x="899" 
d="M710 0h-239q-3 21 -9 53l-12 44h-194l-24 -48q-11 -23 -20 -49h-212q34 50 83 152l293 533h243q71 0 163 5v-170q-40 4 -130 4h-110l30 -103h85q95 0 141 3v-167q-39 3 -112 3h-79l28 -98h70q85 0 141 4l1 -169q-41 3 -137 3zM453 735l134 149h215l-179 -149h-170z
M384 389l-59 -131h92z" />
    <glyph glyph-name="aeacute" unicode="&#x1fd;" horiz-adv-x="771" 
d="M75 308v144q8 0 63 17.5t94 17.5q107 0 147 -60q55 59 142 59q95 0 152.5 -73t57.5 -189q0 -15 -3 -24h-282q27 -67 110 -67q70 0 118 28v-153q-20 -1 -59.5 -8.5t-77.5 -7.5q-109 0 -189 76q-31 -40 -65.5 -60t-89.5 -20q-74 0 -116 42t-42 106q0 65 42.5 109.5
t115.5 44.5q53 0 91 -20v17q0 31 -23 49t-68 18q-62 0 -118 -46zM500 354q-21 0 -36.5 -15.5t-22.5 -44.5h114q-2 27 -16.5 43.5t-38.5 16.5zM212 142q0 -16 11 -26.5t27 -10.5q15 0 26 10.5t11 26.5q0 14 -11 24.5t-26 10.5q-16 0 -27 -10.5t-11 -24.5zM328 538l126 170
h187l-155 -170h-158z" />
    <glyph glyph-name="Oslashacute" unicode="&#x1fe;" horiz-adv-x="831" 
d="M42 343q0 148 107 251.5t266 103.5q103 0 187 -45l27 32h153l-88 -104q95 -100 95 -238q0 -149 -107 -252.5t-267 -103.5q-102 0 -186 45l-27 -32h-152l87 102q-95 101 -95 241zM239 343q0 -52 22 -94l227 269q-35 16 -73 16q-75 0 -125.5 -55.5t-50.5 -135.5zM592 343
q0 48 -21 92l-227 -268q31 -15 71 -15q75 0 126 55.5t51 135.5zM306 735l134 149h215l-179 -149h-170z" />
    <glyph glyph-name="oslashacute" unicode="&#x1ff;" horiz-adv-x="578" 
d="M32 239q0 103 75 175.5t181 72.5q81 0 151 -47l34 37h72l-66 -72q67 -70 67 -166q0 -102 -75.5 -174t-182.5 -72q-81 0 -147 44l-34 -37h-74l67 72q-68 71 -68 167zM208 239q0 -22 9 -40l108 117q-18 10 -37 10q-34 0 -57 -25t-23 -62zM370 239q0 20 -8 38l-108 -117
q14 -7 34 -7q34 0 58 25t24 61zM234 538l126 170h187l-155 -170h-158z" />
    <glyph glyph-name="Scommaaccent" unicode="&#x218;" horiz-adv-x="562" 
d="M288 510q0 -20 22 -40.5t53 -41.5t62 -48t53 -71.5t22 -99.5q0 -102 -74.5 -163.5t-190.5 -61.5q-42 0 -100.5 8t-77.5 9v211q28 -33 81 -54.5t98 -21.5q27 0 41.5 12.5t14.5 32.5q0 23 -21 44t-51 42t-60.5 46.5t-51.5 68.5t-21 97q0 103 66.5 162t186.5 59q29 0 72 -7
t64 -8v-193q-23 29 -60.5 44.5t-74.5 15.5q-53 0 -53 -42zM218 -124v99q82 0 129.5 -35t47.5 -92q0 -52 -37 -82.5t-102 -30.5q-43 0 -72 13v108q20 -20 48 -20q29 0 29 19q0 21 -43 21z" />
    <glyph glyph-name="scommaaccent" unicode="&#x219;" horiz-adv-x="449" 
d="M232 344q0 -9 18.5 -19t45 -22.5t52.5 -30.5t44.5 -50t18.5 -73q0 -73 -51 -117t-150 -44q-35 0 -95.5 13.5t-69.5 13.5v167q23 -24 75.5 -44t82.5 -20q25 0 25 18q0 11 -27.5 25t-61 29t-61 51.5t-27.5 86.5q0 77 53 118t152 41q34 0 79.5 -9.5t52.5 -9.5v-154
q-19 23 -59.5 36.5t-65.5 13.5q-31 0 -31 -20zM158 -124v99q82 0 129.5 -35t47.5 -92q0 -52 -37 -82.5t-102 -30.5q-43 0 -72 13v108q20 -20 48 -20q29 0 29 19q0 21 -43 21z" />
    <glyph glyph-name="uni021A" unicode="&#x21a;" horiz-adv-x="665" 
d="M208 685h247q122 0 182 4v-170q-75 5 -182 5h-23q-1 -37 -1 -128v-217q0 -127 5 -179h-207q5 78 5 179v217q0 72 -3 128h-23q-105 0 -180 -5v170q60 -4 180 -4zM274 -124v99q82 0 129.5 -35t47.5 -92q0 -52 -37 -82.5t-102 -30.5q-43 0 -72 13v108q20 -20 48 -20
q29 0 29 19q0 21 -43 21z" />
    <glyph glyph-name="uni021B" unicode="&#x21b;" horiz-adv-x="438" 
d="M89 608h191q-3 -36 -3 -91v-40h124v-153h-124v-96q0 -83 65 -83q35 0 45 10v-155q-9 0 -41 -4t-59 -4q-84 0 -139.5 50.5t-55.5 147.5v134h-64v153h64v40q0 55 -3 91zM183 -124v99q82 0 129.5 -35t47.5 -92q0 -52 -37 -82.5t-102 -30.5q-43 0 -72 13v108q20 -20 48 -20
q29 0 29 19q0 21 -43 21z" />
    <glyph glyph-name="uni021C" unicode="&#x21c;" horiz-adv-x="573" 
d="M212 233q-40 0 -65 -5v167q26 -2 53 -2q39 0 64.5 19.5t25.5 51.5q0 28 -22.5 46t-55.5 18q-89 0 -132 -40v181q14 3 45 10.5t53.5 10.5t53.5 3q122 0 185 -55t63 -148q0 -55 -29.5 -99t-71.5 -59q55 -15 100.5 -67t45.5 -132q0 -72 -39 -128.5t-105 -92t-143.5 -55
t-165.5 -25.5v175h1q110 1 182.5 37t72.5 98q0 46 -36 68.5t-80 22.5z" />
    <glyph glyph-name="uni021D" unicode="&#x21d;" horiz-adv-x="477" 
d="M164 72q-30 0 -46 -9v150q50 7 76.5 27t26.5 48q0 18 -15 31t-38 13q-60 0 -103 -37v171q7 2 22 6.5t24.5 7t27 4.5t36.5 2q103 0 163 -51t60 -136q0 -43 -26 -82t-57 -51q38 -14 68 -55t30 -105q0 -211 -367 -270v160h1q72 -5 130.5 26.5t58.5 83.5q0 32 -20 49t-52 17z
" />
    <glyph glyph-name="uni0232" unicode="&#x232;" horiz-adv-x="706" 
d="M253 0q3 93 3 149v148l-165 260q-54 83 -91 128h236q17 -39 38 -75l87 -146l85 143q22 35 42 78h218q-33 -42 -102 -149l-153 -237v-150q0 -87 4 -149h-202zM185 863h353v-117h-353v117z" />
    <glyph glyph-name="uni0233" unicode="&#x233;" horiz-adv-x="586" 
d="M292 -131q-39 -64 -88 -90t-122 -26q-27 0 -56 9q45 49 71 87q79 112 118 188l-163 341q-20 41 -52 99h216q6 -30 21 -65l73 -169q25 65 55 165q7 18 16 69h205q-26 -45 -49 -105q-100 -240 -144 -327q-43 -85 -101 -176zM141 681h322v-123h-322v123z" />
    <glyph glyph-name="uni0237" unicode="&#x237;" horiz-adv-x="309" 
d="M249 377v-381q0 -130 -57 -195.5t-138 -65.5q-41 0 -77 4.5t-40 4.5v160q14 -13 53 -13q73 0 73 133v349h-52q21 49 37 104h204q-3 -36 -3 -100z" />
    <glyph glyph-name="uni0259" unicode="&#x259;" horiz-adv-x="550" 
d="M51 274h288q-8 31 -38 50.5t-73 19.5q-77 0 -126 -26v147q11 0 64.5 11t93.5 11q116 0 187 -68.5t71 -178.5q0 -102 -68.5 -174t-168.5 -72q-103 0 -168.5 68.5t-65.5 175.5q0 25 4 36zM286 125q24 0 39.5 14.5t17.5 40.5h-110q2 -23 15.5 -39t37.5 -16z" />
    <glyph glyph-name="uni0275" unicode="&#x275;" horiz-adv-x="578" 
d="M32 239q0 103 75 175.5t181 72.5q107 0 182.5 -72.5t75.5 -175.5q0 -102 -75.5 -174t-182.5 -72q-106 0 -181 72t-75 174zM288 140q59 0 83 56h-164q21 -56 81 -56zM288 339q-59 0 -81 -55h163q-22 55 -82 55z" />
    <glyph glyph-name="uni02BB" unicode="&#x2bb;" horiz-adv-x="384" 
d="M271 394h-172q0 104 17.5 187.5t46.5 126.5h146q-38 -96 -38 -314z" />
    <glyph glyph-name="uni02BC" unicode="&#x2bc;" horiz-adv-x="317" 
d="M88 775h182q0 -228 -85 -368h-146q49 123 49 368z" />
    <glyph glyph-name="circumflex" unicode="&#x2c6;" horiz-adv-x="462" 
d="M228 584l-34 -50h-136l152 184h39l156 -184h-143z" />
    <glyph glyph-name="caron" unicode="&#x2c7;" horiz-adv-x="462" 
d="M235 656l34 50h136l-152 -184h-39l-156 184h143z" />
    <glyph glyph-name="uni02C9" unicode="&#x2c9;" horiz-adv-x="462" 
d="M70 681h322v-123h-322v123z" />
    <glyph glyph-name="breve" unicode="&#x2d8;" horiz-adv-x="462" 
d="M189 686q0 -19 12 -32t29 -13t29.5 13t12.5 32h121q0 -66 -48 -113t-115 -47t-114.5 47t-47.5 113h121z" />
    <glyph glyph-name="dotaccent" unicode="&#x2d9;" horiz-adv-x="462" 
d="M132 624q0 42 29.5 71t70.5 29t69.5 -29t28.5 -71q0 -41 -28.5 -70.5t-69.5 -29.5t-70.5 29.5t-29.5 70.5z" />
    <glyph glyph-name="ring" unicode="&#x2da;" horiz-adv-x="462" 
d="M115 624q0 44 34 75.5t81 31.5q49 0 83 -31.5t34 -75.5t-34 -76t-83 -32q-47 0 -81 32t-34 76zM203 624q0 -11 8 -19t19 -8q12 0 20 8t8 19t-8 19t-20 8q-11 0 -19 -8t-8 -19z" />
    <glyph glyph-name="ogonek" unicode="&#x2db;" horiz-adv-x="462" 
d="M62 -160q0 46 29.5 84t93.5 79h119q-44 -37 -61.5 -59t-17.5 -45q0 -17 11.5 -26.5t30.5 -9.5q29 0 60 25v-112q-24 -14 -38.5 -20.5t-42 -13t-59.5 -6.5q-52 0 -88.5 29t-36.5 75z" />
    <glyph glyph-name="tilde" unicode="&#x2dc;" horiz-adv-x="462" 
d="M162 535h-112q1 63 36.5 106.5t89.5 43.5q39 0 68.5 -20t39.5 -20q24 0 24 33h105q0 -63 -33 -106.5t-85 -43.5q-29 0 -49.5 10t-34.5 20.5t-25 10.5q-24 0 -24 -34z" />
    <glyph glyph-name="hungarumlaut" unicode="&#x2dd;" horiz-adv-x="462" 
d="M34 539l96 159h167l-116 -159h-147zM256 539l96 159h167l-116 -159h-147z" />
    <glyph glyph-name="uni0302" unicode="&#x302;" horiz-adv-x="0" 
d="M-1 584l-34 -50h-136l152 184h39l156 -184h-143z" />
    <glyph glyph-name="tildecomb" unicode="&#x303;" horiz-adv-x="0" 
d="M-69 535h-112q1 63 36.5 106.5t89.5 43.5q39 0 68.5 -20t39.5 -20q24 0 24 33h105q0 -63 -33 -106.5t-85 -43.5q-29 0 -49.5 10t-34.5 20.5t-25 10.5q-24 0 -24 -34z" />
    <glyph glyph-name="uni0374" unicode="&#x374;" horiz-adv-x="296" 
d="M16 330l126 255h187l-155 -255h-158z" />
    <glyph glyph-name="uni0375" unicode="&#x375;" horiz-adv-x="296" 
d="M16 -109l126 255h187l-155 -255h-158z" />
    <glyph glyph-name="uni037A" unicode="&#x37a;" horiz-adv-x="462" 
d="M148 -128q0 56 13 85h138q-5 -22 -5 -45q0 -58 41 -58q6 0 14 2v-93q-39 -15 -82 -15q-59 0 -89 34.5t-30 89.5z" />
    <glyph glyph-name="uni037E" unicode="&#x37e;" horiz-adv-x="361" 
d="M70 367q0 46 31.5 78.5t77.5 32.5q45 0 77 -32.5t32 -78.5t-32 -79t-77 -33q-46 0 -77.5 32.5t-31.5 79.5zM88 187h182q0 -220 -79 -350h-147q44 110 44 350z" />
    <glyph glyph-name="tonos" unicode="&#x384;" horiz-adv-x="441" 
d="M118 539l126 159h183l-151 -159h-158z" />
    <glyph glyph-name="dieresistonos" unicode="&#x385;" horiz-adv-x="638" 
d="M210 529l84 189h163l-109 -189h-138zM442 612q0 34 24.5 57t59.5 23q34 0 58 -23t24 -57q0 -32 -24 -55t-58 -23q-35 0 -59.5 23t-24.5 55zM45 612q0 34 24 57t58 23q35 0 59 -23t24 -57q0 -32 -24.5 -55t-58.5 -23t-58 23t-24 55z" />
    <glyph glyph-name="Alphatonos" unicode="&#x386;" horiz-adv-x="746" 
d="M746 0h-225q-5 14 -25 63l-20 46h-239l-31 -66q-13 -29 -15 -43h-191q45 76 81 152l258 545h53l269 -545q27 -56 85 -152zM-24 470l64 236h163l-86 -236h-141zM413 257l-59 141l-57 -141h116z" />
    <glyph glyph-name="anoteleia" unicode="&#x387;" horiz-adv-x="328" 
d="M47 317q0 49 34 84t83 35q48 0 82.5 -35t34.5 -84q0 -50 -34.5 -85.5t-82.5 -35.5q-49 0 -83 35.5t-34 85.5z" />
    <glyph glyph-name="Epsilontonos" unicode="&#x388;" horiz-adv-x="733" 
d="M489 524h-53v-93h40q111 0 173 4v-169q-62 4 -173 4h-40v-108h61q114 0 174 4v-170q-60 4 -174 4h-261q4 110 4 179v328q0 118 -4 178h253q81 0 174 6v-171q-41 4 -174 4zM-44 470l64 236h163l-86 -236h-141z" />
    <glyph glyph-name="Etatonos" unicode="&#x389;" horiz-adv-x="931" 
d="M437 506v-67h225v67q0 109 -5 179h205q-5 -110 -5 -179v-362q0 -74 5 -144h-205q5 47 5 145v132h-225v-133q0 -88 4 -144h-203q4 56 4 145v361q0 125 -4 179h203q-4 -54 -4 -179zM-44 470l64 236h163l-86 -236h-141z" />
    <glyph glyph-name="Iotatonos" unicode="&#x38a;" horiz-adv-x="514" 
d="M438 506v-327q0 -117 4 -179h-203q4 62 4 179v327q0 119 -4 179h203q-4 -60 -4 -179zM-44 470l64 236h163l-86 -236h-141z" />
    <glyph glyph-name="Omicrontonos" unicode="&#x38c;" horiz-adv-x="924" 
d="M135 343q0 148 107 251.5t266 103.5q160 0 267 -103.5t107 -251.5q0 -149 -107 -252.5t-267 -103.5q-159 0 -266 103.5t-107 252.5zM332 343q0 -80 50.5 -135.5t125.5 -55.5t126 55.5t51 135.5t-51 135.5t-126 55.5t-125.5 -55.5t-50.5 -135.5zM-54 470l64 236h163
l-86 -236h-141z" />
    <glyph glyph-name="Upsilontonos" unicode="&#x38e;" horiz-adv-x="973" 
d="M484 0q3 93 3 149v148l-165 260q-54 83 -91 128h236q17 -39 38 -75l87 -146l85 143q22 35 42 78h218q-33 -42 -102 -149l-153 -237v-150q0 -87 4 -149h-202zM-14 470l64 236h163l-86 -236h-141z" />
    <glyph glyph-name="Omegatonos" unicode="&#x38f;" horiz-adv-x="912" 
d="M339 362q0 -53 26 -107.5t71 -88.5v-166h-139q-120 0 -180 -4v163q60 -4 119 -4h15q-45 34 -76 97.5t-31 118.5q0 144 95.5 237t254.5 93q160 0 257 -92t97 -238q0 -55 -32 -118.5t-78 -97.5h12q61 0 123 4v-163q-62 4 -185 4h-135v166q39 30 68.5 87t29.5 109
q0 77 -42 126t-115 49q-72 0 -113.5 -49t-41.5 -126zM-54 470l64 236h163l-86 -236h-141z" />
    <glyph glyph-name="iotadieresistonos" unicode="&#x390;" horiz-adv-x="316" 
d="M240 377v-195q0 -54 26 -54q22 0 27 5v-110q-51 -35 -109 -35q-69 0 -99 47.5t-30 145.5v195q0 59 -3 101h193q-5 -55 -5 -100zM51 529l84 189h163l-109 -189h-138zM283 612q0 34 24.5 57t59.5 23q34 0 58 -23t24 -57q0 -32 -24 -55t-58 -23q-35 0 -59.5 23t-24.5 55z
M-114 612q0 34 24 57t58 23q35 0 59 -23t24 -57q0 -32 -24.5 -55t-58.5 -23t-58 23t-24 55z" />
    <glyph glyph-name="Alpha" unicode="&#x391;" horiz-adv-x="746" 
d="M746 0h-225q-5 14 -25 63l-20 46h-239l-31 -66q-13 -29 -15 -43h-191q45 76 81 152l258 545h53l269 -545q27 -56 85 -152zM413 257l-59 141l-57 -141h116z" />
    <glyph glyph-name="Beta" unicode="&#x392;" horiz-adv-x="647" 
d="M70 0q5 52 5 179v293q0 173 -4 213h248q129 0 185.5 -50.5t56.5 -118.5q0 -92 -81 -132q46 -20 82 -62t36 -106q0 -91 -71 -153.5t-208 -62.5h-249zM401 214q0 35 -25 59t-65 24h-41v-168h36q95 0 95 85zM270 561v-137h30q33 0 53 17.5t20 50.5q0 28 -20.5 48.5
t-51.5 20.5h-31z" />
    <glyph glyph-name="Gamma" unicode="&#x393;" horiz-adv-x="558" 
d="M69 0q4 62 4 179v327q0 119 -4 179h317q67 0 142 5v-176q-37 5 -142 5h-117v-340q0 -117 4 -179h-204z" />
    <glyph glyph-name="uni0394" unicode="&#x394;" horiz-adv-x="723" 
d="M723 0h-723q33 50 81 152l259 556h36l266 -556q46 -96 81 -152zM346 386l-86 -226h183z" />
    <glyph glyph-name="Epsilon" unicode="&#x395;" horiz-adv-x="566" 
d="M322 524h-53v-93h40q111 0 173 4v-169q-62 4 -173 4h-40v-108h61q114 0 174 4v-170q-60 4 -174 4h-261q4 110 4 179v328q0 118 -4 178h253q81 0 174 6v-171q-41 4 -174 4z" />
    <glyph glyph-name="Zeta" unicode="&#x396;" horiz-adv-x="606" 
d="M492 534l-177 -372h85q105 0 165 4v-170q-60 4 -165 4h-375q30 52 77 152l172 372h-72q-124 0 -165 -4v169q62 -4 165 -4h364q-34 -67 -74 -151z" />
    <glyph glyph-name="Eta" unicode="&#x397;" horiz-adv-x="765" 
d="M270 506v-67h225v67q0 109 -5 179h205q-5 -110 -5 -179v-362q0 -74 5 -144h-205q5 47 5 145v132h-225v-133q0 -88 4 -144h-203q4 56 4 145v361q0 125 -4 179h203q-4 -54 -4 -179z" />
    <glyph glyph-name="Theta" unicode="&#x398;" horiz-adv-x="831" 
d="M372 413h82q70 0 100 3v-156q-33 3 -100 3h-82q-59 0 -95 -3v156q36 -3 95 -3zM42 343q0 148 107 251.5t266 103.5q160 0 267 -103.5t107 -251.5q0 -149 -107 -252.5t-267 -103.5q-159 0 -266 103.5t-107 252.5zM229 343q0 -79 54.5 -135t131.5 -56t131.5 56t54.5 135
t-54.5 135t-131.5 56t-131.5 -56t-54.5 -135z" />
    <glyph glyph-name="Iota" unicode="&#x399;" horiz-adv-x="345" 
d="M271 506v-327q0 -117 4 -179h-203q4 62 4 179v327q0 119 -4 179h203q-4 -60 -4 -179z" />
    <glyph glyph-name="Kappa" unicode="&#x39a;" horiz-adv-x="740" 
d="M269 506v-130l125 187q49 76 73 122h217q-40 -52 -89 -124l-136 -198l161 -217q29 -39 120 -146h-264q-22 45 -63 99l-144 199v-119q0 -117 4 -179h-204q4 62 4 179v327q0 119 -4 179h204q-4 -60 -4 -179z" />
    <glyph glyph-name="Lambda" unicode="&#x39b;" horiz-adv-x="704" 
d="M422 125q-8 24 -80 207q-53 -112 -111 -262l-24 -70h-207q26 42 77 152l252 556h51l248 -556q46 -106 76 -152h-244q-10 40 -38 125z" />
    <glyph glyph-name="Mu" unicode="&#x39c;" horiz-adv-x="869" 
d="M737 697l81 -517q16 -108 39 -180h-217q0 21 -6.5 64t-17.5 104.5t-16 100.5l-165 -280h-35l-164 282q-44 -220 -45 -271h-178q3 10 36 181l99 516h49l241 -423l248 423h51z" />
    <glyph glyph-name="Nu" unicode="&#x39d;" horiz-adv-x="739" 
d="M260 144q0 -88 4 -144h-195q4 56 4 145v354q0 91 -4 199h41q67 -67 115 -107l254 -218v133q0 95 -4 179h195q-5 -110 -5 -179v-356q0 -90 5 -162h-39q-73 75 -98 97l-273 234v-175z" />
    <glyph glyph-name="Xi" unicode="&#x39e;" horiz-adv-x="605" 
d="M60 -4v183q34 -4 146 -4h179q98 0 160 4v-183q-62 4 -160 4h-180q-89 0 -145 -4zM388 511h-190q-83 0 -130 -4v182q47 -4 130 -4h190q36 0 148 6v-184q-59 4 -148 4zM79 256v182q37 -3 118 -3h193q20 0 136 4v-182q-58 4 -136 4h-193q-83 0 -118 -5z" />
    <glyph glyph-name="Omicron" unicode="&#x39f;" horiz-adv-x="831" 
d="M42 343q0 148 107 251.5t266 103.5q160 0 267 -103.5t107 -251.5q0 -149 -107 -252.5t-267 -103.5q-159 0 -266 103.5t-107 252.5zM239 343q0 -80 50.5 -135.5t125.5 -55.5t126 55.5t51 135.5t-51 135.5t-126 55.5t-125.5 -55.5t-50.5 -135.5z" />
    <glyph glyph-name="Pi" unicode="&#x3a0;" horiz-adv-x="758" 
d="M70 685h617q-4 -56 -4 -204v-305q0 -138 4 -176h-205q5 67 5 178v345h-216v-344q0 -127 5 -179h-206q5 78 5 179v318q0 126 -5 188z" />
    <glyph glyph-name="Rho" unicode="&#x3a1;" horiz-adv-x="629" 
d="M270 226v-47q0 -127 5 -179h-205q5 52 5 179v327q0 129 -5 179h263q122 0 190.5 -64t68.5 -168q0 -105 -67.5 -166t-191.5 -61h-63zM270 538v-165h39q41 0 64.5 25t23.5 57q0 31 -23.5 57t-64.5 26h-39z" />
    <glyph glyph-name="Sigma" unicode="&#x3a3;" horiz-adv-x="630" 
d="M11 0v34q61 61 118 132l136 171l-140 175q-76 96 -115 139v34h453q51 0 111 4v-169q-60 4 -118 4h-134l137 -177l-144 -185h155q58 0 118 4v-170q-60 4 -112 4h-465z" />
    <glyph glyph-name="Tau" unicode="&#x3a4;" horiz-adv-x="665" 
d="M208 685h247q122 0 182 4v-170q-75 5 -182 5h-23q-1 -37 -1 -128v-217q0 -127 5 -179h-207q5 78 5 179v217q0 72 -3 128h-23q-105 0 -180 -5v170q60 -4 180 -4z" />
    <glyph glyph-name="Upsilon" unicode="&#x3a5;" horiz-adv-x="706" 
d="M253 0q3 93 3 149v148l-165 260q-54 83 -91 128h236q17 -39 38 -75l87 -146l85 143q22 35 42 78h218q-33 -42 -102 -149l-153 -237v-150q0 -87 4 -149h-202z" />
    <glyph glyph-name="Phi" unicode="&#x3a6;" horiz-adv-x="831" 
d="M41 351q0 128 76 210.5t210 103.5q0 12 -0.5 27.5t-1 25.5t-0.5 16h179l-3 -69q135 -21 212 -104.5t77 -209.5q0 -125 -77 -208t-212 -104l3 -63h-179q0 6 0.5 15t1 23.5t0.5 25.5q-134 21 -210 104t-76 207zM601 352q0 117 -101 150v-300q101 35 101 150zM228 352
q0 -115 100 -150v300q-100 -35 -100 -150z" />
    <glyph glyph-name="Chi" unicode="&#x3a7;" horiz-adv-x="678" 
d="M399 78l-70 117l-74 -128q-34 -63 -34 -67h-221q36 42 115 159l118 187l-117 183q-71 111 -107 156h234q19 -37 44 -82l53 -94l57 98q28 50 41 78h216q-42 -51 -105 -147l-114 -177l122 -186q76 -120 123 -175h-239q-9 22 -42 78z" />
    <glyph glyph-name="Psi" unicode="&#x3a8;" horiz-adv-x="835" 
d="M225 685q8 -38 8 -178q0 -62 27.5 -101.5t64.5 -50.5v200q0 90 -4 130h193q-3 -45 -3 -130v-201q41 18 66 57t25 96q0 105 9 178h192q-17 -56 -17 -177q0 -129 -83.5 -217t-191.5 -103v-47q0 -95 3 -141h-193q4 62 4 141v47q-109 15 -192.5 103t-83.5 217q0 108 -15 177
h191z" />
    <glyph glyph-name="uni03A9" unicode="&#x3a9;" horiz-adv-x="834" 
d="M261 362q0 -53 26 -107.5t71 -88.5v-166h-139q-120 0 -180 -4v163q60 -4 119 -4h15q-45 34 -76 97.5t-31 118.5q0 144 95.5 237t254.5 93q160 0 257 -92t97 -238q0 -55 -32 -118.5t-78 -97.5h12q61 0 123 4v-163q-62 4 -185 4h-135v166q39 30 68.5 87t29.5 109
q0 77 -42 126t-115 49q-72 0 -113.5 -49t-41.5 -126z" />
    <glyph glyph-name="Iotadieresis" unicode="&#x3aa;" horiz-adv-x="345" 
d="M271 506v-327q0 -117 4 -179h-203q4 62 4 179v327q0 119 -4 179h203q-4 -60 -4 -179zM-47 826q0 40 28.5 68t68.5 28q41 0 69.5 -28t28.5 -68q0 -39 -28.5 -66.5t-69.5 -27.5q-40 0 -68.5 27.5t-28.5 66.5zM198 826q0 40 29 68t70 28q40 0 68 -28t28 -68q0 -39 -28 -66.5
t-68 -27.5q-41 0 -70 27.5t-29 66.5z" />
    <glyph glyph-name="Upsilondieresis" unicode="&#x3ab;" horiz-adv-x="706" 
d="M253 0q3 93 3 149v148l-165 260q-54 83 -91 128h236q17 -39 38 -75l87 -146l85 143q22 35 42 78h218q-33 -42 -102 -149l-153 -237v-150q0 -87 4 -149h-202zM133 826q0 40 28.5 68t68.5 28q41 0 69.5 -28t28.5 -68q0 -39 -28.5 -66.5t-69.5 -27.5q-40 0 -68.5 27.5
t-28.5 66.5zM378 826q0 40 29 68t70 28q40 0 68 -28t28 -68q0 -39 -28 -66.5t-68 -27.5q-41 0 -70 27.5t-29 66.5z" />
    <glyph glyph-name="alphatonos" unicode="&#x3ac;" horiz-adv-x="618" 
d="M383 477h173q-19 -129 -19 -240v-47q1 -53 43 -53q10 0 22 6v-125q-48 -30 -106 -30q-82 0 -109 71q-52 -71 -149 -71q-91 0 -149.5 72.5t-58.5 174.5q0 107 58.5 179.5t152.5 72.5q89 0 135 -66q2 28 7 56zM192 539l126 159h183l-151 -159h-158zM373 238q0 43 -22 69
t-57 26q-33 0 -54.5 -27.5t-21.5 -67.5t23 -68t57 -28q33 0 54 25.5t21 70.5z" />
    <glyph glyph-name="epsilontonos" unicode="&#x3ad;" horiz-adv-x="463" 
d="M246 180q-38 0 -38 -24q0 -28 61 -28q86 0 154 48v-142q-7 -2 -34.5 -13.5t-68.5 -20.5t-97 -9q-77 0 -135 39.5t-58 110.5q0 39 27.5 67t60.5 35q-30 10 -54 39t-24 62q0 66 55.5 104.5t150.5 38.5q53 0 104.5 -16t60.5 -17v-157q-24 24 -62.5 39.5t-79.5 15.5
q-55 0 -55 -23q0 -27 53 -27q41 0 64 5v-134q-24 7 -85 7zM159 539l126 159h183l-151 -159h-158z" />
    <glyph glyph-name="etatonos" unicode="&#x3ae;" horiz-adv-x="603" 
d="M358 270q0 69 -49 69q-26 0 -44.5 -22.5t-18.5 -57.5v-159q0 -63 4 -100h-194q4 37 4 100v273q0 61 -3 104h183q2 -20 2 -54h1q14 26 49 45t85 19q167 0 167 -219v-521h-193q7 81 7 179v344zM222 539l126 159h183l-151 -159h-158z" />
    <glyph glyph-name="iotatonos" unicode="&#x3af;" horiz-adv-x="316" 
d="M240 377v-195q0 -54 26 -54q22 0 27 5v-110q-51 -35 -109 -35q-69 0 -99 47.5t-30 145.5v195q0 59 -3 101h193q-5 -55 -5 -100zM61 539l126 159h183l-151 -159h-158z" />
    <glyph glyph-name="upsilondieresistonos" unicode="&#x3b0;" horiz-adv-x="600" 
d="M249 367l-5 -156q-1 -33 16 -53t41 -20q38 0 55.5 32t17.5 108q0 120 -52 199h183q55 -108 55 -199q0 -143 -71.5 -215t-190.5 -72q-102 0 -171.5 58t-68.5 152l5 163q2 78 -8 113h186q10 -46 8 -110zM202 529l84 189h163l-109 -189h-138zM434 612q0 34 24.5 57t59.5 23
q34 0 58 -23t24 -57q0 -32 -24 -55t-58 -23q-35 0 -59.5 23t-24.5 55zM37 612q0 34 24 57t58 23q35 0 59 -23t24 -57q0 -32 -24.5 -55t-58.5 -23t-58 23t-24 55z" />
    <glyph glyph-name="alpha" unicode="&#x3b1;" horiz-adv-x="618" 
d="M383 477h173q-19 -129 -19 -240v-47q1 -53 43 -53q10 0 22 6v-125q-48 -30 -106 -30q-82 0 -109 71q-52 -71 -149 -71q-91 0 -149.5 72.5t-58.5 174.5q0 107 58.5 179.5t152.5 72.5q89 0 135 -66q2 28 7 56zM373 238q0 43 -22 69t-57 26q-33 0 -54.5 -27.5t-21.5 -67.5
t23 -68t57 -28q33 0 54 25.5t21 70.5z" />
    <glyph glyph-name="beta" unicode="&#x3b2;" horiz-adv-x="652" 
d="M340 -7q-67 0 -103 20q0 -36 8 -121t9 -151h-185v743q0 119 76.5 184.5t177.5 65.5q104 0 162.5 -55.5t58.5 -131.5q0 -99 -89 -142q154 -51 154 -189q0 -99 -76.5 -161t-192.5 -62zM331 286q-25 0 -38 -3v162q79 10 79 77q0 27 -15.5 43.5t-39.5 16.5q-28 0 -45.5 -22
t-17.5 -70v-327q30 -21 84 -21q37 0 61.5 20.5t24.5 52.5q0 34 -25.5 52.5t-67.5 18.5z" />
    <glyph glyph-name="gamma" unicode="&#x3b3;" horiz-adv-x="630" 
d="M416 477h175q-4 -58 -15.5 -112t-24 -93t-39.5 -94.5t-44.5 -87.5t-56.5 -100q-7 -71 -37 -243h-194q18 39 37.5 115t19.5 128q0 65 -37 151.5t-114 216.5q-52 87 -86 119h245q5 -13 30.5 -70t38.5 -89.5t27 -77.5t14 -72q20 31 37 111t22 158q2 28 2 40z" />
    <glyph glyph-name="delta" unicode="&#x3b4;" horiz-adv-x="574" 
d="M30 229q0 68 38 120t100 80q-115 87 -115 172q0 65 61.5 102.5t171.5 37.5q67 0 130.5 -16.5t99.5 -34.5v-184q-35 35 -94.5 63t-119.5 28q-32 0 -43.5 -7t-11.5 -22q0 -7 9.5 -18t34.5 -29t40 -28t52 -35q35 -23 57 -40.5t49.5 -46.5t41 -64.5t13.5 -77.5
q0 -97 -75 -166t-181 -69q-111 0 -184.5 67.5t-73.5 167.5zM217 233q0 -32 21 -55.5t50 -23.5q28 0 48 23.5t20 55.5q0 34 -20 57.5t-48 23.5q-29 0 -50 -23.5t-21 -57.5z" />
    <glyph glyph-name="epsilon" unicode="&#x3b5;" horiz-adv-x="463" 
d="M246 180q-38 0 -38 -24q0 -28 61 -28q86 0 154 48v-142q-7 -2 -34.5 -13.5t-68.5 -20.5t-97 -9q-77 0 -135 39.5t-58 110.5q0 39 27.5 67t60.5 35q-30 10 -54 39t-24 62q0 66 55.5 104.5t150.5 38.5q53 0 104.5 -16t60.5 -17v-157q-24 24 -62.5 39.5t-79.5 15.5
q-55 0 -55 -23q0 -27 53 -27q41 0 64 5v-134q-24 7 -85 7z" />
    <glyph glyph-name="zeta" unicode="&#x3b6;" horiz-adv-x="470" 
d="M432 728v-149q-121 -112 -169 -178.5t-48 -135.5q0 -50 24 -69.5t84 -32.5q68 -16 103 -51t35 -101q0 -23 -3.5 -46.5t-7 -39t-12 -36.5t-12 -29t-14 -28.5t-11.5 -22.5h-160q51 95 51 145q0 37 -49 44q-109 19 -157.5 69.5t-48.5 150.5q0 161 194 343q-136 0 -160 6v145
q58 -16 185 -16h120q24 16 56 32z" />
    <glyph glyph-name="eta" unicode="&#x3b7;" horiz-adv-x="603" 
d="M358 270q0 69 -49 69q-26 0 -44.5 -22.5t-18.5 -57.5v-159q0 -63 4 -100h-194q4 37 4 100v273q0 61 -3 104h183q2 -20 2 -54h1q14 26 49 45t85 19q167 0 167 -219v-521h-193q7 81 7 179v344z" />
    <glyph glyph-name="theta" unicode="&#x3b8;" horiz-adv-x="616" 
d="M42 355q0 156 73 260.5t192 104.5q120 0 193.5 -104.5t73.5 -260.5q0 -154 -73.5 -258t-193.5 -104q-119 0 -192 104t-73 258zM307 560q-33 0 -55.5 -34.5t-31.5 -97.5h175q-8 62 -31 97t-57 35zM307 152q33 0 56 33t32 93h-174q9 -60 31.5 -93t54.5 -33z" />
    <glyph glyph-name="iota" unicode="&#x3b9;" horiz-adv-x="316" 
d="M240 377v-195q0 -54 26 -54q22 0 27 5v-110q-51 -35 -109 -35q-69 0 -99 47.5t-30 145.5v195q0 59 -3 101h193q-5 -55 -5 -100z" />
    <glyph glyph-name="kappa" unicode="&#x3ba;" horiz-adv-x="618" 
d="M259 359v-108q60 111 92 155q32 45 66 63t90 18q61 0 97 -31q-47 -32 -95 -96q-42 -57 -71 -112l101 -151q22 -32 79 -97h-236q-7 26 -36 68l-87 140v-108q0 -62 4 -100h-193q3 32 3 100v259q0 74 -4 118h186q4 -44 4 -118z" />
    <glyph glyph-name="lambda" unicode="&#x3bb;" horiz-adv-x="606" 
d="M18 566v155q7 2 27 8t39 9.5t45 3.5q91 0 143 -48.5t102 -169.5l155 -376q28 -66 73 -148h-223q-5 35 -28 97l-55 152l-84 -189q-25 -52 -27 -60h-179q25 31 52 88l165 340l-24 62q-35 89 -109 91q-32 1 -72 -15z" />
    <glyph glyph-name="uni03BC" unicode="&#x3bc;" horiz-adv-x="620" 
d="M245 215q-1 -36 15 -56t42 -20q24 0 40.5 20t16.5 55v163q0 65 -5 100h194q-4 -37 -4 -100v-192q0 -33 6 -45t24 -12q17 0 23 5v-109q-47 -36 -112 -36q-88 0 -107 75q-24 -40 -48 -56t-69 -16q-34 0 -54 14q27 -43 29 -183q0 -11 4 -81h-183q3 31 3 100v547q0 48 -4 89
h194q-5 -47 -5 -100v-162z" />
    <glyph glyph-name="nu" unicode="&#x3bd;" horiz-adv-x="550" 
d="M251 401l53 -146q46 98 46 172q0 26 -8 50h175q0 -7 1 -26t1 -24q0 -76 -47 -175t-183 -264h-32l-192 384q-32 63 -61 105h228q6 -40 19 -76z" />
    <glyph glyph-name="xi" unicode="&#x3be;" horiz-adv-x="497" 
d="M409 -191h-161q17 31 34.5 76.5t17.5 66.5t-13 32.5t-45 15.5q-183 23 -183 182q0 58 36 102.5t101 65.5q-43 14 -73.5 52.5t-30.5 96.5q0 90 65 144t163 54q30 0 62.5 -4t45.5 -4v-154q-34 17 -72 17q-42 0 -65 -19.5t-23 -46.5t22.5 -46.5t50.5 -19.5q37 0 57 13
l1 -142q-33 0 -60 -3q-45 -7 -73.5 -25.5t-28.5 -48.5q0 -48 85 -60q72 -9 108 -43.5t36 -114.5q0 -28 -7.5 -59t-12.5 -45.5t-21 -48t-16 -34.5z" />
    <glyph glyph-name="omicron" unicode="&#x3bf;" horiz-adv-x="579" 
d="M32 239q0 103 75.5 175.5t181.5 72.5q107 0 182.5 -72.5t75.5 -175.5q0 -102 -75.5 -174t-182.5 -72t-182 72t-75 174zM208 239q0 -36 23.5 -61t57.5 -25t58 25t24 61q0 37 -24 62t-58 25t-57.5 -25t-23.5 -62z" />
    <glyph glyph-name="pi" unicode="&#x3c0;" horiz-adv-x="728" 
d="M690 480v-159q-36 3 -79 3h-25q-6 -38 -6 -114q0 -127 17 -210h-187q-9 42 -9 179q0 64 3 145h-80l-19 -324h-173l19 324q-94 0 -115 -8v142q42 19 135 19h440q41 0 79 3z" />
    <glyph glyph-name="rho" unicode="&#x3c1;" horiz-adv-x="601" 
d="M336 -7q-67 0 -99 28v-127q0 -99 13 -147h-185q-14 37 -14 147v331q0 121 74 191.5t183 70.5q113 0 186.5 -72t73.5 -176q0 -102 -68 -174t-164 -72zM237 239v-64q25 -23 71 -23q34 0 58 25.5t24 61.5q0 37 -24 62.5t-58 25.5q-30 0 -50.5 -24t-20.5 -64z" />
    <glyph glyph-name="uni03C2" unicode="&#x3c2;" horiz-adv-x="458" 
d="M209 251q0 -36 20.5 -55t62.5 -30q78 -23 105.5 -58t27.5 -107q0 -84 -62 -183h-161q49 73 49 123q0 28 -12.5 42.5t-60.5 29.5q-150 49 -150 214q0 112 76 186t190 74q20 0 37 -2t35.5 -5.5t30.5 -4.5v-193q-12 17 -39 31t-64 14q-41 0 -63 -22t-22 -54z" />
    <glyph glyph-name="sigma" unicode="&#x3c3;" horiz-adv-x="657" 
d="M291 477h216q63 0 100 4v-160q-37 -4 -100 -4h-25q41 -33 41 -94q0 -93 -71.5 -161.5t-175.5 -68.5q-106 0 -177 71t-71 174q0 105 70 172t193 67zM348 240q0 46 -43 77h-31q-31 0 -51 -22.5t-20 -54.5q0 -37 20.5 -62t52.5 -25q31 0 51.5 25t20.5 62z" />
    <glyph glyph-name="tau" unicode="&#x3c4;" horiz-adv-x="569" 
d="M542 480v-161q-36 3 -79 3h-87q-8 -76 -8 -156q0 -44 21 -44q11 0 15 3v-117q-45 -20 -86 -20q-135 0 -135 172q0 94 5 162h-46q-94 0 -115 -8v143q44 20 135 20h301q42 0 79 3z" />
    <glyph glyph-name="upsilon" unicode="&#x3c5;" horiz-adv-x="600" 
d="M249 367l-5 -156q-1 -33 16 -53t41 -20q38 0 55.5 32t17.5 108q0 120 -52 199h183q55 -108 55 -199q0 -143 -71.5 -215t-190.5 -72q-102 0 -171.5 58t-68.5 152l5 163q2 78 -8 113h186q10 -46 8 -110z" />
    <glyph glyph-name="phi" unicode="&#x3c6;" horiz-adv-x="712" 
d="M27 240q0 102 66 168t184 79v84q0 72 -5 101h167q-4 -24 -4 -100l-1 -85q118 -13 184 -80t66 -167q0 -102 -67 -168.5t-183 -79.5l1 -107q0 -67 6 -101h-168q4 31 4 101v107q-118 13 -184 80.5t-66 167.5zM508 240q0 42 -20 66t-54 24v-183q33 1 53.5 26t20.5 67z
M203 240q0 -43 20.5 -67.5t53.5 -25.5v183q-33 0 -53.5 -24t-20.5 -66z" />
    <glyph glyph-name="chi" unicode="&#x3c7;" horiz-adv-x="587" 
d="M329 -171l-48 106l-49 -94q-31 -60 -41 -94h-202q55 75 108 175l101 185l-66 133q-55 112 -77 151.5t-52 85.5h223q22 -67 47 -122l27 -59l45 92q30 62 38 89h199q-41 -57 -87 -144l-111 -209l66 -129q83 -163 136 -248h-223q-10 30 -34 82z" />
    <glyph glyph-name="psi" unicode="&#x3c8;" horiz-adv-x="802" 
d="M480 475v-322q28 10 51.5 47t29.5 81q4 33 7 98t7 98h191q-9 -39 -15.5 -118.5t-8.5 -98.5q-14 -105 -83 -178.5t-179 -88.5v-76q0 -62 4 -100h-164q2 21 2 100v76q-109 13 -178 87.5t-83 178.5q-2 16 -9 97t-16 121h192q4 -33 6.5 -99t6.5 -99q6 -42 30 -79t51 -47v322
q0 77 -2 99h164q-4 -44 -4 -99z" />
    <glyph glyph-name="omega" unicode="&#x3c9;" horiz-adv-x="767" 
d="M467 263v-52q0 -55 31 -55q44 0 44 100q0 56 -21.5 118.5t-55.5 102.5h201q1 -1 6.5 -13t7.5 -16t8 -17t9 -20t8 -21t7.5 -24.5t6.5 -26t5.5 -29.5t3 -30.5t1.5 -33.5q0 -113 -54 -184t-162 -71q-45 0 -80.5 22t-50.5 60q-16 -37 -52.5 -59.5t-87.5 -22.5q-99 0 -151 69
t-52 182q0 41 9 82t18 63t24.5 54.5t17.5 35.5h199q-35 -46 -58.5 -106t-23.5 -115q0 -100 42 -100q33 0 33 52v56q0 54 -4 75h174q-3 -32 -3 -76z" />
    <glyph glyph-name="iotadieresis" unicode="&#x3ca;" horiz-adv-x="316" 
d="M240 377v-195q0 -54 26 -54q22 0 27 5v-110q-51 -35 -109 -35q-69 0 -99 47.5t-30 145.5v195q0 59 -3 101h193q-5 -55 -5 -100zM-56 623q0 37 26 63t62 26q37 0 63 -26t26 -63t-26 -62.5t-63 -25.5q-36 0 -62 25.5t-26 62.5zM180 623q0 37 26.5 63t63.5 26q36 0 61.5 -26
t25.5 -63t-25.5 -62.5t-61.5 -25.5q-38 0 -64 25.5t-26 62.5z" />
    <glyph glyph-name="upsilondieresis" unicode="&#x3cb;" horiz-adv-x="600" 
d="M249 367l-5 -156q-1 -33 16 -53t41 -20q38 0 55.5 32t17.5 108q0 120 -52 199h183q55 -108 55 -199q0 -143 -71.5 -215t-190.5 -72q-102 0 -171.5 58t-68.5 152l5 163q2 78 -8 113h186q10 -46 8 -110zM88 623q0 37 26 63t62 26q37 0 63 -26t26 -63t-26 -62.5t-63 -25.5
q-36 0 -62 25.5t-26 62.5zM324 623q0 37 26.5 63t63.5 26q36 0 61.5 -26t25.5 -63t-25.5 -62.5t-61.5 -25.5q-38 0 -64 25.5t-26 62.5z" />
    <glyph glyph-name="omicrontonos" unicode="&#x3cc;" horiz-adv-x="579" 
d="M32 239q0 103 75.5 175.5t181.5 72.5q107 0 182.5 -72.5t75.5 -175.5q0 -102 -75.5 -174t-182.5 -72t-182 72t-75 174zM190 539l126 159h183l-151 -159h-158zM208 239q0 -36 23.5 -61t57.5 -25t58 25t24 61q0 37 -24 62t-58 25t-57.5 -25t-23.5 -62z" />
    <glyph glyph-name="upsilontonos" unicode="&#x3cd;" horiz-adv-x="600" 
d="M249 367l-5 -156q-1 -33 16 -53t41 -20q38 0 55.5 32t17.5 108q0 120 -52 199h183q55 -108 55 -199q0 -143 -71.5 -215t-190.5 -72q-102 0 -171.5 58t-68.5 152l5 163q2 78 -8 113h186q10 -46 8 -110zM195 539l126 159h183l-151 -159h-158z" />
    <glyph glyph-name="omegatonos" unicode="&#x3ce;" horiz-adv-x="767" 
d="M467 263v-52q0 -55 31 -55q44 0 44 100q0 56 -21.5 118.5t-55.5 102.5h201q1 -1 6.5 -13t7.5 -16t8 -17t9 -20t8 -21t7.5 -24.5t6.5 -26t5.5 -29.5t3 -30.5t1.5 -33.5q0 -113 -54 -184t-162 -71q-45 0 -80.5 22t-50.5 60q-16 -37 -52.5 -59.5t-87.5 -22.5q-99 0 -151 69
t-52 182q0 41 9 82t18 63t24.5 54.5t17.5 35.5h199q-35 -46 -58.5 -106t-23.5 -115q0 -100 42 -100q33 0 33 52v56q0 54 -4 75h174q-3 -32 -3 -76zM299 539l126 159h183l-151 -159h-158z" />
    <glyph glyph-name="uni03D1" unicode="&#x3d1;" horiz-adv-x="577" 
d="M28 241h187q2 -4 10.5 -28.5t14 -35t19 -22.5t30.5 -12q31 -1 50 32t19 72q-148 14 -228.5 79t-80.5 175q0 89 70.5 154t169.5 65q114 0 184.5 -85.5t70.5 -270.5q0 -65 -14 -127.5t-43.5 -120.5t-83.5 -93.5t-125 -35.5q-29 0 -54.5 6.5t-44 17t-36 27.5t-29.5 33
t-25 40.5t-21 42t-20 44.5t-20 43zM361 405q0 71 -21 118.5t-57 47.5q-23 0 -39 -18t-16 -45q0 -84 133 -103z" />
    <glyph glyph-name="uni03D7" unicode="&#x3d7;" horiz-adv-x="683" 
d="M259 359v-108l82 140q55 96 165 96q20 0 36.5 -3t27 -7.5t17 -8.5t11.5 -8l5 -4q-34 -22 -81 -78q-52 -63 -84 -131l47 -67q38 -54 87 -54q36 0 78 24v-189q-16 -11 -47 -42.5t-63.5 -60t-78 -58t-109.5 -47t-138 -17.5q-162 0 -260 82v254q94 -160 260 -160
q66 0 114.5 15.5t84 38t46.5 26.5q-67 5 -136 115l-64 101v-108q0 -62 4 -100h-193q3 32 3 100v259q0 74 -4 118h186q4 -44 4 -118z" />
    <glyph glyph-name="uni03D9" unicode="&#x3d9;" horiz-adv-x="571" 
d="M27 239q0 103 75.5 175.5t181.5 72.5q107 0 182.5 -72.5t75.5 -175.5q0 -77 -46 -140t-119 -90v-48q0 -53 3 -116h-191q3 63 3 116v48q-74 27 -119.5 89.5t-45.5 140.5zM203 239q0 -36 23.5 -61t57.5 -25t58 25t24 61q0 37 -24 62t-58 25t-57.5 -25t-23.5 -62z" />
    <glyph glyph-name="uni03DB" unicode="&#x3db;" horiz-adv-x="464" 
d="M215 245q0 -57 76 -77t108.5 -56t32.5 -120q0 -69 -61 -174h-162q20 26 35 63t15 56q0 27 -16.5 46.5t-60.5 32.5q-28 9 -50.5 21t-46.5 35.5t-37.5 64t-13.5 95.5q0 98 60 166t149 84q25 4 34 20.5t10 57.5h156q-1 -105 -38 -160.5t-100 -67.5q-90 -17 -90 -87z" />
    <glyph glyph-name="uni03DD" unicode="&#x3dd;" horiz-adv-x="559" 
d="M57 -155q12 36 12 137v375q0 77 -3 120h271q93 0 137 6v-167q-58 4 -137 4h-72v-99h49q76 0 121 3v-164q-60 4 -121 4h-49v-82q0 -97 -4 -137h-204z" />
    <glyph glyph-name="uni03E1" unicode="&#x3e1;" horiz-adv-x="718" 
d="M172 434l131 61q-91 89 -212 103l185 87q79 -20 163 -102t132 -184q106 -231 35 -409l-188 -87q61 118 56 227l-131 -63q-18 -8 -99 -48l-65 142q8 3 100 45l158 74q-25 60 -43 91l-160 -75q-84 -42 -95 -51l-68 145q11 3 101 44z" />
    <glyph glyph-name="uni0400" unicode="&#x400;" horiz-adv-x="566" 
d="M322 524h-53v-93h40q111 0 173 4v-169q-62 4 -173 4h-40v-108h61q114 0 174 4v-170q-60 4 -174 4h-261q4 110 4 179v328q0 118 -4 178h253q81 0 174 6v-171q-41 4 -174 4zM265 884l135 -149h-171l-179 149h215z" />
    <glyph glyph-name="uni0401" unicode="&#x401;" horiz-adv-x="566" 
d="M322 524h-53v-93h40q111 0 173 4v-169q-62 4 -173 4h-40v-108h61q114 0 174 4v-170q-60 4 -174 4h-261q4 110 4 179v328q0 118 -4 178h253q81 0 174 6v-171q-41 4 -174 4zM63 826q0 40 28.5 68t68.5 28q41 0 69.5 -28t28.5 -68q0 -39 -28.5 -66.5t-69.5 -27.5
q-40 0 -68.5 27.5t-28.5 66.5zM308 826q0 40 29 68t70 28q40 0 68 -28t28 -68q0 -39 -28 -66.5t-68 -27.5q-41 0 -70 27.5t-29 66.5z" />
    <glyph glyph-name="uni0402" unicode="&#x402;" horiz-adv-x="813" 
d="M565 162q0 43 -25.5 72.5t-67.5 29.5q-36 0 -62 -10v-95q0 -97 4 -159h-205q5 78 5 179v345h-25q-86 0 -161 -5v170q60 -4 162 -4h340q99 0 159 4v-170q-75 5 -159 5h-120v-113q41 15 97 15q67 0 118.5 -23t80.5 -60.5t43.5 -80t14.5 -87.5q0 -112 -77 -192.5
t-223 -112.5v176q101 33 101 116z" />
    <glyph glyph-name="uni0403" unicode="&#x403;" horiz-adv-x="558" 
d="M69 0q4 62 4 179v327q0 119 -4 179h317q67 0 142 5v-176q-37 5 -142 5h-117v-340q0 -117 4 -179h-204zM205 735l134 149h215l-179 -149h-170z" />
    <glyph glyph-name="uni0404" unicode="&#x404;" horiz-adv-x="668" 
d="M360 270h-112q12 -54 63.5 -83.5t120.5 -29.5q98 0 167 55v-206q-15 -1 -73.5 -9.5t-100.5 -8.5q-172 0 -277 92t-105 263q0 159 104.5 257t277.5 98q47 0 96.5 -7.5t70.5 -7.5v-218q-52 63 -162 63q-72 0 -118 -27.5t-59 -69.5h107q94 0 154 4v-169q-60 4 -154 4z" />
    <glyph glyph-name="uni0405" unicode="&#x405;" horiz-adv-x="572" 
d="M298 510q0 -21 22 -41t53 -41t62 -48t53 -71t22 -100q0 -102 -75 -163.5t-191 -61.5q-42 0 -104.5 9t-82.5 10v211q28 -34 82 -56t99 -22q27 0 41 12.5t14 32.5q0 23 -21.5 44t-51.5 41.5t-60.5 46t-52 68.5t-21.5 98q0 103 67 162t187 59q29 0 77 -7.5t69 -8.5v-193
q-24 29 -62 45t-73 16q-53 0 -53 -42z" />
    <glyph glyph-name="uni0406" unicode="&#x406;" horiz-adv-x="345" 
d="M271 506v-327q0 -117 4 -179h-203q4 62 4 179v327q0 119 -4 179h203q-4 -60 -4 -179z" />
    <glyph glyph-name="uni0407" unicode="&#x407;" horiz-adv-x="345" 
d="M271 506v-327q0 -117 4 -179h-203q4 62 4 179v327q0 119 -4 179h203q-4 -60 -4 -179zM-47 826q0 40 28.5 68t68.5 28q41 0 69.5 -28t28.5 -68q0 -39 -28.5 -66.5t-69.5 -27.5q-40 0 -68.5 27.5t-28.5 66.5zM198 826q0 40 29 68t70 28q40 0 68 -28t28 -68q0 -39 -28 -66.5
t-68 -27.5q-41 0 -70 27.5t-29 66.5z" />
    <glyph glyph-name="uni0408" unicode="&#x408;" horiz-adv-x="344" 
d="M270 506v-524q0 -114 -76.5 -187t-191.5 -73q-23 0 -61 6.5t-60 6.5v196q34 -45 107 -45q38 0 62 30t24 76v514q0 119 -4 179h204q-4 -60 -4 -179z" />
    <glyph glyph-name="uni0409" unicode="&#x409;" horiz-adv-x="943" 
d="M410 125l-83 214l-98 -246q-21 -57 -29 -93h-200q18 30 72 152l245 556h59l95 -231h160q128 0 200.5 -63t72.5 -173q0 -104 -72.5 -172.5t-201.5 -68.5h-182q-12 58 -38 125zM597 327h-67l73 -177h5q45 0 73 26t28 65q0 86 -112 86z" />
    <glyph glyph-name="uni040A" unicode="&#x40a;" horiz-adv-x="1022" 
d="M258 506v-67h213v67q0 109 -5 179h194q-4 -176 -4 -179v-38h69q126 0 192.5 -66.5t66.5 -163.5q0 -99 -66 -168.5t-188 -69.5h-264q5 47 5 145v132h-213v-133q0 -88 4 -144h-193q4 56 4 145v361q0 125 -4 179h193q-4 -54 -4 -179zM656 306v-144h53q36 0 59.5 19.5
t23.5 53.5q0 31 -23.5 51t-59.5 20h-53z" />
    <glyph glyph-name="uni040B" unicode="&#x40b;" horiz-adv-x="821" 
d="M561 190q0 38 -22 60.5t-55 22.5q-44 0 -71 -11v-77q0 -133 5 -185h-205q4 62 4 179v345h-26q-88 0 -163 -5v170q60 -4 163 -4h330q110 0 172 4v-170q-78 5 -172 5h-108v-111q50 13 126 13q95 0 156.5 -55.5t61.5 -157.5v-108q0 -81 2 -105h-200q2 35 2 190z" />
    <glyph glyph-name="uni040C" unicode="&#x40c;" horiz-adv-x="732" 
d="M73 179v327q0 119 -4 179h203q-4 -60 -4 -179v-88h49q59 89 161 267h231q-39 -48 -118.5 -170t-103.5 -155q31 -42 111.5 -170.5t133.5 -189.5h-265q-99 178 -163 276h-36v-97q0 -117 4 -179h-203q4 62 4 179zM264 735l134 149h215l-179 -149h-170z" />
    <glyph glyph-name="uni040D" unicode="&#x40d;" horiz-adv-x="747" 
d="M479 144v185l-224 -203q-48 -43 -139 -138h-48q5 73 5 162v356q0 69 -5 179h205q-5 -70 -5 -179v-136l243 216q42 36 116 112h51q-4 -108 -4 -199v-354q0 -89 4 -145h-203q4 56 4 144zM365 884l135 -149h-171l-179 149h215z" />
    <glyph glyph-name="uni040E" unicode="&#x40e;" horiz-adv-x="684" 
d="M264 604l102 -209l91 215q17 43 20 75h207q-9 -18 -27.5 -55.5t-20.5 -41.5l-233 -487q-33 -72 -43 -101h-202q8 12 21.5 38.5t20.5 38.5l70 130l-207 375q-43 74 -63 103h233q10 -34 31 -81zM294 862q0 -20 15 -33.5t41 -13.5t42 13.5t16 33.5h149q0 -68 -55 -109.5
t-152 -41.5q-96 0 -150 41.5t-54 109.5h148z" />
    <glyph glyph-name="uni040F" unicode="&#x40f;" horiz-adv-x="743" 
d="M674 0h-213l-9 -222h-169l-3 222h-211q4 74 4 188v317q0 104 -5 179h205q-5 -50 -5 -179v-345h207v345q0 101 -6 179h205q-4 -38 -4 -176v-305q0 -143 4 -203z" />
    <glyph glyph-name="uni0410" unicode="&#x410;" horiz-adv-x="746" 
d="M746 0h-225q-5 14 -25 63l-20 46h-239l-31 -66q-13 -29 -15 -43h-191q45 76 81 152l258 545h53l269 -545q27 -56 85 -152zM413 257l-59 141l-57 -141h116z" />
    <glyph glyph-name="uni0411" unicode="&#x411;" horiz-adv-x="647" 
d="M69 685h244q124 0 219 5v-150q-91 5 -224 4h-39v-129h110q99 0 158.5 -55t59.5 -144q0 -97 -61.5 -156.5t-170.5 -59.5h-297q5 52 5 179v326q0 96 -4 180zM269 277v-138h60q37 0 54.5 20t17.5 48t-17.5 49t-54.5 21h-60z" />
    <glyph glyph-name="uni0412" unicode="&#x412;" horiz-adv-x="647" 
d="M70 0q5 52 5 179v293q0 173 -4 213h248q129 0 185.5 -50.5t56.5 -118.5q0 -92 -81 -132q46 -20 82 -62t36 -106q0 -91 -71 -153.5t-208 -62.5h-249zM401 214q0 35 -25 59t-65 24h-41v-168h36q95 0 95 85zM270 561v-137h30q33 0 53 17.5t20 50.5q0 28 -20.5 48.5
t-51.5 20.5h-31z" />
    <glyph glyph-name="uni0413" unicode="&#x413;" horiz-adv-x="558" 
d="M69 0q4 62 4 179v327q0 119 -4 179h317q67 0 142 5v-176q-37 5 -142 5h-117v-340q0 -117 4 -179h-204z" />
    <glyph glyph-name="uni0414" unicode="&#x414;" horiz-adv-x="835" 
d="M810 164l-32 -386h-167l7 222h-397l3 -222h-170l-28 386q24 -2 101 -2q8 15 51 103l208 443h62l205 -443q31 -64 53 -103q81 0 104 2zM493 162l-85 213l-86 -213h171z" />
    <glyph glyph-name="uni0415" unicode="&#x415;" horiz-adv-x="566" 
d="M322 524h-53v-93h40q111 0 173 4v-169q-62 4 -173 4h-40v-108h61q114 0 174 4v-170q-60 4 -174 4h-261q4 110 4 179v328q0 118 -4 178h253q81 0 174 6v-171q-41 4 -174 4z" />
    <glyph glyph-name="uni0416" unicode="&#x416;" horiz-adv-x="1047" 
d="M425 179v111h-39q-28 -50 -69 -147t-66 -143h-251q49 58 112.5 189t102.5 185q-23 33 -87 148t-103 163h224q23 -42 64 -130t71 -136h41v87q0 119 -4 179h202q-3 -90 -3 -179v-87h42q30 48 71.5 136t65.5 130h223q-38 -47 -101.5 -160.5t-88.5 -149.5q40 -55 103 -186
t112 -189h-251q-27 48 -68.5 145t-67.5 145h-40v-111q0 -86 3 -179h-202q4 62 4 179z" />
    <glyph glyph-name="uni0417" unicode="&#x417;" horiz-adv-x="564" 
d="M222 273q-52 0 -80 -6v160q24 -2 87 -2q35 0 54.5 16t19.5 40t-20.5 40t-53.5 16q-43 0 -85 -15t-69 -36v176q18 4 47.5 13.5t58.5 15.5t64 6q119 0 188 -53.5t69 -150.5q0 -45 -28 -84t-69 -55q47 -17 78 -56.5t31 -99.5q0 -96 -69 -152t-186 -56q-53 0 -92 7.5
t-69.5 19t-36.5 12.5v182h1q26 -28 71 -44t95 -16q83 0 83 64q0 58 -89 58z" />
    <glyph glyph-name="uni0418" unicode="&#x418;" horiz-adv-x="747" 
d="M479 144v185l-224 -203q-48 -43 -139 -138h-48q5 73 5 162v356q0 69 -5 179h205q-5 -70 -5 -179v-136l243 216q42 36 116 112h51q-4 -108 -4 -199v-354q0 -89 4 -145h-203q4 56 4 144z" />
    <glyph glyph-name="uni0419" unicode="&#x419;" horiz-adv-x="747" 
d="M479 144v185l-224 -203q-48 -43 -139 -138h-48q5 73 5 162v356q0 69 -5 179h205q-5 -70 -5 -179v-136l243 216q42 36 116 112h51q-4 -108 -4 -199v-354q0 -89 4 -145h-203q4 56 4 144zM344 862q0 -20 15 -33.5t41 -13.5t42 13.5t16 33.5h149q0 -68 -55 -109.5t-152 -41.5
q-96 0 -150 41.5t-54 109.5h148z" />
    <glyph glyph-name="uni041A" unicode="&#x41a;" horiz-adv-x="732" 
d="M73 179v327q0 119 -4 179h203q-4 -60 -4 -179v-88h49q59 89 161 267h231q-39 -48 -118.5 -170t-103.5 -155q31 -42 111.5 -170.5t133.5 -189.5h-265q-99 178 -163 276h-36v-97q0 -117 4 -179h-203q4 62 4 179z" />
    <glyph glyph-name="uni041B" unicode="&#x41b;" horiz-adv-x="704" 
d="M422 125q-8 24 -80 207q-53 -112 -111 -262l-24 -70h-207q26 42 77 152l252 556h51l248 -556q46 -106 76 -152h-244q-10 40 -38 125z" />
    <glyph glyph-name="uni041C" unicode="&#x41c;" horiz-adv-x="869" 
d="M737 697l81 -517q16 -108 39 -180h-217q0 21 -6.5 64t-17.5 104.5t-16 100.5l-165 -280h-35l-164 282q-44 -220 -45 -271h-178q3 10 36 181l99 516h49l241 -423l248 423h51z" />
    <glyph glyph-name="uni041D" unicode="&#x41d;" horiz-adv-x="765" 
d="M270 506v-67h225v67q0 109 -5 179h205q-5 -110 -5 -179v-362q0 -74 5 -144h-205q5 47 5 145v132h-225v-133q0 -88 4 -144h-203q4 56 4 145v361q0 125 -4 179h203q-4 -54 -4 -179z" />
    <glyph glyph-name="uni041E" unicode="&#x41e;" horiz-adv-x="831" 
d="M42 343q0 148 107 251.5t266 103.5q160 0 267 -103.5t107 -251.5q0 -149 -107 -252.5t-267 -103.5q-159 0 -266 103.5t-107 252.5zM239 343q0 -80 50.5 -135.5t125.5 -55.5t126 55.5t51 135.5t-51 135.5t-126 55.5t-125.5 -55.5t-50.5 -135.5z" />
    <glyph glyph-name="uni041F" unicode="&#x41f;" horiz-adv-x="758" 
d="M70 685h617q-4 -56 -4 -204v-305q0 -138 4 -176h-205q5 67 5 178v345h-216v-344q0 -127 5 -179h-206q5 78 5 179v318q0 126 -5 188z" />
    <glyph glyph-name="uni0420" unicode="&#x420;" horiz-adv-x="629" 
d="M270 226v-47q0 -127 5 -179h-205q5 52 5 179v327q0 129 -5 179h263q122 0 190.5 -64t68.5 -168q0 -105 -67.5 -166t-191.5 -61h-63zM270 538v-165h39q41 0 64.5 25t23.5 57q0 31 -23.5 57t-64.5 26h-39z" />
    <glyph glyph-name="uni0421" unicode="&#x421;" horiz-adv-x="645" 
d="M238 344q0 -78 53.5 -132.5t133.5 -54.5q97 0 156 58v-210q-18 -1 -69.5 -9t-104.5 -8q-161 0 -262.5 102.5t-101.5 253.5q0 150 101.5 252.5t262.5 102.5q51 0 98.5 -7.5t67.5 -7.5v-217q-60 62 -150 62q-79 0 -132 -53.5t-53 -131.5z" />
    <glyph glyph-name="uni0422" unicode="&#x422;" horiz-adv-x="665" 
d="M208 685h247q122 0 182 4v-170q-75 5 -182 5h-23q-1 -37 -1 -128v-217q0 -127 5 -179h-207q5 78 5 179v217q0 72 -3 128h-23q-105 0 -180 -5v170q60 -4 180 -4z" />
    <glyph glyph-name="uni0423" unicode="&#x423;" horiz-adv-x="684" 
d="M264 604l102 -209l91 215q17 43 20 75h207q-9 -18 -27.5 -55.5t-20.5 -41.5l-233 -487q-33 -72 -43 -101h-202q8 12 21.5 38.5t20.5 38.5l70 130l-207 375q-43 74 -63 103h233q10 -34 31 -81z" />
    <glyph glyph-name="uni0424" unicode="&#x424;" horiz-adv-x="869" 
d="M41 346q0 122 79 191t217 86q0 49 -3 99h200q-3 -50 -3 -99q138 -17 218 -86t80 -191t-80.5 -191.5t-217.5 -87.5q0 -52 4 -104h-201q3 49 3 104q-138 18 -217 87.5t-79 191.5zM647 346q0 51 -32 81.5t-84 34.5v-234q52 5 84 36.5t32 81.5zM223 346q0 -50 32 -81.5
t82 -36.5v234q-51 -5 -82.5 -35t-31.5 -81z" />
    <glyph glyph-name="uni0425" unicode="&#x425;" horiz-adv-x="678" 
d="M399 78l-70 117l-74 -128q-34 -63 -34 -67h-221q36 42 115 159l118 187l-117 183q-71 111 -107 156h234q19 -37 44 -82l53 -94l57 98q28 50 41 78h216q-42 -51 -105 -147l-114 -177l122 -186q76 -120 123 -175h-239q-9 22 -42 78z" />
    <glyph glyph-name="uni0426" unicode="&#x426;" horiz-adv-x="789" 
d="M764 164l-33 -386h-166l7 222h-504q5 62 5 188v317q0 104 -5 179h205q-5 -50 -5 -179v-345h201v345q0 114 -5 179h205q-5 -32 -5 -176v-305v-39h100z" />
    <glyph glyph-name="uni0427" unicode="&#x427;" horiz-adv-x="727" 
d="M261 488q0 -51 29.5 -75.5t73.5 -24.5q67 0 95 16v176q0 64 -4 105h203q-4 -41 -4 -105v-463q0 -77 5 -117h-204q4 31 4 105v138q-49 -19 -145 -19q-107 0 -177.5 55t-70.5 155v146q0 64 -4 105h203q-4 -41 -4 -105v-92z" />
    <glyph glyph-name="uni0428" unicode="&#x428;" horiz-adv-x="1044" 
d="M974 0h-906q5 38 5 191v319q0 143 -5 175h193q-6 -78 -6 -177v-354h176v356q0 143 -5 175h193q-6 -78 -6 -177v-354h177v352q0 104 -5 179h191q-5 -75 -5 -179v-317q0 -32 1.5 -95t1.5 -94z" />
    <glyph glyph-name="uni0429" unicode="&#x429;" horiz-adv-x="1089" 
d="M1063 164l-30 -368h-165l3 204h-803q5 38 5 191v319q0 143 -5 175h193q-6 -78 -6 -177v-346h171v348q0 150 -4 175h193q-6 -78 -6 -177v-346h172v344q0 129 -5 179h191q-5 -75 -5 -179v-317v-25h101z" />
    <glyph glyph-name="uni042A" unicode="&#x42a;" horiz-adv-x="786" 
d="M159 685h267q-4 -120 -4 -175v-33h69q116 0 182 -69t66 -166q0 -96 -69.5 -169t-180.5 -73h-268q5 52 5 179v326v19h-67q-91 0 -131 -4v169q40 -4 131 -4zM422 315q0 -25 -0.5 -76.5t-0.5 -76.5h41q35 0 56.5 24t21.5 54q0 31 -21 53t-57 22h-40z" />
    <glyph glyph-name="uni042B" unicode="&#x42b;" horiz-adv-x="898" 
d="M825 506v-327q0 -117 4 -179h-194q4 62 4 179v327q0 119 -4 179h194q-4 -60 -4 -179zM260 315q0 -25 -0.5 -76.5t-0.5 -76.5h31q35 0 56.5 24t21.5 54q0 31 -21 53t-57 22h-30zM69 685h196q-5 -75 -5 -175v-33h64q116 0 182 -69t66 -166q0 -96 -70 -169t-180 -73h-254
q5 52 5 179v326q0 120 -4 180z" />
    <glyph glyph-name="uni042C" unicode="&#x42c;" horiz-adv-x="656" 
d="M69 685h205q-5 -75 -5 -175v-33h92q116 0 182 -69t66 -166q0 -98 -66.5 -170t-183.5 -72h-291q5 52 5 179v326q0 120 -4 180zM269 315v-153h55q36 0 58.5 23.5t22.5 54.5q0 32 -22 53.5t-59 21.5h-55z" />
    <glyph glyph-name="uni042D" unicode="&#x42d;" horiz-adv-x="648" 
d="M400 270h-79q-93 0 -155 -4v169q62 -4 155 -4h80q-22 41 -65 66.5t-103 25.5q-110 0 -167 -73v214q9 2 47.5 12t65.5 13.5t63 3.5q168 0 266.5 -100t98.5 -250q0 -160 -100.5 -255t-264.5 -95q-35 0 -62.5 3.5t-62 11t-49.5 10.5v207q40 -35 74 -48.5t91 -13.5
q55 0 102.5 28.5t64.5 78.5z" />
    <glyph glyph-name="uni042E" unicode="&#x42e;" horiz-adv-x="1092" 
d="M268 506v-89h96q23 121 114.5 198.5t222.5 77.5q154 0 250 -101t96 -249t-96 -249t-250 -101q-127 0 -216.5 72.5t-117.5 187.5h-99v-74q0 -117 4 -179h-203q4 62 4 179v327q0 119 -4 179h203q-4 -60 -4 -179zM556 343q0 -80 39 -133t106 -53q69 0 108 53t39 133
t-39 132.5t-108 52.5q-67 0 -106 -52.5t-39 -132.5z" />
    <glyph glyph-name="uni042F" unicode="&#x42f;" horiz-adv-x="662" 
d="M394 180v62h-39q-18 -26 -66 -120t-69 -122h-220q42 46 99.5 142t80.5 128q-54 26 -81.5 69.5t-27.5 120.5q0 101 73 163t206 62h244q-5 -50 -5 -179v-326q0 -128 5 -180h-205q5 52 5 180zM394 381v150h-48q-37 0 -58 -21t-21 -50q0 -31 22.5 -55t55.5 -24h49z" />
    <glyph glyph-name="uni0430" unicode="&#x430;" horiz-adv-x="539" 
d="M196 354q-73 0 -122 -47v145q3 0 60 17.5t116 17.5q107 0 159.5 -58t52.5 -160v-104q0 -37 26 -37q18 0 27 5v-103q-49 -42 -115 -42q-67 0 -101 49q-44 -49 -114 -49q-68 0 -110 40.5t-42 107.5q0 66 43 110t116 44q59 0 89 -19v19q0 64 -85 64zM209 142q0 -16 11 -26.5
t27 -10.5t27 10.5t11 26.5q0 14 -11 24.5t-27 10.5t-27 -10.5t-11 -24.5z" />
    <glyph glyph-name="uni0431" unicode="&#x431;" horiz-adv-x="573" 
d="M484 717v-172q-41 -23 -161 -38q-73 -10 -104.5 -38t-36.5 -71q45 51 132 51q98 0 159 -63.5t61 -161.5q0 -101 -66.5 -166t-174.5 -65q-116 0 -182.5 87t-66.5 217q0 163 76 259.5t198 119.5q106 20 166 41zM220 223q0 -30 21 -50.5t50 -20.5t49 19.5t20 47.5
t-20.5 48.5t-49.5 20.5t-49.5 -19t-20.5 -46z" />
    <glyph glyph-name="uni0432" unicode="&#x432;" horiz-adv-x="552" 
d="M305 0h-247q5 50 5 122v202q0 30 -1 48h-49q24 52 36 105h245q199 0 199 -126q0 -31 -21.5 -60t-50.5 -35q92 -25 92 -107q0 -69 -50.5 -109t-157.5 -40zM334 152q0 17 -15 27t-41 10h-38v-76h42q52 0 52 39zM240 364v-84h33q46 0 46 46q0 17 -13.5 27.5t-33.5 10.5h-32z
" />
    <glyph glyph-name="uni0433" unicode="&#x433;" horiz-adv-x="454" 
d="M59 0q4 58 4 180v127q0 43 -1 65h-51q24 52 36 105h247q115 0 134 4v-164q-39 4 -134 4h-45v-141q0 -122 4 -180h-194z" />
    <glyph glyph-name="uni0434" unicode="&#x434;" horiz-adv-x="642" 
d="M620 142l-29 -318h-145l8 176h-266l1 -176h-145l-22 318q4 0 35 -0.5t51 -0.5l120 260q17 39 2 76h149l153 -336q23 0 52.5 0.5t35.5 0.5zM345 141l-48 127l-51 -127h99z" />
    <glyph glyph-name="uni0435" unicode="&#x435;" horiz-adv-x="533" 
d="M500 200h-293q34 -67 122 -67q62 0 113 27v-149q-11 0 -58.5 -9.5t-87.5 -9.5q-112 0 -188 70.5t-76 174.5t68 176.5t168 72.5q101 0 167.5 -72t66.5 -177q0 -21 -2 -37zM262 354q-21 0 -38 -17t-23 -43h118q-3 23 -17.5 41.5t-39.5 18.5z" />
    <glyph glyph-name="uni0436" unicode="&#x436;" horiz-adv-x="830" 
d="M253 406l58 -100h18v45q0 95 -3 126h181q-3 -31 -3 -126v-45h19l65 110q23 38 34 61h181v-1q-15 -15 -57 -80l-93 -145l114 -168q49 -68 63 -83h-205q-4 18 -27 61l-77 134h-17v-66q0 -97 3 -129h-181q3 63 3 129v66h-18l-78 -134q-22 -37 -30 -61h-203q30 32 63 82
l117 165l-86 138q-38 59 -67 92h186q11 -27 40 -71z" />
    <glyph glyph-name="uni0437" unicode="&#x437;" horiz-adv-x="485" 
d="M208 182q-69 0 -82 -3v118q8 -1 80 -1q21 0 35.5 8.5t14.5 22.5q0 32 -61 32q-38 0 -76 -11t-56 -29v146q98 21 161 21q99 0 151 -39.5t52 -105.5q0 -32 -24 -57.5t-55 -33.5q32 -5 64.5 -34t32.5 -75q0 -67 -60.5 -107.5t-159.5 -40.5q-44 0 -77 4.5t-61 11.5t-35 8v143
h1q17 -19 62.5 -30t88.5 -11q70 0 70 35q0 28 -66 28z" />
    <glyph glyph-name="uni0438" unicode="&#x438;" horiz-adv-x="587" 
d="M356 99v80l-137 -111q-35 -28 -84 -77h-77q5 67 5 107v254v20h-52q24 52 36 105h190q-3 -45 -3 -125v-81l169 147q44 38 68 68h59q-3 -57 -3 -141v-246q0 -72 3 -99h-176q2 36 2 99z" />
    <glyph glyph-name="uni0439" unicode="&#x439;" horiz-adv-x="587" 
d="M356 99v80l-137 -111q-35 -28 -84 -77h-77q5 67 5 107v254v20h-52q24 52 36 105h190q-3 -45 -3 -125v-81l169 147q44 38 68 68h59q-3 -57 -3 -141v-246q0 -72 3 -99h-176q2 36 2 99zM255 701q0 -30 15 -48t37 -18q23 0 38 18t15 48h128q0 -73 -53 -125t-129 -52
q-74 0 -126 52t-52 125h127z" />
    <glyph glyph-name="uni043A" unicode="&#x43a;" horiz-adv-x="607" 
d="M63 129v222v21h-53q24 52 36 105h206q-3 -31 -3 -126v-45h14l78 110q27 39 37 61h200q-44 -49 -69 -81l-94 -131l124 -182q27 -38 68 -83h-223q-6 21 -34 61l-90 134h-11v-66q0 -97 3 -129h-193q4 42 4 129z" />
    <glyph glyph-name="uni043B" unicode="&#x43b;" horiz-adv-x="569" 
d="M327 85l-56 143l-57 -143q-20 -46 -28 -85h-186q24 46 50 105l140 298q17 36 1 74h151l172 -372q42 -87 55 -105h-217q-7 40 -25 85z" />
    <glyph glyph-name="uni043C" unicode="&#x43c;" horiz-adv-x="658" 
d="M449 481h115l55 -355q11 -74 24 -126h-187q-2 34 -8 75l-15 99l-88 -184h-43l-94 186l-15 -88q-9 -56 -12 -88h-168q20 78 29 125l63 356h115l118 -241z" />
    <glyph glyph-name="uni043D" unicode="&#x43d;" horiz-adv-x="609" 
d="M239 355v-48h134v48q0 64 -2 122h181q-3 -47 -3 -122v-257q0 -44 3 -98h-181q2 36 2 99v81h-134v-82q0 -62 2 -98h-181q3 27 3 99v256v17h-49q24 52 36 105h191q-2 -40 -2 -122z" />
    <glyph glyph-name="uni043E" unicode="&#x43e;" horiz-adv-x="579" 
d="M32 239q0 103 75.5 175.5t181.5 72.5q107 0 182.5 -72.5t75.5 -175.5q0 -102 -75.5 -174t-182.5 -72t-182 72t-75 174zM208 239q0 -36 23.5 -61t57.5 -25t58 25t24 61q0 37 -24 62t-58 25t-57.5 -25t-23.5 -62z" />
    <glyph glyph-name="uni043F" unicode="&#x43f;" horiz-adv-x="610" 
d="M63 125v229v18h-52q24 52 36 105h509q-7 -70 -7 -141v-215q0 -89 5 -121h-193q3 84 3 125v197h-115v-197q0 -45 4 -125h-193q3 60 3 125z" />
    <glyph glyph-name="uni0440" unicode="&#x440;" horiz-adv-x="636" 
d="M63 -141v515h-52q24 54 37 103h201v-46q61 56 136 56q95 0 158 -70.5t63 -169.5q0 -107 -66.5 -181t-166.5 -74q-86 0 -124 29v-162q0 -63 4 -100h-193q3 42 3 100zM245 239q0 -39 26 -66t62 -27q34 0 58.5 27t24.5 66q0 38 -24 65.5t-58 27.5q-36 0 -62.5 -27.5
t-26.5 -65.5z" />
    <glyph glyph-name="uni0441" unicode="&#x441;" horiz-adv-x="451" 
d="M209 238q0 -36 26.5 -61.5t64.5 -25.5q58 0 97 47v-195q-5 0 -37.5 -5t-63.5 -5q-118 0 -193 71t-75 174q0 105 75.5 177t192.5 72q20 0 53.5 -5.5t43.5 -5.5v-192q-39 43 -93 43q-38 0 -64.5 -26t-26.5 -63z" />
    <glyph glyph-name="uni0442" unicode="&#x442;" horiz-adv-x="524" 
d="M154 477h215q108 0 130 2v-159q-44 2 -130 2h-14v-197q0 -95 3 -125h-192q3 60 3 125v197h-15q-88 0 -128 -2v159q40 -2 128 -2z" />
    <glyph glyph-name="uni0443" unicode="&#x443;" horiz-adv-x="586" 
d="M292 -131q-39 -64 -88 -90t-122 -26q-27 0 -56 9q45 49 71 87q79 112 118 188l-163 341q-20 41 -52 99h216q6 -30 21 -65l73 -169q25 65 55 165q7 18 16 69h205q-26 -45 -49 -105q-100 -240 -144 -327q-43 -85 -101 -176z" />
    <glyph glyph-name="uni0444" unicode="&#x444;" horiz-adv-x="714" 
d="M262 -99v102q-232 33 -232 236q0 97 58.5 160t173.5 81v94h-52q25 55 37 105h199q-4 -31 -4 -105v-94q114 -18 173.5 -81t59.5 -160q0 -99 -59 -159.5t-174 -76.5v-102q0 -70 7 -101h-191q4 29 4 101zM525 239q0 88 -83 113v-227q83 26 83 114zM179 239q0 -89 83 -114
v227q-83 -24 -83 -113z" />
    <glyph glyph-name="uni0445" unicode="&#x445;" horiz-adv-x="542" 
d="M281 85l-16 29l-16 -31q-19 -33 -35 -83h-214q30 35 82 115l84 124l-92 151q-29 49 -63 87h219q11 -38 33 -76l16 -31l20 33q21 38 36 74h201q-46 -57 -66 -87l-93 -144l77 -131q50 -80 88 -115h-221q-18 40 -40 85z" />
    <glyph glyph-name="uni0446" unicode="&#x446;" horiz-adv-x="660" 
d="M466 -176l2 176h-410q5 50 5 142v230h-46q24 52 36 105h200q-3 -84 -3 -125v-197h101v197q0 70 -5 125h194q-4 -88 -4 -125v-207h103l-26 -321h-147z" />
    <glyph glyph-name="uni0447" unicode="&#x447;" horiz-adv-x="588" 
d="M238 338q0 -58 56 -58q23 0 46 7v88q0 63 -5 102h196q-5 -39 -5 -102v-262q0 -67 6 -113h-197q5 28 5 99v51q-54 -16 -107 -16q-84 0 -132.5 44.5t-48.5 135.5v58h-49q24 52 36 105h202q-3 -51 -3 -102v-37z" />
    <glyph glyph-name="uni0448" unicode="&#x448;" horiz-adv-x="848" 
d="M792 0h-733q4 26 4 169v198v5h-52q24 52 36 105h198q-3 -114 -3 -125v-207h93l2 208q0 96 -4 124h184q-2 -29 -2 -125v-207h94v207q0 56 -3 125h185q-3 -69 -3 -125v-187q0 -108 4 -165z" />
    <glyph glyph-name="uni0449" unicode="&#x449;" horiz-adv-x="910" 
d="M716 -176l2 176h-659q4 26 4 169v198v5h-52q24 52 36 105h198q-3 -114 -3 -125v-207h93l2 208q0 96 -4 124h184q-2 -29 -2 -125v-207h94v207q0 56 -3 125h185q-3 -69 -3 -125v-187v-20h101l-26 -321h-147z" />
    <glyph glyph-name="uni044A" unicode="&#x44a;" horiz-adv-x="652" 
d="M402 0h-239q3 28 3 111v211l-140 -3v161q67 -3 138 -3h187q-3 -37 -3 -114v-12h81q86 0 140 -49.5t54 -124.5q0 -79 -58 -128t-163 -49zM444 174q0 23 -16.5 38.5t-48.5 15.5h-31v-108h32q64 0 64 54z" />
    <glyph glyph-name="uni044B" unicode="&#x44b;" horiz-adv-x="793" 
d="M276 0h-219q3 28 3 111v252q0 77 -2 114h182q-3 -37 -3 -114v-12h63q84 0 139 -48t55 -126q0 -79 -58.5 -128t-159.5 -49zM314 175q0 22 -16 37.5t-45 15.5h-16v-108h17q30 0 45 15t15 40zM733 377v-277q0 -72 3 -100h-182q2 21 2 100v277q0 67 -3 100h183
q-3 -33 -3 -100z" />
    <glyph glyph-name="uni044C" unicode="&#x44c;" horiz-adv-x="549" 
d="M307 0h-250q3 28 3 111v252q0 77 -2 114h187q-3 -37 -3 -106v-20h74q93 0 147.5 -48.5t54.5 -122.5q0 -80 -57.5 -130t-153.5 -50zM339 174q0 24 -16.5 39t-46.5 15h-34v-108h35q62 0 62 54z" />
    <glyph glyph-name="uni044D" unicode="&#x44d;" horiz-adv-x="477" 
d="M276 183h-50q-74 0 -107 -3v117q22 -3 107 -3h51q-10 27 -36.5 43t-63.5 16q-70 0 -118 -39v156q8 1 32.5 5.5t47 7t50.5 2.5q119 0 190 -70t71 -175t-70 -176.5t-191 -71.5q-33 0 -76.5 7.5t-57.5 8.5v153q51 -38 122 -38q81 0 99 60z" />
    <glyph glyph-name="uni044E" unicode="&#x44e;" horiz-adv-x="837" 
d="M250 366v-70h71q17 87 81.5 138.5t155.5 51.5q105 0 177.5 -71t72.5 -173q0 -103 -72.5 -176t-177.5 -73q-85 0 -149 47t-85 132h-74v-60q0 -58 3 -112h-192q0 6 1 46.5t1 65.5v254v7h-52q24 49 36 104h206q-3 -54 -3 -111zM485 240q0 -42 20.5 -70t52.5 -28t52.5 28
t20.5 70q0 40 -20.5 68t-52.5 28t-52.5 -28t-20.5 -68z" />
    <glyph glyph-name="uni044F" unicode="&#x44f;" horiz-adv-x="570" 
d="M331 127v27h-29q-11 -18 -35.5 -77.5t-38.5 -76.5h-217q21 18 66 83t81 92q-46 15 -78 51t-32 87q0 76 56.5 120t172.5 44h236q-3 -23 -3 -126v-224q0 -106 3 -127h-186q4 42 4 127zM331 269v87h-50q-25 0 -39.5 -12.5t-14.5 -29.5q0 -19 14 -32t40 -13h50z" />
    <glyph glyph-name="uni0450" unicode="&#x450;" horiz-adv-x="533" 
d="M500 200h-293q34 -67 122 -67q62 0 113 27v-149q-11 0 -58.5 -9.5t-87.5 -9.5q-112 0 -188 70.5t-76 174.5t68 176.5t168 72.5q101 0 167.5 -72t66.5 -177q0 -21 -2 -37zM262 354q-21 0 -38 -17t-23 -43h118q-3 23 -17.5 41.5t-39.5 18.5zM225 708l126 -170h-159
l-155 170h188z" />
    <glyph glyph-name="uni0451" unicode="&#x451;" horiz-adv-x="533" 
d="M500 200h-293q34 -67 122 -67q62 0 113 27v-149q-11 0 -58.5 -9.5t-87.5 -9.5q-112 0 -188 70.5t-76 174.5t68 176.5t168 72.5q101 0 167.5 -72t66.5 -177q0 -21 -2 -37zM262 354q-21 0 -38 -17t-23 -43h118q-3 23 -17.5 41.5t-39.5 18.5zM61 623q0 37 26 63t62 26
q37 0 63 -26t26 -63t-26 -62.5t-63 -25.5q-36 0 -62 25.5t-26 62.5zM297 623q0 37 26.5 63t63.5 26q36 0 61.5 -26t25.5 -63t-25.5 -62.5t-61.5 -25.5q-38 0 -64 25.5t-26 62.5z" />
    <glyph glyph-name="uni0452" unicode="&#x452;" horiz-adv-x="628" 
d="M264 625v-27h174v-108h-174v-47q44 19 96 19q98 0 160.5 -72.5t62.5 -187.5q0 -128 -74 -218t-198 -125v173q79 42 79 154q0 55 -20.5 92.5t-59.5 37.5q-23 0 -46 -10v-201q0 -57 3 -105h-193q4 43 4 105v385h-64v108h64v32h-52q21 49 36 104h206q-4 -52 -4 -109z" />
    <glyph glyph-name="uni0453" unicode="&#x453;" horiz-adv-x="454" 
d="M59 0q4 58 4 180v127q0 43 -1 65h-51q24 52 36 105h247q115 0 134 4v-164q-39 4 -134 4h-45v-141q0 -122 4 -180h-194zM172 538l126 170h187l-155 -170h-158z" />
    <glyph glyph-name="uni0454" unicode="&#x454;" horiz-adv-x="488" 
d="M260 184h-44q21 -60 106 -60q27 0 48.5 5.5t31.5 10.5t32 18v-149q-17 -1 -59.5 -8.5t-75.5 -7.5q-127 0 -197 70.5t-70 176.5q0 107 71 177t196 70q40 0 79.5 -6.5t50.5 -7.5v-150q-45 36 -110 36q-36 0 -65.5 -16.5t-39.5 -45.5h46q90 0 112 2v-118q-33 3 -112 3z" />
    <glyph glyph-name="uni0455" unicode="&#x455;" horiz-adv-x="458" 
d="M236 344q0 -8 19 -17t46 -21.5t54 -30.5t46 -51t19 -75q0 -73 -51 -117t-150 -44q-35 0 -100 13.5t-74 13.5v171q23 -23 76.5 -43.5t84.5 -20.5q28 0 28 14q0 8 -19 17.5t-46 22t-53.5 30t-45.5 49.5t-19 73q0 77 53 118t152 41q34 0 84 -9.5t58 -9.5v-157
q-19 22 -63 35.5t-69 13.5q-30 0 -30 -16z" />
    <glyph glyph-name="uni0456" unicode="&#x456;" horiz-adv-x="309" 
d="M249 377v-277q0 -62 4 -100h-194q4 42 4 100v272h-52q24 43 37 105h205q-4 -44 -4 -100zM57 623q0 42 29 71.5t70 29.5t69.5 -29.5t28.5 -71.5q0 -41 -28.5 -70.5t-69.5 -29.5t-70 29.5t-29 70.5z" />
    <glyph glyph-name="uni0457" unicode="&#x457;" horiz-adv-x="309" 
d="M249 377v-277q0 -62 4 -100h-192q2 42 2 100v272h-52q8 14 37 105h205q-4 -44 -4 -100zM-51 623q0 37 26 63t62 26q37 0 63 -26t26 -63t-26 -62.5t-63 -25.5q-36 0 -62 25.5t-26 62.5zM185 623q0 37 26.5 63t63.5 26q36 0 61.5 -26t25.5 -63t-25.5 -62.5t-61.5 -25.5
q-38 0 -64 25.5t-26 62.5z" />
    <glyph glyph-name="uni0458" unicode="&#x458;" horiz-adv-x="309" 
d="M249 377v-363q0 -130 -57 -196t-138 -66q-40 0 -76 4.5t-41 4.5v160q16 -13 53 -13q73 0 73 115v349h-52q23 56 37 105h204q-3 -36 -3 -100zM57 624q0 41 29.5 70.5t70.5 29.5q40 0 68.5 -29.5t28.5 -70.5q0 -42 -28.5 -71.5t-68.5 -29.5q-41 0 -70.5 29.5t-29.5 71.5z
" />
    <glyph glyph-name="uni0459" unicode="&#x459;" horiz-adv-x="776" 
d="M325 81l-59 154l-55 -154q-19 -50 -23 -81h-188l56 116l130 285q17 36 1 76h149l60 -126h149q88 0 144.5 -46t56.5 -129q0 -82 -62.5 -129t-168.5 -47h-163q-6 24 -27 81zM567 176q0 22 -18 37t-44 15h-52l49 -108h11q24 0 39 16t15 40z" />
    <glyph glyph-name="uni045A" unicode="&#x45a;" horiz-adv-x="843" 
d="M592 0h-233q3 52 3 105v75h-113v-79q0 -41 3 -101h-192q3 27 3 102v250v20h-52q24 52 36 105h205q-3 -31 -3 -106v-64h113v64q0 61 -3 106h192q-3 -96 -3 -106v-20h63q89 0 145.5 -45t56.5 -128q0 -81 -58 -129.5t-163 -48.5zM635 175q0 25 -17.5 41t-49.5 16h-20v-116
h21q32 0 49 16t17 43z" />
    <glyph glyph-name="uni045B" unicode="&#x45b;" horiz-adv-x="608" 
d="M366 100v145q0 33 -14.5 51t-40.5 18q-57 0 -57 -73v-141q0 -61 5 -100h-195q4 41 4 100v390h-55v108h55v32h-52q24 50 36 104h207q-5 -26 -5 -99v-37h140v-108h-140v-79q41 51 126 51q86 0 129 -59.5t43 -162.5v-140q0 -61 5 -100h-195q4 41 4 100z" />
    <glyph glyph-name="uni045C" unicode="&#x45c;" horiz-adv-x="607" 
d="M63 129v222v21h-53q24 52 36 105h206q-3 -31 -3 -126v-45h14l78 110q27 39 37 61h200q-44 -49 -69 -81l-94 -131l124 -182q27 -38 68 -83h-223q-6 21 -34 61l-90 134h-11v-66q0 -97 3 -129h-193q4 42 4 129zM248 538l126 170h187l-155 -170h-158z" />
    <glyph glyph-name="uni045D" unicode="&#x45d;" horiz-adv-x="587" 
d="M356 99v80l-137 -111q-35 -28 -84 -77h-77q5 67 5 107v254v20h-52q24 52 36 105h190q-3 -45 -3 -125v-81l169 147q44 38 68 68h59q-3 -57 -3 -141v-246q0 -72 3 -99h-176q2 36 2 99zM275 708l126 -170h-159l-155 170h188z" />
    <glyph glyph-name="uni045E" unicode="&#x45e;" horiz-adv-x="586" 
d="M292 -131q-39 -64 -88 -90t-122 -26q-27 0 -56 9q45 49 71 87q79 112 118 188l-163 341q-20 41 -52 99h216q6 -30 21 -65l73 -169q25 65 55 165q7 18 16 69h205q-26 -45 -49 -105q-100 -240 -144 -327q-43 -85 -101 -176zM240 701q0 -30 15 -48t37 -18q23 0 38 18t15 48
h128q0 -73 -53 -125t-129 -52q-74 0 -126 52t-52 125h127z" />
    <glyph glyph-name="uni045F" unicode="&#x45f;" horiz-adv-x="610" 
d="M554 0h-170l-14 -176h-143l2 176h-171q5 50 5 141v231h-52q24 52 36 105h206q-3 -42 -3 -125v-207h114v207q0 81 -4 125h193q0 -8 -1.5 -53t-1.5 -72v-229q0 -69 4 -123z" />
    <glyph glyph-name="uni0462" unicode="&#x462;" horiz-adv-x="766" 
d="M141 638h67v6q0 53 -2 78h200q-3 -37 -3 -80v-4h151q64 0 106 4v-168q-46 2 -106 2h-151v-57h95q105 0 166 -57.5t61 -146.5q0 -95 -63.5 -155t-173.5 -60h-285q5 52 5 179v297h-67q-79 0 -102 -2v168q31 -4 102 -4zM403 271v-123h42q31 0 50.5 17t19.5 44q0 28 -19 45
t-51 17h-42z" />
    <glyph glyph-name="uni0463" unicode="&#x463;" horiz-adv-x="623" 
d="M5 477h125v78q0 34 -1 57h189q-2 -23 -2 -58v-77h169v-143h-169v-35h60q205 0 205 -147q0 -80 -56 -116t-149 -36h-250q4 41 4 179v155h-125v143zM316 183v-67h47q16 0 27 10.5t11 22.5q0 34 -38 34h-47z" />
    <glyph glyph-name="uni0472" unicode="&#x472;" horiz-adv-x="834" 
d="M42 343q0 148 107 251.5t266 103.5q160 0 267 -103.5t107 -251.5q0 -149 -107 -252.5t-267 -103.5q-159 0 -266 103.5t-107 252.5zM415 152q64 0 111 41t61 105h-343q14 -64 60.5 -105t110.5 -41zM415 534q-61 0 -106.5 -37t-62.5 -97h338q-16 59 -62 96.5t-107 37.5z
" />
    <glyph glyph-name="uni0473" unicode="&#x473;" horiz-adv-x="578" 
d="M32 239q0 103 75 175.5t181 72.5q107 0 182.5 -72.5t75.5 -175.5q0 -102 -75.5 -174t-182.5 -72q-106 0 -181 72t-75 174zM288 140q59 0 83 56h-164q21 -56 81 -56zM288 339q-59 0 -81 -55h163q-22 55 -82 55z" />
    <glyph glyph-name="uni0474" unicode="&#x474;" horiz-adv-x="750" 
d="M272 561l93 -212q30 90 79 210q60 147 186 147q46 0 90 -11v-179q-36 16 -68 16q-35 0 -70 -74q-109 -232 -206 -471h-29l-265 547q-57 113 -80 151h222q12 -48 48 -124z" />
    <glyph glyph-name="uni0475" unicode="&#x475;" horiz-adv-x="567" 
d="M240 401l45 -100q13 36 24 60q53 126 158 126q36 0 63 -10v-175q-25 17 -55 17q-23 0 -42 -32q-21 -33 -69.5 -134.5t-77.5 -169.5h-33l-195 395q-26 57 -58 99h215q5 -29 25 -76z" />
    <glyph glyph-name="uni0490" unicode="&#x490;" horiz-adv-x="591" 
d="M69 0q4 62 4 179v327q0 119 -4 179h329l27 150h149l-23 -321q-37 5 -142 5h-140v-340q0 -117 4 -179h-204z" />
    <glyph glyph-name="uni0491" unicode="&#x491;" horiz-adv-x="480" 
d="M60 0q4 58 4 180v127q0 43 -1 65h-52q24 52 36 105h242l26 138h143l-21 -298q-40 4 -135 4h-52v-141q0 -93 3 -180h-193z" />
    <glyph glyph-name="uni0492" unicode="&#x492;" horiz-adv-x="610" 
d="M113 0q4 62 4 179v84h-94v129h94v114q0 119 -4 179h317q67 0 142 5v-176q-38 5 -142 5h-117v-127h199v-129h-199v-84q0 -117 4 -179h-204z" />
    <glyph glyph-name="uni0493" unicode="&#x493;" horiz-adv-x="466" 
d="M22 124v133h51v50q0 43 -1 65h-48q24 52 36 105h244q115 0 134 4v-164q-39 4 -134 4h-45v-64h129v-133h-129q0 -82 4 -124h-194q3 57 4 124h-51z" />
    <glyph glyph-name="uni0496" unicode="&#x496;" horiz-adv-x="1093" 
d="M425 179v111h-39q-28 -50 -69 -147t-66 -143h-251q49 58 112.5 189t102.5 185q-23 33 -87 148t-103 163h224q23 -42 64 -130t71 -136h41v87q0 119 -4 179h202q-3 -90 -3 -179v-87h42q30 48 71.5 136t65.5 130h223q-38 -47 -101.5 -160.5t-88.5 -149.5q17 -23 34.5 -53.5
t26.5 -47t29.5 -60t24.5 -50.5h123l-30 -368h-165l3 204h-82q-27 48 -68.5 145t-67.5 145h-40v-111q0 -86 3 -179h-202q4 62 4 179z" />
    <glyph glyph-name="uni0497" unicode="&#x497;" horiz-adv-x="888" 
d="M253 406l58 -100h18v45q0 95 -3 126h181q-3 -31 -3 -126v-45h19l65 110q23 38 34 61h181v-1q-15 -15 -57 -80l-93 -145l72 -106h142l-26 -321h-147l2 176h-71q-4 18 -27 61l-77 134h-17v-66q0 -97 3 -129h-181q3 63 3 129v66h-18l-78 -134q-22 -37 -30 -61h-203
q30 32 63 82l117 165l-86 138q-38 59 -67 92h186q11 -27 40 -71z" />
    <glyph glyph-name="uni0498" unicode="&#x498;" horiz-adv-x="564" 
d="M222 273q-52 0 -80 -6v160q24 -2 87 -2q35 0 54.5 16t19.5 40t-20.5 40t-53.5 16q-43 0 -85 -15t-69 -36v176q18 4 47.5 13.5t58.5 15.5t64 6q119 0 188 -53.5t69 -150.5q0 -45 -28 -84t-69 -55q47 -17 78 -56.5t31 -99.5q0 -84 -54 -138t-148 -66q62 -47 62 -115
q0 -61 -48 -102.5t-112 -41.5q-62 0 -99 23v114q22 -22 58 -22q49 0 49 57q0 26 -23.5 54.5t-64.5 43.5q-17 5 -40.5 13.5t-32.5 10.5v182h1q26 -28 71 -44t95 -16q83 0 83 64q0 58 -89 58z" />
    <glyph glyph-name="uni0499" unicode="&#x499;" horiz-adv-x="492" 
d="M208 182q-69 0 -82 -3v118q8 -1 80 -1q21 0 35.5 8.5t14.5 22.5q0 32 -61 32q-38 0 -76 -11t-56 -29v146q98 21 161 21q99 0 151 -39.5t52 -105.5q0 -32 -24 -57.5t-55 -33.5q32 -5 64.5 -34t32.5 -75q0 -60 -49 -99t-131 -47q63 -55 63 -124q0 -46 -42.5 -77t-97.5 -31
q-49 0 -88 25v95q23 -23 47 -21q20 0 35 15t15 37q0 51 -60 85q-23 3 -51 10t-34 8v143h1q17 -19 62.5 -30t88.5 -11q70 0 70 35q0 28 -66 28z" />
    <glyph glyph-name="uni049A" unicode="&#x49a;" horiz-adv-x="773" 
d="M73 179v327q0 119 -4 179h203q-4 -60 -4 -179v-88h49q59 89 161 267h231q-39 -48 -118.5 -170t-103.5 -155q25 -34 127 -196h134l-30 -368h-165l3 204h-89q-99 178 -163 276h-36v-97q0 -117 4 -179h-203q4 62 4 179z" />
    <glyph glyph-name="uni049B" unicode="&#x49b;" horiz-adv-x="656" 
d="M64 129v222v21h-53q24 52 36 105h206q-3 -31 -3 -126v-45h14l78 110q27 39 37 61h200q-44 -49 -69 -81l-94 -131l82 -120h136l-26 -321h-147l2 176h-78q-6 21 -34 61l-90 134h-11v-66q0 -97 3 -129h-193q4 42 4 129z" />
    <glyph glyph-name="uni049C" unicode="&#x49c;" horiz-adv-x="761" 
d="M302 536h73v-118q24 38 50 82.5t58 102.5t46 82h222q-38 -47 -113 -173t-103 -164q36 -49 105.5 -169t120.5 -179h-243q-16 28 -64.5 118t-78.5 139v-103h-73v122h-34v-97q0 -117 4 -179h-203q4 62 4 179v327q0 119 -4 179h203q-4 -60 -4 -179v-88h34v118z" />
    <glyph glyph-name="uni049D" unicode="&#x49d;" horiz-adv-x="670" 
d="M64 129v222v21h-53q24 52 36 105h206q-3 -31 -3 -126v-54h16v86h72v-86h8l44 180h191v-1q-8 -17 -26 -66t-37.5 -84.5t-46.5 -60.5q35 -31 61.5 -76.5t51 -103.5t40.5 -85h-224l-53 204h-9v-80h-72v80h-16v-75q0 -97 3 -129h-193q4 42 4 129z" />
    <glyph glyph-name="uni04A0" unicode="&#x4a0;" horiz-adv-x="871" 
d="M212 179v327v30h-67q-101 0 -131 -3v156q40 -4 131 -4h266q-4 -60 -4 -179v-88h49q59 89 161 267h231q-39 -48 -118.5 -170t-103.5 -155q31 -42 111.5 -170.5t133.5 -189.5h-265q-99 178 -163 276h-36v-97q0 -117 4 -179h-203q4 62 4 179z" />
    <glyph glyph-name="uni04A1" unicode="&#x4a1;" horiz-adv-x="713" 
d="M169 129v222v9h-36q-55 0 -107 -4v125q55 -4 114 -4h218q-3 -31 -3 -126v-45h14l78 110q27 39 37 61h200q-44 -49 -69 -81l-94 -131l124 -182q27 -38 68 -83h-223q-6 21 -34 61l-90 134h-11v-66q0 -97 3 -129h-193q4 42 4 129z" />
    <glyph glyph-name="uni04A2" unicode="&#x4a2;" horiz-adv-x="799" 
d="M268 506v-67h225v67q0 109 -5 179h205q-5 -110 -5 -179v-342h86l-30 -368h-165l3 204h-94q5 47 5 145v132h-225v-133q0 -88 4 -144h-203q4 56 4 145v361q0 125 -4 179h203q-4 -54 -4 -179z" />
    <glyph glyph-name="uni04A3" unicode="&#x4a3;" horiz-adv-x="690" 
d="M496 -176l2 176h-130q2 36 2 99v81h-134v-82q0 -62 2 -98h-181q3 27 3 99v256v17h-49q24 52 36 105h191q-2 -40 -2 -122v-48h134v48q0 64 -2 122h181q-3 -47 -3 -122v-210h123l-26 -321h-147z" />
    <glyph glyph-name="uni04AA" unicode="&#x4aa;" horiz-adv-x="645" 
d="M238 344q0 -78 53.5 -132.5t133.5 -54.5q97 0 156 58v-210q-22 -1 -58 -7t-62 -8q24 -27 33.5 -52.5t9.5 -63.5q0 -58 -48.5 -98.5t-111.5 -40.5q-62 0 -99 23v114q22 -22 62 -22q45 0 45 47q0 49 -42 103q-121 29 -194 124t-73 220q0 150 101.5 252.5t262.5 102.5
q51 0 98.5 -7.5t67.5 -7.5v-217q-60 62 -150 62q-79 0 -132 -53.5t-53 -131.5z" />
    <glyph glyph-name="uni04AB" unicode="&#x4ab;" horiz-adv-x="451" 
d="M209 238q0 -36 26.5 -61.5t64.5 -25.5q58 0 97 47v-195q-12 -1 -32 -4t-33 -4q63 -54 63 -124q0 -46 -42.5 -77t-97.5 -31q-49 0 -88 25v95q23 -23 47 -21q20 0 35 14.5t15 36.5q0 65 -68 95q-77 26 -122.5 88.5t-45.5 141.5q0 105 75.5 177t192.5 72q20 0 53.5 -5.5
t43.5 -5.5v-192q-39 43 -93 43q-38 0 -64.5 -26t-26.5 -63z" />
    <glyph glyph-name="uni04AE" unicode="&#x4ae;" horiz-adv-x="706" 
d="M253 0q3 93 3 149v148l-165 260q-54 83 -91 128h236q17 -39 38 -75l87 -146l85 143q22 35 42 78h218q-33 -42 -102 -149l-153 -237v-150q0 -87 4 -149h-202z" />
    <glyph glyph-name="uni04AF" unicode="&#x4af;" horiz-adv-x="549" 
d="M0 477h210q13 -60 23 -89l53 -153l47 155q15 53 21 87h195q-37 -76 -62 -137l-122 -265v-229q0 -45 3 -105h-186q3 33 3 105v222l-131 298q-23 56 -54 111z" />
    <glyph glyph-name="uni04B0" unicode="&#x4b0;" horiz-adv-x="706" 
d="M253 0q3 93 3 149v31h-151v138h137l-151 239q-54 83 -91 128h236q17 -39 38 -75l87 -146l85 143q22 35 42 78h218q-33 -42 -102 -149l-141 -218h139v-138h-151v-31q0 -87 4 -149h-202z" />
    <glyph glyph-name="uni04B1" unicode="&#x4b1;" horiz-adv-x="549" 
d="M0 477h211q10 -44 21 -76l54 -153l45 143q18 59 22 86h196q-24 -43 -63 -128l-121 -246v-8h114v-133h-114v-116q0 -45 3 -105h-186q3 33 3 105v116h-123v133h123v6l-132 272q-20 44 -53 104z" />
    <glyph glyph-name="uni04B2" unicode="&#x4b2;" horiz-adv-x="765" 
d="M399 78l-70 117l-74 -128q-34 -63 -34 -67h-221q36 42 115 159l118 187l-117 183q-71 111 -107 156h234q19 -37 44 -82l53 -94l57 98q28 50 41 78h216q-42 -51 -105 -147l-114 -177l122 -186q4 -8 7 -11h175l-30 -368h-165l3 204h-106q-9 22 -42 78z" />
    <glyph glyph-name="uni04B3" unicode="&#x4b3;" horiz-adv-x="586" 
d="M281 85l-16 29l-16 -31q-19 -33 -35 -83h-214q30 35 82 115l84 124l-92 151q-29 49 -63 87h219q11 -38 33 -76l16 -31l20 33q21 38 36 74h201q-46 -57 -66 -87l-93 -144l59 -101h128l-26 -321h-147l2 176h-72q-18 40 -40 85z" />
    <glyph glyph-name="uni04B6" unicode="&#x4b6;" horiz-adv-x="759" 
d="M252 488q0 -51 29.5 -75.5t73.5 -24.5q67 0 95 16v176q0 64 -4 105h203q-4 -41 -4 -105v-416h89l-30 -368h-165l3 204h-96q4 31 4 105v138q-49 -19 -145 -19q-107 0 -177.5 55t-70.5 155v146q0 64 -4 105h203q-4 -41 -4 -105v-92z" />
    <glyph glyph-name="uni04B7" unicode="&#x4b7;" horiz-adv-x="645" 
d="M233 338q0 -58 56 -58q23 0 46 7v88q0 63 -5 102h196q-5 -39 -5 -102v-230h102l-26 -321h-147l2 176h-122q5 28 5 99v51q-54 -16 -107 -16q-84 0 -132.5 44.5t-48.5 135.5v61q0 61 -4 102h193q-3 -51 -3 -102v-37z" />
    <glyph glyph-name="uni04B8" unicode="&#x4b8;" horiz-adv-x="727" 
d="M327 508h72v-119q40 3 60 15v176q0 64 -4 105h203q-4 -41 -4 -105v-463q0 -77 5 -117h-204q4 31 4 105v138q-23 -10 -60 -14v-103h-72v98h-13q-107 0 -177.5 55t-70.5 155v146q0 64 -4 105h203q-4 -41 -4 -105v-92q0 -75 66 -95v115z" />
    <glyph glyph-name="uni04B9" unicode="&#x4b9;" horiz-adv-x="616" 
d="M272 368h72v-83q16 5 23 10v80q0 61 -4 102h196q-6 -37 -6 -102v-262q0 -59 7 -113h-197q4 29 4 99v66q-7 -4 -23 -10v-83h-72v71h-22q-91 0 -141 44.5t-50 135.5v49h-56q24 52 36 105h209q-3 -51 -3 -102v-19q0 -52 27 -68v80z" />
    <glyph glyph-name="uni04BA" unicode="&#x4ba;" horiz-adv-x="709" 
d="M457 105v118q0 100 -93 100q-48 0 -96 -23v-195q0 -64 4 -105h-203q4 41 4 105v464q0 76 -5 116h204q-4 -31 -4 -105v-128q72 35 166 35q99 0 158.5 -59.5t59.5 -170.5v-152q0 -64 4 -105h-203q4 41 4 105z" />
    <glyph glyph-name="uni04BB" unicode="&#x4bb;" horiz-adv-x="599" 
d="M358 100v169q0 33 -14.5 51t-40.5 18q-57 0 -57 -73v-165q0 -61 5 -100h-195q4 41 4 100v530h-52q24 50 36 104h207q-5 -39 -5 -99v-200q48 51 126 51q86 0 129 -59.5t43 -162.5v-164q0 -61 5 -100h-195q4 41 4 100z" />
    <glyph glyph-name="uni04C0" unicode="&#x4c0;" horiz-adv-x="345" 
d="M271 506v-327q0 -117 4 -179h-203q4 62 4 179v327q0 119 -4 179h203q-4 -60 -4 -179z" />
    <glyph glyph-name="uni04C1" unicode="&#x4c1;" horiz-adv-x="1047" 
d="M425 179v111h-39q-28 -50 -69 -147t-66 -143h-251q49 58 112.5 189t102.5 185q-23 33 -87 148t-103 163h224q23 -42 64 -130t71 -136h41v87q0 119 -4 179h202q-3 -90 -3 -179v-87h42q30 48 71.5 136t65.5 130h223q-38 -47 -101.5 -160.5t-88.5 -149.5q40 -55 103 -186
t112 -189h-251q-27 48 -68.5 145t-67.5 145h-40v-111q0 -86 3 -179h-202q4 62 4 179zM466 862q0 -20 15 -33.5t41 -13.5t42 13.5t16 33.5h149q0 -68 -55 -109.5t-152 -41.5q-96 0 -150 41.5t-54 109.5h148z" />
    <glyph glyph-name="uni04C2" unicode="&#x4c2;" horiz-adv-x="830" 
d="M253 406l58 -100h18v45q0 95 -3 126h181q-3 -31 -3 -126v-45h19l65 110q23 38 34 61h181v-1q-15 -15 -57 -80l-93 -145l114 -168q49 -68 63 -83h-205q-4 18 -27 61l-77 134h-17v-66q0 -97 3 -129h-181q3 63 3 129v66h-18l-78 -134q-22 -37 -30 -61h-203q30 32 63 82
l117 165l-86 138q-38 59 -67 92h186q11 -27 40 -71zM363 701q0 -30 15 -48t37 -18q23 0 38 18t15 48h128q0 -73 -53 -125t-129 -52q-74 0 -126 52t-52 125h127z" />
    <glyph glyph-name="uni04CF" unicode="&#x4cf;" horiz-adv-x="306" 
d="M246 635v-535q0 -67 6 -100h-197q5 28 5 100v535q0 53 -5 99h195q-4 -49 -4 -99z" />
    <glyph glyph-name="uni04D0" unicode="&#x4d0;" horiz-adv-x="746" 
d="M746 0h-225q-5 14 -25 63l-20 46h-239l-31 -66q-13 -29 -15 -43h-191q45 76 81 152l258 545h53l269 -545q27 -56 85 -152zM413 257l-59 141l-57 -141h116zM302 862q0 -20 15 -33.5t41 -13.5t42 13.5t16 33.5h149q0 -68 -55 -109.5t-152 -41.5q-96 0 -150 41.5t-54 109.5
h148z" />
    <glyph glyph-name="uni04D1" unicode="&#x4d1;" horiz-adv-x="539" 
d="M196 354q-73 0 -122 -47v145q3 0 60 17.5t116 17.5q107 0 159.5 -58t52.5 -160v-104q0 -37 26 -37q18 0 27 5v-103q-49 -42 -115 -42q-67 0 -101 49q-44 -49 -114 -49q-68 0 -110 40.5t-42 107.5q0 66 43 110t116 44q59 0 89 -19v19q0 64 -85 64zM209 142q0 -16 11 -26.5
t27 -10.5t27 10.5t11 26.5q0 14 -11 24.5t-27 10.5t-27 -10.5t-11 -24.5zM197 701q0 -30 15 -48t37 -18q23 0 38 18t15 48h128q0 -73 -53 -125t-129 -52q-74 0 -126 52t-52 125h127z" />
    <glyph glyph-name="uni04D6" unicode="&#x4d6;" horiz-adv-x="566" 
d="M322 524h-53v-93h40q111 0 173 4v-169q-62 4 -173 4h-40v-108h61q114 0 174 4v-170q-60 4 -174 4h-261q4 110 4 179v328q0 118 -4 178h253q81 0 174 6v-171q-41 4 -174 4zM217 862q0 -20 15 -33.5t41 -13.5t42 13.5t16 33.5h149q0 -68 -55 -109.5t-152 -41.5
q-96 0 -150 41.5t-54 109.5h148z" />
    <glyph glyph-name="uni04D7" unicode="&#x4d7;" horiz-adv-x="533" 
d="M500 200h-293q34 -67 122 -67q62 0 113 27v-149q-11 0 -58.5 -9.5t-87.5 -9.5q-112 0 -188 70.5t-76 174.5t68 176.5t168 72.5q101 0 167.5 -72t66.5 -177q0 -21 -2 -37zM262 354q-21 0 -38 -17t-23 -43h118q-3 23 -17.5 41.5t-39.5 18.5zM213 701q0 -30 15 -48t37 -18
q23 0 38 18t15 48h128q0 -73 -53 -125t-129 -52q-74 0 -126 52t-52 125h127z" />
    <glyph glyph-name="uni04D8" unicode="&#x4d8;" horiz-adv-x="757" 
d="M46 401h465v2q0 45 -51 85.5t-137 40.5q-117 0 -203 -64v195q15 2 53 13.5t86.5 20t104.5 8.5q165 0 256.5 -99t91.5 -254q0 -150 -96.5 -253t-246.5 -103q-148 0 -238 95.5t-90 241.5q0 38 5 71zM378 166q51 0 84.5 22.5t37.5 62.5h-242q12 -85 120 -85z" />
    <glyph glyph-name="uni04D9" unicode="&#x4d9;" horiz-adv-x="550" 
d="M51 274h288q-8 31 -38 50.5t-73 19.5q-77 0 -126 -26v147q11 0 64.5 11t93.5 11q116 0 187 -68.5t71 -178.5q0 -102 -68.5 -174t-168.5 -72q-103 0 -168.5 68.5t-65.5 175.5q0 25 4 36zM286 125q24 0 39.5 14.5t17.5 40.5h-110q2 -23 15.5 -39t37.5 -16z" />
    <glyph glyph-name="uni04E2" unicode="&#x4e2;" horiz-adv-x="747" 
d="M479 144v185l-224 -203q-48 -43 -139 -138h-48q5 73 5 162v356q0 69 -5 179h205q-5 -70 -5 -179v-136l243 216q42 36 116 112h51q-4 -108 -4 -199v-354q0 -89 4 -145h-203q4 56 4 144zM225 863h353v-117h-353v117z" />
    <glyph glyph-name="uni04E3" unicode="&#x4e3;" horiz-adv-x="587" 
d="M356 99v80l-137 -111q-35 -28 -84 -77h-77q5 67 5 107v254v20h-52q24 52 36 105h190q-3 -45 -3 -125v-81l169 147q44 38 68 68h59q-3 -57 -3 -141v-246q0 -72 3 -99h-176q2 36 2 99zM151 681h322v-123h-322v123z" />
    <glyph glyph-name="uni04E6" unicode="&#x4e6;" horiz-adv-x="831" 
d="M42 343q0 148 107 251.5t266 103.5q160 0 267 -103.5t107 -251.5q0 -149 -107 -252.5t-267 -103.5q-159 0 -266 103.5t-107 252.5zM239 343q0 -80 50.5 -135.5t125.5 -55.5t126 55.5t51 135.5t-51 135.5t-126 55.5t-125.5 -55.5t-50.5 -135.5zM195 826q0 40 28.5 68
t68.5 28q41 0 69.5 -28t28.5 -68q0 -39 -28.5 -66.5t-69.5 -27.5q-40 0 -68.5 27.5t-28.5 66.5zM440 826q0 40 29 68t70 28q40 0 68 -28t28 -68q0 -39 -28 -66.5t-68 -27.5q-41 0 -70 27.5t-29 66.5z" />
    <glyph glyph-name="uni04E7" unicode="&#x4e7;" horiz-adv-x="579" 
d="M32 239q0 103 75.5 175.5t181.5 72.5q107 0 182.5 -72.5t75.5 -175.5q0 -102 -75.5 -174t-182.5 -72t-182 72t-75 174zM208 239q0 -36 23.5 -61t57.5 -25t58 25t24 61q0 37 -24 62t-58 25t-57.5 -25t-23.5 -62zM83 623q0 37 26 63t62 26q37 0 63 -26t26 -63t-26 -62.5
t-63 -25.5q-36 0 -62 25.5t-26 62.5zM319 623q0 37 26.5 63t63.5 26q36 0 61.5 -26t25.5 -63t-25.5 -62.5t-61.5 -25.5q-38 0 -64 25.5t-26 62.5z" />
    <glyph glyph-name="uni04E8" unicode="&#x4e8;" horiz-adv-x="834" 
d="M42 343q0 148 107 251.5t266 103.5q160 0 267 -103.5t107 -251.5q0 -149 -107 -252.5t-267 -103.5q-159 0 -266 103.5t-107 252.5zM415 152q64 0 111 41t61 105h-343q14 -64 60.5 -105t110.5 -41zM415 534q-61 0 -106.5 -37t-62.5 -97h338q-16 59 -62 96.5t-107 37.5z
" />
    <glyph glyph-name="uni04E9" unicode="&#x4e9;" horiz-adv-x="578" 
d="M32 239q0 103 75 175.5t181 72.5q107 0 182.5 -72.5t75.5 -175.5q0 -102 -75.5 -174t-182.5 -72q-106 0 -181 72t-75 174zM288 140q59 0 83 56h-164q21 -56 81 -56zM288 339q-59 0 -81 -55h163q-22 55 -82 55z" />
    <glyph glyph-name="uni04EE" unicode="&#x4ee;" horiz-adv-x="684" 
d="M264 604l102 -209l91 215q17 43 20 75h207q-9 -18 -27.5 -55.5t-20.5 -41.5l-233 -487q-33 -72 -43 -101h-202q8 12 21.5 38.5t20.5 38.5l70 130l-207 375q-43 74 -63 103h233q10 -34 31 -81zM184 863h353v-117h-353v117z" />
    <glyph glyph-name="uni04EF" unicode="&#x4ef;" horiz-adv-x="586" 
d="M292 -131q-39 -64 -88 -90t-122 -26q-27 0 -56 9q45 49 71 87q79 112 118 188l-163 341q-20 41 -52 99h216q6 -30 21 -65l73 -169q25 65 55 165q7 18 16 69h205q-26 -45 -49 -105q-100 -240 -144 -327q-43 -85 -101 -176zM132 681h322v-123h-322v123z" />
    <glyph glyph-name="uni04F2" unicode="&#x4f2;" horiz-adv-x="684" 
d="M264 604l102 -209l91 215q17 43 20 75h207q-9 -18 -27.5 -55.5t-20.5 -41.5l-233 -487q-33 -72 -43 -101h-202q8 12 21.5 38.5t20.5 38.5l70 130l-207 375q-43 74 -63 103h233q10 -34 31 -81zM172 735l96 159h167l-116 -159h-147zM394 735l96 159h167l-116 -159h-147z
" />
    <glyph glyph-name="uni04F3" unicode="&#x4f3;" horiz-adv-x="586" 
d="M292 -131q-39 -64 -88 -90t-122 -26q-27 0 -56 9q45 49 71 87q79 112 118 188l-163 341q-20 41 -52 99h216q6 -30 21 -65l73 -169q25 65 55 165q7 18 16 69h205q-26 -45 -49 -105q-100 -240 -144 -327q-43 -85 -101 -176zM116 539l96 159h167l-116 -159h-147zM338 539
l96 159h167l-116 -159h-147z" />
    <glyph glyph-name="Wgrave" unicode="&#x1e80;" horiz-adv-x="1101" 
d="M536 603l35 -61l20 40q33 65 47 103h184q-50 -84 -90 -156l-74 -134l51 -93l147 289q32 62 44 94h196q-8 -15 -30 -52.5t-37 -66.5l-316 -575h-14l-136 238l-131 -238h-25l-306 530q-77 132 -99 164h219q19 -46 49 -100l168 -296l40 79l-109 192q-33 57 -79 125h203
q17 -34 43 -82zM532 884l135 -149h-171l-179 149h215z" />
    </font>
</defs>
</svg>
